<svg width="509" height="1059" viewBox="0 0 509 1059" fill="none" xmlns="http://www.w3.org/2000/svg">
    <filter id="blur-filter" x="-50%" y="-50%" width="200%" height="197%">
        <feGaussianBlur in="SourceGraphic" stdDeviation="85"/>
    </filter>

    <path d="M303 1018.5C303 1040.87 284.196 1059 261 1059C237.804 1059 219 1040.87 219 1018.5C219 996.132 237.804 978 261 978C284.196 978 303 996.132 303 1018.5Z"
          fill="#20F1C0"/>
    <rect x="0.996094" y="947.422" width="508" height="87.6689" rx="20" fill="#20F1C0"/>
    <g clip-path="url(#clip0_1_2)">
        <path d="M498.112 1010.18H11.888C5.86846 1010.18 1 995.272 1 976.902V33.5723C1 15.1763 5.87699 0.297974 11.888 0.297974H498.112C504.132 0.297974 509 15.2024 509 33.5723V976.876C509.008 995.272 504.132 1010.18 498.112 1010.18Z"
              fill="url(#paint0_linear_1_2)"/>
        <path d="M356.466 1013.17H498.13C504.139 1013.17 508.999 998.259 508.999 979.877V545.906L356.466 1013.17Z"
              fill="url(#paint1_linear_1_2)"/>
        <path d="M153.542 0H11.8697C5.86031 0 1 14.9142 1 33.2962V467.242L153.542 0Z" fill="url(#paint2_linear_1_2)"/>

        <g filter="url(#filter0_b_1_2)">
            <rect width="508" height="310" transform="translate(1 675)" fill="#16212D" fill-opacity="0.01"/>
        </g>

        <g filter="url(#blur-filter)">
        <ellipse cx="145.71" cy="829.822" rx="82.9051" ry="79.273" fill="#0074BC" fill-opacity="0.4"/>
        <ellipse cx="312.077" cy="829.822" rx="82.3487" ry="78.7409" fill="#20F1C0" fill-opacity="0.41"/>
        </g>

        <path d="M428 201.487C428 226.801 406.286 247.323 379.5 247.323C352.714 247.323 331 226.801 331 201.487C331 176.172 352.714 155.651 379.5 155.651C406.286 155.651 428 176.172 428 201.487Z"
              fill="#EDF0F4"/>
        <path d="M388.153 204.748L401.449 192.221C402.446 191.282 403.006 190.005 403.003 188.674L403.025 178.549C403.024 178.03 402.812 177.531 402.432 177.155L376.925 201.208C375.924 202.146 375.36 203.423 375.36 204.755C375.36 206.088 375.924 207.365 376.925 208.303L394.909 225.246C396.251 226.507 398.202 226.996 400.028 226.529C401.854 226.062 403.278 224.71 403.763 222.982C404.248 221.253 403.721 219.412 402.379 218.151L388.153 204.748Z"
              fill="#008C62"/>
        <path d="M400.945 176.612H360.881C357.642 176.612 355.251 178.925 355.251 182.082V221.585C355.232 222.941 355.794 224.246 356.809 225.205C357.824 226.164 359.206 226.694 360.641 226.676C362.077 226.699 363.462 226.17 364.477 225.21C365.493 224.251 366.052 222.942 366.028 221.585V186.357H392.68L402.439 177.18C402.045 176.805 401.505 176.6 400.945 176.612Z"
              fill="#00E6A0"/>
        <path d="M188.638 210.565C182.56 233.841 157.87 248.007 133.489 242.202C109.118 236.399 94.2825 212.823 100.363 189.549C106.438 166.27 131.128 152.103 155.501 157.906C179.88 163.709 194.716 187.288 188.638 210.565Z"
              fill="#50AF95"/>
        <path fill-rule="evenodd" clip-rule="evenodd"
              d="M150.263 204.98C149.941 205.003 148.279 205.098 144.57 205.098C141.621 205.098 139.527 205.014 138.792 204.98C127.394 204.502 118.886 202.607 118.886 200.339C118.886 198.07 127.394 196.178 138.792 195.692V203.093C139.538 203.145 141.672 203.265 144.621 203.265C148.161 203.265 149.933 203.124 150.252 203.096V195.697C161.626 196.181 170.116 198.076 170.116 200.339C170.116 202.602 161.629 204.496 150.252 204.978L150.263 204.98ZM150.263 194.932V188.308H166.136V178.209H122.919V188.308H138.789V194.929C125.89 195.495 116.188 197.935 116.188 200.858C116.188 203.782 125.89 206.219 138.789 206.788V228.012H150.26V206.78C163.131 206.214 172.816 203.777 172.816 200.856C172.816 197.935 163.139 195.497 150.26 194.929L150.263 194.932Z"
              fill="white"/>
        <path d="M77 564.354C77 588.087 56.4051 607.325 31 607.325C5.5949 607.325 -15 588.087 -15 564.354C-15 540.622 5.5949 521.383 31 521.383C56.4051 521.383 77 540.622 77 564.354Z"
              fill="white"/>
        <path fill-rule="evenodd" clip-rule="evenodd"
              d="M31 521.383C56.4073 521.383 77 540.62 77 564.354C77 588.089 56.4073 607.325 31 607.325C5.59275 607.325 -15 588.089 -15 564.354C-15 540.62 5.59275 521.383 31 521.383ZM52.9751 543.737C50.3057 541.243 45.9202 541.243 43.2508 543.737C41.6777 545.207 40.9627 547.299 41.2964 549.303C41.3917 549.971 41.344 550.684 41.0104 551.307C40.5813 552.109 39.8663 552.688 39.0083 552.999C38.1503 553.311 37.1492 553.311 36.2912 552.91C31.3337 550.773 25.3751 551.752 21.4663 555.404C17.5575 559.011 16.5088 564.577 18.7969 569.253C19.2259 570.099 19.2259 571.034 18.8922 571.835C18.6062 572.592 17.9865 573.26 17.0808 573.661C16.6041 573.884 16.1275 573.973 15.6031 573.973C15.3648 573.973 15.1264 573.928 14.8881 573.884H14.7927C12.6477 573.617 10.5503 574.24 8.9772 575.709C7.69015 576.912 6.97513 578.559 6.97513 580.251C6.97513 581.988 7.69015 583.591 8.9772 584.793C11.6466 587.287 16.0321 587.287 18.7016 584.793C20.2269 583.324 20.9896 581.231 20.6083 579.183V578.871C20.5606 578.292 20.7036 577.758 20.942 577.223C21.3233 576.422 22.0383 575.843 22.8964 575.531C23.7544 575.22 24.7078 575.22 25.6135 575.62C30.571 577.758 36.5295 576.778 40.4383 573.127C44.3471 569.52 45.3958 563.909 43.1078 559.278C42.7264 558.476 42.6788 557.586 43.0124 556.784C43.3461 555.983 43.9658 555.315 44.8715 554.914C45.5389 554.647 46.2062 554.558 46.8259 554.647H47.1596C49.3047 554.914 51.4021 554.291 52.9751 552.821C55.6446 550.328 55.6446 546.231 52.9751 543.737ZM36.4342 559.322C39.3896 562.128 39.3896 566.625 36.4342 569.386C33.4788 572.147 28.6642 572.147 25.6611 569.386C22.7057 566.581 22.7057 562.083 25.6611 559.322C28.6642 556.562 33.4788 556.562 36.4342 559.322ZM55.5015 541.466C59.5534 545.296 59.5534 551.441 55.5015 555.226C53.9762 556.606 52.1171 557.497 50.2104 557.942C52.9275 564.8 51.1637 572.637 45.5389 577.891C41.6777 581.498 36.4819 583.413 31.1907 583.413C28.8072 583.413 26.4238 583.012 24.1357 582.211C23.7544 584.036 22.801 585.818 21.2756 587.243C17.1762 591.028 10.5979 591.028 6.54611 587.243C2.4943 583.413 2.4943 577.268 6.54611 573.483C8.0715 572.058 9.93057 571.167 11.885 570.811C9.07254 563.909 10.8363 555.983 16.4611 550.728C22.086 545.474 30.5233 543.826 37.9119 546.409C38.3409 544.628 39.2466 542.891 40.772 541.466C44.8715 537.681 51.4497 537.681 55.5015 541.466Z"
              fill="#38A2FF"/>
        <path d="M196 564.832C196 589.355 174.51 609.235 148 609.235C121.49 609.235 99.9999 589.355 99.9999 564.832C99.9999 540.308 121.49 520.428 148 520.428C174.51 520.428 196 540.308 196 564.832Z"
              fill="#EDF0F4"/>
        <path d="M129.014 541.89L178.4 572.737L166.186 589.254L116.8 558.164L129.014 541.89Z"
              fill="url(#paint3_linear_1_2)"/>
        <path d="M178.936 572.8C174.715 578.5 160.468 576.27 147.013 567.347C133.293 558.672 125.906 547.023 129.864 541.323C134.085 535.622 148.332 537.853 161.787 546.775C175.506 555.202 182.894 567.099 178.936 572.8Z"
              fill="url(#paint4_linear_1_2)"/>
        <path d="M166.131 589.101C161.896 594.765 147.604 592.549 134.105 583.684C120.607 574.82 112.931 563.493 117.166 557.584C121.401 551.92 135.693 554.136 149.192 563.001C162.69 571.865 170.101 583.438 166.131 589.101Z"
              fill="url(#paint5_linear_1_2)"/>
        <path d="M178.204 572.543L165.983 589.183C161.733 594.812 147.387 592.364 133.838 583.799C131.182 582.086 128.791 580.373 126.4 578.416C128.26 578.171 130.65 577.192 133.041 574.745C137.292 570.585 139.417 569.606 141.277 569.851C143.136 569.851 145.262 571.564 148.715 575.724C152.169 579.884 156.951 581.108 159.873 578.905C160.139 578.66 160.404 578.66 160.67 578.416C163.061 576.703 163.858 575.969 168.374 568.138C169.437 566.18 173.156 562.999 178.204 564.467C179.532 567.648 179.532 570.34 178.204 572.543Z"
              fill="#0E0F23"/>
        <path fill-rule="evenodd" clip-rule="evenodd"
              d="M175.959 571.928C172.263 576.842 159.328 574.385 146.92 566.277C134.249 558.168 126.857 547.849 130.553 542.935C134.249 538.021 147.184 540.478 159.592 548.586C171.999 556.694 179.391 567.014 175.959 571.928ZM164.343 564.557C162.495 567.014 156.16 565.785 149.824 561.854C143.752 557.923 140.056 552.763 141.904 550.306C143.752 547.849 150.088 549.077 156.424 553.009C162.495 556.94 166.191 562.1 164.343 564.557Z"
              fill="white"/>
        <path d="M127.91 546.62C127.91 546.415 127.67 546.21 127.43 546.415C127.19 546.62 126.95 546.62 126.95 546.825C127.19 547.44 127.43 547.85 127.43 548.261C127.43 548.466 127.67 548.671 127.91 548.466C128.15 548.466 128.39 548.261 128.15 548.055C128.15 547.645 128.15 547.235 127.91 546.62Z"
              fill="white"/>
        <path d="M129.583 550.38C129.583 550.133 129.322 549.886 129.061 550.133C128.8 550.38 128.8 550.38 128.8 550.627C131.67 556.806 137.672 563.479 145.501 568.422C145.762 568.669 146.023 568.422 146.284 568.422C146.545 568.175 146.284 567.928 146.284 567.681C138.194 562.738 132.453 556.312 129.583 550.38Z"
              fill="white"/>
        <path d="M161.292 574.897C161.046 574.897 160.8 574.897 160.8 575.119C160.8 575.341 160.8 575.563 161.046 575.563C161.784 575.785 162.769 576.007 163.508 576.229C163.754 576.229 164 576.229 164 576.007C164 575.785 164 575.563 163.754 575.563C163.015 575.341 162.031 575.119 161.292 574.897Z"
              fill="white"/>
        <path d="M166.114 575.702C165.857 575.702 165.6 575.924 165.6 576.146C165.6 576.368 165.857 576.59 166.114 576.59C168.171 576.812 170.486 577.034 172.286 576.812C172.543 576.812 172.8 576.59 172.8 576.368C172.8 576.146 172.543 575.924 172.286 575.924C170.228 576.146 168.171 575.924 166.114 575.702Z"
              fill="white"/>
        <path d="M309 564.354C309 588.087 288.405 607.325 263 607.325C237.595 607.325 217 588.087 217 564.354C217 540.622 237.595 521.383 263 521.383C288.405 521.383 309 540.622 309 564.354Z"
              fill="#EDF0F4"/>
        <path d="M249.99 543.15L276.107 557.23V571.591L236.167 550.049L248.967 543.15C249.286 542.989 249.67 542.989 249.99 543.15Z"
              fill="#3CA9E5"/>
        <path d="M276.107 542.869L262.79 550.049L276.107 557.23V542.869Z" fill="#2853C3"/>
        <path d="M276.107 542.869L288.918 549.768C289.231 549.946 289.426 550.26 289.435 550.602V578.761L276.107 571.591V542.869Z"
              fill="#1A4199"/>
        <path d="M289.424 578.771L276.624 585.67C276.291 585.85 275.88 585.85 275.547 585.67L249.441 571.591V557.21L289.424 578.771Z"
              fill="#2853C3"/>
        <path d="M236.167 550.049V578.208C236.164 578.561 236.361 578.889 236.683 579.073L249.484 585.972V557.21L236.167 550.049Z"
              fill="#60BEFF"/>
        <path d="M249.484 585.952L262.79 578.771L249.484 571.591V585.952Z" fill="#3CA9E5"/>
        <path d="M424 564.354C424 588.087 403.181 607.325 377.5 607.325C351.819 607.325 331 588.087 331 564.354C331 540.622 351.819 521.383 377.5 521.383C403.181 521.383 424 540.622 424 564.354Z"
              fill="#0FD297"/>
        <path d="M380.46 569.598C381.234 570.572 381.985 571.532 382.847 572.443C384.4 574.086 386.176 575.434 388.484 576.078C389.751 576.432 391.054 576.59 392.366 576.702C392.47 576.711 392.547 576.721 392.606 576.826C393.292 578.035 393.671 579.303 393.493 580.681C393.479 580.788 393.46 580.895 393.438 581.028C393.433 581.055 393.397 581.066 393.376 581.047C393.065 580.764 392.768 580.509 392.444 580.284C391.362 579.531 390.171 579.019 388.798 578.968C386.971 578.9 385.403 579.903 384.761 581.518C384.239 582.832 384.26 584.166 384.609 585.51C384.626 585.575 384.644 585.64 384.657 585.706C384.663 585.737 384.658 585.777 384.631 585.77C384.092 585.624 383.61 585.373 383.153 585.082C382.311 584.546 381.659 583.844 381.116 583.048C381.027 582.917 381.084 582.828 381.136 582.723C381.581 581.824 381.976 580.908 382.277 579.957C382.883 578.035 382.791 576.118 382.248 574.202C381.822 572.701 381.163 571.282 380.49 569.867C380.453 569.79 380.421 569.711 380.386 569.634C380.363 569.578 380.431 569.554 380.46 569.598Z"
              fill="white"/>
        <path d="M377.338 587.231C377.306 587.315 377.177 587.316 377.144 587.232C376.435 585.428 375.471 583.805 374.669 582.115C374.14 581.001 373.643 579.876 373.459 578.658V578.657C373.448 578.583 373.53 578.528 373.604 578.558C376.024 579.545 378.427 579.545 380.844 578.547C380.917 578.516 380.998 578.573 380.988 578.648C380.854 579.548 380.561 580.35 380.227 581.142C379.598 582.63 378.797 584.045 378.094 585.501C377.826 586.054 377.576 586.614 377.338 587.231Z"
              fill="white"/>
        <path d="M377.083 566.621C377.128 566.522 377.28 566.524 377.322 566.623C377.42 566.855 377.515 567.082 377.62 567.305C378.314 568.791 379.019 570.274 379.708 571.763C379.916 572.211 380.075 572.68 380.271 573.134C380.341 573.296 380.309 573.363 380.131 573.426C378.186 574.11 376.244 574.114 374.296 573.434C374.112 573.37 374.103 573.3 374.161 573.141C374.757 571.516 375.555 569.97 376.285 568.397C376.558 567.808 376.817 567.213 377.083 566.621Z"
              fill="white"/>
        <path d="M394.473 576.876C394.453 576.829 394.493 576.778 394.548 576.781C395.847 576.862 397.107 576.981 398.354 577.211C398.522 577.242 398.518 577.34 398.536 577.445C398.831 579.124 398.779 580.796 398.386 582.456C397.913 584.448 397.017 586.256 395.516 587.77C393.224 590.082 390.334 591.077 386.981 590.915C383.914 590.766 381.21 589.715 378.822 587.945C378.704 587.858 378.679 587.786 378.728 587.649C379.132 586.54 379.657 585.481 380.21 584.432L380.211 584.431C380.234 584.387 380.302 584.385 380.335 584.424C383.125 587.7 387.74 588.582 391.362 586.486C394.672 584.57 396.117 580.733 394.473 576.876Z"
              fill="white"/>
        <path d="M374.021 569.661C373.495 570.769 372.971 571.849 372.548 572.995C371.785 575.06 371.41 577.154 371.96 579.324C372.262 580.515 372.765 581.637 373.316 582.743C373.36 582.83 373.389 582.897 373.321 582.997C372.53 584.15 371.532 585.088 370.151 585.634C370.044 585.677 369.934 585.715 369.798 585.764C369.77 585.774 369.742 585.751 369.75 585.724C369.859 585.333 369.95 584.969 369.999 584.597C370.164 583.354 370.048 582.145 369.41 581.021C368.56 579.525 366.836 578.771 365.001 579.065C363.508 579.304 362.269 579.988 361.184 580.939C361.131 580.985 361.078 581.032 361.023 581.076C360.997 581.096 360.958 581.112 360.951 581.087C360.818 580.583 360.812 580.072 360.857 579.561C360.938 578.619 361.27 577.746 361.744 576.914C361.822 576.776 361.935 576.777 362.059 576.766C363.124 576.674 364.18 576.532 365.221 576.297C367.326 575.821 369.076 574.789 370.6 573.396C371.794 572.305 372.794 571.068 373.783 569.822C373.837 569.754 373.894 569.689 373.95 569.623C373.991 569.575 374.048 569.617 374.021 569.661Z"
              fill="white"/>
        <path d="M355.935 575.98C355.84 575.996 355.775 575.894 355.837 575.826C357.174 574.356 358.212 572.772 359.395 571.286C360.174 570.305 360.981 569.345 362.03 568.589L362.031 568.588C362.095 568.543 362.188 568.581 362.196 568.655C362.481 571.085 363.683 573.008 365.827 574.442C365.893 574.486 365.879 574.58 365.804 574.608C364.894 574.952 363.996 575.118 363.087 575.247C361.378 575.488 359.651 575.554 357.935 575.719C357.282 575.782 356.632 575.862 355.935 575.98Z"
              fill="white"/>
        <path d="M375.123 565.472C375.237 565.458 375.312 565.58 375.24 565.664C375.072 565.858 374.906 566.048 374.749 566.243C373.704 567.543 372.668 568.848 371.617 570.143C371.3 570.534 370.941 570.895 370.614 571.28C370.497 571.416 370.418 571.425 370.27 571.314C368.656 570.099 367.682 568.547 367.345 566.648C367.313 566.469 367.375 566.426 367.553 566.393C369.373 566.057 371.222 565.923 373.06 565.72C373.748 565.644 374.435 565.554 375.123 565.472Z"
              fill="white"/>
        <path d="M374.207 584.516C374.241 584.476 374.309 584.482 374.333 584.528C374.907 585.609 375.426 586.676 375.834 587.789C375.889 587.939 375.794 587.985 375.705 588.052C374.279 589.127 372.687 589.922 370.934 590.436C368.83 591.054 366.688 591.241 364.52 590.797C361.207 590.119 358.829 588.303 357.305 585.538C355.911 583.01 355.543 580.32 356.009 577.524C356.032 577.386 356.086 577.329 356.239 577.301C357.48 577.07 358.736 576.961 359.995 576.879H359.996C360.049 576.876 360.085 576.928 360.065 576.974C358.39 580.845 359.871 584.98 363.646 586.831C367.096 588.522 371.414 587.761 374.207 584.516Z"
              fill="white"/>
        <path d="M373.968 559.299C373.193 558.325 372.443 557.365 371.581 556.453C370.028 554.81 368.252 553.463 365.944 552.818C364.676 552.465 363.373 552.306 362.061 552.194C361.958 552.186 361.881 552.175 361.821 552.071C361.136 550.861 360.757 549.594 360.935 548.216C360.949 548.108 360.968 548.002 360.99 547.869C360.994 547.841 361.031 547.83 361.052 547.849C361.363 548.133 361.66 548.387 361.983 548.612C363.066 549.366 364.257 549.878 365.629 549.929C367.456 549.997 369.024 548.994 369.666 547.379C370.189 546.064 370.167 544.73 369.819 543.387C369.802 543.322 369.784 543.256 369.771 543.19C369.765 543.159 369.769 543.12 369.796 543.127C370.335 543.272 370.818 543.523 371.275 543.814C372.117 544.351 372.768 545.052 373.311 545.848C373.401 545.98 373.344 546.069 373.292 546.174C372.846 547.072 372.451 547.988 372.151 548.939C371.544 550.862 371.636 552.778 372.18 554.695C372.605 556.195 373.265 557.615 373.938 559.03C373.975 559.106 374.007 559.185 374.041 559.263C374.065 559.318 373.996 559.343 373.968 559.299Z"
              fill="white"/>
        <path d="M377.089 541.665C377.121 541.581 377.25 541.58 377.283 541.664C377.992 543.468 378.956 545.091 379.758 546.781C380.287 547.895 380.784 549.02 380.968 550.238V550.239C380.979 550.313 380.897 550.368 380.823 550.338C378.403 549.351 376 549.351 373.584 550.349C373.51 550.38 373.429 550.323 373.44 550.248C373.573 549.348 373.866 548.546 374.2 547.754C374.829 546.266 375.63 544.851 376.333 543.395C376.601 542.842 376.851 542.283 377.089 541.665Z"
              fill="white"/>
        <path d="M377.344 562.275C377.3 562.374 377.147 562.372 377.105 562.273C377.007 562.041 376.912 561.814 376.808 561.591C376.113 560.105 375.408 558.622 374.719 557.133C374.512 556.685 374.353 556.216 374.156 555.762C374.086 555.6 374.118 555.533 374.296 555.47C376.241 554.786 378.183 554.782 380.131 555.462C380.315 555.526 380.325 555.597 380.266 555.755C379.67 557.38 378.872 558.926 378.142 560.499C377.869 561.089 377.611 561.684 377.344 562.275Z"
              fill="white"/>
        <path d="M359.955 552.02C359.975 552.068 359.935 552.119 359.88 552.115C358.58 552.035 357.32 551.916 356.073 551.686C355.905 551.655 355.91 551.557 355.891 551.452C355.597 549.772 355.648 548.101 356.042 546.441C356.515 544.448 357.411 542.64 358.911 541.127C361.204 538.815 364.093 537.82 367.447 537.982C370.513 538.13 373.218 539.181 375.605 540.952C375.723 541.039 375.749 541.111 375.7 541.247C375.296 542.356 374.771 543.416 374.217 544.464L374.217 544.465C374.194 544.509 374.126 544.512 374.093 544.473C371.303 541.196 366.688 540.315 363.065 542.411C359.756 544.327 358.31 548.163 359.955 552.02Z"
              fill="white"/>
        <path d="M380.406 559.235C380.932 558.128 381.456 557.047 381.879 555.901C382.642 553.837 383.017 551.742 382.467 549.573C382.165 548.381 381.662 547.26 381.111 546.153C381.067 546.067 381.038 545.999 381.106 545.899C381.897 544.746 382.895 543.809 384.276 543.263C384.383 543.22 384.493 543.181 384.629 543.132C384.657 543.122 384.685 543.146 384.678 543.173C384.568 543.564 384.477 543.928 384.428 544.3C384.263 545.542 384.379 546.752 385.017 547.876C385.867 549.371 387.591 550.125 389.426 549.831C390.919 549.592 392.158 548.908 393.243 547.957C393.296 547.911 393.349 547.864 393.404 547.821C393.43 547.8 393.469 547.784 393.476 547.809C393.609 548.313 393.615 548.825 393.571 549.336C393.489 550.278 393.158 551.15 392.683 551.983C392.605 552.12 392.492 552.119 392.368 552.13C391.303 552.223 390.247 552.365 389.206 552.6C387.101 553.076 385.351 554.108 383.827 555.5C382.634 556.591 381.633 557.829 380.644 559.075C380.59 559.142 380.533 559.208 380.477 559.274C380.436 559.322 380.38 559.279 380.406 559.235Z"
              fill="white"/>
        <path d="M398.492 552.916C398.587 552.9 398.652 553.002 398.59 553.07C397.253 554.54 396.215 556.124 395.032 557.61C394.253 558.591 393.446 559.551 392.397 560.307L392.396 560.308C392.332 560.353 392.239 560.315 392.231 560.241C391.946 557.811 390.744 555.888 388.6 554.454C388.534 554.41 388.548 554.316 388.623 554.288C389.533 553.944 390.431 553.778 391.341 553.65C393.049 553.408 394.776 553.342 396.492 553.177C397.145 553.114 397.795 553.034 398.492 552.916Z"
              fill="white"/>
        <path d="M379.305 563.425C379.19 563.439 379.115 563.316 379.188 563.233C379.356 563.038 379.521 562.849 379.678 562.653C380.724 561.354 381.76 560.049 382.811 558.753C383.128 558.363 383.487 558.001 383.814 557.617C383.93 557.48 384.01 557.472 384.157 557.583C385.771 558.798 386.746 560.35 387.083 562.248C387.114 562.428 387.053 562.471 386.875 562.504C385.055 562.839 383.206 562.973 381.367 563.176C380.679 563.252 379.993 563.343 379.305 563.425Z"
              fill="white"/>
        <path d="M380.22 544.381C380.186 544.421 380.118 544.414 380.094 544.368C379.52 543.288 379.001 542.22 378.593 541.107C378.538 540.957 378.633 540.912 378.722 540.845C380.148 539.769 381.74 538.975 383.493 538.46C385.597 537.842 387.739 537.655 389.908 538.1C393.22 538.778 395.598 540.593 397.122 543.358C398.516 545.886 398.884 548.576 398.418 551.372C398.395 551.51 398.341 551.567 398.188 551.595C396.947 551.827 395.692 551.936 394.432 552.018H394.431C394.378 552.021 394.342 551.968 394.362 551.922C396.038 548.051 394.556 543.917 390.781 542.066C387.332 540.374 383.013 541.136 380.22 544.381Z"
              fill="white"/>
        <path d="M383.709 564.384C385.01 564.251 386.284 564.13 387.57 563.896C389.886 563.475 392.036 562.727 393.795 561.202C394.76 560.365 395.56 559.402 396.321 558.407C396.38 558.329 396.429 558.272 396.557 558.277C398.033 558.333 399.41 558.663 400.612 559.495C400.706 559.56 400.797 559.628 400.911 559.712C400.934 559.729 400.926 559.764 400.897 559.771C400.476 559.879 400.089 559.989 399.716 560.135C398.469 560.625 397.394 561.322 396.659 562.395C395.683 563.823 395.839 565.58 397.031 566.901C398.002 567.977 399.263 568.626 400.696 569.019C400.766 569.038 400.836 569.056 400.904 569.079C400.937 569.09 400.971 569.113 400.951 569.131C400.545 569.489 400.069 569.75 399.568 569.97C398.644 570.376 397.661 570.547 396.643 570.583C396.476 570.59 396.42 570.499 396.348 570.405C395.728 569.599 395.068 568.825 394.327 568.109C392.828 566.662 390.986 565.778 388.919 565.254C387.3 564.844 385.64 564.662 383.978 564.494C383.887 564.485 383.797 564.472 383.707 564.46C383.643 564.452 383.654 564.385 383.709 564.384Z"
              fill="white"/>
        <path d="M398.673 575.699C398.736 575.766 398.673 575.87 398.578 575.855C396.532 575.52 394.529 575.48 392.544 575.277C391.236 575.143 389.933 574.979 388.7 574.517L388.699 574.516C388.624 574.488 388.613 574.395 388.678 574.351C390.813 572.908 392.014 570.985 392.287 568.551C392.295 568.477 392.389 568.441 392.454 568.487C393.231 569.044 393.836 569.679 394.411 570.343C395.49 571.59 396.417 572.938 397.43 574.23C397.815 574.72 398.214 575.2 398.673 575.699Z"
              fill="white"/>
        <path d="M379.232 565.598C379.161 565.513 379.239 565.392 379.353 565.408C379.619 565.445 379.88 565.483 380.141 565.511C381.881 565.697 383.623 565.875 385.362 566.068C385.887 566.126 386.405 566.233 386.929 566.302C387.115 566.327 387.163 566.387 387.133 566.56C386.801 568.459 385.834 570.015 384.223 571.234C384.071 571.349 383.999 571.321 383.88 571.196C382.656 569.906 381.606 568.494 380.497 567.124C380.081 566.612 379.653 566.107 379.232 565.598Z"
              fill="white"/>
        <path d="M397.537 556.808C397.482 556.801 397.454 556.744 397.485 556.701C398.21 555.702 398.952 554.753 399.79 553.87C399.903 553.751 399.993 553.804 400.101 553.842C401.822 554.446 403.363 555.322 404.722 556.468C406.353 557.843 407.599 559.463 408.267 561.421C409.287 564.411 408.775 567.222 406.946 569.824C405.274 572.203 402.937 573.843 400.084 574.868C399.943 574.919 399.862 574.904 399.759 574.796C398.922 573.918 398.192 572.968 397.486 572.001L397.485 572C397.455 571.959 397.487 571.904 397.54 571.897C402.005 571.302 405.139 568.049 404.986 564.102C404.846 560.496 401.974 557.421 397.537 556.808Z"
              fill="white"/>
        <path d="M370.801 564.477C369.5 564.61 368.226 564.731 366.94 564.965C364.624 565.386 362.473 566.134 360.715 567.659C359.75 568.496 358.95 569.459 358.189 570.454C358.129 570.532 358.081 570.589 357.953 570.584C356.477 570.528 355.1 570.198 353.897 569.366C353.804 569.301 353.713 569.233 353.599 569.149C353.576 569.132 353.583 569.097 353.613 569.09C354.033 568.982 354.421 568.872 354.794 568.726C356.041 568.236 357.116 567.539 357.85 566.466C358.827 565.038 358.671 563.281 357.479 561.96C356.508 560.884 355.247 560.235 353.814 559.842C353.744 559.823 353.674 559.805 353.605 559.782C353.573 559.771 353.539 559.748 353.559 559.73C353.964 559.372 354.441 559.111 354.942 558.891C355.866 558.485 356.849 558.314 357.866 558.278C358.034 558.271 358.09 558.362 358.162 558.456C358.781 559.262 359.442 560.036 360.183 560.752C361.682 562.199 363.523 563.083 365.591 563.607C367.21 564.017 368.869 564.199 370.532 564.367C370.622 564.376 370.712 564.389 370.803 564.401C370.867 564.409 370.856 564.476 370.801 564.477Z"
              fill="white"/>
        <path d="M355.836 553.162C355.774 553.094 355.837 552.991 355.932 553.006C357.978 553.341 359.981 553.381 361.965 553.584C363.274 553.718 364.577 553.882 365.81 554.344L365.811 554.345C365.886 554.373 365.897 554.466 365.831 554.51C363.697 555.953 362.495 557.876 362.223 560.31C362.215 560.384 362.121 560.42 362.056 560.374C361.279 559.817 360.674 559.182 360.099 558.518C359.019 557.271 358.093 555.923 357.08 554.631C356.695 554.141 356.296 553.661 355.836 553.162Z"
              fill="white"/>
        <path d="M375.278 563.263C375.349 563.348 375.271 563.469 375.157 563.453C374.891 563.416 374.63 563.378 374.369 563.35C372.629 563.164 370.887 562.986 369.147 562.793C368.623 562.735 368.105 562.628 367.581 562.559C367.394 562.534 367.347 562.474 367.377 562.301C367.709 560.402 368.676 558.846 370.287 557.627C370.439 557.512 370.51 557.54 370.63 557.665C371.854 558.955 372.903 560.367 374.013 561.737C374.429 562.249 374.857 562.754 375.278 563.263Z"
              fill="white"/>
        <path d="M356.973 572.053C357.028 572.06 357.056 572.117 357.025 572.16C356.3 573.159 355.558 574.108 354.719 574.991C354.607 575.11 354.517 575.057 354.409 575.019C352.688 574.415 351.147 573.539 349.788 572.393C348.157 571.018 346.911 569.398 346.243 567.44C345.222 564.45 345.735 561.639 347.564 559.037C349.236 556.658 351.573 555.018 354.426 553.993C354.567 553.942 354.648 553.957 354.75 554.065C355.587 554.943 356.318 555.893 357.024 556.86L357.025 556.861C357.054 556.902 357.023 556.957 356.97 556.964C352.505 557.559 349.371 560.812 349.523 564.759C349.663 568.365 352.536 571.44 356.973 572.053Z"
              fill="white"/>
        <path d="M307.548 212.575C301.07 237.13 274.751 252.074 248.763 245.951C222.786 239.829 206.972 214.957 213.453 190.404C219.928 165.846 246.247 150.901 272.227 157.023C298.213 163.144 314.027 188.019 307.548 212.575Z"
              fill="#F3BA2F"/>
        <path fill-rule="evenodd" clip-rule="evenodd"
              d="M260.505 184.742L247.945 196.61L240.638 189.704L260.505 170.93L280.379 189.71L273.071 196.616L260.505 184.742ZM235.477 194.58L228.168 201.487L235.476 208.392L242.785 201.485L235.477 194.58ZM247.945 206.364L260.505 218.232L273.071 206.358L280.383 213.261L280.379 213.264L260.505 232.044L240.627 213.26L247.945 206.364ZM285.534 194.584L278.226 201.49L285.534 208.396L292.842 201.489L285.534 194.584Z"
              fill="white"/>
        <path d="M267.917 201.483H267.92L260.505 194.476L253.096 201.476L253.086 201.486L253.096 201.496L260.505 208.498L267.921 201.491L267.925 201.487L267.917 201.483Z"
              fill="white"/>
        <path d="M544 200.055C544 224.051 522.957 243.503 497 243.503C471.043 243.503 450 224.051 450 200.055C450 176.059 471.043 156.606 497 156.606C522.957 156.606 544 176.059 544 200.055Z"
              fill="#EDF0F4"/>
        <path d="M511.102 191.328C510.1 190.795 508.811 190.795 507.666 191.328L499.649 195.725L494.208 198.522L486.334 202.919C485.332 203.452 484.043 203.452 482.898 202.919L476.742 199.455C475.74 198.922 475.024 197.856 475.024 196.657V189.996C475.024 188.93 475.596 187.864 476.742 187.198L482.898 183.868C483.9 183.335 485.189 183.335 486.334 183.868L492.49 187.332C493.492 187.864 494.208 188.93 494.208 190.129V194.526L499.649 191.595V187.065C499.649 185.999 499.076 184.933 497.931 184.267L486.477 178.006C485.475 177.473 484.187 177.473 483.041 178.006L471.301 184.401C470.156 184.933 469.583 185.999 469.583 187.065V199.588C469.583 200.654 470.156 201.72 471.301 202.386L482.898 208.648C483.9 209.18 485.189 209.18 486.334 208.648L494.208 204.384L499.649 201.453L507.523 197.19C508.525 196.657 509.814 196.657 510.959 197.19L517.115 200.521C518.117 201.054 518.833 202.12 518.833 203.319V209.98C518.833 211.046 518.261 212.111 517.115 212.778L511.102 216.108C510.1 216.641 508.811 216.641 507.666 216.108L501.51 212.778C500.508 212.245 499.792 211.179 499.792 209.98V205.717L494.351 208.648V213.044C494.351 214.11 494.924 215.176 496.07 215.842L507.666 222.103C508.668 222.636 509.957 222.636 511.102 222.103L522.699 215.842C523.701 215.309 524.417 214.243 524.417 213.044V200.388C524.417 199.322 523.844 198.256 522.699 197.59L511.102 191.328Z"
              fill="#8247E5"/>
        <path d="M309 323.238C309 348.289 287.957 368.597 262 368.597C236.043 368.597 215 348.289 215 323.238C215 298.188 236.043 277.88 262 277.88C287.957 277.88 309 298.188 309 323.238Z"
              fill="url(#paint6_linear_1_2)"/>
        <path fill-rule="evenodd" clip-rule="evenodd"
              d="M238.867 315.497V336.846H234.583V312.05C234.588 311.138 235.124 310.306 235.969 309.898C236.814 309.49 237.826 309.575 238.585 310.119L258.929 324.902C259.554 325.356 259.923 326.067 259.924 326.822V336.846H255.642V327.682L238.867 315.497ZM285.262 315.497V336.846H289.545V312.05C289.538 311.139 289.002 310.309 288.157 309.902C287.312 309.496 286.302 309.582 285.544 310.125L265.199 324.902C264.574 325.356 264.206 326.067 264.204 326.822V336.846H268.486V327.682L285.262 315.497Z"
              fill="white"/>
        <path d="M423 323.238C423 346.707 402.405 365.732 377 365.732C351.595 365.732 331 346.707 331 323.238C331 299.77 351.595 280.745 377 280.745C402.405 280.745 423 299.77 423 323.238Z"
              fill="url(#paint7_linear_1_2)"/>
        <path fill-rule="evenodd" clip-rule="evenodd"
              d="M375.334 296.075C372.664 296.359 370.18 297.485 368.303 299.262C366.893 300.552 365.557 301.876 364.129 303.178C363.414 303.856 362.691 304.515 361.969 305.184C361.246 305.853 360.449 306.563 359.698 307.265C358.947 307.967 358.324 308.583 357.629 309.235C356.544 310.238 355.458 311.241 354.372 312.254C353.539 313.049 352.725 313.87 351.902 314.664C351.416 315.138 350.894 315.578 350.436 316.076C348.548 318.204 347.516 320.871 347.516 323.622C347.516 323.784 347.516 323.951 347.527 324.111C347.565 325.691 348.014 327.239 348.836 328.625C349.303 329.463 349.845 330.264 350.455 331.019C350.858 331.544 351.151 331.535 351.681 331.13C351.783 331.052 351.878 330.967 351.965 330.876C352.488 330.368 353 329.86 353.532 329.353C354.282 328.625 355.052 327.899 355.802 327.163C356.553 326.426 357.367 325.615 358.155 324.855C358.53 324.482 358.93 324.138 359.309 323.771C360.114 322.985 360.902 322.174 361.707 321.396C362.511 320.618 363.327 319.89 364.115 319.13C364.903 318.369 365.872 317.437 366.759 316.592C367.647 315.747 368.399 315.036 369.222 314.258C370.294 313.234 371.338 312.185 372.399 311.162C373.058 310.536 373.735 309.936 374.395 309.318C375.31 308.473 376.161 307.628 377.059 306.783C377.957 305.937 378.624 305.37 379.393 304.642C381.113 303.037 382.829 301.423 384.544 299.8C384.654 299.699 384.758 299.592 384.854 299.479C385.276 298.987 385.311 298.878 384.79 298.532C383.995 297.953 383.143 297.443 382.245 297.009C380.659 296.323 378.929 295.968 377.178 295.969H377.092C376.507 295.969 375.922 296.003 375.342 296.07L375.333 296.062L375.334 296.075ZM390.485 306.485H390.375C388.855 306.485 387.411 307.104 386.43 308.177C386.343 308.265 386.251 308.35 386.155 308.43L383.354 310.967C382.439 311.814 381.45 312.735 380.488 313.624C379.692 314.359 378.895 315.078 378.109 315.814C377.323 316.551 376.479 317.37 375.628 318.14C374.776 318.909 373.87 319.715 372.991 320.508L369.869 323.416L364.066 328.779C361.501 331.157 358.941 333.53 356.384 335.899C355.891 336.348 355.881 336.406 356.384 336.888C357.611 338.034 358.856 339.171 360.046 340.326C360.782 341.047 361.753 341.525 362.811 341.687C363.809 341.873 364.84 341.841 365.823 341.594C366.559 341.426 367.238 341.092 367.8 340.621L370.84 337.909C371.553 337.276 372.278 336.65 372.982 336.007C374.391 334.717 375.783 333.419 377.192 332.138C378.337 331.098 379.509 330.067 380.671 329.027L385.437 324.736C386.92 323.39 388.412 322.038 389.913 320.693C390.117 320.412 390.473 320.26 390.836 320.298C391.199 320.336 391.509 320.557 391.641 320.872C392.404 321.901 392.812 323.12 392.812 324.367C392.811 324.581 392.799 324.794 392.776 325.006C392.653 326.264 392.091 327.451 391.175 328.389C390.076 329.481 388.905 330.512 387.763 331.561C386.949 332.305 386.116 333.032 385.301 333.785C384.247 334.749 383.213 335.73 382.16 336.694C382.005 336.855 381.859 337.024 381.695 337.176L380.66 338.166C379.885 338.882 379.095 339.578 378.334 340.296C377.572 341.014 376.698 341.853 375.883 342.637C375.811 342.713 375.728 342.763 375.655 342.831C374.739 343.617 373.897 344.407 373.027 345.199C372.616 345.571 372.222 345.951 371.819 346.323C371.124 346.975 370.409 347.613 369.74 348.278C369.329 348.675 369.329 348.92 369.815 349.233C370.612 349.798 371.46 350.299 372.35 350.729C374.565 351.654 377.02 351.977 379.426 351.659C381.814 351.397 384.055 350.454 385.836 348.961C387.19 347.862 388.399 346.627 389.662 345.444C390.577 344.597 391.493 343.693 392.472 342.822L395.118 340.361C395.924 339.608 396.72 338.855 397.536 338.111C398.351 337.368 399.366 336.479 400.281 335.641C401.196 334.803 402.112 333.951 403.027 333.054C403.757 332.368 404.431 331.632 405.044 330.855C406.186 329.26 406.899 327.437 407.123 325.537C407.247 324.592 407.247 323.638 407.123 322.694C406.851 321.014 406.192 319.408 405.191 317.983C404.471 316.975 403.609 316.06 402.629 315.261C400.093 312.936 397.565 310.594 395.085 308.217C393.992 307.092 392.433 306.45 390.797 306.449H390.763L390.488 306.483L390.485 306.485Z"
              fill="white"/>
        <path d="M76 323.716C76 347.448 55.629 366.687 30.5 366.687C5.37104 366.687 -15 347.448 -15 323.716C-15 299.984 5.37104 280.745 30.5 280.745C55.629 280.745 76 299.984 76 323.716Z"
              fill="#EDF0F4"/>
        <path fill-rule="evenodd" clip-rule="evenodd"
              d="M46.5946 299.822L60.5323 322.631H60.5377C60.9319 323.368 60.9319 324.239 60.5377 324.976L46.5946 347.785C46.1156 348.476 45.3174 348.911 44.444 348.957H38.0692L47.333 333.806C47.5945 333.318 47.5945 332.743 47.333 332.255L36.8111 315.044C36.4946 314.586 35.9661 314.298 35.3881 314.268H14.3463C13.7683 314.298 13.2398 314.586 12.9233 315.044L3.65775 330.202L0.462311 324.976C0.0681189 324.239 0.0681189 323.368 0.462311 322.631L14.4054 299.822C14.8844 299.131 15.6826 298.696 16.556 298.649H44.444C45.3174 298.696 46.1156 299.131 46.5946 299.822ZM44.0443 332.463L34.958 317.606C34.7343 317.288 34.3655 317.087 33.9616 317.063H15.789C15.385 317.087 15.0162 317.288 14.7925 317.606L5.7062 332.47C5.52519 332.812 5.52519 333.215 5.7062 333.557L8.36937 337.917L13.029 330.3C13.2851 329.929 13.713 329.695 14.1814 329.671H26.1531C26.6214 329.695 27.0494 329.929 27.3055 330.3L33.2931 340.094C33.5046 340.489 33.5046 340.956 33.2931 341.351L28.6335 348.968H33.9562C34.3606 348.944 34.7297 348.742 34.9526 348.423L44.039 333.56C44.2253 333.216 44.2273 332.809 44.0443 332.463ZM14.4251 347.813L10.3175 341.094C10.1886 340.846 10.1886 340.555 10.3175 340.307L14.8785 332.848C15.0412 332.614 15.3108 332.467 15.6062 332.45H24.7265C25.0223 332.467 25.2925 332.614 25.4559 332.848L30.017 340.307C30.1478 340.558 30.1478 340.852 30.017 341.102L25.4559 348.561C25.2934 348.79 25.0295 348.936 24.7391 348.958H16.5399C15.6854 348.906 14.9045 348.483 14.4251 347.813Z"
              fill="url(#paint8_linear_1_2)"/>
        <path d="M192 323.716C192 347.448 171.181 366.687 145.5 366.687C119.819 366.687 98.9999 347.448 98.9999 323.716C98.9999 299.984 119.819 280.745 145.5 280.745C171.181 280.745 192 299.984 192 323.716Z"
              fill="#EDF0F4"/>
        <path fill-rule="evenodd" clip-rule="evenodd"
              d="M123.421 307.244H136.069C136.136 307.243 136.203 307.257 136.262 307.287C136.319 307.316 136.367 307.358 136.402 307.408L151.801 330.162C151.885 330.279 151.885 330.431 151.801 330.548L145.5 339.837C145.466 339.888 145.418 339.93 145.361 339.959C145.242 340.019 145.099 340.019 144.981 339.959C144.924 339.93 144.876 339.888 144.842 339.837L123.087 307.795C123.05 307.742 123.028 307.68 123.025 307.616C123.022 307.551 123.038 307.487 123.072 307.43C123.106 307.373 123.157 307.326 123.219 307.294C123.28 307.26 123.35 307.243 123.421 307.244ZM149.933 307.244H166.875C166.946 307.243 167.015 307.26 167.076 307.294C167.129 307.329 167.172 307.376 167.2 307.43C167.233 307.487 167.249 307.551 167.247 307.616C167.248 307.679 167.232 307.74 167.2 307.795L158.737 320.285C158.703 320.336 158.655 320.378 158.598 320.407C158.479 320.467 158.336 320.467 158.218 320.407C158.161 320.378 158.113 320.336 158.079 320.285L149.608 307.795C149.57 307.742 149.549 307.68 149.546 307.616C149.543 307.551 149.559 307.487 149.592 307.43C149.627 307.373 149.678 307.326 149.74 307.294C149.798 307.262 149.865 307.244 149.933 307.244Z"
              fill="#FF8836"/>
        <path d="M145 487.006C170.406 487.006 191 467.554 191 443.558C191 419.561 170.406 400.109 145 400.109C119.594 400.109 98.9999 419.561 98.9999 443.558C98.9999 467.554 119.594 487.006 145 487.006Z"
              fill="#EDF0F4"/>
        <path d="M164.09 461.589H144.865L164.09 443.612V461.589Z" fill="url(#paint9_linear_1_2)"/>
        <path d="M164.09 461.589H125.833V425.454L164.09 461.589Z" fill="url(#paint10_linear_1_2)"/>
        <path d="M542 444.035C542 468.822 520.286 488.916 493.5 488.916C466.714 488.916 445 468.822 445 444.035C445 419.248 466.714 399.154 493.5 399.154C520.286 399.154 542 419.248 542 444.035Z"
              fill="url(#paint11_linear_1_2)"/>
        <path d="M479.362 428.327V461.988H509.675L479.362 428.327Z" fill="url(#paint12_linear_1_2)"/>
        <path d="M449.05 461.988H479.362V428.327L449.05 461.988Z" fill="white"/>
        <path d="M454.7 470.964C457.465 474.352 460.738 477.382 464.4 479.94H522.6C526.262 477.382 529.536 474.352 532.3 470.964H454.7Z"
              fill="#FC9965"/>
        <path d="M464.4 479.94C472.5 485.572 482.588 488.916 493.5 488.916C504.413 488.916 514.501 485.572 522.6 479.94H464.4Z"
              fill="#FF2D55"/>
        <path d="M510.063 446.279V470.964H532.3L510.063 446.279Z" fill="url(#paint13_linear_1_2)"/>
        <path d="M449.05 461.988C450.553 465.197 452.469 468.204 454.7 470.964H510.087V461.988H449.05Z" fill="#FFBC5B"/>
        <path d="M487.85 470.964H510.063V446.279L487.85 470.964Z" fill="white"/>
        <path d="M522.188 428.327C522.188 434.524 516.759 439.547 510.063 439.547C503.366 439.547 497.938 434.524 497.938 428.327C497.938 422.13 503.366 417.107 510.063 417.107C516.759 417.107 522.188 422.13 522.188 428.327Z"
              fill="#FFC95B"/>
        <path d="M485.425 415.985C485.425 419.083 482.711 421.595 479.362 421.595C476.014 421.595 473.3 419.083 473.3 415.985C473.3 412.886 476.014 410.374 479.362 410.374C482.711 410.374 485.425 412.886 485.425 415.985Z"
              fill="#FFC95B"/>
        <path d="M424 444.035C424 468.822 402.733 488.916 376.5 488.916C350.266 488.916 329 468.822 329 444.035C329 419.248 350.266 399.154 376.5 399.154C402.733 399.154 424 419.248 424 444.035Z"
              fill="#7866D5"/>
        <path d="M395.728 422.196C397.336 422.386 399.01 422.513 400.618 422.766C403.767 423.335 404.839 424.855 404.303 427.893C404.169 429.033 403.231 429.919 402.025 430.109C401.288 430.235 400.484 430.299 399.747 430.235C389.296 430.235 378.912 430.299 368.46 430.299C366.92 430.299 365.312 430.425 363.771 430.678C358.612 431.438 356.602 433.464 356.2 438.401C355.999 440.68 355.999 440.68 358.478 440.68H400.015C400.417 440.68 400.819 440.68 401.221 440.68C401.891 440.68 402.494 440.87 403.097 441.187C404.973 442.326 404.504 444.162 404.437 445.808C404.37 447.137 403.499 447.897 402.025 448.15C401.422 448.276 400.819 448.276 400.149 448.276C385.946 448.276 371.743 448.276 357.54 448.276C355.999 448.276 355.999 448.276 356.133 449.732C356.2 451.062 356.334 452.391 356.669 453.72C357.339 456.126 358.88 457.645 361.493 458.341C364.307 459.101 367.254 459.228 370.135 459.291C380.252 459.291 390.435 459.291 400.618 459.291C401.891 459.291 403.097 459.417 403.901 460.557C405.174 462.456 404.504 464.925 402.494 466.127C402.226 466.317 401.958 466.444 401.623 466.507C399.412 467.204 397.135 467.33 394.79 467.394C385.209 467.583 375.696 467.583 366.183 467.394C363.235 467.33 360.287 467.014 357.406 466.444C350.64 465.115 347.223 461.823 346.084 455.366C345.816 453.91 345.682 452.391 345.481 450.872V439.098C345.615 437.958 345.749 436.755 345.883 435.616C346.754 428.336 350.238 424.728 357.808 423.082C360.488 422.513 363.302 422.386 365.982 422.133L395.728 422.196Z"
              fill="white"/>
        <path fill-rule="evenodd" clip-rule="evenodd"
              d="M366.116 468.533C370.872 468.596 375.629 468.66 380.453 468.66C382.873 468.66 385.293 468.644 387.705 468.628C390.1 468.612 392.487 468.596 394.857 468.596C397.001 468.533 399.546 468.406 402.025 467.647C402.427 467.52 402.829 467.33 403.164 467.14C404.437 466.381 405.308 465.241 405.643 463.912C405.978 462.583 405.777 461.19 404.973 459.987C403.767 458.151 401.69 458.151 400.685 458.151H393.986C386.147 458.151 378.108 458.151 370.202 458.088C367.656 458.088 364.709 457.962 361.828 457.202C359.684 456.632 358.411 455.429 357.875 453.467C357.54 452.201 357.406 450.935 357.339 449.606V449.352H400.149C400.819 449.352 401.489 449.353 402.226 449.226C404.303 448.846 405.442 447.643 405.576 445.871C405.576 445.776 405.593 445.665 405.61 445.554C405.626 445.444 405.643 445.333 405.643 445.238L405.646 445.207C405.78 443.69 405.962 441.62 403.7 440.237C402.963 439.857 402.092 439.604 401.221 439.604H357.339C357.339 439.453 357.354 439.288 357.37 439.115C357.388 438.925 357.406 438.726 357.406 438.528C357.808 434.097 359.349 432.514 363.972 431.818C365.446 431.565 366.987 431.438 368.46 431.438C378.845 431.438 389.296 431.375 399.68 431.311C400.551 431.311 401.355 431.248 402.159 431.122C403.968 430.868 405.308 429.539 405.509 427.956C406.179 424.285 404.705 422.259 400.886 421.563C399.99 421.375 399.13 421.291 398.28 421.209C397.987 421.181 397.695 421.152 397.403 421.12C396.934 421.12 396.398 421.057 395.929 420.993H365.915L363.905 421.183C361.828 421.373 359.751 421.563 357.607 422.006C349.501 423.715 345.615 427.703 344.677 435.489C344.645 435.847 344.599 436.205 344.552 436.57C344.499 436.979 344.444 437.396 344.409 437.832L344.275 438.971V450.998C344.342 451.505 344.409 451.948 344.476 452.391C344.543 453.404 344.677 454.48 344.878 455.556C346.084 462.393 349.836 466.064 357.138 467.52C360.086 468.153 363.101 468.47 366.116 468.533ZM346.821 452.138C346.821 451.695 346.754 451.252 346.687 450.808V439.224L346.821 438.148C346.856 437.713 346.91 437.295 346.963 436.886C347.011 436.522 347.057 436.164 347.089 435.806C347.893 428.969 350.975 425.741 358.009 424.095C359.733 423.715 361.408 423.568 363.16 423.414C363.45 423.388 363.743 423.362 364.039 423.335L366.049 423.146H395.661C396.13 423.146 396.666 423.209 397.135 423.272C398.207 423.335 399.278 423.462 400.35 423.652C402.896 424.158 403.566 424.981 403.097 427.513C403.03 428.146 402.494 428.653 401.824 428.716C401.154 428.843 400.484 428.843 399.747 428.843C394.522 428.843 389.313 428.859 384.104 428.874C378.895 428.89 373.686 428.906 368.46 428.906C366.786 428.969 365.178 429.096 363.57 429.349C357.875 430.172 355.463 432.641 354.994 438.085C354.987 438.224 354.979 438.359 354.972 438.489C354.908 439.597 354.864 440.367 355.463 440.933C356.133 441.566 357.004 441.566 358.478 441.566H401.355C401.757 441.566 402.226 441.693 402.561 441.883C403.499 442.453 403.499 443.212 403.365 444.795C403.365 444.921 403.348 445.032 403.332 445.143C403.315 445.254 403.298 445.364 403.298 445.491C403.231 446.124 402.963 446.567 401.891 446.757C401.355 446.884 400.752 446.884 400.216 446.884H357.607C356.669 446.884 355.932 446.884 355.396 447.453C354.877 448.005 354.924 448.617 354.988 449.46C354.99 449.487 354.992 449.515 354.994 449.542V449.606C354.994 450.998 355.195 452.454 355.53 453.847C356.267 456.695 358.143 458.531 361.158 459.291C364.307 460.177 367.455 460.304 370.135 460.304C378.041 460.367 386.147 460.367 393.919 460.367H400.618C401.891 460.367 402.427 460.557 402.829 461.127C403.298 461.823 403.432 462.583 403.231 463.342C403.03 464.102 402.494 464.735 401.824 465.178C401.724 465.21 401.623 465.257 401.523 465.305C401.422 465.352 401.322 465.4 401.221 465.431C399.077 466.064 396.733 466.191 394.79 466.254C385.276 466.444 375.629 466.444 366.183 466.254C363.302 466.191 360.421 465.874 357.607 465.305C351.309 464.039 348.295 461.127 347.223 455.176L346.821 452.138Z"
              fill="white"/>
        <path d="M308 444.035C308 468.295 286.957 487.961 261 487.961C235.043 487.961 214 468.295 214 444.035C214 419.775 235.043 400.109 261 400.109C286.957 400.109 308 419.775 308 444.035Z"
              fill="#EDF0F4"/>
        <path fill-rule="evenodd" clip-rule="evenodd"
              d="M228.69 442.889C229.701 410.183 286.358 402.336 293.847 442.889C290.022 444.685 288.366 445.422 288.366 445.422C288.366 445.422 290.296 446.493 293.836 448.521C290.876 482.551 235.195 488.324 228.666 448.567C232.281 446.409 234.014 445.439 234.014 445.439C234.014 445.439 231.96 444.475 228.69 442.889ZM260.656 448.51L265.971 457.049L270.525 456.962L263.408 444.589L269.861 434.308L265.97 434.221L261.035 441.627L256.1 433.872L251.925 434.221L258.852 444.677L251.166 456.788L255.246 457.049L260.656 448.51Z"
              fill="#B7B5B1"/>
        <path fill-rule="evenodd" clip-rule="evenodd"
              d="M231.404 441.332C234.583 415.109 281.003 405.384 291.131 441.332C289.9 441.94 283.085 445.5 283.085 445.5C283.085 445.5 286.066 447.226 291.121 450.187C288.376 478.146 238.291 484.788 231.382 450.229C236.817 447.002 239.306 445.515 239.306 445.515C239.306 445.515 237.845 444.719 231.404 441.332ZM260.657 448.552L265.958 457.068L270.501 456.98L263.402 444.641L269.839 434.387L265.958 434.3L261.035 441.686L256.113 433.952L251.949 434.3L258.858 444.728L251.191 456.807L255.262 457.068L260.657 448.552Z"
              fill="#244B81"/>
        <g filter="url(#filter1_b_1_2)">
            <rect x="331" y="631.614" width="500.111" height="195" transform="rotate(-90 331 631.614)"
                  fill="url(#paint14_linear_1_2)"/>
        </g>
        <g filter="url(#filter2_b_1_2)">
            <rect width="498.119" height="170" transform="matrix(-4.57752e-08 -1 -1 4.17406e-08 171 631.614)"
                  fill="url(#paint15_linear_1_2)"/>
        </g>
        <circle cx="261.5" cy="1016.5" r="30.5" fill="#182331"/>
        <path fill-rule="evenodd" clip-rule="evenodd"
              d="M260.768 1018.69C260.96 1018.87 261.261 1018.87 261.453 1018.69L271.551 1009.19H274.686C275.139 1009.19 275.358 1009.74 275.029 1010.05L261.453 1022.83C261.261 1023.01 260.96 1023.01 260.768 1022.83L247.192 1010.05C246.863 1009.74 247.082 1009.19 247.535 1009.19H250.67L260.768 1018.69Z"
              fill="white"/>
    </g>
    <defs>
        <filter id="filter0_b_1_2" x="-199" y="475" width="908" height="710" filterUnits="userSpaceOnUse"
                color-interpolation-filters="sRGB">
            <feFlood flood-opacity="0" result="BackgroundImageFix"/>
            <feGaussianBlur in="BackgroundImageFix" stdDeviation="100"/>
            <feComposite in2="SourceAlpha" operator="in" result="effect1_backgroundBlur_1_2"/>
            <feBlend mode="normal" in="SourceGraphic" in2="effect1_backgroundBlur_1_2" result="shape"/>
        </filter>
        <filter id="filter1_b_1_2" x="330" y="130.503" width="197" height="502.111" filterUnits="userSpaceOnUse"
                color-interpolation-filters="sRGB">
            <feFlood flood-opacity="0" result="BackgroundImageFix"/>
            <feGaussianBlur in="BackgroundImageFix" stdDeviation="0.5"/>
            <feComposite in2="SourceAlpha" operator="in" result="effect1_backgroundBlur_1_2"/>
            <feBlend mode="normal" in="SourceGraphic" in2="effect1_backgroundBlur_1_2" result="shape"/>
        </filter>
        <filter id="filter2_b_1_2" x="-7.62939e-06" y="132.496" width="172" height="500.119"
                filterUnits="userSpaceOnUse" color-interpolation-filters="sRGB">
            <feFlood flood-opacity="0" result="BackgroundImageFix"/>
            <feGaussianBlur in="BackgroundImageFix" stdDeviation="0.5"/>
            <feComposite in2="SourceAlpha" operator="in" result="effect1_backgroundBlur_1_2"/>
            <feBlend mode="normal" in="SourceGraphic" in2="effect1_backgroundBlur_1_2" result="shape"/>
        </filter>
        <linearGradient id="paint0_linear_1_2" x1="5.79992" y1="12.5493" x2="679.469" y2="155.151"
                        gradientUnits="userSpaceOnUse">
            <stop stop-color="#1C2938"/>
            <stop offset="0.9958" stop-color="#121A24"/>
        </linearGradient>
        <linearGradient id="paint1_linear_1_2" x1="436.113" y1="792.07" x2="674.707" y2="886.52"
                        gradientUnits="userSpaceOnUse">
            <stop stop-color="#121A24" stop-opacity="0"/>
            <stop offset="0.1382" stop-color="#0F344D" stop-opacity="0.1382"/>
            <stop offset="0.3664" stop-color="#095C8C" stop-opacity="0.3664"/>
            <stop offset="0.575" stop-color="#057BBE" stop-opacity="0.575"/>
            <stop offset="0.7567" stop-color="#0292E1" stop-opacity="0.7567"/>
            <stop offset="0.9046" stop-color="#01A0F7" stop-opacity="0.9046"/>
            <stop offset="1" stop-color="#00A5FF"/>
        </linearGradient>
        <linearGradient id="paint2_linear_1_2" x1="73.8945" y1="221.102" x2="-164.7" y2="126.652"
                        gradientUnits="userSpaceOnUse">
            <stop stop-color="#121A24" stop-opacity="0"/>
            <stop offset="0.0434" stop-color="#14252C" stop-opacity="0.0434"/>
            <stop offset="0.2969" stop-color="#1D6455" stop-opacity="0.2969"/>
            <stop offset="0.5284" stop-color="#249676" stop-opacity="0.5284"/>
            <stop offset="0.73" stop-color="#29B98E" stop-opacity="0.73"/>
            <stop offset="0.894" stop-color="#2CCF9D" stop-opacity="0.894"/>
            <stop offset="1" stop-color="#2DD7A2"/>
        </linearGradient>
        <linearGradient id="paint3_linear_1_2" x1="102.935" y1="519.264" x2="116.104" y2="577.423"
                        gradientUnits="userSpaceOnUse">
            <stop stop-color="#03B8FF"/>
            <stop offset="1" stop-color="#FA52A0"/>
        </linearGradient>
        <linearGradient id="paint4_linear_1_2" x1="95.1232" y1="520.55" x2="110.851" y2="594.95"
                        gradientUnits="userSpaceOnUse">
            <stop stop-color="#03B8FF"/>
            <stop offset="1" stop-color="#FA52A0"/>
        </linearGradient>
        <linearGradient id="paint5_linear_1_2" x1="87.911" y1="492.628" x2="103.692" y2="566.552"
                        gradientUnits="userSpaceOnUse">
            <stop stop-color="#03B8FF"/>
            <stop offset="1" stop-color="#FA52A0"/>
        </linearGradient>
        <linearGradient id="paint6_linear_1_2" x1="215" y1="277.88" x2="215" y2="368.597"
                        gradientUnits="userSpaceOnUse">
            <stop stop-color="#4FA89B"/>
            <stop offset="1" stop-color="#6ACEBB"/>
        </linearGradient>
        <linearGradient id="paint7_linear_1_2" x1="312.011" y1="332.675" x2="382.004" y2="384.515"
                        gradientUnits="userSpaceOnUse">
            <stop stop-color="#FF3B3B"/>
            <stop offset="1" stop-color="#FF9914"/>
        </linearGradient>
        <linearGradient id="paint8_linear_1_2" x1="45.2448" y1="361.192" x2="67.5357" y2="308.192"
                        gradientUnits="userSpaceOnUse">
            <stop stop-color="#FFDC00"/>
            <stop offset="0.33" stop-color="#E58E2F"/>
            <stop offset="0.67" stop-color="#DB2D72"/>
            <stop offset="1" stop-color="#FF00FF"/>
        </linearGradient>
        <linearGradient id="paint9_linear_1_2" x1="98.6979" y1="399.714" x2="98.6979" y2="487.182"
                        gradientUnits="userSpaceOnUse">
            <stop stop-color="#FF4681"/>
            <stop offset="1" stop-color="#9B44F6"/>
        </linearGradient>
        <linearGradient id="paint10_linear_1_2" x1="97.5608" y1="453.011" x2="133.695" y2="491.265"
                        gradientUnits="userSpaceOnUse">
            <stop stop-color="#FF4681"/>
            <stop offset="0.739" stop-color="#9B44F6"/>
        </linearGradient>
        <linearGradient id="paint11_linear_1_2" x1="493.5" y1="380.564" x2="430.22" y2="448.947"
                        gradientUnits="userSpaceOnUse">
            <stop stop-color="#FF2D55"/>
            <stop offset="1" stop-color="#FFBC5B"/>
        </linearGradient>
        <linearGradient id="paint12_linear_1_2" x1="444.967" y1="399.154" x2="444.967" y2="488.916"
                        gradientUnits="userSpaceOnUse">
            <stop stop-color="#A524B3"/>
            <stop offset="1" stop-color="#FF2D55"/>
        </linearGradient>
        <linearGradient id="paint13_linear_1_2" x1="444.967" y1="399.154" x2="444.967" y2="488.916"
                        gradientUnits="userSpaceOnUse">
            <stop stop-color="#A524B3"/>
            <stop offset="1" stop-color="#FF2D55"/>
        </linearGradient>
        <linearGradient id="paint14_linear_1_2" x1="581.055" y1="631.614" x2="581.055" y2="826.614"
                        gradientUnits="userSpaceOnUse">
            <stop stop-color="#16202C" stop-opacity="0"/>
            <stop offset="1" stop-color="#16202C"/>
        </linearGradient>
        <linearGradient id="paint15_linear_1_2" x1="249.059" y1="0" x2="249.059" y2="170"
                        gradientUnits="userSpaceOnUse">
            <stop stop-color="#16202C" stop-opacity="0"/>
            <stop offset="1" stop-color="#16202C"/>
        </linearGradient>
        <clipPath id="clip0_1_2">
            <rect x="1" width="508" height="1059" rx="20" fill="white"/>
        </clipPath>
    </defs>
</svg>
