<svg width="64" height="52" viewBox="0 0 64 52" fill="none" xmlns="http://www.w3.org/2000/svg">
    <path d="M55.25 17H37.75C35.4294 17 33.2038 17.9219 31.5628 19.5628C29.9219 21.2038 29 23.4294 29 25.75V43.25C29 45.5706 29.9219 47.7962 31.5628 49.4372C33.2038 51.0781 35.4294 52 37.75 52H55.25C57.5706 52 59.7962 51.0781 61.4372 49.4372C63.0781 47.7962 64 45.5706 64 43.25V25.75C64 23.4294 63.0781 21.2038 61.4372 19.5628C59.7962 17.9219 57.5706 17 55.25 17ZM60.5 43.25C60.5 44.6424 59.9469 45.9777 58.9623 46.9623C57.9777 47.9469 56.6424 48.5 55.25 48.5H37.75C36.3576 48.5 35.0223 47.9469 34.0377 46.9623C33.0531 45.9777 32.5 44.6424 32.5 43.25V25.75C32.5 24.3576 33.0531 23.0223 34.0377 22.0377C35.0223 21.0531 36.3576 20.5 37.75 20.5H55.25C56.6424 20.5 57.9777 21.0531 58.9623 22.0377C59.9469 23.0223 60.5 24.3576 60.5 25.75V43.25ZM39.5 39.75C39.1539 39.75 38.8155 39.8526 38.5278 40.0449C38.24 40.2372 38.0157 40.5105 37.8832 40.8303C37.7508 41.1501 37.7161 41.5019 37.7836 41.8414C37.8511 42.1809 38.0178 42.4927 38.2626 42.7374C38.5073 42.9822 38.8191 43.1488 39.1586 43.2164C39.4981 43.2839 39.8499 43.2492 40.1697 43.1168C40.4895 42.9843 40.7628 42.76 40.9551 42.4722C41.1474 42.1845 41.25 41.8461 41.25 41.5C41.25 41.0359 41.0656 40.5908 40.7374 40.2626C40.4092 39.9344 39.9641 39.75 39.5 39.75ZM46.5 32.75C46.1539 32.75 45.8155 32.8526 45.5278 33.0449C45.24 33.2372 45.0157 33.5105 44.8832 33.8303C44.7508 34.1501 44.7161 34.5019 44.7836 34.8414C44.8511 35.1809 45.0178 35.4927 45.2626 35.7374C45.5073 35.9822 45.8191 36.1488 46.1586 36.2164C46.4981 36.2839 46.8499 36.2492 47.1697 36.1168C47.4895 35.9843 47.7628 35.76 47.9551 35.4722C48.1474 35.1845 48.25 34.8461 48.25 34.5C48.25 34.0359 48.0656 33.5908 47.7374 33.2626C47.4092 32.9344 46.9641 32.75 46.5 32.75ZM39.5 25.75C39.1539 25.75 38.8155 25.8526 38.5278 26.0449C38.24 26.2372 38.0157 26.5105 37.8832 26.8303C37.7508 27.1501 37.7161 27.5019 37.7836 27.8414C37.8511 28.1809 38.0178 28.4927 38.2626 28.7374C38.5073 28.9822 38.8191 29.1489 39.1586 29.2164C39.4981 29.2839 39.8499 29.2492 40.1697 29.1168C40.4895 28.9843 40.7628 28.76 40.9551 28.4722C41.1474 28.1845 41.25 27.8461 41.25 27.5C41.25 27.0359 41.0656 26.5908 40.7374 26.2626C40.4092 25.9344 39.9641 25.75 39.5 25.75ZM53.5 39.75C53.1539 39.75 52.8155 39.8526 52.5278 40.0449C52.24 40.2372 52.0157 40.5105 51.8832 40.8303C51.7508 41.1501 51.7161 41.5019 51.7836 41.8414C51.8512 42.1809 52.0178 42.4927 52.2626 42.7374C52.5073 42.9822 52.8191 43.1488 53.1586 43.2164C53.4981 43.2839 53.8499 43.2492 54.1697 43.1168C54.4895 42.9843 54.7628 42.76 54.9551 42.4722C55.1474 42.1845 55.25 41.8461 55.25 41.5C55.25 41.0359 55.0656 40.5908 54.7374 40.2626C54.4093 39.9344 53.9641 39.75 53.5 39.75ZM53.5 25.75C53.1539 25.75 52.8155 25.8526 52.5278 26.0449C52.24 26.2372 52.0157 26.5105 51.8832 26.8303C51.7508 27.1501 51.7161 27.5019 51.7836 27.8414C51.8512 28.1809 52.0178 28.4927 52.2626 28.7374C52.5073 28.9822 52.8191 29.1489 53.1586 29.2164C53.4981 29.2839 53.8499 29.2492 54.1697 29.1168C54.4895 28.9843 54.7628 28.76 54.9551 28.4722C55.1474 28.1845 55.25 27.8461 55.25 27.5C55.25 27.0359 55.0656 26.5908 54.7374 26.2626C54.4093 25.9344 53.9641 25.75 53.5 25.75Z" fill="#20F1C0"/>
    <path d="M8.05 10.35C7.82255 10.35 7.60021 10.4174 7.41109 10.5438C7.22198 10.6702 7.07458 10.8498 6.98754 11.0599C6.9005 11.27 6.87772 11.5013 6.9221 11.7244C6.96647 11.9474 7.076 12.1523 7.23683 12.3132C7.39766 12.474 7.60257 12.5835 7.82565 12.6279C8.04872 12.6723 8.27995 12.6495 8.49009 12.5625C8.70022 12.4754 8.87983 12.328 9.00619 12.1389C9.13255 11.9498 9.2 11.7274 9.2 11.5C9.2 11.195 9.07884 10.9025 8.86317 10.6868C8.64751 10.4712 8.355 10.35 8.05 10.35ZM17.25 0H5.75C4.22501 0 2.76247 0.605802 1.68414 1.68414C0.605802 2.76247 0 4.22501 0 5.75V17.25C0 18.775 0.605802 20.2375 1.68414 21.3159C2.76247 22.3942 4.22501 23 5.75 23H17.25C18.775 23 20.2375 22.3942 21.3159 21.3159C22.3942 20.2375 23 18.775 23 17.25V5.75C23 4.22501 22.3942 2.76247 21.3159 1.68414C20.2375 0.605802 18.775 0 17.25 0ZM20.7 17.25C20.7 18.165 20.3365 19.0425 19.6895 19.6895C19.0425 20.3365 18.165 20.7 17.25 20.7H5.75C4.835 20.7 3.95748 20.3365 3.31048 19.6895C2.66348 19.0425 2.3 18.165 2.3 17.25V5.75C2.3 4.835 2.66348 3.95748 3.31048 3.31048C3.95748 2.66348 4.835 2.3 5.75 2.3H17.25C18.165 2.3 19.0425 2.66348 19.6895 3.31048C20.3365 3.95748 20.7 4.835 20.7 5.75V17.25ZM14.95 10.35C14.7226 10.35 14.5002 10.4174 14.3111 10.5438C14.122 10.6702 13.9746 10.8498 13.8875 11.0599C13.8005 11.27 13.7777 11.5013 13.8221 11.7244C13.8665 11.9474 13.976 12.1523 14.1368 12.3132C14.2977 12.474 14.5026 12.5835 14.7256 12.6279C14.9487 12.6723 15.18 12.6495 15.3901 12.5625C15.6002 12.4754 15.7798 12.328 15.9062 12.1389C16.0326 11.9498 16.1 11.7274 16.1 11.5C16.1 11.195 15.9788 10.9025 15.7632 10.6868C15.5475 10.4712 15.255 10.35 14.95 10.35Z" fill="#20F1C0"/>
</svg>