<svg width="79" height="43" viewBox="0 0 79 43" fill="none" xmlns="http://www.w3.org/2000/svg">
    <path d="M76.7873 30.0646H46.7335C46.1642 30.0646 45.6181 29.8384 45.2156 29.4357C44.813 29.0329 44.5868 28.4867 44.5868 27.9172C44.5868 27.3476 44.813 26.8014 45.2156 26.3987C45.6181 25.9959 46.1642 25.7697 46.7335 25.7697H69.1451C70.5805 25.7698 71.9748 25.2901 73.1065 24.407C74.2383 23.5238 75.0427 22.2877 75.392 20.8949L78.9341 6.95782C79.0145 6.64087 79.0214 6.30973 78.9545 5.98967C78.8875 5.66961 78.7484 5.36908 78.5476 5.11099C78.3389 4.84627 78.0707 4.63446 77.7649 4.49269C77.4591 4.35092 77.1242 4.28318 76.7873 4.29495H46.2183C45.7754 3.04179 44.9559 1.95635 43.8721 1.18742C42.7883 0.418497 41.4933 0.00373556 40.1646 0H38.1467C37.5774 0 37.0313 0.226251 36.6288 0.628981C36.2262 1.03171 36 1.57793 36 2.14747C36 2.71702 36.2262 3.26324 36.6288 3.66597C37.0313 4.0687 37.5774 4.29495 38.1467 4.29495H40.1646C40.655 4.28066 41.1355 4.43482 41.5261 4.73177C41.9166 5.02873 42.1938 5.45056 42.3113 5.92703L42.4401 6.95782L46.1539 21.4747C44.4459 21.5516 42.8383 22.3041 41.6849 23.5667C40.5315 24.8292 39.9267 26.4984 40.0036 28.2071C40.0805 29.9157 40.8327 31.5238 42.0948 32.6776C43.3569 33.8315 45.0255 34.4365 46.7335 34.3596H47.1199C46.7669 35.3327 46.6534 36.3765 46.7892 37.4028C46.9249 38.429 47.3059 39.4075 47.8999 40.2552C48.4938 41.1029 49.2832 41.795 50.2012 42.2727C51.1192 42.7505 52.1388 43 53.1736 43C54.2084 43 55.228 42.7505 56.146 42.2727C57.0641 41.795 57.8535 41.1029 58.4474 40.2552C59.0413 39.4075 59.4223 38.429 59.5581 37.4028C59.6938 36.3765 59.5804 35.3327 59.2273 34.3596H64.2935C63.9405 35.3327 63.827 36.3765 63.9628 37.4028C64.0986 38.429 64.4795 39.4075 65.0735 40.2552C65.6674 41.1029 66.4568 41.795 67.3748 42.2727C68.2928 42.7505 69.3124 43 70.3472 43C71.3821 43 72.4017 42.7505 73.3197 42.2727C74.2377 41.795 75.0271 41.1029 75.621 40.2552C76.2149 39.4075 76.5959 38.429 76.7317 37.4028C76.8674 36.3765 76.754 35.3327 76.4009 34.3596H76.7873C77.3567 34.3596 77.9027 34.1333 78.3053 33.7306C78.7079 33.3279 78.9341 32.7817 78.9341 32.2121C78.9341 31.6426 78.7079 31.0963 78.3053 30.6936C77.9027 30.2909 77.3567 30.0646 76.7873 30.0646ZM74.0396 8.5899L71.2274 19.8427C71.1099 20.3191 70.8327 20.741 70.4421 21.0379C70.0515 21.3349 69.5711 21.489 69.0807 21.4747H50.5546L47.3346 8.5899H74.0396ZM53.1736 38.6545C52.749 38.6545 52.334 38.5286 51.981 38.2926C51.628 38.0567 51.3528 37.7213 51.1903 37.3289C51.0278 36.9365 50.9853 36.5047 51.0682 36.0881C51.151 35.6715 51.3555 35.2889 51.6557 34.9886C51.9559 34.6882 52.3384 34.4837 52.7548 34.4009C53.1712 34.318 53.6029 34.3605 53.9951 34.5231C54.3874 34.6856 54.7227 34.9608 54.9585 35.314C55.1944 35.6671 55.3203 36.0823 55.3203 36.5071C55.3203 37.0766 55.0942 37.6228 54.6916 38.0256C54.289 38.4283 53.743 38.6545 53.1736 38.6545ZM70.3472 38.6545C69.9227 38.6545 69.5076 38.5286 69.1546 38.2926C68.8016 38.0567 68.5264 37.7213 68.3639 37.3289C68.2015 36.9365 68.159 36.5047 68.2418 36.0881C68.3246 35.6715 68.5291 35.2889 68.8293 34.9886C69.1295 34.6882 69.512 34.4837 69.9284 34.4009C70.3449 34.318 70.7765 34.3605 71.1687 34.5231C71.561 34.6856 71.8963 34.9608 72.1322 35.314C72.368 35.6671 72.4939 36.0823 72.4939 36.5071C72.4939 37.0766 72.2678 37.6228 71.8652 38.0256C71.4626 38.4283 70.9166 38.6545 70.3472 38.6545Z" fill="#20F1C0"/>
    <path d="M34 21H21.5" stroke="#20F1C0" stroke-width="3" stroke-linecap="round"/>
    <path d="M34 26L9 26" stroke="#20F1C0" stroke-width="3" stroke-linecap="round"/>
    <path d="M34 32L2 32" stroke="#20F1C0" stroke-width="3" stroke-linecap="round"/>
</svg>
