<svg width="34" height="34" viewBox="0 0 34 34" fill="none" xmlns="http://www.w3.org/2000/svg">
    <path d="M8.46667 11.9714L17.2438 18.0667L25.5333 11.9714M33 17C33 25.8366 25.8366 33 17 33C8.16344 33 1 25.8366 1 17C1 8.16344 8.16344 1 17 1C25.8366 1 33 8.16344 33 17ZM23.1869 25.1778H10.8135C9.61876 25.1778 9.02093 25.1777 8.56458 24.9563C8.16317 24.7615 7.83705 24.4508 7.63252 24.0685C7.4 23.6339 7.4 23.0648 7.4 21.9269V14.2063C7.4 13.0684 7.4 12.4995 7.63252 12.0649C7.83705 11.6826 8.16317 11.3718 8.56458 11.177C9.02093 10.9556 9.61876 10.9556 10.8135 10.9556H23.1869C24.3817 10.9556 24.9786 10.9556 25.435 11.177C25.8364 11.3718 26.1632 11.6826 26.3677 12.0649C26.6 12.4991 26.6 13.0673 26.6 14.203V21.9303C26.6 23.0659 26.6 23.6343 26.3677 24.0685C26.1632 24.4508 25.8364 24.7615 25.435 24.9563C24.9786 25.1777 24.3817 25.1778 23.1869 25.1778Z" stroke="white" stroke-linecap="round" stroke-linejoin="round"/>
</svg>