<svg width="32" height="32" viewBox="0 0 32 32" fill="none" xmlns="http://www.w3.org/2000/svg">
    <path fill-rule="evenodd" clip-rule="evenodd" d="M16 32C24.8366 32 32 24.8366 32 16C32 7.16344 24.8366 0 16 0C7.16344 0 0 7.16344 0 16C0 24.8366 7.16344 32 16 32ZM9.22472 8H9.20464H9.20462C8.56981 8 8.06528 7.99999 7.65829 8.03046C7.24236 8.06159 6.88649 8.12667 6.55924 8.27948C6.03105 8.52613 5.59383 8.92357 5.31679 9.42189C5.1451 9.73069 5.07107 10.066 5.03555 10.4481C4.99572 10.5477 4.99013 10.6548 5.01492 10.7542C5.00007 11.0751 5.00007 11.4504 5.00008 11.89V11.9133V20.0199V20.0432C5.00007 20.6209 5.00007 21.0875 5.03377 21.4656C5.06856 21.8559 5.14216 22.1974 5.31679 22.5115C5.59386 23.0099 6.03111 23.4072 6.55924 23.6538C6.88648 23.8066 7.24234 23.8717 7.65828 23.9029C8.06536 23.9333 8.57002 23.9333 9.20502 23.9333H9.20504H9.20508H9.22472H22.7257H22.7454H22.7454H22.7454C23.3804 23.9333 23.8849 23.9333 24.2917 23.9029C24.7075 23.8717 25.0631 23.8066 25.3903 23.6538C25.9181 23.4074 26.3562 23.0102 26.6335 22.5115C26.808 22.1977 26.8815 21.8565 26.9163 21.4666C26.9499 21.0891 26.9499 20.6232 26.9499 20.0468V20.0467V20.0234V15.9666V11.9098V11.8865V11.8864V11.8864V11.8863C26.9499 11.4482 26.9499 11.074 26.9352 10.754C26.9599 10.6545 26.9542 10.5476 26.9146 10.4485C26.8792 10.0662 26.8052 9.73083 26.6335 9.42189C26.3562 8.92325 25.9181 8.52597 25.3903 8.27948C25.0631 8.12669 24.7075 8.0616 24.2917 8.03046C23.885 7.99999 23.3806 8 22.7459 8H22.7257H9.22472ZM6.00053 11.5121C6.0001 11.6363 6.00008 11.7696 6.00008 11.9133V20.0199C6.00008 20.6263 6.00054 21.0483 6.02982 21.3768C6.05845 21.6979 6.1117 21.8834 6.19079 22.0256C6.36006 22.3301 6.6345 22.5853 6.98235 22.7477C7.15305 22.8275 7.37232 22.8786 7.73294 22.9056C8.09822 22.933 8.56533 22.9333 9.22472 22.9333H22.7257C23.3851 22.9333 23.852 22.933 24.217 22.9057C24.5773 22.8787 24.7964 22.8275 24.9672 22.7477C25.3154 22.5851 25.5904 22.3297 25.7595 22.0256C25.8384 21.8836 25.8916 21.6984 25.9202 21.3778C25.9495 21.0499 25.9499 20.6287 25.9499 20.0234V15.9666V11.9098C25.9499 11.7776 25.9499 11.6542 25.9496 11.5387L21.6283 14.2565L17.5755 16.8056C16.7814 17.3051 15.7744 17.3179 14.9678 16.8387L10.6318 14.2632L6.00053 11.5121Z" fill="white"/>
</svg>




