<svg width="34" height="34" viewBox="0 0 34 34" fill="none" xmlns="http://www.w3.org/2000/svg">
    <circle cx="16.7999" cy="16.7999" r="16.7999" fill="#1A202C"/>
    <path d="M22.05 16.8C22.05 18.1924 21.4969 19.5277 20.5123 20.5123C19.5277 21.4969 18.1924 22.05 16.8 22.05C15.4076 22.05 14.0723 21.4969 13.0877 20.5123C12.1031 19.5277 11.55 18.1924 11.55 16.8C11.55 16.5008 11.5815 16.2085 11.6358 15.925H9.8V22.9198C9.8 23.4063 10.1938 23.8 10.6803 23.8H22.9215C23.1547 23.7995 23.3781 23.7066 23.5428 23.5416C23.7075 23.3765 23.8 23.1529 23.8 22.9198V15.925H21.9643C22.0185 16.2085 22.05 16.5008 22.05 16.8V16.8ZM16.8 20.3C17.2597 20.2999 17.715 20.2092 18.1397 20.0332C18.5644 19.8571 18.9502 19.5992 19.2752 19.274C19.6002 18.9488 19.858 18.5628 20.0339 18.138C20.2097 17.7133 20.3001 17.258 20.3 16.7983C20.2999 16.3385 20.2092 15.8833 20.0332 15.4586C19.8571 15.0339 19.5992 14.648 19.274 14.323C18.9488 13.998 18.5628 13.7402 18.138 13.5644C17.7133 13.3886 17.258 13.2981 16.7983 13.2983C15.8698 13.2985 14.9794 13.6675 14.323 14.3243C13.6666 14.981 13.298 15.8715 13.2983 16.8C13.2985 17.7285 13.6675 18.6189 14.3243 19.2752C14.981 19.9316 15.8715 20.3002 16.8 20.3V20.3ZM21 13.125H23.0983C23.2377 13.125 23.3714 13.0697 23.4701 12.9713C23.5688 12.8729 23.6245 12.7394 23.625 12.6V10.5018C23.625 10.362 23.5695 10.2281 23.4707 10.1293C23.3719 10.0305 23.238 9.975 23.0983 9.975H21C20.8603 9.975 20.7263 10.0305 20.6275 10.1293C20.5287 10.2281 20.4733 10.362 20.4733 10.5018V12.6C20.475 12.8888 20.7113 13.125 21 13.125V13.125ZM16.8 0C12.3444 0 8.07122 1.76999 4.92061 4.92061C1.76999 8.07122 0 12.3444 0 16.8C0 21.2556 1.76999 25.5288 4.92061 28.6794C8.07122 31.83 12.3444 33.6 16.8 33.6C19.0062 33.6 21.1908 33.1655 23.2291 32.3212C25.2674 31.4769 27.1194 30.2394 28.6794 28.6794C30.2394 27.1194 31.4769 25.2674 32.3212 23.2291C33.1655 21.1908 33.6 19.0062 33.6 16.8C33.6 14.5938 33.1655 12.4092 32.3212 10.3709C31.4769 8.33265 30.2394 6.48063 28.6794 4.92061C27.1194 3.36058 25.2674 2.1231 23.2291 1.27882C21.1908 0.434545 19.0062 0 16.8 0V0ZM25.55 23.6058C25.55 24.675 24.675 25.55 23.6058 25.55H9.99425C8.925 25.55 8.05 24.675 8.05 23.6058V9.99425C8.05 8.925 8.925 8.05 9.99425 8.05H23.6058C24.675 8.05 25.55 8.925 25.55 9.99425V23.6058V23.6058Z" fill="white"/>
</svg>


