<svg width="163" height="39" viewBox="0 0 163 39" fill="none" xmlns="http://www.w3.org/2000/svg">
<path d="M8.97998 22.2224C9.48171 21.3503 9.9917 20.4866 10.4714 19.6033C10.6809 19.2151 10.9235 19.0688 11.3673 19.0716C16.674 19.0885 21.9807 19.0857 27.2847 19.0857C27.5465 19.0857 27.8057 19.0857 28.1999 19.0857L32.2964 19.0378C32.9029 20.1153 33.5121 21.1927 34.1241 22.273C30.488 22.273 26.998 22.273 23.4445 22.273C23.4445 27.5758 23.4445 32.7999 23.4445 38.0746C22.2261 38.0746 21.0738 38.0803 19.9214 38.0634C19.8332 38.0606 19.6899 37.8918 19.6733 37.7849C19.6347 37.5542 19.6595 37.3151 19.6595 37.0788C19.6595 32.4708 19.6595 27.86 19.6595 23.252C19.6595 22.951 19.6595 22.65 19.6595 22.3349C19.5548 22.3124 19.4941 22.2871 19.4335 22.2871C17.4156 22.2843 15.4004 22.2786 13.3825 22.2955" fill="#20F1C0"/>
<path d="M13.2356 22.3407C13.0797 22.3407 12.858 22.4699 12.7814 22.6046C10.5978 26.4597 8.42516 30.3232 6.25525 34.1866C6.22241 34.2428 6.20873 34.3102 6.154 34.4534C6.35102 34.4674 6.51794 34.4871 6.68485 34.4871C9.8672 34.4871 13.0523 34.4955 16.2346 34.473C16.7108 34.4702 16.905 34.5713 16.8804 35.1104C16.8339 36.0819 16.8667 37.059 16.8667 38.0754C11.2381 38.0754 5.65599 38.0754 0 38.0754C0.235324 37.6346 0.446021 37.2246 0.6704 36.8259C3.31917 32.1201 5.96793 27.4143 8.61944 22.7085C8.70153 22.5625 8.78362 22.4165 8.86844 22.2705" fill="#20F1C0"/>
<path d="M28.2149 19.0377C25.97 15.0899 23.7833 11.2402 21.5495 7.30924C21.3391 7.64875 21.1619 7.91811 21.0042 8.19869C19.5343 10.7745 18.0645 13.3502 16.6113 15.9372C16.4341 16.2515 16.2459 16.3918 15.875 16.3834C14.6875 16.3581 13.5 16.3749 12.2129 16.3749C15.338 10.8839 18.4161 5.47421 21.5329 0C25.1368 6.33842 28.7131 12.6291 32.3282 18.99" fill="#20F1C0"/>
<path d="M26.2224 38.0723C26.2224 36.928 26.2196 35.8263 26.2251 34.7218C26.2278 34.3385 26.5153 34.4237 26.7288 34.4237C29.2554 34.4208 31.7821 34.4208 34.3088 34.4208C35.1601 34.4208 36.0115 34.4208 36.986 34.4208C36.0662 32.7626 35.1957 31.1811 34.3197 29.6052C33.4492 28.0351 32.5732 26.4677 31.6671 24.8379C31.8807 24.8152 31.9874 24.7925 32.0969 24.7896C33.1809 24.7868 34.2622 24.7754 35.3463 24.801C35.5379 24.8067 35.8144 24.9231 35.8992 25.0793C38.2479 29.2702 40.5775 33.4725 42.9098 37.6748C42.9728 37.7884 43.0248 37.9104 43.1042 38.0751C37.4732 38.0723 31.8916 38.0723 26.2224 38.0723Z" fill="#20F1C0"/>
<path d="M99.1399 24.8965C99.1846 20.0049 103.125 16.1318 108.034 16.1643C113.115 16.1967 117.119 20.1022 117.1 25.0132C117.081 29.827 112.987 33.7843 108.034 33.7649C103.048 33.7389 99.1017 29.801 99.1399 24.8965ZM101.486 24.8965C101.473 28.9382 104.355 32.1819 107.97 32.2014C111.712 32.2209 114.741 29.0095 114.741 25.0197C114.747 20.991 111.757 17.7148 108.078 17.7018C104.393 17.6888 101.499 20.8482 101.486 24.8965Z" fill="#20F1C0" stroke="#20F1C0" stroke-miterlimit="10"/>
<path d="M150.299 16.1641C150.299 18.4207 150.344 20.6132 150.28 22.7928C150.249 23.7673 150.572 24.0365 151.511 24.0173C154.162 23.9596 156.819 23.9981 159.628 23.9981C159.628 21.921 159.622 19.9721 159.628 18.0232C159.634 16.5295 160.249 16.0294 161.93 16.241C161.93 16.9846 161.924 17.7475 161.93 18.504C161.955 22.7736 161.974 27.0432 162 31.3128C162.006 32.2167 161.848 32.9989 160.833 33.3002C160.028 33.5438 159.628 33.4092 159.647 32.4347C159.691 30.1717 159.66 27.9023 159.66 25.5431C156.533 25.5431 153.521 25.5431 150.325 25.5431C150.325 27.5689 150.331 29.5498 150.325 31.5308C150.318 33.0181 149.691 33.5181 148.074 33.2938C148.055 32.9732 148.023 32.6335 148.023 32.3001C148.01 27.6074 147.997 22.9146 147.991 18.2219C147.991 16.6064 148.435 16.1833 150.299 16.1641Z" fill="#20F1C0" stroke="#20F1C0" stroke-miterlimit="10"/>
<path d="M86.402 33.7082C86.402 31.1492 86.402 28.5774 86.402 25.9092C83.2758 25.9092 80.2638 25.9092 77.0361 25.9092C77.0361 26.9508 77.0361 28.0116 77.0361 29.0789C77.0361 30.0048 77.0488 30.9306 77.0361 31.8565C77.0171 33.3738 76.4718 33.8496 74.8484 33.7532C74.8104 33.5475 74.7406 33.3353 74.7406 33.1167C74.7279 28.2624 74.7089 23.4017 74.7152 18.5474C74.7152 16.9078 75.1972 16.4835 76.979 16.5349C76.979 19.0553 76.979 21.5885 76.979 24.2311C80.1306 24.2311 83.1743 24.2311 86.3639 24.2311C86.3639 22.2186 86.3196 20.264 86.3766 18.3159C86.421 16.7985 86.9156 16.4321 88.5326 16.5414C88.5707 16.7085 88.6404 16.8885 88.6404 17.0686C88.6721 21.9614 88.7165 26.8607 88.7229 31.7536C88.7229 33.3031 88.0951 33.8303 86.402 33.7082Z" fill="#20F1C0" stroke="#20F1C0" stroke-miterlimit="10"/>
<path d="M131.045 17.7596C129.032 17.7596 127.233 17.7596 125.371 17.7596C125.27 16.4906 126.014 16.2641 126.835 16.2317C128.312 16.1734 129.789 16.1734 131.26 16.1669C133.829 16.1605 136.398 16.1669 139.011 16.1669C138.998 17.3517 138.317 17.6495 137.452 17.6624C136.133 17.6883 134.814 17.6689 133.393 17.6689C133.368 18.2775 133.33 18.6918 133.33 19.0997C133.337 23.1783 133.355 27.257 133.362 31.3356C133.362 33.0124 132.901 33.4591 131.039 33.4008C131.045 28.2475 131.045 23.0683 131.045 17.7596Z" fill="#20F1C0" stroke="#20F1C0" stroke-miterlimit="10"/>
<path d="M57.7751 33.7247C57.7751 28.6454 57.7751 23.5471 57.7751 18.3021C55.7775 18.3021 53.95 18.3021 52.0848 18.3021C52.0659 17.3398 52.5448 16.9128 53.2443 16.9065C57.3907 16.8682 61.5434 16.8873 65.7339 16.8873C65.7339 17.8752 65.1731 18.2257 64.3791 18.2575C63.3204 18.3021 62.2617 18.3213 61.2094 18.2703C60.3461 18.232 60.0373 18.487 60.0499 19.4238C60.1129 23.5917 60.1066 27.7596 60.1066 31.9275C60.1003 33.406 59.4639 33.9222 57.7751 33.7247Z" fill="#20F1C0" stroke="#20F1C0" stroke-miterlimit="10"/>
</svg>
