<svg width="33" height="33" viewBox="0 0 33 33" fill="none" xmlns="http://www.w3.org/2000/svg">
    <path d="M16.5 32C25.0604 32 32 25.0604 32 16.5C32 7.93959 25.0604 1 16.5 1C7.93959 1 1 7.93959 1 16.5C1 25.0604 7.93959 32 16.5 32Z" fill="#1A202C"/>
    <path d="M22.6793 10.0002C22.3124 10.0067 21.893 10.1099 21.0957 10.3993C20.2898 10.6917 19.0438 11.1956 16.9998 12.0457C15.5631 12.6433 12.6978 13.8776 8.40751 15.7467C8.04423 15.8916 7.73584 16.0467 7.50472 16.2184C7.28504 16.3815 7.05001 16.623 7.00776 16.9601C6.97882 17.1909 7.03144 17.4084 7.15759 17.594C7.27405 17.7652 7.43503 17.8829 7.58376 17.9675C7.85983 18.1246 8.23467 18.2423 8.58554 18.3526L8.62376 18.3646C8.72807 18.3974 8.83358 18.4306 8.94141 18.4656C9.32438 18.5901 9.77697 18.7264 10.2043 18.8335C10.62 18.9377 11.0516 19.025 11.3754 19.0319C11.9969 19.0454 12.6319 18.7898 13.2653 18.3552C15.1277 17.098 16.5706 16.1303 17.5946 15.4516C16.9796 16.0372 16.3124 16.6575 15.8313 17.1048L15.7855 17.1473C15.4624 17.4477 15.2136 17.679 15.1522 17.7428C15.0442 17.855 14.9331 17.9621 14.819 18.0721L14.8072 18.0835C14.6413 18.2434 14.4601 18.418 14.314 18.5952C14.1656 18.7751 14.013 19.004 13.9584 19.2805C13.8319 19.922 14.2703 20.4254 14.9199 20.8535C15.518 21.2477 15.9966 21.5736 16.4769 21.9007C17.0013 22.2578 17.5282 22.6166 18.2088 23.0627C18.3718 23.1696 18.5287 23.2813 18.6903 23.3965C18.7097 23.4104 18.7293 23.4244 18.749 23.4385C19.3112 23.8402 19.9978 24.3307 20.8627 24.2511C21.6147 24.1819 22.0998 23.4863 22.3152 22.3347C22.8029 19.7272 23.7665 14.0529 23.9906 11.6978C24.0155 11.4369 23.9856 11.1293 23.9611 10.9861C23.9361 10.8403 23.8686 10.5226 23.5736 10.2832C23.4059 10.1471 23.2145 10.0798 23.0689 10.045C22.92 10.0094 22.7794 9.99849 22.6793 10.0002ZM19.1249 13.9064C19.1328 13.8949 19.1313 13.8953 19.1249 13.9064ZM16.5 32C7.93959 32 1 25.0604 1 16.5C1 7.93959 7.93959 1 16.5 1C25.0604 1 32 7.93959 32 16.5C32 25.0604 25.0604 32 16.5 32Z" fill="white"/>
    <path d="M23.5736 10.2832C23.8686 10.5226 23.9361 10.8403 23.9611 10.9861C23.9856 11.1293 24.0155 11.4369 23.9906 11.6978C23.7665 14.0529 22.8029 19.7272 22.3152 22.3347C22.0998 23.4863 21.6147 24.1819 20.8627 24.2511C19.9978 24.3307 19.3112 23.8402 18.749 23.4385C18.7293 23.4244 18.7097 23.4104 18.6903 23.3965C18.5287 23.2813 18.3718 23.1696 18.2088 23.0627C17.5282 22.6166 17.0013 22.2578 16.4769 21.9007C15.9966 21.5736 15.518 21.2477 14.9199 20.8535C14.2703 20.4254 13.8319 19.922 13.9584 19.2805C14.013 19.004 14.1656 18.7751 14.314 18.5952C14.4601 18.418 14.6413 18.2434 14.8072 18.0835L14.819 18.0721C14.9331 17.9621 15.0442 17.855 15.1522 17.7428C15.2136 17.679 15.4624 17.4477 15.7855 17.1473L15.8313 17.1048C16.3124 16.6575 16.9796 16.0372 17.5946 15.4516C16.5706 16.1303 15.1277 17.098 13.2653 18.3552C12.6319 18.7898 11.9969 19.0454 11.3754 19.0319C11.0516 19.025 10.62 18.9377 10.2043 18.8335C9.77697 18.7264 9.32438 18.5901 8.94141 18.4656C8.83358 18.4306 8.72807 18.3974 8.62376 18.3646L8.58554 18.3526C8.23467 18.2423 7.85983 18.1246 7.58376 17.9675C7.43503 17.8829 7.27405 17.7652 7.15759 17.594C7.03144 17.4084 6.97882 17.1909 7.00776 16.9601C7.05001 16.623 7.28504 16.3815 7.50472 16.2184C7.73584 16.0467 8.04423 15.8916 8.40751 15.7467C12.6978 13.8776 15.5631 12.6433 16.9998 12.0457C19.0438 11.1956 20.2898 10.6917 21.0957 10.3993C21.893 10.1099 22.3124 10.0067 22.6793 10.0002C22.7794 9.99849 22.92 10.0094 23.0689 10.045C23.2145 10.0798 23.4059 10.1471 23.5736 10.2832ZM23.5736 10.2832L23.2586 10.6715M19.3976 14.2913C19.3976 14.2913 19.3943 14.2932 19.3883 14.2959M19.1249 13.9064C19.1313 13.8953 19.1328 13.8949 19.1249 13.9064ZM16.5 32C7.93959 32 1 25.0604 1 16.5C1 7.93959 7.93959 1 16.5 1C25.0604 1 32 7.93959 32 16.5C32 25.0604 25.0604 32 16.5 32Z" stroke="white"/>
</svg>
