<svg width="32" height="32" viewBox="0 0 32 32" fill="none" xmlns="http://www.w3.org/2000/svg">
<path d="M22.1793 9.50016L22.1788 9.50017C21.8119 9.50671 21.393 9.60992 20.5957 9.89925C19.7898 10.1917 18.5438 10.6956 16.4998 11.5457C15.0631 12.1433 12.1978 13.3776 7.90751 15.2467C7.54423 15.3916 7.23584 15.5467 7.00472 15.7184C6.78504 15.8815 6.55001 16.123 6.50776 16.4601C6.47882 16.6909 6.53144 16.9084 6.65759 17.094C6.77405 17.2652 6.93503 17.3829 7.08376 17.4675C7.35983 17.6246 7.73467 17.7423 8.08554 17.8526L8.12376 17.8646C8.22807 17.8974 8.33358 17.9306 8.44141 17.9656C8.82438 18.0901 9.27697 18.2264 9.70428 18.3335C10.12 18.4377 10.5516 18.525 10.8754 18.5319C11.4969 18.5454 12.1319 18.2898 12.7653 17.8552C14.6277 16.598 16.0706 15.6303 17.0946 14.9516C16.4796 15.5372 15.8124 16.1575 15.3313 16.6048L15.2855 16.6473C14.9624 16.9477 14.7136 17.179 14.6522 17.2428C14.5442 17.355 14.4331 17.4621 14.319 17.5721L14.3072 17.5835C14.1413 17.7434 13.9601 17.918 13.814 18.0952C13.6656 18.2751 13.513 18.504 13.4584 18.7805C13.3319 19.422 13.7703 19.9254 14.4199 20.3535C15.018 20.7477 15.4966 21.0736 15.9769 21.4007L15.9777 21.4012C16.5021 21.7583 17.0282 22.1166 17.7088 22.5627C17.8718 22.6696 18.0287 22.7813 18.1903 22.8965C18.2097 22.9104 18.2293 22.9244 18.249 22.9385C18.8112 23.3402 19.4978 23.8307 20.3627 23.7511C21.1147 23.6819 21.5998 22.9863 21.8152 21.8347C22.3029 19.2272 23.2665 13.5529 23.4906 11.1978C23.5155 10.9369 23.4856 10.6293 23.4611 10.4861C23.4361 10.3403 23.3686 10.0226 23.0736 9.78323L22.7586 10.1715L23.0736 9.78323C22.9059 9.64715 22.7145 9.57983 22.5689 9.54501C22.42 9.50943 22.2794 9.49849 22.1793 9.50016ZM18.8976 13.7913C18.8976 13.7915 18.8943 13.7932 18.8883 13.7959C18.8947 13.7925 18.8977 13.7912 18.8976 13.7913ZM18.6249 13.4064C18.6313 13.3953 18.6332 13.3944 18.6253 13.4059C18.6252 13.4061 18.625 13.4062 18.6249 13.4064ZM16 31.5C7.43959 31.5 0.5 24.5604 0.5 16C0.5 7.43959 7.43959 0.5 16 0.5C24.5604 0.5 31.5 7.43959 31.5 16C31.5 24.5604 24.5604 31.5 16 31.5Z" stroke="white"/>
</svg>
