<svg width="163" height="163" viewBox="0 0 163 163" fill="none" xmlns="http://www.w3.org/2000/svg">
<rect opacity="0.14" width="163" height="163" rx="30" fill="#00FAAF"/>
<path d="M146.019 83.489C144.079 91.4963 136.197 96.3695 128.413 94.3727C120.633 92.3763 115.896 84.2657 117.837 76.2589C119.777 68.2506 127.659 63.377 135.441 65.3733C143.224 67.3697 147.96 75.4812 146.019 83.489V83.489Z" fill="#00BAA4"/>
<path d="M138.333 77.7437C138.622 75.7548 137.15 74.6856 135.137 73.9724L135.79 71.2782L134.196 70.8695L133.561 73.4927C133.142 73.3852 132.711 73.2839 132.284 73.1835L132.924 70.543L131.331 70.1343L130.678 72.8275C130.331 72.7463 129.99 72.6659 129.66 72.5814L129.662 72.573L127.463 72.0083L127.039 73.7598C127.039 73.7598 128.222 74.0387 128.197 74.056C128.843 74.2218 128.959 74.6613 128.94 75.0098L128.196 78.079C128.241 78.0907 128.298 78.1075 128.362 78.1337C128.309 78.1201 128.252 78.1052 128.193 78.0907L127.151 82.3903C127.072 82.5921 126.872 82.8947 126.421 82.7798C126.436 82.8037 125.262 82.4823 125.262 82.4823L124.471 84.3596L126.545 84.8916C126.931 84.991 127.309 85.0952 127.681 85.1933L127.022 87.9183L128.614 88.327L129.267 85.631C129.702 85.7524 130.124 85.8645 130.537 85.9701L129.886 88.6535L131.48 89.0622L132.14 86.3423C134.858 86.8716 136.902 86.6581 137.762 84.1288C138.455 82.0923 137.727 80.9176 136.297 80.1515C137.339 79.9044 138.123 79.1996 138.333 77.7437V77.7437ZM134.691 82.998C134.198 85.0345 130.865 83.9336 129.785 83.6575L130.66 80.0474C131.741 80.3248 135.206 80.8741 134.691 82.998ZM135.184 77.7142C134.734 79.5667 131.96 78.6255 131.061 78.3948L131.854 75.1205C132.754 75.3512 135.652 75.7819 135.184 77.7142Z" fill="white"/>
<path d="M49.5809 78.4244C49.5809 86.9171 42.6962 93.8018 34.2035 93.8018C25.7108 93.8018 18.8262 86.9171 18.8262 78.4244C18.8262 69.9317 25.7108 63.047 34.2035 63.047C42.6962 63.047 49.5809 69.9317 49.5809 78.4244Z" fill="#00BAA4"/>
<path d="M33.4052 87.7508V87.6508V85.9494C32.4342 85.7974 31.5992 85.4295 30.9031 84.8441C30.1848 84.24 29.7146 83.4582 29.4924 82.5028L29.4724 82.4164L29.5557 82.3862L30.9334 81.8864L31.0395 81.8479L31.0649 81.9579C31.2055 82.5666 31.4974 83.0738 31.9409 83.4825C32.3569 83.8537 32.8443 84.1005 33.4052 84.2226V79.5976C32.8794 79.4618 32.4346 79.3195 32.0715 79.1704C31.6895 79.0136 31.2968 78.7987 30.8934 78.5265C30.4797 78.2473 30.1657 77.881 29.9526 77.4291L29.9521 77.4281L29.9521 77.4281C29.7395 76.9639 29.6349 76.4238 29.6349 75.8102C29.6349 74.7234 29.9816 73.8376 30.6804 73.1627C31.3704 72.4952 32.2813 72.1125 33.4052 72.0086V70.7357V70.6357H33.5052H34.7559H34.8559V70.7357V72.0521C35.7912 72.1924 36.5908 72.5547 37.2512 73.1405C37.9332 73.7454 38.3782 74.5337 38.5877 75.5007L38.6062 75.5861L38.5241 75.6159L37.1465 76.1157L37.0399 76.1543L37.0148 76.0437C36.8736 75.4198 36.5985 74.9194 36.192 74.5376L36.1897 74.5355L36.1898 74.5355C35.8213 74.1677 35.3774 73.9171 34.8559 73.7837V78.2481C35.4029 78.3715 35.8585 78.5013 36.2217 78.6378M33.4052 87.7508L36.1879 78.7319M33.4052 87.7508H33.5052H34.7559H34.8559V87.6508V85.996L33.4052 87.7508ZM36.2217 78.6378C36.2222 78.638 36.2227 78.6382 36.2231 78.6383L36.1879 78.7319M36.2217 78.6378C36.2212 78.6376 36.2208 78.6375 36.2203 78.6373L36.1879 78.7319M36.2217 78.6378C36.6042 78.7688 37.0209 78.9706 37.4716 79.2418M36.1879 78.7319C36.5625 78.8601 36.9734 79.0587 37.4205 79.3278M37.4716 79.2418C37.4714 79.2417 37.4712 79.2416 37.4711 79.2415L37.4205 79.3278M37.4716 79.2418C37.4717 79.2419 37.4719 79.242 37.4721 79.2421L37.4205 79.3278M37.4716 79.2418L37.4205 79.3278M37.0889 75.9238L37.0783 75.9277L37.1124 76.0217L37.2099 75.9996C37.209 75.9955 37.208 75.9914 37.2071 75.9873L38.49 75.5219C38.2845 74.5736 37.8495 73.8048 37.1849 73.2153C36.5202 72.6258 35.7106 72.267 34.7559 72.1389L37.0889 75.9238ZM37.0889 75.9238C36.9378 75.3279 36.6616 74.8415 36.2604 74.4647C35.8729 74.0779 35.4047 73.8166 34.8559 73.6806L37.0889 75.9238ZM30.043 77.3864C30.2484 77.8221 30.5506 78.1745 30.9493 78.4436C31.3481 78.7127 31.7348 78.9241 32.1094 79.0779C32.484 79.2317 32.9493 79.3791 33.5052 79.52L30.043 77.3864ZM30.043 77.3864C29.8376 76.9379 29.7349 76.4125 29.7349 75.8102C29.7349 74.7466 30.0732 73.8881 30.7499 73.2345C31.4388 72.5682 32.3572 72.1901 33.5052 72.1004L30.043 77.3864ZM30.9915 82.0781L31.0016 82.0744L30.9675 81.9804L30.87 82.0029C30.8709 82.0069 30.8719 82.0108 30.8728 82.0147L29.5898 82.4802C29.8074 83.4156 30.2666 84.1781 30.9675 84.7675C31.6684 85.357 32.5143 85.7222 33.5052 85.8632L30.9915 82.0781ZM30.9915 82.0781C31.1445 82.663 31.4386 83.1558 31.8738 83.5566L30.9915 82.0781ZM34.7559 73.7598V78.3283V73.7598ZM38.543 80.3977C38.5428 80.3972 38.5426 80.3967 38.5423 80.3963L38.4537 80.4427L38.5437 80.3991C38.5435 80.3986 38.5433 80.3981 38.543 80.3977ZM31.9976 74.3637L31.9976 74.3637L31.9987 74.3626C32.3565 74.0062 32.8233 73.7823 33.4052 73.6948V77.886C32.7758 77.6889 32.2955 77.4386 31.9584 77.1387C31.6107 76.8295 31.43 76.3732 31.43 75.7526C31.43 75.1883 31.6197 74.728 31.9976 74.3637ZM36.5444 80.6954L36.5455 80.6962C36.9484 80.9929 37.1574 81.4585 37.1574 82.1149C37.1574 82.81 36.942 83.3303 36.5222 83.6916C36.1159 84.029 35.5631 84.2382 34.8559 84.3118V79.9742C35.5975 80.161 36.1581 80.4028 36.5444 80.6954Z" fill="white" stroke="white" stroke-width="0.2"/>
<path d="M130.694 57.8508C131.501 58.0381 132.307 57.5357 132.494 56.7288L135.546 43.5782C135.733 42.7713 135.231 41.9653 134.424 41.778C133.617 41.5907 132.811 42.0931 132.624 42.9001L129.911 54.5894L118.222 51.8767C117.415 51.6894 116.609 52.1917 116.421 52.9987C116.234 53.8057 116.736 54.6117 117.543 54.799L130.694 57.8508ZM32.6849 53.6426C32.2195 54.3279 32.3977 55.2608 33.0831 55.7262C33.7684 56.1916 34.7012 56.0134 35.1667 55.328L32.6849 53.6426ZM96.4764 32.5309C110.865 36.3864 122.456 45.4648 129.76 57.1831L132.306 55.5962C124.616 43.2581 112.405 33.6932 97.2528 29.6332L96.4764 32.5309ZM35.1667 55.328C48.2887 36.0061 72.6473 26.146 96.4764 32.5309L97.2528 29.6332C72.1525 22.9076 46.5021 33.2971 32.6849 53.6426L35.1667 55.328Z" fill="#00BAA4"/>
<path d="M36.5199 105.941C35.7056 105.789 34.922 106.325 34.7698 107.14L32.2886 120.41C32.1363 121.224 32.6731 122.008 33.4874 122.16C34.3017 122.312 35.0852 121.775 35.2375 120.961L37.443 109.166L49.2386 111.371C50.0529 111.523 50.8364 110.987 50.9887 110.172C51.141 109.358 50.6043 108.574 49.7899 108.422L36.5199 105.941ZM133.073 108.263C133.542 107.58 133.367 106.646 132.684 106.178C132.001 105.71 131.067 105.884 130.599 106.567L133.073 108.263ZM69.4235 129.167C55.886 125.54 44.8258 117.29 37.4817 106.568L35.0067 108.263C42.74 119.553 54.3922 128.245 68.6471 132.065L69.4235 129.167ZM130.599 106.567C117.445 125.759 93.1713 135.53 69.4235 129.167L68.6471 132.065C93.6618 138.768 119.223 128.472 133.073 108.263L130.599 106.567Z" fill="#00BAA4"/>
</svg>
