<svg width="32" height="32" viewBox="0 0 32 32" fill="none" xmlns="http://www.w3.org/2000/svg">
<path d="M16.6 24V24.5806L17.1742 24.4945C21.4197 23.8576 24.5 20.2467 24.5 16C24.5 11.3239 20.6761 7.5 16 7.5C11.3239 7.5 7.5 11.3239 7.5 16C7.5 20.2474 10.5803 23.7557 14.622 24.3939L15.2 24.4851V23.9V18.3V17.8H14.7H13.2V16.5H14.7H15.2V16V14.2C15.2 13.3008 15.4676 12.6645 15.8786 12.2536C16.2901 11.842 16.902 11.6 17.7 11.6C18.1164 11.6 18.54 11.6466 18.8642 11.6946C18.912 11.7017 18.9574 11.7088 19 11.7157V12.8H18.5C17.8967 12.8 17.4196 12.9847 17.1013 13.3428C16.7931 13.6895 16.7 14.1251 16.7 14.5V16V16.5H17.2H18.8055L18.5795 17.8H17.1H16.6V18.3V24ZM0.5 16C0.5 7.43959 7.43959 0.5 16 0.5C24.5604 0.5 31.5 7.43959 31.5 16C31.5 24.5604 24.5604 31.5 16 31.5C7.43959 31.5 0.5 24.5604 0.5 16Z" stroke="white"/>
</svg>
