<svg width="33" height="32" viewBox="0 0 33 32" fill="none" xmlns="http://www.w3.org/2000/svg">
<path d="M8.85606 9.83692C8.11114 11.0408 8.17062 12.4497 8.81043 13.5811L8.26562 13.3698V14.1C8.26562 15.18 8.7653 16.198 9.55989 16.9247L9.16883 16.8489L9.42342 17.6512C9.7612 18.7158 10.5763 19.6024 11.6534 20.0282C10.6516 20.4404 9.45584 20.6343 8.30667 20.5032L7.99855 21.4322C9.60183 22.365 11.4411 23 13.4062 23C19.8874 23 23.5623 17.837 23.5048 12.9794C24.1893 12.5439 24.7739 11.9443 25.1808 11.2538L26.0209 9.82812L24.5319 10.5501C24.4898 10.5705 24.4477 10.5898 24.4055 10.6083C24.5398 10.3689 24.6456 10.1078 24.7185 9.82483L25.0382 8.58498L23.9629 9.2801C23.4802 9.59219 22.9131 9.77282 22.2053 9.95128C21.5073 9.3711 20.5546 9 19.5938 9C17.369 9 15.5766 10.8637 15.7039 12.958C13.3164 12.7109 11.198 11.5282 9.65725 9.77042L9.21171 9.26213L8.85606 9.83692ZM0.5 16C0.5 7.45398 7.64883 0.5 16.5 0.5C25.3512 0.5 32.5 7.45398 32.5 16C32.5 24.546 25.3512 31.5 16.5 31.5C7.64883 31.5 0.5 24.546 0.5 16Z" stroke="white"/>
</svg>
