<svg width="63" height="70" viewBox="0 0 63 70" fill="none" xmlns="http://www.w3.org/2000/svg">
<path d="M42.1875 24.5165L27.9375 38.8609L20.8125 31.6887M60 14.4753V28.6936C60 52.248 42.3013 62.8082 34.7981 66.2269C34.0027 66.5893 33.6075 66.7708 32.7072 66.9264C32.1393 67.0245 30.8633 67.0245 30.2954 66.9264C29.3951 66.7708 28.9964 66.5893 28.2009 66.2269C20.6978 62.8082 3 52.248 3 28.6936V14.4753C3 10.4585 3 8.45037 3.77658 6.91616C4.45968 5.56662 5.54887 4.46934 6.88953 3.78172C8.41365 3 10.4103 3 14.4007 3H48.6007C52.5911 3 54.5849 3 56.109 3.78172C57.4496 4.46934 58.5411 5.56662 59.2242 6.91616C60.0008 8.45037 60 10.4585 60 14.4753Z" stroke="#20F1C0" stroke-width="5" stroke-linecap="round" stroke-linejoin="round"/>
</svg>
