<svg width="514" height="1083" viewBox="0 0 514 1083" fill="none" xmlns="http://www.w3.org/2000/svg">
<path d="M502.026 1081H11.9737C5.9068 1081 1 1065.09 1 1045.48V38.5189C1 18.882 5.91539 3 11.9737 3H502.026C508.093 3 513 18.9098 513 38.5189V1045.45C513.009 1065.09 508.093 1081 502.026 1081Z" fill="url(#paint0_linear_1_3358)"/>
<path d="M360 1083H503.026C509.093 1083 514 1067.1 514 1047.51V585L360 1083Z" fill="url(#paint1_linear_1_3358)"/>
<path d="M502.161 1083H11.8395C5.305 1083 0 1065.82 0 1044.72V38.2804C0 17.1525 5.3136 0 11.8395 0H502.161C508.695 0 514 17.1803 514 38.2804V1044.69C514.009 1065.82 508.695 1083 502.161 1083ZM11.8395 2.75219C5.78649 2.75219 0.859805 18.6815 0.859805 38.2526V1044.66C0.859805 1064.24 5.78649 1080.16 11.8395 1080.16H502.161C508.214 1080.16 513.14 1064.24 513.14 1044.66V38.2804C513.14 18.7093 508.214 2.77999 502.161 2.77999H11.8395V2.75219Z" fill="url(#paint2_linear_1_3358)"/>
<path d="M154.946 2.60229H11.8396C5.76935 2.60229 0.859863 17.6375 0.859863 36.1687V473.637L154.946 2.60229Z" fill="url(#paint3_linear_1_3358)"/>
<defs>
<linearGradient id="paint0_linear_1_3358" x1="5.83771" y1="16.0777" x2="687.986" y2="152.415" gradientUnits="userSpaceOnUse">
<stop stop-color="#1C2938"/>
<stop offset="0.9958" stop-color="#121A24"/>
</linearGradient>
<linearGradient id="paint1_linear_1_3358" x1="440.413" y1="847.355" x2="684.696" y2="938.962" gradientUnits="userSpaceOnUse">
<stop stop-color="#121A24" stop-opacity="0"/>
<stop offset="0.1382" stop-color="#0F344D" stop-opacity="0.1382"/>
<stop offset="0.3664" stop-color="#095C8C" stop-opacity="0.3664"/>
<stop offset="0.575" stop-color="#057BBE" stop-opacity="0.575"/>
<stop offset="0.7567" stop-color="#0292E1" stop-opacity="0.7567"/>
<stop offset="0.9046" stop-color="#01A0F7" stop-opacity="0.9046"/>
<stop offset="1" stop-color="#00A5FF"/>
</linearGradient>
<linearGradient id="paint2_linear_1_3358" x1="4.29275" y1="14.7567" x2="698.378" y2="153.142" gradientUnits="userSpaceOnUse">
<stop stop-color="#2DD7A2"/>
<stop offset="0.0391" stop-color="#28B188" stop-opacity="0.9217"/>
<stop offset="0.087" stop-color="#22896E" stop-opacity="0.8256"/>
<stop offset="0.1381" stop-color="#1D6657" stop-opacity="0.723"/>
<stop offset="0.1922" stop-color="#194B44" stop-opacity="0.6144"/>
<stop offset="0.2503" stop-color="#163536" stop-opacity="0.4979"/>
<stop offset="0.3143" stop-color="#14262C" stop-opacity="0.3695"/>
<stop offset="0.3888" stop-color="#121D26" stop-opacity="0.2202"/>
<stop offset="0.4986" stop-color="#121A24" stop-opacity="0"/>
<stop offset="0.5949" stop-color="#121C27" stop-opacity="0.1922"/>
<stop offset="0.6654" stop-color="#112230" stop-opacity="0.3328"/>
<stop offset="0.7277" stop-color="#102C40" stop-opacity="0.4569"/>
<stop offset="0.7851" stop-color="#0E3A57" stop-opacity="0.5715"/>
<stop offset="0.8394" stop-color="#0B4D74" stop-opacity="0.6797"/>
<stop offset="0.8911" stop-color="#096398" stop-opacity="0.7829"/>
<stop offset="0.941" stop-color="#057EC2" stop-opacity="0.8823"/>
<stop offset="0.9881" stop-color="#019DF2" stop-opacity="0.9763"/>
<stop offset="1" stop-color="#00A5FF"/>
</linearGradient>
<linearGradient id="paint3_linear_1_3358" x1="74.4919" y1="225.499" x2="-166.387" y2="129.956" gradientUnits="userSpaceOnUse">
<stop stop-color="#121A24" stop-opacity="0"/>
<stop offset="0.0434" stop-color="#14252C" stop-opacity="0.0434"/>
<stop offset="0.2969" stop-color="#1D6455" stop-opacity="0.2969"/>
<stop offset="0.5284" stop-color="#249676" stop-opacity="0.5284"/>
<stop offset="0.73" stop-color="#29B98E" stop-opacity="0.73"/>
<stop offset="0.894" stop-color="#2CCF9D" stop-opacity="0.894"/>
<stop offset="1" stop-color="#2DD7A2"/>
</linearGradient>
</defs>
</svg>
