<svg width="1440" height="362" viewBox="0 0 1440 362" fill="none" xmlns="http://www.w3.org/2000/svg">
    <path d="M1406.83 361.071H33.1691C16.163 361.071 2.40881 355.756 2.40881 349.204V12.7955C2.40881 6.2351 16.1871 0.929199 33.1691 0.929199H1406.83C1423.84 0.929199 1437.59 6.24439 1437.59 12.7955V349.195C1437.62 355.756 1423.84 361.071 1406.83 361.071Z" fill="url(#paint0_linear_55_1478)"/>
    <path d="M1008.34 362H1409.24C1426.25 362 1440 356.685 1440 350.134V195.473L1008.34 362Z" fill="url(#paint1_linear_55_1478)"/>
    <path d="M1406.83 362H33.1691C14.8622 362 0 356.257 0 349.205V12.7955C0 5.73335 14.8863 0 33.1691 0H1406.83C1425.14 0 1440 5.74264 1440 12.7955V349.195C1440.02 356.257 1425.14 362 1406.83 362ZM33.1691 0.919937C16.2112 0.919937 2.40879 6.24442 2.40879 12.7862V349.186C2.40879 355.728 16.2112 361.052 33.1691 361.052H1406.83C1423.79 361.052 1437.59 355.728 1437.59 349.186V12.7955C1437.59 6.25371 1423.79 0.92923 1406.83 0.92923H33.1691V0.919937Z" fill="url(#paint2_linear_55_1478)"/>
    <path d="M434.088 0.919922H33.1691C16.163 0.919922 2.40881 6.23512 2.40881 12.7862V167.438L434.088 0.919922Z" fill="url(#paint3_linear_55_1478)"/>
    <defs>
        <linearGradient id="paint0_linear_55_1478" x1="15.9694" y1="5.29825" x2="537.594" y2="880.033" gradientUnits="userSpaceOnUse">
            <stop stop-color="#1C2938"/>
            <stop offset="0.9958" stop-color="#121A24"/>
        </linearGradient>
        <linearGradient id="paint1_linear_55_1478" x1="1233.74" y1="283.202" x2="1305.52" y2="508.829" gradientUnits="userSpaceOnUse">
            <stop stop-color="#121A24" stop-opacity="0"/>
            <stop offset="0.1382" stop-color="#0F344D" stop-opacity="0.1382"/>
            <stop offset="0.3664" stop-color="#095C8C" stop-opacity="0.3664"/>
            <stop offset="0.575" stop-color="#057BBE" stop-opacity="0.575"/>
            <stop offset="0.7567" stop-color="#0292E1" stop-opacity="0.7567"/>
            <stop offset="0.9046" stop-color="#01A0F7" stop-opacity="0.9046"/>
            <stop offset="1" stop-color="#00A5FF"/>
        </linearGradient>
        <linearGradient id="paint2_linear_55_1478" x1="12.0264" y1="4.93254" x2="545.137" y2="895.8" gradientUnits="userSpaceOnUse">
            <stop stop-color="#2DD7A2"/>
            <stop offset="0.0391" stop-color="#28B188" stop-opacity="0.9217"/>
            <stop offset="0.087" stop-color="#22896E" stop-opacity="0.8256"/>
            <stop offset="0.1381" stop-color="#1D6657" stop-opacity="0.723"/>
            <stop offset="0.1922" stop-color="#194B44" stop-opacity="0.6144"/>
            <stop offset="0.2503" stop-color="#163536" stop-opacity="0.4979"/>
            <stop offset="0.3143" stop-color="#14262C" stop-opacity="0.3695"/>
            <stop offset="0.3888" stop-color="#121D26" stop-opacity="0.2202"/>
            <stop offset="0.4986" stop-color="#121A24" stop-opacity="0"/>
            <stop offset="0.5949" stop-color="#121C27" stop-opacity="0.1922"/>
            <stop offset="0.6654" stop-color="#112230" stop-opacity="0.3328"/>
            <stop offset="0.7277" stop-color="#102C40" stop-opacity="0.4569"/>
            <stop offset="0.7851" stop-color="#0E3A57" stop-opacity="0.5715"/>
            <stop offset="0.8394" stop-color="#0B4D74" stop-opacity="0.6797"/>
            <stop offset="0.8911" stop-color="#096398" stop-opacity="0.7829"/>
            <stop offset="0.941" stop-color="#057EC2" stop-opacity="0.8823"/>
            <stop offset="0.9881" stop-color="#019DF2" stop-opacity="0.9763"/>
            <stop offset="1" stop-color="#00A5FF"/>
        </linearGradient>
        <linearGradient id="paint3_linear_55_1478" x1="208.693" y1="79.7174" x2="136.914" y2="-145.91" gradientUnits="userSpaceOnUse">
            <stop stop-color="#121A24" stop-opacity="0"/>
            <stop offset="0.0434" stop-color="#14252C" stop-opacity="0.0434"/>
            <stop offset="0.2969" stop-color="#1D6455" stop-opacity="0.2969"/>
            <stop offset="0.5284" stop-color="#249676" stop-opacity="0.5284"/>
            <stop offset="0.73" stop-color="#29B98E" stop-opacity="0.73"/>
            <stop offset="0.894" stop-color="#2CCF9D" stop-opacity="0.894"/>
            <stop offset="1" stop-color="#2DD7A2"/>
        </linearGradient>
    </defs>
</svg>
