<svg width="86" height="86" viewBox="0 0 86 86" fill="none" xmlns="http://www.w3.org/2000/svg">
<g clip-path="url(#clip0_54_3161)">
<path d="M44.3303 86C42.5782 85.6686 40.8127 85.402 39.0809 84.9922C37.3289 84.5779 35.6957 83.8388 34.2779 82.6944C32.9162 81.5947 32.2231 80.2017 32.2275 78.4011C32.2545 66.8135 32.2679 55.2237 32.2186 43.6361C32.2096 41.3293 33.2191 39.7504 35.0586 38.5701C37.1718 37.2152 39.534 36.5635 41.9837 36.1939C46.4188 35.5265 50.8157 35.6721 55.069 37.1681C56.4913 37.6676 57.8485 38.4805 59.0756 39.3696C60.471 40.3775 60.9667 41.9093 60.9443 43.6517C60.895 47.5688 60.9196 51.488 60.9151 55.4073C60.9151 55.5641 60.9466 55.7208 60.9757 55.965C63.1607 54.8788 65.422 54.2898 67.7573 54.0053C72.1744 53.4633 76.5466 53.6671 80.7259 55.302C82.0517 55.8194 83.2923 56.6548 84.4207 57.5394C85.5423 58.4195 85.9888 59.723 85.982 61.1877C85.9596 66.8426 85.9259 72.4976 85.9977 78.1503C86.0269 80.4503 85.0353 82.0561 83.1913 83.2408C80.6564 84.8713 77.7984 85.4804 74.8596 85.8298C74.5321 85.8679 74.2091 85.9418 73.8838 86C72.4279 86 70.9742 86 69.5183 86C69.2468 85.9485 68.9754 85.8791 68.7017 85.8477C65.3906 85.4827 62.1894 84.8086 59.4256 82.7772C59.2775 82.6697 58.8894 82.7078 58.7257 82.831C57.171 83.9844 55.4213 84.719 53.557 85.1378C51.9531 85.4983 50.3199 85.7178 48.7003 86C47.2421 86 45.7862 86 44.3303 86ZM71.6203 57.3221C68.9799 57.3781 66.3574 57.6155 63.892 58.6368C62.979 59.0153 62.1243 59.5774 61.3234 60.1664C60.7536 60.583 60.7761 61.2414 61.3234 61.6826C61.9471 62.1843 62.6223 62.686 63.3581 62.9771C68.3585 64.9547 73.4576 64.986 78.5656 63.4832C79.7164 63.1451 80.8044 62.4866 81.8162 61.8192C82.5834 61.3131 82.5497 60.5763 81.8207 60.0052C81.2127 59.5281 80.5285 59.1116 79.8219 58.8025C77.2106 57.6558 74.4312 57.3826 71.6203 57.3221ZM46.6072 46.6685C48.1058 46.5094 49.6133 46.3952 51.1029 46.1735C52.0092 46.0391 52.9312 45.8331 53.7724 45.4837C54.8178 45.0492 55.8452 44.514 56.7717 43.8667C57.5277 43.3382 57.5165 42.6775 56.7717 42.1288C55.9731 41.5398 55.0937 40.9889 54.1627 40.6641C49.5079 39.0427 44.7722 38.9934 40.0567 40.3215C38.7713 40.6843 37.5509 41.3898 36.4068 42.1064C35.6194 42.5991 35.6688 43.3136 36.4024 43.9138C36.9363 44.3505 37.542 44.7334 38.1701 45.0179C40.8441 46.2273 43.6932 46.561 46.6072 46.6685ZM57.2697 74.9275C50.0687 77.774 42.9865 77.7763 35.8079 74.8894C35.8079 75.6979 35.9111 76.4863 35.7877 77.2365C35.4669 79.1984 36.5033 80.2062 38.1432 80.8512C38.6883 81.0662 39.2267 81.3036 39.7875 81.4671C43.7582 82.6339 47.785 82.7593 51.7983 81.8411C53.3507 81.4873 54.8335 80.7728 56.2849 80.083C56.7246 79.8747 57.1733 79.2298 57.2249 78.7415C57.3595 77.5008 57.2697 76.2354 57.2697 74.9275ZM57.2697 47.9405C53.7948 49.6471 50.1898 50.1644 46.5085 50.1622C42.8362 50.16 39.2491 49.5911 35.8101 47.9249C35.8101 48.7826 35.8999 49.4926 35.7944 50.1734C35.4624 52.2876 36.5347 53.4186 38.3653 54.0792C38.8386 54.2494 39.3007 54.451 39.7808 54.5899C43.7806 55.7589 47.8366 55.8866 51.8768 54.9459C53.4 54.5899 54.8559 53.8844 56.2849 53.2125C56.7156 53.011 57.1778 52.4107 57.2249 51.9516C57.3527 50.684 57.2697 49.3918 57.2697 47.9405ZM35.8101 65.9311C35.8101 66.6411 35.8101 67.3286 35.8101 68.0184C35.8101 70.6477 36.0703 71.0374 38.5313 72.0631C38.6861 72.128 38.8431 72.1885 39.0001 72.2423C42.7801 73.5815 46.6611 73.698 50.5824 73.1381C52.5565 72.8559 54.4813 72.3609 56.1638 71.23C56.6012 70.9366 57.1621 70.4595 57.2069 70.0206C57.3438 68.6836 57.2563 67.3219 57.2563 65.9759C50.0642 68.8112 42.9798 68.8179 35.8101 65.9311ZM35.8101 56.9705C35.8101 57.6021 35.8101 58.162 35.8101 58.7196C35.8101 61.7834 36.1107 62.2179 38.9956 63.2929C39.1796 63.3623 39.3635 63.425 39.5497 63.4832C43.3993 64.6635 47.3229 64.8471 51.2419 64.0387C52.9132 63.6938 54.5149 62.9681 56.101 62.3052C56.5631 62.1126 57.1486 61.5684 57.1935 61.1362C57.3348 59.77 57.2451 58.3792 57.2451 57.0243C50.0956 59.8574 43.0067 59.8686 35.8101 56.9705ZM82.3411 65.9669C75.2141 68.8179 68.105 68.8202 60.9443 65.9602C60.9443 66.8023 61.0542 67.6309 60.9219 68.417C60.6101 70.2759 61.5881 71.2277 63.1226 71.8593C63.4322 71.9869 63.7395 72.1236 64.0536 72.2355C67.8313 73.5793 71.7123 73.698 75.6336 73.1448C77.5785 72.8716 79.4854 72.3878 81.1454 71.2859C81.639 70.959 82.22 70.3879 82.2873 69.8683C82.4533 68.5895 82.3411 67.2726 82.3411 65.9669ZM82.4017 74.9029C75.1894 77.7807 68.1005 77.7673 60.9443 74.932C60.9443 76.1055 60.9824 77.25 60.9308 78.3899C60.8994 79.0887 61.1283 79.6329 61.7025 79.9464C62.7008 80.4929 63.7036 81.0908 64.7781 81.429C68.4751 82.5914 72.2596 82.6765 76.0621 82.0359C77.9464 81.7179 79.7972 81.2409 81.3653 80.0942C81.8162 79.7628 82.294 79.1782 82.3546 78.6587C82.5004 77.4493 82.4017 76.2086 82.4017 74.9029Z" fill="#20F1C0"/>
<path d="M45.674 0C47.2758 0.219479 48.891 0.369531 50.477 0.667396C62.4541 2.92042 71.8895 9.11958 78.7316 19.1798C83.5122 26.2098 85.8542 34.0551 85.9507 42.5543C85.9574 43.1008 85.7779 43.7346 85.4706 44.1803C85.0399 44.8051 84.3085 44.935 83.5817 44.6663C82.8235 44.3863 82.478 43.8063 82.4017 42.9978C82.1684 40.467 82.1011 37.8982 81.6053 35.4168C79.4562 24.6309 73.7201 16.1631 64.5853 10.0781C57.0118 5.03234 48.5814 2.78604 39.5498 3.7737C23.8017 5.49818 12.5514 13.7622 6.46974 28.3845C0.0740296 43.757 4.30045 61.1473 16.6858 72.2937C18.6061 74.0227 20.8472 75.3956 22.9425 76.9297C23.1444 77.0775 23.3777 77.1828 23.584 77.3283C24.4073 77.9106 24.6451 78.9543 24.1516 79.7695C23.6536 80.5892 22.597 80.9229 21.7378 80.3585C19.6605 78.9946 17.5181 77.6912 15.6158 76.1055C7.38277 69.2457 2.40484 60.4688 0.563074 49.9181C0.318552 48.5183 0.183952 47.0984 0 45.6875C0 43.8958 0 42.1042 0 40.3125C0.127869 39.2621 0.237792 38.2095 0.390338 37.1614C1.74306 27.7887 5.69355 19.6792 12.3271 12.9224C18.7631 6.3649 26.5228 2.25526 35.5836 0.660677C37.1472 0.385208 38.7287 0.21724 40.3013 0C42.0915 0 43.8839 0 45.674 0Z" fill="#20F1C0"/>
<path d="M14.2855 42.364C14.5322 51.5888 17.6819 58.7443 24.0058 64.4597C24.192 64.6277 24.3872 64.7912 24.5621 64.9703C25.2979 65.7295 25.3518 66.7284 24.7012 67.4607C24.0394 68.2088 22.9604 68.2804 22.1461 67.5906C19.8242 65.6288 17.8008 63.3869 16.1407 60.8405C5.37724 44.3348 11.2974 22.6982 28.9546 13.9661C45.4766 5.79606 66.086 13.7466 72.8721 30.8951C74.3818 34.7091 75.1894 38.653 75.2231 42.7537C75.2365 44.2295 74.0633 45.1478 72.8048 44.6573C71.9703 44.3326 71.6652 43.6607 71.6517 42.7962C71.5979 39.6138 71.1627 36.4806 70.0118 33.5064C65.8505 22.7631 58.129 16.1832 46.6791 14.6447C31.5119 12.6044 17.8905 22.5549 14.8844 37.5153C14.5143 39.345 14.4201 41.2285 14.2855 42.364Z" fill="#20F1C0"/>
</g>
<defs>
<clipPath id="clip0_54_3161">
<rect width="86" height="86" fill="white"/>
</clipPath>
</defs>
</svg>
