<svg width="15" height="13" viewBox="0 0 15 13" fill="none" xmlns="http://www.w3.org/2000/svg">
    <path fill-rule="evenodd" clip-rule="evenodd" d="M10.3421 8.18573L14.2261 11.6C14.3626 11.7201 14.4393 11.8829 14.4392 12.0527C14.4391 12.2225 14.3623 12.3853 14.2257 12.5053C14.0891 12.6253 13.9039 12.6926 13.7107 12.6926C13.5176 12.6925 13.3324 12.625 13.1959 12.5049L9.31189 9.09073C8.15089 9.88123 6.69079 10.2532 5.22879 10.1311C3.76679 10.0089 2.41269 9.40173 1.44189 8.43303C0.471086 7.46433 -0.0435143 6.20693 0.00288574 4.91663C0.0492857 3.62623 0.653086 2.39993 1.69159 1.48703C2.72999 0.574126 4.12509 0.0433265 5.59299 0.00252651C7.06079 -0.0381735 8.49119 0.414127 9.59319 1.26753C10.6952 2.12093 11.3859 3.31133 11.5249 4.59643C11.6639 5.88163 11.2414 7.16513 10.3421 8.18573ZM5.77599 8.88453C6.92469 8.88453 8.02649 8.48333 8.83879 7.76923C9.65109 7.05513 10.1075 6.08663 10.1075 5.07683C10.1075 4.06693 9.65109 3.09843 8.83879 2.38433C8.02649 1.67023 6.92469 1.26913 5.77599 1.26913C4.62719 1.26913 3.52539 1.67023 2.71309 2.38433C1.90079 3.09843 1.44439 4.06693 1.44439 5.07683C1.44439 6.08663 1.90079 7.05513 2.71309 7.76923C3.52539 8.48333 4.62719 8.88453 5.77599 8.88453Z" fill="#16202C"/>
</svg>

