<svg width="34" height="20" viewBox="0 0 34 20" fill="none" xmlns="http://www.w3.org/2000/svg">
<path d="M32.178 11.3666H2.36109C1.92176 11.3666 1.50042 11.1983 1.18977 10.8987C0.879113 10.5991 0.70459 10.1927 0.70459 9.76905C0.70459 9.34536 0.879113 8.93902 1.18977 8.63942C1.50042 8.33983 1.92176 8.17151 2.36109 8.17151H32.178C32.6173 8.17151 33.0387 8.33983 33.3493 8.63942C33.66 8.93902 33.8345 9.34536 33.8345 9.76905C33.8345 10.1927 33.66 10.5991 33.3493 10.8987C33.0387 11.1983 32.6173 11.3666 32.178 11.3666ZM32.178 19.3543H2.36109C1.92176 19.3543 1.50042 19.186 1.18977 18.8864C0.879113 18.5868 0.70459 18.1804 0.70459 17.7567C0.70459 17.333 0.879113 16.9267 1.18977 16.6271C1.50042 16.3275 1.92176 16.1592 2.36109 16.1592H32.178C32.6173 16.1592 33.0387 16.3275 33.3493 16.6271C33.66 16.9267 33.8345 17.333 33.8345 17.7567C33.8345 18.1804 33.66 18.5868 33.3493 18.8864C33.0387 19.186 32.6173 19.3543 32.178 19.3543ZM32.178 3.37891H11.5638C11.1245 3.37891 10.7032 3.2106 10.3925 2.911C10.0819 2.6114 9.90735 2.20507 9.90735 1.78137C9.90735 1.35768 10.0819 0.951341 10.3925 0.651745C10.7032 0.352149 11.1245 0.183838 11.5638 0.183838H32.178C32.6173 0.183838 33.0387 0.352149 33.3493 0.651745C33.66 0.951341 33.8345 1.35768 33.8345 1.78137C33.8345 2.20507 33.66 2.6114 33.3493 2.911C33.0387 3.2106 32.6173 3.37891 32.178 3.37891Z" fill="white"/>
</svg>
