<svg width="34" height="34" viewBox="0 0 34 34" fill="none" xmlns="http://www.w3.org/2000/svg">
    <path d="M32.9947 11.2713C32.9947 11.2713 32.9947 11.2713 32.9947 11.186C31.7945 7.90605 29.6168 5.07419 26.7561 3.07354C23.8954 1.07289 20.4898 0 17 0C13.5102 0 10.1046 1.07289 7.24391 3.07354C4.38321 5.07419 2.20546 7.90605 1.00526 11.186C1.00526 11.186 1.00526 11.186 1.00526 11.2713C-0.335087 14.9726 -0.335087 19.0274 1.00526 22.7287C1.00526 22.7287 1.00526 22.7287 1.00526 22.814C2.20546 26.0939 4.38321 28.9258 7.24391 30.9265C10.1046 32.9271 13.5102 34 17 34C20.4898 34 23.8954 32.9271 26.7561 30.9265C29.6168 28.9258 31.7945 26.0939 32.9947 22.814C32.9947 22.814 32.9947 22.814 32.9947 22.7287C34.3351 19.0274 34.3351 14.9726 32.9947 11.2713ZM3.78177 20.4099C3.19109 18.1751 3.19109 15.8249 3.78177 13.5901H6.95006C6.67757 15.8552 6.67757 18.1448 6.95006 20.4099H3.78177ZM5.17854 23.8199H7.56327C7.96309 25.3405 8.53456 26.8105 9.26665 28.2017C7.59615 27.0626 6.19971 25.5659 5.17854 23.8199ZM7.56327 10.1801H5.17854C6.18502 8.43947 7.5636 6.94315 9.21555 5.79832C8.50108 7.1917 7.94678 8.66169 7.56327 10.1801ZM15.2626 30.1283C13.1704 28.5916 11.701 26.3522 11.1233 23.8199H15.2626V30.1283ZM15.2626 20.4099H10.3909C10.073 18.1478 10.073 15.8522 10.3909 13.5901H15.2626V20.4099ZM15.2626 10.1801H11.1233C11.701 7.64782 13.1704 5.40843 15.2626 3.8717V10.1801ZM28.7533 10.1801H26.3686C25.9688 8.65954 25.3973 7.18948 24.6652 5.79832C26.3357 6.93736 27.7322 8.43411 28.7533 10.1801ZM18.6693 3.8717C20.7615 5.40843 22.2308 7.64782 22.8085 10.1801H18.6693V3.8717ZM18.6693 30.1283V23.8199H22.8085C22.2308 26.3522 20.7615 28.5916 18.6693 30.1283ZM23.541 20.4099H18.6693V13.5901H23.541C23.8588 15.8522 23.8588 18.1478 23.541 20.4099ZM24.7163 28.2017C25.4484 26.8105 26.0199 25.3405 26.4197 23.8199H28.8044C27.7833 25.5659 26.3868 27.0626 24.7163 28.2017ZM30.1501 20.4099H26.9818C27.1203 19.2786 27.1886 18.1398 27.1862 17C27.1881 15.8602 27.1198 14.7214 26.9818 13.5901H30.1501C30.7408 15.8249 30.7408 18.1751 30.1501 20.4099Z" fill="#C5C7CA"/>
</svg>
