<svg width="22" height="22" viewBox="0 0 22 22" fill="none" xmlns="http://www.w3.org/2000/svg">
    <path d="M21.3495 7.29319C21.3495 7.29319 21.3495 7.29319 21.3495 7.23803C20.5729 5.11568 19.1638 3.2833 17.3128 1.98876C15.4617 0.694224 13.2581 0 11 0C8.74189 0 6.53827 0.694224 4.68723 1.98876C2.83619 3.2833 1.42706 5.11568 0.650463 7.23803C0.650463 7.23803 0.650463 7.23803 0.650463 7.29319C-0.216821 9.68816 -0.216821 12.3118 0.650463 14.7068C0.650463 14.7068 0.650463 14.7068 0.650463 14.762C1.42706 16.8843 2.83619 18.7167 4.68723 20.0112C6.53827 21.3058 8.74189 22 11 22C13.2581 22 15.4617 21.3058 17.3128 20.0112C19.1638 18.7167 20.5729 16.8843 21.3495 14.762C21.3495 14.762 21.3495 14.762 21.3495 14.7068C22.2168 12.3118 22.2168 9.68816 21.3495 7.29319ZM2.44703 13.2064C2.06482 11.7604 2.06482 10.2396 2.44703 8.79356H4.4971C4.32078 10.2592 4.32078 11.7408 4.4971 13.2064H2.44703ZM3.35082 15.4129H4.89388C5.15259 16.3968 5.52236 17.348 5.99607 18.2481C4.91515 17.5111 4.01158 16.5426 3.35082 15.4129ZM4.89388 6.58713H3.35082C4.00207 5.46083 4.89409 4.49263 5.963 3.75186C5.5007 4.65345 5.14203 5.60462 4.89388 6.58713ZM9.87577 19.4948C8.52202 18.5004 7.57126 17.0514 7.19745 15.4129H9.87577V19.4948ZM9.87577 13.2064H6.72351C6.51783 11.7427 6.51783 10.2573 6.72351 8.79356H9.87577V13.2064ZM9.87577 6.58713H7.19745C7.57126 4.94859 8.52202 3.49957 9.87577 2.50522V6.58713ZM18.6051 6.58713H17.062C16.8033 5.60323 16.4335 4.65201 15.9598 3.75186C17.0408 4.48888 17.9443 5.45737 18.6051 6.58713ZM12.0801 2.50522C13.4339 3.49957 14.3847 4.94859 14.7585 6.58713H12.0801V2.50522ZM12.0801 19.4948V15.4129H14.7585C14.3847 17.0514 13.4339 18.5004 12.0801 19.4948ZM15.2324 13.2064H12.0801V8.79356H15.2324C15.4381 10.2573 15.4381 11.7427 15.2324 13.2064ZM15.9929 18.2481C16.4666 17.348 16.8364 16.3968 17.0951 15.4129H18.6382C17.9774 16.5426 17.0738 17.5111 15.9929 18.2481ZM19.5089 13.2064H17.4588C17.5485 12.4744 17.5926 11.7375 17.5911 11C17.5923 10.2625 17.5481 9.52563 17.4588 8.79356H19.5089C19.8911 10.2396 19.8911 11.7604 19.5089 13.2064Z" fill="white"/>
</svg>
