<svg width="18" height="13" viewBox="0 0 18 13" fill="none" xmlns="http://www.w3.org/2000/svg">
    <path fill-rule="evenodd" clip-rule="evenodd" d="M5.53846 6.5C5.53846 4.50564 7.08824 2.88889 9 2.88889C10.9118 2.88889 12.4615 4.50564 12.4615 6.5C12.4615 8.49436 10.9118 10.1111 9 10.1111C7.08824 10.1111 5.53846 8.49436 5.53846 6.5ZM9 4.33333C7.85295 4.33333 6.92308 5.30338 6.92308 6.5C6.92308 7.69662 7.85295 8.66667 9 8.66667C10.1471 8.66667 11.0769 7.69662 11.0769 6.5C11.0769 5.30338 10.1471 4.33333 9 4.33333Z" fill="#C0C9D3"/>
    <path fill-rule="evenodd" clip-rule="evenodd" d="M1.91393 5.19649C1.52705 5.77805 1.38462 6.23297 1.38462 6.5C1.38462 6.76703 1.52705 7.22195 1.91393 7.80351C2.28791 8.36569 2.84379 8.97509 3.54708 9.53818C4.95672 10.6668 6.88934 11.5556 9 11.5556C11.1107 11.5556 13.0433 10.6668 14.4529 9.53818C15.1562 8.97509 15.7121 8.36569 16.0861 7.80351C16.4729 7.22195 16.6154 6.76703 16.6154 6.5C16.6154 6.23297 16.4729 5.77805 16.0861 5.19649C15.7121 4.63431 15.1562 4.02491 14.4529 3.46182C13.0433 2.33318 11.1107 1.44444 9 1.44444C6.88934 1.44444 4.95672 2.33318 3.54708 3.46182C2.84379 4.02491 2.28791 4.63431 1.91393 5.19649ZM2.70407 2.31596C4.30122 1.03719 6.52245 0 9 0C11.4776 0 13.6988 1.03719 15.2959 2.31596C16.096 2.95657 16.7568 3.67124 17.2236 4.37296C17.6775 5.05528 18 5.80407 18 6.5C18 7.19593 17.6775 7.94472 17.2236 8.62704C16.7568 9.32876 16.096 10.0434 15.2959 10.684C13.6988 11.9628 11.4776 13 9 13C6.52245 13 4.30122 11.9628 2.70407 10.684C1.90396 10.0434 1.24321 9.32876 0.776403 8.62704C0.322496 7.94472 0 7.19593 0 6.5C0 5.80407 0.322496 5.05528 0.776403 4.37296C1.24321 3.67124 1.90396 2.95657 2.70407 2.31596Z" fill="#C0C9D3"/>
</svg>
