<svg width="507" height="970" viewBox="0 0 507 970" fill="none" xmlns="http://www.w3.org/2000/svg">
    <path d="M496.166 1026H11.8339C5.8378 1026 0.988281 1010.9 0.988281 992.293V36.7067C0.988281 18.0717 5.8463 3 11.8339 3H496.166C502.162 3 507.012 18.0981 507.012 36.7067V992.267C507.02 1010.9 502.162 1026 496.166 1026Z" fill="url(#paint0_linear_122_711)"/>
    <path d="M355.798 1028H497.154C503.15 1028 508 1012.9 508 994.295V555L355.798 1028Z" fill="url(#paint1_linear_122_711)"/>
    <path d="M496.299 1028H11.7013C5.24307 1028 0 1011.69 0 991.664V36.3364C0 16.2814 5.25157 0 11.7013 0H496.299C502.757 0 508 16.3078 508 36.3364V991.637C508.009 1011.69 502.757 1028 496.299 1028ZM11.7013 2.61242C5.71894 2.61242 0.849768 17.7328 0.849768 36.31V991.611C0.849768 1010.19 5.71894 1025.31 11.7013 1025.31H496.299C502.281 1025.31 507.15 1010.19 507.15 991.611V36.3364C507.15 17.7592 502.281 2.63881 496.299 2.63881H11.7013V2.61242Z" fill="url(#paint2_linear_122_711)"/>
    <path d="M153.137 2.60254H11.7012C5.70179 2.60254 0.849609 17.6378 0.849609 36.169V473.637L153.137 2.60254Z" fill="url(#paint3_linear_122_711)"/>
    <defs>
        <linearGradient id="paint0_linear_122_711" x1="5.76952" y1="15.4105" x2="677.77" y2="155.288" gradientUnits="userSpaceOnUse">
            <stop stop-color="#1C2938"/>
            <stop offset="0.9958" stop-color="#121A24"/>
        </linearGradient>
        <linearGradient id="paint1_linear_122_711" x1="435.272" y1="804.185" x2="674.265" y2="897.443" gradientUnits="userSpaceOnUse">
            <stop stop-color="#121A24" stop-opacity="0"/>
            <stop offset="0.1382" stop-color="#0F344D" stop-opacity="0.1382"/>
            <stop offset="0.3664" stop-color="#095C8C" stop-opacity="0.3664"/>
            <stop offset="0.575" stop-color="#057BBE" stop-opacity="0.575"/>
            <stop offset="0.7567" stop-color="#0292E1" stop-opacity="0.7567"/>
            <stop offset="0.9046" stop-color="#01A0F7" stop-opacity="0.9046"/>
            <stop offset="1" stop-color="#00A5FF"/>
        </linearGradient>
        <linearGradient id="paint2_linear_122_711" x1="4.24264" y1="14.0073" x2="688.027" y2="155.956" gradientUnits="userSpaceOnUse">
            <stop stop-color="#2DD7A2"/>
            <stop offset="0.0391" stop-color="#28B188" stop-opacity="0.9217"/>
            <stop offset="0.087" stop-color="#22896E" stop-opacity="0.8256"/>
            <stop offset="0.1381" stop-color="#1D6657" stop-opacity="0.723"/>
            <stop offset="0.1922" stop-color="#194B44" stop-opacity="0.6144"/>
            <stop offset="0.2503" stop-color="#163536" stop-opacity="0.4979"/>
            <stop offset="0.3143" stop-color="#14262C" stop-opacity="0.3695"/>
            <stop offset="0.3888" stop-color="#121D26" stop-opacity="0.2202"/>
            <stop offset="0.4986" stop-color="#121A24" stop-opacity="0"/>
            <stop offset="0.5949" stop-color="#121C27" stop-opacity="0.1922"/>
            <stop offset="0.6654" stop-color="#112230" stop-opacity="0.3328"/>
            <stop offset="0.7277" stop-color="#102C40" stop-opacity="0.4569"/>
            <stop offset="0.7851" stop-color="#0E3A57" stop-opacity="0.5715"/>
            <stop offset="0.8394" stop-color="#0B4D74" stop-opacity="0.6797"/>
            <stop offset="0.8911" stop-color="#096398" stop-opacity="0.7829"/>
            <stop offset="0.941" stop-color="#057EC2" stop-opacity="0.8823"/>
            <stop offset="0.9881" stop-color="#019DF2" stop-opacity="0.9763"/>
            <stop offset="1" stop-color="#00A5FF"/>
        </linearGradient>
        <linearGradient id="paint3_linear_122_711" x1="73.6222" y1="225.499" x2="-165.198" y2="131.878" gradientUnits="userSpaceOnUse">
            <stop stop-color="#121A24" stop-opacity="0"/>
            <stop offset="0.0434" stop-color="#14252C" stop-opacity="0.0434"/>
            <stop offset="0.2969" stop-color="#1D6455" stop-opacity="0.2969"/>
            <stop offset="0.5284" stop-color="#249676" stop-opacity="0.5284"/>
            <stop offset="0.73" stop-color="#29B98E" stop-opacity="0.73"/>
            <stop offset="0.894" stop-color="#2CCF9D" stop-opacity="0.894"/>
            <stop offset="1" stop-color="#2DD7A2"/>
        </linearGradient>
    </defs>
</svg>

