<svg width="1098" height="81" viewBox="0 0 1098 81" fill="none" xmlns="http://www.w3.org/2000/svg">
    <line opacity="0.8" x1="0.5" y1="18" x2="0.500002" y2="53" stroke="white"/>
    <path d="M121.893 47.1924C116.951 67.5497 96.8724 79.9388 77.0462 74.8623C57.2283 69.7872 45.1639 49.1672 50.1082 28.8115C55.0482 8.45192 75.1266 -3.93808 94.9467 1.13709C114.771 6.21227 126.835 26.8345 121.892 47.1928L121.893 47.1924Z" fill="#F7931A"/>
    <path fill-rule="evenodd" clip-rule="evenodd" d="M102.317 32.5859C103.054 27.529 99.3046 24.8107 94.1779 22.9973L95.8411 16.1472L91.7805 15.1081L90.1615 21.7779C89.094 21.5045 87.9977 21.2468 86.9081 20.9915L88.5389 14.2777L84.4808 13.2386L82.8168 20.0865C81.9334 19.88 81.0657 19.6759 80.2239 19.4608L80.2286 19.4392L74.629 18.0033L73.5488 22.4569C73.5488 22.4569 76.5614 23.1661 76.498 23.2098C78.1423 23.6312 78.4396 24.749 78.3903 25.635L76.4958 33.4389C76.609 33.4684 76.7559 33.5111 76.9179 33.578L76.8 33.5478C76.6998 33.522 76.5957 33.4952 76.4887 33.4689L73.8333 44.4011C73.6324 44.9141 73.1223 45.684 71.9727 45.3916C72.0134 45.4522 69.0214 44.6353 69.0214 44.6353L67.0054 49.4085L72.2896 50.7612C72.8682 50.9102 73.4401 51.0633 74.0061 51.2148L74.007 51.2151C74.4022 51.3209 74.7947 51.4259 75.1846 51.5283L73.5043 58.457L77.5602 59.496L79.2243 52.6409C80.3323 52.9498 81.4076 53.2347 82.4603 53.5033L80.8018 60.3261L84.8626 61.3651L86.5427 54.4495C93.4669 55.7952 98.6734 55.2526 100.865 48.8211C102.631 43.6431 100.777 40.6564 97.1341 38.7087C99.7874 38.0803 101.786 36.2883 102.319 32.5865L102.317 32.5859ZM93.0397 45.9455C91.8884 50.6962 84.6471 48.7322 81.3339 47.8335C81.0359 47.7527 80.7696 47.6805 80.5425 47.6226L82.7723 38.4433C83.0491 38.5142 83.3873 38.5922 83.7705 38.6805C87.1975 39.4703 94.2191 41.0885 93.0397 45.9455ZM84.4581 34.4203C87.2203 35.1773 93.2461 36.8287 94.2955 32.5109C95.3671 28.0949 89.5115 26.7635 86.6514 26.1132C86.3296 26.04 86.0458 25.9755 85.814 25.9162L83.7924 34.2413C83.9833 34.2901 84.2072 34.3515 84.4581 34.4203Z" fill="white"/>
    <path d="M217 38C217 58.9868 200.211 76 179.5 76C158.789 76 142 58.9868 142 38C142 17.0132 158.789 0 179.5 0C200.211 0 217 17.0132 217 38Z" fill="#EDF0F4"/>
    <path d="M179.398 15.2L179.099 16.2268V46.0199L179.398 46.3215L193.045 38.1468L179.398 15.2Z" fill="#343434"/>
    <path d="M179.398 15.2L165.75 38.1468L179.398 46.3215V31.8607V15.2Z" fill="#8C8C8C"/>
    <path d="M179.398 48.9398L179.23 49.1476V59.7603L179.398 60.2577L193.053 40.7694L179.398 48.9398Z" fill="#3C3C3B"/>
    <path d="M179.398 60.2577V48.9398L165.75 40.7694L179.398 60.2577Z" fill="#8C8C8C"/>
    <path d="M179.398 46.3215L193.045 38.1468L179.398 31.8607V46.3215Z" fill="#141414"/>
    <path d="M165.75 38.1468L179.398 46.3215V31.8607L165.75 38.1468Z" fill="#393939"/>
    <path d="M310.878 47.1924C305.869 67.5497 285.519 79.9388 265.425 74.8623C245.339 69.7872 233.112 49.1672 238.123 28.8115C243.13 8.45192 263.48 -3.93808 283.568 1.13709C303.66 6.21227 315.887 26.8345 310.877 47.1928L310.878 47.1924Z" fill="#50AF95"/>
    <path fill-rule="evenodd" clip-rule="evenodd" d="M279.25 42.3081C278.985 42.3282 277.615 42.4111 274.558 42.4111C272.127 42.4111 270.402 42.3372 269.796 42.3081C260.402 41.8894 253.39 40.2324 253.39 38.2485C253.39 36.2647 260.402 34.61 269.796 34.1845V40.6578C270.41 40.7026 272.169 40.8079 274.6 40.8079C277.517 40.8079 278.978 40.6847 279.241 40.6601V34.189C288.616 34.6122 295.612 36.2692 295.612 38.2485C295.612 40.2279 288.618 41.8849 279.241 42.3058L279.25 42.3081ZM279.25 33.5195V27.7269H292.333V18.8936H256.713V27.7269H269.794V33.5173C259.162 34.0121 251.167 36.146 251.167 38.7031C251.167 41.2602 259.162 43.3918 269.794 43.8889V62.4512H279.248V43.8822C289.855 43.3873 297.838 41.2557 297.838 38.7008C297.838 36.146 289.862 34.0144 279.248 33.5173L279.25 33.5195Z" fill="white"/>
    <path d="M406.818 49.0552C401.542 70.2162 380.107 83.0943 358.941 77.8174C337.784 72.5419 324.905 51.108 330.183 29.9488C335.457 8.78555 356.892 -4.09354 378.051 1.18198C399.215 6.45749 412.094 27.8937 406.818 49.0556L406.818 49.0552Z" fill="#F3BA2F"/>
    <path fill-rule="evenodd" clip-rule="evenodd" d="M368.504 25.0693L358.275 35.2976L352.323 29.3459L368.504 13.1667L384.691 29.3507L378.739 35.302L368.504 25.0693ZM348.12 33.5476L342.168 39.5L348.12 45.4503L354.072 39.4987L348.12 33.5476ZM358.275 43.703L368.504 53.9307L378.739 43.6982L384.694 49.6463L384.691 49.6495L368.504 65.8333L352.315 49.6457L358.275 43.703ZM388.889 33.551L382.937 39.5025L388.889 45.4537L394.841 39.5021L388.889 33.551Z" fill="white"/>
    <path d="M374.541 39.4968H374.544L368.504 33.4579L362.47 39.4907L362.462 39.4989L362.47 39.5076L368.504 45.5421L374.544 39.5032L374.547 39.4998L374.541 39.4968Z" fill="white"/>
    <path d="M705 39.5C705 60.763 687.763 78 666.5 78C645.237 78 628 60.763 628 39.5C628 18.237 645.237 1 666.5 1C687.763 1 705 18.237 705 39.5Z" fill="#EDF0F4"/>
    <path d="M666.591 14.3483L673.176 21.0918L656.595 37.673L650.01 31.0881L666.591 14.3483Z" fill="#F0B90B"/>
    <path d="M676.587 24.3446L683.172 31.0881L656.595 57.6656L650.01 51.0807L676.587 24.3446Z" fill="#F0B90B"/>
    <path d="M646.598 34.3409L653.183 41.0844L646.598 47.6693L640.013 41.0844L646.598 34.3409Z" fill="#F0B90B"/>
    <path d="M686.584 34.3409L693.168 41.0844L666.591 67.6619L660.006 61.077L686.584 34.3409Z" fill="#F0B90B"/>
    <path d="M705 39.5C705 60.763 687.763 78 666.5 78C645.237 78 628 60.763 628 39.5C628 18.237 645.237 1 666.5 1C687.763 1 705 18.237 705 39.5Z" stroke="#F0B90B"/>
    <path d="M666.591 14.3483L673.176 21.0918L656.595 37.673L650.01 31.0881L666.591 14.3483Z" stroke="#F0B90B"/>
    <path d="M676.587 24.3446L683.172 31.0881L656.595 57.6656L650.01 51.0807L676.587 24.3446Z" stroke="#F0B90B"/>
    <path d="M646.598 34.3409L653.183 41.0844L646.598 47.6693L640.013 41.0844L646.598 34.3409Z" stroke="#F0B90B"/>
    <path d="M686.584 34.3409L693.168 41.0844L666.591 67.6619L660.006 61.077L686.584 34.3409Z" stroke="#F0B90B"/>
    <path d="M804 41C804 63.0914 785.868 81 763.5 81C741.132 81 723 63.0914 723 41C723 18.9086 741.132 1 763.5 1C785.868 1 804 18.9086 804 41Z" fill="#EDF0F4"/>
    <path d="M775.652 32.9664C774.788 32.4758 773.678 32.4758 772.691 32.9664L765.782 37.0138L761.094 39.5895L754.309 43.637C753.445 44.1276 752.335 44.1276 751.348 43.637L746.043 40.4481C745.18 39.9575 744.563 38.9763 744.563 37.8724V31.7399C744.563 30.7587 745.056 29.7775 746.043 29.1642L751.348 26.0979C752.212 25.6073 753.322 25.6073 754.309 26.0979L759.614 29.2868C760.477 29.7774 761.094 30.7587 761.094 31.8625V35.91L765.782 33.2117V29.0415C765.782 28.0603 765.289 27.0791 764.302 26.4659L754.432 20.7013C753.569 20.2107 752.459 20.2107 751.472 20.7013L741.355 26.5885C740.368 27.0791 739.875 28.0603 739.875 29.0415V40.5707C739.875 41.5519 740.368 42.5331 741.355 43.1464L751.348 48.911C752.212 49.4016 753.322 49.4016 754.309 48.911L761.094 44.9862L765.782 42.2878L772.568 38.363C773.431 37.8724 774.541 37.8724 775.528 38.363L780.833 41.4293C781.697 41.9199 782.314 42.9011 782.314 44.0049V50.1375C782.314 51.1187 781.82 52.0999 780.833 52.7132L775.652 55.7794C774.788 56.27 773.678 56.27 772.691 55.7794L767.386 52.7132C766.523 52.2226 765.906 51.2413 765.906 50.1375V46.2127L761.218 48.911V52.9585C761.218 53.9397 761.711 54.9209 762.698 55.5341L772.691 61.2987C773.555 61.7893 774.665 61.7893 775.652 61.2987L785.645 55.5341C786.508 55.0435 787.125 54.0623 787.125 52.9585V41.3066C787.125 40.3254 786.632 39.3442 785.645 38.731L775.652 32.9664Z" fill="#8247E5"/>
    <path d="M1098 41C1098 63.0914 1080.09 81 1058 81C1035.91 81 1018 63.0914 1018 41C1018 18.9086 1035.91 1 1058 1C1080.09 1 1098 18.9086 1098 41Z" fill="url(#paint0_linear_0_1)"/>
    <path fill-rule="evenodd" clip-rule="evenodd" d="M1038.31 34.1733V53H1034.67V31.1333C1034.67 30.3289 1035.13 29.5949 1035.85 29.2352C1036.57 28.8754 1037.43 28.951 1038.07 29.4307L1055.39 42.4667C1055.92 42.8673 1056.23 43.4941 1056.23 44.16V53H1052.59V44.9187L1038.31 34.1733ZM1077.8 34.1733V53H1081.44V31.1333C1081.44 30.3298 1080.98 29.5977 1080.26 29.2393C1079.54 28.8808 1078.68 28.9569 1078.04 29.436L1060.72 42.4667C1060.19 42.8673 1059.88 43.4941 1059.88 44.16V53H1063.52V44.9187L1077.8 34.1733Z" fill="white"/>
    <path d="M901 39.5C901 60.763 883.539 78 862 78C840.461 78 823 60.763 823 39.5C823 18.237 840.461 1 862 1C883.539 1 901 18.237 901 39.5Z" fill="#EDF0F4"/>
    <path fill-rule="evenodd" clip-rule="evenodd" d="M875.795 18.0926L887.742 38.5283H887.747C888.084 39.1887 888.084 39.9682 887.747 40.6286L875.795 61.0643C875.385 61.6837 874.701 62.0737 873.952 62.1152H868.488L876.428 48.5399C876.652 48.1033 876.652 47.5874 876.428 47.1508L867.41 31.73C867.138 31.32 866.685 31.062 866.19 31.0355H848.154C847.659 31.062 847.206 31.32 846.934 31.73L838.992 45.3114L836.253 40.6286C835.916 39.9682 835.916 39.1887 836.253 38.5283L848.205 18.0926C848.615 17.4732 849.299 17.0831 850.048 17.0417H873.952C874.701 17.0831 875.385 17.4732 875.795 18.0926ZM873.609 47.3374L865.821 34.0259C865.629 33.7406 865.313 33.5604 864.967 33.5392H849.391C849.044 33.5604 848.728 33.7406 848.536 34.0259L840.748 47.3434C840.593 47.6499 840.593 48.0105 840.748 48.317L843.031 52.2234L847.025 45.3993C847.244 45.0668 847.611 44.8573 848.013 44.8352H858.274C858.676 44.8573 859.042 45.0668 859.262 45.3993L864.394 54.1735C864.575 54.5278 864.575 54.946 864.394 55.3003L860.4 62.1243H864.962C865.309 62.1031 865.625 61.9223 865.817 61.636L873.605 48.32C873.765 48.0118 873.766 47.647 873.609 47.3374ZM848.222 61.0901L844.701 55.0698C844.59 54.8474 844.59 54.587 844.701 54.3646L848.61 47.6816C848.75 47.4724 848.981 47.3404 849.234 47.3252H857.051C857.305 47.3404 857.536 47.4724 857.677 47.6816L861.586 54.3646C861.698 54.5893 861.698 54.8526 861.586 55.0773L857.677 61.7603C857.537 61.9649 857.311 62.0956 857.062 62.1152H850.034C849.302 62.0689 848.632 61.6904 848.222 61.0901Z" fill="url(#paint1_linear_0_1)"/>
    <path d="M999 42.5C999 63.763 981.315 81 959.5 81C937.685 81 920 63.763 920 42.5C920 21.237 937.685 4 959.5 4C981.315 4 999 21.237 999 42.5Z" fill="#EDF0F4"/>
    <path fill-rule="evenodd" clip-rule="evenodd" d="M940.744 27.7417H951.488C951.546 27.7407 951.602 27.7539 951.653 27.7802C951.701 27.8063 951.742 27.8438 951.771 27.8893L964.853 48.2751C964.924 48.3801 964.924 48.5165 964.853 48.6216L959.5 56.944C959.471 56.9894 959.43 57.027 959.382 57.0531C959.281 57.1067 959.16 57.1067 959.059 57.0531C959.011 57.027 958.97 56.9894 958.941 56.944L940.461 28.2358C940.429 28.1879 940.411 28.1325 940.409 28.0754C940.406 28.0173 940.42 27.9597 940.448 27.9086C940.478 27.8576 940.521 27.8154 940.573 27.7866C940.625 27.7567 940.684 27.7412 940.744 27.7417ZM963.266 27.7417H977.657C977.717 27.7412 977.777 27.7567 977.828 27.7866C977.873 27.818 977.91 27.8599 977.934 27.9086C977.962 27.9598 977.975 28.0173 977.973 28.0754C977.975 28.1313 977.961 28.1866 977.934 28.2358L970.745 39.4265C970.715 39.4719 970.674 39.5095 970.626 39.5356C970.526 39.5892 970.404 39.5892 970.304 39.5356C970.255 39.5095 970.215 39.4719 970.185 39.4265L962.989 28.2358C962.958 28.1879 962.939 28.1325 962.937 28.0754C962.934 28.0173 962.948 27.9597 962.976 27.9086C963.006 27.8576 963.049 27.8154 963.101 27.7866C963.151 27.7578 963.208 27.7423 963.266 27.7417Z" fill="#FF8836"/>
    <g opacity="0.5">
        <path d="M607 39C607 60.5391 589.315 78 567.5 78C545.685 78 528 60.5391 528 39C528 17.4609 545.685 0 567.5 0C589.315 0 607 17.4609 607 39Z" fill="#EDF0F4"/>
        <path d="M581.349 19.5H552.989C549.021 19.5 545.775 22.7942 545.775 26.8898V51.4631C545.775 53.5999 548.345 54.6238 549.743 53.0212C551.456 51.0624 554.432 51.1069 556.1 53.0657L558.309 55.6031C559.211 56.627 560.789 56.627 561.691 55.6031L563.99 53.0212C565.704 51.1069 568.634 51.1069 570.348 53.0212L572.647 55.6476C573.549 56.6715 575.127 56.6715 576.029 55.6476L578.328 53.0212C580.042 51.1069 582.972 51.1069 584.686 53.0212L584.731 53.0657C586.128 54.6683 588.698 53.6444 588.698 51.5076V26.8898C588.563 22.7942 585.362 19.5 581.349 19.5Z" fill="#88C6DE"/>
        <path d="M581.349 20.9691H552.989C549.021 20.9691 545.775 24.2633 545.775 28.3588V52.9321C545.775 55.0689 548.345 56.0928 549.743 54.4902C551.456 52.5315 554.432 52.576 556.1 54.5347L558.309 57.0722C559.211 58.0961 560.789 58.0961 561.691 57.0722L563.99 54.4902C565.704 52.576 568.634 52.576 570.348 54.4902L572.647 57.1167C573.549 58.1406 575.127 58.1406 576.029 57.1167L578.328 54.4902C580.042 52.576 582.972 52.576 584.686 54.4902L584.731 54.5347C586.128 56.1373 588.698 55.1134 588.698 52.9766V28.3588C588.563 24.2633 585.362 20.9691 581.349 20.9691Z" fill="#6CA2CB"/>
        <path d="M563.404 33.3447C563.404 35.7296 561.446 37.6629 559.031 37.6629C556.615 37.6629 554.657 35.7296 554.657 33.3447C554.657 30.9599 556.615 29.0266 559.031 29.0266C561.446 29.0266 563.404 30.9599 563.404 33.3447Z" fill="white"/>
        <path d="M579.726 33.3447C579.726 35.7296 577.768 37.6629 575.352 37.6629C572.937 37.6629 570.979 35.7296 570.979 33.3447C570.979 30.9599 572.937 29.0266 575.352 29.0266C577.768 29.0266 579.726 30.9599 579.726 33.3447Z" fill="white"/>
        <path d="M578.824 33.3447C578.824 35.2378 577.27 36.7725 575.352 36.7725C573.435 36.7725 571.881 35.2378 571.881 33.3447C571.881 31.4516 573.435 29.9169 575.352 29.9169C577.27 29.9169 578.824 31.4516 578.824 33.3447Z" fill="url(#paint2_linear_0_1)"/>
        <path d="M578.103 33.3447C578.103 34.8445 576.871 36.0603 575.352 36.0603C573.833 36.0603 572.602 34.8445 572.602 33.3447C572.602 31.845 573.833 30.6292 575.352 30.6292C576.871 30.6292 578.103 31.845 578.103 33.3447Z" fill="url(#paint3_linear_0_1)"/>
        <path d="M577.066 33.3447C577.066 34.279 576.299 35.0364 575.352 35.0364C574.406 35.0364 573.639 34.279 573.639 33.3447C573.639 32.4105 574.406 31.6531 575.352 31.6531C576.299 31.6531 577.066 32.4105 577.066 33.3447Z" fill="url(#paint4_linear_0_1)"/>
        <path d="M562.502 33.3447C562.502 35.2378 560.948 36.7725 559.031 36.7725C557.113 36.7725 555.559 35.2378 555.559 33.3447C555.559 31.4516 557.113 29.9169 559.031 29.9169C560.948 29.9169 562.502 31.4516 562.502 33.3447Z" fill="url(#paint5_linear_0_1)"/>
        <path d="M561.781 33.3447C561.781 34.8445 560.55 36.0603 559.031 36.0603C557.512 36.0603 556.28 34.8445 556.28 33.3447C556.28 31.845 557.512 30.6292 559.031 30.6292C560.55 30.6292 561.781 31.845 561.781 33.3447Z" fill="url(#paint6_linear_0_1)"/>
        <path d="M560.744 33.3447C560.744 34.279 559.977 35.0364 559.031 35.0364C558.084 35.0364 557.317 34.279 557.317 33.3447C557.317 32.4105 558.084 31.6531 559.031 31.6531C559.977 31.6531 560.744 32.4105 560.744 33.3447Z" fill="url(#paint7_linear_0_1)"/>
        <path d="M562.187 31.0744C562.187 31.6153 561.743 32.0537 561.195 32.0537C560.647 32.0537 560.203 31.6153 560.203 31.0744C560.203 30.5335 560.647 30.095 561.195 30.095C561.743 30.095 562.187 30.5335 562.187 31.0744Z" fill="white"/>
        <path d="M578.509 31.0744C578.509 31.6153 578.064 32.0537 577.517 32.0537C576.969 32.0537 576.525 31.6153 576.525 31.0744C576.525 30.5335 576.969 30.095 577.517 30.095C578.064 30.095 578.509 30.5335 578.509 31.0744Z" fill="white"/>
    </g>
    <circle cx="468" cy="38" r="37" fill="#EDF0F4"/>
    <path d="M474.601 40.3624L484.744 30.2506C485.505 29.4923 485.932 28.4613 485.93 27.3869L485.947 19.2138C485.946 18.7945 485.784 18.3916 485.495 18.0884L466.036 37.5044C465.272 38.2616 464.842 39.2926 464.842 40.3681C464.842 41.4437 465.272 42.4747 466.036 43.2318L479.756 56.909C480.779 57.927 482.267 58.3218 483.66 57.9448C485.054 57.5677 486.14 56.4761 486.51 55.0811C486.88 53.686 486.478 52.1995 485.454 51.1815L474.601 40.3624Z" fill="#008C62"/>
    <path d="M484.36 17.6503H453.796C451.325 17.6503 449.5 19.5174 449.5 22.0661V53.9537C449.486 55.0483 449.915 56.1021 450.69 56.876C451.464 57.6498 452.518 58.0779 453.613 58.0631C454.708 58.0819 455.764 57.655 456.539 56.8802C457.314 56.1054 457.741 55.0492 457.722 53.9537V25.5169H478.054L485.5 18.1085C485.199 17.8064 484.787 17.6408 484.36 17.6503Z" fill="#00E6A0"/>
    <defs>
        <linearGradient id="paint0_linear_0_1" x1="1018" y1="1" x2="1018" y2="81" gradientUnits="userSpaceOnUse">
            <stop stop-color="#4FA89B"/>
            <stop offset="1" stop-color="#6ACEBB"/>
        </linearGradient>
        <linearGradient id="paint1_linear_0_1" x1="874.638" y1="73.0768" x2="895.228" y2="26.2429" gradientUnits="userSpaceOnUse">
            <stop stop-color="#FFDC00"/>
            <stop offset="0.33" stop-color="#E58E2F"/>
            <stop offset="0.67" stop-color="#DB2D72"/>
            <stop offset="1" stop-color="#FF00FF"/>
        </linearGradient>
        <linearGradient id="paint2_linear_0_1" x1="527.807" y1="77.9605" x2="606.727" y2="77.9605" gradientUnits="userSpaceOnUse">
            <stop stop-color="#1EAACC"/>
            <stop offset="1" stop-color="#0584B9"/>
        </linearGradient>
        <linearGradient id="paint3_linear_0_1" x1="527.639" y1="78.0665" x2="606.773" y2="78.0665" gradientUnits="userSpaceOnUse">
            <stop stop-color="#1EAACC"/>
            <stop offset="1" stop-color="#0584B9"/>
        </linearGradient>
        <linearGradient id="paint4_linear_0_1" x1="527.14" y1="78.3828" x2="606.916" y2="78.3828" gradientUnits="userSpaceOnUse">
            <stop stop-color="#1EAACC"/>
            <stop offset="1" stop-color="#0584B9"/>
        </linearGradient>
        <linearGradient id="paint5_linear_0_1" x1="527.913" y1="77.9602" x2="606.832" y2="77.9602" gradientUnits="userSpaceOnUse">
            <stop stop-color="#1EAACC"/>
            <stop offset="1" stop-color="#0584B9"/>
        </linearGradient>
        <linearGradient id="paint6_linear_0_1" x1="527.771" y1="78.0665" x2="606.906" y2="78.0665" gradientUnits="userSpaceOnUse">
            <stop stop-color="#1EAACC"/>
            <stop offset="1" stop-color="#0584B9"/>
        </linearGradient>
        <linearGradient id="paint7_linear_0_1" x1="527.353" y1="78.3833" x2="607.13" y2="78.3833" gradientUnits="userSpaceOnUse">
            <stop stop-color="#1EAACC"/>
            <stop offset="1" stop-color="#0584B9"/>
        </linearGradient>
    </defs>
</svg>
