<svg width="508" height="1441" viewBox="0 0 508 1441" fill="none" xmlns="http://www.w3.org/2000/svg">
    <path d="M495.181 1435.04H10.9811C4.98663 1435.04 0.138428 1413.89 0.138428 1387.83V49.4268C0.138428 23.3263 4.99512 2.2168 10.9811 2.2168H495.181C501.176 2.2168 506.024 23.3633 506.024 49.4268V1387.79C506.032 1413.89 501.176 1435.04 495.181 1435.04Z" fill="url(#paint0_linear_5_4083)"/>
    <path d="M354.851 1435.04H496.169C502.164 1435.04 507.012 1419.91 507.012 1401.25V960.84L354.851 1435.04Z" fill="url(#paint1_linear_5_4083)"/>
    <path d="M496.302 1441H11.8365C5.38007 1441 0.138428 1418.14 0.138428 1390.07V50.9345C0.138428 22.8225 5.38856 0 11.8365 0H496.302C502.758 0 508 22.8595 508 50.9345V1390.03C508.008 1418.14 502.758 1441 496.302 1441ZM11.8365 3.66196C5.85581 3.66196 0.987964 24.8569 0.987964 50.8976V1389.99C0.987964 1416.03 5.85581 1437.23 11.8365 1437.23H496.302C502.283 1437.23 507.15 1416.03 507.15 1389.99V50.9345C507.15 24.8939 502.283 3.69895 496.302 3.69895H11.8365V3.66196Z" fill="url(#paint2_linear_5_4083)"/>
    <path d="M152.245 0.365234H10.8486C4.85085 0.365234 0 36.9005 0 81.9309V1144.97L152.245 0.365234Z" fill="url(#paint3_linear_5_4083)"/>
    <defs>
        <linearGradient id="paint0_linear_5_4083" x1="4.91836" y1="19.5991" x2="690.705" y2="121.489" gradientUnits="userSpaceOnUse">
            <stop stop-color="#1C2938"/>
            <stop offset="0.9958" stop-color="#121A24"/>
        </linearGradient>
        <linearGradient id="paint1_linear_5_4083" x1="434.303" y1="1210.66" x2="673.408" y2="1303.7" gradientUnits="userSpaceOnUse">
            <stop stop-color="#121A24" stop-opacity="0"/>
            <stop offset="0.1382" stop-color="#0F344D" stop-opacity="0.1382"/>
            <stop offset="0.3664" stop-color="#095C8C" stop-opacity="0.3664"/>
            <stop offset="0.575" stop-color="#057BBE" stop-opacity="0.575"/>
            <stop offset="0.7567" stop-color="#0292E1" stop-opacity="0.7567"/>
            <stop offset="0.9046" stop-color="#01A0F7" stop-opacity="0.9046"/>
            <stop offset="1" stop-color="#00A5FF"/>
        </linearGradient>
        <linearGradient id="paint2_linear_5_4083" x1="4.37991" y1="19.6348" x2="702.143" y2="122.942" gradientUnits="userSpaceOnUse">
            <stop stop-color="#2DD7A2"/>
            <stop offset="0.0391" stop-color="#28B188" stop-opacity="0.9217"/>
            <stop offset="0.087" stop-color="#22896E" stop-opacity="0.8256"/>
            <stop offset="0.1381" stop-color="#1D6657" stop-opacity="0.723"/>
            <stop offset="0.1922" stop-color="#194B44" stop-opacity="0.6144"/>
            <stop offset="0.2503" stop-color="#163536" stop-opacity="0.4979"/>
            <stop offset="0.3143" stop-color="#14262C" stop-opacity="0.3695"/>
            <stop offset="0.3888" stop-color="#121D26" stop-opacity="0.2202"/>
            <stop offset="0.4986" stop-color="#121A24" stop-opacity="0"/>
            <stop offset="0.5949" stop-color="#121C27" stop-opacity="0.1922"/>
            <stop offset="0.6654" stop-color="#112230" stop-opacity="0.3328"/>
            <stop offset="0.7277" stop-color="#102C40" stop-opacity="0.4569"/>
            <stop offset="0.7851" stop-color="#0E3A57" stop-opacity="0.5715"/>
            <stop offset="0.8394" stop-color="#0B4D74" stop-opacity="0.6797"/>
            <stop offset="0.8911" stop-color="#096398" stop-opacity="0.7829"/>
            <stop offset="0.941" stop-color="#057EC2" stop-opacity="0.8823"/>
            <stop offset="0.9881" stop-color="#019DF2" stop-opacity="0.9763"/>
            <stop offset="1" stop-color="#00A5FF"/>
        </linearGradient>
        <linearGradient id="paint3_linear_5_4083" x1="72.7527" y1="541.999" x2="-195.71" y2="498.701" gradientUnits="userSpaceOnUse">
            <stop stop-color="#121A24" stop-opacity="0"/>
            <stop offset="0.0434" stop-color="#14252C" stop-opacity="0.0434"/>
            <stop offset="0.2969" stop-color="#1D6455" stop-opacity="0.2969"/>
            <stop offset="0.5284" stop-color="#249676" stop-opacity="0.5284"/>
            <stop offset="0.73" stop-color="#29B98E" stop-opacity="0.73"/>
            <stop offset="0.894" stop-color="#2CCF9D" stop-opacity="0.894"/>
            <stop offset="1" stop-color="#2DD7A2"/>
        </linearGradient>
    </defs>
</svg>
