<svg width="34" height="29" viewBox="0 0 34 29" fill="none" xmlns="http://www.w3.org/2000/svg">
    <path d="M7.18512 17.0318C7.57689 16.3757 7.97511 15.726 8.34966 15.0615C8.51325 14.7694 8.70268 14.6594 9.04924 14.6615C13.1929 14.6742 17.3366 14.6721 21.4781 14.6721C21.6826 14.6721 21.885 14.6721 22.1928 14.6721L25.3915 14.6361C25.8651 15.4467 26.3408 16.2572 26.8187 17.0699C23.9794 17.0699 21.2543 17.0699 18.4796 17.0699C18.4796 21.0592 18.4796 24.9893 18.4796 28.9575C17.5282 28.9575 16.6284 28.9617 15.7287 28.949C15.6598 28.9469 15.5478 28.8199 15.5349 28.7395C15.5048 28.566 15.5242 28.3861 15.5242 28.2083C15.5242 24.7417 15.5242 21.273 15.5242 17.8064C15.5242 17.5799 15.5242 17.3535 15.5242 17.1165C15.4424 17.0995 15.395 17.0805 15.3476 17.0805C13.772 17.0784 12.1984 17.0741 10.6228 17.0868" fill="#20F1C0"/>
    <path d="M10.5081 17.1208C10.3863 17.1208 10.2133 17.218 10.1534 17.3194C8.44841 20.2195 6.75192 23.126 5.05757 26.0325C5.03193 26.0748 5.02124 26.1255 4.97851 26.2332C5.13235 26.2438 5.26268 26.2586 5.39302 26.2586C7.87793 26.2586 10.365 26.2649 12.8499 26.248C13.2217 26.2459 13.3734 26.3219 13.3541 26.7275C13.3178 27.4583 13.3434 28.1934 13.3434 28.958C8.94838 28.958 4.58964 28.958 0.173218 28.958C0.356968 28.6264 0.521489 28.318 0.696693 28.0181C2.76496 24.4779 4.83322 20.9377 6.90362 17.3975C6.96772 17.2877 7.03182 17.1779 7.09806 17.068" fill="#20F1C0"/>
    <path d="M22.2045 14.636C20.4517 11.666 18.7442 8.76995 16.9999 5.81266C16.8356 6.06807 16.6973 6.27072 16.5741 6.4818C15.4264 8.41955 14.2787 10.3573 13.144 12.3035C13.0057 12.5399 12.8587 12.6455 12.5691 12.6391C11.6418 12.6201 10.7146 12.6328 9.70953 12.6328C12.1497 8.50188 14.5532 4.43217 16.9869 0.313919C19.8011 5.08231 22.5936 9.81482 25.4164 14.6001" fill="#20F1C0"/>
    <path d="M20.6487 28.9557C20.6487 28.0949 20.6465 27.2661 20.6508 26.4352C20.6529 26.1468 20.8774 26.2109 21.0441 26.2109C23.017 26.2087 24.9899 26.2087 26.9629 26.2087C27.6276 26.2087 28.2924 26.2087 29.0533 26.2087C28.3351 24.9613 27.6554 23.7715 26.9714 22.5859C26.2917 21.4047 25.6077 20.2256 24.9002 18.9995C25.0669 18.9824 25.1503 18.9653 25.2358 18.9632C26.0822 18.961 26.9265 18.9525 27.773 18.9717C27.9226 18.976 28.1385 19.0636 28.2047 19.181C30.0387 22.3339 31.8577 25.4953 33.6789 28.6567C33.7281 28.7421 33.7687 28.834 33.8307 28.9579C29.4338 28.9557 25.0754 28.9557 20.6487 28.9557Z" fill="#20F1C0"/>
</svg>
