<svg width="507" height="705" viewBox="0 0 507 705" fill="none" xmlns="http://www.w3.org/2000/svg">
    <path d="M496.166 705H11.8339C5.8378 705 0.988281 694.654 0.988281 681.903V27.0972C0.988281 14.3277 5.8463 4 11.8339 4H496.166C502.162 4 507.012 14.3458 507.012 27.0972V681.885C507.02 694.654 502.162 705 496.166 705Z" fill="url(#paint0_linear_5_4045)"/>
    <path d="M355.798 705H497.154C503.15 705 508 697.595 508 688.468V473L355.798 705Z" fill="url(#paint1_linear_5_4045)"/>
    <path d="M496.299 705H11.7013C5.24307 705 0 693.816 0 680.081V24.9194C0 11.1658 5.25157 0 11.7013 0H496.299C502.757 0 508 11.1839 508 24.9194V680.063C508.009 693.816 502.757 705 496.299 705ZM11.7013 1.79159C5.71894 1.79159 0.849768 12.1611 0.849768 24.9013V680.044C0.849768 692.785 5.71894 703.154 11.7013 703.154H496.299C502.281 703.154 507.15 692.785 507.15 680.044V24.9194C507.15 12.1792 502.281 1.80969 496.299 1.80969H11.7013V1.79159Z" fill="url(#paint2_linear_5_4045)"/>
    <path d="M153.137 3.09375H11.7013C5.70191 3.09375 0.849731 20.9684 0.849731 42.9992V563.083L153.137 3.09375Z" fill="url(#paint3_linear_5_4045)"/>
    <defs>
        <linearGradient id="paint0_linear_5_4045" x1="5.76952" y1="12.5042" x2="647.657" y2="207.487" gradientUnits="userSpaceOnUse">
            <stop stop-color="#1C2938"/>
            <stop offset="0.9958" stop-color="#121A24"/>
        </linearGradient>
        <linearGradient id="paint1_linear_5_4045" x1="435.272" y1="595.222" x2="603.916" y2="729.389" gradientUnits="userSpaceOnUse">
            <stop stop-color="#121A24" stop-opacity="0"/>
            <stop offset="0.1382" stop-color="#0F344D" stop-opacity="0.1382"/>
            <stop offset="0.3664" stop-color="#095C8C" stop-opacity="0.3664"/>
            <stop offset="0.575" stop-color="#057BBE" stop-opacity="0.575"/>
            <stop offset="0.7567" stop-color="#0292E1" stop-opacity="0.7567"/>
            <stop offset="0.9046" stop-color="#01A0F7" stop-opacity="0.9046"/>
            <stop offset="1" stop-color="#00A5FF"/>
        </linearGradient>
        <linearGradient id="paint2_linear_5_4045" x1="4.24264" y1="9.60619" x2="657.626" y2="207.387" gradientUnits="userSpaceOnUse">
            <stop stop-color="#2DD7A2"/>
            <stop offset="0.0391" stop-color="#28B188" stop-opacity="0.9217"/>
            <stop offset="0.087" stop-color="#22896E" stop-opacity="0.8256"/>
            <stop offset="0.1381" stop-color="#1D6657" stop-opacity="0.723"/>
            <stop offset="0.1922" stop-color="#194B44" stop-opacity="0.6144"/>
            <stop offset="0.2503" stop-color="#163536" stop-opacity="0.4979"/>
            <stop offset="0.3143" stop-color="#14262C" stop-opacity="0.3695"/>
            <stop offset="0.3888" stop-color="#121D26" stop-opacity="0.2202"/>
            <stop offset="0.4986" stop-color="#121A24" stop-opacity="0"/>
            <stop offset="0.5949" stop-color="#121C27" stop-opacity="0.1922"/>
            <stop offset="0.6654" stop-color="#112230" stop-opacity="0.3328"/>
            <stop offset="0.7277" stop-color="#102C40" stop-opacity="0.4569"/>
            <stop offset="0.7851" stop-color="#0E3A57" stop-opacity="0.5715"/>
            <stop offset="0.8394" stop-color="#0B4D74" stop-opacity="0.6797"/>
            <stop offset="0.8911" stop-color="#096398" stop-opacity="0.7829"/>
            <stop offset="0.941" stop-color="#057EC2" stop-opacity="0.8823"/>
            <stop offset="0.9881" stop-color="#019DF2" stop-opacity="0.9763"/>
            <stop offset="1" stop-color="#00A5FF"/>
        </linearGradient>
        <linearGradient id="paint3_linear_5_4045" x1="73.6223" y1="268.085" x2="-174.879" y2="186.143" gradientUnits="userSpaceOnUse">
            <stop stop-color="#121A24" stop-opacity="0"/>
            <stop offset="0.0434" stop-color="#14252C" stop-opacity="0.0434"/>
            <stop offset="0.2969" stop-color="#1D6455" stop-opacity="0.2969"/>
            <stop offset="0.5284" stop-color="#249676" stop-opacity="0.5284"/>
            <stop offset="0.73" stop-color="#29B98E" stop-opacity="0.73"/>
            <stop offset="0.894" stop-color="#2CCF9D" stop-opacity="0.894"/>
            <stop offset="1" stop-color="#2DD7A2"/>
        </linearGradient>
    </defs>
</svg>
