<svg width="1440" height="1015" viewBox="0 0 1440 1015" fill="none" xmlns="http://www.w3.org/2000/svg">
    <path d="M1406.83 1011.53H33.169C16.1629 1011.53 2.40869 996.642 2.40869 978.29V35.8466C2.40869 17.4679 16.187 2.60352 33.169 2.60352H1406.83C1423.84 2.60352 1437.59 17.4939 1437.59 35.8466V978.263C1437.61 996.642 1423.84 1011.53 1406.83 1011.53Z" fill="url(#paint0_linear_7_4663)"/>
    <path d="M1008.34 1014.14H1409.24C1426.25 1014.14 1440 999.246 1440 980.893V547.613L1008.34 1014.14Z" fill="url(#paint1_linear_7_4663)"/>
    <path d="M1406.83 1014.14H33.1691C14.8622 1014.14 0 998.048 0 978.289V35.8463C0 16.0619 14.8863 0 33.1691 0H1406.83C1425.14 0 1440 16.0879 1440 35.8463V978.263C1440.02 998.048 1425.14 1014.14 1406.83 1014.14ZM33.1691 2.57719C16.2112 2.57719 2.40879 17.4936 2.40879 35.8203V978.237C2.40879 996.564 16.2112 1011.48 33.1691 1011.48H1406.83C1423.79 1011.48 1437.59 996.564 1437.59 978.237V35.8463C1437.59 17.5197 1423.79 2.60322 1406.83 2.60322H33.1691V2.57719Z" fill="url(#paint2_linear_7_4663)"/>
    <path d="M434.088 2.57812H33.169C16.1629 2.57812 2.40869 17.4685 2.40869 35.8212V469.075L434.088 2.57812Z" fill="url(#paint3_linear_7_4663)"/>
    <defs>
        <linearGradient id="paint0_linear_7_4663" x1="15.9692" y1="14.8433" x2="1479.92" y2="891.152" gradientUnits="userSpaceOnUse">
            <stop stop-color="#1C2938"/>
            <stop offset="0.9958" stop-color="#121A24"/>
        </linearGradient>
        <linearGradient id="paint1_linear_7_4663" x1="1233.74" y1="793.386" x2="1579.47" y2="1181.31" gradientUnits="userSpaceOnUse">
            <stop stop-color="#121A24" stop-opacity="0"/>
            <stop offset="0.1382" stop-color="#0F344D" stop-opacity="0.1382"/>
            <stop offset="0.3664" stop-color="#095C8C" stop-opacity="0.3664"/>
            <stop offset="0.575" stop-color="#057BBE" stop-opacity="0.575"/>
            <stop offset="0.7567" stop-color="#0292E1" stop-opacity="0.7567"/>
            <stop offset="0.9046" stop-color="#01A0F7" stop-opacity="0.9046"/>
            <stop offset="1" stop-color="#00A5FF"/>
        </linearGradient>
        <linearGradient id="paint2_linear_7_4663" x1="12.0264" y1="13.8184" x2="1503.25" y2="903.33" gradientUnits="userSpaceOnUse">
            <stop stop-color="#2DD7A2"/>
            <stop offset="0.0391" stop-color="#28B188" stop-opacity="0.9217"/>
            <stop offset="0.087" stop-color="#22896E" stop-opacity="0.8256"/>
            <stop offset="0.1381" stop-color="#1D6657" stop-opacity="0.723"/>
            <stop offset="0.1922" stop-color="#194B44" stop-opacity="0.6144"/>
            <stop offset="0.2503" stop-color="#163536" stop-opacity="0.4979"/>
            <stop offset="0.3143" stop-color="#14262C" stop-opacity="0.3695"/>
            <stop offset="0.3888" stop-color="#121D26" stop-opacity="0.2202"/>
            <stop offset="0.4986" stop-color="#121A24" stop-opacity="0"/>
            <stop offset="0.5949" stop-color="#121C27" stop-opacity="0.1922"/>
            <stop offset="0.6654" stop-color="#112230" stop-opacity="0.3328"/>
            <stop offset="0.7277" stop-color="#102C40" stop-opacity="0.4569"/>
            <stop offset="0.7851" stop-color="#0E3A57" stop-opacity="0.5715"/>
            <stop offset="0.8394" stop-color="#0B4D74" stop-opacity="0.6797"/>
            <stop offset="0.8911" stop-color="#096398" stop-opacity="0.7829"/>
            <stop offset="0.941" stop-color="#057EC2" stop-opacity="0.8823"/>
            <stop offset="0.9881" stop-color="#019DF2" stop-opacity="0.9763"/>
            <stop offset="1" stop-color="#00A5FF"/>
        </linearGradient>
        <linearGradient id="paint3_linear_7_4663" x1="208.693" y1="223.328" x2="-137.044" y2="-164.6" gradientUnits="userSpaceOnUse">
            <stop stop-color="#121A24" stop-opacity="0"/>
            <stop offset="0.0434" stop-color="#14252C" stop-opacity="0.0434"/>
            <stop offset="0.2969" stop-color="#1D6455" stop-opacity="0.2969"/>
            <stop offset="0.5284" stop-color="#249676" stop-opacity="0.5284"/>
            <stop offset="0.73" stop-color="#29B98E" stop-opacity="0.73"/>
            <stop offset="0.894" stop-color="#2CCF9D" stop-opacity="0.894"/>
            <stop offset="1" stop-color="#2DD7A2"/>
        </linearGradient>
    </defs>
</svg>
