<svg width="54" height="38" viewBox="0 0 54 38" fill="none" xmlns="http://www.w3.org/2000/svg">
    <path d="M40.203 10.519C41.2604 10.519 42.2941 10.2106 43.1733 9.63264C44.0525 9.05472 44.7377 8.2333 45.1423 7.27225C45.547 6.3112 45.6529 5.25368 45.4466 4.23344C45.2403 3.21319 44.7311 2.27604 43.9834 1.54048C43.2357 0.804923 42.2831 0.304002 41.246 0.101062C40.2089 -0.101877 39.134 0.00227885 38.1571 0.400359C37.1802 0.798439 36.3452 1.47256 35.7577 2.33749C35.1703 3.20241 34.8567 4.21928 34.8567 5.25952C34.8567 6.65443 35.42 7.99221 36.4226 8.97856C37.4252 9.96491 38.7851 10.519 40.203 10.519ZM2.0037 22.7211C2.53339 22.8877 3.04404 23.108 3.52739 23.3785C5.1899 24.3353 7.08128 24.8395 9.00735 24.8395C10.9334 24.8395 12.8248 24.3353 14.4873 23.3785C15.5327 22.8027 16.7108 22.5003 17.9089 22.5003C19.1071 22.5003 20.2852 22.8027 21.3306 23.3785L21.8919 23.6415C23.514 24.4184 25.3045 24.7933 27.1076 24.7338C28.9107 24.6742 30.6716 24.1818 32.237 23.2997C33.2824 22.7238 34.4605 22.4214 35.6587 22.4214C36.8568 22.4214 38.0349 22.7238 39.0803 23.2997C40.7744 24.2521 42.6893 24.7593 44.6404 24.7723C46.5233 24.7531 48.3675 24.2451 49.9867 23.2997C50.4701 23.0291 50.9807 22.8088 51.5104 22.6422C51.9055 22.6155 52.2897 22.5027 52.635 22.312C52.9804 22.1214 53.2784 21.8576 53.5074 21.5398C53.7365 21.222 53.8909 20.858 53.9596 20.4743C54.0282 20.0906 54.0093 19.6967 53.9042 19.3211C53.7992 18.9454 53.6106 18.5974 53.3521 18.3023C53.0936 18.0071 52.7717 17.7721 52.4096 17.6143C52.0475 17.4565 51.6543 17.3798 51.2584 17.3898C50.8625 17.3997 50.4738 17.4961 50.1204 17.672C49.1876 17.9568 48.2908 18.3449 47.4472 18.8291C46.5939 19.3138 45.6258 19.5689 44.6404 19.5689C43.655 19.5689 42.687 19.3138 41.8336 18.8291C39.9818 17.8014 37.8917 17.2614 35.7656 17.2614C33.6394 17.2614 31.5493 17.8014 29.6975 18.8291C29.446 18.95 29.1871 19.0554 28.9223 19.1446L33.0924 15.0422C33.188 14.9204 33.2687 14.788 33.333 14.6478C33.454 14.5184 33.5614 14.3774 33.6538 14.227C33.6663 14.0607 33.6663 13.8937 33.6538 13.7273C33.669 13.5611 33.669 13.3939 33.6538 13.2277C33.6666 13.0701 33.6666 12.9119 33.6538 12.7543C33.669 12.5881 33.669 12.4209 33.6538 12.2547C33.5747 12.1001 33.4854 11.9507 33.3865 11.8076C33.3171 11.6561 33.2272 11.5146 33.1192 11.3869L24.9126 2.62976C24.6967 2.3982 24.4439 2.20279 24.1641 2.05121C23.9778 2.02695 23.7891 2.02695 23.6027 2.05121C23.4523 2.02716 23.2988 2.02716 23.1483 2.05121C22.7925 1.91035 22.4073 1.85622 22.0256 1.89343L12.5626 5.36471C11.8964 5.60208 11.3532 6.08997 11.0525 6.72115C10.7517 7.35234 10.718 8.07518 10.9587 8.7308C11.2 9.38623 11.696 9.9206 12.3376 10.2165C12.9792 10.5123 13.7139 10.5455 14.3804 10.3087L22.2127 7.49481L27.559 13.0699L22.48 18.0664C20.7783 17.4157 18.9511 17.1442 17.1299 17.2715C15.3087 17.3988 13.5389 17.9218 11.9478 18.8028C11.0944 19.2875 10.1264 19.5426 9.14101 19.5426C8.15561 19.5426 7.18758 19.2875 6.3342 18.8028C5.49061 18.3187 4.5938 17.9305 3.66105 17.6457C3.31902 17.5201 2.95448 17.4648 2.5899 17.4832C2.22532 17.5016 1.86842 17.5932 1.54122 17.7525C1.21402 17.9117 0.92344 18.1352 0.687401 18.4092C0.451363 18.6832 0.274867 19.0018 0.168794 19.3454C0.0627217 19.6891 0.0293201 20.0504 0.0706494 20.4072C0.111979 20.7641 0.227162 21.1088 0.4091 21.4201C0.591037 21.7315 0.835872 22.0029 1.12851 22.2176C1.42115 22.4323 1.75539 22.5858 2.11062 22.6685L2.0037 22.7211ZM50.1204 30.8471C49.1876 31.1318 48.2908 31.52 47.4472 32.0042C46.5939 32.4889 45.6258 32.744 44.6404 32.744C43.655 32.744 42.687 32.4889 41.8336 32.0042C39.9818 30.9765 37.8917 30.4365 35.7656 30.4365C33.6394 30.4365 31.5493 30.9765 29.6975 32.0042C28.8369 32.4961 27.8593 32.7552 26.864 32.7552C25.8687 32.7552 24.8911 32.4961 24.0305 32.0042C22.1787 30.9765 20.0885 30.4365 17.9624 30.4365C15.8363 30.4365 13.7461 30.9765 11.8944 32.0042C11.041 32.4889 10.0729 32.744 9.08754 32.744C8.10215 32.744 7.13411 32.4889 6.28074 32.0042C5.43714 31.52 4.54033 31.1318 3.60759 30.8471C3.26556 30.7215 2.90102 30.6662 2.53644 30.6846C2.17185 30.703 1.81496 30.7946 1.48776 30.9539C1.16055 31.1131 0.869977 31.3366 0.633939 31.6106C0.3979 31.8845 0.221404 32.2032 0.115332 32.5468C0.0092587 32.8904 -0.0241429 33.2518 0.0171864 33.6086C0.0585157 33.9655 0.173699 34.3102 0.355637 34.6215C0.537574 34.9329 0.782409 35.2043 1.07505 35.419C1.36769 35.6337 1.70193 35.7871 2.05716 35.8699C2.58686 36.0365 3.0975 36.2568 3.58086 36.5273C5.24337 37.4841 7.13474 37.9883 9.06081 37.9883C10.9869 37.9883 12.8783 37.4841 14.5408 36.5273C15.5862 35.9515 16.7643 35.6491 17.9624 35.6491C19.1605 35.6491 20.3386 35.9515 21.384 36.5273C23.0609 37.4706 24.9591 37.9668 26.8907 37.9668C28.8224 37.9668 30.7205 37.4706 32.3974 36.5273C33.4428 35.9515 34.6209 35.6491 35.819 35.6491C37.0172 35.6491 38.1953 35.9515 39.2407 36.5273C40.9348 37.4798 42.8496 37.987 44.8008 38C46.6836 37.9808 48.5279 37.4728 50.1471 36.5273C50.6305 36.2568 51.1411 36.0365 51.6708 35.8699C52.0078 35.7697 52.3215 35.6053 52.5939 35.3859C52.8663 35.1665 53.0921 34.8965 53.2584 34.5912C53.4247 34.286 53.5282 33.9515 53.5632 33.6069C53.5981 33.2622 53.5636 32.9142 53.4618 32.5827C53.36 32.2512 53.1928 31.9426 52.9698 31.6746C52.7468 31.4067 52.4723 31.1845 52.1621 31.0209C51.8518 30.8573 51.5118 30.7554 51.1615 30.7211C50.8112 30.6867 50.4574 30.7206 50.1204 30.8208V30.8471Z" fill="#20F1C0"/>
</svg>
