<svg width="61" height="41" viewBox="0 0 61 41" fill="none" xmlns="http://www.w3.org/2000/svg">
    <path d="M38.8182 24.2273L38.8182 16.7727C38.8182 16.2785 38.5261 15.8044 38.0061 15.4549C37.4861 15.1054 36.7808 14.9091 36.0455 14.9091L2.77273 14.9091C2.03735 14.9091 1.3321 15.1054 0.812111 15.4549C0.292124 15.8044 4.20934e-07 16.2785 3.99329e-07 16.7727L7.34805e-08 24.2273C5.18754e-08 24.7215 0.292124 25.1956 0.812111 25.5451C1.3321 25.8946 2.03735 26.0909 2.77273 26.0909L36.0455 26.0909C36.7808 26.0909 37.4861 25.8946 38.0061 25.5451C38.5261 25.1956 38.8182 24.7215 38.8182 24.2273ZM5.54545 22.3636L5.54545 18.6364L33.2727 18.6364L33.2727 22.3636L5.54545 22.3636ZM61 39.1364L61 31.6818C61 31.1876 60.7079 30.7135 60.1879 30.364C59.6679 30.0145 58.9626 29.8182 58.2273 29.8182L2.77273 29.8182C2.03735 29.8182 1.3321 30.0145 0.812111 30.364C0.292123 30.7135 -2.30763e-07 31.1876 -2.52368e-07 31.6818L-5.78217e-07 39.1364C-5.99822e-07 39.6306 0.292123 40.1047 0.81211 40.4542C1.3321 40.8037 2.03735 41 2.77273 41L58.2273 41C58.9626 41 59.6679 40.8037 60.1879 40.4542C60.7079 40.1047 61 39.6306 61 39.1364ZM5.54545 37.2727L5.54545 33.5455L55.4545 33.5455L55.4545 37.2727L5.54545 37.2727ZM22.1818 9.31818L22.1818 1.86363C22.1818 1.36937 21.8897 0.895344 21.3697 0.545845C20.8497 0.196345 20.1445 -1.78585e-06 19.4091 -1.818e-06L2.77273 -2.54519e-06C2.03736 -2.57734e-06 1.3321 0.196344 0.812112 0.545844C0.292125 0.895343 1.07263e-06 1.36937 1.05103e-06 1.86363L7.25178e-07 9.31818C7.03572e-07 9.81245 0.292124 10.2865 0.812112 10.636C1.3321 10.9855 2.03735 11.1818 2.77273 11.1818L19.4091 11.1818C20.1445 11.1818 20.8497 10.9855 21.3697 10.636C21.8897 10.2865 22.1818 9.81245 22.1818 9.31818Z" fill="#20F1C0"/>
</svg>
