<svg width="63" height="44" viewBox="0 0 63 44" fill="none" xmlns="http://www.w3.org/2000/svg">
    <path d="M49.5754 0.653995C49.3697 0.446766 49.125 0.282285 48.8555 0.170038C48.5859 0.0577909 48.2967 0 48.0047 0C47.7126 0 47.4235 0.0577909 47.1539 0.170038C46.8843 0.282285 46.6397 0.446766 46.434 0.653995L32.5191 14.583L23.0286 5.07589C22.8229 4.86867 22.5783 4.70418 22.3087 4.59194C22.0391 4.47969 21.75 4.4219 21.4579 4.4219C21.1659 4.4219 20.8767 4.47969 20.6071 4.59194C20.3376 4.70418 20.0929 4.86867 19.8872 5.07589L6.61385 18.3416C6.4065 18.5471 6.24192 18.7917 6.12961 19.0611C6.0173 19.3305 5.95947 19.6195 5.95947 19.9114C5.95947 20.2032 6.0173 20.4922 6.12961 20.7616C6.24192 21.0311 6.4065 21.2756 6.61385 21.4811C6.8195 21.6884 7.06418 21.8529 7.33376 21.9651C7.60334 22.0773 7.89249 22.1351 8.18453 22.1351C8.47657 22.1351 8.76572 22.0773 9.0353 21.9651C9.30488 21.8529 9.54956 21.6884 9.75521 21.4811L21.4579 9.76311L30.9484 19.2702C31.154 19.4774 31.3987 19.6419 31.6683 19.7541C31.9379 19.8664 32.227 19.9242 32.5191 19.9242C32.8111 19.9242 33.1003 19.8664 33.3698 19.7541C33.6394 19.6419 33.8841 19.4774 34.0898 19.2702L49.5754 3.79354C49.7827 3.58801 49.9473 3.34347 50.0596 3.07405C50.1719 2.80462 50.2297 2.51564 50.2297 2.22377C50.2297 1.9319 50.1719 1.64291 50.0596 1.37349C49.9473 1.10406 49.7827 0.859532 49.5754 0.653995Z" fill="#20F1C0"/>
    <path d="M61.359 13.5541L61.3648 13.5598C61.5661 13.7594 61.7259 13.9968 61.8349 14.2583C61.9439 14.5198 62 14.8003 62 15.0835C62 15.3668 61.9439 15.6473 61.8349 15.9088C61.7259 16.1703 61.5661 16.4077 61.3648 16.6072L61.3619 16.6101L39.3246 38.6346L39.3218 38.6375C39.1221 38.8387 38.8845 38.9984 38.6227 39.1074C38.3609 39.2165 38.08 39.2726 37.7963 39.2726C37.5127 39.2726 37.2318 39.2165 36.97 39.1074C36.7082 38.9984 36.4706 38.8387 36.2709 38.6375L36.2689 38.6354L22.7632 25.1061L22.0556 24.3973L21.3479 25.106L4.69406 41.7816L4.69184 41.7838C4.49216 41.9851 4.25457 42.1448 3.99276 42.2538C3.73094 42.3628 3.4501 42.4189 3.16643 42.4189C2.88276 42.4189 2.60192 42.3628 2.3401 42.2538C2.07829 42.1448 1.8407 41.9851 1.64102 41.7838L1.64104 41.7838L1.63522 41.7781C1.4339 41.5785 1.27414 41.3411 1.16513 41.0796C1.05612 40.8181 1 40.5376 1 40.2544C1 39.9711 1.05612 39.6906 1.16513 39.4291C1.27414 39.1676 1.4339 38.9302 1.63523 38.7307L1.63813 38.7278L20.5272 19.8497L20.5301 19.8467C20.7297 19.6455 20.9673 19.4858 21.2291 19.3768C21.491 19.2678 21.7718 19.2116 22.0555 19.2116C22.3391 19.2116 22.62 19.2678 22.8818 19.3768C23.1436 19.4858 23.3812 19.6455 23.5809 19.8467L23.583 19.8488L37.0886 33.3781L37.7961 34.0868L38.5038 33.3784L58.3058 13.5564L58.3082 13.554C58.5078 13.3528 58.7454 13.1931 59.0072 13.0841C59.2691 12.9751 59.5499 12.9189 59.8336 12.9189C60.1172 12.9189 60.3981 12.9751 60.6599 13.0841C60.9217 13.1931 61.1593 13.3528 61.359 13.554L61.359 13.5541Z" stroke="#20F1C0" stroke-width="2"/>
</svg>
