<svg width="68" height="58" viewBox="0 0 68 58" fill="none" xmlns="http://www.w3.org/2000/svg">
    <path d="M64.6 23.8824H61.2V20.4706C61.2 19.5657 60.8418 18.6979 60.2042 18.0581C59.5665 17.4183 58.7017 17.0588 57.8 17.0588C56.8983 17.0588 56.0335 17.4183 55.3958 18.0581C54.7582 18.6979 54.4 19.5657 54.4 20.4706V23.8824H51C50.0983 23.8824 49.2335 24.2418 48.5958 24.8816C47.9582 25.5215 47.6 26.3893 47.6 27.2941C47.6 28.199 47.9582 29.0668 48.5958 29.7066C49.2335 30.3464 50.0983 30.7059 51 30.7059H54.4V34.1176C54.4 35.0225 54.7582 35.8903 55.3958 36.5301C56.0335 37.17 56.8983 37.5294 57.8 37.5294C58.7017 37.5294 59.5665 37.17 60.2042 36.5301C60.8418 35.8903 61.2 35.0225 61.2 34.1176V30.7059H64.6C65.5017 30.7059 66.3665 30.3464 67.0042 29.7066C67.6418 29.0668 68 28.199 68 27.2941C68 26.3893 67.6418 25.5215 67.0042 24.8816C66.3665 24.2418 65.5017 23.8824 64.6 23.8824ZM38.42 29.7506C40.2342 28.1748 41.6893 26.2258 42.6866 24.036C43.6839 21.8461 44.2 19.4665 44.2 17.0588C44.2 12.5345 42.4089 8.19556 39.2208 4.99641C36.0327 1.79726 31.7087 0 27.2 0C22.6913 0 18.3673 1.79726 15.1792 4.99641C11.9911 8.19556 10.2 12.5345 10.2 17.0588C10.2 19.4665 10.7161 21.8461 11.7134 24.036C12.7107 26.2258 14.1658 28.1748 15.98 29.7506C11.2205 31.9133 7.18238 35.4057 4.34853 39.8103C1.51468 44.215 0.00500431 49.3454 0 54.5882C0 55.4931 0.358213 56.3609 0.995837 57.0007C1.63346 57.6405 2.49826 58 3.4 58C4.30174 58 5.16654 57.6405 5.80416 57.0007C6.44179 56.3609 6.8 55.4931 6.8 54.5882C6.8 49.1591 8.94928 43.9523 12.775 40.1133C16.6008 36.2744 21.7896 34.1176 27.2 34.1176C32.6104 34.1176 37.7992 36.2744 41.625 40.1133C45.4507 43.9523 47.6 49.1591 47.6 54.5882C47.6 55.4931 47.9582 56.3609 48.5958 57.0007C49.2335 57.6405 50.0983 58 51 58C51.9017 58 52.7665 57.6405 53.4042 57.0007C54.0418 56.3609 54.4 55.4931 54.4 54.5882C54.395 49.3454 52.8853 44.215 50.0515 39.8103C47.2176 35.4057 43.1795 31.9133 38.42 29.7506V29.7506ZM27.2 27.2941C25.1826 27.2941 23.2106 26.6938 21.5332 25.5692C19.8558 24.4445 18.5484 22.846 17.7764 20.9757C17.0044 19.1054 16.8024 17.0475 17.196 15.062C17.5896 13.0766 18.561 11.2528 19.9875 9.82138C21.414 8.38995 23.2315 7.41513 25.2101 7.0202C27.1887 6.62527 29.2396 6.82796 31.1034 7.60265C32.9672 8.37733 34.5602 9.68921 35.681 11.3724C36.8018 13.0556 37.4 15.0345 37.4 17.0588C37.4 19.7734 36.3254 22.3768 34.4125 24.2963C32.4996 26.2158 29.9052 27.2941 27.2 27.2941Z" fill="#00BAA4"/>
</svg>
