<svg width="508" height="502" viewBox="0 0 508 502" fill="none" xmlns="http://www.w3.org/2000/svg">
    <g clip-path="url(#clip0_4_4308)">
        <path d="M174.225 107.479C168.444 130.667 144.959 144.778 121.768 138.996C98.5871 133.215 84.4754 109.728 90.2588 86.5421C96.0371 63.3517 119.523 49.239 142.706 55.0198C165.895 60.8006 180.006 84.2902 174.224 107.479L174.225 107.479Z" fill="#F7931A"/>
        <path fill-rule="evenodd" clip-rule="evenodd" d="M151.327 90.8411C152.189 85.081 147.804 81.9847 141.807 79.9192L143.752 72.1166L139.003 70.9331L137.109 78.5303C135.86 78.2188 134.578 77.9254 133.303 77.6345L135.211 69.9872L130.464 68.8037L128.518 76.6037C127.485 76.3685 126.47 76.136 125.485 75.891L125.49 75.8664L118.941 74.2308L117.677 79.3037C117.677 79.3037 121.201 80.1115 121.127 80.1612C123.05 80.6413 123.398 81.9145 123.34 82.9236L121.124 91.8126C121.257 91.8462 121.428 91.8949 121.618 91.9711L121.48 91.9367C121.363 91.9073 121.241 91.8768 121.116 91.8469L118.01 104.299C117.775 104.883 117.178 105.76 115.834 105.427C115.881 105.496 112.381 104.566 112.381 104.566L110.023 110.003L116.204 111.543C116.881 111.713 117.55 111.888 118.212 112.06C118.675 112.181 119.134 112.301 119.591 112.417L117.625 120.309L122.369 121.493L124.316 113.685C125.612 114.036 126.869 114.361 128.101 114.667L126.161 122.438L130.911 123.622L132.876 115.745C140.975 117.277 147.065 116.659 149.629 109.334C151.694 103.436 149.526 100.034 145.265 97.8152C148.368 97.0994 150.706 95.0582 151.329 90.8417L151.328 90.8407L151.327 90.8411ZM140.475 106.059C139.129 111.47 130.659 109.233 126.783 108.209L126.783 108.209C126.434 108.117 126.123 108.035 125.857 107.969L128.466 97.5133C128.789 97.5942 129.185 97.683 129.633 97.7836L129.634 97.7836C133.642 98.6832 141.855 100.526 140.476 106.059H140.475ZM130.438 92.9305C133.669 93.7927 140.717 95.6738 141.945 90.7556H141.945C143.198 85.7256 136.349 84.209 133.003 83.4684C132.627 83.385 132.295 83.3115 132.024 83.244L129.659 92.7266C129.882 92.7822 130.144 92.8521 130.438 92.9305Z" fill="white"/>
        <path d="M174.225 334.357C168.444 357.545 144.959 371.657 121.768 365.874C98.5871 360.094 84.4754 336.606 90.2588 313.421C96.0371 290.23 119.523 276.117 142.706 281.898C165.895 287.679 180.006 311.169 174.224 334.358L174.225 334.357Z" fill="#F7931A"/>
        <path fill-rule="evenodd" clip-rule="evenodd" d="M151.327 317.719C152.189 311.959 147.804 308.863 141.807 306.798L143.752 298.995L139.003 297.812L137.109 305.409C135.86 305.097 134.578 304.804 133.303 304.513L135.211 296.866L130.464 295.682L128.518 303.482C127.485 303.247 126.47 303.014 125.485 302.769L125.49 302.745L118.941 301.109L117.677 306.182C117.677 306.182 121.201 306.99 121.127 307.04C123.05 307.52 123.398 308.793 123.34 309.802L121.124 318.691C121.257 318.725 121.428 318.773 121.618 318.849L121.48 318.815C121.363 318.786 121.241 318.755 121.116 318.725L118.01 331.177C117.775 331.762 117.178 332.639 115.834 332.306C115.881 332.375 112.381 331.444 112.381 331.444L110.023 336.881L116.204 338.422C116.881 338.592 117.55 338.766 118.212 338.939C118.675 339.059 119.134 339.179 119.591 339.296L117.625 347.188L122.369 348.371L124.316 340.563C125.612 340.915 126.869 341.239 128.101 341.545L126.161 349.317L130.911 350.5L132.876 342.623C140.975 344.156 147.065 343.538 149.629 336.212C151.694 330.314 149.526 326.912 145.265 324.694C148.368 323.978 150.706 321.937 151.329 317.72L151.328 317.719L151.327 317.719ZM140.475 332.937C139.129 338.348 130.659 336.111 126.783 335.087L126.783 335.087C126.434 334.995 126.123 334.913 125.857 334.847L128.466 324.391C128.789 324.472 129.185 324.561 129.633 324.662L129.634 324.662C133.642 325.561 141.855 327.405 140.476 332.937H140.475ZM130.438 319.809C133.668 320.671 140.717 322.552 141.944 317.634H141.945C143.198 312.604 136.348 311.087 133.003 310.347C132.627 310.263 132.295 310.19 132.024 310.122L129.659 319.605C129.882 319.661 130.144 319.731 130.438 319.809Z" fill="white"/>
        <g clip-path="url(#clip1_4_4308)">
            <path d="M143.788 354.826C143.788 354.158 143.788 353.491 143.788 352.823C143.793 352.827 143.797 352.83 143.801 352.832C143.802 352.833 143.806 352.829 143.807 352.826C143.811 352.801 143.818 352.776 143.819 352.751C143.865 351.926 143.971 351.108 144.138 350.299C144.766 347.247 146.103 344.544 148.152 342.198C150.012 340.069 152.257 338.476 154.879 337.418C156.339 336.829 157.853 336.448 159.417 336.268C159.757 336.229 160.097 336.199 160.439 336.18C160.464 336.179 160.504 336.198 160.513 336.15C161.146 336.15 161.779 336.15 162.411 336.15C162.408 336.155 162.405 336.159 162.403 336.164C162.402 336.164 162.406 336.169 162.409 336.169C162.437 336.173 162.465 336.18 162.493 336.181C162.775 336.195 163.055 336.221 163.336 336.25C164.517 336.372 165.675 336.612 166.806 336.974C169.871 337.956 172.479 339.648 174.629 342.041C176.311 343.912 177.533 346.051 178.301 348.448C178.668 349.592 178.912 350.763 179.036 351.959C179.066 352.251 179.091 352.543 179.107 352.836C179.108 352.861 179.088 352.901 179.136 352.91C179.136 353.52 179.136 354.129 179.136 354.739C179.134 354.738 179.132 354.735 179.13 354.734C179.127 354.733 179.124 354.73 179.123 354.731C179.101 354.758 179.107 354.791 179.105 354.822C179.053 355.829 178.916 356.825 178.683 357.806C177.751 361.731 175.722 364.976 172.608 367.536C170.641 369.152 168.415 370.273 165.953 370.923C165.146 371.136 164.328 371.289 163.498 371.382C163.164 371.42 162.829 371.451 162.493 371.469C162.47 371.47 162.433 371.453 162.429 371.498C161.785 371.498 161.14 371.498 160.496 371.498C160.499 371.494 160.502 371.49 160.505 371.485C160.505 371.485 160.501 371.48 160.499 371.48C160.474 371.476 160.448 371.469 160.423 371.468C159.765 371.431 159.112 371.355 158.462 371.244C156.913 370.981 155.425 370.518 154.002 369.852C151.663 368.757 149.655 367.225 147.983 365.257C146.56 363.583 145.486 361.708 144.763 359.634C144.339 358.416 144.053 357.167 143.906 355.886C143.868 355.558 143.837 355.228 143.818 354.898C143.817 354.873 143.836 354.834 143.788 354.826ZM162.5 352.013C162.52 351.972 162.532 351.947 162.545 351.921C163.785 349.481 165.025 347.042 166.266 344.602C166.297 344.541 166.325 344.478 166.341 344.411C166.409 344.13 166.24 343.911 165.959 343.923C165.8 343.929 165.654 343.981 165.532 344.086C163.741 345.629 161.95 347.172 160.159 348.715C158.719 349.956 157.279 351.197 155.839 352.438C155.129 353.051 154.419 353.663 153.711 354.278C153.574 354.396 153.449 354.529 153.364 354.692C153.259 354.895 153.318 355.035 153.535 355.105C153.643 355.141 153.754 355.147 153.867 355.147C156.015 355.147 158.164 355.147 160.313 355.147C160.43 355.147 160.429 355.147 160.376 355.254C159.253 357.48 158.13 359.706 157.009 361.932C156.887 362.173 156.752 362.407 156.657 362.66C156.597 362.817 156.553 362.978 156.573 363.148C156.6 363.377 156.751 363.488 156.976 363.447C157.235 363.399 157.441 363.253 157.632 363.085C159.258 361.654 160.883 360.222 162.508 358.791C164.044 357.437 165.581 356.083 167.117 354.73C167.847 354.087 168.577 353.445 169.306 352.803C169.425 352.698 169.539 352.587 169.62 352.449C169.732 352.257 169.677 352.119 169.463 352.053C169.364 352.023 169.261 352.013 169.157 352.013C166.976 352.013 164.796 352.013 162.616 352.013C162.581 352.013 162.547 352.013 162.5 352.013Z" fill="#6A20F1"/>
            <path d="M162.5 352.013C162.547 352.013 162.581 352.013 162.616 352.013C164.796 352.013 166.976 352.013 169.157 352.012C169.261 352.012 169.364 352.022 169.463 352.053C169.677 352.118 169.732 352.256 169.62 352.449C169.539 352.587 169.425 352.698 169.306 352.802C168.577 353.445 167.847 354.087 167.117 354.729C165.581 356.083 164.044 357.437 162.508 358.79C160.883 360.222 159.258 361.654 157.632 363.084C157.441 363.253 157.234 363.398 156.976 363.446C156.751 363.488 156.599 363.377 156.573 363.148C156.553 362.978 156.597 362.817 156.657 362.66C156.752 362.407 156.887 362.172 157.009 361.931C158.13 359.705 159.253 357.48 160.376 355.254C160.429 355.147 160.43 355.147 160.313 355.147C158.164 355.147 156.015 355.147 153.867 355.147C153.754 355.147 153.643 355.14 153.535 355.105C153.318 355.035 153.259 354.895 153.364 354.692C153.449 354.529 153.574 354.396 153.711 354.277C154.419 353.663 155.129 353.05 155.839 352.438C157.279 351.197 158.719 349.956 160.159 348.715C161.95 347.172 163.741 345.628 165.532 344.086C165.654 343.981 165.8 343.929 165.959 343.922C166.24 343.911 166.409 344.129 166.341 344.41C166.325 344.477 166.297 344.54 166.266 344.602C165.025 347.041 163.785 349.481 162.545 351.921C162.532 351.946 162.52 351.972 162.5 352.013Z" fill="#FEFEFE"/>
        </g>
        <circle cx="373.904" cy="97.0082" r="43.2836" fill="#EDF0F4"/>
        <path d="M373.786 71.0376L373.442 72.2072V106.143L373.786 106.486L389.538 97.175L373.786 71.0376Z" fill="#343434"/>
        <path d="M373.786 71.0376L358.033 97.175L373.786 106.486V90.0149V71.0376Z" fill="#8C8C8C"/>
        <path d="M373.786 109.469L373.592 109.706V121.794L373.786 122.361L389.548 100.163L373.786 109.469Z" fill="#3C3C3B"/>
        <path d="M373.786 122.361V109.469L358.033 100.163L373.786 122.361Z" fill="#8C8C8C"/>
        <path d="M373.786 106.487L389.538 97.1753L373.786 90.0151V106.487Z" fill="#141414"/>
        <path d="M358.033 97.1753L373.786 106.487V90.0151L358.033 97.1753Z" fill="#393939"/>
        <path d="M536.712 107.479C530.931 130.667 507.445 144.778 484.255 138.996C461.074 133.215 446.962 109.728 452.746 86.5421C458.524 63.3517 482.009 49.239 505.193 55.0198C528.382 60.8006 542.493 84.2902 536.711 107.479L536.712 107.479H536.712Z" fill="#F3BA2F"/>
        <g clip-path="url(#clip2_4_4308)">
            <path d="M494.601 67.5522L501.869 74.9951L483.568 93.2956L476.301 86.0279L494.601 67.5522Z" fill="white" stroke="white" stroke-width="0.17782"/>
            <path d="M505.634 78.5854L512.902 86.0283L483.568 115.362L476.301 108.094L505.634 78.5854Z" fill="white" stroke="white" stroke-width="0.17782"/>
            <path d="M472.539 89.6191L479.806 97.062L472.539 104.33L465.271 97.062L472.539 89.6191Z" fill="white" stroke="white" stroke-width="0.17782"/>
            <path d="M516.667 89.6191L523.935 97.062L494.602 126.395L487.334 119.128L516.667 89.6191Z" fill="white" stroke="white" stroke-width="0.17782"/>
        </g>
        <path fill-rule="evenodd" clip-rule="evenodd" d="M132.006 253.371C108.2 253.371 88.7222 233.894 88.7222 209.872C88.9386 186.067 108.2 166.59 132.222 166.806C156.028 167.022 175.289 186.283 175.289 210.521C175.073 234.111 155.812 253.371 132.006 253.371" fill="#FC070C"/>
        <path fill-rule="evenodd" clip-rule="evenodd" d="M162.845 200.93C161.664 199.84 160.294 198.51 158.867 197.124L158.867 197.124L158.866 197.124L158.866 197.124C156.862 195.177 154.744 193.121 152.875 191.462L152.685 191.33C152.37 191.077 152.015 190.878 151.634 190.743L150.192 190.473C140.237 188.616 107.968 182.595 107.304 182.676C107.108 182.703 106.92 182.774 106.755 182.884L106.575 183.026C106.353 183.251 106.185 183.523 106.083 183.821L106.035 183.944V184.617V184.721C108.226 190.821 113.917 204.444 119.172 217.024L119.172 217.024C123.614 227.659 127.745 237.547 129.185 241.511L129.186 241.513C129.375 242.1 129.735 243.216 130.407 243.272H130.558C130.918 243.272 132.452 241.246 132.452 241.246C132.452 241.246 159.872 207.994 162.646 204.453C163.005 204.016 163.322 203.547 163.593 203.051C163.733 202.262 163.449 201.457 162.845 200.93ZM139.487 204.803L151.189 195.098L158.054 201.423L139.487 204.803ZM114.793 187.656L134.942 204.169L147.393 193.668L114.793 187.656ZM136.76 208.496L157.382 205.172L133.806 233.577L136.76 208.496ZM133.256 207.293L112.057 189.304L130.189 233.596L133.256 207.293Z" fill="white"/>
        <circle cx="375.106" cy="210.088" r="43.2836" fill="#EDF0F4"/>
        <path d="M388.093 201.395C387.17 200.864 385.984 200.864 384.929 201.395L377.545 205.774L372.535 208.562L365.284 212.941C364.361 213.472 363.174 213.472 362.119 212.941L356.45 209.491C355.527 208.96 354.868 207.898 354.868 206.703V200.067C354.868 199.006 355.395 197.944 356.45 197.28L362.119 193.962C363.042 193.432 364.229 193.432 365.284 193.962L370.953 197.413C371.876 197.944 372.535 199.006 372.535 200.2V204.58L377.545 201.66V197.148C377.545 196.086 377.018 195.024 375.963 194.361L365.416 188.123C364.493 187.592 363.306 187.592 362.251 188.123L351.44 194.493C350.385 195.024 349.858 196.086 349.858 197.148V209.623C349.858 210.685 350.385 211.747 351.44 212.41L362.119 218.648C363.042 219.179 364.229 219.179 365.284 218.648L372.535 214.401L377.545 211.481L384.797 207.234C385.72 206.703 386.907 206.703 387.961 207.234L393.631 210.552C394.554 211.083 395.213 212.145 395.213 213.339V219.975C395.213 221.037 394.686 222.099 393.631 222.762L388.093 226.08C387.17 226.611 385.984 226.611 384.929 226.08L379.259 222.762C378.337 222.232 377.677 221.17 377.677 219.975V215.728L372.667 218.648V223.028C372.667 224.09 373.195 225.151 374.249 225.815L384.929 232.053C385.852 232.584 387.038 232.584 388.093 232.053L398.773 225.815C399.696 225.284 400.355 224.222 400.355 223.028V210.42C400.355 209.358 399.828 208.296 398.773 207.632L388.093 201.395Z" fill="#8247E5"/>
        <circle cx="132.113" cy="438.411" r="43.2836" fill="black"/>
        <path d="M154.194 419.193L146.851 422.935L111.39 440.997C111.27 440.082 111.209 439.161 111.209 438.239C111.219 430.75 115.193 423.826 121.653 420.04C128.114 416.254 136.097 416.171 142.635 419.823L146.838 417.681L147.465 417.361C139.614 411.663 129.23 410.85 120.587 415.256C111.945 419.663 106.504 428.545 106.505 438.246C106.505 438.903 106.53 439.558 106.58 440.21C106.723 442.098 105.718 443.887 104.031 444.746L101.814 445.876V451.148L108.34 447.822V447.822L110.453 446.743L112.535 445.683V445.683L149.919 426.635L154.12 424.496L162.802 420.071V414.802L154.194 419.193Z" fill="white"/>
        <path d="M162.802 425.345L114.659 449.858L110.458 452.002L101.814 456.406V461.673L110.399 457.299L117.742 453.558L153.24 435.47C153.36 436.39 153.42 437.318 153.42 438.246C153.416 445.744 149.437 452.677 142.967 456.464C136.497 460.252 128.503 460.326 121.964 456.659L121.706 456.796L117.149 459.118C124.998 464.817 135.38 465.632 144.023 461.228C152.665 456.825 158.108 447.946 158.111 438.246C158.111 437.583 158.085 436.92 158.036 436.265C157.894 434.378 158.898 432.589 160.583 431.728L162.802 430.598V425.345Z" fill="white"/>
        <path d="M12.2578 254.091C36.3615 254.091 55.9013 234.551 55.9013 210.448C55.9013 186.344 36.3615 166.804 12.2578 166.804C-11.8458 166.804 -31.3857 186.344 -31.3857 210.448C-31.3857 234.551 -11.8458 254.091 12.2578 254.091Z" fill="#EDB72C"/>
        <path d="M-2.41283 222.061C-0.876985 219.477 0.609167 217.022 2.04097 214.535C2.39503 213.92 2.79259 213.656 3.51004 213.703C4.48994 213.767 5.47605 213.729 6.4606 213.712C6.91406 213.705 7.10973 213.863 7.10817 214.343C7.09575 219.312 7.09264 224.283 7.10507 229.252C7.10662 229.754 6.88766 229.864 6.45128 229.86C5.23534 229.844 4.01784 229.83 2.8019 229.863C2.21489 229.878 2.04563 229.653 2.05339 229.089C2.07979 227.099 2.06426 225.108 2.06426 222.873C1.80958 223.25 1.66826 223.438 1.54869 223.64C0.731848 225.021 -0.0896513 226.398 -0.887857 227.79C-1.14254 228.235 -1.45933 228.356 -1.98422 228.436C-3.39118 228.648 -4.15056 228.04 -4.7562 226.845C-5.37116 225.633 -6.16937 224.511 -7.05764 223.381C-7.05764 224.241 -7.05764 225.1 -7.05764 225.96C-7.05764 227.047 -7.03435 228.136 -7.07317 229.221C-7.08094 229.431 -7.31853 229.808 -7.45985 229.812C-8.97706 229.855 -10.4958 229.838 -12.0953 229.838C-12.0953 229.473 -12.0953 229.218 -12.0953 228.965C-12.0953 224.176 -12.0783 219.387 -12.1124 214.599C-12.1171 213.854 -11.8686 213.67 -11.1822 213.706C-10.2536 213.756 -9.31715 213.751 -8.38695 213.706C-7.79839 213.678 -7.45519 213.869 -7.14616 214.389C-5.73299 216.768 -4.27324 219.12 -2.82747 221.48C-2.72342 221.646 -2.59763 221.802 -2.41283 222.061Z" fill="black"/>
        <path d="M13.0107 229.847C13.0107 228.838 13.0107 227.937 13.0107 227.037C13.0107 224.345 12.9874 221.654 13.0278 218.965C13.0387 218.23 12.7871 218.034 12.0929 218.068C11.0602 218.12 10.0229 218.073 8.98863 218.084C8.60039 218.089 8.33329 218.013 8.33795 217.544C8.34727 216.306 8.34106 215.068 8.34106 213.759C8.71221 213.742 8.98863 213.717 9.26505 213.716C13.6132 213.713 17.9599 213.728 22.3081 213.695C23.0644 213.689 23.3082 213.928 23.2569 214.669C23.1995 215.494 23.1964 216.328 23.2631 217.151C23.3268 217.93 23.0131 218.126 22.2879 218.096C21.0813 218.047 19.8716 218.082 18.5671 218.082C18.5671 218.482 18.5671 218.784 18.5671 219.087C18.5686 222.4 18.5547 225.712 18.5842 229.023C18.5904 229.666 18.3963 229.875 17.7502 229.858C16.2066 229.819 14.6599 229.847 13.0107 229.847Z" fill="black"/>
        <path d="M37.1682 225.496C37.1682 226.891 37.1915 228.155 37.1387 229.416C37.1325 229.57 36.7194 229.824 36.4896 229.831C34.859 229.866 33.2285 229.848 31.5979 229.849C29.5014 229.849 27.405 229.834 25.3085 229.863C24.6718 229.873 24.4016 229.744 24.4078 229.014C24.442 224.2 24.4389 219.387 24.4078 214.573C24.4032 213.879 24.6035 213.677 25.2821 213.703C26.5742 213.752 27.8709 213.744 29.1644 213.707C29.7934 213.688 30.0108 213.868 30.0046 214.534C29.972 217.898 30.0046 221.263 29.9782 224.627C29.9735 225.28 30.1288 225.532 30.8385 225.515C32.9039 225.467 34.9724 225.496 37.1682 225.496Z" fill="black"/>
        <path d="M25.9 204.123C25.9 205.538 25.8704 206.853 25.9124 208.165C25.9326 208.799 25.7447 209.069 25.0893 209.015C24.5846 208.973 24.0737 209.007 23.4914 209.007C23.4914 208.633 23.4914 208.378 23.4914 208.123C23.4914 203.339 23.5069 198.553 23.4727 193.768C23.4681 193.038 23.6855 192.844 24.3905 192.87C26.7665 192.957 29.1642 192.811 31.5153 193.08C35.5778 193.544 37.6448 197.447 35.9257 201.087C35.3526 202.301 34.3386 203.027 33.0714 203.625C34.3029 205.386 35.5017 207.097 36.8124 208.971C35.8107 208.971 35.0219 208.999 34.2376 208.949C34.0699 208.939 33.896 208.664 33.7655 208.481C32.8322 207.178 31.9191 205.859 30.9734 204.566C30.8274 204.367 30.5432 204.151 30.318 204.145C28.8956 204.104 27.4731 204.123 25.9 204.123ZM25.8953 198.503C25.8984 198.503 25.9 198.503 25.9031 198.503C25.9031 199.486 25.8798 200.469 25.9217 201.45C25.931 201.651 26.1872 202.009 26.3255 202.008C28.0259 201.977 29.7512 202.047 31.4206 201.781C33.1537 201.506 34.059 200.169 34.0093 198.515C33.955 196.686 33.0465 195.489 31.2203 195.257C29.6146 195.054 27.9747 195.114 26.3488 195.105C26.1981 195.104 25.9233 195.442 25.9139 195.633C25.8705 196.588 25.8953 197.546 25.8953 198.503Z" fill="black"/>
        <path d="M15.5515 193.005C15.6555 192.957 15.6772 192.939 15.7021 192.936C17.8979 192.637 17.9104 192.637 17.8964 194.819C17.8762 197.666 17.9663 200.522 17.7659 203.356C17.5128 206.941 15.1772 208.998 11.5837 209.134C10.0867 209.192 8.6254 209.057 7.29609 208.306C5.1515 207.097 4.35174 205.083 4.2803 202.781C4.18557 199.728 4.26167 196.672 4.23682 193.616C4.23216 193.027 4.45112 192.864 5.01484 192.875C7.05383 192.912 6.69666 192.661 6.7153 194.543C6.73548 196.795 6.71685 199.048 6.7184 201.301C6.7184 201.767 6.71374 202.235 6.73859 202.699C6.9296 206.227 10.1178 208.089 13.2982 206.514C14.7517 205.794 15.362 204.479 15.4055 202.955C15.4909 199.98 15.4676 197.003 15.494 194.026C15.4956 193.669 15.5328 193.316 15.5515 193.005Z" fill="black"/>
        <path d="M295.535 220.558C289.754 243.746 266.268 257.858 243.078 252.076C219.897 246.295 205.785 222.808 211.569 199.622C217.347 176.431 240.832 162.319 264.016 168.099C287.205 173.88 301.316 197.37 295.534 220.559L295.535 220.558H295.535Z" fill="#50AF95"/>
        <path fill-rule="evenodd" clip-rule="evenodd" d="M259.033 214.995V214.995C258.727 215.018 257.145 215.112 253.618 215.112C250.813 215.112 248.821 215.028 248.122 214.995V214.995C237.28 214.518 229.187 212.631 229.187 210.371C229.187 208.111 237.28 206.227 248.122 205.742V213.115C248.831 213.166 250.861 213.286 253.667 213.286C257.033 213.286 258.719 213.146 259.023 213.118V205.747C269.842 206.229 277.916 208.117 277.916 210.371C277.916 212.626 269.844 214.513 259.023 214.993V214.993L259.033 214.995ZM259.033 204.985V198.387H274.132V188.325H233.023V198.387H248.12V204.982C235.849 205.546 226.622 207.976 226.622 210.889C226.622 213.802 235.849 216.23 248.12 216.796V237.939H259.03V216.788C271.273 216.225 280.485 213.797 280.485 210.886C280.485 207.976 271.28 205.548 259.03 204.982V204.982L259.033 204.985Z" fill="white"/>
        <circle cx="280.608" cy="237.862" r="17.6741" fill="#1A78F3"/>
        <path d="M280.56 227.257L280.42 227.734V241.591L280.56 241.732L286.992 237.93L280.56 227.257Z" fill="white"/>
        <path d="M280.56 227.257L274.128 237.93L280.56 241.732V235.006V227.257Z" fill="white"/>
        <path d="M280.56 242.95L280.481 243.047V247.983L280.56 248.214L286.996 239.15L280.56 242.95Z" fill="white"/>
        <path d="M280.56 248.214V242.95L274.128 239.15L280.56 248.214Z" fill="white"/>
        <path d="M280.56 241.732L286.992 237.93L280.56 235.006V241.732Z" fill="white"/>
        <path d="M274.128 237.93L280.56 241.732V235.006L274.128 237.93Z" fill="white"/>
        <path d="M53.2625 451.765C47.4816 474.953 23.9961 489.064 0.805469 483.282C-22.3754 477.501 -36.4871 454.014 -30.7037 430.828C-24.9254 407.638 -1.43988 393.525 21.7435 399.306C44.9325 405.087 59.0433 428.576 53.2618 451.765L53.2623 451.765H53.2625Z" fill="#50AF95"/>
        <path fill-rule="evenodd" clip-rule="evenodd" d="M16.7606 446.202V446.202C16.4546 446.225 14.8733 446.319 11.346 446.319C8.54054 446.319 6.54864 446.235 5.84981 446.202V446.202C-4.99216 445.725 -13.0847 443.837 -13.0847 441.578C-13.0847 439.318 -4.99216 437.433 5.84981 436.949V444.322C6.55884 444.373 8.589 444.493 11.3945 444.493C14.7611 444.493 16.4469 444.352 16.7504 444.324V436.954C27.5695 437.436 35.6442 439.323 35.6442 441.578C35.6442 443.832 27.572 445.72 16.7504 446.199V446.199L16.7606 446.202ZM16.761 436.191V429.593H31.8597V419.532H-9.24851V429.593H5.8476V436.189C-6.42262 436.752 -15.6501 439.183 -15.6501 442.096C-15.6501 445.008 -6.42262 447.436 5.8476 448.002V469.146H16.7584V447.995C29.0006 447.431 38.2128 445.003 38.2128 442.093C38.2128 439.183 29.0082 436.755 16.7584 436.189V436.189L16.761 436.191Z" fill="white"/>
        <path fill-rule="evenodd" clip-rule="evenodd" d="M39.0573 486.742C29.3365 486.742 21.3832 478.789 21.3832 468.98C21.4715 459.259 29.3365 451.306 39.1457 451.394C48.8665 451.483 56.7314 459.347 56.7314 469.245C56.6431 478.877 48.7781 486.742 39.0573 486.742" fill="#FC070C"/>
        <path fill-rule="evenodd" clip-rule="evenodd" d="M50.026 463.775L50.0259 463.775C49.2074 462.98 48.3424 462.14 47.5791 461.463L47.5018 461.409C47.3731 461.305 47.2281 461.224 47.0726 461.169L46.4835 461.059C42.4186 460.3 29.2421 457.842 28.9711 457.875C28.8909 457.886 28.8143 457.915 28.7468 457.96L28.6734 458.018C28.5829 458.11 28.5142 458.221 28.4723 458.343L28.453 458.393V458.667V458.71C29.3476 461.201 31.6713 466.764 33.8169 471.9L33.817 471.9L33.817 471.9L33.8171 471.9C35.6311 476.243 37.3178 480.281 37.9059 481.899L37.9061 481.9C37.9835 482.14 38.1304 482.595 38.4046 482.619H38.4665C38.6134 482.619 39.2397 481.791 39.2397 481.791C39.2397 481.791 50.4362 468.213 51.569 466.767C51.7157 466.589 51.8451 466.397 51.9557 466.195C52.013 465.873 51.8971 465.544 51.6502 465.329C51.1679 464.884 50.6087 464.341 50.026 463.775ZM42.1123 466.91L46.8909 462.947L49.6939 465.53L42.1123 466.91ZM32.0292 459.909L40.2565 466.651L45.3405 462.364L32.0292 459.909ZM40.9988 468.418L49.4194 467.061L39.7926 478.659L40.9988 468.418ZM39.5681 467.927L30.9117 460.581L38.3155 478.667L39.5681 467.927Z" fill="white"/>
        <path d="M295.054 333.637C289.273 356.825 265.787 370.937 242.597 365.155C219.416 359.374 205.304 335.887 211.088 312.701C216.866 289.51 240.351 275.398 263.535 281.178C286.724 286.959 300.835 310.449 295.053 333.638L295.054 333.637H295.054Z" fill="#50AF95"/>
        <path fill-rule="evenodd" clip-rule="evenodd" d="M258.552 328.074V328.074C258.246 328.097 256.665 328.191 253.138 328.191C250.332 328.191 248.34 328.107 247.641 328.074V328.074C236.8 327.597 228.707 325.71 228.707 323.45C228.707 321.19 236.8 319.305 247.641 318.821V326.194C248.351 326.245 250.381 326.365 253.186 326.365C256.553 326.365 258.239 326.225 258.542 326.197V318.826C269.361 319.308 277.436 321.195 277.436 323.45C277.436 325.704 269.364 327.592 258.542 328.071V328.071L258.552 328.074ZM258.552 318.063V311.465H273.651V301.404H232.543V311.465H247.639V318.061C235.369 318.624 226.141 321.055 226.141 323.968C226.141 326.88 235.369 329.308 247.639 329.874V351.018H258.55V329.867C270.792 329.303 280.004 326.875 280.004 323.965C280.004 321.055 270.799 318.627 258.55 318.061V318.061L258.552 318.063Z" fill="white"/>
        <circle cx="280.849" cy="350.941" r="17.6741" fill="#EDF0F4"/>
        <path d="M286.151 347.391C285.775 347.174 285.29 347.174 284.859 347.391L281.844 349.179L279.799 350.317L276.838 352.106C276.461 352.323 275.976 352.323 275.545 352.106L273.23 350.697C272.854 350.48 272.584 350.047 272.584 349.559V346.849C272.584 346.416 272.8 345.982 273.23 345.711L275.545 344.356C275.922 344.139 276.407 344.139 276.838 344.356L279.153 345.765C279.529 345.982 279.799 346.416 279.799 346.903V348.692L281.844 347.499V345.657C281.844 345.223 281.629 344.79 281.198 344.519L276.891 341.972C276.515 341.755 276.03 341.755 275.599 341.972L271.185 344.573C270.754 344.79 270.539 345.223 270.539 345.657V350.751C270.539 351.185 270.754 351.618 271.185 351.889L275.545 354.436C275.922 354.653 276.407 354.653 276.838 354.436L279.799 352.702L281.844 351.51L284.806 349.776C285.182 349.559 285.667 349.559 286.098 349.776L288.413 351.13C288.79 351.347 289.059 351.781 289.059 352.268V354.978C289.059 355.412 288.843 355.845 288.413 356.116L286.151 357.471C285.775 357.688 285.29 357.688 284.859 357.471L282.544 356.116C282.168 355.899 281.898 355.466 281.898 354.978V353.244L279.852 354.436V356.225C279.852 356.658 280.068 357.092 280.499 357.363L284.859 359.91C285.236 360.127 285.721 360.127 286.151 359.91L290.512 357.363C290.889 357.146 291.158 356.712 291.158 356.225V351.076C291.158 350.643 290.943 350.209 290.512 349.938L286.151 347.391Z" fill="#8247E5"/>
        <path d="M538.155 333.637C532.374 356.825 508.888 370.937 485.698 365.155C462.517 359.374 448.405 335.887 454.189 312.701C459.967 289.51 483.452 275.398 506.636 281.178C529.825 286.959 543.936 310.449 538.154 333.638L538.155 333.637H538.155Z" fill="#50AF95"/>
        <path fill-rule="evenodd" clip-rule="evenodd" d="M501.653 328.074V328.074C501.347 328.097 499.765 328.191 496.238 328.191C493.433 328.191 491.441 328.107 490.742 328.074V328.074C479.9 327.597 471.807 325.71 471.807 323.45C471.807 321.19 479.9 319.305 490.742 318.821V326.194C491.451 326.245 493.481 326.365 496.287 326.365C499.653 326.365 501.339 326.225 501.642 326.197V318.826C512.461 319.308 520.536 321.195 520.536 323.45C520.536 325.704 512.464 327.592 501.642 328.071V328.071L501.653 328.074ZM501.653 318.063V311.465H516.752V301.404H475.643V311.465H490.739V318.061C478.469 318.624 469.242 321.055 469.242 323.968C469.242 326.88 478.469 329.308 490.739 329.874V351.018H501.65V329.867C513.892 329.303 523.105 326.875 523.105 323.965C523.105 321.055 513.9 318.627 501.65 318.061V318.061L501.653 318.063Z" fill="white"/>
        <circle cx="522.506" cy="350.941" r="17.6741" fill="#EDF0F4"/>
        <path d="M417.192 448.881C411.411 472.069 387.926 486.181 364.735 480.398C341.554 474.617 327.443 451.13 333.226 427.944C339.004 404.754 362.49 390.641 385.673 396.422C408.862 402.203 422.973 425.693 417.192 448.881L417.192 448.881H417.192Z" fill="#50AF95"/>
        <path fill-rule="evenodd" clip-rule="evenodd" d="M380.69 443.318V443.318C380.384 443.341 378.803 443.435 375.276 443.435C372.47 443.435 370.478 443.351 369.78 443.318V443.318C358.938 442.841 350.845 440.953 350.845 438.694C350.845 436.434 358.938 434.549 369.78 434.065V441.438C370.489 441.489 372.519 441.609 375.324 441.609C378.691 441.609 380.377 441.469 380.68 441.44V434.07C391.499 434.552 399.574 436.439 399.574 438.694C399.574 440.948 391.502 442.836 380.68 443.315V443.315L380.69 443.318ZM380.691 433.307V426.709H395.789V416.647H354.681V426.709H369.777V433.304C357.507 433.868 348.279 436.299 348.279 439.211C348.279 442.124 357.507 444.552 369.777 445.118V466.261H380.688V445.11C392.93 444.547 402.142 442.119 402.142 439.209C402.142 436.299 392.938 433.871 380.688 433.304V433.304L380.691 433.307Z" fill="white"/>
        <path d="M417.968 470.459C415.607 479.928 406.016 485.69 396.546 483.329C387.079 480.968 381.316 471.378 383.678 461.91C386.038 452.441 395.629 446.678 405.097 449.039C414.566 451.399 420.329 460.991 417.968 470.46L417.968 470.459H417.968Z" fill="#F3BA2F"/>
        <path fill-rule="evenodd" clip-rule="evenodd" d="M400.825 459.727L396.248 464.304L396.248 464.304L393.585 461.641L400.825 454.401L408.067 461.643L405.404 464.306L400.825 459.727ZM391.704 463.521L389.041 466.184L391.704 468.847L394.367 466.184L391.704 463.521ZM396.248 468.065L400.825 472.641L405.404 468.063L408.069 470.724L408.068 470.726L400.825 477.967L393.585 470.728L393.581 470.724L396.248 468.065ZM409.946 463.523L407.283 466.186L409.946 468.848L412.609 466.185L409.946 463.523Z" fill="white"/>
        <path d="M403.526 466.183H403.527L400.825 463.48L398.827 465.477V465.477L398.598 465.707L398.125 466.18L398.121 466.184L398.125 466.187L400.825 468.888L403.527 466.185L403.529 466.184L403.526 466.183" fill="white"/>
        <circle cx="251.632" cy="97.0082" r="43.2836" fill="#EDF0F4"/>
        <path d="M260.431 131.81C260.253 131.87 260.075 131.928 259.897 131.988C257.016 132.725 254.098 133.107 251.121 132.942C250.245 132.893 249.369 132.853 248.493 132.81C248.364 132.718 248.219 132.702 248.068 132.72C244.802 132.319 241.624 131.583 238.603 130.242C238.521 130.205 238.426 130.2 238.337 130.18C238.195 130.099 238.055 130.017 237.913 129.936C235.106 128.592 232.624 126.791 230.413 124.607C230.229 124.414 230.047 124.222 229.863 124.03C228.012 121.962 226.504 119.658 225.174 117.231C225.126 117.134 225.079 117.038 225.03 116.941C223.995 114.702 223.11 112.411 222.597 109.99C222.613 109.829 222.565 109.69 222.467 109.564C222.338 108.116 222.085 106.68 222.057 105.22C222.025 103.503 222.181 101.802 222.396 100.103C222.499 99.8755 222.496 99.6385 222.47 99.3973C222.925 97.6742 223.301 95.9302 223.892 94.2448C225.261 90.3455 227.168 86.732 229.611 83.4015C229.843 83.085 230.056 82.7532 230.278 82.4298C230.559 82.1872 230.787 81.9001 230.975 81.5808C231.453 81.0162 231.932 80.4544 232.409 79.8884C234.305 77.6369 236.439 75.6141 238.472 73.4923C238.661 73.3083 238.85 73.1256 239.038 72.9416C240.52 71.4959 241.999 70.0531 243.479 68.6088C243.616 68.4708 243.754 68.3327 243.892 68.1947C244.827 67.3708 245.706 66.4898 246.562 65.5836C246.707 65.4428 246.853 65.3006 246.998 65.1598C247.544 64.6928 248.061 64.1979 248.509 63.6319C248.644 63.4841 248.779 63.3363 248.912 63.1871C249.15 62.9195 249.388 62.6518 249.625 62.3842C249.754 62.2322 249.885 62.0802 250.014 61.9283C250.167 61.761 250.322 61.5937 250.475 61.425C250.601 61.3149 250.728 61.2047 250.855 61.0932C251.038 61.0416 251.223 60.9901 251.407 60.9385C251.63 61.0012 251.886 60.9259 252.082 61.0988C252.136 61.1434 252.191 61.188 252.243 61.2326C252.257 61.2633 252.281 61.2731 252.313 61.2619C252.698 61.6286 253.084 61.9952 253.469 62.3618C253.678 62.6853 253.947 62.9515 254.246 63.1885C255.459 64.4683 256.677 65.7453 257.986 66.9289C258.476 67.4503 258.953 67.9828 259.455 68.4917C261.782 70.8449 264.115 73.1912 266.448 75.5388C266.805 75.9333 267.149 76.3418 267.523 76.7196C271.508 80.7416 275.068 85.0772 277.517 90.2353C277.631 90.5699 277.753 90.9003 277.987 91.175C278.747 93.2884 279.547 95.3865 279.996 97.5976C281.969 107.313 280.158 116.087 273.423 123.57C269.922 127.459 265.568 130.087 260.605 131.712C260.545 131.736 260.491 131.778 260.431 131.81Z" fill="#51D6B1"/>
        <path d="M259.746 102.348C259.947 102.649 260.271 102.745 260.531 102.925C262.418 104.236 263.151 106.066 262.663 108.316C262.575 108.723 262.464 109.126 262.339 109.523C261.33 112.734 259.241 114.315 255.875 114.426C254.644 114.467 253.419 114.401 252.207 114.171C251.64 114.064 251.322 114.174 251.178 114.817C250.904 116.037 250.508 117.229 250.211 118.444C250.07 119.017 249.813 119.145 249.278 118.935C248.719 118.715 248.144 118.518 247.561 118.38C247.002 118.248 246.882 117.99 247.04 117.446C247.394 116.222 247.668 114.974 248.026 113.752C248.161 113.287 248.025 113.142 247.599 113.039C245.797 112.606 245.8 112.596 245.322 114.425C245.089 115.321 244.841 116.216 244.623 117.117C244.525 117.52 244.351 117.641 243.939 117.505C243.281 117.286 242.61 117.095 241.936 116.936C241.454 116.821 241.373 116.575 241.495 116.13C241.84 114.854 242.132 113.565 242.489 112.293C242.636 111.778 242.481 111.609 241.988 111.486C240.415 111.099 238.859 110.639 237.287 110.251C236.688 110.103 236.612 109.857 236.869 109.332C237.246 108.563 237.582 107.771 237.9 106.975C238.052 106.597 238.252 106.491 238.643 106.608C239.175 106.769 239.716 106.9 240.26 107.01C241.12 107.184 241.542 106.93 241.749 106.093C242.823 101.726 243.893 97.3585 244.951 92.988C245.193 91.9899 244.773 91.3067 243.796 91.0349C243.216 90.8732 242.633 90.724 242.044 90.5944C241.634 90.5037 241.447 90.3406 241.589 89.8806C241.822 89.1278 242.019 88.3638 242.201 87.5971C242.302 87.176 242.498 87.1217 242.899 87.2262C244.51 87.6514 246.136 88.0209 247.748 88.4489C248.304 88.5966 248.58 88.5255 248.716 87.8954C248.981 86.6728 249.359 85.4766 249.642 84.2568C249.76 83.7438 249.977 83.6295 250.458 83.7828C251.03 83.9668 251.616 84.1188 252.205 84.2373C252.728 84.3432 252.802 84.6123 252.668 85.0807C252.326 86.2852 252.038 87.5037 251.684 88.704C251.548 89.1668 251.697 89.3076 252.121 89.4177C253.919 89.882 253.918 89.8931 254.353 88.1073C254.562 87.2513 254.779 86.3967 254.964 85.5366C255.066 85.0668 255.278 84.9343 255.745 85.0933C256.357 85.3024 256.984 85.4766 257.615 85.6244C258.113 85.7401 258.233 85.9827 258.096 86.4692C257.752 87.696 257.469 88.941 257.114 90.165C256.972 90.6557 257.087 90.8676 257.567 91.0265C258.87 91.4573 260.114 92.0205 261.219 92.8542C262.95 94.1605 263.677 95.8654 263.303 98.0319C262.958 100.034 262.009 101.535 259.996 102.203C259.911 102.232 259.837 102.295 259.746 102.348ZM252.309 110.282C252.937 110.286 253.56 110.271 254.169 110.089C255.23 109.773 255.932 109.118 256.201 108.015C256.471 106.904 256.119 106.009 255.305 105.259C254.822 104.814 254.264 104.484 253.673 104.212C252.145 103.512 250.5 103.198 248.886 102.787C248.541 102.699 248.445 102.858 248.374 103.155C247.925 105.05 247.467 106.943 246.998 108.833C246.917 109.161 246.941 109.344 247.322 109.431C248.968 109.806 250.599 110.278 252.309 110.282ZM253.738 100.343C254.016 100.343 254.296 100.367 254.572 100.339C256.166 100.182 257.135 99.2754 257.232 97.8227C257.314 96.6141 256.65 95.8111 255.7 95.206C254.328 94.3333 252.756 94.0001 251.214 93.5889C250.893 93.5024 250.815 93.6893 250.752 93.9416C250.332 95.6744 249.912 97.4073 249.475 99.1374C249.395 99.451 249.45 99.5974 249.782 99.6825C251.083 100.016 252.38 100.364 253.738 100.343Z" fill="white"/>
        <circle cx="254.385" cy="440.575" r="43.2836" fill="#EDF0F4"/>
        <path d="M263.183 475.377C263.005 475.437 262.827 475.495 262.648 475.555C259.768 476.291 256.85 476.673 253.872 476.509C252.997 476.46 252.121 476.42 251.245 476.376C251.116 476.284 250.971 476.269 250.82 476.287C247.554 475.886 244.376 475.15 241.355 473.809C241.273 473.772 241.178 473.767 241.089 473.747C240.947 473.666 240.807 473.584 240.665 473.503C237.858 472.159 235.376 470.358 233.165 468.174C232.981 467.981 232.799 467.789 232.615 467.596C230.764 465.529 229.256 463.225 227.926 460.797C227.878 460.701 227.831 460.605 227.782 460.507C226.747 458.269 225.862 455.978 225.349 453.557C225.365 453.396 225.317 453.257 225.219 453.131C225.09 451.683 224.837 450.247 224.809 448.787C224.777 447.07 224.933 445.369 225.148 443.67C225.251 443.442 225.248 443.205 225.222 442.964C225.677 441.241 226.053 439.497 226.644 437.812C228.013 433.912 229.92 430.299 232.363 426.968C232.595 426.652 232.808 426.32 233.03 425.997C233.311 425.754 233.539 425.467 233.727 425.148C234.205 424.583 234.684 424.021 235.161 423.455C237.056 421.204 239.191 419.181 241.224 417.059C241.413 416.875 241.602 416.693 241.79 416.509C243.272 415.063 244.751 413.62 246.23 412.176C246.368 412.038 246.506 411.9 246.644 411.762C247.579 410.938 248.458 410.057 249.314 409.15C249.459 409.01 249.605 408.867 249.75 408.727C250.296 408.26 250.813 407.765 251.261 407.199C251.396 407.051 251.531 406.903 251.664 406.754C251.902 406.486 252.14 406.219 252.377 405.951C252.506 405.799 252.637 405.647 252.766 405.495C252.919 405.328 253.074 405.161 253.227 404.992C253.353 404.882 253.48 404.772 253.607 404.66C253.79 404.609 253.975 404.557 254.159 404.505C254.382 404.568 254.638 404.493 254.834 404.666C254.888 404.71 254.942 404.755 254.995 404.8C255.009 404.83 255.033 404.84 255.065 404.829C255.45 405.195 255.836 405.562 256.221 405.929C256.43 406.252 256.699 406.518 256.998 406.755C258.211 408.035 259.429 409.312 260.738 410.496C261.228 411.017 261.705 411.55 262.207 412.059C264.534 414.412 266.867 416.758 269.2 419.106C269.557 419.5 269.901 419.909 270.275 420.287C274.26 424.308 277.82 428.644 280.269 433.802C280.383 434.137 280.505 434.467 280.739 434.742C281.499 436.855 282.299 438.953 282.748 441.164C284.721 450.88 282.91 459.654 276.175 467.136C272.674 471.026 268.32 473.654 263.357 475.279C263.297 475.303 263.243 475.345 263.183 475.377Z" fill="#51D6B1"/>
        <path d="M262.499 445.914C262.699 446.215 263.023 446.312 263.283 446.492C265.17 447.802 265.903 449.632 265.415 451.882C265.327 452.29 265.216 452.692 265.091 453.09C264.082 456.3 261.993 457.881 258.627 457.993C257.396 458.033 256.172 457.968 254.96 457.738C254.392 457.63 254.075 457.74 253.93 458.383C253.656 459.603 253.261 460.795 252.963 462.011C252.822 462.584 252.565 462.712 252.03 462.501C251.471 462.281 250.896 462.084 250.313 461.946C249.754 461.814 249.634 461.556 249.792 461.012C250.146 459.788 250.421 458.541 250.778 457.318C250.913 456.854 250.777 456.709 250.351 456.606C248.549 456.172 248.552 456.162 248.075 457.991C247.841 458.888 247.593 459.783 247.375 460.683C247.277 461.086 247.103 461.208 246.691 461.071C246.033 460.852 245.363 460.661 244.688 460.502C244.206 460.388 244.126 460.141 244.247 459.696C244.592 458.421 244.884 457.131 245.241 455.86C245.388 455.344 245.233 455.175 244.741 455.053C243.167 454.665 241.611 454.205 240.039 453.817C239.44 453.67 239.364 453.423 239.621 452.899C239.998 452.129 240.334 451.337 240.652 450.541C240.804 450.164 241.004 450.058 241.395 450.175C241.927 450.335 242.468 450.466 243.012 450.576C243.872 450.75 244.294 450.497 244.501 449.659C245.575 445.293 246.645 440.925 247.703 436.554C247.945 435.556 247.525 434.873 246.548 434.601C245.968 434.44 245.385 434.29 244.796 434.161C244.386 434.07 244.199 433.907 244.341 433.447C244.574 432.694 244.771 431.93 244.953 431.163C245.054 430.742 245.25 430.688 245.651 430.793C247.262 431.218 248.889 431.587 250.5 432.015C251.056 432.163 251.332 432.092 251.468 431.462C251.733 430.239 252.111 429.043 252.394 427.823C252.512 427.31 252.729 427.196 253.21 427.349C253.782 427.533 254.368 427.685 254.957 427.804C255.48 427.91 255.554 428.179 255.42 428.647C255.078 429.852 254.79 431.07 254.436 432.27C254.3 432.733 254.449 432.874 254.873 432.984C256.671 433.448 256.67 433.46 257.105 431.674C257.314 430.818 257.531 429.963 257.716 429.103C257.818 428.633 258.031 428.501 258.497 428.66C259.109 428.869 259.736 429.043 260.367 429.191C260.865 429.307 260.985 429.549 260.848 430.036C260.505 431.262 260.221 432.507 259.866 433.731C259.724 434.222 259.839 434.434 260.319 434.593C261.622 435.024 262.866 435.587 263.971 436.421C265.702 437.727 266.429 439.432 266.055 441.598C265.71 443.6 264.761 445.102 262.748 445.769C262.663 445.799 262.589 445.861 262.499 445.914ZM255.061 453.848C255.689 453.852 256.312 453.837 256.922 453.656C257.982 453.339 258.685 452.684 258.953 451.581C259.223 450.47 258.871 449.575 258.057 448.825C257.574 448.381 257.016 448.05 256.425 447.778C254.897 447.078 253.252 446.765 251.638 446.354C251.293 446.266 251.197 446.425 251.126 446.722C250.677 448.616 250.219 450.509 249.75 452.4C249.669 452.727 249.693 452.91 250.074 452.998C251.72 453.373 253.351 453.844 255.061 453.848ZM256.49 443.91C256.768 443.91 257.048 443.933 257.324 443.905C258.918 443.748 259.887 442.842 259.984 441.389C260.066 440.18 259.403 439.377 258.452 438.772C257.08 437.9 255.508 437.567 253.966 437.155C253.645 437.069 253.567 437.256 253.504 437.508C253.084 439.241 252.664 440.974 252.227 442.704C252.147 443.017 252.202 443.164 252.534 443.249C253.835 443.582 255.132 443.931 256.49 443.91Z" fill="white"/>
        <path d="M414.44 335.368C408.659 358.369 385.174 372.367 361.983 366.631C338.802 360.897 324.691 337.6 330.474 314.601C336.252 291.597 359.738 277.598 382.921 283.333C406.11 289.067 420.221 312.367 414.439 335.369L414.44 335.368H414.44Z" fill="#F3BA2F"/>
        <g clip-path="url(#clip3_4_4308)">
            <path d="M372.33 295.764L379.597 303.147L361.297 321.3L354.029 314.091L372.33 295.764Z" fill="white" stroke="white" stroke-width="0.17782"/>
            <path d="M383.362 306.708L390.63 314.091L361.297 343.188L354.029 335.979L383.362 306.708Z" fill="white" stroke="white" stroke-width="0.17782"/>
            <path d="M350.267 317.653L357.535 325.036L350.267 332.245L343 325.036L350.267 317.653Z" fill="white" stroke="white" stroke-width="0.17782"/>
            <path d="M394.396 317.653L401.663 325.036L372.33 354.132L365.062 346.923L394.396 317.653Z" fill="white" stroke="white" stroke-width="0.17782"/>
        </g>
        <path d="M421.708 357.489C419.348 366.881 409.757 372.597 400.286 370.255C390.819 367.913 385.056 358.4 387.418 349.009C389.778 339.616 399.369 333.899 408.837 336.241C418.307 338.582 424.069 348.097 421.708 357.489L421.708 357.489H421.708Z" fill="white"/>
        <path fill-rule="evenodd" clip-rule="evenodd" d="M404.565 346.843L399.988 351.383L399.988 351.382L397.325 348.741L404.565 341.56L411.807 348.743L409.144 351.385L404.565 346.843ZM395.444 350.606L392.781 353.248L395.444 355.889L398.107 353.247L395.444 350.606ZM399.988 355.113L404.565 359.653L409.144 355.111L411.809 357.751L411.808 357.752L404.565 364.935L397.325 357.755L397.321 357.751L399.988 355.113ZM413.686 350.608L411.022 353.249L413.686 355.891L416.349 353.249L413.686 350.608Z" fill="#F3BA2F"/>
        <path d="M407.266 353.247H407.267L404.565 350.566L402.568 352.547V352.547L402.338 352.775L401.865 353.244L401.861 353.248L401.865 353.251L404.565 355.93L407.267 353.25L407.269 353.248L407.266 353.247" fill="#F3BA2F"/>
        <g filter="url(#filter0_b_4_4308)">
            <rect x="329.299" y="501.307" width="501.307" height="187.736" transform="rotate(-90 329.299 501.307)" fill="url(#paint0_linear_4_4308)"/>
        </g>
        <g filter="url(#filter1_b_4_4308)">
            <rect width="501.307" height="172.677" transform="matrix(-4.57825e-08 -1 -1 4.1734e-08 168.669 501.307)" fill="url(#paint1_linear_4_4308)"/>
        </g>
    </g>
    <defs>
        <filter id="filter0_b_4_4308" x="328.299" y="-1" width="189.736" height="503.307" filterUnits="userSpaceOnUse" color-interpolation-filters="sRGB">
            <feFlood flood-opacity="0" result="BackgroundImageFix"/>
            <feGaussianBlur in="BackgroundImageFix" stdDeviation="0.5"/>
            <feComposite in2="SourceAlpha" operator="in" result="effect1_backgroundBlur_4_4308"/>
            <feBlend mode="normal" in="SourceGraphic" in2="effect1_backgroundBlur_4_4308" result="shape"/>
        </filter>
        <filter id="filter1_b_4_4308" x="-5.008" y="-1" width="174.677" height="503.307" filterUnits="userSpaceOnUse" color-interpolation-filters="sRGB">
            <feFlood flood-opacity="0" result="BackgroundImageFix"/>
            <feGaussianBlur in="BackgroundImageFix" stdDeviation="0.5"/>
            <feComposite in2="SourceAlpha" operator="in" result="effect1_backgroundBlur_4_4308"/>
            <feBlend mode="normal" in="SourceGraphic" in2="effect1_backgroundBlur_4_4308" result="shape"/>
        </filter>
        <linearGradient id="paint0_linear_4_4308" x1="579.953" y1="501.307" x2="579.953" y2="689.043" gradientUnits="userSpaceOnUse">
            <stop stop-color="#16202C" stop-opacity="0"/>
            <stop offset="1" stop-color="#16202C"/>
        </linearGradient>
        <linearGradient id="paint1_linear_4_4308" x1="250.653" y1="0" x2="250.653" y2="172.677" gradientUnits="userSpaceOnUse">
            <stop stop-color="#16202C" stop-opacity="0"/>
            <stop offset="1" stop-color="#16202C"/>
        </linearGradient>
        <clipPath id="clip0_4_4308">
            <rect width="508" height="502" fill="white"/>
        </clipPath>
        <clipPath id="clip1_4_4308">
            <rect width="35.3483" height="35.3483" fill="white" transform="translate(143.788 336.15)"/>
        </clipPath>
        <clipPath id="clip2_4_4308">
            <rect width="58.9138" height="59.0907" fill="white" transform="translate(465.156 67.4312)"/>
        </clipPath>
        <clipPath id="clip3_4_4308">
            <rect width="58.9138" height="58.6141" fill="white" transform="translate(342.884 295.644)"/>
        </clipPath>
    </defs>
</svg>

