<svg width="1440" height="740" viewBox="0 0 1440 740" fill="none" xmlns="http://www.w3.org/2000/svg">
    <g clip-path="url(#clip0_3_568)">
        <g filter="url(#filter0_f_3_568)">
            <path d="M454 408.323C520.274 408.323 574 354.597 574 288.323C574 222.049 520.274 168.323 454 168.323C387.726 168.323 334 222.049 334 288.323C334 354.597 387.726 408.323 454 408.323Z" fill="#20F1C0" fill-opacity="0.41"/>
            <path d="M211.5 481.323C278.05 481.323 332 427.373 332 360.823C332 294.273 278.05 240.323 211.5 240.323C144.95 240.323 91 294.273 91 360.823C91 427.373 144.95 481.323 211.5 481.323Z" fill="#0074BC" fill-opacity="0.4"/>
        </g>
        <path d="M640 -1.677H155C78.2324 -1.677 16 60.5554 16 137.323V529.323C16 606.091 78.2324 668.323 155 668.323H640C716.768 668.323 779 606.091 779 529.323V137.323C779 60.5554 716.768 -1.677 640 -1.677Z" fill="#16212D" fill-opacity="0.5"/>
        <path d="M604.433 534.073L498.016 595.513C494.429 597.584 493.2 602.171 495.271 605.758C497.342 609.345 501.929 610.574 505.516 608.503L611.933 547.064C615.52 544.993 616.749 540.406 614.678 536.819C612.607 533.231 608.02 532.002 604.433 534.073Z" fill="url(#paint0_linear_3_568)"/>
        <path d="M605.637 570.377L428.29 672.769C425.368 674.456 424.367 678.191 426.054 681.113C427.741 684.035 431.477 685.036 434.398 683.349L611.746 580.957C614.667 579.27 615.668 575.535 613.982 572.613C612.295 569.691 608.559 568.69 605.637 570.377Z" fill="url(#paint1_linear_3_568)"/>
        <path d="M318.491 -32.4011L188.867 42.4377C186.731 43.6706 185.999 46.4012 187.232 48.5366C188.465 50.672 191.196 51.4037 193.331 50.1708L322.956 -24.668C325.091 -25.9009 325.823 -28.6314 324.59 -30.7669C323.357 -32.9023 320.627 -33.634 318.491 -32.4011Z" fill="url(#paint2_linear_3_568)"/>
        <mask id="mask0_3_568" style="mask-type:alpha" maskUnits="userSpaceOnUse" x="731" y="-19" width="671" height="758">
            <rect x="731" y="-19" width="670.358" height="757.051" fill="#D9D9D9"/>
        </mask>
        <g mask="url(#mask0_3_568)">
            <path d="M881.844 154.544C875.44 180.23 849.425 195.861 823.736 189.456C798.059 183.053 782.427 157.036 788.833 131.352C795.234 105.664 821.249 90.0312 846.93 96.4347C872.616 102.838 888.247 128.858 881.843 154.545L881.844 154.544Z" fill="#F7931A"/>
            <path fill-rule="evenodd" clip-rule="evenodd" d="M856.48 136.115C857.434 129.734 852.576 126.304 845.934 124.016L848.089 115.373L842.827 114.062L840.73 122.478C839.346 122.133 837.926 121.808 836.514 121.486L838.627 113.015L833.369 111.704L831.213 120.344C830.069 120.083 828.944 119.826 827.854 119.554L827.86 119.527L820.604 117.715L819.205 123.335C819.205 123.335 823.108 124.229 823.026 124.284C825.156 124.816 825.542 126.227 825.478 127.344L823.023 137.191C823.17 137.228 823.36 137.282 823.57 137.366L823.417 137.328L823.417 137.328C823.288 137.296 823.153 137.262 823.014 137.229L819.573 151.022C819.313 151.67 818.652 152.641 817.163 152.272C817.215 152.348 813.339 151.318 813.339 151.318L810.727 157.34L817.573 159.047C818.323 159.235 819.063 159.428 819.797 159.619L819.797 159.619L819.799 159.62C820.311 159.753 820.819 159.886 821.324 160.015L819.147 168.757L824.402 170.068L826.558 161.419C827.994 161.808 829.387 162.168 830.751 162.507L828.602 171.115L833.864 172.426L836.041 163.701C845.012 165.398 851.758 164.714 854.598 156.599C856.886 150.066 854.484 146.297 849.764 143.84C853.202 143.047 855.791 140.786 856.482 136.115L856.48 136.114L856.48 136.115ZM844.459 152.971C842.967 158.965 833.585 156.487 829.292 155.353C828.906 155.251 828.561 155.16 828.266 155.087L831.155 143.505C831.514 143.595 831.953 143.693 832.449 143.805C836.89 144.801 845.987 146.843 844.459 152.971H844.459ZM833.34 138.429C836.919 139.384 844.726 141.468 846.086 136.02H846.086C847.475 130.448 839.887 128.768 836.182 127.948C835.765 127.855 835.397 127.774 835.097 127.699L832.477 138.203C832.725 138.265 833.015 138.342 833.34 138.429Z" fill="white"/>
            <path d="M1035.14 708.508C1028.74 734.193 1002.72 749.825 977.029 743.42C951.349 737.017 935.715 711 942.122 685.316C948.524 659.628 974.542 643.995 1000.23 650.399C1025.91 656.802 1041.55 682.822 1035.14 708.508L1035.14 708.508Z" fill="#F7931A"/>
            <path fill-rule="evenodd" clip-rule="evenodd" d="M1009.78 690.079C1010.73 683.698 1005.87 680.268 999.229 677.98L1001.38 669.337L996.122 668.026L994.024 676.442C992.641 676.097 991.221 675.772 989.809 675.449L991.922 666.978L986.663 665.667L984.507 674.308C983.362 674.047 982.238 673.79 981.147 673.518L981.153 673.491L973.897 671.679L972.497 677.299C972.497 677.299 976.401 678.193 976.319 678.248C978.45 678.78 978.835 680.19 978.771 681.308L976.316 691.155C976.463 691.192 976.653 691.246 976.863 691.33L976.71 691.292C976.58 691.26 976.445 691.226 976.307 691.193L972.866 704.986C972.605 705.633 971.945 706.605 970.455 706.236C970.508 706.312 966.63 705.282 966.63 705.282L964.018 711.304L970.865 713.011C971.615 713.199 972.356 713.392 973.089 713.583L973.09 713.583L973.092 713.584C973.604 713.717 974.112 713.85 974.617 713.979L972.44 722.721L977.695 724.032L979.852 715.383C981.287 715.772 982.681 716.132 984.045 716.471L981.896 725.079L987.158 726.39L989.335 717.664C998.308 719.362 1005.05 718.678 1007.89 710.563C1010.18 704.03 1007.78 700.261 1003.06 697.804C1006.5 697.011 1009.09 694.75 1009.78 690.079L1009.78 690.078L1009.78 690.079ZM997.754 706.935C996.262 712.929 986.879 710.451 982.585 709.317C982.199 709.215 981.854 709.124 981.56 709.051L984.449 697.469C984.808 697.559 985.246 697.657 985.743 697.768C990.184 698.765 999.283 700.807 997.754 706.935H997.754ZM986.634 692.393C990.213 693.348 998.022 695.432 999.381 689.984H999.382C1000.77 684.412 993.182 682.732 989.476 681.912C989.059 681.819 988.691 681.738 988.391 681.663L985.771 692.167C986.018 692.229 986.309 692.306 986.634 692.393Z" fill="white"/>
            <path d="M879.446 431.125C873.043 456.81 847.028 472.442 821.339 466.037C795.661 459.633 780.03 433.616 786.436 407.933C792.837 382.245 818.852 366.612 844.532 373.015C870.219 379.419 885.85 405.438 879.446 431.125L879.446 431.125Z" fill="#F7931A"/>
            <path fill-rule="evenodd" clip-rule="evenodd" d="M854.082 412.695C855.037 406.315 850.179 402.885 843.536 400.597L845.691 391.954L840.43 390.643L838.332 399.058C836.949 398.713 835.529 398.388 834.117 398.066L836.23 389.595L830.972 388.284L828.816 396.924C827.671 396.664 826.547 396.406 825.456 396.135L825.462 396.108L818.207 394.296L816.808 399.915C816.808 399.915 820.711 400.81 820.629 400.865C822.759 401.397 823.144 402.807 823.081 403.925L820.626 413.771C820.773 413.809 820.963 413.863 821.173 413.947L821.02 413.909L821.02 413.909C820.89 413.876 820.755 413.843 820.617 413.809L817.176 427.603C816.916 428.25 816.255 429.221 814.765 428.853C814.818 428.929 810.941 427.898 810.941 427.898L808.329 433.921L815.176 435.628C815.925 435.816 816.666 436.009 817.399 436.2L817.4 436.2L817.402 436.2C817.914 436.334 818.422 436.466 818.927 436.595L816.75 445.338L822.005 446.649L824.161 437.999C825.597 438.389 826.99 438.748 828.354 439.087L826.205 447.696L831.467 449.007L833.644 440.281C842.615 441.979 849.361 441.295 852.2 433.18C854.488 426.646 852.087 422.878 847.367 420.421C850.804 419.628 853.394 417.367 854.084 412.696L854.083 412.695L854.082 412.695ZM842.062 429.552C840.57 435.546 831.187 433.068 826.895 431.934C826.508 431.832 826.163 431.741 825.869 431.668L828.758 420.086C829.117 420.175 829.555 420.274 830.052 420.385C834.492 421.382 843.59 423.423 842.062 429.552H842.062ZM830.943 415.01C834.521 415.965 842.329 418.049 843.689 412.601H843.689C845.078 407.029 837.49 405.349 833.784 404.528C833.367 404.436 833 404.355 832.699 404.28L830.08 414.784C830.327 414.846 830.617 414.923 830.943 415.01Z" fill="white"/>
            <g clip-path="url(#clip1_3_568)">
                <path d="M845.731 453.798C845.731 453.058 845.731 452.319 845.731 451.58C845.736 451.583 845.741 451.587 845.746 451.59C845.747 451.59 845.751 451.586 845.752 451.583C845.757 451.555 845.764 451.527 845.765 451.499C845.817 450.585 845.934 449.68 846.118 448.783C846.814 445.403 848.295 442.408 850.566 439.809C852.626 437.452 855.112 435.687 858.016 434.515C859.634 433.862 861.311 433.441 863.043 433.241C863.42 433.198 863.797 433.165 864.176 433.144C864.203 433.142 864.248 433.164 864.257 433.111C864.958 433.111 865.66 433.111 866.361 433.111C866.357 433.116 866.353 433.12 866.351 433.126C866.35 433.126 866.355 433.131 866.358 433.131C866.389 433.136 866.42 433.144 866.451 433.145C866.763 433.161 867.074 433.189 867.384 433.221C868.693 433.357 869.975 433.622 871.228 434.023C874.623 435.111 877.513 436.985 879.894 439.636C881.757 441.709 883.111 444.078 883.961 446.733C884.368 448.001 884.638 449.298 884.776 450.623C884.809 450.946 884.837 451.269 884.854 451.594C884.856 451.621 884.834 451.666 884.887 451.675C884.887 452.351 884.887 453.026 884.887 453.702C884.884 453.7 884.882 453.698 884.879 453.696C884.877 453.695 884.873 453.692 884.873 453.693C884.848 453.723 884.855 453.759 884.853 453.793C884.794 454.909 884.643 456.013 884.385 457.099C883.352 461.447 881.105 465.042 877.655 467.877C875.477 469.667 873.011 470.909 870.284 471.629C869.39 471.865 868.483 472.034 867.564 472.137C867.194 472.179 866.823 472.214 866.451 472.233C866.426 472.235 866.385 472.216 866.38 472.266C865.666 472.266 864.952 472.266 864.239 472.266C864.242 472.262 864.246 472.257 864.248 472.252C864.249 472.251 864.244 472.246 864.242 472.246C864.214 472.241 864.186 472.234 864.158 472.232C863.429 472.191 862.706 472.107 861.986 471.985C860.269 471.693 858.621 471.18 857.045 470.442C854.454 469.23 852.23 467.532 850.378 465.352C848.802 463.498 847.612 461.422 846.811 459.124C846.341 457.775 846.025 456.391 845.861 454.972C845.819 454.609 845.786 454.244 845.765 453.878C845.763 453.851 845.784 453.807 845.731 453.798ZM866.459 450.682C866.481 450.637 866.494 450.608 866.508 450.58C867.882 447.878 869.256 445.175 870.63 442.473C870.665 442.405 870.695 442.335 870.713 442.261C870.789 441.95 870.601 441.708 870.29 441.72C870.114 441.727 869.952 441.785 869.817 441.901C867.833 443.61 865.85 445.32 863.866 447.029C862.271 448.404 860.675 449.778 859.08 451.153C858.293 451.831 857.507 452.51 856.723 453.191C856.571 453.322 856.433 453.469 856.339 453.65C856.223 453.875 856.288 454.03 856.528 454.108C856.648 454.147 856.771 454.154 856.895 454.154C859.276 454.154 861.656 454.154 864.036 454.154C864.165 454.154 864.165 454.154 864.105 454.273C862.862 456.738 861.618 459.203 860.376 461.669C860.242 461.936 860.092 462.196 859.986 462.476C859.92 462.65 859.871 462.828 859.893 463.017C859.923 463.27 860.09 463.393 860.34 463.347C860.626 463.294 860.855 463.133 861.066 462.946C862.867 461.362 864.667 459.775 866.467 458.19C868.169 456.69 869.871 455.191 871.573 453.691C872.381 452.98 873.19 452.269 873.998 451.557C874.13 451.441 874.256 451.318 874.345 451.165C874.469 450.952 874.409 450.799 874.172 450.726C874.062 450.693 873.948 450.682 873.832 450.682C871.417 450.682 869.002 450.682 866.587 450.682C866.549 450.682 866.511 450.682 866.459 450.682Z" fill="#6A20F1"/>
                <path d="M866.459 450.682C866.511 450.682 866.549 450.682 866.587 450.682C869.002 450.682 871.417 450.682 873.832 450.682C873.948 450.682 874.062 450.693 874.172 450.726C874.409 450.799 874.469 450.952 874.345 451.165C874.256 451.318 874.13 451.441 873.998 451.557C873.19 452.269 872.381 452.98 871.573 453.691C869.871 455.191 868.169 456.69 866.467 458.19C864.667 459.776 862.868 461.362 861.066 462.946C860.855 463.133 860.626 463.294 860.34 463.347C860.09 463.393 859.923 463.27 859.893 463.017C859.871 462.828 859.92 462.65 859.986 462.476C860.092 462.196 860.242 461.936 860.376 461.669C861.618 459.203 862.862 456.738 864.105 454.273C864.165 454.154 864.165 454.154 864.036 454.154C861.656 454.154 859.276 454.154 856.895 454.154C856.771 454.154 856.648 454.147 856.528 454.108C856.288 454.03 856.223 453.875 856.339 453.65C856.433 453.469 856.571 453.322 856.723 453.191C857.507 452.51 858.294 451.831 859.08 451.153C860.675 449.778 862.271 448.404 863.866 447.029C865.85 445.32 867.833 443.61 869.817 441.901C869.952 441.785 870.114 441.727 870.29 441.72C870.601 441.708 870.789 441.949 870.713 442.261C870.695 442.335 870.665 442.405 870.63 442.473C869.256 445.175 867.882 447.878 866.508 450.58C866.494 450.609 866.481 450.637 866.459 450.682Z" fill="#FEFEFE"/>
            </g>
            <circle cx="1145.12" cy="142.946" r="47.9458" fill="#EDF0F4"/>
            <path d="M1144.99 114.178L1144.61 115.474V153.065L1144.99 153.445L1162.44 143.131L1144.99 114.178Z" fill="#343434"/>
            <path d="M1144.99 114.178L1127.54 143.131L1144.99 153.445V135.2V114.178Z" fill="#8C8C8C"/>
            <path d="M1144.99 156.749L1144.77 157.011V170.401L1144.99 171.029L1162.45 146.44L1144.99 156.749Z" fill="#3C3C3B"/>
            <path d="M1144.99 171.029V156.749L1127.54 146.44L1144.99 171.029Z" fill="#8C8C8C"/>
            <path d="M1144.99 153.445L1162.44 143.131L1144.99 135.2V153.445Z" fill="#141414"/>
            <path d="M1127.54 143.131L1144.99 153.445V135.2L1127.54 143.131Z" fill="#393939"/>
            <circle cx="1145.12" cy="699.307" r="47.9458" fill="#EDF0F4"/>
            <path d="M1144.99 670.539L1144.61 671.835V709.425L1144.99 709.806L1162.44 699.492L1144.99 670.539Z" fill="#343434"/>
            <path d="M1144.99 670.539L1127.54 699.492L1144.99 709.806V691.56V670.539Z" fill="#8C8C8C"/>
            <path d="M1144.99 713.11L1144.77 713.372V726.762L1144.99 727.39L1162.45 702.801L1144.99 713.11Z" fill="#3C3C3B"/>
            <path d="M1144.99 727.39V713.11L1127.54 702.801L1144.99 727.39Z" fill="#8C8C8C"/>
            <path d="M1144.99 709.806L1162.44 699.492L1144.99 691.561V709.806Z" fill="#141414"/>
            <path d="M1127.54 699.492L1144.99 709.806V691.561L1127.54 699.492Z" fill="#393939"/>
            <path d="M1346.5 154.544C1340.1 180.23 1314.09 195.861 1288.4 189.456C1262.72 183.053 1247.09 157.036 1253.49 131.352C1259.9 105.664 1285.91 90.0312 1311.59 96.4347C1337.28 102.838 1352.91 128.858 1346.5 154.545L1346.5 154.544H1346.5Z" fill="#F3BA2F"/>
            <g clip-path="url(#clip2_3_568)">
                <path d="M1299.86 110.317L1307.91 118.561L1287.64 138.833L1279.59 130.783L1299.86 110.317Z" fill="white" stroke="white" stroke-width="0.17782"/>
                <path d="M1312.08 122.539L1320.13 130.783L1287.64 163.276L1279.59 155.226L1312.08 122.539Z" fill="white" stroke="white" stroke-width="0.17782"/>
                <path d="M1275.42 134.76L1283.47 143.005L1275.42 151.055L1267.37 143.005L1275.42 134.76Z" fill="white" stroke="white" stroke-width="0.17782"/>
                <path d="M1324.3 134.76L1332.35 143.005L1299.86 175.498L1291.81 167.447L1324.3 134.76Z" fill="white" stroke="white" stroke-width="0.17782"/>
            </g>
            <path d="M1346.52 710.905C1340.11 736.59 1314.09 752.222 1288.4 745.817C1262.72 739.413 1247.09 713.397 1253.49 687.713C1259.9 662.025 1285.91 646.392 1311.6 652.796C1337.29 659.199 1352.92 685.219 1346.51 710.905L1346.52 710.905H1346.52Z" fill="#F3BA2F"/>
            <g clip-path="url(#clip3_3_568)">
                <path d="M1299.86 666.678L1307.92 674.922L1287.64 695.194L1279.59 687.143L1299.86 666.678Z" fill="white" stroke="white" stroke-width="0.17782"/>
                <path d="M1312.09 678.899L1320.14 687.144L1287.64 719.637L1279.59 711.586L1312.09 678.899Z" fill="white" stroke="white" stroke-width="0.17782"/>
                <path d="M1275.42 691.121L1283.47 699.366L1275.42 707.416L1267.37 699.366L1275.42 691.121Z" fill="white" stroke="white" stroke-width="0.17782"/>
                <path d="M1324.31 691.121L1332.36 699.366L1299.86 731.859L1291.81 723.808L1324.31 691.121Z" fill="white" stroke="white" stroke-width="0.17782"/>
            </g>
            <path fill-rule="evenodd" clip-rule="evenodd" d="M988.632 328.783C962.262 328.783 940.686 307.208 940.686 280.599C940.926 254.229 962.262 232.654 988.872 232.894C1015.24 233.133 1036.58 254.469 1036.58 281.318C1036.34 307.448 1015 328.783 988.632 328.783" fill="#FC070C"/>
            <path fill-rule="evenodd" clip-rule="evenodd" d="M1022.79 270.694C1021.48 269.485 1019.97 268.012 1018.39 266.478L1018.39 266.478C1016.17 264.322 1013.82 262.043 1011.75 260.206L1011.54 260.059C1011.19 259.778 1010.8 259.559 1010.38 259.408L1008.78 259.11L1008.78 259.11L1008.78 259.11C997.748 257.052 962.005 250.383 961.27 250.473C961.052 250.503 960.844 250.582 960.661 250.703L960.462 250.861C960.217 251.11 960.03 251.411 959.917 251.742L959.864 251.878V252.623V252.738C962.291 259.495 968.595 274.586 974.416 288.52L974.416 288.521L974.416 288.521C979.337 300.301 983.913 311.254 985.508 315.646L985.508 315.647C985.718 316.298 986.117 317.534 986.861 317.596H987.029C987.427 317.596 989.126 315.352 989.126 315.352C989.126 315.352 1019.5 278.518 1022.57 274.595C1022.97 274.112 1023.32 273.592 1023.62 273.043C1023.78 272.169 1023.46 271.277 1022.79 270.694ZM996.919 274.983L1009.88 264.233L1017.49 271.239L996.919 274.983ZM969.566 255.989L991.884 274.281L1005.68 262.649L969.566 255.989ZM993.898 279.074L1016.74 275.392L990.626 306.857L993.898 279.074ZM990.018 277.742L966.535 257.814L986.619 306.878L990.018 277.742Z" fill="white"/>
            <circle cx="1300" cy="280.837" r="47.9458" fill="#EDF0F4"/>
            <path d="M1314.39 271.208C1313.37 270.62 1312.05 270.62 1310.89 271.208L1302.71 276.059L1297.16 279.147L1289.12 283.998C1288.1 284.586 1286.79 284.586 1285.62 283.998L1279.34 280.176C1278.32 279.588 1277.59 278.412 1277.59 277.089V269.738C1277.59 268.562 1278.17 267.386 1279.34 266.65L1285.62 262.975C1286.64 262.387 1287.96 262.387 1289.12 262.975L1295.4 266.798C1296.43 267.386 1297.16 268.562 1297.16 269.885V274.736L1302.71 271.502V266.503C1302.71 265.327 1302.12 264.151 1300.95 263.416L1289.27 256.506C1288.25 255.918 1286.93 255.918 1285.76 256.506L1273.79 263.563C1272.62 264.151 1272.04 265.327 1272.04 266.503V280.323C1272.04 281.499 1272.62 282.675 1273.79 283.41L1285.62 290.32C1286.64 290.908 1287.96 290.908 1289.12 290.32L1297.16 285.615L1302.71 282.381L1310.74 277.677C1311.76 277.089 1313.08 277.089 1314.24 277.677L1320.52 281.352C1321.55 281.94 1322.28 283.116 1322.28 284.439V291.79C1322.28 292.966 1321.69 294.142 1320.52 294.877L1314.39 298.553C1313.37 299.141 1312.05 299.141 1310.89 298.553L1304.6 294.877C1303.58 294.289 1302.85 293.113 1302.85 291.79V287.086L1297.3 290.32V295.171C1297.3 296.347 1297.89 297.524 1299.06 298.259L1310.89 305.168C1311.91 305.756 1313.22 305.756 1314.39 305.168L1326.22 298.259C1327.24 297.671 1327.97 296.495 1327.97 295.171V281.205C1327.97 280.029 1327.39 278.853 1326.22 278.118L1314.39 271.208Z" fill="#8247E5"/>
            <circle cx="835.343" cy="702.501" r="47.9458" fill="#EDF0F4"/>
            <path d="M849.729 692.872C848.707 692.284 847.392 692.284 846.224 692.872L838.045 697.724L832.495 700.811L824.462 705.662C823.44 706.25 822.126 706.25 820.957 705.662L814.677 701.84C813.655 701.252 812.925 700.076 812.925 698.753V691.402C812.925 690.226 813.509 689.05 814.677 688.315L820.957 684.639C821.98 684.051 823.294 684.051 824.462 684.639L830.743 688.462C831.765 689.05 832.495 690.226 832.495 691.549V696.4L838.045 693.166V688.168C838.045 686.991 837.461 685.815 836.292 685.08L824.608 678.171C823.586 677.582 822.272 677.582 821.103 678.171L809.127 685.227C807.959 685.815 807.375 686.991 807.375 688.168V701.987C807.375 703.163 807.959 704.339 809.127 705.074L820.957 711.984C821.98 712.572 823.294 712.572 824.462 711.984L832.495 707.279L838.045 704.045L846.078 699.341C847.1 698.753 848.414 698.753 849.583 699.341L855.863 703.016C856.885 703.604 857.616 704.78 857.616 706.103V713.454C857.616 714.63 857.031 715.806 855.863 716.541L849.729 720.217C848.707 720.805 847.392 720.805 846.224 720.217L839.944 716.541C838.921 715.953 838.191 714.777 838.191 713.454V708.75L832.641 711.984V716.835C832.641 718.012 833.225 719.188 834.394 719.923L846.224 726.832C847.246 727.42 848.561 727.42 849.729 726.832L861.559 719.923C862.581 719.335 863.311 718.159 863.311 716.835V702.869C863.311 701.693 862.727 700.517 861.559 699.782L849.729 692.872Z" fill="#8247E5"/>
            <circle cx="988.632" cy="559.018" r="47.9458" fill="black"/>
            <path d="M1013.09 537.731L1004.96 541.875L965.677 561.883C965.544 560.87 965.477 559.849 965.477 558.827C965.488 550.532 969.889 542.863 977.046 538.669C984.203 534.475 993.045 534.383 1000.29 538.428L1004.94 536.056L1005.64 535.701C996.941 529.389 985.438 528.488 975.865 533.37C966.291 538.251 960.265 548.09 960.266 558.836C960.266 559.564 960.294 560.289 960.349 561.011C960.507 563.102 959.394 565.084 957.525 566.036L955.07 567.288V573.127L962.298 569.443V569.443L964.639 568.248L966.946 567.073V567.073L1008.36 545.974L1013.01 543.604L1022.63 538.703V532.866L1013.09 537.731Z" fill="white"/>
            <path d="M1022.63 544.545L969.298 571.698L964.645 574.073L955.07 578.952V584.786L964.579 579.941L972.714 575.797L1012.03 555.761C1012.17 556.78 1012.23 557.808 1012.23 558.836C1012.23 567.141 1007.82 574.821 1000.66 579.017C993.488 583.212 984.634 583.294 977.39 579.233L977.104 579.384L972.056 581.956C980.751 588.269 992.252 589.172 1001.83 584.294C1011.4 579.416 1017.43 569.581 1017.43 558.836C1017.43 558.102 1017.4 557.367 1017.35 556.641C1017.19 554.551 1018.3 552.57 1020.17 551.616L1022.63 550.364V544.545Z" fill="white"/>
            <path d="M834.943 329.581C861.643 329.581 883.287 307.936 883.287 281.236C883.287 254.536 861.643 232.892 834.943 232.892C808.243 232.892 786.598 254.536 786.598 281.236C786.598 307.936 808.243 329.581 834.943 329.581Z" fill="#EDB72C"/>
            <path d="M818.692 294.1C820.393 291.237 822.039 288.518 823.625 285.764C824.018 285.083 824.458 284.79 825.253 284.842C826.338 284.912 827.431 284.871 828.521 284.852C829.023 284.843 829.24 285.019 829.238 285.55C829.225 291.055 829.221 296.561 829.235 302.066C829.237 302.622 828.994 302.744 828.511 302.739C827.164 302.721 825.815 302.706 824.468 302.742C823.818 302.759 823.631 302.51 823.639 301.885C823.668 299.68 823.651 297.475 823.651 294.999C823.369 295.418 823.213 295.626 823.08 295.849C822.175 297.379 821.265 298.904 820.381 300.446C820.099 300.939 819.748 301.074 819.167 301.161C817.608 301.397 816.767 300.723 816.096 299.4C815.415 298.056 814.531 296.814 813.547 295.562C813.547 296.515 813.547 297.466 813.547 298.419C813.547 299.623 813.573 300.829 813.53 302.032C813.521 302.264 813.258 302.682 813.101 302.685C811.421 302.734 809.738 302.715 807.967 302.715C807.967 302.31 807.967 302.028 807.967 301.748C807.967 296.443 807.985 291.138 807.948 285.834C807.942 285.009 808.218 284.806 808.978 284.845C810.007 284.9 811.044 284.895 812.074 284.845C812.726 284.814 813.106 285.026 813.449 285.602C815.014 288.237 816.631 290.842 818.233 293.456C818.348 293.641 818.487 293.813 818.692 294.1Z" fill="black"/>
            <path d="M835.777 302.725C835.777 301.607 835.777 300.609 835.777 299.611C835.777 296.63 835.751 293.649 835.796 290.67C835.808 289.856 835.529 289.639 834.76 289.677C833.616 289.734 832.467 289.682 831.322 289.694C830.892 289.7 830.596 289.615 830.601 289.096C830.611 287.725 830.604 286.354 830.604 284.904C831.015 284.885 831.322 284.857 831.628 284.855C836.444 284.852 841.259 284.869 846.076 284.833C846.913 284.826 847.184 285.091 847.127 285.912C847.063 286.825 847.06 287.749 847.134 288.661C847.204 289.524 846.857 289.741 846.053 289.708C844.717 289.653 843.377 289.693 841.932 289.693C841.932 290.135 841.932 290.47 841.932 290.806C841.934 294.475 841.918 298.144 841.951 301.812C841.958 302.524 841.743 302.756 841.027 302.737C839.317 302.694 837.604 302.725 835.777 302.725Z" fill="black"/>
            <path d="M862.536 297.905C862.536 299.45 862.562 300.85 862.504 302.247C862.497 302.417 862.039 302.699 861.785 302.706C859.978 302.746 858.172 302.725 856.366 302.727C854.044 302.727 851.721 302.71 849.399 302.742C848.694 302.753 848.395 302.61 848.401 301.801C848.439 296.469 848.436 291.138 848.401 285.805C848.396 285.036 848.618 284.813 849.37 284.842C850.801 284.895 852.238 284.887 853.67 284.845C854.367 284.825 854.608 285.024 854.601 285.762C854.565 289.488 854.601 293.216 854.572 296.942C854.567 297.666 854.739 297.945 855.525 297.926C857.813 297.872 860.104 297.905 862.536 297.905Z" fill="black"/>
            <path d="M850.055 274.23C850.055 275.797 850.022 277.254 850.068 278.707C850.091 279.409 849.883 279.709 849.157 279.648C848.598 279.602 848.032 279.64 847.387 279.64C847.387 279.225 847.387 278.943 847.387 278.661C847.387 273.361 847.404 268.059 847.366 262.76C847.361 261.951 847.602 261.736 848.383 261.765C851.014 261.862 853.67 261.7 856.275 261.997C860.775 262.512 863.064 266.835 861.16 270.867C860.525 272.212 859.402 273.015 857.998 273.678C859.363 275.628 860.691 277.524 862.142 279.6C861.033 279.6 860.159 279.631 859.29 279.576C859.105 279.564 858.912 279.26 858.767 279.057C857.734 277.613 856.722 276.153 855.674 274.72C855.513 274.5 855.198 274.261 854.949 274.254C853.373 274.209 851.797 274.23 850.055 274.23ZM850.049 268.004C850.053 268.004 850.055 268.004 850.058 268.004C850.058 269.093 850.032 270.182 850.079 271.269C850.089 271.491 850.373 271.889 850.526 271.887C852.41 271.852 854.321 271.93 856.17 271.636C858.09 271.331 859.093 269.85 859.037 268.018C858.977 265.992 857.971 264.666 855.948 264.409C854.169 264.184 852.353 264.251 850.552 264.241C850.385 264.239 850.08 264.614 850.07 264.825C850.022 265.883 850.049 266.945 850.049 268.004Z" fill="black"/>
            <path d="M810.894 277.22C814.022 277.22 816.999 277.211 819.979 277.232C820.347 277.233 821.006 277.342 821.03 277.485C821.135 278.119 821.081 278.785 821.019 279.435C821.011 279.52 820.631 279.626 820.421 279.626C816.552 279.637 812.682 279.626 808.813 279.637C808.298 279.638 808.12 279.456 808.121 278.931C808.135 273.458 808.135 267.984 808.12 262.51C808.118 261.937 808.35 261.774 808.889 261.776C812.614 261.789 816.34 261.795 820.068 261.774C820.658 261.771 820.797 262.006 820.784 262.539C820.734 264.439 821.021 264.205 819.162 264.215C816.667 264.227 814.175 264.234 811.68 264.21C811.099 264.205 810.865 264.365 810.887 264.982C810.927 266.155 810.92 267.334 810.875 268.507C810.85 269.173 811.056 269.401 811.749 269.389C814.07 269.35 816.394 269.401 818.714 269.362C819.451 269.35 819.805 269.549 819.702 270.323C819.679 270.492 819.686 270.669 819.707 270.838C819.791 271.534 819.518 271.796 818.792 271.782C816.7 271.744 814.606 271.761 812.515 271.775C810.664 271.787 810.915 271.498 810.898 273.43C810.886 274.655 810.894 275.881 810.894 277.22Z" fill="black"/>
            <path d="M838.591 261.915C838.706 261.861 838.731 261.841 838.758 261.837C841.19 261.507 841.204 261.507 841.189 263.924C841.166 267.077 841.266 270.241 841.044 273.38C840.764 277.352 838.177 279.629 834.196 279.781C832.538 279.844 830.919 279.695 829.447 278.864C827.071 277.524 826.185 275.293 826.106 272.743C826.001 269.361 826.085 265.976 826.058 262.591C826.053 261.939 826.295 261.758 826.92 261.77C829.178 261.812 828.783 261.533 828.803 263.618C828.826 266.112 828.805 268.608 828.807 271.104C828.807 271.62 828.802 272.138 828.829 272.652C829.041 276.561 832.572 278.623 836.095 276.879C837.705 276.081 838.381 274.624 838.43 272.936C838.524 269.64 838.498 266.343 838.528 263.045C838.529 262.649 838.571 262.259 838.591 261.915Z" fill="black"/>
            <path d="M1190.82 292.436C1184.42 318.121 1158.4 333.753 1132.71 327.348C1107.03 320.944 1091.4 294.927 1097.81 269.244C1104.21 243.556 1130.22 227.923 1155.9 234.326C1181.59 240.73 1197.22 266.75 1190.82 292.436L1190.82 292.436H1190.82Z" fill="#50AF95"/>
            <path fill-rule="evenodd" clip-rule="evenodd" d="M1150.39 286.273V286.273C1150.05 286.299 1148.29 286.403 1144.39 286.403C1141.28 286.403 1139.07 286.31 1138.3 286.273V286.273C1126.29 285.745 1117.33 283.654 1117.33 281.151C1117.33 278.648 1126.29 276.56 1138.3 276.024V284.191C1139.08 284.248 1141.33 284.38 1144.44 284.38C1148.17 284.38 1150.04 284.225 1150.37 284.194V276.029C1162.36 276.563 1171.3 278.654 1171.3 281.151C1171.3 283.649 1162.36 285.739 1150.37 286.27V286.27L1150.39 286.273ZM1150.39 275.184V267.876H1167.11V256.73H1121.57V267.876H1138.3V275.182C1124.7 275.806 1114.48 278.498 1114.48 281.725C1114.48 284.951 1124.7 287.641 1138.3 288.268V311.688H1150.38V288.259C1163.94 287.635 1174.15 284.945 1174.15 281.722C1174.15 278.498 1163.95 275.809 1150.38 275.182V275.182L1150.39 275.184Z" fill="white"/>
            <circle cx="1174.28" cy="311.603" r="19.5779" fill="#1A78F3"/>
            <path d="M1174.23 299.856L1174.08 300.385V315.735L1174.23 315.89L1181.36 311.678L1174.23 299.856Z" fill="white"/>
            <path d="M1174.23 299.856L1167.11 311.678L1174.23 315.89V308.44V299.856Z" fill="white"/>
            <path d="M1174.23 317.239L1174.14 317.346V322.814L1174.23 323.07L1181.36 313.029L1174.23 317.239Z" fill="white"/>
            <path d="M1174.23 323.07V317.239L1167.11 313.029L1174.23 323.07Z" fill="white"/>
            <path d="M1174.23 315.89L1181.36 311.678L1174.23 308.439V315.89Z" fill="white"/>
            <path d="M1167.11 311.678L1174.23 315.89V308.439L1167.11 311.678Z" fill="white"/>
            <path d="M880.245 573.811C873.842 599.496 847.827 615.128 822.138 608.723C796.46 602.319 780.829 576.302 787.235 550.619C793.636 524.931 819.651 509.298 845.332 515.701C871.018 522.105 886.649 548.125 880.245 573.811L880.245 573.811H880.245Z" fill="#50AF95"/>
            <path fill-rule="evenodd" clip-rule="evenodd" d="M839.812 567.648V567.648C839.473 567.674 837.721 567.778 833.814 567.778C830.706 567.778 828.5 567.685 827.726 567.648V567.648C815.716 567.12 806.752 565.029 806.752 562.526C806.752 560.023 815.716 557.935 827.726 557.399V565.566C828.511 565.623 830.76 565.755 833.868 565.755C837.597 565.755 839.464 565.6 839.801 565.569V557.404C851.785 557.938 860.729 560.029 860.729 562.526C860.729 565.024 851.788 567.114 839.801 567.645V567.645L839.812 567.648ZM839.812 556.559V549.251H856.537V538.105H811.001V549.251H827.723V556.557C814.131 557.181 803.91 559.873 803.91 563.1C803.91 566.326 814.131 569.016 827.723 569.643V593.063H839.809V569.634C853.37 569.01 863.574 566.32 863.574 563.097C863.574 559.873 853.378 557.184 839.809 556.557V556.557L839.812 556.559Z" fill="white"/>
            <path fill-rule="evenodd" clip-rule="evenodd" d="M864.51 612.556C853.742 612.556 844.932 603.746 844.932 592.88C845.03 582.113 853.742 573.303 864.608 573.401C875.376 573.499 884.088 582.211 884.088 593.174C883.99 603.844 875.278 612.556 864.51 612.556" fill="#FC070C"/>
            <path fill-rule="evenodd" clip-rule="evenodd" d="M878.459 588.836C877.925 588.343 877.306 587.741 876.66 587.114L876.66 587.114L876.66 587.114L876.66 587.114C875.753 586.234 874.795 585.304 873.95 584.553L873.864 584.493C873.722 584.379 873.561 584.289 873.389 584.228L872.736 584.106C868.233 583.266 853.638 580.542 853.337 580.579C853.249 580.591 853.164 580.624 853.089 580.673L853.008 580.737C852.907 580.839 852.831 580.962 852.785 581.097L852.763 581.153V581.457V581.504C853.754 584.263 856.328 590.425 858.705 596.115C860.715 600.925 862.583 605.398 863.234 607.191L863.235 607.192C863.32 607.458 863.483 607.962 863.787 607.988H863.855C864.018 607.988 864.712 607.071 864.712 607.071C864.712 607.071 877.115 592.031 878.369 590.429C878.532 590.232 878.675 590.02 878.798 589.795C878.861 589.438 878.733 589.074 878.459 588.836ZM867.894 590.588L873.187 586.198L876.292 589.059L867.894 590.588ZM856.725 582.832L865.838 590.301L871.47 585.551L856.725 582.832ZM866.661 592.258L875.988 590.755L865.324 603.603L866.661 592.258ZM865.076 591.714L855.487 583.577L863.688 603.611L865.076 591.714Z" fill="white"/>
            <path d="M1034.33 430.327C1027.93 456.013 1001.91 471.645 976.226 465.239C950.548 458.836 934.917 432.819 941.323 407.136C947.724 381.447 973.739 365.814 999.42 372.218C1025.11 378.621 1040.74 404.641 1034.33 430.328L1034.33 430.327H1034.33Z" fill="#50AF95"/>
            <path fill-rule="evenodd" clip-rule="evenodd" d="M993.9 424.164V424.164C993.561 424.19 991.809 424.294 987.902 424.294C984.794 424.294 982.588 424.201 981.814 424.164V424.164C969.804 423.636 960.84 421.545 960.84 419.042C960.84 416.539 969.804 414.451 981.814 413.915V422.082C982.599 422.139 984.848 422.271 987.956 422.271C991.685 422.271 993.553 422.116 993.889 422.085V413.92C1005.87 414.454 1014.82 416.545 1014.82 419.042C1014.82 421.54 1005.88 423.63 993.889 424.161V424.161L993.9 424.164ZM993.9 413.076V405.767H1010.62V394.622H965.089V405.767H981.811V413.073C968.219 413.697 957.998 416.39 957.998 419.616C957.998 422.842 968.219 425.532 981.811 426.159V449.58H993.897V426.15C1007.46 425.526 1017.66 422.837 1017.66 419.613C1017.66 416.39 1007.47 413.7 993.897 413.073V413.073L993.9 413.076Z" fill="white"/>
            <circle cx="1018.6" cy="449.494" r="19.5779" fill="#EDF0F4"/>
            <path d="M1024.47 445.562C1024.05 445.321 1023.52 445.321 1023.04 445.562L1019.7 447.543L1017.44 448.803L1014.16 450.784C1013.74 451.024 1013.2 451.024 1012.72 450.784L1010.16 449.224C1009.74 448.983 1009.44 448.503 1009.44 447.963V444.961C1009.44 444.481 1009.68 444.001 1010.16 443.701L1012.72 442.2C1013.14 441.96 1013.68 441.96 1014.16 442.2L1016.72 443.761C1017.14 444.001 1017.44 444.481 1017.44 445.021V447.002L1019.7 445.682V443.641C1019.7 443.16 1019.46 442.68 1018.99 442.38L1014.21 439.559C1013.8 439.318 1013.26 439.318 1012.78 439.559L1007.89 442.44C1007.42 442.68 1007.18 443.16 1007.18 443.641V449.284C1007.18 449.764 1007.42 450.244 1007.89 450.544L1012.72 453.366C1013.14 453.606 1013.68 453.606 1014.16 453.366L1017.44 451.445L1019.7 450.124L1022.98 448.203C1023.4 447.963 1023.94 447.963 1024.41 448.203L1026.98 449.704C1027.39 449.944 1027.69 450.424 1027.69 450.964V453.966C1027.69 454.446 1027.45 454.926 1026.98 455.227L1024.47 456.727C1024.05 456.968 1023.52 456.968 1023.04 456.727L1020.48 455.227C1020.06 454.986 1019.76 454.506 1019.76 453.966V452.045L1017.49 453.366V455.347C1017.49 455.827 1017.73 456.307 1018.21 456.607L1023.04 459.429C1023.46 459.669 1024 459.669 1024.47 459.429L1029.3 456.607C1029.72 456.367 1030.02 455.887 1030.02 455.347V449.644C1030.02 449.163 1029.78 448.683 1029.3 448.383L1024.47 445.562Z" fill="#8247E5"/>
            <path d="M1345.71 430.327C1339.3 456.013 1313.29 471.645 1287.6 465.239C1261.92 458.836 1246.29 432.819 1252.7 407.136C1259.1 381.447 1285.11 365.814 1310.79 372.218C1336.48 378.621 1352.11 404.641 1345.71 430.328L1345.71 430.327H1345.71Z" fill="#50AF95"/>
            <path fill-rule="evenodd" clip-rule="evenodd" d="M1305.27 424.164V424.164C1304.93 424.19 1303.18 424.294 1299.27 424.294C1296.17 424.294 1293.96 424.201 1293.19 424.164V424.164C1281.18 423.636 1272.21 421.545 1272.21 419.042C1272.21 416.539 1281.18 414.451 1293.19 413.915V422.082C1293.97 422.139 1296.22 422.271 1299.33 422.271C1303.06 422.271 1304.92 422.116 1305.26 422.085V413.92C1317.25 414.454 1326.19 416.545 1326.19 419.042C1326.19 421.54 1317.25 423.63 1305.26 424.161V424.161L1305.27 424.164ZM1305.27 413.076V405.767H1322V394.622H1276.46V405.767H1293.18V413.073C1279.59 413.697 1269.37 416.39 1269.37 419.616C1269.37 422.842 1279.59 425.532 1293.18 426.159V449.58H1305.27V426.15C1318.83 425.526 1329.03 422.837 1329.03 419.613C1329.03 416.39 1318.84 413.7 1305.27 413.073V413.073L1305.27 413.076Z" fill="white"/>
            <circle cx="1328.37" cy="449.494" r="19.5779" fill="#EDF0F4"/>
            <path d="M1332.28 463.996C1332.2 464.022 1332.13 464.046 1332.05 464.072C1330.83 464.384 1329.59 464.546 1328.33 464.477C1327.95 464.456 1327.58 464.439 1327.21 464.42C1327.16 464.381 1327.09 464.375 1327.03 464.383C1325.64 464.212 1324.29 463.9 1323.01 463.33C1322.98 463.315 1322.94 463.313 1322.9 463.304C1322.84 463.27 1322.78 463.235 1322.72 463.201C1321.53 462.63 1320.47 461.866 1319.54 460.938C1319.46 460.857 1319.38 460.775 1319.3 460.693C1318.52 459.816 1317.88 458.838 1317.31 457.807C1317.29 457.766 1317.27 457.726 1317.25 457.684C1316.81 456.734 1316.44 455.761 1316.22 454.734C1316.22 454.665 1316.2 454.606 1316.16 454.553C1316.11 453.938 1316 453.329 1315.99 452.709C1315.97 451.98 1316.04 451.258 1316.13 450.537C1316.18 450.44 1316.17 450.34 1316.16 450.237C1316.36 449.506 1316.52 448.765 1316.77 448.05C1317.35 446.395 1318.16 444.861 1319.19 443.447C1319.29 443.313 1319.38 443.172 1319.48 443.035C1319.6 442.932 1319.69 442.81 1319.77 442.674C1319.98 442.434 1320.18 442.196 1320.38 441.956C1321.19 441 1322.09 440.141 1322.96 439.241C1323.04 439.163 1323.12 439.085 1323.2 439.007C1323.83 438.393 1324.45 437.781 1325.08 437.168C1325.14 437.109 1325.2 437.05 1325.26 436.992C1325.65 436.642 1326.03 436.268 1326.39 435.883C1326.45 435.824 1326.51 435.763 1326.58 435.704C1326.81 435.505 1327.03 435.295 1327.22 435.055C1327.27 434.992 1327.33 434.929 1327.39 434.866C1327.49 434.753 1327.59 434.639 1327.69 434.525C1327.75 434.461 1327.8 434.396 1327.86 434.332C1327.92 434.261 1327.99 434.19 1328.05 434.118C1328.11 434.071 1328.16 434.025 1328.21 433.977C1328.29 433.955 1328.37 433.934 1328.45 433.912C1328.54 433.938 1328.65 433.906 1328.73 433.98C1328.76 433.999 1328.78 434.018 1328.8 434.036C1328.81 434.05 1328.82 434.054 1328.83 434.049C1329 434.205 1329.16 434.36 1329.32 434.516C1329.41 434.653 1329.53 434.766 1329.65 434.867C1330.17 435.41 1330.68 435.952 1331.24 436.455C1331.45 436.676 1331.65 436.902 1331.86 437.118C1332.85 438.117 1333.84 439.113 1334.83 440.109C1334.98 440.277 1335.13 440.45 1335.29 440.611C1336.98 442.318 1338.49 444.158 1339.53 446.348C1339.58 446.49 1339.63 446.63 1339.73 446.747C1340.05 447.644 1340.39 448.535 1340.58 449.473C1341.42 453.597 1340.65 457.322 1337.79 460.498C1336.31 462.149 1334.46 463.265 1332.35 463.955C1332.33 463.965 1332.3 463.982 1332.28 463.996Z" fill="#51D6B1"/>
            <path d="M1331.99 451.49C1332.07 451.617 1332.21 451.658 1332.32 451.735C1333.12 452.291 1333.43 453.068 1333.23 454.023C1333.19 454.196 1333.14 454.367 1333.09 454.535C1332.66 455.898 1331.77 456.569 1330.34 456.617C1329.82 456.634 1329.3 456.606 1328.79 456.509C1328.55 456.463 1328.41 456.51 1328.35 456.783C1328.23 457.3 1328.07 457.806 1327.94 458.322C1327.88 458.566 1327.77 458.62 1327.54 458.531C1327.31 458.437 1327.06 458.354 1326.81 458.295C1326.58 458.239 1326.53 458.129 1326.59 457.899C1326.74 457.379 1326.86 456.849 1327.01 456.33C1327.07 456.133 1327.01 456.072 1326.83 456.028C1326.07 455.844 1326.07 455.84 1325.86 456.616C1325.77 456.997 1325.66 457.377 1325.57 457.759C1325.53 457.93 1325.45 457.981 1325.28 457.923C1325 457.831 1324.71 457.749 1324.43 457.682C1324.22 457.633 1324.19 457.529 1324.24 457.34C1324.39 456.798 1324.51 456.251 1324.66 455.711C1324.72 455.492 1324.66 455.421 1324.45 455.369C1323.78 455.204 1323.12 455.009 1322.45 454.844C1322.2 454.782 1322.17 454.677 1322.28 454.454C1322.44 454.128 1322.58 453.792 1322.71 453.454C1322.78 453.293 1322.86 453.248 1323.03 453.298C1323.25 453.366 1323.48 453.422 1323.72 453.469C1324.08 453.542 1324.26 453.435 1324.35 453.079C1324.8 451.226 1325.26 449.372 1325.71 447.516C1325.81 447.093 1325.63 446.803 1325.22 446.687C1324.97 446.619 1324.72 446.555 1324.47 446.5C1324.3 446.462 1324.22 446.393 1324.28 446.197C1324.38 445.878 1324.46 445.553 1324.54 445.228C1324.58 445.049 1324.67 445.026 1324.84 445.071C1325.52 445.251 1326.21 445.408 1326.89 445.59C1327.13 445.652 1327.25 445.622 1327.3 445.355C1327.42 444.836 1327.58 444.328 1327.7 443.81C1327.75 443.592 1327.84 443.544 1328.04 443.609C1328.29 443.687 1328.54 443.751 1328.79 443.802C1329.01 443.847 1329.04 443.961 1328.98 444.16C1328.84 444.671 1328.71 445.188 1328.56 445.698C1328.51 445.894 1328.57 445.954 1328.75 446.001C1329.51 446.198 1329.51 446.203 1329.7 445.445C1329.79 445.081 1329.88 444.718 1329.96 444.353C1330 444.154 1330.09 444.098 1330.29 444.165C1330.55 444.254 1330.81 444.328 1331.08 444.391C1331.29 444.44 1331.34 444.543 1331.29 444.749C1331.14 445.27 1331.02 445.798 1330.87 446.318C1330.81 446.526 1330.86 446.616 1331.06 446.684C1331.62 446.867 1332.14 447.106 1332.61 447.46C1333.35 448.014 1333.66 448.738 1333.5 449.657C1333.35 450.507 1332.95 451.145 1332.09 451.428C1332.06 451.44 1332.03 451.467 1331.99 451.49ZM1328.83 454.857C1329.1 454.859 1329.36 454.853 1329.62 454.776C1330.07 454.641 1330.37 454.363 1330.48 453.895C1330.6 453.424 1330.45 453.044 1330.1 452.725C1329.9 452.536 1329.66 452.396 1329.41 452.281C1328.76 451.984 1328.06 451.851 1327.38 451.676C1327.23 451.639 1327.19 451.706 1327.16 451.832C1326.97 452.636 1326.77 453.44 1326.58 454.243C1326.54 454.382 1326.55 454.459 1326.71 454.496C1327.41 454.656 1328.1 454.856 1328.83 454.857ZM1329.44 450.639C1329.55 450.639 1329.67 450.649 1329.79 450.637C1330.47 450.57 1330.88 450.185 1330.92 449.569C1330.95 449.056 1330.67 448.715 1330.27 448.458C1329.69 448.087 1329.02 447.946 1328.37 447.771C1328.23 447.735 1328.2 447.814 1328.17 447.921C1327.99 448.657 1327.81 449.392 1327.63 450.127C1327.59 450.26 1327.62 450.322 1327.76 450.358C1328.31 450.5 1328.86 450.647 1329.44 450.639Z" fill="white"/>
            <path d="M1346.5 570.616C1340.1 596.302 1314.09 611.934 1288.4 605.528C1262.72 599.125 1247.09 573.108 1253.49 547.425C1259.9 521.736 1285.91 506.103 1311.59 512.507C1337.28 518.91 1352.91 544.93 1346.5 570.617L1346.5 570.616H1346.5Z" fill="#50AF95"/>
            <path fill-rule="evenodd" clip-rule="evenodd" d="M1306.07 564.453V564.453C1305.73 564.479 1303.98 564.583 1300.07 564.583C1296.97 564.583 1294.76 564.49 1293.99 564.453V564.453C1281.98 563.925 1273.01 561.834 1273.01 559.331C1273.01 556.828 1281.98 554.74 1293.99 554.204V562.371C1294.77 562.428 1297.02 562.561 1300.13 562.561C1303.86 562.561 1305.72 562.405 1306.06 562.374V554.209C1318.04 554.743 1326.99 556.834 1326.99 559.331C1326.99 561.829 1318.05 563.919 1306.06 564.451V564.451L1306.07 564.453ZM1306.07 553.365V546.056H1322.8V534.911H1277.26V546.056H1293.98V553.362C1280.39 553.986 1270.17 556.679 1270.17 559.905C1270.17 563.131 1280.39 565.821 1293.98 566.448V589.869H1306.07V566.44C1319.63 565.815 1329.83 563.126 1329.83 559.902C1329.83 556.679 1319.64 553.989 1306.07 553.362V553.362L1306.07 553.365Z" fill="white"/>
            <path d="M1347.36 594.519C1344.75 605.008 1334.13 611.391 1323.63 608.775C1313.15 606.16 1306.76 595.537 1309.38 585.049C1311.99 574.56 1322.62 568.177 1333.11 570.791C1343.6 573.406 1349.98 584.031 1347.36 594.52L1347.36 594.519H1347.36Z" fill="#F3BA2F"/>
            <path fill-rule="evenodd" clip-rule="evenodd" d="M1328.37 582.631L1323.3 587.7L1323.3 587.7L1320.35 584.751L1328.37 576.731L1336.4 584.753L1333.45 587.703L1328.37 582.631ZM1318.27 586.833L1315.32 589.783L1318.27 592.733L1321.22 589.783L1318.27 586.833ZM1323.3 591.867L1328.37 596.936L1333.45 591.864L1336.4 594.812L1336.4 594.814L1328.37 602.835L1320.35 594.816L1320.35 594.812L1323.3 591.867ZM1338.48 586.835L1335.53 589.785L1338.48 592.734L1341.43 589.784L1338.48 586.835Z" fill="white"/>
            <path d="M1331.37 589.782H1331.37L1328.37 586.789L1326.16 589V589L1325.91 589.254L1325.38 589.779L1325.38 589.783L1325.38 589.787L1328.37 592.778L1331.37 589.785L1331.37 589.783L1331.37 589.782" fill="white"/>
            <circle cx="988.632" cy="142.946" r="47.9458" fill="#EDF0F4"/>
            <path d="M998.378 181.496C998.181 181.562 997.984 181.627 997.786 181.694C994.596 182.509 991.363 182.932 988.065 182.75C987.095 182.696 986.124 182.651 985.155 182.603C985.011 182.501 984.851 182.484 984.683 182.504C981.066 182.06 977.545 181.244 974.199 179.759C974.108 179.719 974.003 179.712 973.904 179.691C973.747 179.601 973.592 179.51 973.434 179.421C970.325 177.932 967.576 175.937 965.126 173.517C964.923 173.304 964.721 173.091 964.518 172.878C962.468 170.587 960.797 168.035 959.323 165.346C959.271 165.24 959.218 165.133 959.165 165.025C958.018 162.545 957.037 160.008 956.469 157.325C956.487 157.148 956.433 156.993 956.325 156.854C956.182 155.25 955.901 153.659 955.871 152.042C955.835 150.14 956.008 148.256 956.247 146.373C956.361 146.122 956.358 145.859 956.328 145.592C956.832 143.683 957.249 141.752 957.904 139.885C959.42 135.565 961.532 131.563 964.239 127.873C964.496 127.523 964.732 127.155 964.977 126.797C965.288 126.528 965.541 126.21 965.749 125.857C966.279 125.231 966.81 124.609 967.338 123.982C969.438 121.488 971.802 119.247 974.054 116.897C974.264 116.693 974.473 116.491 974.681 116.287C976.323 114.685 977.961 113.087 979.6 111.487C979.752 111.334 979.905 111.181 980.058 111.029C981.093 110.116 982.068 109.14 983.015 108.136C983.176 107.98 983.338 107.823 983.498 107.667C984.104 107.149 984.675 106.601 985.172 105.974C985.321 105.811 985.471 105.647 985.619 105.482C985.882 105.185 986.146 104.889 986.408 104.592C986.551 104.424 986.696 104.255 986.84 104.087C987.009 103.902 987.18 103.717 987.35 103.53C987.49 103.408 987.63 103.286 987.771 103.162C987.974 103.105 988.179 103.048 988.382 102.991C988.629 103.06 988.913 102.977 989.13 103.168C989.19 103.218 989.25 103.267 989.309 103.317C989.324 103.351 989.35 103.361 989.386 103.349C989.813 103.755 990.24 104.161 990.667 104.567C990.898 104.926 991.195 105.221 991.527 105.483C992.871 106.901 994.22 108.315 995.67 109.626C996.213 110.204 996.741 110.794 997.298 111.357C999.875 113.964 1002.46 116.563 1005.04 119.164C1005.44 119.601 1005.82 120.053 1006.23 120.472C1010.65 124.927 1014.59 129.73 1017.3 135.443C1017.43 135.814 1017.57 136.18 1017.83 136.484C1018.67 138.825 1019.55 141.149 1020.05 143.598C1022.24 154.36 1020.23 164.08 1012.77 172.368C1008.89 176.676 1004.07 179.587 998.571 181.388C998.505 181.414 998.444 181.461 998.378 181.496Z" fill="#51D6B1"/>
            <path d="M997.62 148.861C997.842 149.194 998.201 149.301 998.489 149.5C1000.58 150.952 1001.39 152.979 1000.85 155.472C1000.75 155.923 1000.63 156.369 1000.49 156.809C999.374 160.366 997.06 162.117 993.332 162.24C991.968 162.285 990.611 162.212 989.269 161.958C988.64 161.839 988.289 161.961 988.128 162.673C987.825 164.024 987.387 165.344 987.057 166.691C986.901 167.325 986.616 167.468 986.024 167.234C985.405 166.99 984.768 166.773 984.122 166.62C983.503 166.473 983.37 166.187 983.544 165.585C983.937 164.229 984.241 162.847 984.637 161.493C984.787 160.979 984.636 160.818 984.164 160.704C982.168 160.223 982.171 160.213 981.642 162.239C981.383 163.232 981.109 164.223 980.867 165.221C980.759 165.667 980.566 165.801 980.11 165.65C979.381 165.408 978.638 165.196 977.891 165.02C977.357 164.893 977.268 164.62 977.402 164.127C977.784 162.714 978.108 161.286 978.504 159.878C978.666 159.306 978.495 159.119 977.949 158.983C976.206 158.554 974.483 158.045 972.741 157.615C972.078 157.452 971.993 157.178 972.279 156.598C972.696 155.745 973.068 154.868 973.421 153.986C973.589 153.568 973.811 153.45 974.244 153.58C974.833 153.758 975.432 153.903 976.035 154.025C976.987 154.218 977.454 153.937 977.684 153.009C978.874 148.172 980.059 143.334 981.231 138.493C981.499 137.387 981.033 136.63 979.951 136.329C979.309 136.15 978.663 135.985 978.011 135.841C977.556 135.741 977.35 135.56 977.507 135.051C977.764 134.217 977.983 133.37 978.185 132.521C978.296 132.055 978.513 131.994 978.957 132.11C980.742 132.581 982.544 132.991 984.329 133.465C984.945 133.628 985.251 133.55 985.402 132.852C985.694 131.497 986.114 130.172 986.427 128.821C986.558 128.253 986.798 128.126 987.331 128.296C987.965 128.5 988.614 128.668 989.266 128.799C989.845 128.917 989.927 129.215 989.779 129.734C989.4 131.068 989.081 132.418 988.689 133.747C988.538 134.26 988.703 134.416 989.173 134.538C991.165 135.052 991.163 135.064 991.646 133.086C991.877 132.138 992.117 131.191 992.322 130.239C992.435 129.718 992.671 129.572 993.187 129.748C993.865 129.979 994.56 130.172 995.259 130.336C995.81 130.464 995.943 130.733 995.792 131.272C995.411 132.631 995.097 134.01 994.704 135.366C994.546 135.909 994.674 136.144 995.206 136.32C996.649 136.797 998.027 137.421 999.251 138.344C1001.17 139.791 1001.97 141.68 1001.56 144.08C1001.18 146.297 1000.13 147.961 997.896 148.7C997.802 148.733 997.72 148.802 997.62 148.861ZM989.381 157.649C990.077 157.654 990.767 157.637 991.442 157.436C992.617 157.086 993.395 156.36 993.693 155.138C993.992 153.907 993.602 152.916 992.7 152.085C992.165 151.593 991.547 151.227 990.892 150.925C989.199 150.15 987.378 149.803 985.59 149.347C985.207 149.25 985.101 149.426 985.022 149.755C984.525 151.854 984.017 153.951 983.498 156.045C983.409 156.408 983.435 156.61 983.857 156.707C985.681 157.123 987.487 157.645 989.381 157.649ZM990.964 146.64C991.273 146.64 991.582 146.666 991.888 146.636C993.654 146.461 994.727 145.457 994.835 143.848C994.926 142.509 994.19 141.62 993.138 140.95C991.618 139.983 989.876 139.614 988.168 139.158C987.812 139.063 987.726 139.269 987.657 139.549C987.191 141.468 986.726 143.388 986.242 145.304C986.154 145.652 986.214 145.814 986.582 145.908C988.023 146.277 989.46 146.663 990.964 146.64Z" fill="white"/>
            <circle cx="1145.12" cy="561.415" r="47.9458" fill="#EDF0F4"/>
            <path d="M1154.86 599.966C1154.67 600.032 1154.47 600.097 1154.27 600.163C1151.08 600.979 1147.85 601.402 1144.55 601.22C1143.58 601.166 1142.61 601.121 1141.64 601.073C1141.5 600.971 1141.34 600.954 1141.17 600.974C1137.55 600.529 1134.03 599.714 1130.68 598.228C1130.59 598.188 1130.49 598.182 1130.39 598.161C1130.23 598.071 1130.08 597.98 1129.92 597.89C1126.81 596.402 1124.06 594.406 1121.61 591.987C1121.41 591.773 1121.21 591.56 1121 591.347C1118.95 589.057 1117.28 586.504 1115.81 583.816C1115.76 583.709 1115.7 583.603 1115.65 583.495C1114.5 581.015 1113.52 578.477 1112.95 575.795C1112.97 575.617 1112.92 575.463 1112.81 575.324C1112.67 573.72 1112.39 572.129 1112.36 570.512C1112.32 568.61 1112.49 566.726 1112.73 564.843C1112.85 564.592 1112.84 564.329 1112.81 564.062C1113.32 562.153 1113.73 560.221 1114.39 558.354C1115.91 554.035 1118.02 550.032 1120.72 546.343C1120.98 545.992 1121.22 545.625 1121.46 545.267C1121.77 544.998 1122.03 544.68 1122.23 544.326C1122.76 543.701 1123.3 543.078 1123.82 542.452C1125.92 539.958 1128.29 537.717 1130.54 535.366C1130.75 535.163 1130.96 534.96 1131.17 534.756C1132.81 533.155 1134.45 531.557 1136.09 529.957C1136.24 529.804 1136.39 529.651 1136.54 529.498C1137.58 528.586 1138.55 527.61 1139.5 526.606C1139.66 526.45 1139.82 526.292 1139.98 526.136C1140.59 525.619 1141.16 525.071 1141.66 524.444C1141.81 524.28 1141.96 524.117 1142.1 523.951C1142.37 523.655 1142.63 523.358 1142.89 523.062C1143.04 522.894 1143.18 522.725 1143.33 522.557C1143.49 522.372 1143.67 522.186 1143.84 521.999C1143.98 521.877 1144.12 521.755 1144.26 521.632C1144.46 521.575 1144.66 521.518 1144.87 521.46C1145.11 521.53 1145.4 521.447 1145.62 521.638C1145.68 521.687 1145.74 521.737 1145.79 521.786C1145.81 521.82 1145.84 521.831 1145.87 521.819C1146.3 522.225 1146.73 522.631 1147.15 523.037C1147.38 523.395 1147.68 523.69 1148.01 523.953C1149.36 525.371 1150.71 526.785 1152.16 528.096C1152.7 528.674 1153.23 529.264 1153.78 529.827C1156.36 532.434 1158.95 535.033 1161.53 537.633C1161.92 538.07 1162.31 538.523 1162.72 538.941C1167.13 543.397 1171.08 548.199 1173.79 553.913C1173.92 554.284 1174.05 554.65 1174.31 554.954C1175.15 557.295 1176.04 559.619 1176.54 562.068C1178.72 572.83 1176.72 582.55 1169.26 590.838C1165.38 595.146 1160.55 598.057 1155.06 599.858C1154.99 599.884 1154.93 599.93 1154.86 599.966Z" fill="#51D6B1"/>
            <path d="M1154.11 567.331C1154.33 567.664 1154.69 567.771 1154.97 567.97C1157.06 569.421 1157.88 571.449 1157.34 573.942C1157.24 574.392 1157.12 574.839 1156.98 575.279C1155.86 578.835 1153.55 580.586 1149.82 580.71C1148.45 580.755 1147.1 580.682 1145.75 580.427C1145.13 580.308 1144.77 580.43 1144.61 581.142C1144.31 582.494 1143.87 583.814 1143.54 585.161C1143.39 585.795 1143.1 585.937 1142.51 585.704C1141.89 585.46 1141.25 585.242 1140.61 585.089C1139.99 584.943 1139.86 584.657 1140.03 584.055C1140.42 582.699 1140.73 581.317 1141.12 579.963C1141.27 579.448 1141.12 579.288 1140.65 579.173C1138.65 578.693 1138.66 578.682 1138.13 580.708C1137.87 581.701 1137.59 582.693 1137.35 583.69C1137.24 584.137 1137.05 584.271 1136.6 584.12C1135.87 583.877 1135.12 583.666 1134.38 583.49C1133.84 583.363 1133.75 583.09 1133.89 582.597C1134.27 581.184 1134.59 579.756 1134.99 578.347C1135.15 577.776 1134.98 577.589 1134.43 577.453C1132.69 577.024 1130.97 576.514 1129.23 576.085C1128.56 575.921 1128.48 575.648 1128.76 575.067C1129.18 574.215 1129.55 573.338 1129.91 572.456C1130.07 572.037 1130.3 571.92 1130.73 572.05C1131.32 572.227 1131.92 572.373 1132.52 572.495C1133.47 572.688 1133.94 572.407 1134.17 571.478C1135.36 566.642 1136.54 561.804 1137.72 556.962C1137.98 555.857 1137.52 555.1 1136.44 554.799C1135.79 554.62 1135.15 554.455 1134.5 554.311C1134.04 554.211 1133.84 554.03 1133.99 553.52C1134.25 552.686 1134.47 551.84 1134.67 550.991C1134.78 550.524 1135 550.464 1135.44 550.58C1137.23 551.051 1139.03 551.46 1140.81 551.934C1141.43 552.098 1141.74 552.019 1141.89 551.321C1142.18 549.967 1142.6 548.642 1142.91 547.291C1143.04 546.722 1143.28 546.596 1143.82 546.766C1144.45 546.97 1145.1 547.138 1145.75 547.269C1146.33 547.386 1146.41 547.685 1146.26 548.203C1145.89 549.538 1145.57 550.887 1145.17 552.217C1145.02 552.73 1145.19 552.886 1145.66 553.008C1147.65 553.522 1147.65 553.534 1148.13 551.556C1148.36 550.608 1148.6 549.661 1148.81 548.708C1148.92 548.188 1149.16 548.041 1149.67 548.217C1150.35 548.449 1151.05 548.642 1151.74 548.806C1152.3 548.934 1152.43 549.203 1152.28 549.741C1151.9 551.1 1151.58 552.479 1151.19 553.835C1151.03 554.379 1151.16 554.614 1151.69 554.79C1153.13 555.267 1154.51 555.891 1155.74 556.814C1157.65 558.261 1158.46 560.15 1158.05 562.55C1157.66 564.767 1156.61 566.43 1154.38 567.17C1154.29 567.202 1154.21 567.272 1154.11 567.331ZM1145.87 576.119C1146.56 576.124 1147.25 576.107 1147.93 575.906C1149.1 575.555 1149.88 574.829 1150.18 573.608C1150.48 572.377 1150.09 571.386 1149.19 570.555C1148.65 570.062 1148.03 569.696 1147.38 569.395C1145.68 568.62 1143.86 568.273 1142.08 567.817C1141.69 567.72 1141.59 567.896 1141.51 568.225C1141.01 570.323 1140.5 572.42 1139.98 574.514C1139.89 574.877 1139.92 575.08 1140.34 575.177C1142.17 575.592 1143.97 576.114 1145.87 576.119ZM1147.45 565.11C1147.76 565.11 1148.07 565.136 1148.37 565.105C1150.14 564.931 1151.21 563.927 1151.32 562.318C1151.41 560.979 1150.68 560.09 1149.62 559.419C1148.1 558.453 1146.36 558.084 1144.65 557.628C1144.3 557.532 1144.21 557.739 1144.14 558.019C1143.68 559.938 1143.21 561.858 1142.73 563.774C1142.64 564.122 1142.7 564.284 1143.07 564.378C1144.51 564.747 1145.95 565.133 1147.45 565.11Z" fill="white"/>
            <path d="M1187.62 432.245C1181.22 457.723 1155.2 473.229 1129.52 466.875C1103.84 460.523 1088.21 434.716 1094.61 409.24C1101.01 383.759 1127.03 368.252 1152.71 374.604C1178.4 380.956 1194.03 406.766 1187.62 432.245L1187.62 432.245H1187.62Z" fill="#F3BA2F"/>
            <g clip-path="url(#clip4_3_568)">
                <path d="M1140.98 388.374L1149.03 396.552L1128.75 416.66L1120.7 408.675L1140.98 388.374Z" fill="white" stroke="white" stroke-width="0.17782"/>
                <path d="M1153.2 400.497L1161.25 408.675L1128.75 440.906L1120.7 432.92L1153.2 400.497Z" fill="white" stroke="white" stroke-width="0.17782"/>
                <path d="M1116.54 412.621L1124.59 420.799L1116.54 428.784L1108.49 420.799L1116.54 412.621Z" fill="white" stroke="white" stroke-width="0.17782"/>
                <path d="M1165.42 412.621L1173.47 420.799L1140.98 453.03L1132.93 445.044L1165.42 412.621Z" fill="white" stroke="white" stroke-width="0.17782"/>
            </g>
            <path d="M1195.67 456.748C1193.06 467.151 1182.43 473.483 1171.94 470.888C1161.46 468.295 1155.07 457.757 1157.69 447.354C1160.3 436.949 1170.93 430.617 1181.42 433.211C1191.91 435.805 1198.29 446.344 1195.67 456.748L1195.67 456.748H1195.67Z" fill="white"/>
            <path fill-rule="evenodd" clip-rule="evenodd" d="M1176.68 444.955L1171.61 449.984L1171.61 449.983L1168.66 447.057L1176.68 439.103L1184.71 447.06L1181.76 449.986L1176.68 444.955ZM1166.58 449.123L1163.63 452.05L1166.58 454.975L1169.53 452.049L1166.58 449.123ZM1171.61 454.116L1176.68 459.144L1181.76 454.114L1184.71 457.038L1184.71 457.04L1176.68 464.996L1168.66 457.042L1168.66 457.038L1171.61 454.116ZM1186.79 449.125L1183.84 452.051L1186.79 454.977L1189.74 452.051L1186.79 449.125Z" fill="#F3BA2F"/>
            <path d="M1179.68 452.048H1179.68L1176.68 449.079L1174.47 451.273V451.273L1174.22 451.525L1173.69 452.045L1173.69 452.049L1173.69 452.053L1176.68 455.02L1179.68 452.051L1179.68 452.05L1179.68 452.048" fill="#F3BA2F"/>
        </g>
        <g filter="url(#filter1_b_3_568)">
            <rect x="780" y="407" width="645" height="331" fill="url(#paint3_linear_3_568)"/>
        </g>
        <g filter="url(#filter2_b_3_568)">
            <rect x="780" y="407" width="645" height="333" fill="url(#paint4_linear_3_568)"/>
        </g>
    </g>
    <defs>
        <filter id="filter0_f_3_568" x="-29" y="48.3232" width="723" height="553" filterUnits="userSpaceOnUse" color-interpolation-filters="sRGB">
            <feFlood flood-opacity="0" result="BackgroundImageFix"/>
            <feBlend mode="normal" in="SourceGraphic" in2="BackgroundImageFix" result="shape"/>
            <feGaussianBlur stdDeviation="60" result="effect1_foregroundBlur_3_568"/>
        </filter>
        <filter id="filter1_b_3_568" x="779" y="406" width="647" height="333" filterUnits="userSpaceOnUse" color-interpolation-filters="sRGB">
            <feFlood flood-opacity="0" result="BackgroundImageFix"/>
            <feGaussianBlur in="BackgroundImageFix" stdDeviation="0.5"/>
            <feComposite in2="SourceAlpha" operator="in" result="effect1_backgroundBlur_3_568"/>
            <feBlend mode="normal" in="SourceGraphic" in2="effect1_backgroundBlur_3_568" result="shape"/>
        </filter>
        <filter id="filter2_b_3_568" x="779" y="406" width="647" height="335" filterUnits="userSpaceOnUse" color-interpolation-filters="sRGB">
            <feFlood flood-opacity="0" result="BackgroundImageFix"/>
            <feGaussianBlur in="BackgroundImageFix" stdDeviation="0.5"/>
            <feComposite in2="SourceAlpha" operator="in" result="effect1_backgroundBlur_3_568"/>
            <feBlend mode="normal" in="SourceGraphic" in2="effect1_backgroundBlur_3_568" result="shape"/>
        </filter>
        <linearGradient id="paint0_linear_3_568" x1="495.271" y1="605.758" x2="627.03" y2="529.687" gradientUnits="userSpaceOnUse">
            <stop stop-color="#20F1C0" stop-opacity="0"/>
            <stop offset="1" stop-color="#20F1C0" stop-opacity="0.38"/>
        </linearGradient>
        <linearGradient id="paint1_linear_3_568" x1="426.054" y1="681.113" x2="633.422" y2="561.389" gradientUnits="userSpaceOnUse">
            <stop stop-color="#20F1C0" stop-opacity="0"/>
            <stop offset="1" stop-color="#20F1C0" stop-opacity="0.38"/>
        </linearGradient>
        <linearGradient id="paint2_linear_3_568" x1="187.233" y1="48.5369" x2="338.8" y2="-38.9706" gradientUnits="userSpaceOnUse">
            <stop stop-color="#20F1C0" stop-opacity="0"/>
            <stop offset="1" stop-color="#20F1C0" stop-opacity="0.38"/>
        </linearGradient>
        <linearGradient id="paint3_linear_3_568" x1="1102.5" y1="407" x2="1102.5" y2="738" gradientUnits="userSpaceOnUse">
            <stop stop-color="#16202C" stop-opacity="0"/>
            <stop offset="1" stop-color="#16202C"/>
        </linearGradient>
        <linearGradient id="paint4_linear_3_568" x1="1102.5" y1="407" x2="1102.5" y2="740" gradientUnits="userSpaceOnUse">
            <stop stop-color="#16202C" stop-opacity="0"/>
            <stop offset="1" stop-color="#16202C"/>
        </linearGradient>
        <clipPath id="clip0_3_568">
            <rect width="1440" height="740" fill="white"/>
        </clipPath>
        <clipPath id="clip1_3_568">
            <rect width="39.1557" height="39.1557" fill="white" transform="translate(845.731 433.111)"/>
        </clipPath>
        <clipPath id="clip2_3_568">
            <rect width="65.2596" height="65.4555" fill="white" transform="translate(1267.24 110.183)"/>
        </clipPath>
        <clipPath id="clip3_3_568">
            <rect width="65.267" height="65.4555" fill="white" transform="translate(1267.24 666.543)"/>
        </clipPath>
        <clipPath id="clip4_3_568">
            <rect width="65.2596" height="64.9276" fill="white" transform="translate(1108.36 388.241)"/>
        </clipPath>
    </defs>
</svg>


