<svg width="508" height="502" viewBox="0 0 508 502" fill="none" xmlns="http://www.w3.org/2000/svg">
<path d="M430.744 69.9721C430.744 95.3821 408.945 115.981 382.053 115.981C355.162 115.981 333.362 95.3821 333.362 69.9721C333.362 44.562 355.162 23.963 382.053 23.963C408.945 23.963 430.744 44.562 430.744 69.9721Z" fill="#EDF0F4"/>
<path d="M390.74 73.2455L404.088 60.6716C405.09 59.7287 405.652 58.4467 405.648 57.1106L405.671 46.9475C405.67 46.4262 405.457 45.9252 405.075 45.5481L379.468 69.6916C378.463 70.6332 377.897 71.9152 377.897 73.2526C377.897 74.5901 378.463 75.8721 379.468 76.8136L397.523 93.821C398.87 95.0868 400.828 95.5778 402.662 95.109C404.495 94.6401 405.925 93.2827 406.412 91.548C406.899 89.8133 406.369 87.9648 405.023 86.699L390.74 73.2455Z" fill="#008C62"/>
<path d="M403.583 45.0032H363.361C360.109 45.0032 357.708 47.325 357.708 50.4943V90.146C357.69 91.5071 358.254 92.8176 359.273 93.7798C360.292 94.742 361.679 95.2744 363.12 95.256C364.562 95.2794 365.952 94.7485 366.971 93.7851C367.991 92.8217 368.553 91.5083 368.528 90.146V54.7853H395.285L405.083 45.573C404.686 45.1973 404.144 44.9914 403.583 45.0032Z" fill="#00E6A0"/>
<path d="M190.44 79.0844C184.338 102.449 159.55 116.668 135.074 110.841C110.607 105.017 95.7128 81.3509 101.817 57.9886C107.916 34.6219 132.704 20.4018 157.173 26.2266C181.648 32.0514 196.542 55.7192 190.44 79.0844Z" fill="#50AF95"/>
<path fill-rule="evenodd" clip-rule="evenodd" d="M151.914 73.4787C151.591 73.5018 149.922 73.5969 146.199 73.5969C143.238 73.5969 141.135 73.5121 140.398 73.4787C128.954 72.9981 120.413 71.0964 120.413 68.8195C120.413 66.5427 128.954 64.6435 140.398 64.1553V71.5847C141.146 71.6361 143.289 71.7569 146.25 71.7569C149.803 71.7569 151.582 71.6155 151.903 71.5873V64.1604C163.322 64.6461 171.844 66.5478 171.844 68.8195C171.844 71.0913 163.324 72.993 151.903 73.4761L151.914 73.4787ZM151.914 63.392V56.7438H167.85V46.6058H124.462V56.7438H140.395V63.3894C127.444 63.9574 117.705 66.4064 117.705 69.3412C117.705 72.276 127.444 74.7225 140.395 75.293V96.597H151.911V75.2853C164.832 74.7173 174.555 72.2708 174.555 69.3386C174.555 66.4064 164.84 63.96 151.911 63.3894L151.914 63.392Z" fill="white"/>
<path d="M78.3622 434.21C78.3622 458.032 57.6862 477.344 32.1811 477.344C6.67598 477.344 -14 458.032 -14 434.21C-14 410.388 6.67598 391.077 32.1811 391.077C57.6862 391.077 78.3622 410.388 78.3622 434.21Z" fill="white"/>
<path fill-rule="evenodd" clip-rule="evenodd" d="M32.1811 391.077C57.6884 391.077 78.3622 410.386 78.3622 434.21C78.3622 458.034 57.6884 477.344 32.1811 477.344C6.67382 477.344 -14 458.034 -14 434.21C-14 410.386 6.67382 391.077 32.1811 391.077ZM54.2427 413.515C51.5628 411.012 47.16 411.012 44.4801 413.515C42.9009 414.99 42.183 417.091 42.518 419.102C42.6137 419.773 42.5659 420.488 42.2309 421.114C41.8002 421.918 41.0823 422.499 40.2209 422.812C39.3595 423.125 38.3545 423.125 37.4931 422.723C32.5161 420.577 26.5341 421.561 22.6099 425.226C18.6857 428.846 17.6329 434.434 19.9299 439.127C20.3607 439.976 20.3606 440.915 20.0257 441.719C19.7385 442.479 19.1164 443.15 18.2071 443.552C17.7286 443.775 17.25 443.865 16.7236 443.865C16.4843 443.865 16.245 443.82 16.0057 443.775H15.91C13.7565 443.507 11.6508 444.133 10.0716 445.608C8.77949 446.815 8.06164 448.469 8.06164 450.167C8.06164 451.91 8.77949 453.52 10.0716 454.726C12.7515 457.23 17.1543 457.23 19.8342 454.726C21.3656 453.251 22.1313 451.151 21.7485 449.095V448.782C21.7006 448.201 21.8442 447.664 22.0835 447.128C22.4663 446.323 23.1842 445.742 24.0456 445.429C24.907 445.116 25.8641 445.116 26.7734 445.519C31.7504 447.664 37.7324 446.681 41.6566 443.016C45.5808 439.395 46.6336 433.763 44.3365 429.115C43.9537 428.31 43.9058 427.416 44.2408 426.611C44.5758 425.807 45.1979 425.136 46.1072 424.734C46.7772 424.466 47.4472 424.377 48.0693 424.466H48.4043C50.5578 424.734 52.6635 424.108 54.2427 422.633C56.9227 420.13 56.9227 416.018 54.2427 413.515ZM37.6367 429.159C40.6038 431.975 40.6038 436.49 37.6367 439.261C34.6696 442.032 29.8362 442.032 26.8212 439.261C23.8541 436.445 23.8541 431.931 26.8212 429.159C29.8362 426.388 34.6696 426.388 37.6367 429.159ZM56.7791 411.235C60.8469 415.079 60.8469 421.248 56.7791 425.047C55.2477 426.433 53.3813 427.327 51.4671 427.774C54.1949 434.657 52.4242 442.524 46.7772 447.798C42.9009 451.419 37.6845 453.341 32.3725 453.341C29.9797 453.341 27.5869 452.939 25.2898 452.134C24.907 453.967 23.9499 455.754 22.4185 457.185C18.3028 460.984 11.6987 460.984 7.63094 457.185C3.56318 453.341 3.56318 447.173 7.63094 443.373C9.16233 441.943 11.0287 441.049 12.9908 440.691C10.1673 433.763 11.938 425.807 17.585 420.533C23.232 415.258 31.7025 413.604 39.1202 416.197C39.5509 414.409 40.4602 412.666 41.9916 411.235C46.1072 407.436 52.7113 407.436 56.7791 411.235Z" fill="#38A2FF"/>
<path d="M197.831 434.689C197.831 459.305 176.256 479.261 149.642 479.261C123.028 479.261 101.453 459.305 101.453 434.689C101.453 410.073 123.028 390.118 149.642 390.118C176.256 390.118 197.831 410.073 197.831 434.689Z" fill="#EDF0F4"/>
<path d="M130.581 411.661L180.161 442.625L167.899 459.204L118.319 427.996L130.581 411.661Z" fill="url(#paint0_linear_1_2976)"/>
<path d="M180.7 442.687C176.462 448.409 162.159 446.17 148.65 437.214C134.877 428.507 127.461 416.814 131.434 411.091C135.672 405.369 149.975 407.608 163.483 416.565C177.256 425.024 184.673 436.965 180.7 442.687Z" fill="url(#paint1_linear_1_2976)"/>
<path d="M167.844 459.051C163.593 464.735 149.244 462.511 135.692 453.613C122.141 444.715 114.435 433.346 118.686 427.414C122.938 421.729 137.287 423.953 150.838 432.851C164.39 441.749 171.83 453.366 167.844 459.051Z" fill="url(#paint2_linear_1_2976)"/>
<path d="M179.964 442.429L167.696 459.133C163.429 464.782 149.026 462.326 135.424 453.729C132.757 452.009 130.357 450.29 127.957 448.325C129.824 448.079 132.224 447.096 134.624 444.64C138.892 440.464 141.025 439.482 142.892 439.727C144.759 439.727 146.893 441.447 150.36 445.623C153.827 449.798 158.628 451.027 161.562 448.816C161.828 448.57 162.095 448.57 162.362 448.325C164.762 446.605 165.562 445.868 170.096 438.008C171.163 436.043 174.897 432.849 179.964 434.323C181.298 437.516 181.298 440.219 179.964 442.429Z" fill="#0E0F23"/>
<path fill-rule="evenodd" clip-rule="evenodd" d="M177.711 441.812C174 446.745 161.014 444.278 148.558 436.14C135.836 428.001 128.415 417.642 132.126 412.71C135.836 407.777 148.823 410.243 161.279 418.382C173.735 426.521 181.156 436.88 177.711 441.812ZM166.05 434.413C164.194 436.88 157.834 435.646 151.473 431.7C145.377 427.754 141.667 422.575 143.522 420.108C145.377 417.642 151.738 418.875 158.099 422.821C164.194 426.768 167.905 431.947 166.05 434.413Z" fill="white"/>
<path d="M129.473 416.409C129.473 416.203 129.232 415.997 128.991 416.203C128.75 416.409 128.509 416.409 128.509 416.615C128.75 417.232 128.991 417.644 128.991 418.056C128.991 418.261 129.232 418.467 129.473 418.261C129.714 418.261 129.955 418.056 129.714 417.85C129.714 417.438 129.714 417.026 129.473 416.409Z" fill="white"/>
<path d="M131.152 420.183C131.152 419.935 130.89 419.687 130.628 419.935C130.366 420.183 130.366 420.183 130.366 420.431C133.248 426.633 139.273 433.332 147.133 438.293C147.395 438.541 147.657 438.293 147.919 438.293C148.181 438.045 147.919 437.797 147.919 437.549C139.797 432.587 134.034 426.137 131.152 420.183Z" fill="white"/>
<path d="M162.986 444.792C162.739 444.792 162.492 444.792 162.492 445.015C162.492 445.238 162.492 445.461 162.739 445.461C163.48 445.684 164.469 445.906 165.21 446.129C165.457 446.129 165.705 446.129 165.705 445.906C165.705 445.684 165.705 445.461 165.457 445.461C164.716 445.238 163.728 445.015 162.986 444.792Z" fill="white"/>
<path d="M167.827 445.6C167.569 445.6 167.311 445.823 167.311 446.046C167.311 446.269 167.569 446.492 167.827 446.492C169.892 446.715 172.216 446.937 174.023 446.715C174.281 446.715 174.539 446.492 174.539 446.269C174.539 446.046 174.281 445.823 174.023 445.823C171.958 446.046 169.892 445.823 167.827 445.6Z" fill="white"/>
<path d="M311.276 434.21C311.276 458.032 290.6 477.344 265.094 477.344C239.589 477.344 218.913 458.032 218.913 434.21C218.913 410.388 239.589 391.077 265.094 391.077C290.6 391.077 311.276 410.388 311.276 434.21Z" fill="#EDF0F4"/>
<path d="M252.033 412.926L278.253 427.059V441.474L238.155 419.851L251.006 412.926C251.327 412.765 251.712 412.765 252.033 412.926Z" fill="#3CA9E5"/>
<path d="M278.253 412.643L264.884 419.851L278.253 427.059V412.643Z" fill="#2853C3"/>
<path d="M278.253 412.643L291.114 419.568C291.429 419.747 291.624 420.063 291.633 420.406V448.671L278.253 441.474V412.643Z" fill="#1A4199"/>
<path d="M291.622 448.681L278.772 455.606C278.437 455.787 278.025 455.787 277.691 455.606L251.482 441.474V427.038L291.622 448.681Z" fill="#2853C3"/>
<path d="M238.155 419.851V448.116C238.153 448.47 238.35 448.8 238.674 448.984L251.525 455.909V427.038L238.155 419.851Z" fill="#60BEFF"/>
<path d="M251.525 455.889L264.884 448.681L251.525 441.474V455.889Z" fill="#3CA9E5"/>
<path d="M426.728 434.21C426.728 458.032 405.828 477.344 380.045 477.344C354.263 477.344 333.362 458.032 333.362 434.21C333.362 410.388 354.263 391.077 380.045 391.077C405.828 391.077 426.728 410.388 426.728 434.21Z" fill="#0FD297"/>
<path d="M383.017 439.473C383.794 440.451 384.548 441.414 385.413 442.33C386.973 443.979 388.755 445.331 391.072 445.978C392.345 446.333 393.653 446.492 394.97 446.605C395.074 446.613 395.152 446.624 395.211 446.729C395.899 447.943 396.28 449.215 396.101 450.598C396.087 450.706 396.068 450.813 396.046 450.947C396.041 450.974 396.005 450.985 395.984 450.966C395.671 450.682 395.373 450.426 395.048 450.2C393.962 449.444 392.766 448.93 391.388 448.879C389.554 448.811 387.98 449.817 387.335 451.438C386.81 452.758 386.832 454.097 387.182 455.445C387.199 455.511 387.217 455.576 387.23 455.643C387.236 455.674 387.232 455.713 387.205 455.707C386.664 455.56 386.179 455.308 385.721 455.016C384.875 454.478 384.221 453.774 383.676 452.975C383.586 452.843 383.643 452.753 383.695 452.648C384.143 451.746 384.539 450.827 384.841 449.872C385.45 447.942 385.358 446.019 384.812 444.095C384.385 442.589 383.723 441.164 383.047 439.744C383.01 439.666 382.977 439.587 382.943 439.509C382.92 439.454 382.988 439.429 383.017 439.473Z" fill="white"/>
<path d="M379.883 457.173C379.85 457.257 379.721 457.258 379.688 457.175C378.977 455.363 378.008 453.734 377.203 452.038C376.672 450.92 376.173 449.79 375.989 448.568V448.567C375.978 448.493 376.06 448.437 376.134 448.467C378.563 449.458 380.976 449.458 383.402 448.456C383.476 448.425 383.557 448.483 383.547 448.558C383.413 449.461 383.119 450.267 382.783 451.061C382.152 452.555 381.348 453.975 380.642 455.437C380.373 455.992 380.122 456.554 379.883 457.173Z" fill="white"/>
<path d="M379.627 436.485C379.671 436.386 379.824 436.388 379.866 436.487C379.965 436.72 380.061 436.948 380.165 437.172C380.863 438.664 381.571 440.152 382.262 441.646C382.47 442.097 382.63 442.567 382.827 443.023C382.897 443.185 382.865 443.253 382.687 443.316C380.734 444.003 378.784 444.006 376.829 443.324C376.644 443.26 376.634 443.189 376.693 443.03C377.291 441.399 378.093 439.847 378.825 438.268C379.1 437.676 379.359 437.079 379.627 436.485Z" fill="white"/>
<path d="M397.085 446.779C397.065 446.731 397.105 446.68 397.16 446.684C398.465 446.765 399.73 446.884 400.982 447.115C401.15 447.146 401.146 447.245 401.164 447.35C401.46 449.036 401.408 450.713 401.013 452.38C400.538 454.38 399.639 456.195 398.133 457.714C395.831 460.035 392.93 461.034 389.563 460.871C386.485 460.722 383.77 459.667 381.373 457.89C381.255 457.802 381.228 457.73 381.278 457.593C381.683 456.48 382.211 455.416 382.766 454.364L382.767 454.363C382.79 454.318 382.858 454.316 382.891 454.355C385.692 457.644 390.326 458.529 393.962 456.425C397.284 454.502 398.736 450.651 397.085 446.779Z" fill="white"/>
<path d="M376.553 439.537C376.025 440.649 375.499 441.734 375.074 442.883C374.308 444.956 373.931 447.058 374.484 449.236C374.787 450.432 375.292 451.558 375.845 452.668C375.889 452.755 375.918 452.823 375.849 452.923C375.056 454.081 374.054 455.022 372.668 455.57C372.56 455.613 372.45 455.652 372.313 455.701C372.285 455.711 372.257 455.687 372.264 455.66C372.374 455.268 372.465 454.902 372.515 454.529C372.68 453.282 372.564 452.068 371.923 450.939C371.07 449.438 369.339 448.681 367.497 448.976C365.998 449.216 364.754 449.903 363.665 450.858C363.612 450.904 363.559 450.951 363.504 450.995C363.478 451.015 363.439 451.032 363.431 451.006C363.298 450.5 363.291 449.987 363.336 449.474C363.418 448.528 363.751 447.652 364.227 446.817C364.306 446.679 364.419 446.68 364.543 446.669C365.613 446.576 366.673 446.434 367.718 446.197C369.831 445.72 371.588 444.684 373.118 443.286C374.316 442.191 375.321 440.949 376.314 439.698C376.368 439.63 376.425 439.565 376.482 439.498C376.522 439.45 376.58 439.493 376.553 439.537Z" fill="white"/>
<path d="M358.395 445.88C358.3 445.896 358.235 445.793 358.297 445.725C359.64 444.249 360.682 442.66 361.869 441.168C362.651 440.184 363.461 439.22 364.515 438.461L364.516 438.46C364.58 438.414 364.673 438.452 364.682 438.527C364.967 440.966 366.174 442.896 368.327 444.336C368.392 444.38 368.379 444.474 368.304 444.502C367.39 444.847 366.488 445.015 365.575 445.143C363.86 445.385 362.126 445.452 360.403 445.618C359.748 445.681 359.095 445.761 358.395 445.88Z" fill="white"/>
<path d="M377.658 435.332C377.774 435.318 377.849 435.441 377.776 435.524C377.607 435.72 377.441 435.91 377.284 436.106C376.234 437.41 375.194 438.72 374.139 440.021C373.821 440.413 373.46 440.776 373.132 441.161C373.015 441.299 372.935 441.307 372.787 441.196C371.167 439.976 370.188 438.418 369.85 436.512C369.818 436.333 369.88 436.289 370.059 436.256C371.886 435.92 373.742 435.785 375.588 435.581C376.279 435.505 376.968 435.414 377.658 435.332Z" fill="white"/>
<path d="M376.739 454.448C376.774 454.408 376.842 454.414 376.866 454.46C377.442 455.545 377.963 456.616 378.373 457.734C378.428 457.884 378.333 457.93 378.244 457.997C376.812 459.076 375.213 459.874 373.453 460.391C371.341 461.011 369.191 461.198 367.014 460.753C363.688 460.072 361.301 458.249 359.77 455.474C358.371 452.937 358.002 450.236 358.47 447.43C358.492 447.291 358.547 447.234 358.701 447.206C359.946 446.973 361.207 446.864 362.471 446.782H362.472C362.526 446.779 362.562 446.832 362.542 446.877C360.86 450.763 362.347 454.913 366.137 456.771C369.6 458.469 373.936 457.705 376.739 454.448Z" fill="white"/>
<path d="M376.499 429.136C375.722 428.158 374.968 427.194 374.103 426.279C372.543 424.63 370.761 423.277 368.443 422.631C367.171 422.275 365.863 422.116 364.546 422.004C364.442 421.995 364.364 421.985 364.305 421.88C363.617 420.666 363.236 419.394 363.415 418.011C363.429 417.903 363.448 417.796 363.47 417.662C363.474 417.635 363.511 417.623 363.532 417.643C363.845 417.927 364.143 418.183 364.468 418.409C365.554 419.165 366.75 419.679 368.128 419.73C369.962 419.798 371.536 418.791 372.181 417.17C372.706 415.851 372.684 414.512 372.334 413.163C372.317 413.098 372.299 413.032 372.286 412.966C372.279 412.935 372.284 412.895 372.311 412.902C372.852 413.048 373.337 413.3 373.795 413.592C374.641 414.131 375.295 414.835 375.84 415.634C375.93 415.766 375.873 415.856 375.821 415.961C375.373 416.863 374.977 417.782 374.675 418.737C374.066 420.667 374.158 422.59 374.704 424.514C375.131 426.02 375.793 427.445 376.469 428.865C376.506 428.942 376.539 429.021 376.573 429.099C376.596 429.155 376.528 429.179 376.499 429.136Z" fill="white"/>
<path d="M379.633 411.435C379.665 411.351 379.794 411.35 379.827 411.434C380.539 413.245 381.507 414.874 382.312 416.57C382.843 417.689 383.342 418.818 383.527 420.041V420.041C383.538 420.116 383.456 420.171 383.381 420.141C380.952 419.15 378.539 419.15 376.113 420.152C376.039 420.183 375.958 420.125 375.969 420.051C376.102 419.147 376.397 418.342 376.733 417.547C377.364 416.054 378.168 414.633 378.874 413.171C379.143 412.617 379.394 412.055 379.633 411.435Z" fill="white"/>
<path d="M379.888 432.123C379.844 432.222 379.691 432.221 379.649 432.121C379.55 431.888 379.455 431.66 379.35 431.436C378.653 429.944 377.945 428.457 377.254 426.962C377.045 426.511 376.885 426.041 376.688 425.585C376.618 425.423 376.65 425.356 376.829 425.292C378.781 424.606 380.731 424.602 382.686 425.284C382.871 425.348 382.881 425.419 382.823 425.579C382.224 427.209 381.422 428.761 380.69 430.34C380.416 430.932 380.156 431.529 379.888 432.123Z" fill="white"/>
<path d="M362.431 421.83C362.451 421.877 362.411 421.928 362.356 421.925C361.051 421.844 359.786 421.724 358.534 421.494C358.366 421.463 358.37 421.364 358.352 421.259C358.056 419.573 358.108 417.895 358.503 416.229C358.978 414.229 359.877 412.414 361.383 410.895C363.685 408.574 366.586 407.575 369.953 407.738C373.031 407.887 375.746 408.942 378.143 410.719C378.261 410.807 378.288 410.879 378.238 411.016C377.833 412.129 377.305 413.192 376.75 414.245L376.749 414.246C376.726 414.29 376.658 414.293 376.625 414.254C373.824 410.965 369.19 410.08 365.554 412.184C362.231 414.107 360.78 417.958 362.431 421.83Z" fill="white"/>
<path d="M382.963 429.071C383.491 427.96 384.017 426.875 384.442 425.725C385.208 423.653 385.584 421.551 385.032 419.373C384.729 418.177 384.224 417.051 383.67 415.94C383.626 415.853 383.597 415.786 383.666 415.686C384.46 414.528 385.462 413.587 386.848 413.039C386.956 412.996 387.066 412.957 387.202 412.908C387.23 412.898 387.259 412.921 387.251 412.948C387.141 413.341 387.05 413.707 387.001 414.08C386.835 415.327 386.951 416.541 387.592 417.669C388.446 419.171 390.176 419.927 392.018 419.632C393.517 419.392 394.761 418.705 395.851 417.751C395.904 417.705 395.956 417.658 396.012 417.614C396.038 417.594 396.077 417.577 396.084 417.602C396.218 418.108 396.224 418.622 396.179 419.135C396.097 420.081 395.764 420.956 395.288 421.792C395.209 421.93 395.097 421.929 394.972 421.94C393.903 422.032 392.843 422.175 391.798 422.411C389.684 422.889 387.927 423.925 386.397 425.323C385.199 426.418 384.194 427.66 383.202 428.911C383.147 428.978 383.09 429.044 383.034 429.111C382.993 429.159 382.936 429.116 382.963 429.071Z" fill="white"/>
<path d="M401.12 422.728C401.215 422.712 401.281 422.815 401.219 422.884C399.876 424.359 398.834 425.948 397.646 427.441C396.864 428.425 396.054 429.389 395.001 430.148L395 430.148C394.936 430.194 394.843 430.156 394.834 430.082C394.548 427.642 393.342 425.712 391.189 424.272C391.123 424.228 391.137 424.134 391.212 424.106C392.126 423.761 393.028 423.594 393.94 423.465C395.655 423.223 397.389 423.156 399.112 422.99C399.767 422.927 400.42 422.847 401.12 422.728Z" fill="white"/>
<path d="M381.858 433.277C381.742 433.291 381.667 433.168 381.74 433.084C381.909 432.889 382.075 432.699 382.232 432.503C383.282 431.198 384.322 429.888 385.377 428.588C385.695 428.196 386.056 427.833 386.384 427.447C386.501 427.31 386.581 427.302 386.729 427.413C388.349 428.632 389.328 430.191 389.666 432.096C389.697 432.276 389.636 432.319 389.457 432.353C387.63 432.689 385.774 432.824 383.928 433.027C383.237 433.104 382.548 433.195 381.858 433.277Z" fill="white"/>
<path d="M382.776 414.161C382.742 414.201 382.674 414.195 382.649 414.149C382.073 413.064 381.552 411.992 381.143 410.875C381.088 410.725 381.183 410.679 381.272 410.612C382.704 409.532 384.302 408.735 386.062 408.218C388.174 407.598 390.324 407.41 392.502 407.856C395.828 408.537 398.215 410.359 399.745 413.135C401.144 415.672 401.513 418.372 401.046 421.179C401.023 421.318 400.968 421.375 400.815 421.403C399.569 421.635 398.308 421.745 397.044 421.827H397.043C396.99 421.83 396.953 421.777 396.974 421.731C398.656 417.846 397.168 413.696 393.379 411.838C389.916 410.14 385.58 410.904 382.776 414.161Z" fill="white"/>
<path d="M386.279 434.24C387.584 434.107 388.864 433.985 390.154 433.75C392.48 433.327 394.639 432.577 396.404 431.046C397.373 430.206 398.176 429.239 398.94 428.241C399 428.162 399.049 428.105 399.177 428.109C400.659 428.166 402.042 428.497 403.249 429.332C403.343 429.397 403.434 429.466 403.548 429.55C403.572 429.567 403.564 429.603 403.535 429.61C403.112 429.718 402.723 429.828 402.349 429.975C401.097 430.467 400.017 431.166 399.28 432.243C398.3 433.677 398.456 435.44 399.653 436.766C400.628 437.846 401.894 438.498 403.333 438.892C403.403 438.912 403.473 438.93 403.542 438.953C403.574 438.963 403.609 438.986 403.589 439.005C403.181 439.364 402.703 439.626 402.2 439.847C401.272 440.254 400.285 440.426 399.264 440.463C399.096 440.469 399.04 440.378 398.967 440.284C398.345 439.475 397.682 438.698 396.938 437.979C395.434 436.527 393.585 435.639 391.509 435.113C389.884 434.702 388.218 434.519 386.548 434.35C386.458 434.341 386.367 434.328 386.277 434.316C386.212 434.308 386.223 434.241 386.279 434.24Z" fill="white"/>
<path d="M401.302 445.597C401.365 445.665 401.302 445.769 401.206 445.754C399.152 445.418 397.141 445.378 395.149 445.174C393.836 445.04 392.527 444.874 391.289 444.411L391.288 444.41C391.213 444.382 391.202 444.288 391.268 444.245C393.411 442.796 394.616 440.866 394.89 438.423C394.899 438.348 394.993 438.312 395.058 438.358C395.838 438.917 396.446 439.555 397.023 440.221C398.107 441.473 399.037 442.827 400.054 444.123C400.44 444.615 400.841 445.097 401.302 445.597Z" fill="white"/>
<path d="M381.784 435.458C381.713 435.373 381.791 435.252 381.905 435.268C382.173 435.305 382.434 435.343 382.697 435.371C384.444 435.558 386.192 435.736 387.939 435.93C388.465 435.988 388.985 436.096 389.511 436.165C389.699 436.191 389.746 436.25 389.716 436.424C389.383 438.33 388.412 439.892 386.795 441.116C386.642 441.231 386.57 441.203 386.45 441.077C385.221 439.783 384.168 438.366 383.054 436.99C382.636 436.476 382.206 435.97 381.784 435.458Z" fill="white"/>
<path d="M400.161 426.636C400.106 426.628 400.078 426.571 400.109 426.528C400.837 425.525 401.582 424.572 402.424 423.686C402.537 423.567 402.627 423.62 402.735 423.658C404.463 424.264 406.01 425.144 407.374 426.294C409.012 427.674 410.262 429.3 410.933 431.265C411.958 434.267 411.443 437.088 409.607 439.7C407.929 442.089 405.582 443.734 402.718 444.764C402.576 444.814 402.495 444.799 402.392 444.691C401.552 443.81 400.818 442.857 400.11 441.885L400.109 441.884C400.079 441.843 400.111 441.788 400.164 441.781C404.647 441.184 407.793 437.919 407.64 433.957C407.499 430.338 404.615 427.251 400.161 426.636Z" fill="white"/>
<path d="M373.32 434.333C372.014 434.467 370.734 434.588 369.444 434.823C367.119 435.246 364.96 435.996 363.194 437.527C362.225 438.368 361.422 439.334 360.658 440.332C360.598 440.411 360.55 440.468 360.421 440.464C358.94 440.407 357.557 440.076 356.35 439.241C356.256 439.176 356.164 439.107 356.05 439.023C356.027 439.006 356.035 438.97 356.064 438.963C356.486 438.855 356.875 438.745 357.249 438.598C358.501 438.106 359.581 437.407 360.318 436.33C361.299 434.896 361.142 433.133 359.945 431.807C358.971 430.727 357.705 430.075 356.266 429.681C356.196 429.661 356.125 429.643 356.057 429.62C356.024 429.61 355.99 429.587 356.01 429.568C356.417 429.209 356.895 428.947 357.399 428.726C358.326 428.319 359.313 428.147 360.334 428.11C360.503 428.104 360.559 428.195 360.631 428.289C361.253 429.098 361.916 429.875 362.66 430.594C364.165 432.046 366.014 432.934 368.089 433.46C369.715 433.871 371.381 434.054 373.05 434.223C373.141 434.232 373.231 434.245 373.322 434.257C373.386 434.265 373.375 434.332 373.32 434.333Z" fill="white"/>
<path d="M358.296 422.976C358.234 422.908 358.297 422.804 358.392 422.819C360.446 423.155 362.457 423.195 364.449 423.399C365.763 423.533 367.071 423.699 368.309 424.162L368.31 424.163C368.386 424.191 368.397 424.285 368.331 424.329C366.187 425.777 364.981 427.708 364.708 430.15C364.7 430.225 364.605 430.261 364.541 430.215C363.76 429.656 363.153 429.018 362.576 428.352C361.492 427.1 360.562 425.746 359.545 424.45C359.159 423.958 358.757 423.476 358.296 422.976Z" fill="white"/>
<path d="M377.814 433.115C377.885 433.2 377.808 433.321 377.693 433.306C377.426 433.268 377.164 433.23 376.902 433.202C375.155 433.015 373.406 432.837 371.66 432.643C371.133 432.585 370.613 432.477 370.087 432.408C369.9 432.383 369.852 432.323 369.883 432.149C370.215 430.243 371.187 428.681 372.804 427.457C372.957 427.342 373.028 427.37 373.148 427.496C374.377 428.79 375.431 430.207 376.545 431.583C376.962 432.097 377.392 432.604 377.814 433.115Z" fill="white"/>
<path d="M359.438 441.937C359.492 441.945 359.521 442.002 359.49 442.045C358.762 443.048 358.017 444.001 357.175 444.887C357.062 445.006 356.971 444.954 356.863 444.915C355.135 444.309 353.589 443.429 352.224 442.279C350.587 440.899 349.336 439.273 348.665 437.308C347.641 434.306 348.155 431.485 349.991 428.873C351.67 426.484 354.016 424.839 356.881 423.809C357.022 423.759 357.103 423.774 357.206 423.882C358.046 424.763 358.78 425.717 359.489 426.688L359.489 426.689C359.519 426.73 359.487 426.785 359.435 426.792C354.952 427.389 351.805 430.654 351.959 434.616C352.099 438.235 354.983 441.322 359.438 441.937Z" fill="white"/>
<path d="M309.818 81.1019C303.314 105.75 276.892 120.75 250.802 114.604C224.722 108.459 208.846 83.4929 215.352 58.847C221.853 34.1963 248.275 19.195 274.358 25.3398C300.447 31.4846 316.323 56.4528 309.818 81.1019Z" fill="#F3BA2F"/>
<path fill-rule="evenodd" clip-rule="evenodd" d="M262.59 53.1634L249.98 65.0772L242.644 58.1447L262.59 39.2994L282.542 58.1503L275.205 65.0823L262.59 53.1634ZM237.463 63.0388L230.126 69.9721L237.462 76.9029L244.8 69.9706L237.463 63.0388ZM249.98 74.8677L262.59 86.7807L275.205 74.862L282.546 81.7904L282.542 81.794L262.59 100.645L242.634 81.7896L249.98 74.8677ZM287.717 63.0427L280.38 69.975L287.717 76.9068L295.054 69.9745L287.717 63.0427Z" fill="white"/>
<path d="M270.031 69.9684H270.034L262.59 62.9343L255.151 69.9613L255.141 69.9708L255.151 69.9809L262.59 77.0098L270.035 69.9757L270.038 69.9718L270.031 69.9684Z" fill="white"/>
<path d="M547.201 68.5343C547.201 92.6209 526.075 112.147 500.016 112.147C473.956 112.147 452.831 92.6209 452.831 68.5343C452.831 44.4476 473.956 24.9216 500.016 24.9216C526.075 24.9216 547.201 44.4476 547.201 68.5343Z" fill="#EDF0F4"/>
<path d="M514.173 59.7751C513.167 59.2402 511.874 59.2402 510.724 59.7751L502.675 64.1881L497.213 66.9964L489.308 71.4094C488.302 71.9444 487.008 71.9444 485.858 71.4094L479.678 67.9325C478.672 67.3976 477.953 66.3278 477.953 65.1242V58.4378C477.953 57.368 478.528 56.2981 479.678 55.6295L485.858 52.2863C486.864 51.7514 488.158 51.7514 489.308 52.2863L495.488 55.7632C496.494 56.2981 497.213 57.368 497.213 58.5715V62.9846L502.675 60.0425V55.4958C502.675 54.4259 502.1 53.3561 500.95 52.6875L489.452 46.4022C488.445 45.8673 487.152 45.8673 486.002 46.4022L474.216 52.8212C473.066 53.3561 472.491 54.4259 472.491 55.4958V68.0662C472.491 69.1361 473.066 70.2059 474.216 70.8745L485.858 77.1598C486.864 77.6947 488.158 77.6947 489.308 77.1598L497.213 72.8805L502.675 69.9384L510.58 65.6591C511.586 65.1242 512.88 65.1242 514.03 65.6591L520.21 69.0023C521.216 69.5372 521.935 70.6071 521.935 71.8106V78.497C521.935 79.5669 521.36 80.6367 520.21 81.3053L514.173 84.6486C513.167 85.1835 511.874 85.1835 510.724 84.6486L504.543 81.3053C503.537 80.7704 502.819 79.7006 502.819 78.497V74.2177L497.357 77.1598V81.5728C497.357 82.6426 497.932 83.7125 499.082 84.3811L510.724 90.6663C511.73 91.2012 513.024 91.2012 514.173 90.6663L525.816 84.3811C526.822 83.8462 527.54 82.7764 527.54 81.5728V68.8686C527.54 67.7988 526.966 66.7289 525.816 66.0603L514.173 59.7751Z" fill="#8247E5"/>
<path d="M311.276 192.184C311.276 217.329 290.15 237.713 264.091 237.713C238.031 237.713 216.906 217.329 216.906 192.184C216.906 167.038 238.031 146.654 264.091 146.654C290.15 146.654 311.276 167.038 311.276 192.184Z" fill="url(#paint3_linear_1_2976)"/>
<path fill-rule="evenodd" clip-rule="evenodd" d="M240.866 184.413V205.842H236.566V180.953C236.57 180.037 237.108 179.202 237.957 178.792C238.806 178.383 239.821 178.469 240.583 179.015L261.008 193.853C261.635 194.309 262.005 195.022 262.007 195.78V205.842H257.708V196.644L240.866 184.413ZM287.444 184.413V205.842H291.744V180.953C291.737 180.038 291.199 179.205 290.35 178.797C289.502 178.389 288.488 178.475 287.727 179.021L267.302 193.853C266.675 194.309 266.305 195.022 266.304 195.78V205.842H270.602V196.644L287.444 184.413Z" fill="white"/>
<path d="M425.725 192.184C425.725 215.741 405.049 234.838 379.543 234.838C354.038 234.838 333.362 215.741 333.362 192.184C333.362 168.626 354.038 149.529 379.543 149.529C405.049 149.529 425.725 168.626 425.725 192.184Z" fill="url(#paint4_linear_1_2976)"/>
<path fill-rule="evenodd" clip-rule="evenodd" d="M377.871 164.917C375.19 165.202 372.697 166.332 370.812 168.117C369.396 169.411 368.056 170.74 366.622 172.047C365.904 172.727 365.178 173.389 364.453 174.061C363.727 174.732 362.927 175.445 362.173 176.15C361.42 176.855 360.794 177.473 360.096 178.127C359.006 179.134 357.916 180.141 356.827 181.158C355.99 181.956 355.173 182.78 354.346 183.576C353.859 184.052 353.334 184.494 352.875 184.994C350.979 187.13 349.943 189.807 349.943 192.569C349.943 192.731 349.943 192.898 349.954 193.059C349.993 194.645 350.443 196.199 351.268 197.591C351.737 198.432 352.281 199.235 352.894 199.994C353.298 200.52 353.593 200.512 354.125 200.105C354.227 200.026 354.322 199.941 354.41 199.85C354.935 199.34 355.449 198.83 355.983 198.321C356.736 197.591 357.509 196.862 358.262 196.122C359.016 195.383 359.833 194.569 360.624 193.806C361.001 193.432 361.403 193.087 361.783 192.718C362.591 191.929 363.382 191.115 364.19 190.334C364.998 189.553 365.817 188.823 366.608 188.059C367.399 187.295 368.372 186.361 369.262 185.512C370.153 184.664 370.908 183.95 371.735 183.169C372.811 182.141 373.859 181.089 374.924 180.062C375.585 179.433 376.266 178.831 376.928 178.211C377.846 177.362 378.701 176.514 379.603 175.665C380.504 174.817 381.174 174.247 381.946 173.517C383.672 171.906 385.396 170.286 387.117 168.656C387.228 168.555 387.332 168.447 387.428 168.334C387.852 167.841 387.887 167.731 387.364 167.383C386.566 166.802 385.71 166.29 384.809 165.855C383.217 165.167 381.48 164.81 379.722 164.811H379.635C379.048 164.811 378.462 164.845 377.879 164.913L377.87 164.904L377.871 164.917ZM393.082 175.366H392.971C391.445 175.367 389.996 175.988 389.01 177.065C388.923 177.154 388.831 177.239 388.734 177.319L385.923 179.866C385.004 180.716 384.01 181.641 383.045 182.532C382.246 183.27 381.446 183.992 380.657 184.731C379.867 185.47 379.02 186.293 378.165 187.065C377.311 187.838 376.401 188.647 375.519 189.442L372.384 192.362L366.558 197.745C363.984 200.132 361.413 202.514 358.846 204.892C358.351 205.342 358.342 205.401 358.846 205.884C360.078 207.035 361.328 208.177 362.522 209.336C363.261 210.059 364.236 210.539 365.298 210.702C366.3 210.888 367.336 210.856 368.322 210.609C369.061 210.44 369.743 210.104 370.307 209.632L373.359 206.91C374.075 206.274 374.802 205.646 375.509 205C376.925 203.706 378.321 202.403 379.736 201.117C380.886 200.073 382.063 199.038 383.229 197.993L388.014 193.686C389.502 192.336 391 190.978 392.507 189.628C392.712 189.347 393.069 189.194 393.433 189.232C393.798 189.27 394.109 189.492 394.242 189.808C395.008 190.841 395.418 192.064 395.417 193.317C395.417 193.531 395.405 193.745 395.381 193.958C395.258 195.221 394.694 196.412 393.775 197.354C392.671 198.449 391.495 199.485 390.349 200.537C389.532 201.284 388.696 202.014 387.877 202.769C386.819 203.737 385.781 204.722 384.724 205.69C384.568 205.851 384.422 206.021 384.256 206.173L383.218 207.167C382.439 207.886 381.647 208.585 380.882 209.306C380.118 210.026 379.24 210.869 378.422 211.655C378.349 211.732 378.267 211.782 378.193 211.85C377.273 212.639 376.428 213.432 375.554 214.227C375.142 214.601 374.746 214.982 374.341 215.356C373.644 216.01 372.926 216.65 372.255 217.317C371.842 217.716 371.842 217.962 372.33 218.276C373.13 218.844 373.982 219.346 374.875 219.778C377.099 220.706 379.563 221.03 381.979 220.711C384.376 220.448 386.626 219.502 388.414 218.003C389.773 216.9 390.987 215.661 392.255 214.473C393.174 213.623 394.094 212.715 395.076 211.841L397.732 209.37C398.542 208.615 399.341 207.859 400.16 207.112C400.979 206.366 401.997 205.474 402.916 204.633C403.834 203.792 404.755 202.936 405.673 202.036C406.406 201.347 407.082 200.609 407.697 199.828C408.844 198.228 409.56 196.398 409.785 194.49C409.91 193.543 409.91 192.585 409.785 191.637C409.512 189.951 408.85 188.339 407.845 186.909C407.122 185.897 406.257 184.978 405.273 184.176C402.727 181.842 400.189 179.491 397.7 177.105C396.602 175.976 395.037 175.331 393.395 175.33H393.36L393.085 175.365L393.082 175.366Z" fill="white"/>
<path d="M77.3583 192.663C77.3583 216.485 56.907 235.796 31.6791 235.796C6.45125 235.796 -14 216.485 -14 192.663C-14 168.841 6.45125 149.529 31.6791 149.529C56.907 149.529 77.3583 168.841 77.3583 192.663Z" fill="#EDF0F4"/>
<path fill-rule="evenodd" clip-rule="evenodd" d="M47.8371 168.679L61.8297 191.574H61.8351C62.2308 192.314 62.2308 193.187 61.8351 193.927L47.8371 216.822C47.3562 217.516 46.5549 217.953 45.678 218H39.2782L48.5784 202.791C48.8409 202.302 48.8409 201.724 48.5784 201.234L38.0151 183.958C37.6973 183.498 37.1668 183.209 36.5865 183.18H15.4618C14.8815 183.209 14.351 183.498 14.0332 183.958L4.73121 199.174L1.52319 193.927C1.12744 193.187 1.12744 192.314 1.52319 191.574L15.5212 168.679C16.002 167.985 16.8034 167.548 17.6802 167.502H45.678C46.5549 167.548 47.3562 167.985 47.8371 168.679ZM45.2768 201.443L36.1547 186.53C35.9301 186.21 35.5598 186.008 35.1543 185.985H16.9102C16.5047 186.008 16.1344 186.21 15.9098 186.53L6.78772 201.45C6.606 201.793 6.606 202.198 6.78772 202.541L9.46138 206.917L14.1394 199.272C14.3964 198.9 14.8261 198.665 15.2963 198.64H27.3151C27.7853 198.665 28.2149 198.9 28.472 199.272L34.4832 209.102C34.6955 209.499 34.6955 209.968 34.4832 210.365L29.8052 218.01H35.1489C35.5549 217.986 35.9255 217.784 36.1493 217.463L45.2714 202.544C45.4584 202.199 45.4604 201.79 45.2768 201.443ZM15.541 216.851L11.4171 210.106C11.2877 209.857 11.2877 209.565 11.4171 209.316L15.9962 201.829C16.1595 201.595 16.4301 201.447 16.7267 201.43H25.8829C26.1799 201.447 26.4511 201.595 26.6152 201.829L31.1942 209.316C31.3255 209.568 31.3255 209.863 31.1942 210.115L26.6152 217.602C26.4521 217.831 26.1871 217.978 25.8955 218H17.6641C16.8062 217.948 16.0222 217.524 15.541 216.851Z" fill="url(#paint5_linear_1_2976)"/>
<path d="M193.815 192.663C193.815 216.485 172.914 235.796 147.132 235.796C121.349 235.796 100.449 216.485 100.449 192.663C100.449 168.841 121.349 149.529 147.132 149.529C172.914 149.529 193.815 168.841 193.815 192.663Z" fill="#EDF0F4"/>
<path fill-rule="evenodd" clip-rule="evenodd" d="M124.965 176.128H137.663C137.731 176.127 137.798 176.142 137.858 176.171C137.915 176.201 137.963 176.243 137.998 176.294L153.458 199.133C153.542 199.251 153.542 199.403 153.458 199.521L147.132 208.845C147.097 208.896 147.049 208.938 146.992 208.967C146.873 209.027 146.73 209.027 146.611 208.967C146.554 208.938 146.506 208.896 146.471 208.845L124.631 176.682C124.593 176.628 124.572 176.566 124.569 176.502C124.566 176.437 124.582 176.373 124.615 176.315C124.65 176.258 124.701 176.211 124.763 176.179C124.824 176.145 124.894 176.128 124.965 176.128ZM151.583 176.128H168.591C168.662 176.128 168.732 176.145 168.793 176.179C168.846 176.214 168.889 176.261 168.918 176.315C168.951 176.373 168.967 176.437 168.964 176.502C168.966 176.565 168.95 176.627 168.918 176.682L160.421 189.219C160.386 189.27 160.338 189.312 160.281 189.342C160.162 189.402 160.019 189.402 159.9 189.342C159.843 189.312 159.795 189.27 159.76 189.219L151.256 176.682C151.218 176.628 151.197 176.566 151.194 176.502C151.191 176.437 151.207 176.373 151.24 176.315C151.275 176.258 151.326 176.211 151.388 176.179C151.447 176.146 151.514 176.129 151.583 176.128Z" fill="#FF8836"/>
<path d="M146.63 356.57C172.136 356.57 192.811 337.044 192.811 312.957C192.811 288.87 172.136 269.344 146.63 269.344C121.124 269.344 100.449 288.87 100.449 312.957C100.449 337.044 121.124 356.57 146.63 356.57Z" fill="#EDF0F4"/>
<path d="M165.795 331.056H146.495L165.795 313.012V331.056Z" fill="url(#paint6_linear_1_2976)"/>
<path d="M165.795 331.056H127.388V294.785L165.795 331.056Z" fill="url(#paint7_linear_1_2976)"/>
<path d="M545.193 313.436C545.193 338.317 523.393 358.487 496.502 358.487C469.611 358.487 447.811 338.317 447.811 313.436C447.811 288.556 469.611 268.386 496.502 268.386C523.393 268.386 545.193 288.556 545.193 313.436Z" fill="url(#paint8_linear_1_2976)"/>
<path d="M482.309 297.669V331.457H512.74L482.309 297.669Z" fill="url(#paint9_linear_1_2976)"/>
<path d="M451.877 331.457H482.309V297.669L451.877 331.457Z" fill="white"/>
<path d="M457.549 340.467C460.325 343.868 463.611 346.909 467.287 349.477H525.717C529.393 346.909 532.679 343.868 535.455 340.467H457.549Z" fill="#FC9965"/>
<path d="M467.287 349.477C475.419 355.131 485.547 358.487 496.502 358.487C507.457 358.487 517.585 355.131 525.717 349.477H467.287Z" fill="#FF2D55"/>
<path d="M513.13 315.689V340.467H535.455L513.13 315.689Z" fill="url(#paint10_linear_1_2976)"/>
<path d="M451.877 331.457C453.386 334.678 455.309 337.696 457.549 340.467H513.154V331.457H451.877Z" fill="#FFBC5B"/>
<path d="M490.829 340.467H513.13V315.689L490.829 340.467Z" fill="white"/>
<path d="M525.303 297.669C525.303 303.889 519.853 308.931 513.13 308.931C506.407 308.931 500.957 303.889 500.957 297.669C500.957 291.449 506.407 286.406 513.13 286.406C519.853 286.406 525.303 291.449 525.303 297.669Z" fill="#FFC95B"/>
<path d="M488.395 285.28C488.395 288.39 485.67 290.911 482.309 290.911C478.947 290.911 476.222 288.39 476.222 285.28C476.222 282.17 478.947 279.649 482.309 279.649C485.67 279.649 488.395 282.17 488.395 285.28Z" fill="#FFC95B"/>
<path d="M426.728 313.436C426.728 338.317 405.378 358.487 379.041 358.487C352.704 358.487 331.354 338.317 331.354 313.436C331.354 288.556 352.704 268.386 379.041 268.386C405.378 268.386 426.728 288.556 426.728 313.436Z" fill="#7866D5"/>
<path d="M398.345 291.515C399.959 291.705 401.64 291.833 403.255 292.087C406.416 292.659 407.492 294.184 406.954 297.234C406.819 298.377 405.878 299.267 404.667 299.457C403.927 299.585 403.12 299.648 402.38 299.585C391.888 299.585 381.463 299.648 370.97 299.648C369.423 299.648 367.809 299.775 366.262 300.029C361.083 300.792 359.065 302.825 358.662 307.781C358.46 310.069 358.46 310.069 360.948 310.069H402.649C403.053 310.069 403.456 310.069 403.86 310.069C404.533 310.069 405.138 310.259 405.743 310.577C407.627 311.721 407.156 313.564 407.088 315.216C407.021 316.55 406.147 317.312 404.667 317.567C404.062 317.694 403.456 317.694 402.784 317.694C388.525 317.694 374.266 317.694 360.007 317.694C358.46 317.694 358.46 317.694 358.594 319.155C358.662 320.489 358.796 321.824 359.132 323.158C359.805 325.573 361.352 327.098 363.975 327.797C366.8 328.559 369.759 328.686 372.652 328.75C382.808 328.75 393.031 328.75 403.255 328.75C404.533 328.75 405.743 328.877 406.55 330.021C407.828 331.927 407.156 334.405 405.138 335.612C404.869 335.803 404.6 335.93 404.264 335.993C402.044 336.692 399.757 336.82 397.403 336.883C387.785 337.074 378.234 337.074 368.683 336.883C365.724 336.82 362.764 336.502 359.872 335.93C353.079 334.596 349.649 331.291 348.505 324.81C348.236 323.349 348.102 321.824 347.9 320.299V308.48C348.035 307.337 348.169 306.129 348.304 304.986C349.178 297.678 352.676 294.056 360.276 292.404C362.966 291.833 365.791 291.705 368.482 291.451L398.345 291.515Z" fill="white"/>
<path fill-rule="evenodd" clip-rule="evenodd" d="M368.616 338.027C373.391 338.09 378.167 338.154 383.01 338.154C385.439 338.154 387.869 338.138 390.291 338.122C392.695 338.106 395.091 338.09 397.47 338.09C399.623 338.027 402.179 337.9 404.667 337.137C405.071 337.01 405.474 336.82 405.811 336.629C407.088 335.866 407.963 334.723 408.299 333.388C408.635 332.054 408.434 330.656 407.627 329.449C406.416 327.606 404.331 327.606 403.322 327.606H396.596C388.727 327.606 380.655 327.606 372.719 327.543C370.163 327.543 367.204 327.415 364.311 326.653C362.159 326.081 360.881 324.874 360.343 322.904C360.007 321.633 359.872 320.362 359.805 319.028V318.774H402.784C403.456 318.774 404.129 318.774 404.869 318.647C406.954 318.266 408.097 317.058 408.232 315.279C408.232 315.184 408.249 315.073 408.266 314.961C408.282 314.85 408.299 314.739 408.299 314.644L408.302 314.612C408.436 313.09 408.62 311.012 406.349 309.624C405.609 309.243 404.734 308.989 403.86 308.989H359.805C359.805 308.837 359.82 308.671 359.836 308.497C359.854 308.307 359.872 308.108 359.872 307.908C360.276 303.461 361.823 301.872 366.464 301.173C367.943 300.919 369.49 300.792 370.97 300.792C381.395 300.792 391.888 300.728 402.313 300.665C403.187 300.665 403.995 300.601 404.802 300.474C406.618 300.22 407.963 298.886 408.165 297.297C408.837 293.612 407.358 291.578 403.524 290.879C402.624 290.69 401.761 290.607 400.907 290.524C400.613 290.496 400.32 290.467 400.026 290.435C399.555 290.435 399.017 290.371 398.547 290.308H368.414L366.396 290.498C364.311 290.689 362.226 290.879 360.074 291.324C351.936 293.04 348.035 297.043 347.093 304.858C347.061 305.218 347.015 305.577 346.967 305.943C346.914 306.353 346.86 306.773 346.824 307.209L346.689 308.353V320.426C346.757 320.934 346.824 321.379 346.891 321.824C346.958 322.841 347.093 323.921 347.295 325.001C348.505 331.863 352.272 335.549 359.603 337.01C362.563 337.646 365.589 337.963 368.616 338.027ZM349.245 321.57C349.245 321.125 349.178 320.68 349.111 320.235V308.607L349.245 307.527C349.281 307.09 349.335 306.671 349.389 306.26C349.436 305.895 349.483 305.535 349.514 305.176C350.321 298.314 353.415 295.073 360.478 293.421C362.208 293.04 363.89 292.892 365.649 292.737C365.94 292.712 366.234 292.686 366.531 292.659L368.549 292.468H398.277C398.748 292.468 399.286 292.531 399.757 292.595C400.833 292.659 401.909 292.786 402.986 292.976C405.542 293.485 406.214 294.311 405.743 296.852C405.676 297.488 405.138 297.996 404.465 298.06C403.793 298.187 403.12 298.187 402.38 298.187C397.134 298.187 391.905 298.203 386.675 298.218C381.446 298.234 376.216 298.25 370.97 298.25C369.289 298.314 367.674 298.441 366.06 298.695C360.343 299.521 357.922 301.999 357.451 307.464C357.444 307.604 357.436 307.739 357.429 307.869C357.364 308.982 357.32 309.754 357.922 310.323C358.594 310.958 359.469 310.958 360.948 310.958H403.995C404.398 310.958 404.869 311.085 405.205 311.276C406.147 311.848 406.147 312.61 406.012 314.199C406.012 314.326 405.996 314.437 405.979 314.548C405.962 314.66 405.945 314.771 405.945 314.898C405.878 315.533 405.609 315.978 404.533 316.169C403.995 316.296 403.389 316.296 402.851 316.296H360.074C359.132 316.296 358.393 316.296 357.855 316.868C357.333 317.422 357.38 318.035 357.445 318.882C357.447 318.909 357.449 318.937 357.451 318.965V319.028C357.451 320.426 357.653 321.887 357.989 323.285C358.729 326.145 360.612 327.987 363.639 328.75C366.8 329.639 369.961 329.766 372.652 329.766C380.588 329.83 388.727 329.83 396.529 329.83H403.255C404.533 329.83 405.071 330.021 405.474 330.592C405.945 331.291 406.08 332.054 405.878 332.816C405.676 333.579 405.138 334.214 404.465 334.659C404.364 334.691 404.264 334.739 404.163 334.786C404.062 334.834 403.961 334.882 403.86 334.913C401.708 335.549 399.354 335.676 397.403 335.739C387.852 335.93 378.167 335.93 368.683 335.739C365.791 335.676 362.899 335.358 360.074 334.786C353.752 333.515 350.725 330.592 349.649 324.62L349.245 321.57Z" fill="white"/>
<path d="M310.272 313.436C310.272 337.788 289.146 357.528 263.087 357.528C237.027 357.528 215.902 337.788 215.902 313.436C215.902 289.085 237.027 269.344 263.087 269.344C289.146 269.344 310.272 289.085 310.272 313.436Z" fill="#EDF0F4"/>
<path fill-rule="evenodd" clip-rule="evenodd" d="M230.649 312.286C231.664 279.457 288.545 271.58 296.063 312.286C292.222 314.089 290.56 314.829 290.56 314.829C290.56 314.829 292.498 315.903 296.052 317.939C293.08 352.097 237.18 357.893 230.625 317.985C234.254 315.819 235.994 314.846 235.994 314.846C235.994 314.846 233.932 313.878 230.649 312.286ZM262.741 317.928L268.077 326.5L272.649 326.412L265.504 313.993L271.982 303.672L268.076 303.585L263.122 311.019L258.167 303.235L253.976 303.585L260.93 314.08L253.214 326.237L257.31 326.5L262.741 317.928Z" fill="#B7B5B1"/>
<path fill-rule="evenodd" clip-rule="evenodd" d="M233.374 310.723C236.566 284.401 283.168 274.639 293.337 310.723C292.101 311.333 285.259 314.907 285.259 314.907C285.259 314.907 288.252 316.639 293.326 319.611C290.571 347.676 240.289 354.343 233.352 319.653C238.808 316.415 241.307 314.922 241.307 314.922C241.307 314.922 239.84 314.123 233.374 310.723ZM262.743 317.97L268.064 326.518L272.625 326.431L265.498 314.045L271.96 303.752L268.064 303.665L263.122 311.079L258.181 303.315L254 303.665L260.936 314.132L253.239 326.257L257.326 326.518L262.743 317.97Z" fill="#244B81"/>
<g filter="url(#filter0_b_1_2976)">
<rect x="333.362" y="501.307" width="501.307" height="187.736" transform="rotate(-90 333.362 501.307)" fill="url(#paint11_linear_1_2976)"/>
</g>
<g filter="url(#filter1_b_1_2976)">
<rect width="501.307" height="172.677" transform="matrix(-4.57825e-08 -1 -1 4.1734e-08 172.732 501.307)" fill="url(#paint12_linear_1_2976)"/>
</g>
<defs>
<filter id="filter0_b_1_2976" x="332.362" y="-1" width="189.736" height="503.307" filterUnits="userSpaceOnUse" color-interpolation-filters="sRGB">
<feFlood flood-opacity="0" result="BackgroundImageFix"/>
<feGaussianBlur in="BackgroundImageFix" stdDeviation="0.5"/>
<feComposite in2="SourceAlpha" operator="in" result="effect1_backgroundBlur_1_2976"/>
<feBlend mode="normal" in="SourceGraphic" in2="effect1_backgroundBlur_1_2976" result="shape"/>
</filter>
<filter id="filter1_b_1_2976" x="-0.944946" y="-1" width="174.677" height="503.307" filterUnits="userSpaceOnUse" color-interpolation-filters="sRGB">
<feFlood flood-opacity="0" result="BackgroundImageFix"/>
<feGaussianBlur in="BackgroundImageFix" stdDeviation="0.5"/>
<feComposite in2="SourceAlpha" operator="in" result="effect1_backgroundBlur_1_2976"/>
<feBlend mode="normal" in="SourceGraphic" in2="effect1_backgroundBlur_1_2976" result="shape"/>
</filter>
<linearGradient id="paint0_linear_1_2976" x1="104.4" y1="388.95" x2="117.617" y2="447.329" gradientUnits="userSpaceOnUse">
<stop stop-color="#03B8FF"/>
<stop offset="1" stop-color="#FA52A0"/>
</linearGradient>
<linearGradient id="paint1_linear_1_2976" x1="96.5568" y1="390.241" x2="112.342" y2="464.922" gradientUnits="userSpaceOnUse">
<stop stop-color="#03B8FF"/>
<stop offset="1" stop-color="#FA52A0"/>
</linearGradient>
<linearGradient id="paint2_linear_1_2976" x1="89.3162" y1="362.213" x2="105.154" y2="436.417" gradientUnits="userSpaceOnUse">
<stop stop-color="#03B8FF"/>
<stop offset="1" stop-color="#FA52A0"/>
</linearGradient>
<linearGradient id="paint3_linear_1_2976" x1="216.906" y1="146.654" x2="216.906" y2="237.713" gradientUnits="userSpaceOnUse">
<stop stop-color="#4FA89B"/>
<stop offset="1" stop-color="#6ACEBB"/>
</linearGradient>
<linearGradient id="paint4_linear_1_2976" x1="314.299" y1="201.655" x2="384.559" y2="253.703" gradientUnits="userSpaceOnUse">
<stop stop-color="#FF3B3B"/>
<stop offset="1" stop-color="#FF9914"/>
</linearGradient>
<linearGradient id="paint5_linear_1_2976" x1="46.4819" y1="230.281" x2="68.8546" y2="177.077" gradientUnits="userSpaceOnUse">
<stop stop-color="#FFDC00"/>
<stop offset="0.33" stop-color="#E58E2F"/>
<stop offset="0.67" stop-color="#DB2D72"/>
<stop offset="1" stop-color="#FF00FF"/>
</linearGradient>
<linearGradient id="paint6_linear_1_2976" x1="100.146" y1="268.948" x2="100.146" y2="356.746" gradientUnits="userSpaceOnUse">
<stop stop-color="#FF4681"/>
<stop offset="1" stop-color="#9B44F6"/>
</linearGradient>
<linearGradient id="paint7_linear_1_2976" x1="99.0039" y1="322.446" x2="135.274" y2="360.85" gradientUnits="userSpaceOnUse">
<stop stop-color="#FF4681"/>
<stop offset="0.739" stop-color="#9B44F6"/>
</linearGradient>
<linearGradient id="paint8_linear_1_2976" x1="496.502" y1="249.726" x2="432.983" y2="318.377" gradientUnits="userSpaceOnUse">
<stop stop-color="#FF2D55"/>
<stop offset="1" stop-color="#FFBC5B"/>
</linearGradient>
<linearGradient id="paint9_linear_1_2976" x1="447.778" y1="268.386" x2="447.778" y2="358.487" gradientUnits="userSpaceOnUse">
<stop stop-color="#A524B3"/>
<stop offset="1" stop-color="#FF2D55"/>
</linearGradient>
<linearGradient id="paint10_linear_1_2976" x1="447.778" y1="268.386" x2="447.778" y2="358.487" gradientUnits="userSpaceOnUse">
<stop stop-color="#A524B3"/>
<stop offset="1" stop-color="#FF2D55"/>
</linearGradient>
<linearGradient id="paint11_linear_1_2976" x1="584.016" y1="501.307" x2="584.016" y2="689.043" gradientUnits="userSpaceOnUse">
<stop stop-color="#16202C" stop-opacity="0"/>
<stop offset="1" stop-color="#16202C"/>
</linearGradient>
<linearGradient id="paint12_linear_1_2976" x1="250.653" y1="0" x2="250.653" y2="172.677" gradientUnits="userSpaceOnUse">
<stop stop-color="#16202C" stop-opacity="0"/>
<stop offset="1" stop-color="#16202C"/>
</linearGradient>
</defs>
</svg>
