<svg width="440" height="79" viewBox="0 0 440 79" fill="none" xmlns="http://www.w3.org/2000/svg">
    <path d="M72.8929 47.1924C67.9508 67.5497 47.8724 79.9388 28.0462 74.8623C8.22829 69.7872 -3.83612 49.1672 1.10822 28.8115C6.04823 8.45192 26.1266 -3.93808 45.9467 1.13709C65.7714 6.21226 77.8351 26.8345 72.8924 47.1928L72.8929 47.1924Z" fill="#F7931A"/>
    <path fill-rule="evenodd" clip-rule="evenodd" d="M53.3172 32.5859C54.0537 27.529 50.3046 24.8107 45.1779 22.9973L46.8411 16.1472L42.7805 15.1081L41.1615 21.7779C40.094 21.5045 38.9977 21.2468 37.9081 20.9915L39.5389 14.2777L35.4808 13.2386L33.8168 20.0865C32.9334 19.88 32.0657 19.6759 31.2239 19.4608L31.2286 19.4392L25.629 18.0033L24.5488 22.4569C24.5488 22.4569 27.5614 23.1661 27.498 23.2098C29.1423 23.6312 29.4396 24.749 29.3903 25.635L27.4958 33.4389C27.609 33.4684 27.7559 33.5111 27.9179 33.578L27.8 33.5478C27.6998 33.522 27.5957 33.4952 27.4887 33.4689L24.8333 44.4011C24.6324 44.9141 24.1223 45.684 22.9727 45.3916C23.0134 45.4522 20.0214 44.6353 20.0214 44.6353L18.0054 49.4085L23.2896 50.7612C23.8682 50.9102 24.4401 51.0633 25.0061 51.2148L25.007 51.2151C25.4022 51.3209 25.7947 51.4259 26.1846 51.5283L24.5043 58.457L28.5602 59.496L30.2243 52.6409C31.3323 52.9498 32.4076 53.2347 33.4603 53.5033L31.8018 60.3261L35.8626 61.3651L37.5427 54.4495C44.4669 55.7952 49.6734 55.2526 51.8648 48.8211C53.6307 43.6431 51.7769 40.6564 48.1341 38.7087C50.7874 38.0803 52.7858 36.2883 53.3187 32.5865L53.3172 32.5859ZM44.0397 45.9455C42.8884 50.6962 35.6471 48.7322 32.3339 47.8335C32.0359 47.7527 31.7696 47.6805 31.5425 47.6226L33.7723 38.4433C34.0491 38.5142 34.3873 38.5922 34.7705 38.6805C38.1975 39.4703 45.2191 41.0885 44.0397 45.9455ZM35.4581 34.4203C38.2203 35.1773 44.2461 36.8287 45.2955 32.5109C46.3671 28.0949 40.5115 26.7635 37.6514 26.1132C37.3296 26.04 37.0458 25.9755 36.814 25.9162L34.7924 34.2413C34.9833 34.2901 35.2072 34.3515 35.4581 34.4203Z" fill="white"/>
    <path d="M168 38C168 58.9868 151.211 76 130.5 76C109.789 76 93 58.9868 93 38C93 17.0132 109.789 0 130.5 0C151.211 0 168 17.0132 168 38Z" fill="#EDF0F4"/>
    <path d="M130.398 15.2L130.099 16.2268V46.0199L130.398 46.3215L144.045 38.1468L130.398 15.2Z" fill="#343434"/>
    <path d="M130.398 15.2L116.75 38.1468L130.398 46.3215V31.8607V15.2Z" fill="#8C8C8C"/>
    <path d="M130.398 48.9398L130.23 49.1476V59.7603L130.398 60.2577L144.053 40.7694L130.398 48.9398Z" fill="#3C3C3B"/>
    <path d="M130.398 60.2577V48.9398L116.75 40.7694L130.398 60.2577Z" fill="#8C8C8C"/>
    <path d="M130.398 46.3215L144.045 38.1468L130.398 31.8607V46.3215Z" fill="#141414"/>
    <path d="M116.75 38.1468L130.398 46.3215V31.8607L116.75 38.1468Z" fill="#393939"/>
    <path d="M261.878 47.1924C256.869 67.5497 236.519 79.9388 216.425 74.8623C196.339 69.7872 184.112 49.1672 189.123 28.8115C194.13 8.45192 214.48 -3.93808 234.568 1.13709C254.66 6.21226 266.887 26.8345 261.877 47.1928L261.878 47.1924Z" fill="#50AF95"/>
    <path fill-rule="evenodd" clip-rule="evenodd" d="M230.25 42.3081C229.985 42.3282 228.615 42.4111 225.558 42.4111C223.127 42.4111 221.402 42.3372 220.796 42.3081C211.402 41.8894 204.39 40.2324 204.39 38.2485C204.39 36.2647 211.402 34.61 220.796 34.1845V40.6578C221.41 40.7026 223.169 40.8079 225.6 40.8079C228.517 40.8079 229.978 40.6847 230.241 40.6601V34.189C239.616 34.6122 246.612 36.2692 246.612 38.2485C246.612 40.2279 239.618 41.8849 230.241 42.3058L230.25 42.3081ZM230.25 33.5195V27.7269H243.333V18.8936H207.713V27.7269H220.794V33.5173C210.162 34.0121 202.167 36.146 202.167 38.7031C202.167 41.2602 210.162 43.3918 220.794 43.8889V62.4512H230.248V43.8822C240.855 43.3873 248.838 41.2557 248.838 38.7008C248.838 36.146 240.862 34.0144 230.248 33.5173L230.25 33.5195Z" fill="white"/>
    <path d="M357.818 49.0552C352.542 70.2162 331.107 83.0943 309.941 77.8174C288.784 72.5419 275.905 51.108 281.183 29.9488C286.457 8.78555 307.892 -4.09354 329.051 1.18198C350.215 6.45749 363.094 27.8937 357.818 49.0556L357.818 49.0552Z" fill="#F3BA2F"/>
    <path fill-rule="evenodd" clip-rule="evenodd" d="M319.504 25.0693L309.275 35.2976L303.323 29.3459L319.504 13.1667L335.691 29.3507L329.739 35.302L319.504 25.0693ZM299.12 33.5476L293.168 39.5L299.12 45.4503L305.072 39.4987L299.12 33.5476ZM309.275 43.703L319.504 53.9307L329.739 43.6982L335.694 49.6463L335.691 49.6495L319.504 65.8333L303.315 49.6457L309.275 43.703ZM339.889 33.551L333.937 39.5025L339.889 45.4537L345.841 39.5021L339.889 33.551Z" fill="white"/>
    <path d="M325.541 39.4968H325.544L319.504 33.4579L313.47 39.4907L313.462 39.4989L313.47 39.5076L319.504 45.5421L325.544 39.5032L325.547 39.4998L325.541 39.4968Z" fill="white"/>
    <circle cx="419" cy="38" r="37" fill="#EDF0F4"/>
    <path d="M425.601 40.3626L435.744 30.2508C436.505 29.4925 436.932 28.4615 436.93 27.3871L436.947 19.214C436.946 18.7947 436.784 18.3918 436.494 18.0886L417.036 37.5046C416.272 38.2618 415.842 39.2927 415.842 40.3683C415.842 41.4439 416.272 42.4749 417.036 43.232L430.756 56.9092C431.779 57.9272 433.267 58.322 434.66 57.945C436.054 57.5679 437.14 56.4763 437.51 55.0812C437.88 53.6862 437.478 52.1997 436.454 51.1817L425.601 40.3626Z" fill="#008C62"/>
    <path d="M435.36 17.6504H404.796C402.325 17.6504 400.5 19.5176 400.5 22.0663V53.9538C400.486 55.0484 400.915 56.1023 401.69 56.8761C402.464 57.6499 403.518 58.078 404.613 58.0632V58.0632C405.708 58.082 406.764 57.6551 407.539 56.8803C408.314 56.1056 408.741 55.0493 408.722 53.9538V25.5171H429.054L436.5 18.1086C436.199 17.8065 435.787 17.6409 435.36 17.6504Z" fill="#00E6A0"/>
</svg>
