<svg width="1106" height="81" viewBox="0 0 1106 81" fill="none" xmlns="http://www.w3.org/2000/svg">
    <line opacity="0.8" y1="-0.5" x2="35" y2="-0.5" transform="matrix(-1.81375e-10 1 1 1.05344e-05 1 17)" stroke="white"/>
    <path d="M129.893 47.1924C124.951 67.5497 104.872 79.9388 85.0462 74.8623C65.2283 69.7872 53.1639 49.1672 58.1082 28.8115C63.0482 8.45192 83.1266 -3.93808 102.947 1.13709C122.771 6.21226 134.835 26.8345 129.892 47.1928L129.893 47.1924Z" fill="#F7931A"/>
    <path fill-rule="evenodd" clip-rule="evenodd" d="M110.317 32.5859C111.054 27.529 107.305 24.8107 102.178 22.9973L103.841 16.1472L99.7805 15.1081L98.1615 21.7779C97.094 21.5045 95.9977 21.2468 94.9081 20.9915L96.5389 14.2777L92.4808 13.2386L90.8168 20.0865C89.9334 19.88 89.0657 19.6759 88.2239 19.4608L88.2286 19.4392L82.629 18.0033L81.5488 22.4569C81.5488 22.4569 84.5614 23.1661 84.498 23.2098C86.1423 23.6312 86.4396 24.749 86.3903 25.635L84.4958 33.4389C84.609 33.4684 84.7559 33.5111 84.9179 33.578L84.8 33.5478C84.6998 33.522 84.5957 33.4952 84.4887 33.4689L81.8333 44.4011C81.6324 44.9141 81.1223 45.684 79.9727 45.3916C80.0134 45.4522 77.0214 44.6353 77.0214 44.6353L75.0054 49.4085L80.2896 50.7612C80.8682 50.9102 81.4401 51.0633 82.0061 51.2148L82.007 51.2151C82.4022 51.3209 82.7947 51.4259 83.1846 51.5283L81.5043 58.457L85.5602 59.496L87.2243 52.6409C88.3323 52.9498 89.4076 53.2347 90.4603 53.5033L88.8018 60.3261L92.8626 61.3651L94.5427 54.4495C101.467 55.7952 106.673 55.2526 108.865 48.8211C110.631 43.6431 108.777 40.6564 105.134 38.7087C107.787 38.0803 109.786 36.2883 110.319 32.5865L110.317 32.5859ZM101.04 45.9455C99.8884 50.6962 92.6471 48.7322 89.3339 47.8335C89.0359 47.7527 88.7696 47.6805 88.5425 47.6226L90.7723 38.4433C91.0491 38.5142 91.3873 38.5922 91.7705 38.6805C95.1975 39.4703 102.219 41.0885 101.04 45.9455ZM92.4581 34.4203C95.2203 35.1773 101.246 36.8287 102.296 32.5109C103.367 28.0949 97.5115 26.7635 94.6514 26.1132C94.3296 26.04 94.0458 25.9755 93.814 25.9162L91.7924 34.2413C91.9833 34.2901 92.2072 34.3515 92.4581 34.4203Z" fill="white"/>
    <path d="M225 38C225 58.9868 208.211 76 187.5 76C166.789 76 150 58.9868 150 38C150 17.0132 166.789 0 187.5 0C208.211 0 225 17.0132 225 38Z" fill="#EDF0F4"/>
    <path d="M187.398 15.2L187.099 16.2268V46.0199L187.398 46.3215L201.045 38.1468L187.398 15.2Z" fill="#343434"/>
    <path d="M187.398 15.2L173.75 38.1468L187.398 46.3215V31.8607V15.2Z" fill="#8C8C8C"/>
    <path d="M187.398 48.9398L187.23 49.1476V59.7603L187.398 60.2577L201.053 40.7694L187.398 48.9398Z" fill="#3C3C3B"/>
    <path d="M187.398 60.2577V48.9398L173.75 40.7694L187.398 60.2577Z" fill="#8C8C8C"/>
    <path d="M187.398 46.3215L201.045 38.1468L187.398 31.8607V46.3215Z" fill="#141414"/>
    <path d="M173.75 38.1468L187.398 46.3215V31.8607L173.75 38.1468Z" fill="#393939"/>
    <path d="M318.878 47.1924C313.869 67.5497 293.519 79.9388 273.425 74.8623C253.339 69.7872 241.112 49.1672 246.123 28.8115C251.13 8.45192 271.48 -3.93808 291.568 1.13709C311.66 6.21226 323.887 26.8345 318.877 47.1928L318.878 47.1924Z" fill="#50AF95"/>
    <path fill-rule="evenodd" clip-rule="evenodd" d="M287.25 42.3081C286.985 42.3282 285.615 42.4111 282.558 42.4111C280.127 42.4111 278.402 42.3372 277.796 42.3081C268.402 41.8894 261.39 40.2324 261.39 38.2485C261.39 36.2647 268.402 34.61 277.796 34.1845V40.6578C278.41 40.7026 280.169 40.8079 282.6 40.8079C285.517 40.8079 286.978 40.6847 287.241 40.6601V34.189C296.616 34.6122 303.612 36.2692 303.612 38.2485C303.612 40.2279 296.618 41.8849 287.241 42.3058L287.25 42.3081ZM287.25 33.5195V27.7269H300.333V18.8936H264.713V27.7269H277.794V33.5173C267.162 34.0121 259.167 36.146 259.167 38.7031C259.167 41.2602 267.162 43.3918 277.794 43.8889V62.4512H287.248V43.8822C297.855 43.3873 305.838 41.2557 305.838 38.7008C305.838 36.146 297.862 34.0144 287.248 33.5173L287.25 33.5195Z" fill="white"/>
    <path d="M414.818 49.0552C409.542 70.2162 388.107 83.0943 366.941 77.8174C345.784 72.5419 332.905 51.108 338.183 29.9488C343.457 8.78555 364.892 -4.09354 386.051 1.18198C407.215 6.45749 420.094 27.8937 414.818 49.0556L414.818 49.0552Z" fill="#F3BA2F"/>
    <path fill-rule="evenodd" clip-rule="evenodd" d="M376.504 25.0693L366.275 35.2976L360.323 29.3459L376.504 13.1667L392.691 29.3507L386.739 35.302L376.504 25.0693ZM356.12 33.5476L350.168 39.5L356.12 45.4503L362.072 39.4987L356.12 33.5476ZM366.275 43.703L376.504 53.9307L386.739 43.6982L392.694 49.6463L392.691 49.6495L376.504 65.8333L360.315 49.6457L366.275 43.703ZM396.889 33.551L390.937 39.5025L396.889 45.4537L402.841 39.5021L396.889 33.551Z" fill="white"/>
    <path d="M382.541 39.4968H382.544L376.504 33.4579L370.47 39.4907L370.462 39.4989L370.47 39.5076L376.504 45.5421L382.544 39.5032L382.547 39.4998L382.541 39.4968Z" fill="white"/>
    <path d="M713 39.5C713 60.763 695.763 78 674.5 78C653.237 78 636 60.763 636 39.5C636 18.237 653.237 1 674.5 1C695.763 1 713 18.237 713 39.5Z" fill="#EDF0F4"/>
    <path d="M674.591 14.3483L681.176 21.0918L664.595 37.673L658.01 31.0881L674.591 14.3483Z" fill="#F0B90B"/>
    <path d="M684.587 24.3446L691.172 31.0881L664.595 57.6656L658.01 51.0807L684.587 24.3446Z" fill="#F0B90B"/>
    <path d="M654.598 34.3409L661.183 41.0844L654.598 47.6693L648.013 41.0844L654.598 34.3409Z" fill="#F0B90B"/>
    <path d="M694.584 34.3409L701.168 41.0844L674.591 67.6619L668.006 61.077L694.584 34.3409Z" fill="#F0B90B"/>
    <path d="M713 39.5C713 60.763 695.763 78 674.5 78C653.237 78 636 60.763 636 39.5C636 18.237 653.237 1 674.5 1C695.763 1 713 18.237 713 39.5Z" stroke="#F0B90B"/>
    <path d="M674.591 14.3483L681.176 21.0918L664.595 37.673L658.01 31.0881L674.591 14.3483Z" stroke="#F0B90B"/>
    <path d="M684.587 24.3446L691.172 31.0881L664.595 57.6656L658.01 51.0807L684.587 24.3446Z" stroke="#F0B90B"/>
    <path d="M654.598 34.3409L661.183 41.0844L654.598 47.6693L648.013 41.0844L654.598 34.3409Z" stroke="#F0B90B"/>
    <path d="M694.584 34.3409L701.168 41.0844L674.591 67.6619L668.006 61.077L694.584 34.3409Z" stroke="#F0B90B"/>
    <path d="M812 41C812 63.0914 793.868 81 771.5 81C749.132 81 731 63.0914 731 41C731 18.9086 749.132 1 771.5 1C793.868 1 812 18.9086 812 41Z" fill="#EDF0F4"/>
    <path d="M783.652 32.9664C782.788 32.4758 781.678 32.4758 780.691 32.9664L773.782 37.0138L769.094 39.5895L762.309 43.637C761.445 44.1276 760.335 44.1276 759.348 43.637L754.043 40.4481C753.18 39.9575 752.563 38.9763 752.563 37.8724V31.7399C752.563 30.7587 753.056 29.7774 754.043 29.1642L759.348 26.0979C760.212 25.6073 761.322 25.6073 762.309 26.0979L767.614 29.2868C768.477 29.7774 769.094 30.7587 769.094 31.8625V35.91L773.782 33.2117V29.0415C773.782 28.0603 773.289 27.0791 772.302 26.4659L762.432 20.7013C761.569 20.2107 760.459 20.2107 759.472 20.7013L749.355 26.5885C748.368 27.0791 747.875 28.0603 747.875 29.0415V40.5707C747.875 41.5519 748.368 42.5331 749.355 43.1464L759.348 48.911C760.212 49.4016 761.322 49.4016 762.309 48.911L769.094 44.9862L773.782 42.2878L780.568 38.363C781.431 37.8724 782.541 37.8724 783.528 38.363L788.833 41.4293C789.697 41.9199 790.314 42.9011 790.314 44.0049V50.1375C790.314 51.1187 789.82 52.0999 788.833 52.7132L783.652 55.7794C782.788 56.27 781.678 56.27 780.691 55.7794L775.386 52.7132C774.523 52.2226 773.906 51.2413 773.906 50.1375V46.2127L769.218 48.911V52.9585C769.218 53.9397 769.711 54.9209 770.698 55.5341L780.691 61.2987C781.555 61.7893 782.665 61.7893 783.652 61.2987L793.645 55.5341C794.508 55.0435 795.125 54.0623 795.125 52.9585V41.3066C795.125 40.3254 794.632 39.3442 793.645 38.731L783.652 32.9664Z" fill="#8247E5"/>
    <path d="M1106 41C1106 63.0914 1088.09 81 1066 81C1043.91 81 1026 63.0914 1026 41C1026 18.9086 1043.91 1 1066 1C1088.09 1 1106 18.9086 1106 41Z" fill="url(#paint0_linear_103_571)"/>
    <path fill-rule="evenodd" clip-rule="evenodd" d="M1046.31 34.1733V53H1042.67V31.1333C1042.67 30.3289 1043.13 29.5949 1043.85 29.2352C1044.57 28.8754 1045.43 28.951 1046.07 29.4307L1063.39 42.4667C1063.92 42.8673 1064.23 43.4941 1064.23 44.16V53H1060.59V44.9187L1046.31 34.1733ZM1085.8 34.1733V53H1089.44V31.1333C1089.44 30.3298 1088.98 29.5977 1088.26 29.2393C1087.54 28.8809 1086.68 28.9569 1086.04 29.436L1068.72 42.4667C1068.19 42.8673 1067.88 43.4941 1067.88 44.16V53H1071.52V44.9187L1085.8 34.1733Z" fill="white"/>
    <path d="M909 39.5C909 60.763 891.539 78 870 78C848.461 78 831 60.763 831 39.5C831 18.237 848.461 1 870 1C891.539 1 909 18.237 909 39.5Z" fill="#EDF0F4"/>
    <path fill-rule="evenodd" clip-rule="evenodd" d="M883.795 18.0926L895.742 38.5283H895.747C896.084 39.1887 896.084 39.9682 895.747 40.6286L883.795 61.0643C883.385 61.6837 882.701 62.0737 881.952 62.1152H876.488L884.428 48.5399C884.652 48.1033 884.652 47.5874 884.428 47.1508L875.41 31.73C875.138 31.32 874.685 31.062 874.19 31.0355H856.154C855.659 31.062 855.206 31.32 854.934 31.73L846.992 45.3114L844.253 40.6286C843.916 39.9682 843.916 39.1887 844.253 38.5283L856.205 18.0926C856.615 17.4732 857.299 17.0831 858.048 17.0417H881.952C882.701 17.0831 883.385 17.4732 883.795 18.0926ZM881.609 47.3374L873.821 34.0259C873.629 33.7406 873.313 33.5604 872.967 33.5392H857.391C857.044 33.5604 856.728 33.7406 856.536 34.0259L848.748 47.3434C848.593 47.6499 848.593 48.0105 848.748 48.317L851.031 52.2234L855.025 45.3993C855.244 45.0668 855.611 44.8573 856.013 44.8352H866.274C866.676 44.8573 867.042 45.0668 867.262 45.3993L872.394 54.1735C872.575 54.5278 872.575 54.946 872.394 55.3003L868.4 62.1243H872.962C873.309 62.1031 873.625 61.9223 873.817 61.636L881.605 48.32C881.765 48.0118 881.766 47.647 881.609 47.3374ZM856.222 61.0901L852.701 55.0698C852.59 54.8474 852.59 54.587 852.701 54.3646L856.61 47.6816C856.75 47.4724 856.981 47.3404 857.234 47.3252H865.051C865.305 47.3404 865.536 47.4724 865.677 47.6816L869.586 54.3646C869.698 54.5893 869.698 54.8526 869.586 55.0773L865.677 61.7603C865.537 61.9649 865.311 62.0956 865.062 62.1152H858.034C857.302 62.0689 856.632 61.6904 856.222 61.0901Z" fill="url(#paint1_linear_103_571)"/>
    <path d="M1007 42.5C1007 63.763 989.315 81 967.5 81C945.685 81 928 63.763 928 42.5C928 21.237 945.685 4 967.5 4C989.315 4 1007 21.237 1007 42.5Z" fill="#EDF0F4"/>
    <path fill-rule="evenodd" clip-rule="evenodd" d="M948.744 27.7417H959.488C959.546 27.7407 959.602 27.7539 959.653 27.7802C959.701 27.8063 959.742 27.8438 959.771 27.8893L972.853 48.2751C972.924 48.3801 972.924 48.5165 972.853 48.6216L967.5 56.944C967.471 56.9894 967.43 57.027 967.382 57.0531C967.281 57.1067 967.16 57.1067 967.059 57.0531C967.011 57.027 966.97 56.9894 966.941 56.944L948.461 28.2358C948.429 28.1879 948.411 28.1325 948.409 28.0754C948.406 28.0173 948.42 27.9597 948.448 27.9086C948.478 27.8576 948.521 27.8154 948.573 27.7866C948.625 27.7567 948.684 27.7412 948.744 27.7417ZM971.266 27.7417H985.657C985.717 27.7412 985.777 27.7567 985.828 27.7866C985.873 27.818 985.91 27.8599 985.934 27.9086C985.962 27.9598 985.975 28.0173 985.973 28.0754C985.975 28.1313 985.961 28.1866 985.934 28.2358L978.745 39.4265C978.715 39.4719 978.674 39.5095 978.626 39.5356C978.526 39.5892 978.404 39.5892 978.304 39.5356C978.255 39.5095 978.215 39.4719 978.185 39.4265L970.989 28.2358C970.958 28.1879 970.939 28.1325 970.937 28.0754C970.934 28.0173 970.948 27.9597 970.976 27.9086C971.006 27.8576 971.049 27.8154 971.101 27.7866C971.151 27.7578 971.208 27.7423 971.266 27.7417Z" fill="#FF8836"/>
    <g opacity="0.5">
        <path d="M615 39C615 60.5391 597.315 78 575.5 78C553.685 78 536 60.5391 536 39C536 17.4609 553.685 0 575.5 0C597.315 0 615 17.4609 615 39Z" fill="#EDF0F4"/>
        <path d="M589.349 19.5H560.989C557.021 19.5 553.775 22.7942 553.775 26.8898V51.4631C553.775 53.5999 556.345 54.6238 557.743 53.0212C559.456 51.0624 562.432 51.1069 564.1 53.0657L566.309 55.6031C567.211 56.627 568.789 56.627 569.691 55.6031L571.99 53.0212C573.704 51.1069 576.634 51.1069 578.348 53.0212L580.647 55.6476C581.549 56.6715 583.127 56.6715 584.029 55.6476L586.328 53.0212C588.042 51.1069 590.972 51.1069 592.686 53.0212L592.731 53.0657C594.128 54.6683 596.698 53.6444 596.698 51.5076V26.8898C596.563 22.7942 593.362 19.5 589.349 19.5Z" fill="#88C6DE"/>
        <path d="M589.349 20.9691H560.989C557.021 20.9691 553.775 24.2633 553.775 28.3588V52.9321C553.775 55.0689 556.345 56.0928 557.743 54.4902C559.456 52.5315 562.432 52.576 564.1 54.5347L566.309 57.0722C567.211 58.0961 568.789 58.0961 569.691 57.0722L571.99 54.4902C573.704 52.576 576.634 52.576 578.348 54.4902L580.647 57.1167C581.549 58.1406 583.127 58.1406 584.029 57.1167L586.328 54.4902C588.042 52.576 590.972 52.576 592.686 54.4902L592.731 54.5347C594.128 56.1373 596.698 55.1134 596.698 52.9766V28.3588C596.563 24.2633 593.362 20.9691 589.349 20.9691Z" fill="#6CA2CB"/>
        <path d="M571.404 33.3447C571.404 35.7296 569.446 37.6629 567.031 37.6629C564.615 37.6629 562.657 35.7296 562.657 33.3447C562.657 30.9599 564.615 29.0266 567.031 29.0266C569.446 29.0266 571.404 30.9599 571.404 33.3447Z" fill="white"/>
        <path d="M587.726 33.3447C587.726 35.7296 585.768 37.6629 583.352 37.6629C580.937 37.6629 578.979 35.7296 578.979 33.3447C578.979 30.9599 580.937 29.0266 583.352 29.0266C585.768 29.0266 587.726 30.9599 587.726 33.3447Z" fill="white"/>
        <path d="M586.824 33.3447C586.824 35.2378 585.27 36.7725 583.352 36.7725C581.435 36.7725 579.881 35.2378 579.881 33.3447C579.881 31.4516 581.435 29.9169 583.352 29.9169C585.27 29.9169 586.824 31.4516 586.824 33.3447Z" fill="url(#paint2_linear_103_571)"/>
        <path d="M586.103 33.3447C586.103 34.8445 584.871 36.0603 583.352 36.0603C581.833 36.0603 580.602 34.8445 580.602 33.3447C580.602 31.845 581.833 30.6292 583.352 30.6292C584.871 30.6292 586.103 31.845 586.103 33.3447Z" fill="url(#paint3_linear_103_571)"/>
        <path d="M585.066 33.3447C585.066 34.279 584.299 35.0364 583.352 35.0364C582.406 35.0364 581.639 34.279 581.639 33.3447C581.639 32.4105 582.406 31.6531 583.352 31.6531C584.299 31.6531 585.066 32.4105 585.066 33.3447Z" fill="url(#paint4_linear_103_571)"/>
        <path d="M570.502 33.3447C570.502 35.2378 568.948 36.7725 567.031 36.7725C565.113 36.7725 563.559 35.2378 563.559 33.3447C563.559 31.4516 565.113 29.9169 567.031 29.9169C568.948 29.9169 570.502 31.4516 570.502 33.3447Z" fill="url(#paint5_linear_103_571)"/>
        <path d="M569.781 33.3447C569.781 34.8445 568.55 36.0603 567.031 36.0603C565.512 36.0603 564.28 34.8445 564.28 33.3447C564.28 31.845 565.512 30.6292 567.031 30.6292C568.55 30.6292 569.781 31.845 569.781 33.3447Z" fill="url(#paint6_linear_103_571)"/>
        <path d="M568.744 33.3447C568.744 34.279 567.977 35.0364 567.031 35.0364C566.084 35.0364 565.317 34.279 565.317 33.3447C565.317 32.4105 566.084 31.6531 567.031 31.6531C567.977 31.6531 568.744 32.4105 568.744 33.3447Z" fill="url(#paint7_linear_103_571)"/>
        <path d="M570.187 31.0744C570.187 31.6153 569.743 32.0537 569.195 32.0537C568.647 32.0537 568.203 31.6153 568.203 31.0744C568.203 30.5335 568.647 30.095 569.195 30.095C569.743 30.095 570.187 30.5335 570.187 31.0744Z" fill="white"/>
        <path d="M586.509 31.0744C586.509 31.6153 586.064 32.0537 585.517 32.0537C584.969 32.0537 584.525 31.6153 584.525 31.0744C584.525 30.5335 584.969 30.095 585.517 30.095C586.064 30.095 586.509 30.5335 586.509 31.0744Z" fill="white"/>
    </g>
    <circle cx="476" cy="38" r="37" fill="#EDF0F4"/>
    <path d="M482.601 40.3624L492.744 30.2506C493.505 29.4923 493.932 28.4613 493.93 27.3869L493.947 19.2138C493.946 18.7945 493.784 18.3916 493.495 18.0884L474.036 37.5044C473.272 38.2616 472.842 39.2926 472.842 40.3681C472.842 41.4437 473.272 42.4747 474.036 43.2318L487.756 56.909C488.779 57.927 490.267 58.3218 491.66 57.9448C493.054 57.5677 494.14 56.4761 494.51 55.081C494.88 53.686 494.478 52.1995 493.454 51.1815L482.601 40.3624Z" fill="#008C62"/>
    <path d="M492.36 17.6503H461.796C459.325 17.6503 457.5 19.5174 457.5 22.0661V53.9537C457.486 55.0483 457.915 56.1021 458.69 56.876C459.464 57.6498 460.518 58.0779 461.613 58.0631V58.0631C462.708 58.0819 463.764 57.655 464.539 56.8802C465.314 56.1054 465.741 55.0492 465.722 53.9537V25.5169H486.054L493.5 18.1085C493.199 17.8064 492.787 17.6408 492.36 17.6503Z" fill="#00E6A0"/>
    <defs>
        <linearGradient id="paint0_linear_103_571" x1="1026" y1="1" x2="1026" y2="81" gradientUnits="userSpaceOnUse">
            <stop stop-color="#4FA89B"/>
            <stop offset="1" stop-color="#6ACEBB"/>
        </linearGradient>
        <linearGradient id="paint1_linear_103_571" x1="882.638" y1="73.0768" x2="903.228" y2="26.2429" gradientUnits="userSpaceOnUse">
            <stop stop-color="#FFDC00"/>
            <stop offset="0.33" stop-color="#E58E2F"/>
            <stop offset="0.67" stop-color="#DB2D72"/>
            <stop offset="1" stop-color="#FF00FF"/>
        </linearGradient>
        <linearGradient id="paint2_linear_103_571" x1="535.807" y1="77.9605" x2="614.727" y2="77.9605" gradientUnits="userSpaceOnUse">
            <stop stop-color="#1EAACC"/>
            <stop offset="1" stop-color="#0584B9"/>
        </linearGradient>
        <linearGradient id="paint3_linear_103_571" x1="535.639" y1="78.0665" x2="614.773" y2="78.0665" gradientUnits="userSpaceOnUse">
            <stop stop-color="#1EAACC"/>
            <stop offset="1" stop-color="#0584B9"/>
        </linearGradient>
        <linearGradient id="paint4_linear_103_571" x1="535.14" y1="78.3828" x2="614.916" y2="78.3828" gradientUnits="userSpaceOnUse">
            <stop stop-color="#1EAACC"/>
            <stop offset="1" stop-color="#0584B9"/>
        </linearGradient>
        <linearGradient id="paint5_linear_103_571" x1="535.913" y1="77.9602" x2="614.832" y2="77.9602" gradientUnits="userSpaceOnUse">
            <stop stop-color="#1EAACC"/>
            <stop offset="1" stop-color="#0584B9"/>
        </linearGradient>
        <linearGradient id="paint6_linear_103_571" x1="535.771" y1="78.0665" x2="614.906" y2="78.0665" gradientUnits="userSpaceOnUse">
            <stop stop-color="#1EAACC"/>
            <stop offset="1" stop-color="#0584B9"/>
        </linearGradient>
        <linearGradient id="paint7_linear_103_571" x1="535.353" y1="78.3833" x2="615.13" y2="78.3833" gradientUnits="userSpaceOnUse">
            <stop stop-color="#1EAACC"/>
            <stop offset="1" stop-color="#0584B9"/>
        </linearGradient>
    </defs>
</svg>
