<svg width="611" height="286" viewBox="0 0 611 286" fill="none" xmlns="http://www.w3.org/2000/svg">
    <rect x="0.5" y="0.5" width="190" height="96" rx="19.5" stroke="white"/>
    <path d="M51.7501 38.3958C51.7501 44.5515 46.7599 49.5417 40.6042 49.5417C34.4485 49.5417 29.4583 44.5515 29.4583 38.3958C29.4583 32.2402 34.4485 27.25 40.6042 27.25C46.7599 27.25 51.7501 32.2402 51.7501 38.3958Z" fill="white"/>
    <path fill-rule="evenodd" clip-rule="evenodd" d="M28 38.5C28 31.5964 33.5964 26 40.5 26H40.5726C43.8782 26.0096 47.0445 27.332 49.3751 29.6762C51.7057 32.0204 53.0096 35.1944 52.9999 38.5C52.9999 45.4036 47.4035 51 40.5 51C33.5964 51 28 45.4036 28 38.5ZM39.4104 43.3123L40.7118 38.9237L42.7397 38.3487L43.1634 36.8959L41.1658 37.5012L43.2845 30.2978V30.1828C43.2813 30.0897 43.2413 30.0016 43.1731 29.938C43.105 29.8745 43.0144 29.8406 42.9213 29.8438H40.2276C40.0177 29.8374 39.8305 29.9747 39.7736 30.1768L37.2615 38.7119L35.2639 39.3172L34.8099 40.7094L36.8075 40.1041L35.0218 46.1876H45.6755C45.886 46.1964 46.0745 46.0581 46.1295 45.8547L46.7348 43.7663V43.6513C46.7317 43.5582 46.6916 43.4701 46.6235 43.4066C46.5554 43.343 46.4648 43.3091 46.3716 43.3123H39.4104Z" fill="#4682DF"/>
    <circle cx="149" cy="39" r="12" fill="#EDF0F4"/>
    <path d="M148.967 31.8L148.872 32.1242V41.5326L148.967 41.6278L153.334 39.0464L148.967 31.8Z" fill="#343434"/>
    <path d="M148.967 31.8L144.6 39.0464L148.967 41.6278V37.0613V31.8Z" fill="#8C8C8C"/>
    <path d="M148.967 42.4546L148.913 42.5202V45.8716L148.967 46.0287L153.337 39.8745L148.967 42.4546Z" fill="#3C3C3B"/>
    <path d="M148.967 46.0287V42.4546L144.6 39.8745L148.967 46.0287Z" fill="#8C8C8C"/>
    <path d="M148.967 41.6278L153.334 39.0464L148.967 37.0613V41.6278Z" fill="#141414"/>
    <path d="M144.6 39.0464L148.967 41.6278V37.0613L144.6 39.0464Z" fill="#393939"/>
    <rect x="210.5" y="0.5" width="190" height="96" rx="19.5" stroke="white"/>
    <rect x="420.5" y="0.5" width="190" height="96" rx="19.5" stroke="white"/>
    <path d="M302 99V164.5M302 164.5H111.5C100.454 164.5 91.5 155.546 91.5 144.5V99M302 164.5H500C511.046 164.5 520 155.546 520 144.5V99" stroke="white" stroke-width="2" stroke-dasharray="4 4"/>
    <circle cx="302" cy="165" r="7" fill="#20F1C0"/>
    <path d="M80.6427 78.192C77.4587 78.192 75.0427 75.792 75.0427 72.384C75.0427 68.976 77.4587 66.608 80.6427 66.608C83.1067 66.608 85.0427 67.936 85.6507 69.808L84.4987 70.448C84.0347 68.96 82.5307 67.904 80.6427 67.904C78.2427 67.904 76.4347 69.728 76.4347 72.384C76.4347 75.04 78.2427 76.896 80.6427 76.896C82.5147 76.896 84.0187 75.84 84.4987 74.352L85.6667 74.992C85.0427 76.864 83.1067 78.192 80.6427 78.192ZM90.2309 78.192C87.9749 78.192 86.2149 76.544 86.2149 74.176C86.2149 71.728 87.9909 70.096 90.2309 70.096C92.4869 70.096 94.2629 71.728 94.2629 74.176C94.2629 76.544 92.4869 78.192 90.2309 78.192ZM90.2309 76.992C91.7669 76.992 92.9509 75.84 92.9509 74.176C92.9509 72.448 91.7669 71.296 90.2309 71.296C88.7109 71.296 87.5269 72.448 87.5269 74.176C87.5269 75.84 88.7109 76.992 90.2309 76.992ZM96.4048 69.024C95.8448 69.024 95.4288 68.592 95.4288 68.064C95.4288 67.52 95.8448 67.088 96.4048 67.088C96.9488 67.088 97.3808 67.52 97.3808 68.064C97.3808 68.592 96.9488 69.024 96.4048 69.024ZM95.7488 78V70.288H97.0608V78H95.7488ZM102.792 70.096C104.6 70.096 105.784 71.28 105.784 73.072V78H104.472V73.36C104.472 72.08 103.72 71.296 102.488 71.296C101.24 71.296 100.456 72.112 100.456 73.36V78H99.1437V70.288H100.456V71.2C100.952 70.48 101.752 70.096 102.792 70.096ZM110.303 78.192C108.751 78.192 107.519 77.392 107.087 76.176L108.079 75.616C108.351 76.496 109.247 77.152 110.367 77.152C111.279 77.152 111.935 76.672 111.935 75.952C111.935 75.28 111.391 75.024 110.415 74.768L109.439 74.512C107.999 74.144 107.215 73.536 107.215 72.32C107.215 71.04 108.319 70.096 110.047 70.096C111.423 70.096 112.559 70.832 112.959 71.92L111.967 72.48C111.727 71.712 110.895 71.136 109.983 71.136C109.071 71.12 108.463 71.6 108.463 72.256C108.463 72.912 108.927 73.2 109.871 73.44L110.879 73.712C112.255 74.08 113.183 74.48 113.183 75.856C113.183 77.248 111.999 78.192 110.303 78.192Z" fill="white"/>
    <path d="M266.862 78.192C264.862 78.192 263.102 77.04 262.59 75.232L263.758 74.656C264.126 76.064 265.358 76.928 266.862 76.928C268.286 76.928 269.31 76.192 269.31 75.008C269.31 73.888 268.366 73.472 267.294 73.168L265.678 72.704C263.966 72.208 262.814 71.376 262.814 69.744C262.814 67.84 264.35 66.608 266.43 66.608C268.238 66.608 269.79 67.584 270.27 69.088L269.102 69.696C268.782 68.56 267.742 67.872 266.446 67.872C265.118 67.872 264.206 68.608 264.206 69.712C264.206 70.816 265.15 71.296 266.158 71.584L267.71 72.016C269.39 72.496 270.702 73.216 270.702 74.992C270.702 76.928 269.07 78.192 266.862 78.192ZM275.095 78.096C273.623 78.096 272.679 77.184 272.679 75.76V71.424H271.111V70.288H271.751C272.439 70.288 272.679 69.888 272.679 68.736V68.096H273.991V70.288H276.231V71.424H273.991V75.68C273.991 76.496 274.471 76.976 275.255 76.976C275.639 76.976 276.023 76.912 276.327 76.8L276.503 77.856C276.087 78.016 275.591 78.096 275.095 78.096ZM280.747 70.096C282.667 70.096 283.963 71.248 283.963 72.88V78H282.667V77.008C282.139 77.76 281.243 78.192 280.091 78.192C278.491 78.192 277.323 77.328 277.323 75.888C277.323 74.64 278.155 73.856 279.691 73.616L282.651 73.168V72.88C282.651 71.856 281.899 71.232 280.747 71.232C279.659 71.232 278.795 71.84 278.523 72.8L277.451 72.224C277.915 70.928 279.179 70.096 280.747 70.096ZM282.651 74.896V74.304L279.691 74.752C278.987 74.864 278.635 75.216 278.635 75.808C278.635 76.544 279.339 77.072 280.379 77.072C281.723 77.072 282.651 76.208 282.651 74.896ZM290.12 70.096C292.36 70.096 294.024 71.744 294.024 74.176C294.024 76.544 292.36 78.192 290.12 78.192C288.936 78.192 287.864 77.696 287.224 76.848V78H285.912V66.8H287.224V71.456C287.848 70.592 288.92 70.096 290.12 70.096ZM289.96 76.992C291.512 76.992 292.696 75.824 292.696 74.176C292.696 72.448 291.512 71.296 289.96 71.296C288.424 71.296 287.224 72.464 287.224 74.176C287.224 75.824 288.424 76.992 289.96 76.992ZM295.51 78V66.8H296.822V78H295.51ZM302.361 78.192C300.057 78.192 298.313 76.496 298.313 74.144C298.313 71.776 300.025 70.096 302.297 70.096C304.521 70.096 306.041 71.6 306.041 73.904C306.041 74.128 306.025 74.384 306.009 74.48H299.657C299.737 76 300.889 77.056 302.361 77.056C303.497 77.056 304.441 76.448 304.729 75.584L305.817 76.16C305.369 77.392 303.993 78.192 302.361 78.192ZM299.689 73.312H304.761C304.665 72.016 303.625 71.232 302.313 71.232C300.969 71.232 299.913 72.048 299.689 73.312ZM307.55 78V66.8H308.862V73.968L312.702 70.288H314.254L311.07 73.36L314.51 78H312.99L310.126 74.352L308.862 75.616V78H307.55ZM318.588 78.192C316.332 78.192 314.572 76.544 314.572 74.176C314.572 71.728 316.348 70.096 318.588 70.096C320.844 70.096 322.62 71.728 322.62 74.176C322.62 76.544 320.844 78.192 318.588 78.192ZM318.588 76.992C320.124 76.992 321.308 75.84 321.308 74.176C321.308 72.448 320.124 71.296 318.588 71.296C317.068 71.296 315.884 72.448 315.884 74.176C315.884 75.84 317.068 76.992 318.588 76.992ZM324.762 69.024C324.202 69.024 323.786 68.592 323.786 68.064C323.786 67.52 324.202 67.088 324.762 67.088C325.306 67.088 325.738 67.52 325.738 68.064C325.738 68.592 325.306 69.024 324.762 69.024ZM324.106 78V70.288H325.418V78H324.106ZM331.149 70.096C332.957 70.096 334.141 71.28 334.141 73.072V78H332.829V73.36C332.829 72.08 332.077 71.296 330.845 71.296C329.597 71.296 328.813 72.112 328.813 73.36V78H327.501V70.288H328.813V71.2C329.309 70.48 330.109 70.096 331.149 70.096ZM338.659 78.192C337.107 78.192 335.875 77.392 335.443 76.176L336.435 75.616C336.707 76.496 337.603 77.152 338.723 77.152C339.635 77.152 340.291 76.672 340.291 75.952C340.291 75.28 339.747 75.024 338.771 74.768L337.795 74.512C336.355 74.144 335.571 73.536 335.571 72.32C335.571 71.04 336.675 70.096 338.403 70.096C339.779 70.096 340.915 70.832 341.315 71.92L340.323 72.48C340.083 71.712 339.251 71.136 338.339 71.136C337.427 71.12 336.819 71.6 336.819 72.256C336.819 72.912 337.283 73.2 338.227 73.44L339.235 73.712C340.611 74.08 341.539 74.48 341.539 75.856C341.539 77.248 340.355 78.192 338.659 78.192Z" fill="white"/>
    <path d="M288.36 276.192C285.832 276.192 284.184 274.416 284.184 271.824V264.8H285.528V271.84C285.528 273.648 286.68 274.896 288.36 274.896C290.04 274.896 291.176 273.648 291.176 271.84V264.8H292.52V271.856C292.52 274.416 290.872 276.192 288.36 276.192ZM298.478 276.192C296.478 276.192 294.718 275.04 294.206 273.232L295.374 272.656C295.742 274.064 296.974 274.928 298.478 274.928C299.902 274.928 300.926 274.192 300.926 273.008C300.926 271.888 299.982 271.472 298.91 271.168L297.294 270.704C295.582 270.208 294.43 269.376 294.43 267.744C294.43 265.84 295.966 264.608 298.046 264.608C299.854 264.608 301.406 265.584 301.886 267.088L300.718 267.696C300.398 266.56 299.358 265.872 298.062 265.872C296.734 265.872 295.822 266.608 295.822 267.712C295.822 268.816 296.766 269.296 297.774 269.584L299.326 270.016C301.006 270.496 302.318 271.216 302.318 272.992C302.318 274.928 300.686 276.192 298.478 276.192ZM304.166 276V264.8H307.846C311.494 264.8 313.622 266.864 313.622 270.384C313.622 273.904 311.478 276 307.846 276H304.166ZM305.51 274.784H307.814C310.614 274.784 312.246 273.136 312.246 270.384C312.246 267.632 310.614 266.016 307.814 266.016H305.51V274.784ZM332.952 264.8H334.424L330.664 276H329.128L325.88 266.576L322.616 276H321.064L317.304 264.8H318.792L321.88 274.304L325.144 264.8H326.6L329.848 274.32L332.952 264.8ZM337.981 268.096C339.901 268.096 341.197 269.248 341.197 270.88V276H339.901V275.008C339.373 275.76 338.477 276.192 337.325 276.192C335.725 276.192 334.557 275.328 334.557 273.888C334.557 272.64 335.389 271.856 336.925 271.616L339.885 271.168V270.88C339.885 269.856 339.133 269.232 337.981 269.232C336.893 269.232 336.029 269.84 335.757 270.8L334.685 270.224C335.149 268.928 336.413 268.096 337.981 268.096ZM339.885 272.896V272.304L336.925 272.752C336.221 272.864 335.869 273.216 335.869 273.808C335.869 274.544 336.573 275.072 337.613 275.072C338.957 275.072 339.885 274.208 339.885 272.896ZM343.146 276V264.8H344.458V276H343.146ZM346.541 276V264.8H347.853V276H346.541ZM353.392 276.192C351.088 276.192 349.344 274.496 349.344 272.144C349.344 269.776 351.056 268.096 353.328 268.096C355.552 268.096 357.072 269.6 357.072 271.904C357.072 272.128 357.056 272.384 357.04 272.48H350.688C350.768 274 351.92 275.056 353.392 275.056C354.528 275.056 355.472 274.448 355.76 273.584L356.848 274.16C356.4 275.392 355.024 276.192 353.392 276.192ZM350.72 271.312H355.792C355.696 270.016 354.656 269.232 353.344 269.232C352 269.232 350.944 270.048 350.72 271.312ZM361.413 276.096C359.941 276.096 358.997 275.184 358.997 273.76V269.424H357.429V268.288H358.069C358.757 268.288 358.997 267.888 358.997 266.736V266.096H360.309V268.288H362.549V269.424H360.309V273.68C360.309 274.496 360.789 274.976 361.573 274.976C361.957 274.976 362.341 274.912 362.645 274.8L362.821 275.856C362.405 276.016 361.909 276.096 361.413 276.096Z" fill="white"/>
    <path d="M269.296 195.192C266.112 195.192 263.696 192.792 263.696 189.384C263.696 185.976 266.112 183.608 269.296 183.608C271.76 183.608 273.696 184.936 274.304 186.808L273.152 187.448C272.688 185.96 271.184 184.904 269.296 184.904C266.896 184.904 265.088 186.728 265.088 189.384C265.088 192.04 266.896 193.896 269.296 193.896C271.168 193.896 272.672 192.84 273.152 191.352L274.32 191.992C273.696 193.864 271.76 195.192 269.296 195.192ZM278.884 195.192C276.628 195.192 274.868 193.544 274.868 191.176C274.868 188.728 276.644 187.096 278.884 187.096C281.14 187.096 282.916 188.728 282.916 191.176C282.916 193.544 281.14 195.192 278.884 195.192ZM278.884 193.992C280.42 193.992 281.604 192.84 281.604 191.176C281.604 189.448 280.42 188.296 278.884 188.296C277.364 188.296 276.18 189.448 276.18 191.176C276.18 192.84 277.364 193.992 278.884 193.992ZM288.05 187.096C289.858 187.096 291.042 188.28 291.042 190.072V195H289.73V190.36C289.73 189.08 288.978 188.296 287.746 188.296C286.498 188.296 285.714 189.112 285.714 190.36V195H284.402V187.288H285.714V188.2C286.21 187.48 287.01 187.096 288.05 187.096ZM298.192 187.288H299.536L296.208 195H294.816L291.472 187.288H292.848L295.52 193.64L298.192 187.288ZM303.648 195.192C301.344 195.192 299.6 193.496 299.6 191.144C299.6 188.776 301.312 187.096 303.584 187.096C305.808 187.096 307.328 188.6 307.328 190.904C307.328 191.128 307.312 191.384 307.296 191.48H300.944C301.024 193 302.176 194.056 303.648 194.056C304.784 194.056 305.728 193.448 306.016 192.584L307.104 193.16C306.656 194.392 305.28 195.192 303.648 195.192ZM300.976 190.312H306.048C305.952 189.016 304.912 188.232 303.6 188.232C302.256 188.232 301.2 189.048 300.976 190.312ZM312.453 187.096C312.709 187.096 312.981 187.128 313.237 187.192V188.36C312.981 188.312 312.725 188.28 312.469 188.28C311.029 188.28 310.149 189.256 310.149 190.728V195H308.837V187.288H310.149V188.344C310.645 187.544 311.429 187.096 312.453 187.096ZM316.746 195.192C315.194 195.192 313.962 194.392 313.53 193.176L314.522 192.616C314.794 193.496 315.69 194.152 316.81 194.152C317.722 194.152 318.378 193.672 318.378 192.952C318.378 192.28 317.834 192.024 316.858 191.768L315.882 191.512C314.442 191.144 313.658 190.536 313.658 189.32C313.658 188.04 314.762 187.096 316.49 187.096C317.866 187.096 319.002 187.832 319.402 188.92L318.41 189.48C318.17 188.712 317.338 188.136 316.426 188.136C315.514 188.12 314.906 188.6 314.906 189.256C314.906 189.912 315.37 190.2 316.314 190.44L317.322 190.712C318.698 191.08 319.626 191.48 319.626 192.856C319.626 194.248 318.442 195.192 316.746 195.192ZM321.72 186.024C321.16 186.024 320.744 185.592 320.744 185.064C320.744 184.52 321.16 184.088 321.72 184.088C322.264 184.088 322.696 184.52 322.696 185.064C322.696 185.592 322.264 186.024 321.72 186.024ZM321.064 195V187.288H322.376V195H321.064ZM327.883 195.192C325.627 195.192 323.867 193.544 323.867 191.176C323.867 188.728 325.643 187.096 327.883 187.096C330.139 187.096 331.915 188.728 331.915 191.176C331.915 193.544 330.139 195.192 327.883 195.192ZM327.883 193.992C329.419 193.992 330.603 192.84 330.603 191.176C330.603 189.448 329.419 188.296 327.883 188.296C326.363 188.296 325.179 189.448 325.179 191.176C325.179 192.84 326.363 193.992 327.883 193.992ZM337.049 187.096C338.857 187.096 340.041 188.28 340.041 190.072V195H338.729V190.36C338.729 189.08 337.977 188.296 336.745 188.296C335.497 188.296 334.713 189.112 334.713 190.36V195H333.401V187.288H334.713V188.2C335.209 187.48 336.009 187.096 337.049 187.096Z" fill="white"/>
    <path d="M301.293 246.207C301.683 246.598 302.317 246.598 302.707 246.207L309.071 239.843C309.462 239.453 309.462 238.819 309.071 238.429C308.681 238.038 308.047 238.038 307.657 238.429L302 244.086L296.343 238.429C295.953 238.038 295.319 238.038 294.929 238.429C294.538 238.819 294.538 239.453 294.929 239.843L301.293 246.207ZM301 205V207.025H303V205H301ZM301 211.075V215.125H303V211.075H301ZM301 219.175V223.225H303V219.175H301ZM301 227.275V231.325H303V227.275H301ZM301 235.375V239.425H303V235.375H301ZM301 243.475V245.5H303V243.475H301Z" fill="url(#paint0_linear_52_2525)"/>
    <path d="M495.51 78V68.016H491.99V66.8H500.358V68.016H496.854V78H495.51ZM503.908 78.192C501.652 78.192 499.892 76.544 499.892 74.176C499.892 71.728 501.668 70.096 503.908 70.096C506.164 70.096 507.94 71.728 507.94 74.176C507.94 76.544 506.164 78.192 503.908 78.192ZM503.908 76.992C505.444 76.992 506.628 75.84 506.628 74.176C506.628 72.448 505.444 71.296 503.908 71.296C502.388 71.296 501.204 72.448 501.204 74.176C501.204 75.84 502.388 76.992 503.908 76.992ZM509.426 78V66.8H510.738V73.968L514.578 70.288H516.13L512.946 73.36L516.386 78H514.866L512.002 74.352L510.738 75.616V78H509.426ZM520.496 78.192C518.192 78.192 516.448 76.496 516.448 74.144C516.448 71.776 518.16 70.096 520.432 70.096C522.656 70.096 524.176 71.6 524.176 73.904C524.176 74.128 524.16 74.384 524.144 74.48H517.792C517.872 76 519.024 77.056 520.496 77.056C521.632 77.056 522.576 76.448 522.864 75.584L523.952 76.16C523.504 77.392 522.128 78.192 520.496 78.192ZM517.824 73.312H522.896C522.8 72.016 521.76 71.232 520.448 71.232C519.104 71.232 518.048 72.048 517.824 73.312ZM529.333 70.096C531.141 70.096 532.325 71.28 532.325 73.072V78H531.013V73.36C531.013 72.08 530.261 71.296 529.029 71.296C527.781 71.296 526.997 72.112 526.997 73.36V78H525.685V70.288H526.997V71.2C527.493 70.48 528.293 70.096 529.333 70.096ZM536.844 78.192C535.292 78.192 534.06 77.392 533.628 76.176L534.62 75.616C534.892 76.496 535.788 77.152 536.908 77.152C537.82 77.152 538.476 76.672 538.476 75.952C538.476 75.28 537.932 75.024 536.956 74.768L535.98 74.512C534.54 74.144 533.756 73.536 533.756 72.32C533.756 71.04 534.86 70.096 536.588 70.096C537.964 70.096 539.1 70.832 539.5 71.92L538.508 72.48C538.268 71.712 537.436 71.136 536.524 71.136C535.612 71.12 535.004 71.6 535.004 72.256C535.004 72.912 535.468 73.2 536.412 73.44L537.42 73.712C538.796 74.08 539.724 74.48 539.724 75.856C539.724 77.248 538.54 78.192 536.844 78.192Z" fill="white"/>
    <path d="M267.755 270.377C267.755 278.87 260.87 285.755 252.377 285.755C243.885 285.755 237 278.87 237 270.377C237 261.885 243.885 255 252.377 255C260.87 255 267.755 261.885 267.755 270.377Z" fill="#00BAA4"/>
    <path d="M251.579 279.704V279.604V277.902C250.609 277.75 249.774 277.382 249.077 276.797C248.359 276.193 247.889 275.411 247.667 274.456L247.647 274.369L247.73 274.339L249.108 273.839L249.214 273.801L249.239 273.911C249.38 274.52 249.672 275.027 250.115 275.435C250.531 275.807 251.019 276.053 251.579 276.176V271.551C251.054 271.415 250.609 271.272 250.246 271.123C249.864 270.967 249.471 270.752 249.068 270.479C248.654 270.2 248.34 269.834 248.127 269.382L248.126 269.381L248.126 269.381C247.914 268.917 247.809 268.377 247.809 267.763C247.809 266.676 248.156 265.79 248.855 265.116C249.545 264.448 250.456 264.065 251.579 263.962V262.689V262.589H251.679H252.93H253.03V262.689V264.005C253.965 264.145 254.765 264.508 255.426 265.093C256.108 265.698 256.553 266.487 256.762 267.454L256.781 267.539L256.698 267.569L255.321 268.069L255.214 268.107L255.189 267.997C255.048 267.373 254.773 266.872 254.366 266.491L254.364 266.488L254.364 266.488C253.996 266.121 253.552 265.87 253.03 265.737V270.201C253.577 270.324 254.033 270.454 254.396 270.591M251.579 279.704L255.595 271.281L255.646 271.195C255.646 271.195 255.646 271.195 255.646 271.195C255.195 270.924 254.779 270.722 254.396 270.591M251.579 279.704H251.679H252.93H253.03V279.604V277.949L251.579 279.704ZM254.396 270.591C254.397 270.591 254.397 270.591 254.397 270.591L254.362 270.685M254.396 270.591C254.396 270.591 254.395 270.59 254.395 270.59L254.362 270.685M254.362 270.685C253.988 270.544 253.51 270.409 252.93 270.281V265.713L254.362 270.685ZM255.263 267.877L255.253 267.881L255.287 267.975L255.384 267.953C255.383 267.948 255.382 267.944 255.381 267.94L256.664 267.475C256.459 266.527 256.024 265.758 255.359 265.168C254.695 264.579 253.885 264.22 252.93 264.092L255.263 267.877ZM255.263 267.877C255.112 267.281 254.836 266.794 254.435 266.418C254.047 266.031 253.579 265.77 253.03 265.634L255.263 267.877ZM248.217 269.339C248.423 269.775 248.725 270.127 249.124 270.397C249.522 270.666 249.909 270.877 250.284 271.031C250.658 271.185 251.124 271.332 251.679 271.473L248.217 269.339ZM248.217 269.339C248.012 268.891 247.909 268.365 247.909 267.763C247.909 266.7 248.248 265.841 248.924 265.187L248.217 269.339ZM249.166 274.031L249.176 274.027L249.142 273.933L249.044 273.956C249.045 273.96 249.046 273.964 249.047 273.968L247.764 274.433C247.982 275.369 248.441 276.131 249.142 276.72C249.843 277.31 250.689 277.675 251.679 277.816L249.166 274.031ZM249.166 274.031C249.319 274.616 249.613 275.109 250.048 275.51L249.166 274.031ZM256.717 272.351C256.717 272.35 256.717 272.35 256.717 272.349L256.628 272.396L256.718 272.352C256.718 272.352 256.718 272.351 256.717 272.351ZM250.172 266.317L250.172 266.317L250.173 266.316C250.531 265.959 250.998 265.735 251.579 265.648V269.839C250.95 269.642 250.47 269.392 250.133 269.092C249.785 268.782 249.604 268.326 249.604 267.706C249.604 267.141 249.794 266.681 250.172 266.317ZM254.719 272.648L254.72 272.649C255.123 272.946 255.332 273.411 255.332 274.068C255.332 274.763 255.116 275.283 254.696 275.645C254.29 275.982 253.737 276.191 253.03 276.265V271.927C253.772 272.114 254.332 272.356 254.719 272.648Z" fill="white" stroke="white" stroke-width="0.2"/>
    <path d="M111.521 40.8705C109.384 49.442 100.703 54.6584 92.1304 52.521C83.5614 50.3841 78.345 41.702 80.4828 33.1312C82.6188 24.5587 91.3004 19.3419 99.8702 21.4788C108.442 23.6157 113.658 32.2987 111.521 40.8706L111.521 40.8705H111.521Z" fill="#F7931A"/>
    <path fill-rule="evenodd" clip-rule="evenodd" d="M103.057 34.7204C103.376 32.5911 101.754 31.4466 99.5378 30.6831L100.257 27.7988L98.5012 27.3613L97.8011 30.1696C97.3396 30.0545 96.8655 29.946 96.3944 29.8385L97.0995 27.0116L95.3449 26.5742L94.6254 29.4575C94.2434 29.3705 93.8683 29.2846 93.5043 29.194L93.5063 29.1849L91.0851 28.5803L90.6181 30.4555C90.6181 30.4555 91.9207 30.7541 91.8933 30.7725C92.6042 30.95 92.7328 31.4206 92.7115 31.7937L91.8923 35.0795C91.9413 35.0919 92.0048 35.1099 92.0749 35.1381L92.0239 35.1254C91.9805 35.1145 91.9355 35.1032 91.8893 35.0922L90.7411 39.6952C90.6542 39.9112 90.4337 40.2354 89.9366 40.1123C89.9542 40.1378 88.6605 39.7938 88.6605 39.7938L87.7888 41.8036L90.0736 42.3731C90.3238 42.4359 90.5711 42.5003 90.8158 42.5641C90.9869 42.6087 91.1567 42.653 91.3254 42.6961L90.5989 45.6135L92.3526 46.0509L93.0721 43.1646C93.5512 43.2946 94.0161 43.4146 94.4713 43.5277L93.7542 46.4005L95.51 46.8379L96.2365 43.9261C99.2304 44.4927 101.482 44.2642 102.429 41.5563C103.193 39.376 102.391 38.1185 100.816 37.2984C101.963 37.0338 102.827 36.2793 103.058 34.7206L103.057 34.7202L103.057 34.7204ZM99.0456 40.3455C98.5478 42.3458 95.4168 41.5188 93.9842 41.1404C93.8554 41.1064 93.7403 41.076 93.642 41.0516L94.6062 37.1866C94.7259 37.2165 94.8721 37.2493 95.0379 37.2865L95.0379 37.2865C96.5197 37.6191 99.5557 38.3004 99.0457 40.3455H99.0456ZM95.3351 35.4927C96.5294 35.8115 99.1349 36.5068 99.5886 34.6888H99.5888C100.052 32.8294 97.5201 32.2688 96.2834 31.995C96.1443 31.9642 96.0216 31.9371 95.9214 31.9121L95.0472 35.4174C95.1298 35.4379 95.2266 35.4638 95.3351 35.4927Z" fill="white"/>
    <path d="M317.518 40.8705C315.381 49.442 306.699 54.6584 298.127 52.521C289.558 50.3841 284.341 41.702 286.479 33.1312C288.615 24.5587 297.297 19.3419 305.867 21.4788C314.438 23.6157 319.655 32.2987 317.517 40.8706L317.518 40.8705H317.518Z" fill="#50AF95"/>
    <path fill-rule="evenodd" clip-rule="evenodd" d="M304.025 38.8139C303.912 38.8224 303.327 38.8573 302.023 38.8573C300.986 38.8573 300.25 38.8262 299.991 38.8139C295.984 38.6376 292.992 37.94 292.992 37.1047C292.992 36.2693 295.984 35.5726 299.991 35.3935V38.1191C300.253 38.1379 301.004 38.1823 302.041 38.1823C303.285 38.1823 303.909 38.1304 304.021 38.12V35.3954C308.02 35.5736 311.005 36.2712 311.005 37.1047C311.005 37.9381 308.021 38.6357 304.021 38.813L304.025 38.8139ZM304.025 35.1135V32.6745H309.606V28.9552H294.41V32.6745H299.99V35.1125C295.455 35.3209 292.044 36.2194 292.044 37.296C292.044 38.3727 295.455 39.2702 299.99 39.4795V47.2952H304.024V39.4767C308.549 39.2684 311.954 38.3708 311.954 37.2951C311.954 36.2194 308.552 35.3218 304.024 35.1125L304.025 35.1135Z" fill="white"/>
    <path d="M362.5 27C369.404 27 375 32.5969 375 39.5C375 46.4042 369.404 52 362.5 52C355.597 52 350 46.4036 350 39.5C350 32.5969 355.597 27 362.5 27Z" fill="#F5AC37"/>
    <path fill-rule="evenodd" clip-rule="evenodd" d="M356.547 46.4374L356.545 46.4391V46.4469H361.967C362.58 46.4554 363.192 46.4064 363.795 46.2984C364.43 46.1741 365.049 45.9784 365.639 45.7129C365.895 45.5944 366.14 45.4512 366.388 45.3067C366.45 45.2701 366.513 45.2334 366.576 45.1971C366.868 44.9895 367.147 44.7645 367.412 44.5254C368.139 43.8684 368.702 43.0488 369.053 42.1348C369.077 42.0324 369.177 41.9666 369.28 41.9863H370.756C370.874 41.9863 370.913 41.9469 370.913 41.8141V40.8686C370.921 40.778 370.921 40.6863 370.913 40.5958C370.913 40.5721 370.919 40.5485 370.925 40.5249C370.937 40.4779 370.949 40.4311 370.913 40.3843H369.679C369.53 40.3843 369.53 40.3685 369.53 40.2358C369.573 39.7599 369.573 39.2823 369.53 38.8064C369.522 38.6658 369.554 38.6658 369.663 38.6658H370.741C370.867 38.6658 370.913 38.6343 370.913 38.5094V37.228C370.91 37.1432 370.908 37.1001 370.885 37.0783C370.862 37.0559 370.817 37.0559 370.726 37.0559H369.328C369.219 37.0745 369.114 37.0008 369.094 36.8917C368.934 36.4726 368.73 36.0715 368.484 35.6963C368.236 35.3262 367.957 34.9786 367.648 34.6574C367.237 34.2468 366.775 33.8901 366.273 33.5948C365.517 33.1555 364.689 32.8478 363.828 32.6886C363.41 32.6116 362.988 32.5649 362.562 32.548H356.703C356.547 32.548 356.547 32.5795 356.547 32.7044V36.9153C356.547 37.0638 356.516 37.0638 356.399 37.0638H354.719C354.594 37.0638 354.594 37.0869 354.594 37.1729V38.5477C354.594 38.6726 354.633 38.6726 354.727 38.6726H356.422C356.547 38.6726 356.547 38.6956 356.547 38.7896V40.2583C356.547 40.391 356.508 40.391 356.406 40.391H354.594V41.8755C354.594 42.0003 354.633 42.0003 354.727 42.0003H356.422C356.547 42.0003 356.547 42.0155 356.547 42.1173V46.4374ZM367.336 36.9299C367.35 36.9648 367.35 37.0036 367.336 37.039H367.374C367.358 37.0857 367.28 37.1015 367.28 37.1015H358.265C358.116 37.1015 358.116 37.07 358.116 36.953V34.1798C358.116 34.078 358.132 34.0313 358.249 34.0313H362.444C362.891 34.0274 363.336 34.0741 363.772 34.1719C364.636 34.3767 365.44 34.784 366.116 35.3594C366.251 35.4601 366.372 35.5788 366.476 35.711C366.696 35.9298 366.89 36.1733 367.054 36.4377C367.163 36.5924 367.257 36.7572 367.336 36.9299ZM367.71 40.3826H358.304C358.209 40.3826 358.162 40.3826 358.139 40.3592C358.117 40.3364 358.117 40.2916 358.117 40.2031V38.8126C358.117 38.7029 358.148 38.6641 358.265 38.6641H367.718C367.82 38.6641 367.867 38.7029 367.867 38.7969C367.906 39.2806 367.906 39.7666 367.867 40.2498C367.86 40.3826 367.812 40.3826 367.71 40.3826ZM367.336 42.0076C367.204 41.993 367.07 41.993 366.937 42.0076H358.273C358.156 42.0076 358.117 42.0076 358.117 42.164V44.8753C358.117 45.0002 358.117 45.0317 358.273 45.0317H362.273C362.465 45.0463 362.656 45.0328 362.843 44.9929C363.424 44.9512 363.995 44.8252 364.539 44.6177C364.737 44.549 364.928 44.4596 365.109 44.3522H365.163C366.101 43.8645 366.863 43.0983 367.343 42.1578C367.343 42.1578 367.398 42.0397 367.336 42.0088V42.0076Z" fill="#FEFEFD"/>
    <path d="M254 40C254 47.1797 248.18 53 241 53C233.82 53 228 47.1797 228 40C228 32.8203 233.82 27 241 27C248.18 27 254 32.8203 254 40Z" fill="#EDF0F4"/>
    <path d="M240.961 31.3333L243.099 33.5225L237.716 38.9053L235.578 36.7677L240.961 31.3333Z" fill="#F0B90B"/>
    <path d="M244.206 34.5785L246.344 36.7677L237.716 45.3956L235.578 43.258L244.206 34.5785Z" fill="#F0B90B"/>
    <path d="M234.471 37.8236L236.609 40.0128L234.471 42.1505L232.333 40.0128L234.471 37.8236Z" fill="#F0B90B"/>
    <path d="M247.452 37.8236L249.589 40.0128L240.961 48.6408L238.824 46.5031L247.452 37.8236Z" fill="#F0B90B"/>
    <path d="M254 40C254 47.1797 248.18 53 241 53C233.82 53 228 47.1797 228 40C228 32.8203 233.82 27 241 27C248.18 27 254 32.8203 254 40Z" stroke="#F0B90B"/>
    <path d="M240.961 31.3333L243.099 33.5225L237.716 38.9053L235.578 36.7677L240.961 31.3333Z" stroke="#F0B90B"/>
    <path d="M244.206 34.5785L246.344 36.7677L237.716 45.3956L235.578 43.258L244.206 34.5785Z" stroke="#F0B90B"/>
    <path d="M234.471 37.8236L236.609 40.0128L234.471 42.1505L232.333 40.0128L234.471 37.8236Z" stroke="#F0B90B"/>
    <path d="M247.452 37.8236L249.589 40.0128L240.961 48.6408L238.824 46.5031L247.452 37.8236Z" stroke="#F0B90B"/>
    <path d="M533 37C533 45.8366 525.837 53 517 53C508.163 53 501 45.8366 501 37C501 28.1634 508.163 21 517 21C525.837 21 533 28.1634 533 37Z" fill="#EDF0F4"/>
    <path d="M521.801 33.7865C521.46 33.5903 521.021 33.5903 520.631 33.7865L517.902 35.4055L516.05 36.4358L513.369 38.0548C513.028 38.251 512.589 38.251 512.199 38.0548L510.104 36.7792C509.762 36.583 509.519 36.1905 509.519 35.749V33.2959C509.519 32.9035 509.714 32.511 510.104 32.2657L512.199 31.0392C512.54 30.8429 512.979 30.8429 513.369 31.0392L515.465 32.3147C515.806 32.511 516.05 32.9035 516.05 33.345V34.964L517.902 33.8847V32.2166C517.902 31.8241 517.707 31.4317 517.317 31.1864L513.418 28.8805C513.077 28.6843 512.638 28.6843 512.248 28.8805L508.252 31.2354C507.862 31.4317 507.667 31.8241 507.667 32.2166V36.8283C507.667 37.2208 507.862 37.6133 508.252 37.8586L512.199 40.1644C512.54 40.3606 512.979 40.3606 513.369 40.1644L516.05 38.5945L517.902 37.5151L520.582 35.9452C520.923 35.749 521.362 35.749 521.752 35.9452L523.848 37.1717C524.189 37.368 524.433 37.7604 524.433 38.202V40.655C524.433 41.0475 524.238 41.44 523.848 41.6853L521.801 42.9118C521.46 43.108 521.021 43.108 520.631 42.9118L518.535 41.6853C518.194 41.489 517.95 41.0965 517.95 40.655V39.0851L516.098 40.1644V41.7834C516.098 42.1759 516.293 42.5683 516.683 42.8137L520.631 45.1195C520.972 45.3157 521.411 45.3157 521.801 45.1195L525.748 42.8137C526.09 42.6174 526.333 42.2249 526.333 41.7834V37.1227C526.333 36.7302 526.138 36.3377 525.748 36.0924L521.801 33.7865Z" fill="#8247E5"/>
    <path d="M472 39.5C472 46.4036 466.404 52 459.5 52C452.596 52 447 46.4036 447 39.5C447 32.5964 452.596 27 459.5 27C466.404 27 472 32.5964 472 39.5Z" fill="#149DD9"/>
    <path fill-rule="evenodd" clip-rule="evenodd" d="M457.635 32.4687H458.852C458.875 32.467 458.893 32.4491 458.894 32.4265V31.2089C458.893 31.1863 458.875 31.1683 458.852 31.1667H457.635C457.612 31.1683 457.594 31.1863 457.592 31.2089V32.4265C457.592 32.4378 457.596 32.4488 457.604 32.4568C457.612 32.4648 457.623 32.4691 457.635 32.4687ZM458.852 34.7068H457.635C457.612 34.7051 457.594 34.6872 457.592 34.6646V33.447C457.594 33.4244 457.612 33.4064 457.635 33.4048H458.852C458.875 33.4064 458.893 33.4244 458.894 33.447V34.6646C458.893 34.6872 458.875 34.7051 458.852 34.7068ZM458.852 36.9379H455.087C455.076 36.9383 455.065 36.9339 455.057 36.9259C455.049 36.9179 455.044 36.907 455.045 36.8956V35.6781C455.046 35.6555 455.064 35.6375 455.087 35.6358H458.852C458.875 35.6375 458.893 35.6555 458.894 35.6781V36.8956C458.893 36.9182 458.875 36.9362 458.852 36.9379ZM452.426 40.105H451.209C451.186 40.1067 451.168 40.1246 451.167 40.1472V41.3648C451.168 41.3874 451.186 41.4053 451.209 41.407H452.426C452.449 41.4053 452.467 41.3874 452.469 41.3648V40.1472C452.467 40.1246 452.449 40.1067 452.426 40.105ZM455.678 40.105H456.896C456.918 40.1067 456.936 40.1246 456.938 40.1472V43.9126C456.936 43.9352 456.918 43.9531 456.896 43.9548H455.678C455.655 43.9531 455.638 43.9352 455.636 43.9126V40.1472C455.638 40.1246 455.655 40.1067 455.678 40.105ZM464.342 38.8874H465.559C465.582 38.8857 465.6 38.8678 465.602 38.8452V37.6276C465.6 37.605 465.582 37.587 465.559 37.5854H464.342C464.319 37.587 464.301 37.605 464.3 37.6276V38.8452C464.298 38.8568 464.302 38.8685 464.31 38.8769C464.319 38.8852 464.33 38.8891 464.342 38.8874ZM463.321 38.8874H462.104C462.092 38.8878 462.082 38.8835 462.073 38.8755C462.065 38.8675 462.061 38.8565 462.062 38.8452V35.0798C462.063 35.0572 462.081 35.0393 462.104 35.0376H463.321C463.344 35.0393 463.362 35.0572 463.364 35.0798V38.8452C463.362 38.8678 463.344 38.8857 463.321 38.8874ZM453.447 40.105H454.665C454.686 40.1088 454.703 40.1257 454.707 40.1472V41.3648C454.705 41.3874 454.687 41.4053 454.665 41.407H453.447C453.424 41.4053 453.406 41.3874 453.405 41.3648V40.1472C453.406 40.1246 453.424 40.1067 453.447 40.105ZM463.92 42.0616H460.154C460.132 42.0632 460.114 42.0812 460.112 42.1038V43.3214C460.114 43.344 460.132 43.3619 460.154 43.3636H463.92C463.942 43.3619 463.96 43.344 463.962 43.3214V42.1038C463.96 42.0811 463.942 42.0629 463.92 42.0616ZM461.154 39.8446H466.488C466.5 39.8442 466.511 39.8485 466.519 39.8565C466.527 39.8645 466.531 39.8755 466.531 39.8868V41.0692C466.529 41.0918 466.511 41.1097 466.488 41.1114H461.154C461.131 41.1097 461.113 41.0918 461.111 41.0692V39.8868C461.113 39.8642 461.131 39.8463 461.154 39.8446ZM461.365 44.2926H460.147C460.125 44.2943 460.107 44.3123 460.105 44.3349V45.5524C460.107 45.575 460.125 45.593 460.147 45.5947H461.365C461.387 45.593 461.405 45.575 461.407 45.5524V44.3349C461.407 44.3235 461.403 44.3126 461.395 44.3046C461.387 44.2966 461.376 44.2922 461.365 44.2926ZM457.846 37.888C457.868 37.8897 457.886 37.9076 457.888 37.9302V39.1126C457.886 39.1352 457.868 39.1532 457.846 39.1549H452.511C452.488 39.1532 452.47 39.1352 452.469 39.1126V37.9302C452.47 37.9076 452.488 37.8897 452.511 37.888H457.846ZM467.791 37.5924H466.573C466.55 37.5941 466.532 37.612 466.531 37.6346V38.8522C466.532 38.8748 466.55 38.8928 466.573 38.8944H467.791C467.813 38.8928 467.831 38.8748 467.833 38.8522V37.6346C467.834 37.623 467.831 37.6113 467.822 37.603C467.814 37.5946 467.802 37.5907 467.791 37.5924ZM457.93 41.1114H459.113C459.135 41.1131 459.153 41.1311 459.155 41.1537V46.4885C459.153 46.5111 459.135 46.529 459.113 46.5307H457.93C457.908 46.529 457.89 46.5111 457.888 46.4885V41.1537C457.89 41.1311 457.908 41.1131 457.93 41.1114ZM461.111 37.8528V32.5109C461.11 32.4883 461.092 32.4704 461.069 32.4687H459.887C459.864 32.4704 459.846 32.4883 459.845 32.5109V37.8528C459.846 37.8754 459.864 37.8934 459.887 37.895H461.069C461.092 37.8934 461.11 37.8754 461.111 37.8528ZM460.147 46.5307H461.365C461.376 46.5291 461.388 46.533 461.396 46.5413C461.405 46.5496 461.409 46.5613 461.407 46.573V47.7905C461.405 47.8131 461.387 47.8311 461.365 47.8328H460.147C460.125 47.8311 460.107 47.8131 460.105 47.7905V46.573C460.107 46.5504 460.125 46.5324 460.147 46.5307Z" fill="white"/>
    <path d="M588 37.5C588 44.9558 581.956 51 574.5 51C567.044 51 561 44.9558 561 37.5C561 30.0442 567.044 24 574.5 24C581.956 24 588 30.0442 588 37.5Z" fill="#E7EFF3"/>
    <path fill-rule="evenodd" clip-rule="evenodd" d="M579.567 28.8298C578.835 29.3551 578.103 29.8804 577.371 30.3828C576.385 31.0805 575.4 31.7922 574.426 32.496L574.424 32.4969C574.155 32.6913 573.887 32.8851 573.62 33.0778C573.46 33.192 573.345 33.2149 573.208 33.055C573.002 32.838 572.791 32.6325 572.579 32.4269C572.367 32.2214 572.156 32.0158 571.95 31.7988C571.836 31.6846 571.721 31.6618 571.561 31.7303C570.578 32.2328 569.8 32.9408 569.16 33.8315C569.114 33.8772 569.068 33.9457 569.022 34.0142C568.871 33.8158 568.723 33.6252 568.578 33.4375C568.372 33.1716 568.171 32.9117 567.97 32.6439C567.759 32.3674 567.556 32.0908 567.356 31.8187C567.209 31.6188 567.063 31.4213 566.918 31.2279C566.804 31.068 566.781 30.9538 566.941 30.7939C568.702 28.8526 570.875 27.7106 573.482 27.4366C575.541 27.2082 577.508 27.6193 579.338 28.6014C579.372 28.6242 579.406 28.6413 579.441 28.6585C579.475 28.6756 579.509 28.6927 579.544 28.7156C579.544 28.7841 579.544 28.8069 579.567 28.8298ZM570.482 43.4303C570.662 43.2944 570.846 43.1561 571.035 43.0128C570.987 42.9805 570.944 42.951 570.903 42.9233C570.83 42.8729 570.766 42.8287 570.692 42.7844C569.869 42.1678 569.205 41.4141 568.725 40.5005C568.634 40.3406 568.656 40.2264 568.794 40.0894C569.274 39.6326 569.731 39.153 570.189 38.6734C570.222 38.64 570.244 38.6065 570.27 38.5641C570.28 38.5486 570.291 38.5319 570.303 38.5135C569.548 37.52 568.788 36.5265 568.027 35.533C567.267 34.5395 566.506 33.546 565.752 32.5525C565.738 32.5592 565.727 32.5639 565.717 32.5679C565.694 32.5773 565.683 32.5821 565.683 32.5982C565.672 32.621 565.654 32.6496 565.637 32.6781C565.62 32.7067 565.603 32.7352 565.591 32.7581C564.494 34.8364 564.128 37.029 564.539 39.3357C564.951 41.6196 566.049 43.5381 567.787 45.0912C567.97 45.251 568.085 45.251 568.245 45.114C568.439 44.9656 568.634 44.8228 568.828 44.6801C569.022 44.5373 569.217 44.3946 569.411 44.2461C569.763 43.9708 570.116 43.7056 570.482 43.4303ZM582.264 43.9933C581.51 42.9889 580.756 41.9845 580.024 41.003C579.99 41.0258 579.967 41.0372 579.955 41.0429C579.95 41.0459 579.947 41.0473 579.947 41.048C579.947 41.0487 579.95 41.0487 579.955 41.0487C579.944 41.0715 579.927 41.0943 579.91 41.1172C579.892 41.14 579.875 41.1629 579.864 41.1857C579.315 41.9851 578.606 42.6474 577.76 43.127C577.698 43.1614 577.644 43.192 577.597 43.2189C577.411 43.3248 577.326 43.3729 577.254 43.3589C577.194 43.3473 577.142 43.2929 577.047 43.1932C576.995 43.139 576.93 43.0714 576.845 42.99C576.625 42.7817 576.404 42.5676 576.181 42.3506L576.181 42.3502C575.964 42.1389 575.744 41.925 575.518 41.711C574.292 42.6187 573.075 43.5265 571.85 44.4392L571.848 44.4413C571.04 45.0436 570.229 45.648 569.411 46.256C571.721 47.535 574.1 47.9232 576.616 47.3979C578.88 46.9183 580.756 45.7763 582.266 43.9949L582.264 43.9933ZM581.945 40.7746C582.38 41.3456 582.814 41.9165 583.295 42.5332C583.363 42.3733 583.432 42.2591 583.501 42.1678C584.278 40.6376 584.667 39.016 584.621 37.3031C584.507 34.3568 583.341 31.913 581.168 29.9489C581.008 29.789 580.893 29.8347 580.756 29.9489C580.321 30.28 579.887 30.6055 579.452 30.9309C579.018 31.2564 578.583 31.5819 578.148 31.913C578.128 31.9336 578.103 31.9541 578.075 31.9767C578.041 32.0044 578.003 32.0352 577.965 32.0729C578.024 32.1022 578.073 32.1409 578.119 32.1769C578.145 32.197 578.17 32.2164 578.194 32.2328C579.086 32.8723 579.772 33.6716 580.276 34.6309C580.367 34.7908 580.321 34.9049 580.207 35.0191C579.99 35.2361 579.778 35.4531 579.567 35.6701C579.355 35.887 579.143 36.104 578.926 36.321C578.766 36.4808 578.766 36.595 578.903 36.7778C579.623 37.704 580.331 38.6414 581.037 39.5744C581.34 39.9757 581.643 40.3762 581.945 40.7746Z" fill="#231815"/>
    <defs>
        <linearGradient id="paint0_linear_52_2525" x1="302.5" y1="205" x2="302.5" y2="245.5" gradientUnits="userSpaceOnUse">
            <stop stop-color="#20F1C0" stop-opacity="0"/>
            <stop offset="0.529167" stop-color="#20F1C0"/>
        </linearGradient>
    </defs>
</svg>
