<svg width="121" height="120" viewBox="0 0 121 120" fill="none" xmlns="http://www.w3.org/2000/svg">
<path d="M119.189 74.5143C111.176 106.657 78.62 126.219 46.473 118.204C14.3395 110.19 -5.22218 77.6324 2.79478 45.4918C10.8047 13.3451 43.3605 -6.21803 75.4975 1.79541C107.642 9.80884 127.203 42.3702 119.188 74.5149L119.189 74.5143H119.189Z" fill="#F3BA2F"/>
<path fill-rule="evenodd" clip-rule="evenodd" d="M60.9979 38.08L45.4612 53.6166L45.4615 53.616L36.4219 44.576L60.9979 20L85.5819 44.5834L76.5419 53.6234L60.9979 38.08ZM30.0382 50.9584L20.9979 60L30.0375 69.0384L39.0779 59.9981L30.0382 50.9584ZM45.4612 66.3843L60.9979 81.92L76.5415 66.377L85.5863 75.4122L85.5819 75.417L60.9979 100L36.4219 75.424L36.4091 75.4112L45.4612 66.3843ZM91.9582 50.9635L82.9179 60.0038L91.9579 69.0435L100.998 60.0032L91.9582 50.9635Z" fill="white"/>
<path d="M70.1665 59.9952H70.1703L60.9979 50.8221L54.218 57.6L53.4391 58.3792L51.8327 59.9859L51.8199 59.9984L51.8327 60.0115L60.9979 69.1779L70.171 60.0048L70.1755 59.9997L70.1671 59.9952" fill="white"/>
</svg>
