<svg width="126" height="126" viewBox="0 0 126 126" fill="none" xmlns="http://www.w3.org/2000/svg">
    <path d="M119.189 74.5143C111.176 106.657 78.62 126.219 46.473 118.204C14.3395 110.19 -5.22219 77.6324 2.79476 45.4918C10.8047 13.3451 43.3605 -6.21803 75.4975 1.79541C107.642 9.80884 127.203 42.3702 119.188 74.5149L119.189 74.5143Z" fill="#F7931A"/>
    <path fill-rule="evenodd" clip-rule="evenodd" d="M87.4484 51.4515C88.6427 43.4668 82.5637 39.1747 74.2511 36.3115L76.9478 25.4955L70.3637 23.8549L67.7386 34.3861C66.0077 33.9544 64.2302 33.5476 62.4635 33.1444L65.1077 22.5437L58.5278 20.9031L55.8296 31.7156C54.3973 31.3894 52.9904 31.0671 51.6255 30.7275L51.6332 30.6935L42.5537 28.4262L40.8023 35.4583C40.8023 35.4583 45.687 36.578 45.5841 36.647C48.2503 37.3124 48.7324 39.0773 48.6523 40.4762L45.5806 52.7982C45.7642 52.8448 46.0023 52.9123 46.2651 53.0178L46.0741 52.9702L46.0732 52.97C45.911 52.9294 45.7423 52.8871 45.5691 52.8457L41.2636 70.1069C40.9377 70.917 40.1107 72.1326 38.2467 71.671C38.3126 71.7666 33.4613 70.4768 33.4613 70.4768L30.1925 78.0133L38.7605 80.1493C39.6987 80.3845 40.6258 80.6262 41.5435 80.8655C42.1849 81.0327 42.8218 81.1987 43.4546 81.3605L40.7301 92.3005L47.3065 93.9411L50.0046 83.1172C51.8012 83.6049 53.5447 84.0548 55.2516 84.4789L52.5626 95.2517L59.1469 96.8923L61.8711 85.9728C73.0982 88.0976 81.5401 87.2409 85.0935 77.086C87.9567 68.9101 84.9509 64.1942 79.0444 61.119C83.3464 60.1268 86.5868 57.2973 87.4508 51.4523L87.4487 51.4509L87.4484 51.4515ZM72.4055 72.5455C70.5387 80.0467 58.7974 76.9455 53.4253 75.5266C52.9421 75.399 52.5103 75.285 52.142 75.1935L55.7575 60.6999C56.2064 60.812 56.7549 60.9351 57.3763 61.0745L57.3765 61.0745C62.9332 62.3216 74.3182 64.8766 72.4058 72.5455H72.4055ZM58.491 54.3478C62.9698 55.5431 72.7401 58.1506 74.4417 51.333H74.4423C76.1798 44.3603 66.6847 42.2581 62.0472 41.2313C61.5255 41.1158 61.0653 41.014 60.6895 40.9203L57.4116 54.0651C57.7211 54.1423 58.0842 54.2392 58.491 54.3478Z" fill="white"/>
    <g clip-path="url(#clip0_3_22)">
        <path d="M76.9978 102.888C76.9978 101.963 76.9978 101.037 76.9978 100.112C77.0038 100.117 77.0098 100.121 77.0163 100.125C77.017 100.125 77.023 100.119 77.0235 100.116C77.0297 100.081 77.0385 100.047 77.0404 100.012C77.1046 98.8678 77.2512 97.7343 77.4822 96.6128C78.3531 92.3824 80.2064 88.6348 83.0476 85.3827C85.6253 82.4324 88.7374 80.2243 92.3714 78.757C94.3954 77.9401 96.4939 77.413 98.6623 77.1634C99.1334 77.1091 99.6057 77.0675 100.079 77.0409C100.114 77.039 100.169 77.066 100.182 77C101.059 77 101.936 77 102.814 77C102.809 77.006 102.805 77.012 102.801 77.0184C102.801 77.0191 102.807 77.0251 102.81 77.0256C102.849 77.0318 102.888 77.0412 102.927 77.0431C103.317 77.0625 103.706 77.0979 104.095 77.1381C105.733 77.3077 107.337 77.6398 108.905 78.1421C113.154 79.5033 116.769 81.8483 119.75 85.1652C122.081 87.7595 123.775 90.7246 124.839 94.0465C125.348 95.6335 125.687 97.2567 125.859 98.9145C125.9 99.3188 125.935 99.7239 125.956 100.13C125.958 100.164 125.931 100.22 125.998 100.232C125.998 101.077 125.998 101.923 125.998 102.768C125.994 102.766 125.991 102.763 125.988 102.761C125.985 102.759 125.98 102.756 125.98 102.756C125.949 102.794 125.957 102.84 125.955 102.882C125.882 104.279 125.692 105.66 125.37 107.019C124.077 112.46 121.265 116.959 116.948 120.507C114.222 122.747 111.136 124.301 107.723 125.202C106.604 125.497 105.47 125.709 104.32 125.838C103.856 125.89 103.392 125.934 102.926 125.958C102.895 125.96 102.844 125.937 102.838 126C101.944 126 101.051 126 100.158 126C100.162 125.994 100.167 125.988 100.17 125.981C100.171 125.981 100.165 125.975 100.162 125.974C100.127 125.968 100.092 125.959 100.057 125.957C99.1454 125.906 98.2399 125.8 97.3393 125.647C95.191 125.283 93.1287 124.641 91.1563 123.717C87.9138 122.2 85.131 120.075 82.8124 117.347C80.8404 115.027 79.3519 112.429 78.3493 109.553C77.7612 107.865 77.3651 106.134 77.1606 104.358C77.1082 103.902 77.0658 103.446 77.0395 102.988C77.0373 102.954 77.0641 102.899 76.9978 102.888ZM102.937 98.9886C102.964 98.9322 102.98 98.8968 102.998 98.8616C104.717 95.4796 106.436 92.0976 108.156 88.7161C108.2 88.6304 108.238 88.5433 108.261 88.4503C108.355 88.061 108.12 87.7583 107.731 87.7738C107.51 87.7827 107.308 87.8549 107.139 88.0004C104.656 90.1389 102.174 92.2785 99.6916 94.4177C97.6953 96.1379 95.6988 97.8578 93.7027 99.5785C92.7183 100.427 91.7344 101.276 90.7529 102.128C90.5629 102.293 90.3899 102.476 90.2724 102.703C90.1267 102.984 90.2085 103.178 90.5086 103.276C90.6586 103.324 90.8129 103.334 90.9687 103.334C93.9472 103.334 96.9258 103.334 99.9044 103.334C100.066 103.334 100.066 103.334 99.9915 103.482C98.4354 106.567 96.8789 109.652 95.3243 112.738C95.1561 113.072 94.9687 113.397 94.8362 113.748C94.7541 113.965 94.6919 114.188 94.7196 114.425C94.757 114.741 94.9666 114.896 95.2788 114.838C95.6373 114.772 95.9235 114.57 96.1883 114.337C98.4421 112.353 100.694 110.368 102.947 108.384C105.077 106.508 107.207 104.631 109.337 102.755C110.348 101.864 111.36 100.974 112.371 100.083C112.536 99.9381 112.694 99.7852 112.806 99.5931C112.961 99.3265 112.885 99.1353 112.589 99.0444C112.451 99.002 112.309 98.9884 112.164 98.9884C109.142 98.9891 106.119 98.9889 103.097 98.9889C103.049 98.9886 103.002 98.9886 102.937 98.9886Z" fill="#6A20F1"/>
        <path d="M102.937 98.9886C103.002 98.9886 103.049 98.9886 103.097 98.9886C106.119 98.9886 109.142 98.9889 112.164 98.9882C112.309 98.9882 112.451 99.0018 112.589 99.0442C112.885 99.1351 112.961 99.3263 112.806 99.5928C112.694 99.785 112.536 99.9379 112.371 100.083C111.36 100.974 110.348 101.864 109.337 102.754C107.207 104.631 105.077 106.507 102.947 108.384C100.694 110.368 98.4424 112.353 96.1883 114.336C95.9232 114.57 95.637 114.771 95.2788 114.838C94.9668 114.896 94.757 114.741 94.7196 114.424C94.6919 114.188 94.7541 113.965 94.8362 113.748C94.9687 113.397 95.1561 113.072 95.3243 112.738C96.8789 109.652 98.4354 106.567 99.9915 103.482C100.066 103.334 100.066 103.333 99.9044 103.333C96.9258 103.333 93.9472 103.333 90.9687 103.333C90.8129 103.333 90.6586 103.324 90.5086 103.275C90.2085 103.178 90.1267 102.984 90.2724 102.703C90.3899 102.476 90.5629 102.293 90.7529 102.128C91.7344 101.276 92.7185 100.427 93.7027 99.5782C95.6985 97.8576 97.6953 96.1376 99.6916 94.4174C102.174 92.2783 104.656 90.1386 107.139 88.0002C107.308 87.8547 107.51 87.7824 107.731 87.7736C108.12 87.758 108.355 88.0605 108.261 88.45C108.238 88.5431 108.2 88.6302 108.156 88.7159C106.436 92.0974 104.717 95.4794 102.998 98.8613C102.98 98.8968 102.964 98.9324 102.937 98.9886Z" fill="#FEFEFE"/>
    </g>
    <defs>
        <clipPath id="clip0_3_22">
            <rect width="49" height="49" fill="white" transform="translate(76.9978 77)"/>
        </clipPath>
    </defs>
</svg>

