<svg width="121" height="120" viewBox="0 0 121 120" fill="none" xmlns="http://www.w3.org/2000/svg">
    <circle cx="60.9979" cy="60" r="60" fill="#EDF0F4"/>
    <path d="M73.1944 108.243C72.9475 108.326 72.7006 108.407 72.4537 108.49C68.461 109.51 64.4161 110.04 60.2883 109.812C59.0751 109.744 57.8599 109.688 56.6466 109.628C56.4673 109.501 56.2667 109.479 56.0564 109.505C51.5293 108.948 47.1238 107.928 42.9362 106.069C42.8224 106.018 42.6913 106.011 42.5678 105.983C42.3711 105.871 42.1763 105.757 41.9795 105.645C38.089 103.782 34.6479 101.286 31.5829 98.2573C31.3283 97.9907 31.0756 97.724 30.821 97.4573C28.2556 94.5914 26.1647 91.397 24.3207 88.0325C24.2551 87.8991 24.1895 87.7658 24.122 87.6305C22.6869 84.5269 21.4602 81.3518 20.7484 77.9951C20.7716 77.7728 20.7041 77.5796 20.569 77.4057C20.3897 75.3978 20.0386 73.4073 20 71.384C19.9557 69.0031 20.1717 66.6455 20.4707 64.2898C20.6134 63.9748 20.6095 63.6462 20.5729 63.3119C21.2036 60.9234 21.7244 58.5058 22.5442 56.1694C24.4422 50.7642 27.0848 45.7551 30.4719 41.1384C30.794 40.6997 31.0891 40.2398 31.3958 39.7914C31.7854 39.4552 32.1018 39.0571 32.3622 38.6146C33.0257 37.8319 33.6892 37.0531 34.3508 36.2685C36.9779 33.1475 39.9368 30.3434 42.7549 27.4022C43.0172 27.1471 43.2796 26.8939 43.54 26.6388C45.5942 24.6348 47.6446 22.6347 49.695 20.6326C49.8859 20.4413 50.0769 20.25 50.2679 20.0587C51.5641 18.9166 52.7831 17.6952 53.9694 16.4391C54.17 16.2439 54.3725 16.0468 54.5731 15.8516C55.3311 15.2042 56.0468 14.5182 56.6679 13.7336C56.855 13.5287 57.0421 13.3239 57.2272 13.1171C57.5571 12.7461 57.8869 12.375 58.2148 12.004C58.3942 11.7934 58.5755 11.5827 58.7549 11.3721C58.9671 11.1402 59.1812 10.9083 59.3933 10.6744C59.5689 10.5218 59.7444 10.3691 59.9199 10.2145C60.1745 10.143 60.4311 10.0715 60.6857 10C60.9943 10.087 61.3492 9.98261 61.6212 10.2222C61.6964 10.2841 61.7716 10.3459 61.8449 10.4078C61.8642 10.4503 61.897 10.4638 61.9414 10.4483C62.4757 10.9566 63.01 11.4648 63.5443 11.9731C63.8336 12.4214 64.2059 12.7905 64.6206 13.1191C66.3026 14.8931 67.9903 16.6633 69.8054 18.304C70.4844 19.0267 71.146 19.7649 71.8423 20.4703C75.0674 23.7324 78.3021 26.9848 81.5349 30.2391C82.0306 30.786 82.507 31.3522 83.0259 31.8759C88.5502 37.4512 93.4842 43.4613 96.879 50.6115C97.0372 51.0753 97.2069 51.5333 97.531 51.914C98.5841 54.8437 99.6932 57.7521 100.316 60.8171C103.051 74.2847 100.54 86.4478 91.2043 96.8196C86.3512 102.211 80.3158 105.854 73.4355 108.107C73.3526 108.14 73.2774 108.198 73.1944 108.243Z" fill="#51D6B1"/>
    <path d="M72.2456 67.4023C72.5234 67.8197 72.9728 67.953 73.3335 68.2023C75.9491 70.0189 76.9656 72.5563 76.2885 75.6753C76.167 76.2396 76.0127 76.7981 75.8391 77.3489C74.4407 81.7994 71.5454 83.9909 66.8795 84.1455C65.1724 84.2015 63.475 84.1107 61.795 83.7918C61.008 83.643 60.5682 83.7957 60.3676 84.6866C59.9876 86.3775 59.4398 88.0298 59.0271 89.7149C58.8323 90.5092 58.4754 90.687 57.7347 90.3952C56.9593 90.0898 56.1627 89.8174 55.3545 89.626C54.5791 89.4425 54.4132 89.0849 54.6312 88.3313C55.123 86.6345 55.503 84.9049 55.9987 83.2101C56.1858 82.5666 55.9968 82.3656 55.4066 82.2226C52.9087 81.6216 52.9125 81.6081 52.2509 84.1435C51.9269 85.3861 51.5836 86.6268 51.2807 87.8752C51.1457 88.4337 50.9046 88.6018 50.3336 88.4124C49.4213 88.109 48.4916 87.8443 47.5561 87.624C46.8887 87.4655 46.7768 87.1235 46.9446 86.507C47.423 84.7387 47.828 82.9512 48.3238 81.1887C48.5263 80.4737 48.3122 80.2399 47.6294 80.0698C45.4478 79.5326 43.2913 78.8949 41.1117 78.3576C40.2823 78.1528 40.1762 77.8107 40.5331 77.0841C41.0558 76.0174 41.5206 74.9197 41.9623 73.8162C42.1726 73.2925 42.4504 73.1457 42.9924 73.308C43.7292 73.5302 44.4795 73.7119 45.2337 73.8646C46.4258 74.1061 47.0102 73.7544 47.2976 72.593C48.7867 66.5404 50.27 60.4858 51.7359 54.4275C52.0716 53.0438 51.489 52.0969 50.135 51.72C49.3306 51.4959 48.5224 51.2891 47.7065 51.1094C47.1375 50.9837 46.879 50.7576 47.0758 50.1199C47.3979 49.0764 47.6718 48.0173 47.9245 46.9545C48.0634 46.3709 48.3353 46.2955 48.8909 46.4404C51.1245 47.0298 53.3793 47.542 55.613 48.1352C56.3845 48.3401 56.7664 48.2415 56.9555 47.368C57.3219 45.6732 57.8466 44.0151 58.2382 42.3242C58.4021 41.613 58.703 41.4546 59.3704 41.6671C60.1632 41.9222 60.9752 42.1329 61.7911 42.2971C62.5164 42.444 62.6186 42.817 62.4335 43.4663C61.959 45.136 61.5597 46.825 61.0697 48.4889C60.8807 49.1305 61.0871 49.3257 61.6754 49.4783C64.1675 50.1218 64.1656 50.1373 64.7693 47.6618C65.0586 46.4752 65.3595 45.2906 65.6161 44.0982C65.7569 43.447 66.052 43.2634 66.6982 43.4837C67.5469 43.7736 68.4168 44.0151 69.2906 44.22C69.9811 44.3804 70.147 44.7166 69.958 45.3911C69.4815 47.0917 69.0881 48.8174 68.5962 50.5141C68.3995 51.1944 68.5595 51.4881 69.225 51.7084C71.0304 52.3056 72.7548 53.0863 74.2864 54.2419C76.6859 56.0527 77.6947 58.4161 77.1758 61.4192C76.6974 64.1943 75.382 66.2756 72.5909 67.2013C72.4732 67.2419 72.371 67.3288 72.2456 67.4023ZM61.9358 78.4001C62.8057 78.4059 63.6699 78.3847 64.5147 78.1334C65.9845 77.6948 66.9586 76.7865 67.3309 75.2579C67.7051 73.7177 67.2171 72.477 66.0887 71.4373C65.4193 70.8209 64.6459 70.3629 63.8261 69.986C61.7082 69.0159 59.4283 68.5811 57.1908 68.011C56.7124 67.8893 56.5793 68.1096 56.481 68.5212C55.8579 71.1475 55.2233 73.7718 54.5733 76.3923C54.4614 76.8464 54.4942 77.0996 55.0227 77.2213C57.3046 77.7412 59.5652 78.3943 61.9358 78.4001ZM63.9168 64.6233C64.3025 64.6233 64.6902 64.6562 65.0721 64.6175C67.2826 64.3992 68.6251 63.143 68.7601 61.1294C68.874 59.4539 67.9539 58.3408 66.6365 57.5021C64.7346 56.2923 62.555 55.8305 60.4178 55.2604C59.9722 55.1406 59.8642 55.3995 59.7774 55.7493C59.1949 58.1514 58.6124 60.5535 58.0067 62.9517C57.8967 63.3865 57.972 63.5894 58.433 63.7073C60.2365 64.1692 62.0342 64.6523 63.9168 64.6233Z" fill="white"/>
</svg>
