<svg width="120" height="120" viewBox="0 0 120 120" fill="none" xmlns="http://www.w3.org/2000/svg">
    <path d="M118.191 74.5143C110.178 106.657 77.6222 126.219 45.4752 118.204C13.3417 110.19 -6.22004 77.6324 1.79691 45.4918C9.80683 13.3451 42.3626 -6.21803 74.4997 1.79541C106.644 9.80884 126.205 42.3702 118.191 74.5149L118.191 74.5143Z" fill="#F7931A"/>
    <path fill-rule="evenodd" clip-rule="evenodd" d="M86.4506 51.4515C87.6448 43.4668 81.5658 39.1747 73.2533 36.3115L75.9499 25.4955L69.3659 23.8549L66.7408 34.3861C65.0099 33.9544 63.2324 33.5476 61.4657 33.1444L64.1099 22.5437L57.5299 20.9031L54.8318 31.7156C53.3995 31.3894 51.9926 31.0671 50.6277 30.7275L50.6354 30.6935L41.5559 28.4262L39.8044 35.4583C39.8044 35.4583 44.6892 36.578 44.5863 36.647C47.2524 37.3124 47.7346 39.0773 47.6545 40.4762L44.5828 52.7982C44.7663 52.8448 45.0045 52.9123 45.2673 53.0178L45.0763 52.9702L45.0754 52.97C44.9131 52.9294 44.7445 52.8871 44.5713 52.8457L40.2658 70.1069C39.9399 70.917 39.1129 72.1326 37.2488 71.671C37.3148 71.7666 32.4635 70.4768 32.4635 70.4768L29.1946 78.0133L37.7627 80.1493C38.7008 80.3845 39.628 80.6262 40.5457 80.8655C41.1871 81.0327 41.824 81.1987 42.4568 81.3605L39.7323 92.3005L46.3087 93.9411L49.0068 83.1172C50.8034 83.6049 52.5469 84.0548 54.2538 84.4789L51.5647 95.2517L58.149 96.8923L60.8733 85.9728C72.1004 88.0976 80.5423 87.2409 84.0956 77.086C86.9589 68.9101 83.9531 64.1942 78.0466 61.119C82.3486 60.1268 85.589 57.2973 86.453 51.4523L86.4509 51.4509L86.4506 51.4515ZM71.4077 72.5455C69.5409 80.0467 57.7995 76.9455 52.4275 75.5266C51.9442 75.399 51.5125 75.285 51.1442 75.1935L54.7597 60.6999C55.2085 60.812 55.7571 60.9351 56.3785 61.0745L56.3786 61.0745C61.9354 62.3216 73.3203 64.8766 71.408 72.5455H71.4077ZM57.4932 54.3478C61.972 55.5431 71.7423 58.1506 73.4439 51.333H73.4445C75.182 44.3603 65.6868 42.2581 61.0494 41.2313C60.5277 41.1158 60.0675 41.014 59.6917 40.9203L56.4137 54.0651C56.7232 54.1423 57.0864 54.2392 57.4932 54.3478Z" fill="white"/>
</svg>
