<svg width="121" height="123" viewBox="0 0 121 123" fill="none" xmlns="http://www.w3.org/2000/svg">
<path d="M119.189 74.5143C111.176 106.657 78.62 126.219 46.473 118.204C14.3395 110.19 -5.22218 77.6324 2.79478 45.4918C10.8047 13.3451 43.3605 -6.21803 75.4975 1.79541C107.642 9.80884 127.203 42.3702 119.188 74.5149L119.189 74.5143H119.189Z" fill="#50AF95"/>
<path fill-rule="evenodd" clip-rule="evenodd" d="M68.5903 66.8023C68.166 66.8341 65.974 66.9649 61.0845 66.9649C57.1955 66.9649 54.4343 66.8482 53.4656 66.8023C38.4364 66.1411 27.2184 63.5249 27.2184 60.3925C27.2184 57.2601 38.4364 54.6474 53.4656 53.9756V64.1966C54.4485 64.2673 57.2627 64.4335 61.1517 64.4335C65.8185 64.4335 68.1554 64.2391 68.5761 64.2002V53.9827C83.5735 54.6509 94.7668 57.2671 94.7668 60.3925C94.7668 63.5178 83.5771 66.1341 68.5761 66.7987L68.5903 66.8023ZM68.5903 52.9256V43.7794H89.5202V29.832H32.5357V43.7794H53.4621V52.9221C36.453 53.7034 23.6617 57.0727 23.6617 61.1102C23.6617 65.1477 36.453 68.5134 53.4621 69.2983V98.6072H68.5867V69.2877C85.5569 68.5063 98.327 65.1406 98.327 61.1066C98.327 57.0727 85.5675 53.7069 68.5867 52.9221L68.5903 52.9256Z" fill="white"/>
<path d="M120.265 104.427C116.992 117.552 103.697 125.539 90.569 122.267C77.4463 118.994 69.4577 105.7 72.7317 92.5758C76.0028 79.4493 89.2979 71.461 102.422 74.7331C115.549 78.0053 123.537 91.3012 120.264 104.427L120.265 104.427H120.265Z" fill="#F3BA2F"/>
<path fill-rule="evenodd" clip-rule="evenodd" d="M96.5006 89.5493L90.1558 95.8935L90.1559 95.8932L86.4643 92.2019L96.5006 82.1667L106.54 92.2049L102.848 95.8962L96.5006 89.5493ZM83.8573 94.808L80.1655 98.5L83.8571 102.191L87.549 98.4992L83.8573 94.808ZM90.1558 101.107L96.5006 107.451L102.848 101.104L106.542 104.793L106.54 104.795L96.5006 114.833L86.4643 104.798L86.4591 104.793L90.1558 101.107ZM109.144 94.8101L105.452 98.5016L109.144 102.193L112.836 98.5013L109.144 94.8101Z" fill="white"/>
<path d="M100.245 98.498H100.246L96.5006 94.7523L93.7319 97.52L93.4138 97.8382L92.7578 98.4942L92.7526 98.4993L92.7578 98.5047L96.5006 102.248L100.247 98.502L100.249 98.4999L100.245 98.498" fill="white"/>
</svg>
