<svg width="121" height="121" viewBox="0 0 121 121" fill="none" xmlns="http://www.w3.org/2000/svg">
<path d="M60.4989 120.998C93.9116 120.998 120.998 93.9116 120.998 60.4989C120.998 27.0863 93.9116 0 60.4989 0C27.0863 0 0 27.0863 0 60.4989C0 93.9116 27.0863 120.998 60.4989 120.998Z" fill="#EDB72C"/>
<path d="M40.1626 76.5967C42.2916 73.0146 44.3517 69.6112 46.3364 66.1648C46.8273 65.3123 47.3783 64.9464 48.3729 65.0109C49.7312 65.0992 51.0982 65.0475 52.463 65.0239C53.0916 65.0131 53.3628 65.2327 53.3606 65.8978C53.3434 72.7864 53.3391 79.6771 53.3563 86.5657C53.3585 87.261 53.055 87.4139 52.4501 87.4074C50.7645 87.3859 49.0768 87.3665 47.3913 87.4117C46.5775 87.4332 46.3429 87.1211 46.3537 86.3397C46.3903 83.5799 46.3687 80.8202 46.3687 77.7225C46.0157 78.2456 45.8198 78.5061 45.654 78.7859C44.5217 80.6997 43.383 82.6091 42.2765 84.5379C41.9234 85.1557 41.4843 85.3236 40.7567 85.4334C38.8064 85.7283 37.7537 84.8845 36.9142 83.2291C36.0617 81.5478 34.9552 79.9936 33.7239 78.4264C33.7239 79.619 33.7239 80.8095 33.7239 82.002C33.7239 83.5089 33.7562 85.0179 33.7024 86.5227C33.6916 86.8133 33.3622 87.3364 33.1663 87.3407C31.0632 87.401 28.9579 87.3773 26.7406 87.3773C26.7406 86.8714 26.7406 86.5184 26.7406 86.1675C26.7406 79.5286 26.7643 72.8897 26.7169 66.253C26.7105 65.2197 27.0549 64.9657 28.0064 65.0152C29.2937 65.0841 30.5917 65.0777 31.8812 65.0152C32.6971 64.9765 33.1728 65.2413 33.6012 65.9624C35.5601 69.2603 37.5836 72.5195 39.5878 75.7916C39.732 76.0219 39.9064 76.2372 40.1626 76.5967Z" fill="black"/>
<path d="M61.543 87.3902C61.543 85.991 61.543 84.7424 61.543 83.4938C61.543 79.7633 61.5107 76.0327 61.5667 72.3042C61.5817 71.286 61.233 71.0148 60.2707 71.0621C58.8392 71.1332 57.4012 71.0686 55.9675 71.0836C55.4294 71.0901 55.0591 70.9846 55.0656 70.3345C55.0785 68.6188 55.0699 66.9031 55.0699 65.0884C55.5844 65.0648 55.9675 65.0303 56.3507 65.0282C62.3782 65.0239 68.4036 65.0454 74.4311 65.0002C75.4794 64.9916 75.8174 65.3231 75.7464 66.3499C75.6667 67.493 75.6624 68.649 75.755 69.7899C75.8432 70.8705 75.4084 71.1418 74.4031 71.1009C72.7305 71.032 71.0535 71.0815 69.2453 71.0815C69.2453 71.6347 69.2453 72.0545 69.2453 72.4743C69.2474 77.066 69.228 81.6576 69.2689 86.2471C69.2776 87.1383 69.0085 87.4289 68.113 87.4053C65.9732 87.3515 63.8291 87.3902 61.543 87.3902Z" fill="black"/>
<path d="M95.0301 81.3584C95.0301 83.2915 95.0624 85.0438 94.9892 86.7918C94.9806 87.0049 94.4079 87.3579 94.0893 87.3665C91.829 87.416 89.5687 87.3902 87.3084 87.3924C84.4023 87.3924 81.4962 87.3708 78.5901 87.4117C77.7075 87.4247 77.3329 87.246 77.3415 86.2342C77.3889 79.5609 77.3846 72.8898 77.3415 66.2165C77.335 65.2542 77.6127 64.9744 78.5535 65.0109C80.3445 65.0777 82.142 65.0669 83.9352 65.0153C84.807 64.9894 85.1084 65.2391 85.0998 66.1626C85.0546 70.8253 85.0998 75.4902 85.0632 80.1529C85.0567 81.0592 85.272 81.4079 86.2557 81.3842C89.1188 81.3175 91.9862 81.3584 95.0301 81.3584Z" fill="black"/>
<path d="M79.4102 51.731C79.4102 53.6921 79.3693 55.5155 79.4274 57.3345C79.4554 58.2128 79.195 58.5873 78.2865 58.512C77.5869 58.4539 76.8787 58.5012 76.0714 58.5012C76.0714 57.9824 76.0714 57.6294 76.0714 57.2764C76.0714 50.6439 76.0929 44.0094 76.0456 37.377C76.0391 36.3652 76.3405 36.0961 77.3178 36.1327C80.6114 36.2533 83.9352 36.0509 87.1943 36.4233C92.8257 37.067 95.6909 42.4767 93.3079 47.5226C92.5136 49.206 91.1079 50.2113 89.3513 51.04C91.0584 53.4812 92.7202 55.8534 94.5371 58.4517C93.1486 58.4517 92.0551 58.4905 90.968 58.4216C90.7355 58.4065 90.4944 58.0255 90.3136 57.7715C89.0198 55.9654 87.754 54.1377 86.443 52.3446C86.2407 52.069 85.8467 51.7698 85.5346 51.7612C83.5627 51.7052 81.5909 51.731 79.4102 51.731ZM79.4038 43.9405C79.4081 43.9405 79.4102 43.9405 79.4145 43.9405C79.4145 45.3031 79.3822 46.6658 79.4404 48.0263C79.4533 48.304 79.8085 48.8013 80.0001 48.7991C82.3572 48.756 84.7489 48.8529 87.063 48.4848C89.4654 48.1038 90.7204 46.2503 90.6515 43.9577C90.5762 41.4219 89.3169 39.7621 86.7853 39.4414C84.5594 39.1594 82.2862 39.2434 80.0323 39.2304C79.8235 39.2283 79.4425 39.6976 79.4296 39.9623C79.3693 41.2862 79.4038 42.6144 79.4038 43.9405Z" fill="black"/>
<path d="M30.4045 55.4724C34.318 55.4724 38.0443 55.4616 41.7728 55.4875C42.2334 55.4896 43.0579 55.6252 43.0881 55.8039C43.2194 56.5983 43.1526 57.4313 43.0751 58.2451C43.0644 58.3505 42.5886 58.484 42.326 58.484C37.4846 58.4969 32.6411 58.484 27.7997 58.4969C27.1561 58.4991 26.9322 58.2709 26.9343 57.6143C26.9516 50.7645 26.9516 43.9147 26.9322 37.0648C26.93 36.348 27.2206 36.1435 27.8944 36.1456C32.5571 36.1629 37.2198 36.1693 41.8847 36.1435C42.6231 36.1392 42.7974 36.4341 42.7802 37.1014C42.7178 39.478 43.0773 39.1852 40.7502 39.1981C37.6289 39.2132 34.5096 39.2218 31.3882 39.1917C30.6606 39.1852 30.3679 39.3854 30.3958 40.1582C30.4454 41.6264 30.4368 43.101 30.3808 44.5691C30.3485 45.4022 30.6068 45.6885 31.4743 45.6734C34.3783 45.6239 37.2866 45.6885 40.1905 45.639C41.1119 45.6239 41.5553 45.8736 41.4262 46.8423C41.3982 47.0533 41.4068 47.275 41.4326 47.486C41.5381 48.3578 41.1958 48.685 40.2874 48.6678C37.6698 48.6204 35.0499 48.642 32.4323 48.6592C30.116 48.6742 30.4303 48.3126 30.4088 50.7301C30.3937 52.2628 30.4045 53.7976 30.4045 55.4724Z" fill="black"/>
<path d="M65.0648 36.32C65.209 36.2533 65.2391 36.2275 65.2736 36.2231C68.3175 35.8098 68.3347 35.8098 68.3153 38.8343C68.2873 42.7802 68.4122 46.739 68.1345 50.6676C67.7836 55.6382 64.546 58.4883 59.5647 58.6778C57.4895 58.7574 55.4638 58.5701 53.6211 57.5304C50.6483 55.8534 49.5396 53.0614 49.4406 49.8711C49.3093 45.639 49.4148 41.4025 49.3803 37.166C49.3739 36.3502 49.6774 36.1241 50.4588 36.1392C53.2853 36.1909 52.7902 35.8421 52.816 38.4512C52.844 41.5726 52.8182 44.6961 52.8203 47.8196C52.8203 48.4654 52.8139 49.1134 52.8483 49.757C53.1131 54.6479 57.5325 57.229 61.9412 55.0462C63.9561 54.0473 64.8021 52.224 64.8624 50.1122C64.9808 45.9877 64.9485 41.861 64.9851 37.7343C64.9873 37.2392 65.0389 36.7506 65.0648 36.32Z" fill="black"/>
</svg>
