<svg width="121" height="120" viewBox="0 0 121 120" fill="none" xmlns="http://www.w3.org/2000/svg">
<circle cx="60.9979" cy="60" r="60" fill="#EDF0F4"/>
<path d="M79.0005 47.9496C77.7211 47.2136 76.0762 47.2136 74.6141 47.9496L64.3791 54.0208L57.4339 57.8843L47.3817 63.9555C46.1023 64.6914 44.4574 64.6914 42.9953 63.9555L35.1362 59.1721C33.8569 58.4362 32.943 56.9644 32.943 55.3086V46.1098C32.943 44.638 33.6741 43.1662 35.1362 42.2463L42.9953 37.6469C44.2746 36.911 45.9195 36.911 47.3817 37.6469L55.2407 42.4303C56.5201 43.1662 57.4339 44.638 57.4339 46.2938V52.365L64.3791 48.3175V42.0623C64.3791 40.5905 63.648 39.1187 62.1859 38.1988L47.5644 29.5519C46.2851 28.816 44.6402 28.816 43.178 29.5519L28.1911 38.3828C26.7289 39.1187 25.9979 40.5905 25.9979 42.0623V59.3561C25.9979 60.8279 26.7289 62.2997 28.1911 63.2196L42.9953 71.8665C44.2746 72.6024 45.9195 72.6024 47.3817 71.8665L57.4339 65.9792L64.3791 61.9318L74.4313 56.0445C75.7107 55.3086 77.3556 55.3086 78.8177 56.0445L86.6767 60.6439C87.9561 61.3798 88.8699 62.8516 88.8699 64.5074V73.7062C88.8699 75.178 88.1389 76.6499 86.6767 77.5697L79.0005 82.1691C77.7211 82.905 76.0762 82.905 74.6141 82.1691L66.755 77.5697C65.4757 76.8338 64.5618 75.362 64.5618 73.7062V67.819L57.6167 71.8665V77.9377C57.6167 79.4095 58.3477 80.8813 59.8099 81.8012L74.6141 90.4481C75.8934 91.184 77.5383 91.184 79.0005 90.4481L93.8046 81.8012C95.084 81.0653 95.9979 79.5935 95.9979 77.9377V60.4599C95.9979 58.9881 95.2668 57.5163 93.8046 56.5964L79.0005 47.9496Z" fill="#8247E5"/>
</svg>
