<svg width="121" height="120" viewBox="0 0 121 120" fill="none" xmlns="http://www.w3.org/2000/svg">
<circle cx="60.9978" cy="60" r="60" fill="black"/>
<path d="M91.6077 33.3609L81.428 38.5473L32.2715 63.5852C32.1052 62.3174 32.0216 61.0402 32.0211 59.7615C32.0348 49.3809 37.543 39.7834 46.4991 34.535C55.4552 29.2867 66.5205 29.172 75.5834 34.2336L81.4101 31.2648L82.2793 30.8213C71.3959 22.922 57.0016 21.7947 45.0212 27.9034C33.0408 34.0121 25.4991 46.3243 25.5005 59.7723C25.5005 60.6832 25.5351 61.5905 25.6042 62.4942C25.8023 65.1112 24.4087 67.5909 22.0703 68.7823L18.9978 70.349V77.6565L28.0436 73.0459L30.9731 71.5508L33.8596 70.0807L85.6809 43.6765L91.504 40.7113L103.54 34.577V27.2731L91.6077 33.3609Z" fill="white"/>
<path d="M103.54 41.8881L36.8033 75.8681L30.9802 78.8404L18.9978 84.9461V92.2464L30.898 86.1837L41.0776 80.9973L90.2843 55.9236C90.4506 57.1997 90.5342 58.4853 90.5346 59.7723C90.5282 70.1653 85.0136 79.7762 76.0442 85.0265C67.0748 90.2767 55.9946 90.3795 46.9294 85.2966L46.5717 85.4862L40.255 88.7053C51.1358 96.6049 65.5275 97.7349 77.5079 91.6303C89.4883 85.5258 97.033 73.2182 97.0373 59.7723C97.0373 58.853 97.0016 57.9338 96.9336 57.0253C96.7359 54.4094 98.1277 51.9304 100.464 50.7372L103.54 49.1705V41.8881Z" fill="white"/>
</svg>
