<svg width="121" height="120" viewBox="0 0 121 120" fill="none" xmlns="http://www.w3.org/2000/svg">
<path fill-rule="evenodd" clip-rule="evenodd" d="M60.9979 120C27.9979 120 0.997864 93.0006 0.997864 59.7012C1.29786 26.7019 27.9979 -0.297518 61.2979 0.00247602C94.2979 0.30247 120.998 27.0019 120.998 60.6012C120.698 93.3006 93.9979 120 60.9979 120Z" fill="#FC070C"/>
<path fill-rule="evenodd" clip-rule="evenodd" d="M103.748 47.306C102.11 45.7941 100.212 43.9508 98.2334 42.03L98.233 42.0296C95.4543 39.3317 92.5183 36.481 89.927 34.1811L89.6645 33.9973C89.2278 33.6466 88.7353 33.3715 88.2077 33.1836L86.2078 32.8105C72.4081 30.2356 27.6768 21.8892 26.7566 22.0011C26.4845 22.0392 26.2243 22.1379 25.9954 22.2899L25.746 22.4867C25.4389 22.7986 25.2057 23.1753 25.0635 23.5892L24.9979 23.7599V24.6917V24.8361C28.0347 33.2924 35.9237 52.1773 43.2078 69.6145L43.2079 69.6147L43.2081 69.6151L43.2082 69.6154C49.3663 84.3571 55.0922 98.064 57.0884 103.56L57.0891 103.562C57.3518 104.376 57.8505 105.922 58.7815 106.001H58.9915C59.4903 106.001 61.6165 103.192 61.6165 103.192C61.6165 103.192 99.6264 57.0973 103.472 52.1885C103.97 51.5839 104.409 50.9335 104.784 50.246C104.979 49.1519 104.586 48.0358 103.748 47.306ZM71.3683 52.6741L87.5908 39.2211L97.1064 47.9885L71.3683 52.6741ZM37.1385 28.9048L65.0684 51.7948L82.3277 37.2392L37.1385 28.9048ZM67.5884 57.7929L96.1745 53.186L63.4934 92.5609L67.5884 57.7929ZM62.7321 56.126L33.3453 31.1886L58.4796 92.5871L62.7321 56.126Z" fill="white"/>
</svg>
