<svg width="124" height="123" viewBox="0 0 124 123" fill="none" xmlns="http://www.w3.org/2000/svg">
<path d="M119.189 74.5143C111.176 106.657 78.62 126.219 46.473 118.204C14.3395 110.19 -5.22218 77.6324 2.79478 45.4918C10.8047 13.3451 43.3605 -6.21803 75.4975 1.79541C107.642 9.80884 127.203 42.3702 119.188 74.5149L119.189 74.5143H119.189Z" fill="#50AF95"/>
<path fill-rule="evenodd" clip-rule="evenodd" d="M68.5903 66.8023C68.166 66.8341 65.974 66.9649 61.0845 66.9649C57.1955 66.9649 54.4343 66.8482 53.4656 66.8023C38.4364 66.1411 27.2184 63.5249 27.2184 60.3925C27.2184 57.2601 38.4364 54.6474 53.4656 53.9756V64.1966C54.4485 64.2673 57.2627 64.4335 61.1517 64.4335C65.8185 64.4335 68.1554 64.2391 68.5761 64.2002V53.9827C83.5735 54.6509 94.7668 57.2671 94.7668 60.3925C94.7668 63.5178 83.5771 66.1341 68.5761 66.7987L68.5903 66.8023ZM68.5903 52.9256V43.7794H89.5202V29.832H32.5357V43.7794H53.4621V52.9221C36.453 53.7034 23.6617 57.0727 23.6617 61.1102C23.6617 65.1477 36.453 68.5134 53.4621 69.2983V98.6072H68.5867V69.2877C85.5569 68.5063 98.327 65.1406 98.327 61.1066C98.327 57.0727 85.5675 53.7069 68.5867 52.9221L68.5903 52.9256Z" fill="white"/>
<path fill-rule="evenodd" clip-rule="evenodd" d="M99.4979 123C86.0229 123 74.9979 111.975 74.9979 98.378C75.1204 84.9033 86.0229 73.8785 99.6204 74.001C113.095 74.1235 123.998 85.0258 123.998 98.7455C123.875 112.098 112.973 123 99.4979 123Z" fill="#FC070C"/>
<path fill-rule="evenodd" clip-rule="evenodd" d="M116.954 93.3166C116.285 92.6993 115.51 91.9466 114.702 91.1622C113.568 90.0606 112.369 88.8965 111.311 87.9573L111.203 87.8822C111.025 87.739 110.824 87.6267 110.609 87.55L109.792 87.3976C104.157 86.3462 85.8917 82.9381 85.516 82.9838C85.4049 82.9994 85.2987 83.0396 85.2052 83.1017L85.1034 83.1821C84.978 83.3094 84.8827 83.4633 84.8247 83.6323L84.7979 83.7019V84.0825V84.1414C86.0379 87.5944 89.2592 95.3057 92.2336 102.426C94.7482 108.446 97.0864 114.043 97.9015 116.287L97.9018 116.288C98.0091 116.62 98.2127 117.252 98.5929 117.284H98.6786C98.8823 117.284 99.7505 116.137 99.7505 116.137C99.7505 116.137 115.271 97.3147 116.841 95.3103C117.045 95.0634 117.224 94.7978 117.377 94.5171C117.457 94.0704 117.296 93.6146 116.954 93.3166ZM103.732 95.5086L110.357 90.0153L114.242 93.5953L103.732 95.5086ZM89.7553 85.8028L101.16 95.1495L108.208 89.206L89.7553 85.8028ZM102.189 97.5988L113.862 95.7176L100.517 111.796L102.189 97.5988ZM100.206 96.9181L88.2064 86.7353L98.4696 111.806L100.206 96.9181Z" fill="white"/>
</svg>
