<svg width="124" height="123" viewBox="0 0 124 123" fill="none" xmlns="http://www.w3.org/2000/svg">
<path d="M119.189 74.5143C111.176 106.657 78.62 126.219 46.473 118.204C14.3395 110.19 -5.22218 77.6324 2.79478 45.4918C10.8047 13.3451 43.3605 -6.21803 75.4975 1.79541C107.642 9.80884 127.203 42.3702 119.188 74.5149L119.189 74.5143H119.189Z" fill="#50AF95"/>
<path fill-rule="evenodd" clip-rule="evenodd" d="M68.5903 66.8023C68.166 66.8341 65.974 66.9649 61.0845 66.9649C57.1955 66.9649 54.4343 66.8482 53.4656 66.8023C38.4364 66.1411 27.2184 63.5249 27.2184 60.3925C27.2184 57.2601 38.4364 54.6474 53.4656 53.9756V64.1966C54.4485 64.2673 57.2627 64.4335 61.1517 64.4335C65.8185 64.4335 68.1554 64.2391 68.5761 64.2002V53.9827C83.5735 54.6509 94.7668 57.2671 94.7668 60.3925C94.7668 63.5178 83.5771 66.1341 68.5761 66.7987L68.5903 66.8023ZM68.5903 52.9256V43.7794H89.5202V29.832H32.5357V43.7794H53.4621V52.9221C36.453 53.7034 23.6617 57.0727 23.6617 61.1102C23.6617 65.1477 36.453 68.5134 53.4621 69.2983V98.6072H68.5867V69.2877C85.5569 68.5063 98.327 65.1406 98.327 61.1066C98.327 57.0727 85.5675 53.7069 68.5867 52.9221L68.5903 52.9256Z" fill="white"/>
<circle cx="99.4979" cy="98.5" r="24.5" fill="#EDF0F4"/>
<path d="M106.849 93.5794C106.327 93.2789 105.655 93.2789 105.058 93.5794L100.879 96.0585L98.0426 97.6361L93.9379 100.115C93.4155 100.416 92.7438 100.416 92.1468 100.115L88.9377 98.1619C88.4153 97.8615 88.0422 97.2605 88.0422 96.5843V92.8282C88.0422 92.2272 88.3407 91.6262 88.9377 91.2506L92.1468 89.3725C92.6692 89.072 93.3409 89.072 93.9379 89.3725L97.147 91.3257C97.6694 91.6262 98.0426 92.2272 98.0426 92.9033V95.3824L100.879 93.7296V91.1754C100.879 90.5745 100.58 89.9735 99.983 89.5978L94.0126 86.067C93.4901 85.7665 92.8185 85.7665 92.2214 86.067L86.1018 89.673C85.5047 89.9735 85.2062 90.5745 85.2062 91.1754V98.2371C85.2062 98.8381 85.5047 99.439 86.1018 99.8147L92.1468 103.345C92.6692 103.646 93.3409 103.646 93.9379 103.345L98.0426 100.942L100.879 99.2888L104.983 96.8848C105.506 96.5843 106.177 96.5843 106.774 96.8848L109.983 98.7629C110.506 99.0634 110.879 99.6644 110.879 100.341V104.097C110.879 104.698 110.58 105.299 109.983 105.674L106.849 107.552C106.327 107.853 105.655 107.853 105.058 107.552L101.849 105.674C101.326 105.374 100.953 104.773 100.953 104.097V101.693L98.1172 103.345V105.825C98.1172 106.426 98.4157 107.027 99.0128 107.402L105.058 110.933C105.58 111.233 106.252 111.233 106.849 110.933L112.894 107.402C113.416 107.102 113.79 106.501 113.79 105.825V98.6878C113.79 98.0868 113.491 97.4858 112.894 97.1102L106.849 93.5794Z" fill="#8247E5"/>
</svg>
