<svg width="122" height="123" viewBox="0 0 122 123" fill="none" xmlns="http://www.w3.org/2000/svg">
<path d="M119.189 74.5143C111.176 106.657 78.62 126.219 46.473 118.204C14.3395 110.19 -5.22218 77.6324 2.79478 45.4918C10.8047 13.3451 43.3605 -6.21803 75.4975 1.79541C107.642 9.80884 127.203 42.3702 119.188 74.5149L119.189 74.5143H119.189Z" fill="#50AF95"/>
<path fill-rule="evenodd" clip-rule="evenodd" d="M68.5903 66.8023C68.166 66.8341 65.974 66.9649 61.0845 66.9649C57.1955 66.9649 54.4343 66.8482 53.4656 66.8023C38.4364 66.1411 27.2184 63.5249 27.2184 60.3925C27.2184 57.2601 38.4364 54.6474 53.4656 53.9756V64.1966C54.4485 64.2673 57.2627 64.4335 61.1517 64.4335C65.8185 64.4335 68.1554 64.2391 68.5761 64.2002V53.9827C83.5735 54.6509 94.7668 57.2671 94.7668 60.3925C94.7668 63.5178 83.5771 66.1341 68.5761 66.7987L68.5903 66.8023ZM68.5903 52.9256V43.7794H89.5202V29.832H32.5357V43.7794H53.4621V52.9221C36.453 53.7034 23.6617 57.0727 23.6617 61.1102C23.6617 65.1477 36.453 68.5134 53.4621 69.2983V98.6072H68.5867V69.2877C85.5569 68.5063 98.327 65.1406 98.327 61.1066C98.327 57.0727 85.5675 53.7069 68.5867 52.9221L68.5903 52.9256Z" fill="white"/>
<circle cx="97.4979" cy="98.5" r="24.5" fill="#EDF0F4"/>
<path d="M102.385 116.648C102.29 116.68 102.196 116.711 102.101 116.743C100.571 117.134 99.021 117.337 97.4392 117.249C96.9743 117.224 96.5086 117.202 96.0436 117.179C95.9749 117.13 95.898 117.122 95.8175 117.132C94.0826 116.918 92.3943 116.527 90.7896 115.815C90.746 115.796 90.6957 115.793 90.6484 115.782C90.573 115.739 90.4984 115.696 90.423 115.653C88.9321 114.939 87.6134 113.982 86.4388 112.822C86.3412 112.719 86.2444 112.617 86.1468 112.515C85.1637 111.417 84.3625 110.193 83.6558 108.903C83.6307 108.852 83.6056 108.801 83.5797 108.749C83.0297 107.56 82.5596 106.343 82.2869 105.057C82.2957 104.972 82.2699 104.898 82.2181 104.831C82.1494 104.061 82.0149 103.299 82.0001 102.523C81.9831 101.611 82.0659 100.707 82.1804 99.8047C82.2351 99.684 82.2337 99.5581 82.2196 99.43C82.4613 98.5146 82.6609 97.5882 82.9751 96.6928C83.7024 94.6215 84.7151 92.7019 86.0131 90.9327C86.1365 90.7646 86.2496 90.5884 86.3671 90.4166C86.5164 90.2877 86.6377 90.1351 86.7374 89.9656C86.9917 89.6656 87.246 89.3672 87.4995 89.0665C88.5063 87.8705 89.6402 86.7959 90.7201 85.6688C90.8206 85.571 90.9212 85.474 91.021 85.3763C91.8082 84.6083 92.5939 83.8418 93.3797 83.0746C93.4528 83.0013 93.526 82.928 93.5992 82.8546C94.0959 82.417 94.5631 81.9489 95.0177 81.4676C95.0945 81.3928 95.1722 81.3172 95.249 81.2424C95.5395 80.9943 95.8138 80.7314 96.0518 80.4308C96.1235 80.3523 96.1952 80.2738 96.2661 80.1945C96.3925 80.0523 96.5189 79.9102 96.6446 79.768C96.7133 79.6872 96.7828 79.6065 96.8516 79.5258C96.9329 79.4369 97.0149 79.3481 97.0962 79.2585C97.1635 79.2 97.2308 79.1414 97.298 79.0822C97.3956 79.0548 97.4939 79.0274 97.5915 79C97.7097 79.0333 97.8458 78.9933 97.95 79.0852C97.9788 79.1089 98.0076 79.1326 98.0357 79.1563C98.0431 79.1726 98.0557 79.1777 98.0727 79.1718C98.2774 79.3666 98.4822 79.5613 98.6869 79.7561C98.7978 79.9279 98.9405 80.0694 99.0994 80.1953C99.7439 80.8751 100.391 81.5535 101.086 82.1822C101.346 82.4592 101.6 82.7421 101.867 83.0124C103.103 84.2625 104.342 85.5088 105.581 86.7559C105.771 86.9655 105.954 87.1825 106.153 87.3832C108.27 89.5197 110.16 91.8229 111.461 94.563C111.522 94.7407 111.587 94.9162 111.711 95.0621C112.115 96.1848 112.54 97.2994 112.779 98.4739C113.827 103.635 112.864 108.296 109.287 112.271C107.427 114.337 105.114 115.733 102.477 116.596C102.446 116.609 102.417 116.631 102.385 116.648Z" fill="#51D6B1"/>
<path d="M102.021 100.997C102.128 101.157 102.3 101.209 102.438 101.304C103.441 102 103.83 102.973 103.571 104.168C103.524 104.384 103.465 104.598 103.399 104.809C102.863 106.515 101.753 107.354 99.965 107.414C99.3109 107.435 98.6604 107.4 98.0166 107.278C97.715 107.221 97.5465 107.28 97.4696 107.621C97.324 108.269 97.114 108.902 96.9559 109.548C96.8812 109.852 96.7445 109.921 96.4606 109.809C96.1635 109.692 95.8582 109.587 95.5485 109.514C95.2513 109.444 95.1878 109.307 95.2713 109.018C95.4598 108.368 95.6054 107.705 95.7954 107.055C95.8671 106.809 95.7946 106.732 95.5684 106.677C94.6112 106.447 94.6127 106.441 94.3591 107.413C94.235 107.889 94.1034 108.365 93.9873 108.843C93.9356 109.057 93.8432 109.121 93.6244 109.049C93.2748 108.933 92.9185 108.831 92.56 108.747C92.3042 108.686 92.2614 108.555 92.3257 108.319C92.509 107.641 92.6642 106.956 92.8542 106.281C92.9318 106.007 92.8498 105.917 92.5881 105.852C91.7521 105.646 90.9257 105.402 90.0904 105.196C89.7726 105.117 89.7319 104.986 89.8687 104.708C90.069 104.299 90.2471 103.878 90.4164 103.455C90.497 103.255 90.6034 103.198 90.8111 103.261C91.0935 103.346 91.381 103.415 91.67 103.474C92.1268 103.566 92.3508 103.432 92.4609 102.987C93.0316 100.667 93.6 98.347 94.1618 96.0253C94.2904 95.4951 94.0672 95.1322 93.5483 94.9878C93.24 94.9019 92.9303 94.8226 92.6177 94.7538C92.3996 94.7056 92.3005 94.619 92.3759 94.3746C92.4994 93.9747 92.6043 93.5688 92.7012 93.1615C92.7544 92.9379 92.8586 92.909 93.0715 92.9645C93.9275 93.1904 94.7916 93.3867 95.6475 93.614C95.9432 93.6925 96.0896 93.6548 96.162 93.32C96.3024 92.6705 96.5035 92.0351 96.6535 91.3871C96.7164 91.1146 96.8317 91.0539 97.0874 91.1354C97.3912 91.2331 97.7024 91.3138 98.0151 91.3768C98.293 91.4331 98.3322 91.576 98.2612 91.8248C98.0794 92.4647 97.9264 93.1119 97.7387 93.7495C97.6662 93.9954 97.7453 94.0702 97.9708 94.1287C98.9258 94.3753 98.925 94.3812 99.1564 93.4326C99.2673 92.9779 99.3826 92.5239 99.4809 92.067C99.5348 91.8174 99.6479 91.7471 99.8956 91.8315C100.221 91.9426 100.554 92.0351 100.889 92.1136C101.154 92.1751 101.217 92.304 101.145 92.5624C100.962 93.2141 100.811 93.8754 100.623 94.5257C100.548 94.7863 100.609 94.8989 100.864 94.9833C101.556 95.2122 102.217 95.5114 102.803 95.9542C103.723 96.6481 104.11 97.5538 103.911 98.7047C103.727 99.7681 103.223 100.566 102.154 100.92C102.109 100.936 102.069 100.969 102.021 100.997ZM98.0705 105.212C98.4039 105.214 98.7351 105.206 99.0588 105.11C99.6221 104.942 99.9953 104.594 100.138 104.008C100.281 103.418 100.094 102.942 99.662 102.544C99.4055 102.308 99.1091 102.132 98.7949 101.988C97.9833 101.616 97.1096 101.449 96.2522 101.231C96.0689 101.184 96.0179 101.269 95.9802 101.426C95.7414 102.433 95.4982 103.438 95.2491 104.443C95.2062 104.617 95.2188 104.714 95.4213 104.76C96.2958 104.959 97.1621 105.21 98.0705 105.212ZM98.8297 99.9325C98.9775 99.9325 99.1261 99.9451 99.2724 99.9303C100.12 99.8466 100.634 99.3653 100.686 98.5936C100.729 97.9515 100.377 97.5249 99.8719 97.2035C99.1431 96.7399 98.3078 96.563 97.4888 96.3445C97.3181 96.2986 97.2767 96.3978 97.2434 96.5319C97.0202 97.4524 96.7969 98.3729 96.5648 99.2919C96.5227 99.4586 96.5515 99.5363 96.7282 99.5815C97.4193 99.7585 98.1082 99.9436 98.8297 99.9325Z" fill="white"/>
</svg>
