<svg width="123" height="123" viewBox="0 0 123 123" fill="none" xmlns="http://www.w3.org/2000/svg">
<path d="M119.189 74.5143C111.176 106.657 78.62 126.219 46.473 118.204C14.3395 110.19 -5.22219 77.6324 2.79476 45.4918C10.8047 13.3451 43.3605 -6.21803 75.4975 1.79541C107.642 9.80884 127.203 42.3702 119.188 74.5149L119.189 74.5143H119.189Z" fill="#50AF95"/>
<path fill-rule="evenodd" clip-rule="evenodd" d="M68.5903 66.8023C68.166 66.8341 65.974 66.9649 61.0845 66.9649C57.1955 66.9649 54.4343 66.8482 53.4656 66.8023C38.4364 66.1411 27.2184 63.5249 27.2184 60.3925C27.2184 57.2601 38.4364 54.6474 53.4656 53.9756V64.1966C54.4484 64.2673 57.2627 64.4335 61.1517 64.4335C65.8185 64.4335 68.1554 64.2391 68.5761 64.2002V53.9827C83.5735 54.6509 94.7667 57.2671 94.7667 60.3925C94.7667 63.5178 83.577 66.1341 68.5761 66.7987L68.5903 66.8023ZM68.5903 52.9256V43.7794H89.5201V29.832H32.5357V43.7794H53.4621V52.9221C36.453 53.7034 23.6617 57.0727 23.6617 61.1102C23.6617 65.1477 36.453 68.5134 53.4621 69.2983V98.6072H68.5867V69.2877C85.5569 68.5063 98.327 65.1406 98.327 61.1066C98.327 57.0727 85.5675 53.7069 68.5867 52.9221L68.5903 52.9256Z" fill="white"/>
<circle cx="98.4978" cy="98.5" r="24.5" fill="#1A78F3"/>
<path d="M98.431 83.8L98.2361 84.462V103.671L98.431 103.865L107.347 98.5947L98.431 83.8Z" fill="white"/>
<path d="M98.431 83.8L89.5145 98.5947L98.431 103.865V94.5418V83.8Z" fill="white"/>
<path d="M98.431 105.553L98.3212 105.687V112.53L98.431 112.85L107.353 100.286L98.431 105.553Z" fill="white"/>
<path d="M98.431 112.85V105.553L89.5145 100.286L98.431 112.85Z" fill="white"/>
<path d="M98.431 103.865L107.347 98.5947L98.431 94.5418V103.865Z" fill="white"/>
<path d="M89.5145 98.5947L98.431 103.865V94.5418L89.5145 98.5947Z" fill="white"/>
</svg>
