<svg width="1440" height="307" viewBox="0 0 1440 307" fill="none" xmlns="http://www.w3.org/2000/svg">
    <g clip-path="url(#clip0_27_148)">
        <path d="M1571.84 161.68C1582.38 161.684 1582.24 161.683 1582.31 150.942C1582.3 147.338 1581.54 146.16 1577.73 146.228C1562.83 146.432 910.747 146.219 895.778 146.354C893.006 146.353 891.482 146.075 890.718 142.818C886.416 123.274 874.562 110.034 855.918 102.89C854.046 101.989 852.175 101.087 850.096 101.225C847.393 99.492 845.106 100.808 842.82 102.263C840.533 102.054 837.9 102.608 836.236 101.498C831.523 98.4478 826.672 99.2779 821.682 99.6922C814.267 99.2049 806.783 99.2026 799.368 99.6855C796.665 100.863 796.666 103.358 796.667 105.852C796.53 111.951 796.601 118.118 796.673 124.286C796.749 149.719 796.688 175.152 796.765 200.586C796.835 203.427 796.005 206.753 799.678 208.348C804.598 208.419 809.449 208.697 814.37 208.491C822.339 208.147 830.448 210.159 838 205.934C839.802 204.964 842.227 205.312 844.099 206.49C846.663 208.085 849.158 207.531 851.722 206.77C872.164 200.608 885.396 187.238 890.656 166.449C891.695 162.499 893.15 161.599 896.961 161.669C909.366 161.881 1559.23 161.677 1571.84 161.68Z" fill="#38C8B4"/>
        <path d="M799.438 99.616C799.378 130.039 799.317 160.6 799.257 191.023C799.259 196.844 799.399 202.527 799.54 208.348C789.699 207.929 784.36 198.018 789.069 188.317C790.801 184.783 791.216 181.734 789.066 178.476C787.888 176.744 788.164 174.803 788.164 172.863C788.16 160.25 788.156 147.638 788.152 135.025C788.152 132.807 788.151 130.59 789.536 128.511C791.13 126.225 791.198 123.383 789.742 120.958C787.177 116.868 787.868 112.433 788.421 108.137C789.044 102.523 792.785 99.7526 799.438 99.616Z" fill="#16202C"/>
        <rect x="808.576" y="98.2983" width="7.11435" height="109.764" fill="#084A71" fill-opacity="0.08"/>
        <rect x="796.38" y="97.2817" width="16.2614" height="112.813" rx="3" fill="#19E7CA"/>
        <path d="M876.671 115.576L876.971 117.802L876.972 117.803C877.16 119.197 877.254 119.894 877.344 120.589C880.255 142.941 880.637 165.549 878.484 187.986C878.417 188.684 878.346 189.384 878.205 190.784L878.205 190.785L882.501 185.137C884.947 181.581 886.977 177.756 888.55 173.738L889.591 171.079C891.799 165.439 892.932 159.435 892.932 153.378C892.932 148.615 892.231 143.878 890.852 139.318L890.72 138.881C888.737 132.328 885.471 126.234 881.112 120.954L876.671 115.576Z" fill="#002A51" fill-opacity="0.07"/>
        <path d="M852.177 195.796C840.021 198.177 832.944 188.608 830.925 183.526C832.574 171.692 837.209 174.365 844.798 170.798C852.386 167.231 858.898 162.009 869.535 165.732C880.172 169.454 867.373 192.82 852.177 195.796Z" fill="#19E7CA" fill-opacity="0.37"/>
        <path d="M854.008 106.599C858.489 108.41 858.765 113.046 858.342 115.138C855.282 118.655 854.336 116.794 851.096 116.343C847.855 115.893 844.614 116.213 841.929 112.73C839.245 109.247 848.407 104.335 854.008 106.599Z" fill="#19E7CA" fill-opacity="0.37"/>
        <path d="M675.781 190.544C680.631 186.942 680.975 178.973 676.539 175.091C669.886 175.089 663.233 174.948 656.511 175.154C653.531 175.222 652.561 174.391 652.56 171.341C652.695 159.283 652.691 147.086 652.549 135.028C652.548 132.256 653.449 131.494 656.082 131.495C663.012 131.358 670.081 132.331 677.011 130.947C680.89 126.235 680.264 118.82 675.759 116.116C670.354 116.114 664.809 115.836 659.473 116.319C654.276 116.803 652.127 115.624 652.472 109.733C652.886 102.942 648.449 98.9214 641.727 98.7115C635.906 98.5711 630.224 98.8466 624.402 98.9834C620.937 98.428 617.403 98.4963 613.938 98.911C610.265 98.009 607.077 98.7011 604.306 101.195C603.059 101.333 601.881 101.541 600.633 101.679C593.841 98.3506 587.396 99.9425 581.299 103.406C581.022 103.406 580.745 103.544 580.606 103.821C577.973 104.513 575.686 105.691 573.747 107.631C561.344 115.319 553.586 126.405 550.402 140.541C549.433 144.699 547.771 145.669 543.82 145.598C531.346 145.317 -600.364 145.452 -612.769 145.518C-623.58 145.515 -623.441 145.515 -623.507 156.395C-623.575 160.068 -622.605 161.038 -618.863 161.039C-604.102 160.836 529.826 161.117 544.587 160.914C548.26 160.846 549.439 161.885 550.202 165.559C553.394 180.39 561.991 191.758 574.744 199.662C582.022 204.168 589.785 209.022 599.209 205.144C601.011 204.451 603.298 204.66 604.823 205.769C608.08 208.334 611.823 207.781 615.426 207.782C623.119 207.854 630.88 207.856 638.572 207.789C649.314 207.723 652.501 204.813 652.706 194.21C652.705 191.438 653.259 190.053 656.447 190.192C662.822 190.61 669.336 190.473 675.781 190.544Z" fill="#38C8B4"/>
        <path d="M677.08 130.877C675.762 125.957 677.839 120.829 675.828 116.047C683.312 116.049 690.866 115.843 698.35 115.984C703.964 116.055 707.568 119.521 707.431 124.095C707.363 128.877 704.454 131.509 698.563 131.438C691.425 131.367 684.218 132.196 677.08 130.877Z" fill="#16202C"/>
        <path d="M675.781 190.544C677.651 185.486 676.541 180.219 676.539 175.091C684.023 175.093 691.577 174.749 698.992 175.097C704.952 175.376 707.586 178.288 707.449 183C707.312 187.435 704.056 190.137 698.304 190.343C690.819 190.479 683.335 190.477 675.781 190.544Z" fill="#16202C"/>
        <rect x="634.783" y="98.2983" width="7.11435" height="109.764" fill="#084A71" fill-opacity="0.08"/>
        <rect x="637.832" y="97.2817" width="15.245" height="112.813" rx="3" fill="#19E7CA"/>
        <path d="M564.656 191.801L564.356 189.548C564.043 187.201 563.887 186.027 563.74 184.856C561.059 163.434 560.698 141.786 562.663 120.287C562.771 119.111 562.888 117.932 563.122 115.576L558.826 121.3C556.38 124.904 554.352 128.775 552.783 132.838L551.742 135.531C549.53 141.259 548.395 147.348 548.395 153.489C548.395 158.316 549.096 163.118 550.477 167.744L550.6 168.157C552.587 174.816 555.87 181.016 560.258 186.403L564.656 191.801Z" fill="#003858" fill-opacity="0.07"/>
        <path d="M575.182 191.802C565.019 184.719 566.977 172.98 569.226 167.995C578.878 160.953 580.18 166.143 588.019 169.118C595.859 172.092 604.14 173.142 608.859 183.376C613.579 193.609 587.886 200.654 575.182 191.802Z" fill="#19E7CA" fill-opacity="0.37"/>
        <path d="M587.504 105.505C592.247 104.576 595.009 108.309 595.796 110.292C595.153 114.91 593.344 113.867 590.383 115.258C587.422 116.65 584.882 118.688 580.731 117.235C576.581 115.783 581.575 106.666 587.504 105.505Z" fill="#19E7CA" fill-opacity="0.37"/>
    </g>
    <defs>
        <clipPath id="clip0_27_148">
            <rect width="1440" height="307" fill="white"/>
        </clipPath>
    </defs>
</svg>
