<svg width="1440" height="901" viewBox="0 0 1440 901" fill="none" xmlns="http://www.w3.org/2000/svg">

    <path d="M1404.38 957.535H53.2791C36.5524 957.535 23.0242 943.44 23.0242 926.067V33.9324C23.0242 16.5348 36.5761 2.46387 53.2791 2.46387H1404.38C1421.1 2.46387 1434.63 16.5594 1434.63 33.9324V926.042C1434.65 943.44 1421.1 957.535 1404.38 957.535Z" fill="url(#paint0_linear_72_410)"/>
    <path d="M1012.44 960H1406.75C1423.47 960 1437 945.905 1437 928.532V518.381L1012.44 960Z" fill="url(#paint1_linear_72_410)"/>
    <path d="M1404.38 960H53.2792C35.2731 960 20.655 944.771 20.655 926.067V33.9328C20.655 15.2045 35.2968 0 53.2792 0H1404.38C1422.38 0 1437 15.2291 1437 33.9328V926.043C1437.02 944.771 1422.38 960 1404.38 960ZM53.2792 2.43961C36.5999 2.43961 23.0243 16.5598 23.0243 33.9082V926.018C23.0243 943.366 36.5999 957.486 53.2792 957.486H1404.38C1421.06 957.486 1434.63 943.366 1434.63 926.018V33.9328C1434.63 16.5844 1421.06 2.46426 1404.38 2.46426H53.2792V2.43961Z" fill="url(#paint2_linear_72_410)"/>
    <path d="M447.613 2.43945H53.2791C36.5524 2.43945 23.0242 16.535 23.0242 33.908V444.034L447.613 2.43945Z" fill="url(#paint3_linear_72_410)"/>
    <path d="M1401.98 969.505H33.0546C16.1072 969.505 2.40039 955.233 2.40039 937.643V34.357C2.40039 16.7419 16.1312 2.49512 33.0546 2.49512H1401.98C1418.93 2.49512 1432.63 16.7668 1432.63 34.357V937.618C1432.66 955.233 1418.93 969.505 1401.98 969.505Z" fill="url(#paint4_linear_72_410)"/>
    <path d="M1004.87 972H1404.38C1421.33 972 1435.03 957.728 1435.03 940.138V524.86L1004.87 972Z" fill="url(#paint5_linear_72_410)"/>
    <path d="M1401.98 972H33.0547C14.811 972 0 956.581 0 937.643V34.357C0 15.3945 14.835 0 33.0547 0H1401.98C1420.22 0 1435.03 15.4195 1435.03 34.357V937.618C1435.06 956.581 1420.22 972 1401.98 972ZM33.0547 2.47011C16.1553 2.47011 2.40048 16.7668 2.40048 34.332V937.593C2.40048 955.158 16.1553 969.455 33.0547 969.455H1401.98C1418.88 969.455 1432.63 955.158 1432.63 937.593V34.357C1432.63 16.7917 1418.88 2.49506 1401.98 2.49506H33.0547V2.47011Z" fill="url(#paint6_linear_72_410)"/>
    <path d="M432.591 2.47021H33.0546C16.1072 2.47021 2.40039 16.742 2.40039 34.3321V449.585L432.591 2.47021Z" fill="url(#paint7_linear_72_410)"/>
    <path d="M1406.83 969.505H33.1692C16.1631 969.505 2.40894 955.233 2.40894 937.643V34.357C2.40894 16.7419 16.1872 2.49512 33.1692 2.49512H1406.83C1423.84 2.49512 1437.59 16.7668 1437.59 34.357V937.618C1437.62 955.233 1423.84 969.505 1406.83 969.505Z" fill="url(#paint8_linear_72_410)"/>
    <path d="M1008.34 972H1409.24C1426.25 972 1440 957.728 1440 940.138V524.86L1008.34 972Z" fill="url(#paint9_linear_72_410)"/>
    <path d="M1406.83 972H33.1691C14.8622 972 0 956.581 0 937.643V34.357C0 15.3945 14.8863 0 33.1691 0H1406.83C1425.14 0 1440 15.4195 1440 34.357V937.618C1440.02 956.581 1425.14 972 1406.83 972ZM33.1691 2.47011C16.2112 2.47011 2.40879 16.7668 2.40879 34.332V937.593C2.40879 955.158 16.2112 969.455 33.1691 969.455H1406.83C1423.79 969.455 1437.59 955.158 1437.59 937.593V34.357C1437.59 16.7917 1423.79 2.49506 1406.83 2.49506H33.1691V2.47011Z" fill="url(#paint10_linear_72_410)"/>
    <path d="M434.089 2.47021H33.1692C16.1631 2.47021 2.40894 16.742 2.40894 34.3321V449.585L434.089 2.47021Z" fill="url(#paint11_linear_72_410)"/>

    <defs>
        <filter id="filter0_b_72_410" x="-124" y="195" width="1674" height="837" filterUnits="userSpaceOnUse" color-interpolation-filters="sRGB">
            <feFlood flood-opacity="0" result="BackgroundImageFix"/>
            <feGaussianBlur in="BackgroundImageFix" stdDeviation="100"/>
            <feComposite in2="SourceAlpha" operator="in" result="effect1_backgroundBlur_72_410"/>
            <feBlend mode="normal" in="SourceGraphic" in2="effect1_backgroundBlur_72_410" result="shape"/>
        </filter>
        <linearGradient id="paint0_linear_72_410" x1="36.362" y1="14.0503" x2="1446.65" y2="891.194" gradientUnits="userSpaceOnUse">
            <stop stop-color="#1C2938"/>
            <stop offset="0.9958" stop-color="#121A24"/>
        </linearGradient>
        <linearGradient id="paint1_linear_72_410" x1="1234.13" y1="751.034" x2="1559.74" y2="1130.64" gradientUnits="userSpaceOnUse">
            <stop stop-color="#121A24" stop-opacity="0"/>
            <stop offset="0.1382" stop-color="#0F344D" stop-opacity="0.1382"/>
            <stop offset="0.3664" stop-color="#095C8C" stop-opacity="0.3664"/>
            <stop offset="0.575" stop-color="#057BBE" stop-opacity="0.575"/>
            <stop offset="0.7567" stop-color="#0292E1" stop-opacity="0.7567"/>
            <stop offset="0.9046" stop-color="#01A0F7" stop-opacity="0.9046"/>
            <stop offset="1" stop-color="#00A5FF"/>
        </linearGradient>
        <linearGradient id="paint2_linear_72_410" x1="32.4838" y1="13.0808" x2="1469.2" y2="903.534" gradientUnits="userSpaceOnUse">
            <stop stop-color="#2DD7A2"/>
            <stop offset="0.0391" stop-color="#28B188" stop-opacity="0.9217"/>
            <stop offset="0.087" stop-color="#22896E" stop-opacity="0.8256"/>
            <stop offset="0.1381" stop-color="#1D6657" stop-opacity="0.723"/>
            <stop offset="0.1922" stop-color="#194B44" stop-opacity="0.6144"/>
            <stop offset="0.2503" stop-color="#163536" stop-opacity="0.4979"/>
            <stop offset="0.3143" stop-color="#14262C" stop-opacity="0.3695"/>
            <stop offset="0.3888" stop-color="#121D26" stop-opacity="0.2202"/>
            <stop offset="0.4986" stop-color="#121A24" stop-opacity="0"/>
            <stop offset="0.5949" stop-color="#121C27" stop-opacity="0.1922"/>
            <stop offset="0.6654" stop-color="#112230" stop-opacity="0.3328"/>
            <stop offset="0.7277" stop-color="#102C40" stop-opacity="0.4569"/>
            <stop offset="0.7851" stop-color="#0E3A57" stop-opacity="0.5715"/>
            <stop offset="0.8394" stop-color="#0B4D74" stop-opacity="0.6797"/>
            <stop offset="0.8911" stop-color="#096398" stop-opacity="0.7829"/>
            <stop offset="0.941" stop-color="#057EC2" stop-opacity="0.8823"/>
            <stop offset="0.9881" stop-color="#019DF2" stop-opacity="0.9763"/>
            <stop offset="1" stop-color="#00A5FF"/>
        </linearGradient>
        <linearGradient id="paint3_linear_72_410" x1="225.92" y1="211.405" x2="-99.6927" y2="-168.205" gradientUnits="userSpaceOnUse">
            <stop stop-color="#121A24" stop-opacity="0"/>
            <stop offset="0.0434" stop-color="#14252C" stop-opacity="0.0434"/>
            <stop offset="0.2969" stop-color="#1D6455" stop-opacity="0.2969"/>
            <stop offset="0.5284" stop-color="#249676" stop-opacity="0.5284"/>
            <stop offset="0.73" stop-color="#29B98E" stop-opacity="0.73"/>
            <stop offset="0.894" stop-color="#2CCF9D" stop-opacity="0.894"/>
            <stop offset="1" stop-color="#2DD7A2"/>
        </linearGradient>
        <linearGradient id="paint4_linear_72_410" x1="15.9142" y1="14.2264" x2="1444.27" y2="903.212" gradientUnits="userSpaceOnUse">
            <stop stop-color="#1C2938"/>
            <stop offset="0.9958" stop-color="#121A24"/>
        </linearGradient>
        <linearGradient id="paint5_linear_72_410" x1="1229.48" y1="760.421" x2="1559.13" y2="1145" gradientUnits="userSpaceOnUse">
            <stop stop-color="#121A24" stop-opacity="0"/>
            <stop offset="0.1382" stop-color="#0F344D" stop-opacity="0.1382"/>
            <stop offset="0.3664" stop-color="#095C8C" stop-opacity="0.3664"/>
            <stop offset="0.575" stop-color="#057BBE" stop-opacity="0.575"/>
            <stop offset="0.7567" stop-color="#0292E1" stop-opacity="0.7567"/>
            <stop offset="0.9046" stop-color="#01A0F7" stop-opacity="0.9046"/>
            <stop offset="1" stop-color="#00A5FF"/>
        </linearGradient>
        <linearGradient id="paint6_linear_72_410" x1="11.9849" y1="13.2443" x2="1467.1" y2="915.721" gradientUnits="userSpaceOnUse">
            <stop stop-color="#2DD7A2"/>
            <stop offset="0.0391" stop-color="#28B188" stop-opacity="0.9217"/>
            <stop offset="0.087" stop-color="#22896E" stop-opacity="0.8256"/>
            <stop offset="0.1381" stop-color="#1D6657" stop-opacity="0.723"/>
            <stop offset="0.1922" stop-color="#194B44" stop-opacity="0.6144"/>
            <stop offset="0.2503" stop-color="#163536" stop-opacity="0.4979"/>
            <stop offset="0.3143" stop-color="#14262C" stop-opacity="0.3695"/>
            <stop offset="0.3888" stop-color="#121D26" stop-opacity="0.2202"/>
            <stop offset="0.4986" stop-color="#121A24" stop-opacity="0"/>
            <stop offset="0.5949" stop-color="#121C27" stop-opacity="0.1922"/>
            <stop offset="0.6654" stop-color="#112230" stop-opacity="0.3328"/>
            <stop offset="0.7277" stop-color="#102C40" stop-opacity="0.4569"/>
            <stop offset="0.7851" stop-color="#0E3A57" stop-opacity="0.5715"/>
            <stop offset="0.8394" stop-color="#0B4D74" stop-opacity="0.6797"/>
            <stop offset="0.8911" stop-color="#096398" stop-opacity="0.7829"/>
            <stop offset="0.941" stop-color="#057EC2" stop-opacity="0.8823"/>
            <stop offset="0.9881" stop-color="#019DF2" stop-opacity="0.9763"/>
            <stop offset="1" stop-color="#00A5FF"/>
        </linearGradient>
        <linearGradient id="paint7_linear_72_410" x1="207.973" y1="214.048" x2="-121.675" y2="-170.531" gradientUnits="userSpaceOnUse">
            <stop stop-color="#121A24" stop-opacity="0"/>
            <stop offset="0.0434" stop-color="#14252C" stop-opacity="0.0434"/>
            <stop offset="0.2969" stop-color="#1D6455" stop-opacity="0.2969"/>
            <stop offset="0.5284" stop-color="#249676" stop-opacity="0.5284"/>
            <stop offset="0.73" stop-color="#29B98E" stop-opacity="0.73"/>
            <stop offset="0.894" stop-color="#2CCF9D" stop-opacity="0.894"/>
            <stop offset="1" stop-color="#2DD7A2"/>
        </linearGradient>
        <linearGradient id="paint8_linear_72_410" x1="15.9695" y1="14.2264" x2="1446.5" y2="907.647" gradientUnits="userSpaceOnUse">
            <stop stop-color="#1C2938"/>
            <stop offset="0.9958" stop-color="#121A24"/>
        </linearGradient>
        <linearGradient id="paint9_linear_72_410" x1="1233.74" y1="760.421" x2="1563.21" y2="1146.13" gradientUnits="userSpaceOnUse">
            <stop stop-color="#121A24" stop-opacity="0"/>
            <stop offset="0.1382" stop-color="#0F344D" stop-opacity="0.1382"/>
            <stop offset="0.3664" stop-color="#095C8C" stop-opacity="0.3664"/>
            <stop offset="0.575" stop-color="#057BBE" stop-opacity="0.575"/>
            <stop offset="0.7567" stop-color="#0292E1" stop-opacity="0.7567"/>
            <stop offset="0.9046" stop-color="#01A0F7" stop-opacity="0.9046"/>
            <stop offset="1" stop-color="#00A5FF"/>
        </linearGradient>
        <linearGradient id="paint10_linear_72_410" x1="12.0264" y1="13.2443" x2="1469.37" y2="920.233" gradientUnits="userSpaceOnUse">
            <stop stop-color="#2DD7A2"/>
            <stop offset="0.0391" stop-color="#28B188" stop-opacity="0.9217"/>
            <stop offset="0.087" stop-color="#22896E" stop-opacity="0.8256"/>
            <stop offset="0.1381" stop-color="#1D6657" stop-opacity="0.723"/>
            <stop offset="0.1922" stop-color="#194B44" stop-opacity="0.6144"/>
            <stop offset="0.2503" stop-color="#163536" stop-opacity="0.4979"/>
            <stop offset="0.3143" stop-color="#14262C" stop-opacity="0.3695"/>
            <stop offset="0.3888" stop-color="#121D26" stop-opacity="0.2202"/>
            <stop offset="0.4986" stop-color="#121A24" stop-opacity="0"/>
            <stop offset="0.5949" stop-color="#121C27" stop-opacity="0.1922"/>
            <stop offset="0.6654" stop-color="#112230" stop-opacity="0.3328"/>
            <stop offset="0.7277" stop-color="#102C40" stop-opacity="0.4569"/>
            <stop offset="0.7851" stop-color="#0E3A57" stop-opacity="0.5715"/>
            <stop offset="0.8394" stop-color="#0B4D74" stop-opacity="0.6797"/>
            <stop offset="0.8911" stop-color="#096398" stop-opacity="0.7829"/>
            <stop offset="0.941" stop-color="#057EC2" stop-opacity="0.8823"/>
            <stop offset="0.9881" stop-color="#019DF2" stop-opacity="0.9763"/>
            <stop offset="1" stop-color="#00A5FF"/>
        </linearGradient>
        <linearGradient id="paint11_linear_72_410" x1="208.693" y1="214.048" x2="-120.779" y2="-171.656" gradientUnits="userSpaceOnUse">
            <stop stop-color="#121A24" stop-opacity="0"/>
            <stop offset="0.0434" stop-color="#14252C" stop-opacity="0.0434"/>
            <stop offset="0.2969" stop-color="#1D6455" stop-opacity="0.2969"/>
            <stop offset="0.5284" stop-color="#249676" stop-opacity="0.5284"/>
            <stop offset="0.73" stop-color="#29B98E" stop-opacity="0.73"/>
            <stop offset="0.894" stop-color="#2CCF9D" stop-opacity="0.894"/>
            <stop offset="1" stop-color="#2DD7A2"/>
        </linearGradient>
    </defs>
</svg>
