<svg width="1109" height="84" viewBox="0 0 1109 84" fill="none" xmlns="http://www.w3.org/2000/svg">
    <line opacity="0.8" x1="0.5" y1="23" x2="0.500002" y2="58" stroke="white"/>
    <path d="M226 39.5C226 60.763 208.763 78 187.5 78C166.237 78 149 60.763 149 39.5C149 18.237 166.237 1 187.5 1C208.763 1 226 18.237 226 39.5Z" fill="#EDF0F4"/>
    <path d="M187.591 14.3483L194.176 21.0918L177.595 37.673L171.01 31.0881L187.591 14.3483Z" fill="#F0B90B"/>
    <path d="M197.587 24.3446L204.172 31.0881L177.595 57.6656L171.01 51.0807L197.587 24.3446Z" fill="#F0B90B"/>
    <path d="M167.598 34.3409L174.183 41.0844L167.598 47.6693L161.013 41.0844L167.598 34.3409Z" fill="#F0B90B"/>
    <path d="M207.584 34.3409L214.168 41.0844L187.591 67.6619L181.006 61.077L207.584 34.3409Z" fill="#F0B90B"/>
    <path d="M226 39.5C226 60.763 208.763 78 187.5 78C166.237 78 149 60.763 149 39.5C149 18.237 166.237 1 187.5 1C208.763 1 226 18.237 226 39.5Z" stroke="#F0B90B"/>
    <path d="M187.591 14.3483L194.176 21.0918L177.595 37.673L171.01 31.0881L187.591 14.3483Z" stroke="#F0B90B"/>
    <path d="M197.587 24.3446L204.172 31.0881L177.595 57.6656L171.01 51.0807L197.587 24.3446Z" stroke="#F0B90B"/>
    <path d="M167.598 34.3409L174.183 41.0844L167.598 47.6693L161.013 41.0844L167.598 34.3409Z" stroke="#F0B90B"/>
    <path d="M207.584 34.3409L214.168 41.0844L187.591 67.6619L181.006 61.077L207.584 34.3409Z" stroke="#F0B90B"/>
    <path d="M716 42.5C716 63.763 698.763 81 677.5 81C656.237 81 639 63.763 639 42.5C639 21.237 656.237 4 677.5 4C698.763 4 716 21.237 716 42.5Z" fill="#EDF0F4"/>
    <path d="M677.591 17.3483L684.176 24.0918L667.595 40.673L661.01 34.0881L677.591 17.3483Z" fill="#F0B90B"/>
    <path d="M687.587 27.3446L694.172 34.0881L667.595 60.6656L661.01 54.0807L687.587 27.3446Z" fill="#F0B90B"/>
    <path d="M657.598 37.3409L664.183 44.0844L657.598 50.6693L651.013 44.0844L657.598 37.3409Z" fill="#F0B90B"/>
    <path d="M697.584 37.3409L704.168 44.0844L677.591 70.6619L671.006 64.077L697.584 37.3409Z" fill="#F0B90B"/>
    <path d="M716 42.5C716 63.763 698.763 81 677.5 81C656.237 81 639 63.763 639 42.5C639 21.237 656.237 4 677.5 4C698.763 4 716 21.237 716 42.5Z" stroke="#F0B90B"/>
    <path d="M677.591 17.3483L684.176 24.0918L667.595 40.673L661.01 34.0881L677.591 17.3483Z" stroke="#F0B90B"/>
    <path d="M687.587 27.3446L694.172 34.0881L667.595 60.6656L661.01 54.0807L687.587 27.3446Z" stroke="#F0B90B"/>
    <path d="M657.598 37.3409L664.183 44.0844L657.598 50.6693L651.013 44.0844L657.598 37.3409Z" stroke="#F0B90B"/>
    <path d="M697.584 37.3409L704.168 44.0844L677.591 70.6619L671.006 64.077L697.584 37.3409Z" stroke="#F0B90B"/>
    <path d="M325 41C325 63.0914 306.868 81 284.5 81C262.132 81 244 63.0914 244 41C244 18.9086 262.132 1 284.5 1C306.868 1 325 18.9086 325 41Z" fill="#EDF0F4"/>
    <path d="M296.652 32.9664C295.788 32.4758 294.678 32.4758 293.691 32.9664L286.782 37.0138L282.094 39.5895L275.309 43.637C274.445 44.1276 273.335 44.1276 272.348 43.637L267.043 40.4481C266.18 39.9575 265.563 38.9763 265.563 37.8724V31.7399C265.563 30.7587 266.056 29.7774 267.043 29.1642L272.348 26.0979C273.212 25.6073 274.322 25.6073 275.309 26.0979L280.614 29.2868C281.477 29.7774 282.094 30.7587 282.094 31.8625V35.91L286.782 33.2117V29.0415C286.782 28.0603 286.289 27.0791 285.302 26.4659L275.432 20.7013C274.569 20.2107 273.459 20.2107 272.472 20.7013L262.355 26.5885C261.368 27.0791 260.875 28.0603 260.875 29.0415V40.5707C260.875 41.5519 261.368 42.5331 262.355 43.1464L272.348 48.911C273.212 49.4016 274.322 49.4016 275.309 48.911L282.094 44.9862L286.782 42.2878L293.568 38.363C294.431 37.8724 295.541 37.8724 296.528 38.363L301.833 41.4293C302.697 41.9199 303.314 42.9011 303.314 44.0049V50.1375C303.314 51.1187 302.82 52.0999 301.833 52.7132L296.652 55.7794C295.788 56.27 294.678 56.27 293.691 55.7794L288.386 52.7132C287.523 52.2226 286.906 51.2413 286.906 50.1375V46.2127L282.218 48.911V52.9585C282.218 53.9397 282.711 54.9209 283.698 55.5341L293.691 61.2987C294.555 61.7893 295.665 61.7893 296.652 61.2987L306.645 55.5341C307.508 55.0435 308.125 54.0623 308.125 52.9585V41.3066C308.125 40.3254 307.632 39.3442 306.645 38.731L296.652 32.9664Z" fill="#8247E5"/>
    <path d="M815 44C815 66.0914 796.868 84 774.5 84C752.132 84 734 66.0914 734 44C734 21.9086 752.132 4 774.5 4C796.868 4 815 21.9086 815 44Z" fill="#EDF0F4"/>
    <path d="M786.652 35.9664C785.788 35.4758 784.678 35.4758 783.691 35.9664L776.782 40.0138L772.094 42.5895L765.309 46.637C764.445 47.1276 763.335 47.1276 762.348 46.637L757.043 43.4481C756.18 42.9575 755.563 41.9763 755.563 40.8724V34.7399C755.563 33.7587 756.056 32.7774 757.043 32.1642L762.348 29.0979C763.212 28.6073 764.322 28.6073 765.309 29.0979L770.614 32.2868C771.477 32.7774 772.094 33.7587 772.094 34.8625V38.91L776.782 36.2117V32.0415C776.782 31.0603 776.289 30.0791 775.302 29.4659L765.432 23.7013C764.569 23.2107 763.459 23.2107 762.472 23.7013L752.355 29.5885C751.368 30.0791 750.875 31.0603 750.875 32.0415V43.5707C750.875 44.5519 751.368 45.5331 752.355 46.1464L762.348 51.911C763.212 52.4016 764.322 52.4016 765.309 51.911L772.094 47.9862L776.782 45.2878L783.568 41.363C784.431 40.8724 785.541 40.8724 786.528 41.363L791.833 44.4293C792.697 44.9199 793.314 45.9011 793.314 47.0049V53.1375C793.314 54.1187 792.82 55.0999 791.833 55.7132L786.652 58.7794C785.788 59.27 784.678 59.27 783.691 58.7794L778.386 55.7132C777.523 55.2226 776.906 54.2413 776.906 53.1375V49.2127L772.218 51.911V55.9585C772.218 56.9397 772.711 57.9209 773.698 58.5341L783.691 64.2987C784.555 64.7893 785.665 64.7893 786.652 64.2987L796.645 58.5341C797.508 58.0435 798.125 57.0623 798.125 55.9585V44.3066C798.125 43.3254 797.632 42.3442 796.645 41.731L786.652 35.9664Z" fill="#8247E5"/>
    <path d="M619 41C619 63.0914 601.091 81 579 81C556.909 81 539 63.0914 539 41C539 18.9086 556.909 1 579 1C601.091 1 619 18.9086 619 41Z" fill="url(#paint0_linear_0_1)"/>
    <path fill-rule="evenodd" clip-rule="evenodd" d="M559.312 34.1733V53H555.667V31.1333C555.67 30.3289 556.126 29.5949 556.846 29.2352C557.565 28.8754 558.426 28.951 559.072 29.4307L576.387 42.4667C576.919 42.8673 577.232 43.4941 577.233 44.16V53H573.589V44.9187L559.312 34.1733ZM598.797 34.1733V53H602.443V31.1333C602.437 30.3298 601.98 29.5977 601.261 29.2393C600.542 28.8809 599.682 28.9569 599.037 29.436L581.723 42.4667C581.191 42.8673 580.877 43.4941 580.876 44.16V53H584.52V44.9187L598.797 34.1733Z" fill="white"/>
    <path d="M1109 44C1109 66.0914 1091.09 84 1069 84C1046.91 84 1029 66.0914 1029 44C1029 21.9086 1046.91 4 1069 4C1091.09 4 1109 21.9086 1109 44Z" fill="url(#paint1_linear_0_1)"/>
    <path fill-rule="evenodd" clip-rule="evenodd" d="M1049.31 37.1733V56H1045.67V34.1333C1045.67 33.3289 1046.13 32.5949 1046.85 32.2352C1047.57 31.8754 1048.43 31.951 1049.07 32.4307L1066.39 45.4667C1066.92 45.8673 1067.23 46.4941 1067.23 47.16V56H1063.59V47.9187L1049.31 37.1733ZM1088.8 37.1733V56H1092.44V34.1333C1092.44 33.3298 1091.98 32.5977 1091.26 32.2393C1090.54 31.8809 1089.68 31.9569 1089.04 32.436L1071.72 45.4667C1071.19 45.8673 1070.88 46.4941 1070.88 47.16V56H1074.52V47.9187L1088.8 37.1733Z" fill="white"/>
    <path d="M422 39.5C422 60.763 404.539 78 383 78C361.461 78 344 60.763 344 39.5C344 18.237 361.461 1 383 1C404.539 1 422 18.237 422 39.5Z" fill="#EDF0F4"/>
    <path fill-rule="evenodd" clip-rule="evenodd" d="M396.795 18.0926L408.742 38.5283H408.747C409.084 39.1887 409.084 39.9682 408.747 40.6286L396.795 61.0643C396.385 61.6837 395.701 62.0737 394.952 62.1152H389.488L397.428 48.5399C397.652 48.1033 397.652 47.5874 397.428 47.1508L388.41 31.73C388.138 31.32 387.685 31.062 387.19 31.0355H369.154C368.659 31.062 368.206 31.32 367.934 31.73L359.992 45.3114L357.253 40.6286C356.916 39.9682 356.916 39.1887 357.253 38.5283L369.205 18.0926C369.615 17.4732 370.299 17.0831 371.048 17.0417H394.952C395.701 17.0831 396.385 17.4732 396.795 18.0926ZM394.609 47.3374L386.821 34.0259C386.629 33.7406 386.313 33.5604 385.967 33.5392H370.391C370.044 33.5604 369.728 33.7406 369.536 34.0259L361.748 47.3434C361.593 47.6499 361.593 48.0105 361.748 48.317L364.031 52.2234L368.025 45.3993C368.244 45.0668 368.611 44.8573 369.013 44.8352H379.274C379.676 44.8573 380.042 45.0668 380.262 45.3993L385.394 54.1735C385.575 54.5278 385.575 54.946 385.394 55.3003L381.4 62.1243H385.962C386.309 62.1031 386.625 61.9223 386.817 61.636L394.605 48.32C394.765 48.0118 394.766 47.647 394.609 47.3374ZM369.222 61.0901L365.701 55.0698C365.59 54.8474 365.59 54.587 365.701 54.3646L369.61 47.6816C369.75 47.4724 369.981 47.3404 370.234 47.3252H378.051C378.305 47.3404 378.536 47.4724 378.677 47.6816L382.586 54.3646C382.698 54.5893 382.698 54.8526 382.586 55.0773L378.677 61.7603C378.537 61.9649 378.311 62.0956 378.062 62.1152H371.034C370.302 62.0689 369.632 61.6904 369.222 61.0901Z" fill="url(#paint2_linear_0_1)"/>
    <path d="M912 42.5C912 63.763 894.539 81 873 81C851.461 81 834 63.763 834 42.5C834 21.237 851.461 4 873 4C894.539 4 912 21.237 912 42.5Z" fill="#EDF0F4"/>
    <path fill-rule="evenodd" clip-rule="evenodd" d="M886.795 21.0926L898.742 41.5283H898.747C899.084 42.1887 899.084 42.9682 898.747 43.6286L886.795 64.0643C886.385 64.6837 885.701 65.0737 884.952 65.1152H879.488L887.428 51.5399C887.652 51.1033 887.652 50.5874 887.428 50.1508L878.41 34.73C878.138 34.32 877.685 34.062 877.19 34.0355H859.154C858.659 34.062 858.206 34.32 857.934 34.73L849.992 48.3114L847.253 43.6286C846.916 42.9682 846.916 42.1887 847.253 41.5283L859.205 21.0926C859.615 20.4732 860.299 20.0831 861.048 20.0417H884.952C885.701 20.0831 886.385 20.4732 886.795 21.0926ZM884.609 50.3374L876.821 37.0259C876.629 36.7406 876.313 36.5604 875.967 36.5392H860.391C860.044 36.5604 859.728 36.7406 859.536 37.0259L851.748 50.3434C851.593 50.6499 851.593 51.0105 851.748 51.317L854.031 55.2234L858.025 48.3993C858.244 48.0668 858.611 47.8573 859.013 47.8352H869.274C869.676 47.8573 870.042 48.0668 870.262 48.3993L875.394 57.1735C875.575 57.5278 875.575 57.946 875.394 58.3003L871.4 65.1243H875.962C876.309 65.1031 876.625 64.9223 876.817 64.636L884.605 51.32C884.765 51.0118 884.766 50.647 884.609 50.3374ZM859.222 64.0901L855.701 58.0698C855.59 57.8474 855.59 57.587 855.701 57.3646L859.61 50.6816C859.75 50.4724 859.981 50.3404 860.234 50.3252H868.051C868.305 50.3404 868.536 50.4724 868.677 50.6816L872.586 57.3646C872.698 57.5893 872.698 57.8526 872.586 58.0773L868.677 64.7603C868.537 64.9649 868.311 65.0956 868.062 65.1152H861.034C860.302 65.0689 859.632 64.6904 859.222 64.0901Z" fill="url(#paint3_linear_0_1)"/>
    <path d="M520 42.5C520 63.763 502.315 81 480.5 81C458.685 81 441 63.763 441 42.5C441 21.237 458.685 4 480.5 4C502.315 4 520 21.237 520 42.5Z" fill="#EDF0F4"/>
    <path fill-rule="evenodd" clip-rule="evenodd" d="M461.744 27.7417H472.488C472.546 27.7407 472.602 27.7539 472.653 27.7802C472.701 27.8063 472.742 27.8438 472.771 27.8893L485.853 48.2751C485.924 48.3801 485.924 48.5165 485.853 48.6216L480.5 56.944C480.471 56.9894 480.43 57.027 480.382 57.0531C480.281 57.1067 480.16 57.1067 480.059 57.0531C480.011 57.027 479.97 56.9894 479.941 56.944L461.461 28.2358C461.429 28.1879 461.411 28.1325 461.409 28.0754C461.406 28.0173 461.42 27.9597 461.448 27.9086C461.478 27.8576 461.521 27.8154 461.573 27.7866C461.625 27.7567 461.684 27.7412 461.744 27.7417ZM484.266 27.7417H498.657C498.717 27.7412 498.777 27.7567 498.828 27.7866C498.873 27.818 498.91 27.8599 498.934 27.9086C498.962 27.9598 498.975 28.0173 498.973 28.0754C498.975 28.1313 498.961 28.1866 498.934 28.2358L491.745 39.4265C491.715 39.4719 491.674 39.5095 491.626 39.5356C491.526 39.5892 491.404 39.5892 491.304 39.5356C491.255 39.5095 491.215 39.4719 491.185 39.4265L483.989 28.2358C483.958 28.1879 483.939 28.1325 483.937 28.0754C483.934 28.0173 483.948 27.9597 483.976 27.9086C484.006 27.8576 484.049 27.8154 484.101 27.7866C484.151 27.7578 484.208 27.7423 484.266 27.7417Z" fill="#FF8836"/>
    <path d="M1010 45.5C1010 66.763 992.315 84 970.5 84C948.685 84 931 66.763 931 45.5C931 24.237 948.685 7 970.5 7C992.315 7 1010 24.237 1010 45.5Z" fill="#EDF0F4"/>
    <path fill-rule="evenodd" clip-rule="evenodd" d="M951.744 30.7417H962.488C962.546 30.7407 962.602 30.7539 962.653 30.7802C962.701 30.8063 962.742 30.8438 962.771 30.8893L975.853 51.2751C975.924 51.3801 975.924 51.5165 975.853 51.6216L970.5 59.944C970.471 59.9894 970.43 60.027 970.382 60.0531C970.281 60.1067 970.16 60.1067 970.059 60.0531C970.011 60.027 969.97 59.9894 969.941 59.944L951.461 31.2358C951.429 31.1879 951.411 31.1325 951.409 31.0754C951.406 31.0173 951.42 30.9597 951.448 30.9086C951.478 30.8576 951.521 30.8154 951.573 30.7866C951.625 30.7567 951.684 30.7412 951.744 30.7417ZM974.266 30.7417H988.657C988.717 30.7412 988.777 30.7567 988.828 30.7866C988.873 30.818 988.91 30.8599 988.934 30.9086C988.962 30.9598 988.975 31.0173 988.973 31.0754C988.975 31.1313 988.961 31.1866 988.934 31.2358L981.745 42.4265C981.715 42.4719 981.674 42.5095 981.626 42.5356C981.526 42.5892 981.404 42.5892 981.304 42.5356C981.255 42.5095 981.215 42.4719 981.185 42.4265L973.989 31.2358C973.958 31.1879 973.939 31.1325 973.937 31.0754C973.934 31.0173 973.948 30.9597 973.976 30.9086C974.006 30.8576 974.049 30.8154 974.101 30.7866C974.151 30.7578 974.208 30.7423 974.266 30.7417Z" fill="#FF8836"/>
    <g opacity="0.5">
        <path d="M128 39C128 60.5391 110.315 78 88.5 78C66.6848 78 49 60.5391 49 39C49 17.4609 66.6848 0 88.5 0C110.315 0 128 17.4609 128 39Z" fill="#EDF0F4"/>
        <path d="M102.349 19.5H73.989C70.0213 19.5 66.775 22.7942 66.775 26.8898V51.4631C66.775 53.5999 69.345 54.6238 70.7427 53.0212C72.456 51.0624 75.4318 51.1069 77.1 53.0657L79.3093 55.6031C80.2111 56.627 81.7891 56.627 82.6909 55.6031L84.9904 53.0212C86.7037 51.1069 89.6344 51.1069 91.3477 53.0212L93.6472 55.6476C94.5489 56.6715 96.127 56.6715 97.0287 55.6476L99.3282 53.0212C101.042 51.1069 103.972 51.1069 105.686 53.0212L105.731 53.0657C107.128 54.6683 109.698 53.6444 109.698 51.5076V26.8898C109.563 22.7942 106.362 19.5 102.349 19.5Z" fill="#88C6DE"/>
        <path d="M102.349 20.9691H73.989C70.0213 20.9691 66.775 24.2633 66.775 28.3588V52.9321C66.775 55.0689 69.345 56.0928 70.7427 54.4902C72.456 52.5315 75.4318 52.576 77.1 54.5347L79.3093 57.0722C80.2111 58.0961 81.7891 58.0961 82.6909 57.0722L84.9904 54.4902C86.7037 52.576 89.6344 52.576 91.3477 54.4902L93.6472 57.1167C94.5489 58.1406 96.127 58.1406 97.0287 57.1167L99.3282 54.4902C101.042 52.576 103.972 52.576 105.686 54.4902L105.731 54.5347C107.128 56.1373 109.698 55.1134 109.698 52.9766V28.3588C109.563 24.2633 106.362 20.9691 102.349 20.9691Z" fill="#6CA2CB"/>
        <path d="M84.4042 33.3447C84.4042 35.7296 82.4461 37.6629 80.0307 37.6629C77.6153 37.6629 75.6572 35.7296 75.6572 33.3447C75.6572 30.9599 77.6153 29.0266 80.0307 29.0266C82.4461 29.0266 84.4042 30.9599 84.4042 33.3447Z" fill="white"/>
        <path d="M100.726 33.3447C100.726 35.7296 98.7678 37.6629 96.3524 37.6629C93.937 37.6629 91.9789 35.7296 91.9789 33.3447C91.9789 30.9599 93.937 29.0266 96.3524 29.0266C98.7678 29.0266 100.726 30.9599 100.726 33.3447Z" fill="white"/>
        <path d="M99.8242 33.3447C99.8242 35.2378 98.2698 36.7725 96.3524 36.7725C94.435 36.7725 92.8807 35.2378 92.8807 33.3447C92.8807 31.4516 94.435 29.9169 96.3524 29.9169C98.2698 29.9169 99.8242 31.4516 99.8242 33.3447Z" fill="url(#paint4_linear_0_1)"/>
        <path d="M99.1028 33.3447C99.1028 34.8445 97.8714 36.0603 96.3524 36.0603C94.8335 36.0603 93.6021 34.8445 93.6021 33.3447C93.6021 31.845 94.8335 30.6292 96.3524 30.6292C97.8714 30.6292 99.1028 31.845 99.1028 33.3447Z" fill="url(#paint5_linear_0_1)"/>
        <path d="M98.0657 33.3447C98.0657 34.279 97.2987 35.0364 96.3524 35.0364C95.4062 35.0364 94.6391 34.279 94.6391 33.3447C94.6391 32.4105 95.4062 31.6531 96.3524 31.6531C97.2987 31.6531 98.0657 32.4105 98.0657 33.3447Z" fill="url(#paint6_linear_0_1)"/>
        <path d="M83.5025 33.3447C83.5025 35.2378 81.9481 36.7725 80.0307 36.7725C78.1133 36.7725 76.559 35.2378 76.559 33.3447C76.559 31.4516 78.1133 29.9169 80.0307 29.9169C81.9481 29.9169 83.5025 31.4516 83.5025 33.3447Z" fill="url(#paint7_linear_0_1)"/>
        <path d="M82.7811 33.3447C82.7811 34.8445 81.5497 36.0603 80.0307 36.0603C78.5118 36.0603 77.2804 34.8445 77.2804 33.3447C77.2804 31.845 78.5118 30.6292 80.0307 30.6292C81.5497 30.6292 82.7811 31.845 82.7811 33.3447Z" fill="url(#paint8_linear_0_1)"/>
        <path d="M81.7441 33.3447C81.7441 34.279 80.977 35.0364 80.0307 35.0364C79.0845 35.0364 78.3174 34.279 78.3174 33.3447C78.3174 32.4105 79.0845 31.6531 80.0307 31.6531C80.977 31.6531 81.7441 32.4105 81.7441 33.3447Z" fill="url(#paint9_linear_0_1)"/>
        <path d="M83.1869 31.0744C83.1869 31.6153 82.7428 32.0537 82.1949 32.0537C81.6471 32.0537 81.203 31.6153 81.203 31.0744C81.203 30.5335 81.6471 30.095 82.1949 30.095C82.7428 30.095 83.1869 30.5335 83.1869 31.0744Z" fill="white"/>
        <path d="M99.5086 31.0744C99.5086 31.6153 99.0645 32.0537 98.5166 32.0537C97.9688 32.0537 97.5247 31.6153 97.5247 31.0744C97.5247 30.5335 97.9688 30.095 98.5166 30.095C99.0645 30.095 99.5086 30.5335 99.5086 31.0744Z" fill="white"/>
    </g>
    <defs>
        <linearGradient id="paint0_linear_0_1" x1="539" y1="1" x2="539" y2="81" gradientUnits="userSpaceOnUse">
            <stop stop-color="#4FA89B"/>
            <stop offset="1" stop-color="#6ACEBB"/>
        </linearGradient>
        <linearGradient id="paint1_linear_0_1" x1="1029" y1="4" x2="1029" y2="84" gradientUnits="userSpaceOnUse">
            <stop stop-color="#4FA89B"/>
            <stop offset="1" stop-color="#6ACEBB"/>
        </linearGradient>
        <linearGradient id="paint2_linear_0_1" x1="395.638" y1="73.0768" x2="416.228" y2="26.2429" gradientUnits="userSpaceOnUse">
            <stop stop-color="#FFDC00"/>
            <stop offset="0.33" stop-color="#E58E2F"/>
            <stop offset="0.67" stop-color="#DB2D72"/>
            <stop offset="1" stop-color="#FF00FF"/>
        </linearGradient>
        <linearGradient id="paint3_linear_0_1" x1="885.638" y1="76.0768" x2="906.228" y2="29.2429" gradientUnits="userSpaceOnUse">
            <stop stop-color="#FFDC00"/>
            <stop offset="0.33" stop-color="#E58E2F"/>
            <stop offset="0.67" stop-color="#DB2D72"/>
            <stop offset="1" stop-color="#FF00FF"/>
        </linearGradient>
        <linearGradient id="paint4_linear_0_1" x1="48.8071" y1="77.9605" x2="127.727" y2="77.9605" gradientUnits="userSpaceOnUse">
            <stop stop-color="#1EAACC"/>
            <stop offset="1" stop-color="#0584B9"/>
        </linearGradient>
        <linearGradient id="paint5_linear_0_1" x1="48.6387" y1="78.0665" x2="127.773" y2="78.0665" gradientUnits="userSpaceOnUse">
            <stop stop-color="#1EAACC"/>
            <stop offset="1" stop-color="#0584B9"/>
        </linearGradient>
        <linearGradient id="paint6_linear_0_1" x1="48.1404" y1="78.3828" x2="127.916" y2="78.3828" gradientUnits="userSpaceOnUse">
            <stop stop-color="#1EAACC"/>
            <stop offset="1" stop-color="#0584B9"/>
        </linearGradient>
        <linearGradient id="paint7_linear_0_1" x1="48.9128" y1="77.9602" x2="127.832" y2="77.9602" gradientUnits="userSpaceOnUse">
            <stop stop-color="#1EAACC"/>
            <stop offset="1" stop-color="#0584B9"/>
        </linearGradient>
        <linearGradient id="paint8_linear_0_1" x1="48.7714" y1="78.0665" x2="127.906" y2="78.0665" gradientUnits="userSpaceOnUse">
            <stop stop-color="#1EAACC"/>
            <stop offset="1" stop-color="#0584B9"/>
        </linearGradient>
        <linearGradient id="paint9_linear_0_1" x1="48.3534" y1="78.3833" x2="128.13" y2="78.3833" gradientUnits="userSpaceOnUse">
            <stop stop-color="#1EAACC"/>
            <stop offset="1" stop-color="#0584B9"/>
        </linearGradient>
    </defs>
</svg>

