<svg width="339" height="360" viewBox="0 0 339 360" fill="none" xmlns="http://www.w3.org/2000/svg">
    <path d="M162.28 293C161.444 293 160.725 292.806 160.122 292.417C159.53 292.019 159.155 291.495 159 290.847L160.035 290.514C160.132 290.958 160.375 291.319 160.764 291.597C161.162 291.866 161.643 292 162.207 292C162.916 292 163.494 291.782 163.941 291.347C164.388 290.903 164.612 290.338 164.612 289.653C164.612 288.977 164.393 288.426 163.956 288C163.518 287.574 162.955 287.361 162.265 287.361C161.731 287.361 161.279 287.481 160.909 287.722C160.54 287.963 160.302 288.296 160.195 288.722L159.16 288.444V283.139H165.384V284.139H160.224V287.194C160.72 286.63 161.424 286.347 162.338 286.347C163.348 286.347 164.179 286.653 164.83 287.264C165.481 287.875 165.807 288.676 165.807 289.667C165.807 290.657 165.476 291.463 164.816 292.083C164.165 292.694 163.319 293 162.28 293Z" fill="#20F1C0"/>
    <path d="M170.486 293C169.65 293 168.931 292.806 168.329 292.417C167.736 292.019 167.362 291.495 167.206 290.847L168.241 290.514C168.338 290.958 168.581 291.319 168.97 291.597C169.368 291.866 169.849 292 170.413 292C171.122 292 171.7 291.782 172.147 291.347C172.594 290.903 172.818 290.338 172.818 289.653C172.818 288.977 172.599 288.426 172.162 288C171.725 287.574 171.161 287.361 170.471 287.361C169.937 287.361 169.485 287.481 169.116 287.722C168.746 287.963 168.508 288.296 168.401 288.722L167.367 288.444V283.139H173.59V284.139H168.431V287.194C168.926 286.63 169.631 286.347 170.544 286.347C171.555 286.347 172.385 286.653 173.036 287.264C173.687 287.875 174.013 288.676 174.013 289.667C174.013 290.657 173.683 291.463 173.022 292.083C172.371 292.694 171.525 293 170.486 293Z" fill="#20F1C0"/>
    <path d="M177.686 287.833C176.948 287.833 176.336 287.616 175.85 287.181C175.374 286.736 175.135 286.157 175.135 285.444C175.135 284.713 175.374 284.125 175.85 283.681C176.336 283.227 176.948 283 177.686 283C178.415 283 179.022 283.227 179.508 283.681C179.994 284.134 180.237 284.722 180.237 285.444C180.237 286.157 179.994 286.736 179.508 287.181C179.022 287.616 178.415 287.833 177.686 287.833ZM177.001 292.861L184.07 283.139H185.149L178.08 292.861H177.001ZM176.549 286.569C176.86 286.866 177.239 287.014 177.686 287.014C178.133 287.014 178.512 286.866 178.823 286.569C179.134 286.264 179.289 285.889 179.289 285.444C179.289 284.981 179.134 284.597 178.823 284.292C178.512 283.977 178.133 283.819 177.686 283.819C177.239 283.819 176.86 283.977 176.549 284.292C176.238 284.597 176.083 284.981 176.083 285.444C176.083 285.889 176.238 286.264 176.549 286.569ZM184.449 293C183.72 293 183.113 292.778 182.627 292.333C182.151 291.889 181.913 291.315 181.913 290.611C181.913 289.88 182.151 289.292 182.627 288.847C183.113 288.394 183.72 288.167 184.449 288.167C185.188 288.167 185.795 288.394 186.271 288.847C186.757 289.292 187 289.88 187 290.611C187 291.315 186.757 291.889 186.271 292.333C185.795 292.778 185.188 293 184.449 293ZM183.312 291.736C183.623 292.032 184.002 292.181 184.449 292.181C184.896 292.181 185.275 292.032 185.586 291.736C185.907 291.431 186.067 291.051 186.067 290.597C186.067 290.134 185.907 289.75 185.586 289.444C185.275 289.139 184.896 288.986 184.449 288.986C184.002 288.986 183.623 289.139 183.312 289.444C183.001 289.75 182.846 290.134 182.846 290.597C182.846 291.051 183.001 291.431 183.312 291.736Z" fill="#20F1C0"/>
    <path d="M114.126 234V216.5H119.801C122.618 216.5 124.809 217.267 126.376 218.8C127.943 220.333 128.726 222.475 128.726 225.225C128.726 227.975 127.943 230.125 126.376 231.675C124.809 233.225 122.618 234 119.801 234H114.126ZM116.176 232.1H119.651C121.851 232.1 123.551 231.492 124.751 230.275C125.951 229.058 126.551 227.375 126.551 225.225C126.551 223.075 125.951 221.4 124.751 220.2C123.551 219 121.851 218.4 119.651 218.4H116.176V232.1ZM141.291 232.525C140.107 233.675 138.624 234.25 136.841 234.25C135.057 234.25 133.574 233.683 132.391 232.55C131.207 231.4 130.616 229.908 130.616 228.075C130.616 226.192 131.199 224.675 132.366 223.525C133.549 222.358 135.041 221.775 136.841 221.775C138.624 221.775 140.107 222.358 141.291 223.525C142.474 224.675 143.066 226.192 143.066 228.075C143.066 229.892 142.474 231.375 141.291 232.525ZM136.841 232.45C138.024 232.45 139.016 232.05 139.816 231.25C140.616 230.433 141.016 229.367 141.016 228.05C141.016 226.7 140.616 225.625 139.816 224.825C139.032 224.008 138.041 223.6 136.841 223.6C135.641 223.6 134.641 224.008 133.841 224.825C133.057 225.625 132.666 226.7 132.666 228.05C132.666 229.367 133.057 230.433 133.841 231.25C134.641 232.05 135.641 232.45 136.841 232.45ZM161.67 222.025H163.745L159.495 234H157.295L153.845 224.525L150.42 234H148.195L143.97 222.025H146.045L149.445 231.85L152.895 222.025H154.82L158.27 231.85L161.67 222.025ZM171.395 221.775C172.795 221.775 173.92 222.175 174.77 222.975C175.62 223.775 176.045 224.9 176.045 226.35V234H174.045V226.8C174.045 225.75 173.761 224.958 173.195 224.425C172.628 223.875 171.861 223.6 170.895 223.6C169.945 223.6 169.178 223.933 168.595 224.6C168.011 225.25 167.72 226.142 167.72 227.275V234H165.72V222.025H167.72V223.65C168.52 222.4 169.745 221.775 171.395 221.775ZM179.355 234V216.5H181.355V234H179.355ZM194.588 232.525C193.405 233.675 191.922 234.25 190.138 234.25C188.355 234.25 186.872 233.683 185.688 232.55C184.505 231.4 183.913 229.908 183.913 228.075C183.913 226.192 184.497 224.675 185.663 223.525C186.847 222.358 188.338 221.775 190.138 221.775C191.922 221.775 193.405 222.358 194.588 223.525C195.772 224.675 196.363 226.192 196.363 228.075C196.363 229.892 195.772 231.375 194.588 232.525ZM190.138 232.45C191.322 232.45 192.313 232.05 193.113 231.25C193.913 230.433 194.313 229.367 194.313 228.05C194.313 226.7 193.913 225.625 193.113 224.825C192.33 224.008 191.338 223.6 190.138 223.6C188.938 223.6 187.938 224.008 187.138 224.825C186.355 225.625 185.963 226.7 185.963 228.05C185.963 229.367 186.355 230.433 187.138 231.25C187.938 232.05 188.938 232.45 190.138 232.45ZM209.087 232.525C209.22 232.525 209.362 232.508 209.512 232.475V234.175C209.262 234.225 208.979 234.25 208.662 234.25C208.045 234.25 207.529 234.1 207.112 233.8C206.695 233.483 206.445 233.042 206.362 232.475C205.495 233.658 204.162 234.25 202.362 234.25C201.095 234.25 200.062 233.933 199.262 233.3C198.479 232.667 198.087 231.792 198.087 230.675C198.087 229.575 198.47 228.733 199.237 228.15C200.004 227.567 200.962 227.217 202.112 227.1L206.337 226.625V226.4C206.337 225.45 206.054 224.717 205.487 224.2C204.92 223.683 204.187 223.425 203.287 223.425C202.554 223.425 201.929 223.617 201.412 224C200.912 224.367 200.579 224.867 200.412 225.5L198.637 225.1C198.904 224.017 199.47 223.192 200.337 222.625C201.204 222.058 202.22 221.775 203.387 221.775C204.904 221.775 206.104 222.175 206.987 222.975C207.887 223.758 208.337 224.883 208.337 226.35V231.8C208.337 232.283 208.587 232.525 209.087 232.525ZM203.012 232.65C204.029 232.583 204.837 232.242 205.437 231.625C206.037 230.992 206.337 230.133 206.337 229.05V228.2L202.437 228.65C200.87 228.817 200.087 229.483 200.087 230.65C200.087 231.333 200.37 231.85 200.937 232.2C201.52 232.55 202.212 232.7 203.012 232.65ZM221.167 216.5H223.167V234H221.167V231.95C220.217 233.483 218.75 234.25 216.767 234.25C215.1 234.25 213.709 233.675 212.592 232.525C211.475 231.358 210.917 229.858 210.917 228.025C210.917 226.192 211.467 224.692 212.567 223.525C213.684 222.358 215.084 221.775 216.767 221.775C218.75 221.775 220.217 222.542 221.167 224.075V216.5ZM214.142 231.25C214.942 232.067 215.934 232.475 217.117 232.475C218.3 232.475 219.267 232.067 220.017 231.25C220.784 230.417 221.167 229.342 221.167 228.025C221.167 226.708 220.784 225.633 220.017 224.8C219.267 223.967 218.3 223.55 217.117 223.55C215.934 223.55 214.942 223.967 214.142 224.8C213.359 225.617 212.967 226.692 212.967 228.025C212.967 229.358 213.359 230.433 214.142 231.25Z" fill="white"/>
    <path d="M226.898 345H103.102C87.0312 345 74 332.95 74 318.08V27.9196C74 13.05 87.0269 1 103.102 1H226.898C242.969 1 256 13.05 256 27.9196V318.084C255.996 332.946 242.969 345 226.898 345Z" stroke="white" stroke-width="2" stroke-miterlimit="10"/>
    <path d="M226.285 268.5H169.715C167.364 268.5 165.5 266.689 165.5 264.5C165.5 262.311 167.364 260.5 169.715 260.5H226.285C228.636 260.5 230.5 262.311 230.5 264.499C230.496 266.689 228.632 268.5 226.285 268.5Z" stroke="white"/>
    <path d="M168.209 270H110.787C108.142 270 106 267.539 106 264.5C106 261.461 108.142 259 110.787 259H168.213C170.858 259 173 261.461 173 264.5C172.996 267.539 170.854 270 168.209 270Z" fill="#20F1C0"/>
    <path d="M140.078 17.7173V20.0534C140.078 24.3158 143.728 27.7666 148.226 27.7666H192.922C197.425 27.7666 201.07 24.3117 201.07 20.0534C201.07 15.7911 204.72 12.3402 209.218 12.3402H232.185C240.367 12.3402 247 18.619 247 26.365V313.897C247 325 237.493 334 225.765 334H110.941C97.1654 334 86 323.43 86 310.389V26.365C86 17.328 93.7409 10 103.287 10H131.93C136.428 10 140.078 13.455 140.078 17.7173Z" stroke="white" stroke-miterlimit="10"/>
    <rect x="118.5" y="74.5" width="95" height="95" rx="18.5" stroke="#20F1C0" stroke-width="3" stroke-dasharray="4 8 12 16"/>
    <path fill-rule="evenodd" clip-rule="evenodd" d="M162.836 94C160.59 94 158.717 95.7568 158.52 98.0468C158.11 102.835 158.007 107.644 158.209 112.443C157.965 112.46 157.72 112.478 157.475 112.496L153.151 112.819C150.387 113.025 148.842 116.179 150.334 118.569C153.516 123.667 157.617 128.098 162.417 131.628L164.15 132.901C165.554 133.934 167.446 133.934 168.851 132.901L170.583 131.628C175.384 128.098 179.484 123.667 182.667 118.569C184.159 116.179 182.614 113.025 179.85 112.819L175.525 112.496C175.281 112.478 175.036 112.46 174.791 112.443C174.994 107.644 174.89 102.835 174.48 98.0467C174.284 95.7568 172.41 94 170.164 94H162.836ZM162.672 114.398C162.342 109.087 162.404 103.759 162.857 98.4571H170.144C170.597 103.759 170.658 109.087 170.328 114.398C170.291 114.993 170.489 115.579 170.877 116.024C171.265 116.469 171.812 116.736 172.394 116.765C173.333 116.813 174.271 116.871 175.209 116.941L178.349 117.176C175.564 121.375 172.075 125.043 168.043 128.008L166.5 129.142L164.958 128.008C160.925 125.043 157.437 121.375 154.651 117.176L157.792 116.941C158.729 116.871 159.668 116.813 160.606 116.765C161.189 116.736 161.735 116.469 162.123 116.024C162.512 115.579 162.709 114.993 162.672 114.398Z" fill="white"/>
    <path d="M148.355 134.857C148.355 133.626 147.38 132.629 146.177 132.629C144.975 132.629 144 133.626 144 134.857V140.8C144 143.672 146.275 146 149.081 146H183.919C186.725 146 189 143.672 189 140.8V134.857C189 133.626 188.025 132.629 186.823 132.629C185.62 132.629 184.645 133.626 184.645 134.857V140.8C184.645 141.21 184.32 141.543 183.919 141.543H149.081C148.68 141.543 148.355 141.21 148.355 140.8V134.857Z" fill="white"/>
    <path d="M226.5 55L228.754 58.3974L232.682 59.4914L230.147 62.6851L230.321 66.7586L226.5 65.335L222.679 66.7586L222.853 62.6851L220.318 59.4914L224.246 58.3974L226.5 55Z" fill="white"/>
    <path d="M284.688 300.784L299.641 303.809L299.824 303.846L299.986 303.754L313.273 296.256L315.017 311.413L315.039 311.598L315.176 311.724L326.413 322.044L312.537 328.386L312.367 328.463L312.29 328.633L305.948 342.509L295.628 331.272L295.502 331.135L295.317 331.113L280.16 329.369L287.658 316.082L287.75 315.92L287.713 315.737L284.688 300.784Z" stroke="white"/>
    <path d="M313.282 259.37L318.623 255.572L318.775 255.464L318.819 255.283L320.372 248.915L325.635 252.821L325.784 252.932L325.97 252.918L332.506 252.427L330.418 258.64L330.358 258.816L330.429 258.989L332.915 265.053L326.362 264.987L326.175 264.985L326.033 265.105L321.034 269.344L319.072 263.09L319.016 262.913L318.858 262.815L313.282 259.37Z" stroke="white"/>
    <path d="M278.11 265.731L280.743 263.859L280.895 263.751L280.939 263.57L281.704 260.431L284.299 262.356L284.448 262.467L284.634 262.453L287.856 262.211L286.827 265.274L286.767 265.451L286.838 265.623L288.064 268.612L284.833 268.58L284.647 268.578L284.505 268.698L282.04 270.788L281.073 267.705L281.017 267.527L280.859 267.429L278.11 265.731Z" stroke="white"/>
    <path d="M30.1635 322.164L40.3142 324.217L40.4968 324.254L40.6591 324.162L49.6785 319.073L50.8623 329.361L50.8836 329.546L51.0208 329.672L58.6485 336.677L49.2294 340.983L49.06 341.06L48.9825 341.229L44.6773 350.648L37.6722 343.021L37.5462 342.884L37.3611 342.862L27.0727 341.678L32.1623 332.659L32.2539 332.497L32.2169 332.314L30.1635 322.164Z" stroke="white"/>
    <path d="M0.904376 282.624L5.82918 279.356L5.98442 279.253L6.03441 279.074L7.6202 273.38L12.2497 277.054L12.3956 277.17L12.5818 277.162L18.4866 276.911L16.423 282.449L16.358 282.624L16.423 282.798L18.4866 288.337L12.5818 288.085L12.3956 288.077L12.2497 288.193L7.6202 291.867L6.03441 286.174L5.98442 285.994L5.82918 285.891L0.904376 282.624Z" stroke="white"/>
    <path d="M101.5 108L103.061 110.352L105.78 111.109L104.025 113.32L104.145 116.141L101.5 115.155L98.855 116.141L98.9749 113.32L97.2202 111.109L99.9394 110.352L101.5 108Z" fill="white"/>
    <circle cx="111" cy="76" r="2.5" stroke="white"/>
    <circle cx="226" cy="172" r="2.5" stroke="white"/>
    <circle cx="192" cy="62" r="2.5" stroke="white"/>
    <circle cx="136" cy="48" r="1.5" stroke="white"/>
    <circle cx="111" cy="174" r="1.5" stroke="white"/>
    <circle cx="170.5" cy="184.5" r="1.5" fill="white"/>
    <circle cx="230.5" cy="106.5" r="1.5" fill="white"/>
</svg>
