<svg width="340" height="320" viewBox="0 0 340 320" fill="none" xmlns="http://www.w3.org/2000/svg">
    <path d="M298.764 49.9991L190.279 3.46308C184.992 1.19553 179.008 1.19552 173.721 3.46307L65.2356 49.999C56.7357 53.6451 51.622 62.423 52.6424 71.6154L68.6897 216.171C69.2879 221.56 71.9469 226.508 76.1104 229.981L168.549 307.083C176.339 313.581 187.661 313.581 195.451 307.083L287.89 229.981C292.053 226.508 294.712 221.56 295.31 216.171L311.358 71.6154C312.378 62.423 307.264 53.6452 298.764 49.9991Z" stroke="#20F1C0" stroke-width="2" stroke-linecap="round"/>
    <path d="M337.712 234.789L331.788 232.25C331.285 232.034 330.715 232.034 330.212 232.25L324.288 234.789C323.478 235.136 322.991 235.972 323.088 236.848L323.962 244.71C324.019 245.224 324.272 245.695 324.669 246.026L329.72 250.235C330.461 250.853 331.539 250.853 332.28 250.235L337.331 246.026C337.728 245.695 337.981 245.224 338.038 244.71L338.912 236.848C339.009 235.972 338.522 235.136 337.712 234.789Z" stroke="white" stroke-width="2" stroke-linecap="round"/>
    <path fill-rule="evenodd" clip-rule="evenodd" d="M202.948 132.915C203.844 126.925 199.284 123.706 193.049 121.558L195.071 113.445L190.133 112.214L188.164 120.114C186.865 119.79 185.532 119.485 184.207 119.182L186.19 111.231L181.255 110L179.231 118.11C178.156 117.866 177.101 117.624 176.077 117.369L176.083 117.344L169.272 115.643L167.958 120.918C167.958 120.918 171.623 121.758 171.545 121.81C173.545 122.309 173.907 123.633 173.847 124.682L171.543 133.925C171.68 133.96 171.859 134.01 172.056 134.089L171.913 134.054C171.791 134.023 171.664 133.991 171.534 133.96L168.305 146.908C168.06 147.516 167.44 148.428 166.042 148.081C166.091 148.153 162.452 147.186 162.452 147.186L160 152.839L166.427 154.441C167.131 154.617 167.826 154.799 168.515 154.978L168.515 154.978C168.996 155.104 169.474 155.228 169.948 155.349L167.904 163.556L172.837 164.786L174.861 156.667C176.209 157.033 177.517 157.371 178.797 157.689L176.78 165.769L181.719 167L183.762 158.809C192.184 160.403 198.516 159.76 201.182 152.143C203.329 146.01 201.075 142.473 196.644 140.166C199.871 139.422 202.302 137.3 202.95 132.915L202.948 132.914L202.948 132.915ZM191.664 148.738C190.264 154.364 181.457 152.038 177.427 150.974C177.065 150.878 176.741 150.792 176.465 150.724L179.177 139.852C179.513 139.936 179.925 140.028 180.391 140.133L180.391 140.133C184.559 141.068 193.099 142.985 191.665 148.738H191.664ZM181.227 135.087C184.587 135.984 191.916 137.94 193.192 132.826H193.192C194.496 127.595 187.373 126.018 183.895 125.248C183.503 125.162 183.158 125.085 182.876 125.015L180.418 134.875C180.65 134.933 180.922 135.006 181.227 135.087Z" fill="white"/>
    <path d="M182 1L182 18" stroke="white" stroke-width="2"/>
    <path d="M182 295L182 312" stroke="white" stroke-width="2"/>
    <path d="M280 219L292 227" stroke="white" stroke-width="2"/>
    <path d="M72 226L84 219" stroke="white" stroke-width="2"/>
    <path d="M54 63L67 71" stroke="white" stroke-width="2"/>
    <path d="M295 71L310 63" stroke="white" stroke-width="2"/>
    <path d="M285.751 60.3547L190.269 19.4541C184.988 17.1922 179.012 17.1922 173.731 19.4541L78.2485 60.3547C69.742 63.9985 64.6234 72.7811 65.6459 81.9785L79.8306 209.577C80.4301 214.97 83.0933 219.921 87.2622 223.393L168.56 291.107C176.346 297.593 187.654 297.593 195.44 291.107L276.738 223.393C280.907 219.921 283.57 214.97 284.169 209.577L298.354 81.9784C299.377 72.7811 294.258 63.9985 285.751 60.3547Z" stroke="white" stroke-width="2" stroke-linecap="round"/>
    <path d="M308.974 273.798L292.855 266.918C291.351 266.276 289.649 266.276 288.145 266.918L272.026 273.798C269.591 274.837 268.125 277.35 268.418 279.981L270.854 301.812C271.026 303.355 271.79 304.772 272.985 305.764L286.668 317.119C288.89 318.963 292.11 318.963 294.332 317.119L308.015 305.764C309.21 304.772 309.974 303.355 310.146 301.812L312.582 279.981C312.875 277.35 311.409 274.837 308.974 273.798Z" stroke="white" stroke-width="2" stroke-linecap="round"/>
    <path d="M26.9845 235.62L18.3635 231.925C16.8542 231.278 15.1458 231.278 13.6365 231.925L5.01554 235.62C2.58579 236.661 1.12382 239.17 1.41575 241.797L2.78385 254.11C2.95499 255.65 3.71548 257.065 4.90604 258.057L12.1589 264.101C14.384 265.955 17.616 265.955 19.8411 264.101L27.094 258.057C28.2845 257.065 29.045 255.65 29.2162 254.11L30.5843 241.797C30.8762 239.17 29.4142 236.661 26.9845 235.62Z" stroke="white" stroke-width="2" stroke-linecap="round"/>
    <path d="M81.9652 270.917L67.8484 264.912C66.3479 264.274 64.6521 264.274 63.1516 264.912L49.0348 270.917C46.5949 271.954 45.1255 274.471 45.4205 277.105L47.5671 296.279C47.7401 297.825 48.507 299.244 49.7059 300.235L61.6761 310.135C63.8951 311.97 67.1049 311.97 69.3239 310.135L81.2941 300.235C82.493 299.244 83.2599 297.825 83.4329 296.279L85.5795 277.105C85.8745 274.471 84.4051 271.954 81.9652 270.917Z" stroke="white" stroke-width="2" stroke-linecap="round"/>
    <circle cx="182.5" cy="142.5" r="65.5" stroke="white" stroke-width="2"/>
    <circle cx="182" cy="143" r="51" stroke="white" stroke-width="2"/>
    <path d="M183.5 77V92M183.5 193.5V208.5M117.5 145.5H131M233.5 145.5H247M122.5 117L136 120M230 124.5L242.5 120M126 174L137.5 167.5M226.5 167.5L240 172.5M146 88L152 94M219.5 89L213.5 95M146 197L152 191M218.5 197.5L212 191" stroke="white" stroke-width="2" stroke-linecap="round"/>
</svg>

