<svg width="494" height="282" viewBox="0 0 494 282" fill="none" xmlns="http://www.w3.org/2000/svg">
    <circle cx="251" cy="142" r="136" fill="#EDF0F4" fill-opacity="0.24"/>
    <path d="M227.069 122.377C225.374 118.252 223.265 116.421 218.923 117.16C217.177 117.455 215.329 117.357 213.555 117.172C211.463 116.952 210.5 117.923 209.808 119.783C208.459 123.434 207.138 127.183 205.454 130.608C200.302 141.081 196.084 151.953 191.317 162.582C189.163 167.383 189.293 167.082 194.429 167.521C200.591 168.047 205.562 167.417 206.634 159.827C206.866 158.175 208.005 157.626 209.706 157.666C214.706 157.776 219.717 157.822 224.711 157.637C227.177 157.545 228.407 158.411 229.274 160.791C231.712 167.481 231.814 167.446 238.928 167.44C240.436 167.44 241.961 167.331 243.457 167.463C245.951 167.689 246.325 166.961 245.294 164.61C239.109 150.578 232.885 136.564 227.069 122.377ZM222.092 147.182C219.178 147.164 216.265 147.199 213.357 147.182C212.62 147.176 211.548 147.182 212.019 146.015C213.872 141.411 215.165 136.558 217.795 131.585C219.779 136.628 221.491 141.058 223.271 145.46C223.815 146.812 223.345 147.187 222.092 147.182Z" fill="white"/>
    <path d="M311.945 119.983C311.945 118.52 311.425 118.034 310.013 118.073C307.1 118.157 304.172 118.252 301.27 118.051C298.977 117.889 298.533 118.877 298.56 120.949C298.654 128.011 298.593 135.073 298.599 142.135C298.599 149.477 298.643 156.818 298.571 164.16C298.555 165.913 299.004 166.7 300.86 166.622C303.86 166.499 306.876 166.538 309.876 166.611C311.343 166.65 312.005 166.231 312 164.584C311.94 149.723 311.929 134.85 311.945 119.983Z" fill="white"/>
    <path d="M292.132 130.625C292.427 130.362 292.325 130.105 292.109 129.853C292.16 129.355 292.08 128.919 291.563 128.69C291.546 127.907 291.427 127.18 290.495 126.945C290.58 126.409 290.319 126.04 289.864 125.76C288.562 123.115 286.119 121.902 283.516 120.895C281.833 119.151 279.509 118.921 277.338 118.642C268.483 117.518 259.572 118.345 250.694 118.099C249.285 118.06 248.927 118.681 248.932 119.939C248.961 134.835 248.966 149.726 248.938 164.622C248.932 166.031 249.364 166.641 250.876 166.613C254.184 166.54 257.503 166.512 260.811 166.624C262.641 166.685 263.067 165.869 263.016 164.275C262.936 161.67 263.129 159.053 262.953 156.458C262.805 154.294 263.664 153.707 265.727 153.83C268.273 153.981 270.847 154.032 273.388 153.819C278.082 153.428 282.822 152.98 286.442 149.43C286.437 149.43 286.437 149.43 286.431 149.43C286.624 149.245 286.823 149.061 287.017 148.882C287.017 148.893 287.017 148.898 287.017 148.904C288.147 148.798 288.75 148.048 289.216 147.143L289.278 146.936C290.466 146.276 291.057 145.258 291.131 143.933L291.023 143.939C291.484 143.939 291.575 143.648 291.575 143.284C292.262 142.837 292.359 142.166 292.308 141.433L292.137 141.35C293.848 137.76 293.768 134.192 292.132 130.625ZM273.786 144.134C273.916 144.05 274.058 143.978 274.212 143.916C274.058 143.978 273.911 144.045 273.786 144.134ZM278.406 131.698C278.418 131.765 278.429 131.838 278.429 131.911C278.423 131.838 278.418 131.765 278.406 131.698ZM264.84 143.145C263.499 143.167 262.976 142.636 263.01 141.338C263.107 137.173 262.754 133.001 263.215 128.841L263.135 128.83C263.135 128.83 263.135 128.83 263.141 128.83C267.091 129.026 271.069 128.601 274.996 129.339C275.047 129.685 275.292 129.775 275.621 129.747C275.411 129.596 275.195 129.445 274.985 129.3C275.195 129.451 275.411 129.602 275.621 129.752C275.707 129.903 275.826 129.943 275.985 129.864C276.235 130.043 276.485 130.228 276.735 130.407C276.929 130.871 277.264 131.106 277.764 131.072C277.736 131.559 277.997 131.877 278.429 132.095C279.509 134.869 279.213 137.62 278.298 140.365C278.293 140.332 278.293 140.298 278.287 140.265C277.218 140.377 276.923 141.204 276.627 142.026L276.536 141.937C272.751 143.458 268.779 143.072 264.84 143.145ZM274.684 143.748C275.496 143.491 276.366 143.284 276.508 142.261C276.366 143.284 275.496 143.497 274.684 143.748Z" fill="white"/>
    <circle cx="429" cy="33" r="26" stroke="#20F1C0" stroke-width="2"/>
    <circle cx="27" cy="27" r="26" transform="matrix(-1 0 0 1 94 0)" stroke="#20F1C0" stroke-width="2"/>
    <circle cx="429" cy="251" r="26" stroke="#20F1C0" stroke-width="2"/>
    <circle cx="27" cy="27" r="26" transform="matrix(-1 0 0 1 94 228)" stroke="#20F1C0" stroke-width="2"/>
    <circle cx="467" cy="145" r="26" stroke="#20F1C0" stroke-width="2"/>
    <circle cx="27" cy="27" r="26" transform="matrix(-1 0 0 1 54 117)" stroke="#20F1C0" stroke-width="2"/>
    <circle cx="415.5" cy="94.5" r="14.5" fill="#20F1C0"/>
    <circle cx="84.5" cy="94.5" r="14.5" fill="#20F1C0"/>
    <circle cx="415.5" cy="182.5" r="14.5" fill="#20F1C0"/>
    <circle cx="84.5" cy="182.5" r="14.5" fill="#20F1C0"/>
    <path d="M221.5 90.5L198.005 31.3106C196.493 27.5011 192.809 25 188.71 25H108.5" stroke="#20F1C0" stroke-width="4" stroke-linecap="round" stroke-dasharray="1 10"/>
    <path d="M219 190L194.801 251.654C193.298 255.482 189.605 258 185.492 258H103" stroke="#20F1C0" stroke-width="4" stroke-linecap="round" stroke-dasharray="1 10"/>
    <path d="M288 88L309.2 34.3263C310.708 30.5085 314.396 28 318.501 28H391" stroke="#20F1C0" stroke-width="4" stroke-linecap="round" stroke-dasharray="1 10"/>
    <path d="M287 193L309.114 248.691C310.627 252.499 314.31 255 318.408 255H394" stroke="#20F1C0" stroke-width="4" stroke-linecap="round" stroke-dasharray="1 10"/>
    <path d="M69.5 143.5H177.5M324 143.5H432M110.5 98H197M309.5 97.5H385.5M110.5 183H177.5M324.5 183H391.5" stroke="#20F1C0" stroke-width="4" stroke-linecap="round" stroke-dasharray="1 10"/>
</svg>