<svg width="125" height="125" viewBox="0 0 125 125" fill="none" xmlns="http://www.w3.org/2000/svg">
<rect opacity="0.14" width="124.758" height="124.758" rx="30" fill="#00FAAF"/>
<mask id="path-2-inside-1_16_921" fill="white">
<path d="M11.7695 59.1456C12.4728 57.725 13.2145 56.3661 14.5157 55.3195C16.1674 53.9904 18.0583 53.4094 20.1072 53.3915C25.9177 53.3378 31.7282 53.3736 37.5386 53.3736C37.9034 53.3736 38.2662 53.3736 38.7303 53.3736C38.7303 52.7648 38.7303 52.2435 38.7303 51.7222C38.7303 48.107 38.7567 44.4899 38.7121 40.8747C38.6999 39.9157 39.2106 39.4242 40.0071 39.279C40.8401 39.1258 41.5008 39.5555 41.7622 40.3872C41.8879 40.7851 41.9588 41.2129 41.9608 41.6287C41.975 45.1445 41.9689 48.6621 41.9689 52.1779C41.9689 52.538 41.9689 52.8961 41.9689 53.3716C42.4026 53.3716 42.7614 53.3716 43.1201 53.3716C48.2212 53.3716 53.3223 53.3896 58.4235 53.3637C60.9264 53.3517 63.251 53.879 65.1135 55.5881C66.597 56.949 67.6549 58.6323 67.6934 60.6936C67.7583 64.0958 67.7117 67.4981 67.7117 71.181C68.1616 70.8567 68.346 70.7572 68.4899 70.6159C71.5279 67.6414 74.5699 64.6709 77.5816 61.6705C77.8471 61.4058 78.0315 60.9343 78.0335 60.5583C78.0558 48.4174 78.0477 36.2766 78.0639 24.1338C78.0639 23.4911 77.9139 22.944 77.2613 22.8644C76.852 22.8146 76.2885 23.0116 75.9825 23.2941C74.4362 24.7287 72.9547 26.2309 71.4468 27.7052C70.3261 28.7995 69.56 28.8074 68.4778 27.745C66.901 26.197 65.3222 24.6511 63.7475 23.1011C61.5547 20.9483 58.4822 20.9284 56.2914 23.0952C54.895 24.478 53.5351 25.8986 52.1833 27.3232C50.7586 28.8254 49.6399 28.9248 48.2557 27.4207C46.8978 25.9463 45.4264 24.5695 43.953 23.2046C43.6794 22.9499 43.1403 22.8047 42.7634 22.8624C42.1817 22.9479 41.9487 23.4016 41.9547 24.0323C41.9831 27.3152 41.973 30.6001 41.9628 33.885C41.9608 34.6431 41.8575 35.3892 41.0731 35.8031C39.8956 36.4258 38.7303 35.7533 38.7283 34.4421C38.7222 30.8269 38.7202 27.2098 38.7283 23.5946C38.7344 20.9483 41.5879 18.9686 44.1861 19.7008C45.7872 20.1525 46.8593 21.1771 47.8787 22.3729C48.5252 23.129 49.3217 23.7617 50.1709 24.5635C51.3261 23.4135 52.5238 22.2157 53.7277 21.0259C54.9133 19.856 56.2347 18.891 57.9188 18.5409C60.3914 18.0275 62.8011 18.1748 64.8115 19.8122C66.593 21.2627 68.2123 22.9081 70.014 24.5695C71.2888 23.3081 72.5797 22.0108 73.891 20.7374C75.184 19.484 76.7648 19.2273 78.3963 19.8162C80.0521 20.4111 81.2194 21.5313 81.2944 23.4195C81.3694 25.3295 81.4849 27.2396 81.489 29.1497C81.5092 38.2722 81.4991 47.3947 81.4991 56.5173C81.4991 56.8754 81.4991 57.2336 81.4991 57.92C83.0515 56.3681 84.3912 54.9972 85.7734 53.6681C86.3408 53.1229 86.961 52.6096 87.6257 52.1838C89.7862 50.805 92.2526 51.4138 94.1273 53.1528C95.6493 54.5654 97.1085 56.0418 98.5778 57.5081C99.3176 58.2463 99.3399 59.2232 98.6832 59.8758C98.0266 60.5284 97.0153 60.5205 96.2715 59.8082C94.9197 58.5089 93.5922 57.1838 92.2546 55.8706C90.7367 54.3824 89.699 54.3744 88.1729 55.8706C83.4873 60.4647 78.8077 65.0648 74.1261 69.6609C69.254 74.446 64.4143 79.2649 59.4854 83.9923C58.0891 85.3334 58.1093 87.124 59.453 88.4153C65.8289 94.5395 72.0954 100.769 78.4044 106.959C79.7015 108.23 80.7979 108.147 81.9936 106.967C91.75 97.315 101.561 87.713 111.354 78.097C112.452 77.0186 112.459 75.7094 111.366 74.637C107.951 71.2805 104.53 67.9339 101.127 64.5654C100.811 64.251 100.483 63.8511 100.39 63.4393C100.226 62.721 100.467 62.0744 101.217 61.7182C102.017 61.3382 102.682 61.5252 103.292 62.1281C105.888 64.6908 108.496 67.2435 111.101 69.8002C112.009 70.6915 112.868 71.6366 113.833 72.4643C115.902 74.2391 115.786 78.3855 113.843 80.2737C103.904 89.9354 94.0381 99.6688 84.1561 109.388C83.1063 110.421 81.874 111.141 80.425 111.251C78.8199 111.372 77.462 110.586 76.3554 109.506C69.7444 103.049 63.1436 96.5828 56.5812 90.0787C55.3531 88.863 54.7694 87.319 55.1261 85.4806C54.8322 85.4567 54.5424 85.4328 54.135 85.401C54.135 86.1431 54.135 86.8316 54.135 87.52C54.135 89.9752 54.133 92.4304 54.137 94.8837C54.1391 96.8116 53.1906 98.0691 51.3869 98.7874C49.7959 99.4201 47.9537 99.1236 46.7113 97.9258C45.4143 96.6763 44.1415 95.401 42.735 94.0142C41.4846 95.2816 40.2827 96.4814 39.0992 97.699C36.4077 100.471 32.2835 101.306 28.7145 99.3106C28.0862 98.9605 27.4863 98.5208 26.9675 98.0273C25.634 96.7599 24.3511 95.4388 22.9263 94.0182C21.8157 95.1284 20.6747 96.1153 19.7181 97.2494C17.3854 100.019 13.5388 99.6469 11.7695 96.5669C11.7695 84.0938 11.7695 71.6187 11.7695 59.1456ZM52.7143 56.5591C52.155 56.5591 51.7841 56.5591 51.4132 56.5591C41.4501 56.5591 31.487 56.5531 21.5219 56.567C20.624 56.569 19.7202 56.6386 18.8325 56.768C16.7166 57.0764 14.8116 59.2729 14.8095 61.376C14.8035 72.4205 14.8095 83.4631 14.8014 94.5076C14.8014 95.0627 14.8237 95.5283 15.4702 95.781C16.1127 96.0317 16.5221 95.787 16.9436 95.3672C18.3197 93.9983 19.7728 92.699 21.0821 91.2725C22.5352 89.6867 23.6681 89.9195 25.0766 91.4217C26.398 92.8304 27.7255 94.237 29.1239 95.5681C30.0562 96.4535 31.1242 97.1101 32.5307 97.1877C34.2554 97.2832 35.5667 96.5649 36.7036 95.4487C38.1547 94.0261 39.5288 92.5279 40.9637 91.0874C42.2121 89.8339 43.1302 89.8419 44.3685 91.0576C45.7527 92.4185 47.1349 93.7814 48.5232 95.1383C48.9832 95.586 49.3723 96.1073 50.2053 95.789C51.0444 95.4666 50.8863 94.8339 50.8863 94.2291C50.8903 83.8809 50.8964 73.5347 50.8842 63.1866C50.8842 60.8666 51.2409 58.6522 52.7143 56.5591ZM54.135 82.1161C55.7847 82.5021 56.9703 82.13 58.0728 80.9163C59.8685 78.9386 61.8506 77.1241 63.786 75.2717C64.2785 74.8002 64.4994 74.3326 64.4933 73.6402C64.4568 69.7922 64.4143 65.9442 64.5014 62.0982C64.544 60.226 63.9218 58.7437 62.4302 57.6534C60.1117 55.9582 57.5236 56.386 55.5598 58.3398C54.3742 59.5197 54.1918 61.0676 54.1533 62.5976C54.0864 65.2498 54.135 67.904 54.135 70.5582C54.135 74.4022 54.135 78.2462 54.135 82.1161Z"/>
</mask>
<path d="M11.7695 59.1456C12.4728 57.725 13.2145 56.3661 14.5157 55.3195C16.1674 53.9904 18.0583 53.4094 20.1072 53.3915C25.9177 53.3378 31.7282 53.3736 37.5386 53.3736C37.9034 53.3736 38.2662 53.3736 38.7303 53.3736C38.7303 52.7648 38.7303 52.2435 38.7303 51.7222C38.7303 48.107 38.7567 44.4899 38.7121 40.8747C38.6999 39.9157 39.2106 39.4242 40.0071 39.279C40.8401 39.1258 41.5008 39.5555 41.7622 40.3872C41.8879 40.7851 41.9588 41.2129 41.9608 41.6287C41.975 45.1445 41.9689 48.6621 41.9689 52.1779C41.9689 52.538 41.9689 52.8961 41.9689 53.3716C42.4026 53.3716 42.7614 53.3716 43.1201 53.3716C48.2212 53.3716 53.3223 53.3896 58.4235 53.3637C60.9264 53.3517 63.251 53.879 65.1135 55.5881C66.597 56.949 67.6549 58.6323 67.6934 60.6936C67.7583 64.0958 67.7117 67.4981 67.7117 71.181C68.1616 70.8567 68.346 70.7572 68.4899 70.6159C71.5279 67.6414 74.5699 64.6709 77.5816 61.6705C77.8471 61.4058 78.0315 60.9343 78.0335 60.5583C78.0558 48.4174 78.0477 36.2766 78.0639 24.1338C78.0639 23.4911 77.9139 22.944 77.2613 22.8644C76.852 22.8146 76.2885 23.0116 75.9825 23.2941C74.4362 24.7287 72.9547 26.2309 71.4468 27.7052C70.3261 28.7995 69.56 28.8074 68.4778 27.745C66.901 26.197 65.3222 24.6511 63.7475 23.1011C61.5547 20.9483 58.4822 20.9284 56.2914 23.0952C54.895 24.478 53.5351 25.8986 52.1833 27.3232C50.7586 28.8254 49.6399 28.9248 48.2557 27.4207C46.8978 25.9463 45.4264 24.5695 43.953 23.2046C43.6794 22.9499 43.1403 22.8047 42.7634 22.8624C42.1817 22.9479 41.9487 23.4016 41.9547 24.0323C41.9831 27.3152 41.973 30.6001 41.9628 33.885C41.9608 34.6431 41.8575 35.3892 41.0731 35.8031C39.8956 36.4258 38.7303 35.7533 38.7283 34.4421C38.7222 30.8269 38.7202 27.2098 38.7283 23.5946C38.7344 20.9483 41.5879 18.9686 44.1861 19.7008C45.7872 20.1525 46.8593 21.1771 47.8787 22.3729C48.5252 23.129 49.3217 23.7617 50.1709 24.5635C51.3261 23.4135 52.5238 22.2157 53.7277 21.0259C54.9133 19.856 56.2347 18.891 57.9188 18.5409C60.3914 18.0275 62.8011 18.1748 64.8115 19.8122C66.593 21.2627 68.2123 22.9081 70.014 24.5695C71.2888 23.3081 72.5797 22.0108 73.891 20.7374C75.184 19.484 76.7648 19.2273 78.3963 19.8162C80.0521 20.4111 81.2194 21.5313 81.2944 23.4195C81.3694 25.3295 81.4849 27.2396 81.489 29.1497C81.5092 38.2722 81.4991 47.3947 81.4991 56.5173C81.4991 56.8754 81.4991 57.2336 81.4991 57.92C83.0515 56.3681 84.3912 54.9972 85.7734 53.6681C86.3408 53.1229 86.961 52.6096 87.6257 52.1838C89.7862 50.805 92.2526 51.4138 94.1273 53.1528C95.6493 54.5654 97.1085 56.0418 98.5778 57.5081C99.3176 58.2463 99.3399 59.2232 98.6832 59.8758C98.0266 60.5284 97.0153 60.5205 96.2715 59.8082C94.9197 58.5089 93.5922 57.1838 92.2546 55.8706C90.7367 54.3824 89.699 54.3744 88.1729 55.8706C83.4873 60.4647 78.8077 65.0648 74.1261 69.6609C69.254 74.446 64.4143 79.2649 59.4854 83.9923C58.0891 85.3334 58.1093 87.124 59.453 88.4153C65.8289 94.5395 72.0954 100.769 78.4044 106.959C79.7015 108.23 80.7979 108.147 81.9936 106.967C91.75 97.315 101.561 87.713 111.354 78.097C112.452 77.0186 112.459 75.7094 111.366 74.637C107.951 71.2805 104.53 67.9339 101.127 64.5654C100.811 64.251 100.483 63.8511 100.39 63.4393C100.226 62.721 100.467 62.0744 101.217 61.7182C102.017 61.3382 102.682 61.5252 103.292 62.1281C105.888 64.6908 108.496 67.2435 111.101 69.8002C112.009 70.6915 112.868 71.6366 113.833 72.4643C115.902 74.2391 115.786 78.3855 113.843 80.2737C103.904 89.9354 94.0381 99.6688 84.1561 109.388C83.1063 110.421 81.874 111.141 80.425 111.251C78.8199 111.372 77.462 110.586 76.3554 109.506C69.7444 103.049 63.1436 96.5828 56.5812 90.0787C55.3531 88.863 54.7694 87.319 55.1261 85.4806C54.8322 85.4567 54.5424 85.4328 54.135 85.401C54.135 86.1431 54.135 86.8316 54.135 87.52C54.135 89.9752 54.133 92.4304 54.137 94.8837C54.1391 96.8116 53.1906 98.0691 51.3869 98.7874C49.7959 99.4201 47.9537 99.1236 46.7113 97.9258C45.4143 96.6763 44.1415 95.401 42.735 94.0142C41.4846 95.2816 40.2827 96.4814 39.0992 97.699C36.4077 100.471 32.2835 101.306 28.7145 99.3106C28.0862 98.9605 27.4863 98.5208 26.9675 98.0273C25.634 96.7599 24.3511 95.4388 22.9263 94.0182C21.8157 95.1284 20.6747 96.1153 19.7181 97.2494C17.3854 100.019 13.5388 99.6469 11.7695 96.5669C11.7695 84.0938 11.7695 71.6187 11.7695 59.1456ZM52.7143 56.5591C52.155 56.5591 51.7841 56.5591 51.4132 56.5591C41.4501 56.5591 31.487 56.5531 21.5219 56.567C20.624 56.569 19.7202 56.6386 18.8325 56.768C16.7166 57.0764 14.8116 59.2729 14.8095 61.376C14.8035 72.4205 14.8095 83.4631 14.8014 94.5076C14.8014 95.0627 14.8237 95.5283 15.4702 95.781C16.1127 96.0317 16.5221 95.787 16.9436 95.3672C18.3197 93.9983 19.7728 92.699 21.0821 91.2725C22.5352 89.6867 23.6681 89.9195 25.0766 91.4217C26.398 92.8304 27.7255 94.237 29.1239 95.5681C30.0562 96.4535 31.1242 97.1101 32.5307 97.1877C34.2554 97.2832 35.5667 96.5649 36.7036 95.4487C38.1547 94.0261 39.5288 92.5279 40.9637 91.0874C42.2121 89.8339 43.1302 89.8419 44.3685 91.0576C45.7527 92.4185 47.1349 93.7814 48.5232 95.1383C48.9832 95.586 49.3723 96.1073 50.2053 95.789C51.0444 95.4666 50.8863 94.8339 50.8863 94.2291C50.8903 83.8809 50.8964 73.5347 50.8842 63.1866C50.8842 60.8666 51.2409 58.6522 52.7143 56.5591ZM54.135 82.1161C55.7847 82.5021 56.9703 82.13 58.0728 80.9163C59.8685 78.9386 61.8506 77.1241 63.786 75.2717C64.2785 74.8002 64.4994 74.3326 64.4933 73.6402C64.4568 69.7922 64.4143 65.9442 64.5014 62.0982C64.544 60.226 63.9218 58.7437 62.4302 57.6534C60.1117 55.9582 57.5236 56.386 55.5598 58.3398C54.3742 59.5197 54.1918 61.0676 54.1533 62.5976C54.0864 65.2498 54.135 67.904 54.135 70.5582C54.135 74.4022 54.135 78.2462 54.135 82.1161Z" fill="#00BAA4" stroke="#00BAA4" stroke-width="2" mask="url(#path-2-inside-1_16_921)"/>
<path d="M94.3555 81.8122L94.3555 81.8122C94.9173 84.1913 97.1228 85.9074 100.303 85.9157C102.063 85.7454 103.73 84.8264 104.781 82.8526L94.3555 81.8122ZM94.3555 81.8122C93.7251 79.1426 94.8542 76.7692 97.3277 75.4978M94.3555 81.8122L97.3277 75.4978M109.15 77.0357L109.15 77.0355C109.341 74.7154 107.97 71.9563 104.521 71.2695L109.15 77.0357ZM109.15 77.0357C108.984 79.0772 107.985 80.6309 106.058 81.5998M109.15 77.0357L106.058 81.5998M97.3277 75.4978C97.8029 75.254 98.3112 74.8062 98.554 74.2828C99.1356 73.0341 100.179 72.1919 101.32 71.7042C102.468 71.2132 103.673 71.1008 104.521 71.2695L97.3277 75.4978ZM106.058 81.5998C105.535 81.8622 105.051 82.3432 104.781 82.8523L106.058 81.5998ZM106.932 76.7151L106.932 76.715L100.286 76.6126L100.786 76.6207L100.286 76.6126C100.271 77.5392 100.578 78.3413 101.157 78.9306C101.731 79.5158 102.537 79.8546 103.462 79.9323C105.276 80.086 106.894 78.4856 106.932 76.7151ZM102.011 82.7256L102.649 82.1618L101.846 81.8793C100.043 81.2452 98.9094 80.0816 98.2569 78.3942L97.974 77.6628L97.4302 78.2279C96.7704 78.9136 96.4164 79.7074 96.417 80.5206C96.4177 81.3348 96.7739 82.1036 97.4123 82.736L97.4129 82.7366C98.0503 83.3658 98.8203 83.7163 99.6446 83.7172C100.466 83.7181 101.279 83.3723 102.011 82.7256Z" fill="#00BAA4" stroke="#00BAA4"/>
<path d="M62.7473 86.5257L62.7409 86.5761C62.6327 87.4304 63.0164 88.1695 63.7494 88.8854L63.7498 88.8859C64.292 89.4167 64.8315 89.948 65.3704 90.4786C66.3565 91.4495 67.3407 92.4186 68.3358 93.3801L68.3361 93.3804C69.5697 94.5743 71.5223 94.5792 72.7608 93.3857L72.761 93.3855C74.3497 91.8556 75.9241 90.3119 77.4822 88.7525L62.7473 86.5257ZM62.7473 86.5257L62.7434 86.4749M62.7473 86.5257L62.7434 86.4749M62.7434 86.4749C62.6716 85.5422 63.0755 84.8368 63.7294 84.1746L63.7297 84.1744M62.7434 86.4749L63.7297 84.1744M63.7297 84.1744C64.3559 83.5395 64.9963 82.9169 65.6411 82.29C65.6928 82.2398 65.7446 82.1895 65.7963 82.1391C66.492 81.4626 67.1913 80.7801 67.8727 80.0791L67.8729 80.0789M63.7297 84.1744L67.8729 80.0789M67.8729 80.0789C69.1512 78.7622 71.4276 78.5648 72.7751 79.7272L72.7753 79.7274M67.8729 80.0789L72.7753 79.7274M72.7753 79.7274C74.589 81.29 76.2617 83.0475 77.8368 84.8687L77.8369 84.8688M72.7753 79.7274L77.8369 84.8688M77.8369 84.8688C78.7514 85.9254 78.5596 87.6736 77.4823 88.7524L77.8369 84.8688ZM64.9835 86.3752L65.1697 86.1218C65.2242 86.0476 65.2681 85.9819 65.3164 85.9099C65.342 85.8716 65.3689 85.8315 65.3992 85.7873C65.4786 85.6716 65.5742 85.5399 65.6965 85.4185C65.6965 85.4185 65.6965 85.4184 65.6966 85.4184L66.0489 85.7732C66.545 85.2796 67.0452 84.7897 67.5454 84.2998L64.9835 86.3752ZM64.9835 86.3752L65.1313 86.6528M64.9835 86.3752L65.1313 86.6528M65.1313 86.6528C65.1787 86.7419 65.2118 86.816 65.2497 86.9008M65.1313 86.6528L65.2497 86.9008M65.2497 86.9008C65.2728 86.9525 65.2977 87.0082 65.3286 87.0736M65.2497 86.9008L65.3286 87.0736M65.3286 87.0736C65.3984 87.2211 65.4958 87.4077 65.654 87.5664L65.3286 87.0736ZM70.5821 81.2239C70.0983 81.2121 69.6856 81.4692 69.3312 81.8284L65.6543 87.5668C66.4665 88.3827 67.291 89.1914 68.1131 89.9977C68.6047 90.48 69.0956 90.9614 69.5824 91.443C69.8627 91.7205 70.2049 91.9232 70.6122 91.899C71.0026 91.8758 71.3198 91.6499 71.5724 91.3973L71.5728 91.3969C72.8456 90.1216 74.1298 88.8569 75.4295 87.6127C75.7316 87.3239 75.9872 86.9678 75.9946 86.5306C76.0022 86.0873 75.7531 85.7225 75.4388 85.4231C74.2076 84.2482 72.9934 83.06 71.7998 81.8505C71.4594 81.5053 71.0585 81.2355 70.5821 81.2239Z" fill="#00BAA4" stroke="#00BAA4"/>
<path d="M89.5578 85.8354L89.5571 85.8361C85.407 89.9522 81.2479 94.0572 77.0508 98.1239C76.5582 98.6008 76.0914 98.6915 75.7699 98.6202C75.4514 98.5497 75.1759 98.3011 75.0737 97.877C75.0367 97.7219 75.0384 97.4814 75.0962 97.2314C75.1553 96.976 75.2538 96.7922 75.3381 96.708L75.3388 96.7073C79.5582 92.4775 83.8175 88.2841 88.135 84.1528L88.1357 84.1521C88.2076 84.083 88.4027 83.9936 88.7154 83.9563C89.0111 83.921 89.3138 83.9445 89.5179 84.0044C89.5416 84.0116 89.6286 84.0665 89.7911 84.3182C89.8463 84.4037 89.8985 84.4921 89.9562 84.5899C89.9754 84.6223 89.9951 84.6557 90.0158 84.6904C90.0437 84.7374 90.0732 84.7863 90.1041 84.8359C90.051 84.9455 90.0018 85.0525 89.957 85.1499C89.9208 85.2286 89.8875 85.301 89.8574 85.3634C89.7476 85.5909 89.6592 85.7353 89.5578 85.8354Z" fill="#00BAA4" stroke="#00BAA4"/>
<path d="M87.0623 94.082L87.062 94.0817C86.9194 93.9473 86.6203 93.8447 86.2331 93.8683C85.8538 93.8914 85.507 94.0303 85.3045 94.2284L87.0623 94.082ZM87.0623 94.082C87.1966 94.2084 87.3145 94.4867 87.3128 94.8482C87.3112 95.2022 87.1942 95.5219 87.006 95.7109L86.8809 95.8364C84.8198 97.9029 82.766 99.962 80.6262 101.925C80.5338 102.009 80.3222 102.105 80.0254 102.151C79.7365 102.196 79.4606 102.178 79.289 102.122C79.2427 102.107 79.1438 102.034 78.9696 101.768C78.9106 101.678 78.8542 101.584 78.7917 101.48C78.7692 101.443 78.7459 101.404 78.7214 101.364C78.6854 101.305 78.6474 101.243 78.6075 101.181M87.0623 94.082L78.6075 101.181M78.6075 101.181C78.657 101.086 78.7023 100.996 78.7433 100.915C78.7759 100.85 78.8058 100.791 78.8329 100.739C78.9348 100.543 79.0085 100.429 79.0888 100.348C80.8695 98.5675 82.6699 96.806 84.4727 95.0423C84.7499 94.7711 85.0272 94.4999 85.3044 94.2285L78.6075 101.181Z" fill="#00BAA4" stroke="#00BAA4"/>
<path d="M58.9033 42.5581L58.9038 42.5586C59.3022 42.8981 59.7335 43.1547 60.2269 43.1543C60.7274 43.1539 61.156 42.8904 61.5501 42.521L61.5503 42.5209C62.2275 41.8856 62.9506 41.924 63.3671 42.3518L63.3673 42.352C63.5084 42.4967 63.6062 42.7712 63.5808 43.1298C63.5558 43.4811 63.4154 43.8365 63.1863 44.0868C61.4811 45.9498 58.4758 45.9115 56.9539 43.7468L56.9538 43.7468C56.8861 43.6504 56.8197 43.4583 56.8015 43.2159C56.7835 42.9749 56.8198 42.7724 56.8713 42.6645C56.9184 42.5687 57.0333 42.4545 57.283 42.2896C57.3515 42.2443 57.4388 42.1904 57.5351 42.1309C57.6364 42.0683 57.7476 41.9996 57.8573 41.9284C57.9673 41.99 58.0717 42.0469 58.1678 42.0993C58.2463 42.142 58.3193 42.1818 58.3852 42.2186C58.6087 42.3434 58.7701 42.4443 58.9033 42.5581Z" fill="#00BAA4" stroke="#00BAA4"/>
<path d="M71.6746 43.9285L71.6746 43.9291C71.6966 44.3242 71.8933 44.5961 72.1584 44.7417C72.4302 44.891 72.809 44.9247 73.2066 44.7532C73.4598 44.6438 73.6059 44.521 73.6964 44.4047C73.7873 44.288 73.8439 44.1499 73.8767 43.9773C73.9106 43.7988 73.9169 43.5965 73.9131 43.3561C73.9121 43.292 73.9103 43.2228 73.9084 43.1506C73.9037 42.9741 73.8985 42.7793 73.9039 42.5962C73.904 42.4458 73.9063 42.3037 73.9086 42.1665C73.9133 41.8825 73.9176 41.619 73.9008 41.3439C73.8808 41.0342 73.7323 40.7256 73.5068 40.4937C73.2787 40.2591 73.0125 40.1426 72.7879 40.1432L72.7877 40.1432C72.4419 40.1439 72.1737 40.269 71.9886 40.4662C71.8011 40.6659 71.6693 40.9722 71.6652 41.3809L71.6746 43.9285ZM71.6746 43.9285C71.6378 43.2791 71.6475 42.6301 71.6576 41.9615M71.6746 43.9285L71.6576 41.9615M71.6576 41.9615C71.6605 41.7698 71.6634 41.5765 71.6652 41.3811L71.6576 41.9615Z" fill="#00BAA4" stroke="#00BAA4"/>
<path d="M47.4292 40.2098L47.4292 40.2098C47.0877 40.2675 46.8423 40.3752 46.6973 40.5161C46.5753 40.6346 46.4757 40.8223 46.5173 41.1859L47.4292 40.2098ZM47.4292 40.2098C47.7156 40.1615 47.9973 40.2084 48.1996 40.319M47.4292 40.2098L48.1996 40.319M47.4648 44.8401L47.4649 44.8401C47.5931 44.8462 47.8593 44.781 48.1249 44.6458C48.2498 44.5822 48.3476 44.5164 48.4091 44.4618C48.4226 44.4499 48.4325 44.4401 48.4396 44.4326C48.6275 43.2359 48.6561 41.9851 48.525 40.7798L47.4648 44.8401ZM47.4648 44.8401C47.1839 44.8269 46.9311 44.7543 46.7654 44.6306C46.6268 44.527 46.512 44.3636 46.5243 44.0372L46.5243 44.0367M47.4648 44.8401L46.5243 44.0367M46.5243 44.0367C46.5374 43.6789 46.5342 43.3149 46.5312 42.965C46.5299 42.817 46.5287 42.6716 46.5287 42.5302C46.5287 42.4262 46.532 42.3095 46.5356 42.1852M46.5243 44.0367L46.5356 42.1852M46.5356 42.1852C46.5446 41.8738 46.555 41.5144 46.5173 41.186L46.5356 42.1852ZM48.1996 40.319C48.3907 40.4234 48.5027 40.5757 48.525 40.7796L48.1996 40.319ZM48.4542 44.4158C48.455 44.4145 48.4555 44.4138 48.4555 44.4138C48.4555 44.4138 48.4551 44.4145 48.4542 44.4158Z" fill="#00BAA4" stroke="#00BAA4"/>
<path d="M20.1611 66.0154H20.161C19.5011 66.0171 19.1131 65.7541 18.981 65.3396C18.8914 65.056 18.8741 64.7866 18.9322 64.5653C18.9866 64.3588 19.1132 64.1642 19.3813 64.0117C19.5715 63.9043 19.8332 63.8356 20.0609 63.8339C28.5984 63.822 37.1359 63.822 45.6737 63.826H45.6739C46.3331 63.826 46.7267 64.2403 46.7407 64.7523C46.7524 65.1897 46.6384 65.4909 46.4739 65.6787C46.3145 65.8608 46.0586 65.9931 45.6632 66.0016C44.6502 66.0224 43.6407 66.0179 42.624 66.0133C42.1911 66.0114 41.757 66.0094 41.3207 66.0094L41.3203 66.0094C38.4906 66.0114 35.6568 66.0114 32.8229 66.0114H32.8188C31.6684 66.0114 30.5181 66.011 29.3677 66.0105C26.2993 66.0093 23.2305 66.0082 20.1611 66.0154Z" fill="#00BAA4" stroke="#00BAA4"/>
<path d="M20.1863 73.3731H20.1858C19.691 73.3731 19.4011 73.2559 19.2368 73.1079C19.0808 72.9674 18.9632 72.7312 18.9591 72.3182L18.9591 72.3182C18.955 71.915 19.0721 71.6509 19.2384 71.4866C19.406 71.321 19.6869 71.1945 20.1318 71.1937C28.6028 71.1857 37.0759 71.1857 45.5469 71.1937C46.0058 71.1945 46.2882 71.3264 46.4563 71.5015C46.6263 71.6785 46.7475 71.9705 46.7399 72.4262L46.7399 72.4267C46.7348 72.7459 46.6221 72.9609 46.4487 73.1047C46.2648 73.2572 45.9589 73.3731 45.501 73.3731L45.5005 73.3731C42.313 73.3761 39.1256 73.3757 35.937 73.3753C34.8725 73.3752 33.8079 73.3751 32.7431 73.3751C31.6956 73.3751 30.6482 73.3752 29.6008 73.3753C26.4631 73.3757 23.3253 73.3761 20.1863 73.3731Z" fill="#00BAA4" stroke="#00BAA4"/>
<path d="M26.7085 80.7388H26.7084C24.5483 80.7407 22.3862 80.7407 20.226 80.7388H20.2256C19.7542 80.7388 19.4432 80.6252 19.2572 80.4757C19.0834 80.336 18.9695 80.1266 18.9601 79.8074L18.9601 79.8073C18.9464 79.3454 19.0566 79.0745 19.2139 78.9086C19.3755 78.7381 19.6643 78.5964 20.1759 78.5579L20.1761 78.5579C20.4085 78.5403 20.6291 78.5444 20.8748 78.5489C20.9936 78.551 21.1183 78.5533 21.2531 78.5533C22.241 78.5533 23.2286 78.5531 24.2161 78.5528C27.1798 78.5521 30.1423 78.5513 33.1061 78.5573L33.1063 78.5573C33.6796 78.5582 34.0404 78.6939 34.2517 78.8756C34.4507 79.0468 34.5831 79.3157 34.5831 79.7445L34.5831 79.7457C34.5845 80.3124 34.1822 80.7301 33.5973 80.7328L33.597 80.7328C32.0662 80.7407 30.5375 80.7399 29.0074 80.739C28.2416 80.7385 27.4754 80.7381 26.7085 80.7388Z" fill="#00BAA4" stroke="#00BAA4"/>
</svg>
