<svg width="310" height="90" viewBox="0 0 310 90" fill="none" xmlns="http://www.w3.org/2000/svg">
    <path d="M307.858 7.48993C308.405 7.56834 308.911 7.18871 308.99 6.64202C309.068 6.09533 308.689 5.58859 308.142 5.51019L307.858 7.48993ZM0.827507 83.985C1.69527 84.137 2.55664 84.2845 3.41167 84.4277L3.74202 82.4552C2.89191 82.3128 2.03543 82.1661 1.17249 82.015L0.827507 83.985ZM8.46659 85.2349C10.1267 85.4868 11.762 85.7215 13.3732 85.9396L13.6414 83.9577C12.0411 83.7411 10.4163 83.5078 8.7666 83.2575L8.46659 85.2349ZM18.3608 86.5706C20.0834 86.7729 21.7773 86.9553 23.4434 87.1183L23.6382 85.1278C21.9853 84.9661 20.3042 84.7851 18.5942 84.5842L18.3608 86.5706ZM28.3589 87.5496C30.0883 87.6834 31.7866 87.7953 33.4547 87.8861L33.5633 85.889C31.9108 85.7991 30.2278 85.6882 28.5131 85.5555L28.3589 87.5496ZM38.4995 88.0991C40.1866 88.1492 41.8415 88.1766 43.4652 88.1819L43.4718 86.1819C41.866 86.1767 40.2288 86.1496 38.5589 86.1L38.4995 88.0991ZM48.5994 88.1234C50.2757 88.0789 51.9173 88.0098 53.5257 87.9168L53.4103 85.9202C51.8232 86.0119 50.2023 86.0802 48.5464 86.1241L48.5994 88.1234ZM58.6712 87.5287C60.3545 87.3711 61.9997 87.1861 63.6086 86.9747L63.3481 84.9918C61.7643 85.1998 60.1438 85.3821 58.4847 85.5374L58.6712 87.5287ZM68.6843 86.2013C70.3511 85.9112 71.9772 85.5914 73.5649 85.2433L73.1366 83.2897C71.5776 83.6315 69.98 83.9457 68.3413 84.231L68.6843 86.2013ZM78.5589 84.0235C80.206 83.5786 81.81 83.102 83.3741 82.5955L82.7579 80.6927C81.2253 81.1891 79.6529 81.6564 78.0375 82.0926L78.5589 84.0235ZM88.1758 80.9018C89.7794 80.2885 91.3398 79.6428 92.8607 78.967L92.0486 77.1393C90.5596 77.8009 89.0318 78.4332 87.4614 79.0337L88.1758 80.9018ZM97.4069 76.8024C98.9396 76.0229 100.432 75.2125 101.889 74.3743L100.891 72.6408C99.4634 73.4624 98.0012 74.2563 96.5002 75.0198L97.4069 76.8024ZM106.21 71.7447C107.637 70.8291 109.031 69.8874 110.397 68.923L109.244 67.2891C107.9 68.2376 106.531 69.1627 105.13 70.0615L106.21 71.7447ZM114.477 65.9184C115.817 64.8916 117.134 63.8446 118.432 62.781L117.164 61.2341C115.881 62.2853 114.582 63.3186 113.261 64.3308L114.477 65.9184ZM122.289 59.5323C123.56 58.4345 124.818 57.3232 126.068 56.2021L124.733 54.7131C123.49 55.8276 122.241 56.9305 120.981 58.0187L122.289 59.5323ZM129.79 52.8224C131.022 51.6921 132.252 50.5549 133.485 49.4151L132.127 47.9467C130.894 49.0867 129.667 50.2214 128.438 51.3486L129.79 52.8224ZM137.17 46.0139C138.393 44.8896 139.624 43.7656 140.868 42.6447L139.529 41.1589C138.279 42.2856 137.043 43.4142 135.816 44.5413L137.17 46.0139ZM144.614 39.3203C145.862 38.2319 147.127 37.1496 148.414 36.0761L147.133 34.5403C145.833 35.6244 144.557 36.7163 143.3 37.813L144.614 39.3203ZM152.28 32.9362C153.577 31.9117 154.9 30.8984 156.252 29.8986L155.063 28.2905C153.693 29.3036 152.354 30.3298 151.041 31.3664L152.28 32.9362ZM160.301 27.0115C161.652 26.0839 163.034 25.171 164.45 24.2753L163.381 22.585C161.943 23.4948 160.54 24.4215 159.169 25.3627L160.301 27.0115ZM168.739 21.6801C170.144 20.8683 171.583 20.0737 173.059 19.2981L172.129 17.5276C170.629 18.3159 169.166 19.1235 167.739 19.9485L168.739 21.6801ZM177.538 17.0619C179.005 16.3666 180.508 15.6901 182.051 15.0339L181.268 13.1935C179.701 13.8603 178.173 14.5479 176.681 15.2545L177.538 17.0619ZM186.68 13.1729C188.202 12.5957 189.76 12.0379 191.358 11.5009L190.721 9.60511C189.099 10.1503 187.516 10.7167 185.971 11.3029L186.68 13.1729ZM196.112 9.99999C197.672 9.53857 199.268 9.09629 200.901 8.67429L200.401 6.73789C198.745 7.16563 197.127 7.61408 195.545 8.08213L196.112 9.99999ZM205.771 7.50234C207.35 7.14956 208.963 6.81506 210.611 6.49973L210.235 4.53537C208.567 4.8545 206.934 5.19315 205.335 5.55045L205.771 7.50234ZM215.611 5.62008C217.192 5.36582 218.803 5.12852 220.447 4.90889L220.182 2.92651C218.521 3.14846 216.892 3.38834 215.294 3.64546L215.611 5.62008ZM225.474 4.30367C227.086 4.13037 228.728 3.97343 230.4 3.83344L230.233 1.84041C228.546 1.98169 226.888 2.14012 225.26 2.31512L225.474 4.30367ZM235.356 3.47426C237.037 3.37086 238.748 3.28396 240.489 3.21411L240.408 1.21571C238.654 1.28613 236.929 1.37375 235.233 1.47804L235.356 3.47426ZM245.341 3.06565C246.983 3.0307 248.651 3.0104 250.346 3.00515L250.34 1.00516C248.633 1.01045 246.953 1.03089 245.298 1.0661L245.341 3.06565ZM255.48 3.03455C257.076 3.05745 258.694 3.09324 260.336 3.14222L260.396 1.14311C258.744 1.09382 257.115 1.05781 255.509 1.03475L255.48 3.03455ZM265.332 3.32907C267.02 3.40476 268.733 3.49395 270.469 3.59697L270.587 1.60048C268.842 1.4969 267.12 1.4072 265.421 1.33108L265.332 3.32907ZM275.35 3.9185C276.976 4.03609 278.622 4.16543 280.29 4.30676L280.459 2.31391C278.783 2.17189 277.128 2.0419 275.494 1.92371L275.35 3.9185ZM285.355 4.76696C287.013 4.92753 288.691 5.09959 290.39 5.28337L290.605 3.29498C288.899 3.1104 287.214 2.93757 285.548 2.77627L285.355 4.76696ZM295.242 5.83388C296.878 6.02789 298.532 6.23247 300.205 6.44779L300.46 4.46416C298.781 4.248 297.12 4.04261 295.478 3.8478L295.242 5.83388ZM305.279 7.12619C306.134 7.2447 306.993 7.36594 307.858 7.48993L308.142 5.51019C307.274 5.38575 306.411 5.26407 305.553 5.14513L305.279 7.12619ZM307.716 8.4798C308.809 8.63661 309.823 7.87737 309.98 6.78399C310.137 5.69061 309.377 4.67713 308.284 4.52031L307.716 8.4798ZM0.655014 84.97C1.52519 85.1224 2.389 85.2704 3.2465 85.414L3.90719 81.4689C3.05955 81.327 2.20551 81.1807 1.34499 81.03L0.655014 84.97ZM8.31659 86.2236C9.98182 86.4762 11.6225 86.7118 13.2391 86.9306L13.7755 82.9667C12.1806 82.7509 10.5611 82.5184 8.9166 82.2689L8.31659 86.2236ZM18.2442 87.5637C19.973 87.7668 21.6734 87.9499 23.346 88.1136L23.7355 84.1326C22.0892 83.9715 20.4146 83.7912 18.7108 83.591L18.2442 87.5637ZM28.2817 88.5466C30.0186 88.681 31.7245 88.7934 33.4004 88.8846L33.6176 84.8905C31.973 84.801 30.2975 84.6906 28.5903 84.5585L28.2817 88.5466ZM38.4698 89.0986C40.1655 89.149 41.8292 89.1766 43.4619 89.1819L43.475 85.1819C41.8783 85.1767 40.2499 85.1498 38.5886 85.1004L38.4698 89.0986ZM48.6259 89.1231C50.3124 89.0783 51.9644 89.0088 53.5834 88.9152L53.3526 84.9218C51.7761 85.013 50.1656 85.0808 48.5198 85.1245L48.6259 89.1231ZM58.7644 88.5244C60.4598 88.3657 62.1174 88.1792 63.7389 87.9662L63.2179 84.0003C61.6466 84.2067 60.0385 84.3876 58.3915 84.5418L58.7644 88.5244ZM68.8558 87.1865C70.5367 86.8939 72.177 86.5713 73.779 86.2201L72.9224 82.3129C71.3778 82.6515 69.7944 82.963 68.1698 83.2458L68.8558 87.1865ZM78.8197 84.9889C80.4826 84.5398 82.1024 84.0584 83.6822 83.5468L82.4498 79.7414C80.9329 80.2326 79.3763 80.6952 77.7767 81.1272L78.8197 84.9889ZM88.533 81.8358C90.1533 81.2162 91.7299 80.5637 93.2667 79.8809L91.6426 76.2255C90.1695 76.88 88.658 77.5055 87.1042 78.0997L88.533 81.8358ZM97.8602 77.6938C99.4087 76.9062 100.916 76.0876 102.387 75.2411L100.393 71.774C98.9791 72.5873 97.532 73.373 96.0468 74.1284L97.8602 77.6938ZM106.75 72.5863C108.19 71.6623 109.597 70.7123 110.974 69.7399L108.667 66.4722C107.335 67.4127 105.977 68.3295 104.59 69.2199L106.75 72.5863ZM115.086 66.7122C116.435 65.6781 117.76 64.6243 119.066 63.5545L116.53 60.4606C115.255 61.5057 113.964 62.5321 112.653 63.537L115.086 66.7122ZM122.942 60.2892C124.219 59.1865 125.482 58.071 126.736 56.9466L124.065 53.9686C122.826 55.0798 121.582 56.1785 120.328 57.2619L122.942 60.2892ZM130.466 53.5593C131.7 52.4275 132.931 51.289 134.164 50.1493L131.448 47.2125C130.215 48.3526 128.989 49.486 127.762 50.6117L130.466 53.5593ZM137.846 46.7502C139.068 45.6273 140.297 44.5056 141.537 43.3876L138.86 40.416C137.606 41.5455 136.368 42.6765 135.14 43.805L137.846 46.7502ZM145.271 40.0739C146.515 38.9897 147.774 37.9122 149.055 36.8439L146.492 33.7724C145.186 34.8618 143.905 35.9585 142.642 37.0594L145.271 40.0739ZM152.899 33.7211C154.189 32.7027 155.504 31.6957 156.847 30.7027L154.469 27.4864C153.089 28.5062 151.742 29.5389 150.421 30.5814L152.899 33.7211ZM160.867 27.8359C162.208 26.9151 163.58 26.0092 164.985 25.1204L162.847 21.7398C161.397 22.6566 159.984 23.5903 158.603 24.5383L160.867 27.8359ZM169.24 22.5459C170.633 21.7407 172.06 20.9525 173.524 20.1834L171.664 16.6423C170.151 17.437 168.677 18.2511 167.238 19.0827L169.24 22.5459ZM177.966 17.9656C179.421 17.276 180.912 16.605 182.442 15.9541L180.877 12.2733C179.297 12.9454 177.756 13.6385 176.253 14.3509L177.966 17.9656ZM187.035 14.1079C188.544 13.5353 190.091 12.9818 191.677 12.4487L190.402 8.65724C188.768 9.20644 187.174 9.77711 185.616 10.3679L187.035 14.1079ZM196.396 10.9589C197.945 10.5008 199.529 10.0616 201.151 9.64249L200.15 5.76969C198.484 6.2003 196.855 6.65184 195.261 7.12321L196.396 10.9589ZM205.989 8.47828C207.558 8.12777 209.161 7.79534 210.799 7.4819L210.047 3.55319C208.369 3.87422 206.726 4.21494 205.117 4.5745L205.989 8.47828ZM215.77 6.60738C217.342 6.35456 218.945 6.11855 220.579 5.90007L220.049 1.93533C218.38 2.15844 216.742 2.3996 215.135 2.65816L215.77 6.60738ZM225.581 5.29794C227.185 5.1255 228.819 4.9693 230.484 4.82996L230.15 0.843898C228.455 0.98582 226.789 1.14499 225.153 1.32084L225.581 5.29794ZM235.417 4.47238C237.091 4.36942 238.795 4.28288 240.529 4.2133L240.368 0.216519C238.607 0.287215 236.875 0.375188 235.172 0.479923L235.417 4.47238ZM245.362 4.06542C246.998 4.03061 248.66 4.01038 250.349 4.00515L250.337 0.00516796C248.624 0.0104699 246.938 0.0309873 245.277 0.066326L245.362 4.06542ZM255.466 4.03444C257.056 4.05727 258.67 4.09294 260.306 4.14178L260.426 0.143555C258.769 0.0941178 257.135 0.0579845 255.523 0.0348548L255.466 4.03444ZM265.287 4.32807C266.971 4.40353 268.678 4.49248 270.41 4.59521L270.647 0.60223C268.896 0.498374 267.169 0.408424 265.466 0.332078L265.287 4.32807ZM275.277 4.91589C276.899 5.03318 278.542 5.1622 280.205 5.30319L280.543 1.31748C278.863 1.17512 277.205 1.04481 275.566 0.926311L275.277 4.91589ZM285.259 5.76231C286.913 5.9225 288.588 6.09418 290.282 6.27757L290.713 2.30078C289.003 2.11581 287.314 1.94259 285.644 1.78093L285.259 5.76231ZM295.125 6.82692C296.757 7.02053 298.408 7.2247 300.077 7.43961L300.588 3.47235C298.905 3.25577 297.241 3.04996 295.596 2.85476L295.125 6.82692ZM305.141 8.11673C305.995 8.23501 306.853 8.35603 307.716 8.4798L308.284 4.52031C307.415 4.39566 306.55 4.27376 305.69 4.1546L305.141 8.11673Z" fill="#20F1C0"/>
</svg>
