<svg width="1440" height="1317" viewBox="0 0 1440 1317" fill="none" xmlns="http://www.w3.org/2000/svg">
    <path d="M1404.97 1314H30.8244C13.8123 1314 0.0532227 1294.61 0.0532227 1270.72V43.7028C0.0532227 19.7746 13.8364 0.421875 30.8244 0.421875H1404.97C1421.99 0.421875 1435.75 19.8085 1435.75 43.7028V1270.69C1435.77 1294.61 1421.99 1314 1404.97 1314Z" fill="url(#paint0_linear_10_5506)"/>
    <path d="M1007.51 1317H1409.18C1426.22 1317 1440 1297.6 1440 1273.69V709.194L1007.51 1317Z" fill="url(#paint1_linear_10_5506)"/>
    <path d="M1406.5 1317H33.1613C14.8588 1317 0 1296.11 0 1270.46V46.9585C0 21.2738 14.8829 0.421875 33.1613 0.421875H1406.5C1424.81 0.421875 1439.66 21.3076 1439.66 46.9585V1270.43C1439.69 1296.11 1424.81 1317 1406.5 1317ZM33.1613 3.76765C16.2074 3.76765 2.40823 23.1326 2.40823 46.9247V1270.4C2.40823 1294.19 16.2074 1313.55 33.1613 1313.55H1406.5C1423.46 1313.55 1437.26 1294.19 1437.26 1270.4V46.9585C1437.26 23.1664 1423.46 3.80144 1406.5 3.80144H33.1613V3.76765Z" fill="url(#paint2_linear_10_5506)"/>
    <path d="M432.623 0H31.2528C14.2277 0 0.458008 14.8856 0.458008 33.2325V466.347L432.623 0Z" fill="url(#paint3_linear_10_5506)"/>
    <defs>
        <linearGradient id="paint0_linear_10_5506" x1="13.6186" y1="16.3575" x2="1655.51" y2="771.509" gradientUnits="userSpaceOnUse">
            <stop stop-color="#1C2938"/>
            <stop offset="0.9958" stop-color="#121A24"/>
        </linearGradient>
        <linearGradient id="paint1_linear_10_5506" x1="1233.34" y1="1029.4" x2="1681.88" y2="1416.43" gradientUnits="userSpaceOnUse">
            <stop stop-color="#121A24" stop-opacity="0"/>
            <stop offset="0.1382" stop-color="#0F344D" stop-opacity="0.1382"/>
            <stop offset="0.3664" stop-color="#095C8C" stop-opacity="0.3664"/>
            <stop offset="0.575" stop-color="#057BBE" stop-opacity="0.575"/>
            <stop offset="0.7567" stop-color="#0292E1" stop-opacity="0.7567"/>
            <stop offset="0.9046" stop-color="#01A0F7" stop-opacity="0.9046"/>
            <stop offset="1" stop-color="#00A5FF"/>
        </linearGradient>
        <linearGradient id="paint2_linear_10_5506" x1="12.0236" y1="18.3613" x2="1681.16" y2="785.101" gradientUnits="userSpaceOnUse">
            <stop stop-color="#2DD7A2"/>
            <stop offset="0.0391" stop-color="#28B188" stop-opacity="0.9217"/>
            <stop offset="0.087" stop-color="#22896E" stop-opacity="0.8256"/>
            <stop offset="0.1381" stop-color="#1D6657" stop-opacity="0.723"/>
            <stop offset="0.1922" stop-color="#194B44" stop-opacity="0.6144"/>
            <stop offset="0.2503" stop-color="#163536" stop-opacity="0.4979"/>
            <stop offset="0.3143" stop-color="#14262C" stop-opacity="0.3695"/>
            <stop offset="0.3888" stop-color="#121D26" stop-opacity="0.2202"/>
            <stop offset="0.4986" stop-color="#121A24" stop-opacity="0"/>
            <stop offset="0.5949" stop-color="#121C27" stop-opacity="0.1922"/>
            <stop offset="0.6654" stop-color="#112230" stop-opacity="0.3328"/>
            <stop offset="0.7277" stop-color="#102C40" stop-opacity="0.4569"/>
            <stop offset="0.7851" stop-color="#0E3A57" stop-opacity="0.5715"/>
            <stop offset="0.8394" stop-color="#0B4D74" stop-opacity="0.6797"/>
            <stop offset="0.8911" stop-color="#096398" stop-opacity="0.7829"/>
            <stop offset="0.941" stop-color="#057EC2" stop-opacity="0.8823"/>
            <stop offset="0.9881" stop-color="#019DF2" stop-opacity="0.9763"/>
            <stop offset="1" stop-color="#00A5FF"/>
        </linearGradient>
        <linearGradient id="paint3_linear_10_5506" x1="206.974" y1="220.679" x2="-138.595" y2="-167.62" gradientUnits="userSpaceOnUse">
            <stop stop-color="#121A24" stop-opacity="0"/>
            <stop offset="0.0434" stop-color="#14252C" stop-opacity="0.0434"/>
            <stop offset="0.2969" stop-color="#1D6455" stop-opacity="0.2969"/>
            <stop offset="0.5284" stop-color="#249676" stop-opacity="0.5284"/>
            <stop offset="0.73" stop-color="#29B98E" stop-opacity="0.73"/>
            <stop offset="0.894" stop-color="#2CCF9D" stop-opacity="0.894"/>
            <stop offset="1" stop-color="#2DD7A2"/>
        </linearGradient>
    </defs>
</svg>

