<svg width="74" height="63" viewBox="0 0 74 63" fill="none" xmlns="http://www.w3.org/2000/svg">
    <path d="M41.8062 32.3153C43.7803 30.6037 45.3636 28.4867 46.4488 26.108C47.534 23.7294 48.0957 21.1447 48.0957 18.5294C48.0957 13.6151 46.1467 8.90208 42.6776 5.42714C39.2085 1.9522 34.5034 0 29.5973 0C24.6913 0 19.9861 1.9522 16.517 5.42714C13.0479 8.90208 11.099 13.6151 11.099 18.5294C11.099 21.1447 11.6606 23.7294 12.7458 26.108C13.831 28.4867 15.4144 30.6037 17.3884 32.3153C12.2094 34.6644 7.81542 38.4579 4.7318 43.2423C1.64818 48.0266 0.00544537 53.5993 0 59.2941C0 60.277 0.389785 61.2196 1.08361 61.9146C1.77743 62.6096 2.71845 63 3.69967 63C4.68088 63 5.6219 62.6096 6.31573 61.9146C7.00955 61.2196 7.39933 60.277 7.39933 59.2941C7.39933 53.397 9.73804 47.7413 13.901 43.5714C18.0639 39.4015 23.7101 37.0588 29.5973 37.0588C35.4846 37.0588 41.1308 39.4015 45.2937 43.5714C49.4566 47.7413 51.7953 53.397 51.7953 59.2941C51.7953 60.277 52.1851 61.2196 52.8789 61.9146C53.5728 62.6096 54.5138 63 55.495 63C56.4762 63 57.4172 62.6096 58.1111 61.9146C58.8049 61.2196 59.1947 60.277 59.1947 59.2941C59.1892 53.5993 57.5465 48.0266 54.4629 43.2423C51.3792 38.4579 46.9852 34.6644 41.8062 32.3153V32.3153ZM29.5973 29.6471C27.4022 29.6471 25.2563 28.995 23.4311 27.7734C21.6058 26.5518 20.1833 24.8154 19.3432 22.784C18.5031 20.7525 18.2833 18.5171 18.7116 16.3605C19.1399 14.2039 20.1969 12.2229 21.7492 10.668C23.3014 9.11322 25.279 8.05436 27.432 7.62539C29.585 7.19641 31.8167 7.41658 33.8447 8.25805C35.8728 9.09951 37.6062 10.5245 38.8258 12.3528C40.0454 14.1811 40.6963 16.3305 40.6963 18.5294C40.6963 21.478 39.527 24.3058 37.4455 26.3908C35.364 28.4757 32.541 29.6471 29.5973 29.6471ZM72.9204 20.8641C72.5765 20.5168 72.1673 20.2411 71.7165 20.0529C71.2656 19.8648 70.7821 19.7679 70.2937 19.7679C69.8053 19.7679 69.3217 19.8648 68.8709 20.0529C68.42 20.2411 68.0108 20.5168 67.6669 20.8641L60.2676 28.2759L57.9738 25.9412C57.6298 25.5938 57.2207 25.3181 56.7698 25.13C56.319 24.9418 55.8354 24.845 55.347 24.845C54.8586 24.845 54.375 24.9418 53.9242 25.13C53.4734 25.3181 53.0642 25.5938 52.7202 25.9412C52.0312 26.6355 51.6444 27.5748 51.6444 28.5538C51.6444 29.5329 52.0312 30.4721 52.7202 31.1665L57.6778 36.1324C58.371 36.8226 59.3087 37.21 60.2861 37.21C61.2635 37.21 62.2012 36.8226 62.8943 36.1324L72.7724 26.2376C73.146 25.9016 73.4473 25.4929 73.6581 25.0365C73.8689 24.5801 73.9847 24.0854 73.9986 23.5827C74.0124 23.08 73.924 22.5797 73.7386 22.1123C73.5533 21.645 73.2749 21.2203 72.9204 20.8641V20.8641Z" fill="#00BAA4"/>
</svg>
