<svg width="332" height="87" viewBox="0 0 332 87" fill="none" xmlns="http://www.w3.org/2000/svg">
    <path d="M329.358 8.48989C329.905 8.5683 330.411 8.18868 330.49 7.64198C330.568 7.09529 330.189 6.58855 329.642 6.51015L329.358 8.48989ZM1.06725 81.3662C1.92465 81.5163 2.77635 81.6623 3.62242 81.8041L3.95294 79.8316C3.11175 79.6906 2.26487 79.5455 1.41224 79.3962L1.06725 81.3662ZM8.63172 82.605C10.2793 82.8556 11.9048 83.0898 13.5089 83.3081L13.7785 81.3263C12.1851 81.1095 10.5698 80.8768 8.93242 80.6278L8.63172 82.605ZM18.4452 83.9377C20.151 84.1404 21.8318 84.3244 23.4881 84.4902L23.6872 82.5001C22.0435 82.3356 20.375 82.1529 18.6813 81.9516L18.4452 83.9377ZM28.3845 84.9332C30.0844 85.0703 31.7577 85.1875 33.4054 85.2853L33.5239 83.2888C31.8907 83.1918 30.2314 83.0756 28.5453 82.9396L28.3845 84.9332ZM38.4289 85.527C40.0839 85.5875 41.712 85.6278 43.3142 85.6484L43.3399 83.6486C41.7538 83.6282 40.1415 83.5883 38.5021 83.5283L38.4289 85.527ZM48.4317 85.6467C50.1078 85.6235 51.7547 85.578 53.3733 85.5108L53.2904 83.5125C51.6905 83.5789 50.0621 83.624 48.404 83.6469L48.4317 85.6467ZM58.4125 85.2262C60.1022 85.1048 61.7602 84.959 63.3878 84.7897L63.1809 82.8005C61.5747 82.9675 59.938 83.1115 58.2692 83.2313L58.4125 85.2262ZM68.3609 84.1875C70.0458 83.9539 71.6973 83.6943 73.3173 83.4099L72.9714 81.44C71.3754 81.7203 69.7476 81.9761 68.0863 82.2064L68.3609 84.1875ZM78.232 82.4513C79.8924 82.0944 81.5188 81.7107 83.1133 81.3015L82.6162 79.3643C81.0472 79.7669 79.4465 80.1446 77.8118 80.4959L78.232 82.4513ZM87.952 79.9544C89.5693 79.4682 91.1534 78.9554 92.7069 78.4176L92.0526 76.5276C90.5249 77.0565 88.967 77.5609 87.3763 78.0391L87.952 79.9544ZM97.4347 76.6693C98.9976 76.0539 100.53 75.4132 102.034 74.7491L101.226 72.9195C99.7462 73.5729 98.2391 74.2031 96.702 74.8083L97.4347 76.6693ZM106.606 72.6196C108.117 71.8796 109.6 71.1164 111.059 70.3326L110.113 68.5707C108.674 69.3433 107.213 70.095 105.726 70.8236L106.606 72.6196ZM115.43 67.8847C116.881 67.0394 118.311 66.1746 119.722 65.293L118.662 63.5968C117.267 64.4683 115.855 65.3223 114.423 66.1565L115.43 67.8847ZM123.924 62.5867C125.317 61.6635 126.696 60.7255 128.063 59.7752L126.922 58.1329C125.565 59.0756 124.199 60.0053 122.819 60.9195L123.924 62.5867ZM132.138 56.8883C133.488 55.915 134.83 54.9319 136.169 53.9416L134.98 52.3337C133.646 53.3202 132.31 54.2984 130.968 55.266L132.138 56.8883ZM140.162 50.9633C141.487 49.9686 142.813 48.9687 144.141 47.9671L142.937 46.3701C141.608 47.3723 140.285 48.3707 138.962 49.3639L140.162 50.9633ZM148.121 44.9733C149.44 43.9846 150.765 42.9963 152.102 42.0102L150.915 40.4009C149.573 41.3907 148.243 42.3822 146.921 43.3729L148.121 44.9733ZM156.124 39.0779C157.457 38.1188 158.803 37.1642 160.166 36.2163L159.025 34.5743C157.652 35.5291 156.296 36.4899 154.956 37.4544L156.124 39.0779ZM164.263 33.4253C165.631 32.5134 167.018 31.6099 168.427 30.7168L167.356 29.0275C165.933 29.9295 164.534 30.8413 163.154 31.7611L164.263 33.4253ZM172.626 28.1285C174.038 27.2833 175.474 26.4496 176.936 25.6294L175.958 23.8851C174.478 24.715 173.027 25.558 171.599 26.4124L172.626 28.1285ZM181.256 23.288C182.708 22.5289 184.186 21.7836 185.694 21.0538L184.822 19.2536C183.296 19.9927 181.799 20.7473 180.329 21.5158L181.256 23.288ZM190.159 18.978C191.65 18.3133 193.17 17.6639 194.721 17.0314L193.965 15.1795C192.395 15.8203 190.855 16.478 189.345 17.1513L190.159 18.978ZM199.315 15.2417C200.843 14.6739 202.402 14.1224 203.992 13.5884L203.355 11.6925C201.745 12.2333 200.167 12.7918 198.618 13.3668L199.315 15.2417ZM208.684 12.0921C210.25 11.6188 211.846 11.1622 213.474 10.7234L212.953 8.79233C211.306 9.23639 209.691 9.69848 208.105 10.1776L208.684 12.0921ZM218.224 9.51536C219.832 9.13084 221.469 8.76326 223.137 8.41352L222.727 6.45607C221.04 6.80964 219.385 7.18132 217.759 7.57024L218.224 9.51536ZM227.905 7.4791C229.522 7.18373 231.167 6.90471 232.842 6.64276L232.533 4.66677C230.842 4.93133 229.179 5.2132 227.545 5.51165L227.905 7.4791ZM237.71 5.94129C239.317 5.72901 240.951 5.53203 242.611 5.35093L242.395 3.36272C240.719 3.54544 239.07 3.74423 237.448 3.95851L237.71 5.94129ZM247.646 4.8585C249.232 4.72081 250.841 4.5972 252.476 4.48811L252.343 2.49255C250.695 2.60251 249.072 2.72714 247.473 2.86599L247.646 4.8585ZM257.454 4.20489C259.1 4.1271 260.771 4.06364 262.467 4.01493L262.41 2.01575C260.702 2.06481 259.018 2.12874 257.359 2.20712L257.454 4.20489ZM267.331 3.91687C268.975 3.89755 270.641 3.89171 272.331 3.89972L272.34 1.89975C270.64 1.89169 268.962 1.89756 267.307 1.91701L267.331 3.91687ZM277.362 3.96345C278.96 3.9961 280.577 4.04078 282.215 4.09777L282.284 2.09898C280.637 2.04166 279.01 1.99672 277.403 1.96386L277.362 3.96345ZM287.19 4.30597C288.869 4.38787 290.569 4.48235 292.291 4.58972L292.415 2.5936C290.685 2.48568 288.976 2.39069 287.288 2.30834L287.19 4.30597ZM297.108 4.91984C298.728 5.04064 300.366 5.17254 302.023 5.31578L302.195 3.32321C300.531 3.17931 298.885 3.04677 297.257 2.92538L297.108 4.91984ZM307.049 5.77968C308.69 5.94058 310.349 6.11232 312.027 6.29509L312.243 4.30686C310.559 4.12332 308.893 3.95084 307.244 3.78922L307.049 5.77968ZM316.853 6.84567C318.478 7.03925 320.12 7.24295 321.779 7.45694L322.035 5.47338C320.37 5.25857 318.721 5.05407 317.09 4.8597L316.853 6.84567ZM326.806 8.12992C327.652 8.24729 328.503 8.36727 329.358 8.48989L329.642 6.51015C328.784 6.38709 327.93 6.26668 327.081 6.14888L326.806 8.12992ZM329.216 9.47976C330.309 9.63657 331.323 8.87733 331.48 7.78395C331.637 6.69057 330.877 5.67709 329.784 5.52028L329.216 9.47976ZM0.89476 82.3512C1.75454 82.5018 2.60865 82.6481 3.45716 82.7903L4.1182 78.8453C3.27944 78.7048 2.43497 78.5601 1.58473 78.4112L0.89476 82.3512ZM8.48137 83.5937C10.134 83.845 11.7647 84.08 13.3741 84.299L13.9134 80.3355C12.3252 80.1194 10.7151 79.8874 9.08277 79.6391L8.48137 83.5937ZM18.3272 84.9307C20.039 85.1341 21.7259 85.3188 23.3885 85.4852L23.7868 81.5051C22.1493 81.3412 20.487 81.1592 18.7993 80.9586L18.3272 84.9307ZM28.3041 85.9299C30.0109 86.0676 31.6913 86.1853 33.3461 86.2835L33.5832 82.2906C31.9571 82.194 30.3049 82.0783 28.6257 81.9429L28.3041 85.9299ZM38.3924 86.5263C40.0551 86.5871 41.6911 86.6276 43.3014 86.6483L43.3528 82.6486C41.7747 82.6284 40.1703 82.5887 38.5386 82.529L38.3924 86.5263ZM48.4455 86.6466C50.1307 86.6233 51.7868 86.5775 53.4148 86.51L53.2489 82.5134C51.6584 82.5794 50.0392 82.6242 48.3902 82.647L48.4455 86.6466ZM58.4842 86.2236C60.1843 86.1015 61.8529 85.9548 63.4913 85.7844L63.0775 81.8058C61.482 81.9718 59.8559 82.1148 58.1976 82.2339L58.4842 86.2236ZM68.4982 85.178C70.1949 84.9428 71.8583 84.6814 73.4902 84.3948L72.7984 80.4551C71.2144 80.7332 69.5985 80.9872 67.949 81.2159L68.4982 85.178ZM78.4421 83.429C80.1154 83.0694 81.7546 82.6826 83.3619 82.2701L82.3676 78.3956C80.8114 78.795 79.2235 79.1697 77.6016 79.5183L78.4421 83.429ZM88.2399 80.9121C89.8705 80.4219 91.4677 79.9048 93.034 79.3625L91.7254 75.5827C90.2107 76.1071 88.6658 76.6072 87.0884 77.0814L88.2399 80.9121ZM97.801 77.5997C99.3769 76.9793 100.921 76.3334 102.438 75.6639L100.822 72.0047C99.3544 72.6527 97.8599 73.2777 96.3357 73.8778L97.801 77.5997ZM107.046 73.5176C108.568 72.7719 110.063 72.003 111.532 71.2135L109.639 67.6898C108.212 68.4567 106.762 69.2027 105.286 69.9256L107.046 73.5176ZM115.934 68.7487C117.394 67.8979 118.832 67.0278 120.252 66.1411L118.132 62.7487C116.745 63.6151 115.343 64.4637 113.92 65.2924L115.934 68.7487ZM124.476 63.4204C125.876 62.4926 127.261 61.5504 128.634 60.5964L126.351 57.3117C125 58.2507 123.64 59.1762 122.267 60.0859L124.476 63.4204ZM132.722 57.6995C134.077 56.7233 135.423 55.7377 136.764 54.7456L134.385 51.5297C133.054 52.5143 131.721 53.49 130.383 54.4548L132.722 57.6995ZM140.763 51.7631C142.089 50.7675 143.415 49.767 144.743 48.7656L142.335 45.5717C141.006 46.574 139.683 47.5717 138.361 48.5642L140.763 51.7631ZM148.72 45.7734C150.038 44.7858 151.362 43.799 152.696 42.8149L150.321 39.5962C148.977 40.5879 147.644 41.581 146.321 42.5727L148.72 45.7734ZM156.708 39.8897C158.037 38.9333 159.379 37.9818 160.737 37.0373L158.454 33.7533C157.076 34.7115 155.716 35.6754 154.372 36.6427L156.708 39.8897ZM164.818 34.2574C166.18 33.3494 167.56 32.4501 168.962 31.5614L166.821 28.1829C165.391 29.0892 163.985 30.0053 162.599 30.929L164.818 34.2574ZM173.14 28.9865C174.544 28.1459 175.972 27.317 177.425 26.5015L175.468 23.013C173.981 23.8476 172.521 24.6954 171.086 25.5543L173.14 28.9865ZM181.719 24.1742C183.162 23.4197 184.631 22.6791 186.13 21.9539L184.387 18.3535C182.85 19.0972 181.344 19.8565 179.866 20.6296L181.719 24.1742ZM190.566 19.8913C192.048 19.2309 193.558 18.5858 195.098 17.9573L193.587 14.2536C192.007 14.8985 190.458 15.5604 188.938 16.2379L190.566 19.8913ZM199.663 16.1792C201.182 15.615 202.73 15.067 204.31 14.5364L203.036 10.7446C201.416 11.2887 199.828 11.8507 198.27 12.4294L199.663 16.1792ZM208.973 13.0493C210.53 12.5789 212.116 12.1251 213.734 11.6889L212.693 7.82682C211.036 8.27348 209.411 8.73832 207.816 9.22033L208.973 13.0493ZM218.457 10.4879C220.055 10.1056 221.683 9.74007 223.342 9.39224L222.522 5.47734C220.826 5.83283 219.161 6.20656 217.526 6.59768L218.457 10.4879ZM228.084 8.46283C229.693 8.169 231.33 7.8914 232.997 7.63075L232.379 3.67878C230.679 3.94464 229.008 4.22793 227.366 4.52793L228.084 8.46283ZM237.841 6.93268C239.44 6.7214 241.067 6.52533 242.72 6.34504L242.286 2.36861C240.603 2.55214 238.947 2.75183 237.317 2.96712L237.841 6.93268ZM247.732 5.85475C249.311 5.71765 250.914 5.59454 252.542 5.48589L252.276 1.49477C250.622 1.60517 248.992 1.73031 247.386 1.86974L247.732 5.85475ZM257.501 5.20378C259.141 5.12628 260.806 5.06305 262.496 5.01452L262.381 1.01617C260.667 1.0654 258.978 1.12956 257.312 1.20823L257.501 5.20378ZM267.343 4.9168C268.981 4.89755 270.642 4.89173 272.326 4.89971L272.345 0.899757C270.639 0.891671 268.956 0.897562 267.296 0.917081L267.343 4.9168ZM277.342 4.96324C278.934 4.99579 280.547 5.04034 282.18 5.09717L282.319 1.09959C280.667 1.0421 279.036 0.997023 277.424 0.964072L277.342 4.96324ZM287.141 5.30478C288.816 5.38646 290.512 5.48069 292.229 5.58778L292.478 1.59554C290.743 1.48734 289.029 1.3921 287.336 1.30953L287.141 5.30478ZM297.034 5.91707C298.65 6.03757 300.284 6.16916 301.936 6.31206L302.281 2.32693C300.613 2.18269 298.963 2.04983 297.331 1.92815L297.034 5.91707ZM306.951 6.77491C308.589 6.93545 310.245 7.10682 311.918 7.2892L312.352 3.31274C310.664 3.12882 308.994 2.95597 307.342 2.79399L306.951 6.77491ZM316.735 7.83865C318.357 8.03185 319.995 8.23515 321.651 8.44872L322.163 4.4816C320.495 4.26638 318.843 4.06148 317.208 3.86672L316.735 7.83865ZM326.669 9.12044C327.514 9.2376 328.363 9.35736 329.216 9.47976L329.784 5.52028C328.924 5.397 328.069 5.27637 327.218 5.15836L326.669 9.12044Z" fill="#20F1C0"/>
</svg>
