<svg width="508" height="347" viewBox="0 0 508 347" fill="none" xmlns="http://www.w3.org/2000/svg">
    <filter id="blur-filter" x="-50%" y="-50%" width="200%" height="197%">
        <feGaussianBlur in="SourceGraphic" stdDeviation="85"/>
    </filter>
    <g filter="url(#blur-filter)">
    <ellipse cx="141.158" cy="273.5" rx="127.634" ry="70.5" fill="#20F1C0" fill-opacity="0.44"/>
    <ellipse cx="344.443" cy="284" rx="107.77" ry="60" fill="#0074BC" fill-opacity="0.4"/>
    <ellipse cx="321.198" cy="99.5" rx="186.802" ry="86.5" fill="#FFEEB2" fill-opacity="0.35"/>
    </g>
    <g filter="url(#filter0_b_6_4260)">
        <path d="M0 0H508V347H0V0Z" fill="#16212D" fill-opacity="0.01"/>
        <path d="M167.137 129.031H177.42V130.953H174.868V130.488C173.516 130.824 171.576 131.02 169.28 131.02C163.998 131.02 160.12 130.174 160.12 128.986C160.12 127.803 163.998 126.962 169.178 126.962C173.056 126.962 176.169 127.405 177.241 128.061L174.817 128.369C174.051 127.887 171.857 127.562 169.178 127.562C165.682 127.562 163.054 128.151 163.054 128.986C163.054 129.826 165.631 130.421 169.305 130.421C172.036 130.421 174.205 130.101 174.868 129.591H167.137V129.031ZM186.043 128.145C189.309 128.145 191.529 128.56 191.529 129.148V130.953H188.747V130.673C187.905 130.897 186.578 131.02 184.894 131.02C182.419 131.02 180.429 130.712 180.429 130.196C180.429 129.748 181.756 129.468 184.282 129.384L188.722 129.232V129.148C188.722 128.84 187.65 128.672 186.043 128.672C184.435 128.672 183.236 128.862 182.828 129.176L180.557 128.902C181.348 128.436 183.414 128.145 186.043 128.145ZM188.722 129.888V129.714L184.614 129.849C183.695 129.882 183.185 129.989 183.185 130.163C183.185 130.387 184.154 130.533 185.532 130.533C187.369 130.527 188.722 130.28 188.722 129.888ZM209.411 128.145C212.167 128.145 214.055 128.571 214.055 129.193V130.953H211.222V129.316C211.222 128.941 210.253 128.705 208.62 128.705C206.987 128.705 205.941 128.946 205.941 129.316V130.953H203.134V129.316C203.134 128.941 202.139 128.705 200.506 128.705C198.873 128.705 197.852 128.946 197.852 129.316V130.953H195.045V128.212H197.852V128.487C198.643 128.263 199.791 128.145 201.322 128.145C203.159 128.145 204.614 128.324 205.379 128.627C206.145 128.313 207.497 128.145 209.411 128.145ZM224.665 128.145C228.288 128.145 230.968 128.739 230.968 129.591C230.968 130.432 228.288 131.02 224.665 131.02C222.93 131.02 221.399 130.88 220.353 130.634V130.953H217.546V127.03H220.353V128.543C221.374 128.285 222.905 128.145 224.665 128.145ZM224.257 130.46C226.477 130.46 228.161 130.095 228.161 129.591C228.161 129.07 226.477 128.705 224.257 128.705C222.037 128.705 220.353 129.07 220.353 129.591C220.353 130.095 222.037 130.46 224.257 130.46ZM233.793 130.953V127.03H236.6V130.953H233.793ZM241.774 127.831C240.703 127.831 239.861 127.64 239.861 127.416C239.861 127.186 240.703 126.996 241.774 126.996C242.846 126.996 243.688 127.186 243.688 127.416C243.688 127.64 242.846 127.831 241.774 127.831ZM240.371 130.953V128.212H243.178V130.953H240.371ZM253.379 128.145C256.237 128.145 258.176 128.571 258.176 129.193V130.953H255.37V129.356C255.37 128.952 254.298 128.705 252.588 128.705C250.853 128.705 249.756 128.958 249.756 129.356V130.953H246.949V128.212H249.756V128.487C250.547 128.263 251.772 128.145 253.379 128.145ZM274.179 130.387C274.485 130.566 274.638 130.757 274.638 130.919C274.638 131.732 271.551 132.136 268.259 132.136C265.376 132.136 262.977 131.861 262.135 131.429L264.253 131.149C264.789 131.446 266.269 131.614 268.08 131.614C270.045 131.614 271.831 131.385 271.831 130.925C271.831 130.818 271.729 130.69 271.474 130.555C270.377 130.858 268.769 131.02 266.907 131.02C263.36 131.02 260.732 130.432 260.732 129.591C260.732 128.739 263.36 128.145 266.907 128.145C268.718 128.145 270.326 128.307 271.372 128.593V128.212H274.179V130.387ZM267.468 130.46C269.662 130.46 271.372 130.095 271.372 129.591C271.372 129.07 269.662 128.705 267.468 128.705C265.248 128.705 263.564 129.07 263.564 129.591C263.564 130.095 265.248 130.46 267.468 130.46Z" fill="#16212D" fill-opacity="0.01"/>
        <path d="M58.2228 146.494V143.177H52.8181V142.927H64.7874V143.177H59.4058V146.494H58.2228ZM71.6608 144.018C74.282 144.018 75.9521 144.385 75.9521 144.96V146.494H74.7691V144.991C74.7691 144.532 73.5165 144.257 71.4984 144.257C69.4571 144.257 68.1349 144.548 68.1349 144.991V146.494H66.9751V142.927H68.1349V144.43C68.854 144.16 70.037 144.018 71.6608 144.018ZM84.0895 146.555C80.8188 146.555 78.4296 146.02 78.4296 145.287C78.4296 144.543 80.7724 144.018 84.0199 144.018C87.1746 144.018 89.2391 144.481 89.2391 145.205C89.2391 145.256 89.2159 145.322 89.1927 145.343H79.6358C79.7054 145.913 81.5843 146.321 84.0895 146.321C85.9684 146.321 87.5225 146.107 87.9401 145.801L88.9607 145.913C88.3576 146.3 86.4091 146.555 84.0895 146.555ZM79.659 145.108H88.0329C87.9633 144.578 86.2235 144.252 84.0199 144.252C81.7466 144.252 79.9605 144.604 79.659 145.108ZM106.965 145.934C107.266 146.132 107.405 146.311 107.405 146.479C107.405 147.192 104.761 147.564 101.931 147.564C99.5419 147.564 97.5702 147.315 96.9671 146.937L97.9877 146.82C98.4053 147.131 99.9362 147.335 101.908 147.335C104.181 147.335 106.246 147.039 106.246 146.479C106.246 146.346 106.13 146.173 105.828 146C104.97 146.346 103.184 146.555 101.235 146.555C98.1037 146.555 95.7145 146.046 95.7145 145.302C95.7145 144.527 98.1037 144.018 101.235 144.018C103.137 144.018 104.947 144.227 105.805 144.573V144.079H106.965V145.934ZM101.351 146.316C103.833 146.316 105.805 145.898 105.805 145.302C105.805 144.67 103.833 144.257 101.351 144.257C98.846 144.257 96.9207 144.67 96.9207 145.302C96.9207 145.898 98.846 146.316 101.351 146.316ZM110.629 146.494V142.927H111.788V146.494H110.629ZM120.131 146.555C116.953 146.555 114.517 146.046 114.517 145.302C114.517 144.522 116.976 144.018 120.131 144.018C123.285 144.018 125.744 144.522 125.744 145.302C125.744 146.046 123.285 146.555 120.131 146.555ZM120.131 146.316C122.613 146.316 124.561 145.903 124.561 145.302C124.561 144.67 122.613 144.257 120.131 144.257C117.649 144.257 115.7 144.67 115.7 145.302C115.7 145.903 117.649 146.316 120.131 146.316ZM134.163 144.018C137.318 144.018 139.73 144.527 139.73 145.302C139.73 146.046 137.318 146.555 134.163 146.555C132.284 146.555 130.475 146.357 129.64 146.02V146.494H128.48V142.927H129.64V144.558C130.475 144.216 132.284 144.018 134.163 144.018ZM134.093 146.316C136.599 146.316 138.524 145.898 138.524 145.302C138.524 144.67 136.599 144.257 134.093 144.257C131.611 144.257 129.64 144.67 129.64 145.302C129.64 145.898 131.611 146.316 134.093 146.316ZM146.505 144.018C149.056 144.018 150.796 144.369 150.796 144.869V146.494H149.636V146.102C148.894 146.397 147.525 146.555 145.646 146.555C143.257 146.555 141.703 146.285 141.703 145.837C141.703 145.455 142.886 145.205 145.043 145.134L149.636 144.981V144.869C149.636 144.497 148.383 144.252 146.505 144.252C144.788 144.252 143.373 144.466 142.955 144.792L141.958 144.685C142.584 144.278 144.347 144.018 146.505 144.018ZM145.878 146.326C148.151 146.326 149.636 146 149.636 145.485V145.205L145.043 145.363C143.675 145.414 142.932 145.572 142.932 145.816C142.932 146.122 144.092 146.326 145.878 146.326ZM154.169 146.494V142.927H155.329V146.494H154.169ZM168.236 146.555C165.058 146.555 162.622 146.046 162.622 145.302C162.622 144.522 165.081 144.018 168.236 144.018C171.391 144.018 173.849 144.522 173.849 145.302C173.849 146.046 171.391 146.555 168.236 146.555ZM168.236 146.316C170.718 146.316 172.666 145.903 172.666 145.302C172.666 144.67 170.718 144.257 168.236 144.257C165.754 144.257 163.805 144.67 163.805 145.302C163.805 145.903 165.754 146.316 168.236 146.316ZM181.271 144.018C183.892 144.018 185.562 144.385 185.562 144.96V146.494H184.379V144.991C184.379 144.532 183.126 144.257 181.108 144.257C179.067 144.257 177.745 144.548 177.745 144.991V146.494H176.585V144.079H177.745V144.42C178.464 144.155 179.647 144.018 181.271 144.018ZM188.875 146.494V142.927H190.034V146.494H188.875ZM194.178 143.615C193.575 143.615 193.134 143.513 193.134 143.386C193.134 143.253 193.575 143.152 194.178 143.152C194.781 143.152 195.245 143.253 195.245 143.386C195.245 143.513 194.781 143.615 194.178 143.615ZM193.598 146.494V144.079H194.781V146.494H193.598ZM203.03 144.018C205.651 144.018 207.321 144.385 207.321 144.96V146.494H206.138V144.991C206.138 144.532 204.886 144.257 202.868 144.257C200.826 144.257 199.504 144.548 199.504 144.991V146.494H198.344V144.079H199.504V144.42C200.223 144.155 201.406 144.018 203.03 144.018ZM215.459 146.555C212.188 146.555 209.799 146.02 209.799 145.287C209.799 144.543 212.142 144.018 215.389 144.018C218.544 144.018 220.608 144.481 220.608 145.205C220.608 145.256 220.585 145.322 220.562 145.343H211.005C211.075 145.913 212.954 146.321 215.459 146.321C217.338 146.321 218.892 146.107 219.309 145.801L220.33 145.913C219.727 146.3 217.778 146.555 215.459 146.555ZM211.028 145.108H219.402C219.333 144.578 217.593 144.252 215.389 144.252C213.116 144.252 211.33 144.604 211.028 145.108ZM238.334 145.934C238.636 146.132 238.775 146.311 238.775 146.479C238.775 147.192 236.13 147.564 233.3 147.564C230.911 147.564 228.939 147.315 228.336 146.937L229.357 146.82C229.774 147.131 231.305 147.335 233.277 147.335C235.55 147.335 237.615 147.039 237.615 146.479C237.615 146.346 237.499 146.173 237.197 146C236.339 146.346 234.553 146.555 232.604 146.555C229.473 146.555 227.084 146.046 227.084 145.302C227.084 144.527 229.473 144.018 232.604 144.018C234.507 144.018 236.316 144.227 237.174 144.573V144.079H238.334V145.934ZM232.72 146.316C235.202 146.316 237.174 145.898 237.174 145.302C237.174 144.67 235.202 144.257 232.72 144.257C230.215 144.257 228.29 144.67 228.29 145.302C228.29 145.898 230.215 146.316 232.72 146.316ZM246.034 144.018C248.586 144.018 250.325 144.369 250.325 144.869V146.494H249.166V146.102C248.423 146.397 247.055 146.555 245.176 146.555C242.787 146.555 241.232 146.285 241.232 145.837C241.232 145.455 242.415 145.205 244.573 145.134L249.166 144.981V144.869C249.166 144.497 247.913 144.252 246.034 144.252C244.318 144.252 242.903 144.466 242.485 144.792L241.488 144.685C242.114 144.278 243.877 144.018 246.034 144.018ZM245.408 146.326C247.681 146.326 249.166 146 249.166 145.485V145.205L244.573 145.363C243.204 145.414 242.462 145.572 242.462 145.816C242.462 146.122 243.622 146.326 245.408 146.326ZM266.085 144.018C268.683 144.018 270.353 144.385 270.353 144.96V146.494H269.17V144.981C269.17 144.532 267.941 144.257 265.946 144.257C263.928 144.257 262.606 144.548 262.606 144.981V146.494H261.423V144.981C261.423 144.532 260.193 144.257 258.199 144.257C256.18 144.257 254.858 144.548 254.858 144.981V146.494H253.698V144.079H254.858V144.42C255.554 144.155 256.737 144.018 258.338 144.018C260.263 144.018 261.678 144.216 262.258 144.543C262.861 144.206 264.206 144.018 266.085 144.018ZM279.35 144.018C282.505 144.018 284.917 144.527 284.917 145.302C284.917 146.046 282.505 146.555 279.35 146.555C277.471 146.555 275.662 146.357 274.827 146.02V146.494H273.667V142.927H274.827V144.558C275.662 144.216 277.471 144.018 279.35 144.018ZM279.281 146.316C281.786 146.316 283.711 145.898 283.711 145.302C283.711 144.67 281.786 144.257 279.281 144.257C276.799 144.257 274.827 144.67 274.827 145.302C274.827 145.898 276.799 146.316 279.281 146.316ZM287.656 146.494V142.927H288.816V146.494H287.656ZM292.959 143.615C292.356 143.615 291.915 143.513 291.915 143.386C291.915 143.253 292.356 143.152 292.959 143.152C293.562 143.152 294.026 143.253 294.026 143.386C294.026 143.513 293.562 143.615 292.959 143.615ZM292.379 146.494V144.079H293.562V146.494H292.379ZM301.811 144.018C304.432 144.018 306.102 144.385 306.102 144.96V146.494H304.919V144.991C304.919 144.532 303.667 144.257 301.649 144.257C299.607 144.257 298.285 144.548 298.285 144.991V146.494H297.125V144.079H298.285V144.42C299.004 144.155 300.187 144.018 301.811 144.018ZM319.83 145.934C320.132 146.132 320.271 146.311 320.271 146.479C320.271 147.192 317.626 147.564 314.797 147.564C312.407 147.564 310.436 147.315 309.833 146.937L310.853 146.82C311.271 147.131 312.802 147.335 314.773 147.335C317.047 147.335 319.111 147.039 319.111 146.479C319.111 146.346 318.995 146.173 318.694 146C317.835 146.346 316.049 146.555 314.101 146.555C310.969 146.555 308.58 146.046 308.58 145.302C308.58 144.527 310.969 144.018 314.101 144.018C316.003 144.018 317.812 144.227 318.67 144.573V144.079H319.83V145.934ZM314.217 146.316C316.699 146.316 318.67 145.898 318.67 145.302C318.67 144.67 316.699 144.257 314.217 144.257C311.711 144.257 309.786 144.67 309.786 145.302C309.786 145.898 311.711 146.316 314.217 146.316ZM328.639 143.615C328.036 143.615 327.595 143.513 327.595 143.386C327.595 143.253 328.036 143.152 328.639 143.152C329.242 143.152 329.706 143.253 329.706 143.386C329.706 143.513 329.242 143.615 328.639 143.615ZM328.059 146.494V144.079H329.242V146.494H328.059ZM337.491 144.018C340.112 144.018 341.782 144.385 341.782 144.96V146.494H340.599V144.991C340.599 144.532 339.347 144.257 337.329 144.257C335.287 144.257 333.965 144.548 333.965 144.991V146.494H332.805V144.079H333.965V144.42C334.684 144.155 335.867 144.018 337.491 144.018ZM354.35 142.927H355.51V146.494H354.35V146.02C353.492 146.351 351.729 146.555 349.804 146.555C346.672 146.555 344.26 146.046 344.26 145.302C344.26 144.527 346.672 144.018 349.804 144.018C351.729 144.018 353.538 144.222 354.35 144.563V142.927ZM349.896 146.316C352.378 146.316 354.35 145.898 354.35 145.302C354.35 144.67 352.378 144.257 349.896 144.257C347.391 144.257 345.466 144.67 345.466 145.302C345.466 145.898 347.391 146.316 349.896 146.316ZM366.645 144.079H367.805V146.494H366.645V146.102C365.949 146.382 364.697 146.545 363.119 146.545C360.591 146.545 358.828 146.209 358.828 145.602V144.079H360.011V145.582C360.011 146.061 361.38 146.306 363.328 146.306C365.323 146.306 366.645 145.974 366.645 145.465V144.079ZM374.968 146.555C372.765 146.555 371.071 146.295 370.515 145.913L371.489 145.801C371.86 146.112 373.182 146.331 374.991 146.331C376.546 146.331 377.705 146.137 377.705 145.857C377.705 145.602 376.847 145.511 375.247 145.429L373.832 145.353C371.744 145.246 370.631 145.067 370.631 144.695C370.631 144.303 372.115 144.018 374.481 144.018C376.43 144.018 377.984 144.257 378.517 144.604L377.543 144.716C377.218 144.441 375.942 144.242 374.458 144.237C372.834 144.232 371.767 144.425 371.767 144.68C371.767 144.92 372.486 145.042 374.04 145.118L375.502 145.2C377.497 145.307 378.842 145.419 378.842 145.847C378.842 146.265 377.241 146.555 374.968 146.555ZM385.176 146.525C383.227 146.525 382.044 146.265 382.044 145.842V144.308H379.678V144.079H380.606C381.696 144.079 382.044 143.946 382.044 143.574V143.371H383.227V144.079H386.73V144.308H383.227V145.832C383.227 146.122 384.016 146.295 385.292 146.295C385.872 146.295 386.429 146.27 386.869 146.234L387.055 146.453C386.498 146.499 385.802 146.525 385.176 146.525ZM393.749 144.018C394.143 144.018 394.584 144.028 394.978 144.053V144.288C394.584 144.267 394.166 144.257 393.772 144.257C391.638 144.257 390.316 144.604 390.316 145.118V146.494H389.156V144.079H390.316V144.461C391.012 144.186 392.195 144.018 393.749 144.018ZM398.45 147.513C397.917 147.513 397.406 147.498 396.989 147.472L397.175 147.248C397.569 147.269 398.01 147.284 398.358 147.284C399.657 147.284 400.097 147.106 400.097 146.876V146.504L394.994 144.079H396.247L400.724 146.188L405.085 144.079H406.337L401.234 146.494V146.876C401.234 147.228 400.538 147.513 398.45 147.513ZM413.307 143.615C412.704 143.615 412.264 143.513 412.264 143.386C412.264 143.253 412.704 143.152 413.307 143.152C413.911 143.152 414.374 143.253 414.374 143.386C414.374 143.513 413.911 143.615 413.307 143.615ZM412.728 146.494V144.079H413.911V146.494H412.728ZM421.069 146.555C418.865 146.555 417.172 146.295 416.615 145.913L417.59 145.801C417.961 146.112 419.283 146.331 421.092 146.331C422.647 146.331 423.806 146.137 423.806 145.857C423.806 145.602 422.948 145.511 421.348 145.429L419.933 145.353C417.845 145.246 416.731 145.067 416.731 144.695C416.731 144.303 418.216 144.018 420.582 144.018C422.531 144.018 424.085 144.257 424.618 144.604L423.644 144.716C423.319 144.441 422.043 144.242 420.559 144.237C418.935 144.232 417.868 144.425 417.868 144.68C417.868 144.92 418.587 145.042 420.141 145.118L421.603 145.2C423.598 145.307 424.943 145.419 424.943 145.847C424.943 146.265 423.342 146.555 421.069 146.555ZM69.2179 150.193H70.4473L66.3416 152.609H65.0658L61.5167 150.525L57.9677 152.609H56.6919L52.5861 150.193H53.8155L57.3878 152.339L60.9368 150.193H62.0966L65.6689 152.333L69.2179 150.193ZM76.7371 152.67C73.5592 152.67 71.1236 152.16 71.1236 151.416C71.1236 150.637 73.5824 150.132 76.7371 150.132C79.8918 150.132 82.3507 150.637 82.3507 151.416C82.3507 152.16 79.8918 152.67 76.7371 152.67ZM76.7371 152.43C79.2191 152.43 81.1676 152.018 81.1676 151.416C81.1676 150.785 79.2191 150.372 76.7371 150.372C74.2551 150.372 72.3066 150.785 72.3066 151.416C72.3066 152.018 74.2551 152.43 76.7371 152.43ZM89.6793 150.132C90.0736 150.132 90.5143 150.142 90.9087 150.168V150.402C90.5143 150.382 90.0968 150.372 89.7024 150.372C87.5684 150.372 86.2462 150.718 86.2462 151.233V152.609H85.0864V150.193H86.2462V150.576C86.9421 150.3 88.1251 150.132 89.6793 150.132ZM96.3524 152.639C94.4039 152.639 93.2209 152.379 93.2209 151.956V150.423H90.8548V150.193H91.7827C92.8729 150.193 93.2209 150.061 93.2209 149.689V149.485H94.4039V150.193H97.9065V150.423H94.4039V151.946C94.4039 152.237 95.1926 152.41 96.4684 152.41C97.0483 152.41 97.605 152.384 98.0457 152.349L98.2313 152.568C97.6746 152.614 96.9787 152.639 96.3524 152.639ZM105.018 150.132C107.639 150.132 109.31 150.499 109.31 151.075V152.609H108.127V151.105C108.127 150.647 106.874 150.372 104.856 150.372C102.815 150.372 101.492 150.662 101.492 151.105V152.609H100.333V149.042H101.492V150.545C102.211 150.275 103.394 150.132 105.018 150.132ZM122.87 150.132C126.025 150.132 128.437 150.642 128.437 151.416C128.437 152.16 126.025 152.67 122.87 152.67C120.991 152.67 119.182 152.471 118.347 152.135V152.609H117.187V149.042H118.347V150.672C119.182 150.331 120.991 150.132 122.87 150.132ZM122.801 152.43C125.306 152.43 127.231 152.013 127.231 151.416C127.231 150.785 125.306 150.372 122.801 150.372C120.319 150.372 118.347 150.785 118.347 151.416C118.347 152.013 120.319 152.43 122.801 152.43ZM131.755 149.73C131.152 149.73 130.712 149.628 130.712 149.5C130.712 149.368 131.152 149.266 131.755 149.266C132.359 149.266 132.822 149.368 132.822 149.5C132.822 149.628 132.359 149.73 131.755 149.73ZM131.176 152.609V150.193H132.359V152.609H131.176ZM135.922 152.609V149.042H137.082V152.609H135.922ZM140.645 152.609V149.042H141.805V152.609H140.645ZM145.949 149.73C145.346 149.73 144.905 149.628 144.905 149.5C144.905 149.368 145.346 149.266 145.949 149.266C146.552 149.266 147.016 149.368 147.016 149.5C147.016 149.628 146.552 149.73 145.949 149.73ZM145.369 152.609V150.193H146.552V152.609H145.369ZM154.893 152.67C151.716 152.67 149.28 152.16 149.28 151.416C149.28 150.637 151.739 150.132 154.893 150.132C158.048 150.132 160.507 150.637 160.507 151.416C160.507 152.16 158.048 152.67 154.893 152.67ZM154.893 152.43C157.375 152.43 159.324 152.018 159.324 151.416C159.324 150.785 157.375 150.372 154.893 150.372C152.411 150.372 150.463 150.785 150.463 151.416C150.463 152.018 152.411 152.43 154.893 152.43ZM167.928 150.132C170.55 150.132 172.22 150.499 172.22 151.075V152.609H171.037V151.105C171.037 150.647 169.784 150.372 167.766 150.372C165.725 150.372 164.402 150.662 164.402 151.105V152.609H163.243V150.193H164.402V150.535C165.122 150.27 166.305 150.132 167.928 150.132ZM179.128 152.67C176.924 152.67 175.231 152.41 174.674 152.028L175.648 151.916C176.019 152.227 177.342 152.446 179.151 152.446C180.705 152.446 181.865 152.252 181.865 151.972C181.865 151.717 181.007 151.625 179.406 151.544L177.991 151.467C175.903 151.36 174.79 151.182 174.79 150.81C174.79 150.418 176.274 150.132 178.641 150.132C180.589 150.132 182.143 150.372 182.677 150.718L181.702 150.83C181.378 150.555 180.102 150.356 178.617 150.351C176.994 150.346 175.927 150.54 175.927 150.795C175.927 151.034 176.646 151.156 178.2 151.233L179.661 151.314C181.656 151.421 183.001 151.534 183.001 151.962C183.001 152.379 181.401 152.67 179.128 152.67ZM194.99 152.67C191.813 152.67 189.377 152.16 189.377 151.416C189.377 150.637 191.836 150.132 194.99 150.132C198.145 150.132 200.604 150.637 200.604 151.416C200.604 152.16 198.145 152.67 194.99 152.67ZM194.99 152.43C197.472 152.43 199.421 152.018 199.421 151.416C199.421 150.785 197.472 150.372 194.99 150.372C192.508 150.372 190.56 150.785 190.56 151.416C190.56 152.018 192.508 152.43 194.99 152.43ZM203.744 152.609V150.423H201.1V150.193H203.675C203.002 150.03 202.77 149.852 202.77 149.689C202.77 149.312 204.348 148.991 206.806 148.991C207.618 148.991 208.523 149.021 209.242 149.083L209.08 149.307C208.476 149.256 207.688 149.22 207.015 149.22C204.974 149.22 203.953 149.439 203.953 149.714C203.953 149.867 204.278 150.041 204.927 150.193H209.126V150.423H204.927V152.609H203.744ZM224.715 149.042H225.875V152.609H224.715V152.135C223.857 152.466 222.094 152.67 220.169 152.67C217.037 152.67 214.625 152.16 214.625 151.416C214.625 150.642 217.037 150.132 220.169 150.132C222.094 150.132 223.903 150.336 224.715 150.677V149.042ZM220.261 152.43C222.743 152.43 224.715 152.013 224.715 151.416C224.715 150.785 222.743 150.372 220.261 150.372C217.756 150.372 215.831 150.785 215.831 151.416C215.831 152.013 217.756 152.43 220.261 152.43ZM234.227 152.67C231.049 152.67 228.613 152.16 228.613 151.416C228.613 150.637 231.072 150.132 234.227 150.132C237.381 150.132 239.84 150.637 239.84 151.416C239.84 152.16 237.381 152.67 234.227 152.67ZM234.227 152.43C236.709 152.43 238.657 152.018 238.657 151.416C238.657 150.785 236.709 150.372 234.227 150.372C231.745 150.372 229.796 150.785 229.796 151.416C229.796 152.018 231.745 152.43 234.227 152.43ZM242.576 152.609V149.042H243.736V152.609H242.576ZM247.3 152.609V149.042H248.459V152.609H247.3ZM256.059 150.132C258.611 150.132 260.351 150.484 260.351 150.983V152.609H259.191V152.216C258.448 152.512 257.08 152.67 255.201 152.67C252.812 152.67 251.258 152.4 251.258 151.951C251.258 151.569 252.441 151.32 254.598 151.248L259.191 151.095V150.983C259.191 150.611 257.938 150.367 256.059 150.367C254.343 150.367 252.928 150.581 252.51 150.907L251.513 150.8C252.139 150.392 253.902 150.132 256.059 150.132ZM255.433 152.441C257.706 152.441 259.191 152.114 259.191 151.6V151.32L254.598 151.477C253.229 151.528 252.487 151.686 252.487 151.931C252.487 152.237 253.647 152.441 255.433 152.441ZM268.316 150.132C268.711 150.132 269.152 150.142 269.546 150.168V150.402C269.152 150.382 268.734 150.372 268.34 150.372C266.206 150.372 264.883 150.718 264.883 151.233V152.609H263.724V150.193H264.883V150.576C265.579 150.3 266.762 150.132 268.316 150.132ZM274.897 152.67C272.693 152.67 271 152.41 270.443 152.028L271.417 151.916C271.788 152.227 273.111 152.446 274.92 152.446C276.474 152.446 277.634 152.252 277.634 151.972C277.634 151.717 276.776 151.625 275.175 151.544L273.76 151.467C271.673 151.36 270.559 151.182 270.559 150.81C270.559 150.418 272.044 150.132 274.41 150.132C276.358 150.132 277.912 150.372 278.446 150.718L277.472 150.83C277.147 150.555 275.871 150.356 274.387 150.351C272.763 150.346 271.696 150.54 271.696 150.795C271.696 151.034 272.415 151.156 273.969 151.233L275.43 151.314C277.425 151.421 278.771 151.534 278.771 151.962C278.771 152.379 277.17 152.67 274.897 152.67ZM283.063 152.639C282.46 152.639 282.019 152.542 282.019 152.41C282.019 152.283 282.46 152.181 283.063 152.181C283.666 152.181 284.107 152.283 284.107 152.41C284.107 152.542 283.666 152.639 283.063 152.639ZM300.28 152.67C295.803 152.67 292.346 151.911 292.346 150.815C292.346 149.725 295.803 148.981 300.28 148.981C303.945 148.981 306.728 149.424 307.517 150.025L306.427 150.148C305.777 149.628 303.365 149.241 300.28 149.241C296.499 149.241 293.622 149.878 293.622 150.815C293.622 151.758 296.499 152.41 300.28 152.41C303.365 152.41 305.777 152.023 306.427 151.503L307.54 151.625C306.751 152.227 303.945 152.67 300.28 152.67ZM314.836 150.132C315.23 150.132 315.671 150.142 316.065 150.168V150.402C315.671 150.382 315.254 150.372 314.859 150.372C312.725 150.372 311.403 150.718 311.403 151.233V152.609H310.243V150.193H311.403V150.576C312.099 150.3 313.282 150.132 314.836 150.132ZM319.537 153.628C319.004 153.628 318.494 153.612 318.076 153.587L318.262 153.363C318.656 153.383 319.097 153.398 319.445 153.398C320.744 153.398 321.184 153.22 321.184 152.991V152.619L316.081 150.193H317.334L321.811 152.303L326.172 150.193H327.424L322.321 152.609V152.991C322.321 153.342 321.625 153.628 319.537 153.628ZM334.933 150.132C338.088 150.132 340.5 150.642 340.5 151.416C340.5 152.16 338.088 152.67 334.933 152.67C333.054 152.67 331.245 152.471 330.409 152.135V153.628H329.25V150.193H330.409V150.672C331.245 150.331 333.054 150.132 334.933 150.132ZM334.863 152.43C337.368 152.43 339.294 152.013 339.294 151.416C339.294 150.785 337.368 150.372 334.863 150.372C332.381 150.372 330.409 150.785 330.409 151.416C330.409 152.013 332.381 152.43 334.863 152.43ZM346.926 152.639C344.978 152.639 343.795 152.379 343.795 151.956V150.423H341.429V150.193H342.357C343.447 150.193 343.795 150.061 343.795 149.689V149.485H344.978V150.193H348.481V150.423H344.978V151.946C344.978 152.237 345.767 152.41 347.042 152.41C347.622 152.41 348.179 152.384 348.62 152.349L348.805 152.568C348.249 152.614 347.553 152.639 346.926 152.639ZM355.685 152.67C352.507 152.67 350.071 152.16 350.071 151.416C350.071 150.637 352.53 150.132 355.685 150.132C358.84 150.132 361.298 150.637 361.298 151.416C361.298 152.16 358.84 152.67 355.685 152.67ZM355.685 152.43C358.167 152.43 360.116 152.018 360.116 151.416C360.116 150.785 358.167 150.372 355.685 150.372C353.203 150.372 351.254 150.785 351.254 151.416C351.254 152.018 353.203 152.43 355.685 152.43ZM59.893 156.247C63.0477 156.247 65.4601 156.756 65.4601 157.531C65.4601 158.275 63.0477 158.784 59.893 158.784C58.0141 158.784 56.2048 158.586 55.3697 158.249V159.742H54.2099V156.308H55.3697V156.787C56.2048 156.446 58.0141 156.247 59.893 156.247ZM59.8234 158.545C62.3286 158.545 64.2539 158.127 64.2539 157.531C64.2539 156.899 62.3286 156.486 59.8234 156.486C57.3414 156.486 55.3697 156.899 55.3697 157.531C55.3697 158.127 57.3414 158.545 59.8234 158.545ZM72.2345 156.247C74.7861 156.247 76.5258 156.598 76.5258 157.098V158.723H75.366V158.331C74.6237 158.626 73.2552 158.784 71.3763 158.784C68.987 158.784 67.4329 158.514 67.4329 158.066C67.4329 157.684 68.6159 157.434 70.7731 157.363L75.366 157.21V157.098C75.366 156.726 74.1134 156.481 72.2345 156.481C70.518 156.481 69.103 156.695 68.6855 157.021L67.688 156.914C68.3143 156.507 70.0773 156.247 72.2345 156.247ZM71.6082 158.555C73.8814 158.555 75.366 158.229 75.366 157.714V157.434L70.7731 157.592C69.4046 157.643 68.6623 157.801 68.6623 158.046C68.6623 158.351 69.8221 158.555 71.6082 158.555ZM81.1624 159.742C80.6289 159.742 80.1186 159.727 79.701 159.702L79.8866 159.477C80.2809 159.498 80.7217 159.513 81.0696 159.513C82.3686 159.513 82.8093 159.335 82.8093 159.105V158.733L77.7061 156.308H78.9587L83.4356 158.417L87.7965 156.308H89.0491L83.9459 158.723V159.105C83.9459 159.457 83.2501 159.742 81.1624 159.742ZM103.261 156.247C105.859 156.247 107.53 156.614 107.53 157.189V158.723H106.347V157.21C106.347 156.761 105.117 156.486 103.122 156.486C101.104 156.486 99.782 156.777 99.782 157.21V158.723H98.599V157.21C98.599 156.761 97.3696 156.486 95.3747 156.486C93.3566 156.486 92.0344 156.777 92.0344 157.21V158.723H90.8746V156.308H92.0344V156.649C92.7303 156.384 93.9133 156.247 95.5139 156.247C97.4392 156.247 98.8541 156.446 99.434 156.772C100.037 156.435 101.383 156.247 103.261 156.247ZM115.668 158.784C112.398 158.784 110.008 158.249 110.008 157.516C110.008 156.772 112.351 156.247 115.599 156.247C118.753 156.247 120.818 156.711 120.818 157.434C120.818 157.485 120.795 157.551 120.771 157.572H111.215C111.284 158.142 113.163 158.55 115.668 158.55C117.547 158.55 119.101 158.336 119.519 158.03L120.539 158.142C119.936 158.53 117.988 158.784 115.668 158.784ZM111.238 157.337H119.612C119.542 156.807 117.802 156.481 115.599 156.481C113.325 156.481 111.539 156.833 111.238 157.337ZM128.249 156.247C130.87 156.247 132.54 156.614 132.54 157.189V158.723H131.357V157.22C131.357 156.761 130.105 156.486 128.087 156.486C126.045 156.486 124.723 156.777 124.723 157.22V158.723H123.563V156.308H124.723V156.649C125.442 156.384 126.625 156.247 128.249 156.247ZM139.541 158.754C137.593 158.754 136.41 158.494 136.41 158.071V156.537H134.044V156.308H134.971C136.062 156.308 136.41 156.175 136.41 155.803V155.6H137.593V156.308H141.095V156.537H137.593V158.061C137.593 158.351 138.381 158.524 139.657 158.524C140.237 158.524 140.794 158.499 141.234 158.463L141.42 158.682C140.863 158.728 140.167 158.754 139.541 158.754ZM147.117 158.784C144.913 158.784 143.22 158.524 142.663 158.142L143.637 158.03C144.008 158.341 145.331 158.56 147.14 158.56C148.694 158.56 149.854 158.367 149.854 158.086C149.854 157.832 148.996 157.74 147.395 157.658L145.98 157.582C143.892 157.475 142.779 157.296 142.779 156.925C142.779 156.532 144.264 156.247 146.63 156.247C148.578 156.247 150.132 156.486 150.666 156.833L149.691 156.945C149.367 156.67 148.091 156.471 146.606 156.466C144.983 156.461 143.916 156.654 143.916 156.909C143.916 157.149 144.635 157.271 146.189 157.347L147.65 157.429C149.645 157.536 150.99 157.648 150.99 158.076C150.99 158.494 149.39 158.784 147.117 158.784ZM162.237 156.247C164.789 156.247 166.529 156.598 166.529 157.098V158.723H165.369V158.331C164.626 158.626 163.258 158.784 161.379 158.784C158.99 158.784 157.436 158.514 157.436 158.066C157.436 157.684 158.619 157.434 160.776 157.363L165.369 157.21V157.098C165.369 156.726 164.116 156.481 162.237 156.481C160.521 156.481 159.106 156.695 158.688 157.021L157.691 156.914C158.317 156.507 160.08 156.247 162.237 156.247ZM161.611 158.555C163.884 158.555 165.369 158.229 165.369 157.714V157.434L160.776 157.592C159.407 157.643 158.665 157.801 158.665 158.046C158.665 158.351 159.825 158.555 161.611 158.555ZM174.495 156.247C174.889 156.247 175.33 156.257 175.724 156.282V156.517C175.33 156.496 174.912 156.486 174.518 156.486C172.384 156.486 171.061 156.833 171.061 157.347V158.723H169.902V156.308H171.061V156.69C171.757 156.415 172.94 156.247 174.495 156.247ZM182.304 158.784C179.034 158.784 176.644 158.249 176.644 157.516C176.644 156.772 178.987 156.247 182.235 156.247C185.389 156.247 187.454 156.711 187.454 157.434C187.454 157.485 187.431 157.551 187.407 157.572H177.851C177.92 158.142 179.799 158.55 182.304 158.55C184.183 158.55 185.737 158.336 186.155 158.03L187.175 158.142C186.572 158.53 184.624 158.784 182.304 158.784ZM177.874 157.337H186.248C186.178 156.807 184.438 156.481 182.235 156.481C179.961 156.481 178.175 156.833 177.874 157.337ZM200.447 156.247C203.602 156.247 206.015 156.756 206.015 157.531C206.015 158.275 203.602 158.784 200.447 158.784C198.569 158.784 196.759 158.586 195.924 158.249V159.742H194.764V156.308H195.924V156.787C196.759 156.446 198.569 156.247 200.447 156.247ZM200.378 158.545C202.883 158.545 204.808 158.127 204.808 157.531C204.808 156.899 202.883 156.486 200.378 156.486C197.896 156.486 195.924 156.899 195.924 157.531C195.924 158.127 197.896 158.545 200.378 158.545ZM212.789 156.247C215.341 156.247 217.08 156.598 217.08 157.098V158.723H215.92V158.331C215.178 158.626 213.81 158.784 211.931 158.784C209.541 158.784 207.987 158.514 207.987 158.066C207.987 157.684 209.17 157.434 211.328 157.363L215.92 157.21V157.098C215.92 156.726 214.668 156.481 212.789 156.481C211.072 156.481 209.657 156.695 209.24 157.021L208.242 156.914C208.869 156.507 210.632 156.247 212.789 156.247ZM212.163 158.555C214.436 158.555 215.92 158.229 215.92 157.714V157.434L211.328 157.592C209.959 157.643 209.217 157.801 209.217 158.046C209.217 158.351 210.377 158.555 212.163 158.555ZM225.046 156.247C225.441 156.247 225.881 156.257 226.276 156.282V156.517C225.881 156.496 225.464 156.486 225.069 156.486C222.935 156.486 221.613 156.833 221.613 157.347V158.723H220.453V156.308H221.613V156.69C222.309 156.415 223.492 156.247 225.046 156.247ZM241.1 158.723V156.537H238.455V156.308H241.03C240.357 156.145 240.125 155.967 240.125 155.803C240.125 155.426 241.703 155.105 244.161 155.105C244.973 155.105 245.878 155.136 246.597 155.197L246.435 155.421C245.832 155.37 245.043 155.335 244.37 155.335C242.329 155.335 241.308 155.554 241.308 155.829C241.308 155.982 241.633 156.155 242.283 156.308H246.481V156.537H242.283V158.723H241.1ZM252.598 158.784C249.42 158.784 246.985 158.275 246.985 157.531C246.985 156.751 249.443 156.247 252.598 156.247C255.753 156.247 258.212 156.751 258.212 157.531C258.212 158.275 255.753 158.784 252.598 158.784ZM252.598 158.545C255.08 158.545 257.029 158.132 257.029 157.531C257.029 156.899 255.08 156.486 252.598 156.486C250.116 156.486 248.168 156.899 248.168 157.531C248.168 158.132 250.116 158.545 252.598 158.545ZM265.54 156.247C265.934 156.247 266.375 156.257 266.77 156.282V156.517C266.375 156.496 265.958 156.486 265.563 156.486C263.429 156.486 262.107 156.833 262.107 157.347V158.723H260.947V156.308H262.107V156.69C262.803 156.415 263.986 156.247 265.54 156.247ZM276.778 158.754C274.83 158.754 273.647 158.494 273.647 158.071V156.537H271.281V156.308H272.209C273.299 156.308 273.647 156.175 273.647 155.803V155.6H274.83V156.308H278.332V156.537H274.83V158.061C274.83 158.351 275.618 158.524 276.894 158.524C277.474 158.524 278.031 158.499 278.472 158.463L278.657 158.682C278.1 158.728 277.405 158.754 276.778 158.754ZM285.444 156.247C288.065 156.247 289.735 156.614 289.735 157.189V158.723H288.552V157.22C288.552 156.761 287.3 156.486 285.282 156.486C283.24 156.486 281.918 156.777 281.918 157.22V158.723H280.758V155.156H281.918V156.66C282.637 156.389 283.82 156.247 285.444 156.247ZM297.873 158.784C294.602 158.784 292.213 158.249 292.213 157.516C292.213 156.772 294.556 156.247 297.803 156.247C300.958 156.247 303.022 156.711 303.022 157.434C303.022 157.485 302.999 157.551 302.976 157.572H293.419C293.489 158.142 295.368 158.55 297.873 158.55C299.752 158.55 301.306 158.336 301.723 158.03L302.744 158.142C302.141 158.53 300.192 158.784 297.873 158.784ZM293.442 157.337H301.816C301.747 156.807 300.007 156.481 297.803 156.481C295.53 156.481 293.744 156.833 293.442 157.337ZM315.227 158.784C311.933 158.784 309.498 158.249 309.498 157.521C309.498 156.782 311.957 156.247 315.227 156.247C317.524 156.247 319.403 156.507 319.983 156.904L318.962 157.021C318.568 156.705 317.013 156.486 315.227 156.486C312.629 156.486 310.681 156.93 310.681 157.521C310.681 158.112 312.629 158.545 315.274 158.545C317.083 158.545 318.568 158.336 318.962 158.01L319.983 158.127C319.403 158.524 317.524 158.784 315.227 158.784ZM327.265 158.784C324.087 158.784 321.651 158.275 321.651 157.531C321.651 156.751 324.11 156.247 327.265 156.247C330.42 156.247 332.878 156.751 332.878 157.531C332.878 158.275 330.42 158.784 327.265 158.784ZM327.265 158.545C329.747 158.545 331.695 158.132 331.695 157.531C331.695 156.899 329.747 156.486 327.265 156.486C324.783 156.486 322.834 156.899 322.834 157.531C322.834 158.132 324.783 158.545 327.265 158.545ZM343.176 156.308H344.336V158.723H343.176V158.331C342.48 158.611 341.228 158.774 339.65 158.774C337.122 158.774 335.359 158.438 335.359 157.832V156.308H336.542V157.811C336.542 158.29 337.911 158.535 339.859 158.535C341.854 158.535 343.176 158.203 343.176 157.694V156.308ZM352.497 156.247C352.891 156.247 353.332 156.257 353.726 156.282V156.517C353.332 156.496 352.914 156.486 352.52 156.486C350.386 156.486 349.064 156.833 349.064 157.347V158.723H347.904V156.308H349.064V156.69C349.759 156.415 350.942 156.247 352.497 156.247ZM359.077 158.784C356.873 158.784 355.18 158.524 354.623 158.142L355.597 158.03C355.969 158.341 357.291 158.56 359.1 158.56C360.654 158.56 361.814 158.367 361.814 158.086C361.814 157.832 360.956 157.74 359.355 157.658L357.94 157.582C355.853 157.475 354.739 157.296 354.739 156.925C354.739 156.532 356.224 156.247 358.59 156.247C360.538 156.247 362.092 156.486 362.626 156.833L361.652 156.945C361.327 156.67 360.051 156.471 358.567 156.466C356.943 156.461 355.876 156.654 355.876 156.909C355.876 157.149 356.595 157.271 358.149 157.347L359.61 157.429C361.605 157.536 362.951 157.648 362.951 158.076C362.951 158.494 361.35 158.784 359.077 158.784ZM370.421 158.784C367.151 158.784 364.761 158.249 364.761 157.516C364.761 156.772 367.104 156.247 370.352 156.247C373.506 156.247 375.571 156.711 375.571 157.434C375.571 157.485 375.548 157.551 375.524 157.572H365.967C366.037 158.142 367.916 158.55 370.421 158.55C372.3 158.55 373.854 158.336 374.272 158.03L375.292 158.142C374.689 158.53 372.741 158.784 370.421 158.784ZM365.991 157.337H374.365C374.295 156.807 372.555 156.481 370.352 156.481C368.078 156.481 366.292 156.833 365.991 157.337ZM379.963 158.754C379.36 158.754 378.919 158.657 378.919 158.524C378.919 158.397 379.36 158.295 379.963 158.295C380.566 158.295 381.007 158.397 381.007 158.524C381.007 158.657 380.566 158.754 379.963 158.754Z" fill="#16212D" fill-opacity="0.01"/>
        <path d="M117.432 127.386H97.1347C94.4432 127.386 91.8619 127.621 89.9587 128.039C88.0555 128.457 86.9863 129.024 86.9863 129.615V134.074C86.9863 134.665 88.0555 135.232 89.9587 135.65C91.8619 136.068 94.4432 136.303 97.1347 136.303H117.432C120.123 136.303 122.704 136.068 124.608 135.65C126.511 135.232 127.58 134.665 127.58 134.074V129.615C127.58 129.024 126.511 128.457 124.608 128.039C122.704 127.621 120.123 127.386 117.432 127.386ZM123.521 134.074C123.521 134.429 122.879 134.769 121.737 135.02C120.595 135.271 119.046 135.412 117.432 135.412H97.1347C95.5198 135.412 93.971 135.271 92.8291 135.02C91.6872 134.769 91.0457 134.429 91.0457 134.074V129.615C91.0457 129.261 91.6872 128.921 92.8291 128.67C93.971 128.419 95.5198 128.278 97.1347 128.278H117.432C119.046 128.278 120.595 128.419 121.737 128.67C122.879 128.921 123.521 129.261 123.521 129.615V134.074ZM99.1644 133.182C98.763 133.182 98.3705 133.208 98.0368 133.257C97.703 133.306 97.4428 133.376 97.2892 133.458C97.1356 133.539 97.0954 133.629 97.1737 133.715C97.252 133.802 97.4453 133.881 97.7292 133.943C98.013 134.006 98.3747 134.048 98.7684 134.065C99.1621 134.083 99.5702 134.074 99.9411 134.04C100.312 134.006 100.629 133.949 100.852 133.876C101.075 133.803 101.194 133.716 101.194 133.628C101.194 133.51 100.98 133.396 100.6 133.313C100.219 133.229 99.7027 133.182 99.1644 133.182ZM107.283 131.399C106.882 131.399 106.489 131.425 106.155 131.474C105.822 131.523 105.562 131.593 105.408 131.674C105.254 131.756 105.214 131.845 105.292 131.932C105.371 132.018 105.564 132.098 105.848 132.16C106.132 132.222 106.493 132.265 106.887 132.282C107.281 132.299 107.689 132.29 108.06 132.257C108.431 132.223 108.748 132.166 108.971 132.092C109.194 132.019 109.313 131.933 109.313 131.845C109.313 131.726 109.099 131.613 108.718 131.529C108.338 131.446 107.821 131.399 107.283 131.399ZM99.1644 129.615C98.763 129.615 98.3705 129.642 98.0368 129.691C97.703 129.74 97.4428 129.809 97.2892 129.891C97.1356 129.972 97.0954 130.062 97.1737 130.148C97.252 130.235 97.4453 130.314 97.7292 130.377C98.013 130.439 98.3747 130.481 98.7684 130.499C99.1621 130.516 99.5702 130.507 99.9411 130.473C100.312 130.439 100.629 130.382 100.852 130.309C101.075 130.236 101.194 130.149 101.194 130.061C101.194 129.943 100.98 129.83 100.6 129.746C100.219 129.662 99.7027 129.615 99.1644 129.615ZM115.402 133.182C115 133.182 114.608 133.208 114.274 133.257C113.94 133.306 113.68 133.376 113.527 133.458C113.373 133.539 113.333 133.629 113.411 133.715C113.489 133.802 113.683 133.881 113.967 133.943C114.25 134.006 114.612 134.048 115.006 134.065C115.4 134.083 115.808 134.074 116.179 134.04C116.549 134.006 116.866 133.949 117.089 133.876C117.312 133.803 117.432 133.716 117.432 133.628C117.432 133.51 117.218 133.396 116.837 133.313C116.456 133.229 115.94 133.182 115.402 133.182ZM115.402 129.615C115 129.615 114.608 129.642 114.274 129.691C113.94 129.74 113.68 129.809 113.527 129.891C113.373 129.972 113.333 130.062 113.411 130.148C113.489 130.235 113.683 130.314 113.967 130.377C114.25 130.439 114.612 130.481 115.006 130.499C115.4 130.516 115.808 130.507 116.179 130.473C116.549 130.439 116.866 130.382 117.089 130.309C117.312 130.236 117.432 130.149 117.432 130.061C117.432 129.943 117.218 129.83 116.837 129.746C116.456 129.662 115.94 129.615 115.402 129.615Z" fill="#16212D" fill-opacity="0.01"/>
        <path d="M62.6881 125.692C62.4243 125.692 62.1665 125.709 61.9471 125.741C61.7278 125.774 61.5568 125.819 61.4559 125.873C61.3549 125.926 61.3285 125.985 61.38 126.042C61.4314 126.099 61.5585 126.151 61.745 126.192C61.9315 126.233 62.1692 126.261 62.4279 126.272C62.6866 126.284 62.9548 126.278 63.1985 126.256C63.4423 126.233 63.6506 126.196 63.7971 126.148C63.9437 126.1 64.0219 126.043 64.0219 125.985C64.0219 125.907 63.8814 125.833 63.6313 125.778C63.3811 125.723 63.0419 125.692 62.6881 125.692ZM73.3584 123.055H60.0205C58.2518 123.055 56.5556 123.209 55.3049 123.484C54.0542 123.759 53.3516 124.131 53.3516 124.52V127.45C53.3516 127.838 54.0542 128.211 55.3049 128.486C56.5556 128.76 58.2518 128.915 60.0205 128.915H73.3584C75.1272 128.915 76.8234 128.76 78.0741 128.486C79.3248 128.211 80.0274 127.838 80.0274 127.45V124.52C80.0274 124.131 79.3248 123.759 78.0741 123.484C76.8234 123.209 75.1272 123.055 73.3584 123.055ZM77.3598 127.45C77.3598 127.683 76.9382 127.907 76.1878 128.071C75.4374 128.236 74.4197 128.329 73.3584 128.329H60.0205C58.9593 128.329 57.9416 128.236 57.1912 128.071C56.4407 127.907 56.0192 127.683 56.0192 127.45V124.52C56.0192 124.287 56.4407 124.063 57.1912 123.898C57.9416 123.734 58.9593 123.641 60.0205 123.641H73.3584C74.4197 123.641 75.4374 123.734 76.1878 123.898C76.9382 124.063 77.3598 124.287 77.3598 124.52V127.45ZM70.6909 125.692C70.4271 125.692 70.1692 125.709 69.9499 125.741C69.7305 125.774 69.5596 125.819 69.4586 125.873C69.3577 125.926 69.3312 125.985 69.3827 126.042C69.4342 126.099 69.5612 126.151 69.7477 126.192C69.9343 126.233 70.1719 126.261 70.4307 126.272C70.6894 126.284 70.9576 126.278 71.2013 126.256C71.445 126.233 71.6533 126.196 71.7999 126.148C71.9464 126.1 72.0247 126.043 72.0247 125.985C72.0247 125.907 71.8841 125.833 71.634 125.778C71.3839 125.723 71.0446 125.692 70.6909 125.692Z" fill="#16212D" fill-opacity="0.01"/>
    </g>
    <defs>
        <filter id="filter0_b_6_4260" x="-200" y="-200" width="908" height="747" filterUnits="userSpaceOnUse" color-interpolation-filters="sRGB">
            <feFlood flood-opacity="0" result="BackgroundImageFix"/>
            <feGaussianBlur in="BackgroundImageFix" stdDeviation="100"/>
            <feComposite in2="SourceAlpha" operator="in" result="effect1_backgroundBlur_6_4260"/>
            <feBlend mode="normal" in="SourceGraphic" in2="effect1_backgroundBlur_6_4260" result="shape"/>
        </filter>
    </defs>
</svg>
