<svg width="40" height="40" viewBox="0 0 40 40" fill="none" xmlns="http://www.w3.org/2000/svg">
    <g filter="url(#filter0_d_1154_1721)">
        <path d="M36 16C36 24.8366 28.8366 32 20 32C11.1634 32 4 24.8366 4 16C4 7.16344 11.1634 0 20 0C28.8366 0 36 7.16344 36 16Z" fill="white"/>
    </g>
    <path d="M18.7421 21.3025L17.226 22.7743C16.8284 23.1715 16.2892 23.3946 15.7269 23.3946C15.1647 23.3946 14.6255 23.1715 14.2279 22.7743C13.8304 22.3771 13.607 21.8385 13.607 21.2768C13.607 20.7151 13.8304 20.1764 14.2279 19.7793L18.1168 15.8857C18.4985 15.5031 19.0128 15.2818 19.5533 15.2675C20.0938 15.2531 20.6191 15.4469 21.0206 15.8087L21.1234 15.8943C21.2859 16.0531 21.5048 16.141 21.7321 16.1386C21.9594 16.1362 22.1765 16.0437 22.3355 15.8814C22.4945 15.7192 22.5825 15.5004 22.5801 15.2733C22.5777 15.0463 22.4851 14.8294 22.3226 14.6706C22.2743 14.6081 22.2228 14.5482 22.1685 14.4909C21.4372 13.8553 20.4915 13.5212 19.5229 13.5562C18.5544 13.5911 17.6353 13.9925 16.9519 14.6791L13.0116 18.5727C12.342 19.3007 11.9799 20.259 12.0009 21.2475C12.0218 22.2359 12.4242 23.1781 13.124 23.8771C13.8238 24.5762 14.7668 24.9782 15.7563 24.9991C16.7457 25.0201 17.705 24.6583 18.4337 23.9894L19.9156 22.5433C20.062 22.3838 20.1424 22.1749 20.1408 21.9586C20.1391 21.7423 20.0555 21.5346 19.9068 21.3773C19.7581 21.2201 19.5553 21.125 19.3392 21.1111C19.1231 21.0972 18.9098 21.1656 18.7421 21.3025ZM27.899 9.11691C27.1784 8.40152 26.2038 8 25.1879 8C24.172 8 23.1974 8.40152 22.4768 9.11691L20.9949 10.5631C20.8486 10.7225 20.7682 10.9315 20.7698 11.1478C20.7715 11.3641 20.855 11.5718 21.0037 11.729C21.1525 11.8862 21.3553 11.9814 21.5714 11.9953C21.7874 12.0092 22.0008 11.9408 22.1685 11.8039L23.6503 10.332C24.0479 9.93487 24.5871 9.71174 25.1494 9.71174C25.7116 9.71174 26.2508 9.93487 26.6484 10.332C27.046 10.7292 27.2693 11.2679 27.2693 11.8296C27.2693 12.3912 27.046 12.9299 26.6484 13.3271L22.7595 17.2206C22.3778 17.6032 21.8635 17.8245 21.323 17.8389C20.7825 17.8532 20.2572 17.6594 19.8557 17.2977L19.7529 17.2121C19.5905 17.0532 19.3715 16.9653 19.1442 16.9677C18.9169 16.9701 18.6998 17.0626 18.5408 17.2249C18.3818 17.3872 18.2938 17.6059 18.2962 17.833C18.2986 18.0601 18.3912 18.2769 18.5537 18.4358C18.6159 18.4993 18.6817 18.5593 18.7507 18.6155C19.4828 19.2491 20.4281 19.582 21.3961 19.547C22.3641 19.5121 23.2829 19.112 23.9673 18.4272L27.8647 14.5337C28.5854 13.8183 28.9935 12.8472 28.9999 11.8323C29.0063 10.8175 28.6106 9.84127 27.899 9.11691Z" fill="black"/>
    <defs>
        <filter id="filter0_d_1154_1721" x="0" y="0" width="40" height="40" filterUnits="userSpaceOnUse" color-interpolation-filters="sRGB">
            <feFlood flood-opacity="0" result="BackgroundImageFix"/>
            <feColorMatrix in="SourceAlpha" type="matrix" values="0 0 0 0 0 0 0 0 0 0 0 0 0 0 0 0 0 0 127 0" result="hardAlpha"/>
            <feOffset dy="4"/>
            <feGaussianBlur stdDeviation="2"/>
            <feComposite in2="hardAlpha" operator="out"/>
            <feColorMatrix type="matrix" values="0 0 0 0 0.931272 0 0 0 0 0.942832 0 0 0 0 0.955786 0 0 0 0.37 0"/>
            <feBlend mode="normal" in2="BackgroundImageFix" result="effect1_dropShadow_1154_1721"/>
            <feBlend mode="normal" in="SourceGraphic" in2="effect1_dropShadow_1154_1721" result="shape"/>
        </filter>
    </defs>
</svg>
