<svg width="40" height="40" viewBox="0 0 40 40" fill="none" xmlns="http://www.w3.org/2000/svg">
    <g filter="url(#filter0_d_39_183)">
        <path d="M36 16C36 24.8366 28.8366 32 20 32C11.1634 32 4 24.8366 4 16C4 7.16344 11.1634 0 20 0C28.8366 0 36 7.16344 36 16Z" fill="white"/>
        <path d="M36 16C36 24.8366 28.8366 32 20 32C11.1634 32 4 24.8366 4 16C4 7.16344 11.1634 0 20 0C28.8366 0 36 7.16344 36 16Z" fill="white"/>
    </g>
    <path d="M34 16C34 23.732 27.732 30 20 30C12.268 30 6 23.732 6 16C6 8.26801 12.268 2 20 2C27.732 2 34 8.26801 34 16Z" fill="#1A202C"/>
    <path d="M20 0C11.1633 0 4 7.16333 4 16C4 24.8367 11.1633 32 20 32C28.8367 32 36 24.8367 36 16C36 7.16333 28.8367 0 20 0ZM23.79 11.0567H21.385C21.1 11.0567 20.7833 11.4317 20.7833 11.93V13.6667H23.7917L23.3367 16.1433H20.7833V23.5783H17.945V16.1433H15.37V13.6667H17.945V12.21C17.945 10.12 19.395 8.42167 21.385 8.42167H23.79V11.0567Z" fill="white"/>
    <defs>
        <filter id="filter0_d_39_183" x="0" y="0" width="40" height="40" filterUnits="userSpaceOnUse" color-interpolation-filters="sRGB">
            <feFlood flood-opacity="0" result="BackgroundImageFix"/>
            <feColorMatrix in="SourceAlpha" type="matrix" values="0 0 0 0 0 0 0 0 0 0 0 0 0 0 0 0 0 0 127 0" result="hardAlpha"/>
            <feOffset dy="4"/>
            <feGaussianBlur stdDeviation="2"/>
            <feComposite in2="hardAlpha" operator="out"/>
            <feColorMatrix type="matrix" values="0 0 0 0 0.931272 0 0 0 0 0.942832 0 0 0 0 0.955786 0 0 0 0.34 0"/>
            <feBlend mode="normal" in2="BackgroundImageFix" result="effect1_dropShadow_39_183"/>
            <feBlend mode="normal" in="SourceGraphic" in2="effect1_dropShadow_39_183" result="shape"/>
        </filter>
    </defs>
</svg>







