<svg width="32" height="32" viewBox="0 0 32 32" fill="none" xmlns="http://www.w3.org/2000/svg">
    <path d="M32 16C32 24.8366 24.8366 32 16 32C7.16344 32 0 24.8366 0 16C0 7.16344 7.16344 0 16 0C24.8366 0 32 7.16344 32 16Z" fill="white"/>
    <path d="M30 16C30 23.732 23.732 30 16 30C8.26801 30 2 23.732 2 16C2 8.26801 8.26801 2 16 2C23.732 2 30 8.26801 30 16Z" fill="#1A202C"/>
    <path d="M16 0C7.16333 0 0 7.16333 0 16C0 24.8367 7.16333 32 16 32C24.8367 32 32 24.8367 32 16C32 7.16333 24.8367 0 16 0ZM22.5084 13.1067C22.515 13.2433 22.5167 13.38 22.5167 13.5133C22.5167 17.68 19.3484 22.4817 13.5517 22.4817C11.8389 22.4845 10.1616 21.9926 8.72171 21.065C8.96667 21.095 9.21838 21.1067 9.47333 21.1067C10.95 21.1067 12.3084 20.605 13.3867 19.7584C12.7295 19.7454 12.0928 19.5278 11.5651 19.1359C11.0376 18.7439 10.6454 18.1971 10.4433 17.5717C10.9152 17.6614 11.4014 17.6426 11.865 17.5167C11.1517 17.3725 10.5103 16.986 10.0495 16.4228C9.58867 15.8596 9.33686 15.1544 9.33667 14.4267V14.3884C9.76172 14.6233 10.2484 14.7667 10.765 14.7833C10.0963 14.3382 9.62295 13.6545 9.44172 12.8719C9.26048 12.0893 9.38505 11.267 9.79 10.5733C10.5816 11.5467 11.5688 12.343 12.6876 12.9105C13.8065 13.4781 15.032 13.8045 16.285 13.8684C16.1257 13.1922 16.1943 12.4824 16.48 11.8491C16.7658 11.216 17.2527 10.695 17.8651 10.3671C18.4775 10.0392 19.1811 9.92286 19.8665 10.0361C20.5519 10.1493 21.1806 10.4859 21.655 10.9933C22.3603 10.8538 23.0367 10.595 23.655 10.2284C23.4199 10.9586 22.9278 11.5787 22.27 11.9733C22.8948 11.8981 23.5048 11.7301 24.08 11.475C23.6575 12.1082 23.1252 12.6608 22.5084 13.1067Z" fill="white"/>
</svg>

