<svg width="165" height="46" viewBox="0 0 165 46" fill="none" xmlns="http://www.w3.org/2000/svg">
<g clip-path="url(#clip0_906_787)">
<path d="M26.6519 25.8097C25.5546 20.1882 30.4031 17.1852 30.7569 16.975C30.0134 15.9747 29.1499 15.2186 28.2779 14.6707C25.3798 12.8486 21.8498 12.6787 19.7499 13.611C19.7288 13.6195 19.7078 13.6301 19.6867 13.6386C17.6374 14.5412 15.3079 14.5412 13.2586 13.6386C13.2375 13.6301 13.2164 13.6195 13.1954 13.611C11.0955 12.6787 7.56549 12.8486 4.66735 14.6707C1.76921 16.4929 -1.04467 20.6023 0.383332 28.4813C1.81134 36.3604 7.02209 41.1473 7.02209 41.1473C7.02209 41.1473 9.50109 43.3071 12.7783 41.8672C14.8256 40.9667 15.7586 40.8117 16.1693 40.8223C16.3736 40.8266 16.5779 40.8266 16.7801 40.8223C17.1908 40.8117 18.1239 40.9689 20.1711 41.8672C23.4484 43.3071 25.9274 41.1473 25.9274 41.1473C25.9274 41.1473 29.5774 37.7918 31.6057 32.0768C29.8618 31.2655 27.3701 29.4901 26.6519 25.8097Z" fill="white"/>
<path d="M15.5522 13.3136C15.5522 13.3136 14.6339 5.46218 23.4084 4.05627L23.3726 5.10964C23.2272 9.45692 19.8552 12.9951 15.5522 13.3136Z" fill="white"/>
<path d="M50.5868 6.48372C50.5868 7.45215 50.4667 8.30376 50.2245 9.04494C49.9823 9.784 49.6264 10.402 49.1567 10.9011C48.6849 11.4002 48.1036 11.7761 47.4127 12.033C46.7219 12.2879 45.8942 12.4153 44.9359 12.4153H42.6843C42.579 12.4153 42.4695 12.375 42.3579 12.2943C42.2462 12.2135 42.1894 12.067 42.1894 11.8525V1.45048C42.1894 1.23599 42.2462 1.08945 42.3579 1.00875C42.4695 0.928046 42.579 0.887695 42.6843 0.887695H45.0875C46.0585 0.887695 46.8799 1.02149 47.5475 1.28908C48.2152 1.55667 48.7755 1.93469 49.2262 2.42528C49.6769 2.91586 50.016 3.50201 50.2456 4.18797C50.471 4.87606 50.5868 5.6406 50.5868 6.48372ZM49.4305 6.53682C49.4305 5.86572 49.3462 5.24347 49.1777 4.67218C49.0093 4.09878 48.7502 3.60607 48.4006 3.18982C48.0509 2.77357 47.6065 2.44864 47.0715 2.21503C46.5366 1.98142 45.852 1.86249 45.0222 1.86249H43.2656V11.4448H45.0327C45.8099 11.4448 46.4671 11.3492 47.0062 11.1559C47.5454 10.9627 47.9941 10.6653 48.3521 10.2618C48.7123 9.85833 48.9798 9.34864 49.1609 8.73488C49.3399 8.11687 49.4305 7.38631 49.4305 6.53682Z" fill="white"/>
<path d="M60.0458 8.12109C60.0458 8.76246 59.9636 9.35285 59.7993 9.89228C59.6351 10.4317 59.3886 10.9011 59.0622 11.3003C58.7357 11.6975 58.3271 12.0075 57.8385 12.2305C57.3498 12.4535 56.7811 12.5639 56.1345 12.5639C55.5111 12.5639 54.9635 12.4641 54.4959 12.2666C54.0283 12.067 53.6366 11.7824 53.3207 11.4107C53.0047 11.0391 52.7709 10.591 52.6151 10.0622C52.4592 9.53337 52.3813 8.9366 52.3813 8.27187C52.3813 7.63051 52.4613 7.04011 52.6235 6.50068C52.7857 5.96126 53.03 5.49191 53.3565 5.09902C53.6829 4.70401 54.0915 4.39607 54.5802 4.17732C55.0688 3.95858 55.6396 3.84814 56.2925 3.84814C56.9159 3.84814 57.4636 3.94584 57.9311 4.14122C58.3987 4.3366 58.7884 4.62118 59.1022 4.99071C59.4139 5.36236 59.6498 5.81047 59.8078 6.33928C59.9657 6.86809 60.0458 7.46273 60.0458 8.12109ZM58.9316 8.21878C58.9316 7.76218 58.8874 7.32469 58.7989 6.91056C58.7104 6.49431 58.563 6.12903 58.3566 5.81047C58.1502 5.49191 57.8743 5.24131 57.5267 5.05442C57.1792 4.86753 56.7474 4.77409 56.2293 4.77409C55.7533 4.77409 55.3405 4.86116 54.993 5.03319C54.6455 5.20521 54.3611 5.44519 54.14 5.75101C53.9188 6.05682 53.7566 6.41786 53.6492 6.83199C53.5439 7.24824 53.4913 7.69634 53.4913 8.17631C53.4913 8.63928 53.5355 9.08102 53.6239 9.49939C53.7124 9.91777 53.8598 10.2852 54.0663 10.5995C54.2727 10.9138 54.5486 11.1644 54.8961 11.347C55.2436 11.5318 55.6754 11.6231 56.1935 11.6231C56.6695 11.6231 57.0823 11.536 57.4299 11.364C57.7774 11.192 58.0617 10.9541 58.2829 10.6526C58.504 10.3489 58.6662 9.98997 58.7736 9.57585C58.8789 9.15747 58.9316 8.70724 58.9316 8.21878Z" fill="white"/>
<path d="M72.921 4.1583C72.921 4.18803 72.9168 4.22201 72.9083 4.26023C72.8999 4.29846 72.8894 4.34094 72.8767 4.38978L70.4041 12.2348C70.3914 12.2816 70.3704 12.3219 70.3388 12.3495C70.3072 12.3793 70.2629 12.4026 70.2103 12.4217C70.1576 12.4387 70.0881 12.4515 70.0018 12.4578C69.9154 12.4642 69.8143 12.4663 69.6964 12.4663C69.5721 12.4663 69.4668 12.4621 69.3783 12.4536C69.2899 12.4451 69.2183 12.4324 69.1614 12.4132C69.1045 12.3962 69.0603 12.3708 69.0287 12.341C68.9971 12.3113 68.9739 12.2752 68.9634 12.2348L67.1079 5.87639L67.091 5.80419L67.0742 5.87639L65.3429 12.2348C65.3302 12.2816 65.307 12.3219 65.2712 12.3495C65.2354 12.3793 65.187 12.4026 65.1259 12.4217C65.0648 12.4387 64.989 12.4515 64.9006 12.4578C64.8121 12.4642 64.7131 12.4663 64.5994 12.4663C64.4814 12.4663 64.3824 12.4621 64.2982 12.4536C64.216 12.4451 64.1465 12.4324 64.0897 12.4132C64.0328 12.3962 63.9907 12.3708 63.9612 12.341C63.9317 12.3113 63.9106 12.2752 63.9001 12.2348L61.4443 4.38978C61.4274 4.34731 61.4127 4.30696 61.4043 4.26448C61.3958 4.22201 61.3916 4.18803 61.3916 4.1583C61.3916 4.11582 61.4 4.08184 61.419 4.05211C61.4358 4.02238 61.4653 4.00114 61.5075 3.98627C61.5496 3.97141 61.6022 3.96079 61.6654 3.95442C61.7307 3.94805 61.8086 3.94592 61.9034 3.94592C62.0277 3.94592 62.1267 3.95017 62.2046 3.95867C62.2804 3.96716 62.3394 3.9799 62.3773 3.99902C62.4152 4.01601 62.4426 4.04149 62.4616 4.07122C62.4784 4.10096 62.4932 4.13706 62.5058 4.17741L64.6162 11.2133L64.6331 11.2749L64.6499 11.2133L66.5666 4.17741C66.5792 4.13493 66.5939 4.10096 66.615 4.07122C66.6361 4.04149 66.6656 4.01813 66.7035 3.99902C66.7414 3.98203 66.794 3.96716 66.8614 3.95867C66.9288 3.95017 67.0152 3.94592 67.1226 3.94592C67.2237 3.94592 67.3058 3.95017 67.369 3.95867C67.4343 3.96716 67.487 3.9799 67.527 3.99902C67.5691 4.01601 67.5986 4.04149 67.6154 4.07122C67.6323 4.10096 67.647 4.13706 67.6597 4.17741L69.7259 11.2133L69.7427 11.2749L69.7511 11.2133L71.8531 4.17741C71.8658 4.13493 71.8805 4.10096 71.9016 4.07122C71.9226 4.04149 71.9521 4.01813 71.9942 3.99902C72.0364 3.98203 72.0932 3.96716 72.167 3.95867C72.2407 3.95017 72.3354 3.94592 72.4534 3.94592C72.5482 3.94592 72.624 3.94805 72.683 3.95442C72.7419 3.96079 72.7883 3.97141 72.8241 3.99052C72.8599 4.00751 72.8831 4.03087 72.8957 4.05636C72.9168 4.08397 72.921 4.11795 72.921 4.1583Z" fill="white"/>
<path d="M81.4364 12.2348C81.4364 12.2709 81.4279 12.3027 81.409 12.3324C81.3921 12.3622 81.3626 12.3855 81.3247 12.4047C81.2868 12.4216 81.2342 12.4365 81.1668 12.4493C81.0994 12.462 81.0151 12.4662 80.914 12.4662C80.8087 12.4662 80.7202 12.4599 80.6528 12.4493C80.5854 12.4365 80.5328 12.4216 80.4949 12.4047C80.457 12.3877 80.4296 12.3622 80.4106 12.3324C80.3938 12.3027 80.3833 12.2709 80.3833 12.2348V7.45424C80.3833 6.95516 80.3453 6.54953 80.2674 6.23946C80.1916 5.92728 80.0757 5.65969 79.922 5.43882C79.7682 5.21795 79.5724 5.0438 79.3344 4.92275C79.0964 4.8017 78.8183 4.74011 78.5003 4.74011C78.0938 4.74011 77.6873 4.88452 77.2808 5.17548C76.8743 5.46643 76.4468 5.8933 76.0002 6.45821V12.2369C76.0002 12.273 75.9918 12.3048 75.9729 12.3346C75.956 12.3643 75.9265 12.3877 75.8886 12.4068C75.8507 12.4238 75.798 12.4386 75.7306 12.4514C75.6633 12.4641 75.5769 12.4684 75.4695 12.4684C75.3684 12.4684 75.2862 12.462 75.2188 12.4514C75.1514 12.4386 75.0967 12.4238 75.0546 12.4068C75.0124 12.3898 74.9851 12.3643 74.9703 12.3346C74.9556 12.3048 74.9492 12.273 74.9492 12.2369V4.17732C74.9492 4.14122 74.9556 4.10936 74.9703 4.07963C74.9851 4.0499 75.0124 4.02441 75.0546 4.00318C75.0967 3.98194 75.1472 3.96707 75.2083 3.95858C75.2694 3.95008 75.3515 3.94584 75.4505 3.94584C75.5516 3.94584 75.6338 3.95008 75.6969 3.95858C75.7622 3.96707 75.8128 3.98194 75.8465 4.00318C75.8823 4.02441 75.9076 4.0499 75.9223 4.07963C75.9371 4.10936 75.9434 4.14122 75.9434 4.17732V5.31777C76.4025 4.8017 76.8533 4.42792 77.2956 4.19644C77.7379 3.96495 78.176 3.84814 78.6119 3.84814C79.1364 3.84814 79.5766 3.93734 79.9367 4.11573C80.2969 4.29413 80.5855 4.53411 80.8066 4.8378C81.0278 5.1415 81.1857 5.49404 81.2826 5.89754C81.3795 6.30105 81.4279 6.78739 81.4279 7.35867V12.2348H81.4364Z" fill="white"/>
<path d="M85.4002 12.2348C85.4002 12.2709 85.3918 12.3028 85.3729 12.3325C85.356 12.3622 85.3265 12.3856 85.2886 12.4047C85.2507 12.4217 85.198 12.4366 85.1306 12.4493C85.0632 12.4621 84.9769 12.4663 84.8695 12.4663C84.7684 12.4663 84.6862 12.4599 84.6167 12.4493C84.5493 12.4366 84.4946 12.4217 84.4524 12.4047C84.4103 12.3877 84.3829 12.3622 84.3682 12.3325C84.3535 12.3028 84.3471 12.2709 84.3471 12.2348V0.231487C84.3471 0.195383 84.3556 0.163527 84.3682 0.133795C84.3829 0.104063 84.4103 0.078578 84.4524 0.0573407C84.4946 0.0361034 84.5472 0.0212373 84.6167 0.0127424C84.6841 0.00424746 84.7684 0 84.8695 0C84.9748 0 85.0632 0.00424746 85.1306 0.0127424C85.198 0.0212373 85.2507 0.0361034 85.2886 0.0573407C85.3265 0.078578 85.3539 0.104063 85.3729 0.133795C85.3897 0.163527 85.4002 0.195383 85.4002 0.231487V12.2348Z" fill="white"/>
<path d="M95.4152 8.12109C95.4152 8.76246 95.3331 9.35285 95.1688 9.89228C95.0045 10.4317 94.7581 10.9011 94.4316 11.3003C94.1052 11.6975 93.6966 12.0075 93.2079 12.2305C92.7193 12.4535 92.1506 12.5639 91.504 12.5639C90.8806 12.5639 90.333 12.4641 89.8654 12.2666C89.3978 12.067 89.0061 11.7824 88.6901 11.4107C88.3742 11.0391 88.1404 10.591 87.9845 10.0622C87.8287 9.53337 87.7508 8.9366 87.7508 8.27187C87.7508 7.63051 87.8308 7.04011 87.993 6.50068C88.1552 5.96126 88.3995 5.49191 88.7259 5.09902C89.0524 4.70401 89.461 4.39607 89.9496 4.17732C90.4383 3.95858 91.0091 3.84814 91.662 3.84814C92.2854 3.84814 92.833 3.94584 93.3006 4.14122C93.7682 4.3366 94.1578 4.62118 94.4717 4.99071C94.7834 5.36236 95.0193 5.81047 95.1772 6.33928C95.3373 6.86809 95.4152 7.46273 95.4152 8.12109ZM94.3032 8.21878C94.3032 7.76218 94.2589 7.32469 94.1705 6.91056C94.082 6.49431 93.9346 6.12903 93.7282 5.81047C93.5218 5.49191 93.2458 5.24131 92.8983 5.05442C92.5508 4.86753 92.119 4.77409 91.6009 4.77409C91.1249 4.77409 90.7121 4.86116 90.3646 5.03319C90.017 5.20521 89.7327 5.44519 89.5115 5.75101C89.2904 6.05682 89.1282 6.41786 89.0208 6.83199C88.9155 7.24824 88.8628 7.69634 88.8628 8.17631C88.8628 8.63928 88.9071 9.08102 88.9955 9.49939C89.084 9.91777 89.2314 10.2852 89.4378 10.5995C89.6442 10.9138 89.9201 11.1644 90.2677 11.347C90.6152 11.5318 91.047 11.6231 91.5651 11.6231C92.0411 11.6231 92.4539 11.536 92.8014 11.364C93.149 11.192 93.4333 10.9541 93.6545 10.6526C93.8756 10.3489 94.0378 9.98997 94.1452 9.57585C94.2505 9.15747 94.3032 8.70724 94.3032 8.21878Z" fill="white"/>
<path d="M103.372 12.2349C103.372 12.2943 103.354 12.341 103.316 12.3729C103.278 12.4047 103.227 12.4302 103.166 12.4451C103.105 12.46 103.021 12.4663 102.915 12.4663C102.814 12.4663 102.73 12.46 102.658 12.4451C102.587 12.4302 102.534 12.4069 102.494 12.3729C102.456 12.341 102.437 12.2943 102.437 12.2349V11.3344C102.077 11.7252 101.681 12.0289 101.249 12.2433C100.818 12.4578 100.367 12.564 99.9035 12.564C99.4865 12.564 99.1095 12.5088 98.7767 12.3984C98.444 12.2879 98.1638 12.1308 97.9343 11.9269C97.7047 11.723 97.5278 11.4746 97.4035 11.1836C97.2792 10.8927 97.2181 10.5656 97.2181 10.2046C97.2181 9.75858 97.3087 9.37206 97.4919 9.04289C97.6752 8.71371 97.9343 8.43975 98.2691 8.21888C98.604 8.00013 99.0084 7.83448 99.4781 7.72405C99.9499 7.61362 100.472 7.5584 101.049 7.5584H102.321V6.86394C102.321 6.51989 102.286 6.2162 102.216 5.95073C102.145 5.68739 102.031 5.4644 101.871 5.28813C101.713 5.10974 101.506 4.97594 101.252 4.88675C100.997 4.79755 100.689 4.75295 100.325 4.75295C99.9709 4.75295 99.6529 4.79543 99.3707 4.8825C99.0884 4.96957 98.8399 5.06514 98.6293 5.17133C98.4166 5.27751 98.2418 5.3752 98.1049 5.46015C97.9658 5.54723 97.8669 5.5897 97.81 5.5897C97.7742 5.5897 97.7426 5.58333 97.7131 5.57271C97.6836 5.55997 97.6583 5.53873 97.6373 5.50687C97.6162 5.47502 97.6015 5.43254 97.593 5.38157C97.5846 5.33061 97.5804 5.27114 97.5804 5.19893C97.5804 5.07363 97.5888 4.97382 97.6078 4.90161C97.6246 4.82728 97.671 4.75295 97.7447 4.67862C97.8184 4.60429 97.949 4.51722 98.1386 4.41528C98.326 4.31334 98.5429 4.21989 98.7873 4.13494C99.0316 4.04787 99.2949 3.97991 99.5771 3.9247C99.8593 3.86948 100.142 3.84399 100.426 3.84399C100.974 3.84399 101.435 3.90983 101.812 4.04362C102.189 4.17742 102.494 4.36856 102.726 4.61703C102.958 4.86551 103.124 5.17345 103.225 5.53873C103.326 5.90401 103.375 6.31814 103.375 6.78111V12.2349H103.372ZM102.321 8.43337H100.864C100.441 8.43337 100.07 8.4716 99.7519 8.55018C99.4339 8.62663 99.1685 8.73919 98.9579 8.88785C98.7451 9.03651 98.5893 9.21491 98.4861 9.42303C98.3829 9.63116 98.3323 9.86902 98.3323 10.1345C98.3323 10.5975 98.4777 10.967 98.7704 11.2431C99.0611 11.5192 99.4718 11.6572 100.003 11.6572C100.42 11.6572 100.811 11.5489 101.174 11.3323C101.536 11.1156 101.919 10.7822 102.326 10.3299V8.43337H102.321Z" fill="white"/>
<path d="M112.735 12.2348C112.735 12.2772 112.728 12.3112 112.713 12.341C112.699 12.3707 112.671 12.394 112.633 12.4132C112.596 12.4323 112.547 12.445 112.488 12.4535C112.429 12.462 112.355 12.4663 112.267 12.4663C112.172 12.4663 112.094 12.462 112.033 12.4535C111.972 12.445 111.922 12.4323 111.884 12.4132C111.846 12.394 111.816 12.3707 111.795 12.341C111.774 12.3112 111.764 12.2751 111.764 12.2348V11.0773C111.34 11.5403 110.9 11.9035 110.447 12.1689C109.994 12.4323 109.499 12.5661 108.964 12.5661C108.387 12.5661 107.897 12.4535 107.49 12.2284C107.084 12.0033 106.753 11.6975 106.496 11.3109C106.239 10.9244 106.054 10.4721 105.936 9.95388C105.818 9.43357 105.759 8.88352 105.759 8.30162C105.759 7.6199 105.833 7.00402 105.98 6.45397C106.127 5.90393 106.344 5.43671 106.633 5.05231C106.921 4.66579 107.277 4.37059 107.701 4.16247C108.124 3.95434 108.617 3.85028 109.175 3.85028C109.657 3.85028 110.1 3.95859 110.5 4.17521C110.9 4.39183 111.294 4.71039 111.684 5.13301V0.276042C111.684 0.239939 111.69 0.208083 111.705 0.178351C111.719 0.148618 111.747 0.125257 111.789 0.106144C111.831 0.089154 111.884 0.0742879 111.953 0.0615455C112.021 0.0488031 112.105 0.0445557 112.206 0.0445557C112.311 0.0445557 112.4 0.0509269 112.467 0.0615455C112.534 0.0721642 112.587 0.089154 112.625 0.106144C112.663 0.123134 112.69 0.148618 112.709 0.178351C112.726 0.208083 112.737 0.239939 112.737 0.276042V12.2348H112.735ZM111.684 6.41999C111.241 5.88057 110.816 5.46644 110.407 5.18186C109.999 4.89728 109.569 4.75499 109.122 4.75499C108.716 4.75499 108.368 4.85268 108.08 5.04806C107.791 5.24345 107.555 5.50254 107.374 5.82323C107.191 6.14391 107.058 6.50494 106.976 6.91058C106.894 7.31409 106.852 7.72397 106.852 8.14022C106.852 8.5862 106.888 9.01944 106.957 9.43994C107.029 9.86044 107.149 10.2363 107.32 10.5655C107.49 10.8947 107.718 11.1602 108 11.3577C108.282 11.5573 108.636 11.655 109.059 11.655C109.272 11.655 109.476 11.6253 109.678 11.5658C109.879 11.5063 110.085 11.4086 110.298 11.2727C110.51 11.1368 110.729 10.9605 110.955 10.7439C111.182 10.5273 111.424 10.2576 111.684 9.93902V6.41999Z" fill="white"/>
<path d="M126.848 8.12109C126.848 8.76246 126.766 9.35285 126.602 9.89228C126.438 10.4317 126.191 10.9011 125.865 11.3003C125.538 11.6975 125.13 12.0075 124.641 12.2305C124.152 12.4535 123.584 12.5639 122.937 12.5639C122.314 12.5639 121.766 12.4641 121.298 12.2666C120.831 12.067 120.439 11.7824 120.123 11.4107C119.807 11.0391 119.573 10.591 119.418 10.0622C119.262 9.53337 119.184 8.9366 119.184 8.27187C119.184 7.63051 119.264 7.04011 119.426 6.50068C119.588 5.96126 119.832 5.49191 120.159 5.09902C120.485 4.70401 120.894 4.39607 121.383 4.17732C121.871 3.95858 122.442 3.84814 123.095 3.84814C123.718 3.84814 124.266 3.94584 124.734 4.14122C125.201 4.3366 125.591 4.62118 125.905 4.99071C126.216 5.36236 126.452 5.81047 126.61 6.33928C126.768 6.86809 126.848 7.46273 126.848 8.12109ZM125.736 8.21878C125.736 7.76218 125.692 7.32469 125.603 6.91056C125.515 6.49431 125.368 6.12903 125.161 5.81047C124.955 5.49191 124.679 5.24131 124.331 5.05442C123.984 4.86753 123.552 4.77409 123.034 4.77409C122.558 4.77409 122.145 4.86116 121.798 5.03319C121.45 5.20521 121.166 5.44519 120.945 5.75101C120.723 6.05682 120.561 6.41786 120.454 6.83199C120.348 7.24824 120.296 7.69634 120.296 8.17631C120.296 8.63928 120.34 9.08102 120.429 9.49939C120.517 9.91777 120.664 10.2852 120.871 10.5995C121.077 10.9138 121.353 11.1644 121.701 11.347C122.048 11.5297 122.48 11.6231 122.998 11.6231C123.474 11.6231 123.887 11.536 124.234 11.364C124.582 11.192 124.866 10.9541 125.087 10.6526C125.309 10.3489 125.471 9.98997 125.578 9.57585C125.681 9.15747 125.736 8.70724 125.736 8.21878Z" fill="white"/>
<path d="M135.688 12.2348C135.688 12.2709 135.68 12.3027 135.661 12.3324C135.644 12.3622 135.614 12.3855 135.576 12.4047C135.538 12.4216 135.486 12.4365 135.418 12.4493C135.351 12.462 135.267 12.4662 135.168 12.4662C135.062 12.4662 134.974 12.4599 134.907 12.4493C134.839 12.4365 134.787 12.4216 134.749 12.4047C134.711 12.3877 134.683 12.3622 134.664 12.3324C134.647 12.3027 134.637 12.2709 134.637 12.2348V7.45424C134.637 6.95516 134.599 6.54953 134.523 6.23946C134.447 5.92728 134.332 5.65969 134.178 5.43882C134.024 5.21795 133.828 5.0438 133.59 4.92275C133.352 4.8017 133.074 4.74011 132.756 4.74011C132.35 4.74011 131.943 4.88452 131.537 5.17548C131.13 5.46643 130.703 5.8933 130.256 6.45821V12.2369C130.256 12.273 130.248 12.3048 130.229 12.3346C130.212 12.3643 130.182 12.3877 130.144 12.4068C130.107 12.4238 130.054 12.4386 129.986 12.4514C129.919 12.4641 129.833 12.4684 129.725 12.4684C129.624 12.4684 129.542 12.462 129.473 12.4514C129.405 12.4386 129.35 12.4238 129.308 12.4068C129.266 12.3898 129.239 12.3643 129.224 12.3346C129.209 12.3048 129.203 12.273 129.203 12.2369V4.17732C129.203 4.14122 129.209 4.10936 129.224 4.07963C129.239 4.0499 129.266 4.02441 129.308 4.00318C129.35 3.98194 129.401 3.96707 129.462 3.95858C129.523 3.95008 129.605 3.94584 129.704 3.94584C129.805 3.94584 129.887 3.95008 129.951 3.95858C130.016 3.96707 130.067 3.98194 130.1 4.00318C130.136 4.02441 130.161 4.0499 130.176 4.07963C130.191 4.10936 130.197 4.14122 130.197 4.17732V5.31777C130.656 4.8017 131.107 4.42792 131.549 4.19644C131.992 3.96495 132.43 3.84814 132.866 3.84814C133.39 3.84814 133.83 3.93734 134.19 4.11573C134.551 4.29413 134.839 4.53411 135.06 4.8378C135.281 5.1415 135.439 5.49404 135.536 5.89754C135.633 6.30105 135.682 6.78739 135.682 7.35867V12.2348H135.688Z" fill="white"/>
<path d="M146.543 11.7549C146.543 11.8802 146.533 11.98 146.512 12.0586C146.491 12.135 146.459 12.1966 146.415 12.2412C146.371 12.2858 146.305 12.3283 146.221 12.3665C146.135 12.4048 146.038 12.4387 145.926 12.4642C145.815 12.4918 145.697 12.5109 145.572 12.5258C145.448 12.5407 145.328 12.547 145.21 12.547C144.816 12.547 144.479 12.494 144.203 12.3878C143.927 12.2816 143.7 12.1202 143.523 11.9014C143.346 11.6848 143.218 11.4109 143.14 11.0774C143.06 10.744 143.02 10.3532 143.02 9.903V4.88888H141.828C141.745 4.88888 141.68 4.85277 141.634 4.77844C141.587 4.70411 141.562 4.59368 141.562 4.44502C141.562 4.36856 141.568 4.3006 141.579 4.24539C141.592 4.18805 141.608 4.14132 141.632 4.1031C141.655 4.06487 141.682 4.03726 141.716 4.01815C141.747 4.00116 141.785 3.99054 141.825 3.99054H143.018V2.01335C143.018 1.97724 143.026 1.94539 143.039 1.91566C143.051 1.88592 143.081 1.86044 143.123 1.8392C143.165 1.81796 143.218 1.8031 143.287 1.7946C143.355 1.78611 143.439 1.78186 143.54 1.78186C143.645 1.78186 143.734 1.78611 143.801 1.7946C143.868 1.8031 143.921 1.81796 143.959 1.8392C143.997 1.86044 144.024 1.88592 144.043 1.91566C144.06 1.94539 144.071 1.97724 144.071 2.01335V3.99054H146.278C146.32 3.99054 146.356 3.99903 146.387 4.01815C146.419 4.03514 146.449 4.06487 146.472 4.1031C146.495 4.14132 146.514 4.19017 146.524 4.24539C146.537 4.30273 146.541 4.36856 146.541 4.44502C146.541 4.59368 146.516 4.70411 146.465 4.77844C146.415 4.85277 146.352 4.88888 146.276 4.88888H144.069V9.76071C144.069 10.3723 144.155 10.8374 144.33 11.1581C144.502 11.4788 144.82 11.6381 145.28 11.6381C145.421 11.6381 145.549 11.6232 145.663 11.5935C145.779 11.5638 145.88 11.5319 145.968 11.4958C146.057 11.4597 146.133 11.4278 146.194 11.3981C146.255 11.3684 146.31 11.3535 146.358 11.3535C146.387 11.3535 146.415 11.3599 146.438 11.3705C146.461 11.3832 146.48 11.4045 146.495 11.4363C146.51 11.4682 146.522 11.5107 146.531 11.5616C146.539 11.6147 146.543 11.6784 146.543 11.7549Z" fill="white"/>
<path d="M155.118 12.2348C155.118 12.2709 155.109 12.3028 155.09 12.3325C155.073 12.3622 155.044 12.3856 155.006 12.4047C154.968 12.4217 154.915 12.4366 154.848 12.4493C154.781 12.462 154.696 12.4663 154.595 12.4663C154.49 12.4663 154.402 12.4599 154.334 12.4493C154.267 12.4366 154.214 12.4217 154.176 12.4047C154.138 12.3877 154.111 12.3622 154.092 12.3325C154.075 12.3028 154.065 12.2709 154.065 12.2348V7.45429C154.065 6.95522 154.027 6.54958 153.949 6.23952C153.873 5.92733 153.757 5.65974 153.603 5.43887C153.45 5.21588 153.254 5.04386 153.016 4.92281C152.778 4.80175 152.5 4.74017 152.182 4.74017C151.775 4.74017 151.369 4.88458 150.962 5.17553C150.556 5.46648 150.128 5.89335 149.682 6.45826V12.2369C149.682 12.273 149.673 12.3049 149.654 12.3346C149.637 12.3644 149.608 12.3877 149.57 12.4068C149.532 12.4238 149.479 12.4387 149.412 12.4514C149.345 12.4642 149.258 12.4684 149.151 12.4684C149.05 12.4684 148.968 12.462 148.898 12.4514C148.831 12.4387 148.776 12.4238 148.734 12.4068C148.692 12.3898 148.664 12.3644 148.65 12.3346C148.635 12.3049 148.628 12.273 148.628 12.2369V0.231487C148.628 0.195383 148.635 0.163527 148.65 0.133795C148.664 0.104063 148.692 0.078578 148.734 0.0573407C148.776 0.0361034 148.829 0.0212373 148.898 0.0127424C148.972 0.00424746 149.056 0 149.157 0C149.262 0 149.351 0.00424746 149.418 0.0127424C149.486 0.0212373 149.538 0.0361034 149.576 0.0573407C149.614 0.078578 149.642 0.104063 149.661 0.133795C149.677 0.163527 149.688 0.195383 149.688 0.231487V5.2626C150.124 4.77627 150.56 4.41736 150.996 4.19012C151.432 3.96076 151.868 3.8482 152.304 3.8482C152.828 3.8482 153.268 3.9374 153.629 4.11579C153.989 4.29418 154.277 4.53416 154.498 4.83786C154.72 5.14155 154.878 5.49409 154.974 5.8976C155.071 6.30111 155.12 6.78744 155.12 7.35873V12.2348H155.118Z" fill="white"/>
<path d="M164.551 7.79191C164.551 8.00641 164.495 8.15295 164.383 8.23365C164.271 8.31435 164.162 8.3547 164.056 8.3547H158.608C158.608 8.85378 158.656 9.30401 158.753 9.70752C158.85 10.111 159.01 10.4572 159.235 10.746C159.459 11.0348 159.751 11.2557 160.109 11.4086C160.467 11.5615 160.91 11.6401 161.434 11.6401C161.805 11.6401 162.138 11.6083 162.433 11.5424C162.727 11.4766 162.982 11.4044 163.197 11.3237C163.412 11.243 163.589 11.1708 163.728 11.1049C163.867 11.0391 163.966 11.0072 164.023 11.0072C164.059 11.0072 164.09 11.0157 164.12 11.0348C164.149 11.0518 164.172 11.0816 164.191 11.1198C164.208 11.158 164.223 11.2069 164.231 11.2663C164.24 11.3258 164.244 11.4001 164.244 11.4893C164.244 11.5318 164.242 11.57 164.235 11.6104C164.229 11.6486 164.223 11.6847 164.214 11.7166C164.206 11.7484 164.193 11.7803 164.174 11.81C164.158 11.8397 164.132 11.8695 164.103 11.8992C164.073 11.9289 163.983 11.9799 163.829 12.0542C163.675 12.1286 163.475 12.2029 163.229 12.2772C162.982 12.3516 162.694 12.4174 162.367 12.4769C162.041 12.5363 161.689 12.5661 161.312 12.5661C160.693 12.5661 160.147 12.4726 159.669 12.2857C159.193 12.0988 158.791 11.8228 158.469 11.4575C158.144 11.0922 157.9 10.6398 157.731 10.1004C157.563 9.56098 157.479 8.93448 157.479 8.2209C157.479 7.53919 157.565 6.92755 157.74 6.386C157.913 5.84657 158.163 5.38785 158.486 5.00982C158.81 4.6318 159.2 4.3451 159.657 4.14547C160.114 3.94584 160.621 3.84814 161.179 3.84814C161.78 3.84814 162.291 3.95008 162.717 4.15184C163.14 4.35359 163.49 4.62543 163.764 4.96735C164.037 5.30927 164.238 5.70428 164.364 6.15664C164.49 6.60687 164.553 7.08259 164.553 7.58166V7.79191H164.551ZM163.465 7.47972C163.481 6.62386 163.288 5.95701 162.881 5.47705C162.475 4.99708 161.883 4.75498 161.106 4.75498C160.705 4.75498 160.354 4.83143 160.05 4.98222C159.747 5.133 159.49 5.33476 159.282 5.58323C159.073 5.83171 158.913 6.12266 158.799 6.45184C158.688 6.78102 158.622 7.12506 158.606 7.47972H163.465Z" fill="white"/>
<path d="M74.5154 29.6325C74.3026 28.679 73.9509 27.8274 73.4707 27.1053C72.9799 26.3683 72.3397 25.778 71.5625 25.3532C70.7832 24.9263 69.8375 24.7097 68.7507 24.7097C68.2494 24.7097 67.7692 24.7671 67.3206 24.8796C66.8699 24.9943 66.4254 25.1706 66 25.4084C65.583 25.6399 65.1617 25.933 64.7489 26.2792C64.5846 26.4172 64.4161 26.5659 64.2434 26.7251V24.7097H61.6486V46.0001H64.3972V39.2976C64.5214 39.4081 64.6436 39.5121 64.7615 39.6077C65.128 39.9071 65.5029 40.1599 65.8715 40.3595C66.2506 40.5655 66.6466 40.7184 67.0447 40.8161C67.4406 40.9138 67.8682 40.9626 68.3168 40.9626C69.3552 40.9626 70.2945 40.7587 71.1096 40.3595C71.9268 39.9581 72.6219 39.3847 73.1758 38.652C73.7213 37.9299 74.1405 37.0443 74.4185 36.0186C74.6923 35.0119 74.8313 33.8694 74.8313 32.6227C74.8292 31.5715 74.7239 30.5648 74.5154 29.6325ZM71.771 34.9843C71.632 35.6512 71.4108 36.2564 71.1139 36.7831C70.8274 37.2886 70.4546 37.7027 69.9997 38.0128C69.5595 38.3143 69.0392 38.4609 68.4095 38.4609C67.7208 38.4609 67.0763 38.24 66.4381 37.7834C65.7957 37.3247 65.1091 36.6578 64.3972 35.8041V29.9511C64.7931 29.4605 65.1723 29.0421 65.5303 28.7045C65.9136 28.3434 66.2822 28.0461 66.6318 27.8231C66.9667 27.6065 67.2974 27.4515 67.6112 27.3601C67.9272 27.2688 68.2536 27.2221 68.5822 27.2221C69.2309 27.2221 69.7701 27.3686 70.185 27.6575C70.6147 27.959 70.9643 28.3668 71.2234 28.8744C71.4951 29.4053 71.6931 30.0212 71.8089 30.7093C71.929 31.4165 71.99 32.164 71.99 32.9286C71.9879 33.6081 71.9142 34.3026 71.771 34.9843Z" fill="white"/>
<path d="M91.0596 29.6324C90.8448 28.6788 90.4951 27.8272 90.0149 27.1052C89.5263 26.3682 88.8839 25.7778 88.1067 25.3531C87.3274 24.9262 86.3817 24.7096 85.2949 24.7096C84.7936 24.7096 84.3113 24.7669 83.8648 24.8795C83.4141 24.9942 82.9697 25.1704 82.5442 25.4083C82.1272 25.6398 81.7059 25.9329 81.2931 26.279C81.1288 26.4171 80.9582 26.5657 80.7855 26.725V24.7096H78.1907V46H80.9414V39.2975C81.0657 39.4079 81.1857 39.512 81.3058 39.6076C81.6722 39.907 82.0471 40.1597 82.4178 40.3594C82.797 40.5654 83.1908 40.7183 83.5889 40.816C83.9849 40.9137 84.4124 40.9625 84.861 40.9625C85.8994 40.9625 86.8388 40.7586 87.6539 40.3594C88.4711 39.958 89.1661 39.3846 89.7201 38.6519C90.2656 37.9298 90.6847 37.0442 90.9627 36.0185C91.2365 35.0118 91.3755 33.8692 91.3755 32.6226C91.3734 31.5714 91.266 30.5647 91.0596 29.6324ZM88.3131 34.9842C88.1741 35.6511 87.9529 36.2563 87.656 36.783C87.3716 37.2884 86.9967 37.7026 86.5439 38.0126C86.1037 38.3142 85.5835 38.4608 84.9537 38.4608C84.265 38.4608 83.6205 38.2399 82.9823 37.7833C82.3378 37.3246 81.6533 36.6577 80.9414 35.804V29.951C81.3353 29.4604 81.7165 29.042 82.0745 28.7043C82.4558 28.3433 82.8264 28.046 83.1761 27.823C83.511 27.6064 83.8395 27.4513 84.1555 27.36C84.4693 27.2687 84.7979 27.222 85.1264 27.222C85.7751 27.222 86.3143 27.3685 86.7271 27.6573C87.1568 27.9589 87.5064 28.3667 87.7655 28.8742C88.0393 29.4052 88.2352 30.021 88.351 30.7091C88.4711 31.4163 88.53 32.1639 88.53 32.9284C88.53 33.608 88.4563 34.3025 88.3131 34.9842Z" fill="white"/>
<path d="M138.081 26.8822C137.487 26.1771 136.737 25.6313 135.85 25.2597C134.974 24.8944 133.946 24.7075 132.794 24.7075C131.585 24.7075 130.509 24.9156 129.595 25.3277C128.674 25.7418 127.897 26.3279 127.28 27.0734C126.669 27.8124 126.206 28.6959 125.905 29.7025C125.608 30.6922 125.458 31.7859 125.458 32.954C125.458 34.1624 125.603 35.2667 125.888 36.2351C126.178 37.2227 126.627 38.0764 127.221 38.7751C127.819 39.4802 128.571 40.026 129.456 40.404C130.332 40.7757 131.36 40.9647 132.514 40.9647C133.712 40.9647 134.784 40.7544 135.701 40.3361C136.619 39.9177 137.398 39.3252 138.015 38.5734C138.626 37.8301 139.092 36.9445 139.397 35.9399C139.698 34.9503 139.852 33.8566 139.852 32.6864C139.852 31.4865 139.704 30.3885 139.412 29.4201C139.115 28.4347 138.668 27.5809 138.081 26.8822ZM136.992 32.8584C136.992 33.6739 136.903 34.4363 136.726 35.1287C136.556 35.7998 136.29 36.3859 135.936 36.8701C135.593 37.3416 135.142 37.7175 134.599 37.9851C134.054 38.2569 133.388 38.3928 132.621 38.3928C131.787 38.3928 131.088 38.2463 130.545 37.9596C130.003 37.6729 129.567 37.28 129.249 36.7937C128.919 36.2903 128.679 35.6915 128.537 35.014C128.39 34.311 128.314 33.5592 128.314 32.7798C128.314 31.9749 128.403 31.2168 128.58 30.5265C128.75 29.8533 129.018 29.265 129.371 28.7766C129.715 28.3009 130.163 27.9228 130.707 27.6553C131.252 27.3834 131.918 27.2475 132.684 27.2475C133.519 27.2475 134.216 27.3962 134.759 27.6871C135.3 27.9781 135.736 28.3752 136.057 28.8679C136.387 29.3776 136.627 29.9765 136.771 30.6518C136.918 31.3463 136.992 32.0896 136.992 32.8584Z" fill="white"/>
<path d="M52.1643 20.1458H48.8955L42.0819 40.9328H44.8706L46.387 34.9758H54.5823L56.1535 40.9328H58.9779L52.1643 20.1458ZM47.2611 32.4676L50.433 23.3441L53.6829 32.4676H47.2611Z" fill="white"/>
<path d="M112.911 32.5015C112.621 31.8729 112.227 31.3165 111.745 30.8471C111.273 30.3884 110.732 29.9849 110.135 29.6493C109.565 29.3265 108.973 29.0207 108.381 28.7404C107.8 28.4664 107.223 28.1882 106.66 27.9121C106.125 27.6509 105.641 27.3515 105.222 27.0265C104.824 26.7186 104.499 26.3597 104.259 25.9604C104.034 25.5845 103.92 25.1216 103.92 24.58C103.92 24.2105 103.985 23.8537 104.114 23.5224C104.24 23.1953 104.426 22.9192 104.68 22.675C104.935 22.4329 105.264 22.2354 105.66 22.091C106.064 21.9423 106.551 21.868 107.107 21.868C107.682 21.868 108.196 21.9381 108.638 22.0761C109.097 22.2184 109.493 22.3798 109.82 22.554C110.159 22.7345 110.443 22.9001 110.664 23.0445L111.802 20.649C111.669 20.5131 111.441 20.3644 111.085 20.1754C110.759 20.0034 110.386 19.8462 109.978 19.7082C109.571 19.5722 109.135 19.4576 108.684 19.3705C108.223 19.2813 107.762 19.2367 107.309 19.2367C106.416 19.2367 105.582 19.3599 104.832 19.6041C104.07 19.8505 103.402 20.2157 102.852 20.6851C102.296 21.1608 101.858 21.7469 101.553 22.4265C101.247 23.104 101.094 23.877 101.094 24.7223C101.094 25.5888 101.243 26.3554 101.54 26.9989C101.831 27.6318 102.22 28.1903 102.698 28.6618C103.164 29.1205 103.699 29.5262 104.289 29.8681C104.857 30.1973 105.445 30.5052 106.039 30.7877C106.618 31.0616 107.195 31.3398 107.749 31.6159C108.28 31.8793 108.76 32.1745 109.175 32.493C109.569 32.7967 109.889 33.1535 110.129 33.5506C110.355 33.9265 110.468 34.3895 110.468 34.9311C110.468 35.4705 110.373 35.9526 110.188 36.3667C110.005 36.7766 109.744 37.127 109.415 37.4052C109.078 37.6898 108.667 37.9128 108.198 38.0657C107.715 38.2228 107.176 38.3014 106.595 38.3014C105.866 38.3014 105.224 38.2165 104.683 38.0466C104.124 37.8724 103.64 37.6813 103.244 37.4795C102.844 37.2757 102.515 37.0845 102.269 36.9146L101.702 39.7859C102.027 39.9685 102.427 40.1491 102.892 40.3253C103.358 40.4995 103.891 40.6503 104.48 40.7756C105.079 40.9009 105.721 40.9646 106.391 40.9646C107.376 40.9646 108.303 40.8244 109.141 40.5505C109.992 40.2722 110.738 39.8602 111.361 39.3293C111.989 38.792 112.484 38.1294 112.831 37.3606C113.179 36.5939 113.354 35.719 113.354 34.759C113.358 33.8989 113.206 33.1408 112.911 32.5015Z" fill="white"/>
<path d="M122.396 38.208C122.259 38.2632 122.097 38.3142 121.915 38.363C121.751 38.4055 121.562 38.4267 121.351 38.4267C120.502 38.4267 120.216 38.0784 120.075 37.8172C119.807 37.3224 119.67 36.5685 119.67 35.5724V27.4513H123.015V24.9602H119.67V21.9338L116.92 23.155V24.9602H115.428V27.4513H116.92V35.823C116.92 36.6492 116.995 37.3819 117.143 37.9977C117.299 38.6476 117.556 39.1955 117.909 39.6288C118.27 40.0705 118.735 40.4039 119.293 40.6184C119.83 40.8265 120.481 40.9306 121.227 40.9306C121.45 40.9306 121.684 40.9157 121.918 40.8881C122.151 40.8605 122.377 40.8202 122.589 40.7692C122.813 40.7161 123.015 40.6481 123.19 40.5696L122.766 38.0445C122.667 38.0933 122.543 38.1485 122.396 38.208Z" fill="white"/>
<path d="M149.34 24.7096C149.3 24.7096 149.262 24.7075 149.227 24.7075C148.881 24.7075 148.538 24.7479 148.209 24.8307C147.866 24.9156 147.514 25.0749 147.163 25.3064C146.823 25.5294 146.465 25.8395 146.101 26.2302C145.989 26.3492 145.876 26.4787 145.758 26.621V24.7075H143.102V40.9307H145.852V30.4628C146.213 29.8873 146.545 29.3925 146.842 28.9911C147.15 28.577 147.443 28.2435 147.716 27.9972C147.976 27.7636 148.222 27.5937 148.445 27.4939C148.66 27.3983 148.869 27.3516 149.088 27.3516C149.151 27.3516 149.218 27.3537 149.298 27.3601L149.781 27.3962V24.7203L149.34 24.7096Z" fill="white"/>
<path d="M163.107 37.4392C163.043 37.4647 162.978 37.4945 162.906 37.5284C162.675 37.6367 162.374 37.762 162.009 37.898C161.651 38.0318 161.219 38.1549 160.724 38.2654C160.24 38.3737 159.682 38.4268 159.065 38.4268C158.207 38.4268 157.483 38.3015 156.908 38.0551C156.35 37.8151 155.891 37.469 155.547 37.0251C155.196 36.5728 154.939 36.0163 154.783 35.3707C154.65 34.8207 154.572 34.2112 154.547 33.5486H163.682C163.962 33.5486 164.244 33.4487 164.518 33.2534C164.84 33.0219 165.002 32.6375 165.002 32.1065V31.7306C165.002 30.8153 164.884 29.9297 164.65 29.0993C164.412 28.2499 164.029 27.4917 163.511 26.8439C162.989 26.192 162.315 25.6674 161.51 25.2851C160.708 24.9029 159.732 24.7096 158.612 24.7096C157.569 24.7096 156.607 24.8986 155.752 25.2724C154.89 25.6483 154.143 26.2005 153.53 26.9119C152.923 27.6191 152.451 28.4856 152.127 29.4901C151.809 30.4819 151.647 31.616 151.647 32.8605C151.647 34.1538 151.803 35.3134 152.11 36.303C152.424 37.3118 152.891 38.1719 153.502 38.86C154.117 39.5545 154.886 40.0854 155.79 40.4379C156.678 40.7862 157.706 40.9625 158.844 40.9625C159.53 40.9625 160.183 40.9073 160.781 40.799C161.371 40.6928 161.898 40.5696 162.346 40.4337C162.635 40.3466 162.885 40.2617 163.107 40.1746V37.4392ZM154.854 29.8936C155.031 29.3691 155.29 28.904 155.619 28.5111C155.945 28.1224 156.352 27.8039 156.828 27.566C157.298 27.3324 157.854 27.2135 158.486 27.2135C159.726 27.2135 160.638 27.5766 161.268 28.3242C161.836 28.9974 162.144 29.9297 162.184 31.1041H154.576C154.629 30.6879 154.722 30.2844 154.854 29.8936Z" fill="white"/>
</g>
<defs>
<clipPath id="clip0_906_787">
<rect width="165" height="46" fill="white"/>
</clipPath>
</defs>
</svg>
