<svg width="189" height="43" viewBox="0 0 189 43" fill="none" xmlns="http://www.w3.org/2000/svg">
<g clip-path="url(#clip0_906_1042)">
<path d="M28.8713 14.366L21.9589 21.2652L1.6676 0.503069C2.68525 -0.112 4.01127 -0.209743 5.18548 0.476845L28.8713 14.366Z" fill="#00F076"/>
<path d="M29.0421 28.5364L5.1855 42.5233C3.75985 43.3601 2.10647 43.0358 1.05798 42.0298L21.9589 21.2653L29.0421 28.5364Z" fill="#F73448"/>
<path d="M35.9355 24.4931L29.0966 28.503L29.0421 28.534L21.9589 21.2652L28.8713 14.366L28.9258 14.397L35.9355 18.507C38.2151 19.8444 38.2151 23.1557 35.9355 24.4931Z" fill="#FFCA00"/>
<path d="M1.05797 42.0298C1.04374 42.0154 1.02951 42.0011 1.01527 41.9868C0.396147 41.3742 0 40.5207 0 39.5289V3.47112C0 2.18615 0.66657 1.13242 1.61543 0.534044C1.63203 0.524508 1.65101 0.512588 1.66761 0.503052L21.9589 21.2652L1.05797 42.0298Z" fill="#00D2FF"/>
<path d="M76.6959 26.4098H73.9324H66.7733V29.1728H73.7308C72.8982 32.2505 70.099 34.5129 66.7733 34.5129C62.7905 34.5129 59.562 31.2683 59.562 27.2656C59.562 23.2629 62.7905 20.0183 66.7733 20.0183C68.6568 20.0183 70.3695 20.743 71.6528 21.9303L73.5979 19.9754C71.8165 18.2875 69.4135 17.2552 66.7733 17.2552C61.2723 17.2552 56.8151 21.7371 56.8151 27.2632C56.8151 32.7917 61.2747 37.2712 66.7733 37.2712C72.2743 37.2712 76.7315 32.7893 76.7315 27.2632C76.7339 26.9772 76.7197 26.6935 76.6959 26.4098Z" fill="white"/>
<path d="M84.5335 24.3405C81.0156 24.3405 78.1643 27.2251 78.1643 30.782C78.1643 34.3413 81.0156 37.2235 84.5335 37.2235C88.0514 37.2235 90.9027 34.3389 90.9027 30.782C90.9027 27.2251 88.0514 24.3405 84.5335 24.3405ZM84.5335 34.6679C82.6073 34.6679 81.0488 32.9753 81.0488 30.8869C81.0488 28.7985 82.6097 27.1059 84.5335 27.1059C86.4597 27.1059 88.0182 28.7985 88.0182 30.8869C88.0205 32.9753 86.4597 34.6679 84.5335 34.6679Z" fill="white"/>
<path d="M98.7046 24.3405C95.1868 24.3405 92.3354 27.2251 92.3354 30.782C92.3354 34.3413 95.1868 37.2235 98.7046 37.2235C102.223 37.2235 105.074 34.3389 105.074 30.782C105.074 27.2251 102.223 24.3405 98.7046 24.3405ZM98.7046 34.6679C96.7785 34.6679 95.22 32.9753 95.22 30.8869C95.22 28.7985 96.7808 27.1059 98.7046 27.1059C100.631 27.1059 102.189 28.7985 102.189 30.8869C102.189 32.9753 100.631 34.6679 98.7046 34.6679Z" fill="white"/>
<path d="M122.481 17.2577H119.731V37.4811H122.481V17.2577Z" fill="white"/>
<path d="M133.781 32.4365C133.369 33.2876 132.657 33.9479 131.779 34.2936C130.847 34.6607 129.827 34.6417 128.909 34.2364C128.325 33.9789 127.825 33.5879 127.445 33.0945L136.785 29.4183L136.64 28.9296C136.588 28.7484 136.526 28.572 136.46 28.4004C135.826 26.7769 134.602 25.4991 133.013 24.8006C131.423 24.102 129.659 24.0687 128.043 24.7028C126.428 25.3393 125.156 26.5695 124.461 28.1667C123.766 29.764 123.733 31.5377 124.364 33.1612C124.997 34.7847 126.221 36.0625 127.811 36.761C128.646 37.1282 129.528 37.3117 130.411 37.3117C131.212 37.3117 132.012 37.1615 132.78 36.8588C134.327 36.2509 135.57 35.0851 136.282 33.576L136.526 33.0587L134.016 31.9549L133.781 32.4365ZM132.918 27.9784L126.672 30.4363C126.708 30.0406 126.81 29.6472 126.973 29.2729C127.374 28.3503 128.11 27.6399 129.042 27.2728C129.485 27.0987 129.948 27.0129 130.406 27.0129C131.326 27.0153 132.225 27.3538 132.918 27.9784Z" fill="white"/>
<path d="M115.549 24.3405V25.4752C114.619 24.76 113.493 24.3405 112.278 24.3405C109.09 24.3405 106.507 27.2251 106.507 30.782C106.507 34.3413 109.09 37.2235 112.278 37.2235C113.493 37.2235 114.619 36.8039 115.549 36.0887V37.4786C115.549 38.2749 114.98 40.4848 112.385 40.4848C109.792 40.4848 109.061 38.1557 109.061 38.1557L106.571 39.3214C106.571 39.3214 107.508 42.9975 112.634 42.9975C115.409 42.9975 116.842 41.3788 117.57 39.8936C118.064 38.8876 118.301 37.7742 118.301 36.6514V24.3405H115.549ZM112.278 34.6679C110.534 34.6679 109.118 32.9753 109.118 30.8869C109.118 28.7985 110.532 27.1059 112.278 27.1059C114.022 27.1059 115.438 28.7985 115.438 30.8869C115.435 32.9753 114.022 34.6679 112.278 34.6679Z" fill="white"/>
<path d="M149.058 17.2577H146.309V37.4811H149.058V17.2577Z" fill="white"/>
<path d="M152.906 17.2577V20.0207C154.832 20.0207 156.39 21.7134 156.39 23.8017C156.39 25.8901 154.829 27.5827 152.906 27.5827V30.1408C156.423 30.1408 159.275 27.2561 159.275 23.6992C159.275 20.1423 156.423 17.2577 152.906 17.2577Z" fill="white"/>
<path d="M152.906 17.2577H148.289V20.0207H152.906V17.2577Z" fill="white"/>
<path d="M152.906 27.5851H148.289V30.1431H152.906V27.5851Z" fill="white"/>
<path d="M163.454 17.2577H160.705V37.4811H163.454V17.2577Z" fill="white"/>
<path d="M172.438 35.7145L172.775 35.3497V37.2831H175.087V28.9368C175.087 28.1596 174.995 27.4826 174.812 26.9199C174.634 26.3716 174.347 25.921 173.958 25.5754C173.567 25.2273 173.057 24.9651 172.443 24.7934C171.816 24.6194 171.05 24.5336 170.161 24.5336C169.662 24.5336 169.174 24.5741 168.704 24.6552C168.234 24.7362 167.795 24.8411 167.399 24.9698C167.055 25.0795 166.745 25.2011 166.477 25.3274L166.624 27.5159C166.792 27.4301 166.984 27.3395 167.195 27.2442C167.532 27.094 167.924 26.9533 168.36 26.8293C168.804 26.703 169.314 26.6386 169.876 26.6386C170.31 26.6386 170.68 26.6863 170.979 26.7769C171.292 26.8746 171.548 27.0272 171.74 27.2346C171.93 27.4396 172.068 27.6995 172.151 28.0023C172.229 28.2931 172.267 28.6316 172.267 29.0131V29.9142H170.941C169.928 29.9142 169.027 29.9929 168.263 30.1455C167.508 30.2981 166.873 30.5317 166.372 30.844C165.881 31.1515 165.506 31.5425 165.26 32.0098C165.011 32.4794 164.885 33.0444 164.885 33.6881C164.885 34.2841 164.985 34.8109 165.179 35.2544C165.374 35.6954 165.651 36.0697 166.005 36.3653C166.36 36.6657 166.787 36.8945 167.276 37.0471C167.769 37.2021 168.322 37.2808 168.915 37.2808C169.627 37.2808 170.284 37.1425 170.867 36.8683C171.451 36.5965 171.98 36.208 172.438 35.7145ZM170.998 34.9707C170.583 35.2234 170.123 35.3521 169.629 35.3521C169.036 35.3521 168.562 35.1948 168.218 34.8848C167.869 34.5678 167.691 34.1339 167.691 33.5903C167.691 33.2733 167.753 32.9872 167.874 32.7393C167.997 32.4866 168.192 32.2696 168.455 32.0932C168.709 31.9239 169.038 31.7952 169.432 31.7118C169.817 31.6307 170.284 31.5902 170.825 31.5902H172.267V33.8454L172.217 33.9003C171.809 34.3675 171.399 34.7275 170.998 34.9707Z" fill="white"/>
<path d="M186.004 24.5574L183.995 29.2276L182.761 32.0979L181.924 30.1526L179.516 24.5574H176.52L180.427 33.6332L181.298 35.6572L179.03 41.2238H182.026L183.997 36.1865L185.494 32.7082L189 24.5574H186.004Z" fill="white"/>
<path d="M73.4959 9.72666C73.4959 9.79341 73.4912 9.85301 73.4817 9.90546C73.4722 9.9579 73.4556 10.0008 73.4319 10.0366C73.4082 10.0723 73.3821 10.1009 73.3512 10.1176C73.3204 10.1367 73.2872 10.1439 73.2516 10.1439H68.5856C68.4931 10.1439 68.3982 10.1081 68.3009 10.039C68.2037 9.96982 68.1539 9.84109 68.1539 9.65514V0.619821C68.1539 0.43387 68.2037 0.307519 68.3009 0.235999C68.3982 0.166863 68.4931 0.131104 68.5856 0.131104H73.1828C73.2184 0.131104 73.2516 0.140639 73.2824 0.157327C73.3133 0.176399 73.3394 0.202623 73.3583 0.238383C73.3797 0.274143 73.3939 0.319439 73.4034 0.37427C73.4129 0.429102 73.4176 0.491086 73.4176 0.564989C73.4176 0.631741 73.4129 0.691341 73.4034 0.743789C73.3939 0.796236 73.3773 0.836764 73.3583 0.872524C73.337 0.9059 73.3133 0.932124 73.2824 0.948812C73.2516 0.967883 73.2184 0.975035 73.1828 0.975035H69.0932V4.49619H72.6206C72.6609 4.49619 72.6965 4.50572 72.7273 4.52241C72.7582 4.54148 72.7843 4.56532 72.8033 4.5987C72.8246 4.63207 72.8388 4.67499 72.8483 4.72982C72.8578 4.78465 72.8626 4.84663 72.8626 4.92054C72.8626 4.98729 72.8578 5.0445 72.8483 5.09457C72.8388 5.14463 72.8222 5.18278 72.8033 5.21377C72.7819 5.24476 72.7582 5.2686 72.7273 5.2829C72.6965 5.29721 72.6609 5.30674 72.6206 5.30674H69.0932V9.29992H73.2516C73.2872 9.29992 73.3204 9.30946 73.3512 9.32615C73.3821 9.34522 73.4082 9.36906 73.4319 9.40243C73.4556 9.43581 73.4722 9.47872 73.4817 9.53356C73.4912 9.59077 73.4959 9.65514 73.4959 9.72666Z" fill="white"/>
<path d="M81.8957 0.564989C81.8957 0.631741 81.8909 0.691341 81.8814 0.743789C81.8719 0.796236 81.8553 0.836764 81.8364 0.872524C81.815 0.9059 81.7913 0.932124 81.7605 0.948812C81.7296 0.967883 81.6964 0.975035 81.6608 0.975035H78.6885V9.9889C78.6885 10.0199 78.6814 10.0485 78.6648 10.0747C78.6482 10.1009 78.6245 10.12 78.5889 10.1367C78.5533 10.151 78.5035 10.1653 78.4418 10.1748C78.3802 10.1844 78.3066 10.1892 78.2189 10.1892C78.1311 10.1892 78.0575 10.1844 77.9959 10.1748C77.9342 10.1653 77.8844 10.151 77.8488 10.1367C77.8132 10.1224 77.7871 10.1009 77.7729 10.0747C77.7587 10.0485 77.7492 10.0199 77.7492 9.9889V0.975035H74.7769C74.7366 0.975035 74.701 0.9655 74.6725 0.948812C74.644 0.92974 74.6203 0.9059 74.599 0.872524C74.5776 0.839148 74.5634 0.796236 74.5539 0.743789C74.5444 0.691341 74.5397 0.631741 74.5397 0.564989C74.5397 0.49347 74.5444 0.429102 74.5539 0.37427C74.5634 0.319439 74.58 0.274143 74.599 0.238383C74.6203 0.202623 74.644 0.174015 74.6725 0.157327C74.701 0.138255 74.7342 0.131104 74.7769 0.131104H81.6608C81.6964 0.131104 81.7296 0.140639 81.7605 0.157327C81.7913 0.176399 81.8174 0.202623 81.8364 0.238383C81.8577 0.274143 81.8719 0.319439 81.8814 0.37427C81.8909 0.429102 81.8957 0.49347 81.8957 0.564989Z" fill="white"/>
<path d="M87.9873 9.9889C87.9873 10.0199 87.9802 10.0485 87.9636 10.0747C87.9494 10.101 87.9233 10.12 87.8877 10.1367C87.8521 10.151 87.8047 10.1653 87.7454 10.1749C87.686 10.1844 87.6101 10.1892 87.5176 10.1892C87.4299 10.1892 87.3563 10.1844 87.2946 10.1749C87.233 10.1653 87.1832 10.151 87.1476 10.1367C87.112 10.1224 87.0859 10.101 87.0717 10.0747C87.0574 10.0485 87.0479 10.0199 87.0479 9.9889V0.28607C87.0479 0.255079 87.0574 0.226471 87.074 0.200247C87.093 0.174023 87.1191 0.154951 87.1594 0.138263C87.1974 0.123959 87.2472 0.109655 87.3065 0.100119C87.3658 0.0905834 87.437 0.0858154 87.5176 0.0858154C87.6101 0.0858154 87.686 0.0905834 87.7454 0.100119C87.8047 0.109655 87.8521 0.123959 87.8877 0.138263C87.9233 0.152567 87.9494 0.174023 87.9636 0.200247C87.9778 0.226471 87.9873 0.255079 87.9873 0.28607V9.9889Z" fill="white"/>
<path d="M96.9326 0.564989C96.9326 0.631741 96.9279 0.691341 96.9184 0.743789C96.9089 0.796236 96.8923 0.836764 96.8733 0.872524C96.852 0.9059 96.8282 0.932124 96.7974 0.948812C96.7666 0.967883 96.7334 0.975035 96.6978 0.975035H93.7231V9.9889C93.7231 10.0199 93.716 10.0485 93.6994 10.0747C93.6852 10.1009 93.6591 10.12 93.6235 10.1367C93.5879 10.151 93.5381 10.1653 93.4764 10.1748C93.4147 10.1844 93.3412 10.1892 93.2534 10.1892C93.1657 10.1892 93.0921 10.1844 93.0305 10.1748C92.9688 10.1653 92.919 10.151 92.8834 10.1367C92.8478 10.1224 92.8217 10.1009 92.8075 10.0747C92.7932 10.0485 92.7838 10.0199 92.7838 9.9889V0.975035H89.8115C89.7711 0.975035 89.7356 0.9655 89.7071 0.948812C89.6786 0.92974 89.6549 0.9059 89.6336 0.872524C89.6122 0.839148 89.598 0.796236 89.5885 0.743789C89.579 0.691341 89.5742 0.631741 89.5742 0.564989C89.5742 0.49347 89.579 0.429102 89.5885 0.37427C89.598 0.319439 89.6146 0.274143 89.6336 0.238383C89.6549 0.202623 89.6786 0.174015 89.7071 0.157327C89.7356 0.138255 89.7688 0.131104 89.8115 0.131104H96.6954C96.731 0.131104 96.7642 0.140639 96.795 0.157327C96.8259 0.176399 96.852 0.202623 96.8709 0.238383C96.8923 0.274143 96.9065 0.319439 96.916 0.37427C96.9279 0.429102 96.9326 0.49347 96.9326 0.564989Z" fill="white"/>
<path d="M110.1 5.02301C110.1 5.82164 110.01 6.54638 109.828 7.19244C109.645 7.84088 109.372 8.39158 109.007 8.84931C108.642 9.30703 108.184 9.65748 107.629 9.90541C107.074 10.1533 106.428 10.2773 105.688 10.2773C104.948 10.2773 104.315 10.1605 103.783 9.92449C103.252 9.69086 102.816 9.35471 102.474 8.91844C102.132 8.48217 101.881 7.95054 101.72 7.32117C101.558 6.6918 101.478 5.98137 101.478 5.19227C101.478 4.40794 101.568 3.69512 101.748 3.05622C101.928 2.41731 102.201 1.87137 102.569 1.41842C102.937 0.967842 103.394 0.617396 103.947 0.369461C104.5 0.121526 105.147 -0.00244141 105.892 -0.00244141C106.616 -0.00244141 107.242 0.114374 107.771 0.345621C108.3 0.576868 108.736 0.910626 109.083 1.34451C109.429 1.7784 109.685 2.30288 109.854 2.92271C110.017 3.54493 110.1 4.24344 110.1 5.02301ZM109.099 5.10645C109.099 4.51283 109.045 3.95736 108.933 3.44004C108.822 2.92271 108.642 2.46975 108.388 2.08593C108.134 1.70211 107.797 1.39934 107.375 1.18002C106.955 0.96069 106.433 0.851026 105.812 0.851026C105.195 0.851026 104.675 0.965458 104.253 1.19432C103.828 1.42318 103.484 1.7331 103.221 2.11931C102.958 2.50551 102.766 2.95847 102.652 3.47341C102.538 3.98836 102.479 4.53429 102.479 5.10645C102.479 5.71436 102.531 6.28175 102.638 6.80385C102.742 7.32832 102.922 7.78366 103.174 8.16987C103.425 8.55608 103.762 8.85884 104.182 9.07817C104.602 9.2975 105.128 9.40716 105.759 9.40716C106.386 9.40716 106.912 9.29035 107.337 9.05433C107.764 8.8207 108.108 8.50601 108.369 8.11027C108.63 7.71453 108.817 7.25919 108.931 6.73948C109.042 6.22454 109.099 5.6786 109.099 5.10645Z" fill="white"/>
<path d="M119.556 9.68848C119.556 9.78145 119.541 9.85774 119.513 9.91973C119.485 9.98171 119.449 10.0318 119.406 10.0699C119.364 10.1081 119.314 10.1367 119.259 10.151C119.205 10.1653 119.155 10.1748 119.11 10.1748H118.918C118.816 10.1748 118.721 10.1629 118.638 10.1367C118.552 10.1104 118.472 10.0651 118.391 10.0008C118.31 9.93641 118.232 9.85059 118.151 9.74093C118.071 9.63365 117.983 9.49299 117.886 9.32373L114.375 3.07053C114.199 2.76538 114.024 2.45307 113.848 2.13123C113.67 1.8094 113.502 1.49471 113.343 1.19194H113.336C113.341 1.56861 113.343 1.95482 113.343 2.34818C113.343 2.74154 113.343 3.12774 113.343 3.50441V9.98886C113.343 10.0199 113.336 10.0485 113.319 10.0747C113.305 10.1009 113.279 10.12 113.243 10.1367C113.208 10.151 113.16 10.1653 113.101 10.1748C113.042 10.1843 112.966 10.1891 112.873 10.1891C112.786 10.1891 112.712 10.1843 112.65 10.1748C112.589 10.1653 112.539 10.151 112.503 10.1367C112.468 10.1224 112.442 10.1009 112.427 10.0747C112.413 10.0485 112.404 10.0199 112.404 9.98886V0.619785C112.404 0.433834 112.454 0.307483 112.551 0.235963C112.648 0.166828 112.743 0.131068 112.835 0.131068H113.22C113.343 0.131068 113.445 0.140604 113.528 0.16206C113.611 0.183516 113.685 0.216891 113.751 0.266955C113.818 0.317019 113.884 0.386155 113.948 0.476746C114.012 0.567338 114.083 0.681769 114.159 0.820041L116.847 5.60947C117.015 5.90986 117.176 6.19593 117.328 6.47248C117.48 6.74902 117.627 7.01841 117.772 7.28542C117.917 7.55004 118.059 7.81228 118.199 8.06975C118.341 8.32722 118.479 8.58708 118.619 8.8517H118.626C118.621 8.41781 118.619 7.96724 118.619 7.49759C118.619 7.02795 118.619 6.57737 118.619 6.14349V0.317019C118.619 0.286027 118.626 0.257419 118.642 0.231195C118.659 0.204971 118.683 0.183516 118.718 0.164444C118.754 0.145372 118.801 0.133452 118.861 0.1263C118.92 0.119148 118.996 0.11438 119.088 0.11438C119.171 0.11438 119.243 0.119148 119.304 0.1263C119.366 0.133452 119.416 0.147756 119.451 0.164444C119.487 0.183516 119.513 0.204971 119.532 0.231195C119.546 0.257419 119.556 0.286027 119.556 0.317019V9.68848Z" fill="white"/>
<path d="M56.8151 5.13023C56.8151 7.83129 59.0022 10.0293 61.6898 10.0293C64.3774 10.0293 66.5645 7.83129 66.5645 5.13023C66.5645 5.0611 66.5622 4.99196 66.5598 4.92283H61.9199V5.87642H65.5564L65.4781 6.16965C65.0155 7.88136 63.457 9.07812 61.6898 9.07812C59.524 9.07812 57.7639 7.3092 57.7639 5.13262C57.7639 2.95604 59.524 1.18712 61.6898 1.18712C62.6031 1.18712 63.4784 1.50419 64.1805 2.0835L64.8542 1.40644C63.9718 0.648336 62.8569 0.233522 61.6898 0.233522C59.0022 0.231138 56.8151 2.42918 56.8151 5.13023Z" fill="white"/>
</g>
<defs>
<clipPath id="clip0_906_1042">
<rect width="189" height="43" fill="white"/>
</clipPath>
</defs>
</svg>
