<svg width="163" height="163" viewBox="0 0 163 163" fill="none" xmlns="http://www.w3.org/2000/svg">
    <rect opacity="0.14" width="163" height="163" rx="30" fill="#00FAAF"/>
    <path d="M146.018 83.489C144.078 91.4963 136.195 96.3695 128.412 94.3726C120.631 92.3763 115.895 84.2657 117.836 76.2589C119.776 68.2506 127.658 63.377 135.439 65.3733C143.222 67.3697 147.958 75.4812 146.018 83.489Z" fill="#00BAA4"/>
    <path d="M138.332 77.7437C138.621 75.7548 137.149 74.6856 135.137 73.9724L135.79 71.2782L134.196 70.8695L133.56 73.4927C133.141 73.3852 132.711 73.2839 132.283 73.1835L132.923 70.543L131.33 70.1343L130.677 72.8275C130.33 72.7462 129.99 72.6659 129.659 72.5814L129.661 72.573L127.463 72.0082L127.039 73.7598C127.039 73.7598 128.221 74.0387 128.197 74.056C128.842 74.2218 128.959 74.6613 128.939 75.0098L128.196 78.079C128.24 78.0907 128.298 78.1075 128.361 78.1337C128.308 78.1201 128.251 78.1052 128.193 78.0907L127.151 82.3903C127.072 82.5921 126.871 82.8947 126.42 82.7798C126.436 82.8036 125.262 82.4823 125.262 82.4823L124.47 84.3595L126.544 84.8915C126.93 84.991 127.309 85.0952 127.681 85.1933L127.021 87.9183L128.613 88.327L129.267 85.6309C129.701 85.7524 130.124 85.8645 130.537 85.9701L129.886 88.6535L131.48 89.0622L132.139 86.3423C134.857 86.8715 136.901 86.6581 137.761 84.1288C138.455 82.0923 137.727 80.9175 136.297 80.1515C137.338 79.9044 138.123 79.1996 138.332 77.7437ZM134.69 82.998C134.198 85.0345 130.865 83.9335 129.785 83.6575L130.66 80.0473C131.74 80.3248 135.205 80.8741 134.69 82.998ZM135.183 77.7142C134.734 79.5667 131.96 78.6255 131.06 78.3948L131.854 75.1205C132.754 75.3512 135.651 75.7819 135.183 77.7142Z" fill="white"/>
    <path d="M49.5799 78.4244C49.5799 86.9171 42.6952 93.8018 34.2026 93.8018C25.7099 93.8018 18.8252 86.9171 18.8252 78.4244C18.8252 69.9317 25.7099 63.0471 34.2026 63.0471C42.6952 63.0471 49.5799 69.9317 49.5799 78.4244Z" fill="#00BAA4"/>
    <path d="M33.5047 87.6508V85.8632C32.5138 85.7222 31.6679 85.357 30.967 84.7676C30.2661 84.1781 29.8069 83.4156 29.5894 82.4802L30.967 81.9804C31.112 82.6083 31.4141 83.1337 31.8733 83.5566C32.3325 83.9667 32.8763 84.2294 33.5047 84.3447V79.52C32.9488 79.3791 32.4836 79.2317 32.1089 79.0779C31.7343 78.9242 31.3476 78.7127 30.9488 78.4436C30.5501 78.1745 30.248 77.8221 30.0425 77.3864C29.8371 76.9379 29.7344 76.4125 29.7344 75.8102C29.7344 74.7466 30.0727 73.8881 30.7495 73.2345C31.4383 72.5682 32.3567 72.1902 33.5047 72.1005V70.7357H34.7554V72.1389C35.7101 72.267 36.5197 72.6259 37.1844 73.2153C37.849 73.8048 38.2841 74.5737 38.4895 75.5219L37.1119 76.0217C36.9669 75.381 36.6829 74.862 36.2599 74.4647C35.8491 74.0547 35.3476 73.7856 34.7554 73.6574V78.3283C35.3355 78.4564 35.8128 78.591 36.1874 78.7319C36.562 78.8601 36.9729 79.0587 37.42 79.3278C37.8792 79.5969 38.2236 79.9685 38.4532 80.4427C38.6949 80.904 38.8158 81.455 38.8158 82.0957C38.8158 83.249 38.4472 84.1589 37.7101 84.8252C36.985 85.4788 36.0001 85.8376 34.7554 85.9016V87.6508H33.5047ZM33.5047 78.0207V73.5805C32.8521 73.6574 32.3265 73.8945 31.9277 74.2917C31.5289 74.6762 31.3295 75.1631 31.3295 75.7526C31.3295 76.3933 31.5168 76.8803 31.8914 77.2134C32.266 77.5466 32.8038 77.8157 33.5047 78.0207ZM34.7554 84.4216C35.5288 84.3575 36.1391 84.1396 36.5862 83.768C37.0333 83.3836 37.2569 82.8326 37.2569 82.115C37.2569 81.4358 37.0394 80.936 36.6043 80.6157C36.1814 80.2953 35.5651 80.039 34.7554 79.8468V84.4216Z" fill="white"/>
    <path d="M130.693 57.8508C131.5 58.0381 132.306 57.5357 132.494 56.7287L135.545 43.5782C135.733 42.7712 135.23 41.9652 134.423 41.778C133.616 41.5907 132.81 42.093 132.623 42.9L129.91 54.5894L118.221 51.8766C117.414 51.6894 116.608 52.1917 116.421 52.9987C116.233 53.8057 116.736 54.6117 117.543 54.799L130.693 57.8508ZM32.6844 53.6426C32.219 54.3279 32.3972 55.2608 33.0826 55.7262C33.7679 56.1916 34.7008 56.0133 35.1662 55.328L32.6844 53.6426ZM96.4759 32.5309C110.865 36.3864 122.456 45.4648 129.759 57.1831L132.305 55.5962C124.615 43.258 112.404 33.6931 97.2523 29.6331L96.4759 32.5309ZM35.1662 55.328C48.2883 36.0061 72.6468 26.1459 96.4759 32.5309L97.2523 29.6331C72.152 22.9075 46.5016 33.2971 32.6844 53.6426L35.1662 55.328Z" fill="#00BAA4"/>
    <path d="M36.5184 105.941C35.7041 105.789 34.9206 106.325 34.7683 107.14L32.2871 120.41C32.1349 121.224 32.6716 122.008 33.4859 122.16C34.3002 122.312 35.0838 121.775 35.236 120.961L37.4415 109.166L49.2371 111.371C50.0514 111.523 50.835 110.987 50.9872 110.172C51.1395 109.358 50.6028 108.574 49.7885 108.422L36.5184 105.941ZM133.072 108.263C133.54 107.58 133.366 106.646 132.682 106.178C131.999 105.71 131.066 105.884 130.597 106.567L133.072 108.263ZM69.4221 129.167C55.8845 125.54 44.8243 117.29 37.4803 106.568L35.0052 108.263C42.7385 119.553 54.3908 128.245 68.6456 132.065L69.4221 129.167ZM130.597 106.567C117.444 125.759 93.1699 135.53 69.4221 129.167L68.6456 132.065C93.6604 138.768 119.221 128.472 133.072 108.263L130.597 106.567Z" fill="#00BAA4"/>
</svg>