<svg width="125" height="125" viewBox="0 0 125 125" fill="none" xmlns="http://www.w3.org/2000/svg">
    <path opacity="0.14" d="M95.1823 1H30.8177C14.3499 1 1 14.3499 1 30.8177V95.1823C1 111.65 14.3499 125 30.8177 125H95.1823C111.65 125 125 111.65 125 95.1823V30.8177C125 14.3499 111.65 1 95.1823 1Z" fill="#00FAAF"/>
    <path d="M57.0642 40.0603C56.5231 40.4602 55.8746 40.7149 55.6557 41.1685C55.451 41.5963 55.5037 42.3643 55.7793 42.7562C57.5 45.2035 60.8865 45.2254 62.7896 43.1462C63.4178 42.4598 63.5009 41.2839 62.9598 40.7248C62.3012 40.0483 61.2594 40.11 60.4427 40.878C59.7293 41.5485 59.2004 41.5286 58.4626 40.8999C58.112 40.6054 57.6702 40.4184 57.0642 40.0603ZM73.6343 41.3257C73.6343 40.8959 73.6566 40.4642 73.6302 40.0364C73.5735 39.151 72.8013 38.3651 72.017 38.3671C71.0685 38.3691 70.4058 39.0694 70.3957 40.1001C70.3876 40.9596 70.3572 41.8231 70.4058 42.6806C70.4686 43.8127 71.5792 44.3917 72.6351 43.9361C73.8998 43.387 73.6039 42.3066 73.6343 41.3257ZM45.2589 41.2521C45.2589 41.7475 45.2751 42.2449 45.2548 42.7383C45.2184 43.7093 45.9966 44.0276 46.6715 44.0595C47.1761 44.0833 48.0983 43.6317 48.155 43.2855C48.3556 42.028 48.3901 40.7129 48.2523 39.4455C48.1672 38.6675 47.3423 38.3074 46.5762 38.4367C45.798 38.568 45.1373 38.9739 45.2508 39.9628C45.2974 40.3886 45.2569 40.8223 45.2589 41.2521Z" fill="#00BAA4"/>
    <path d="M11 57.8674C11 57.8674 12.445 55.0879 13.7461 54.0414C15.3979 52.7123 17.2887 52.1313 19.3377 52.1134C25.1482 52.0597 30.9586 52.0955 36.7691 52.0955C37.1339 52.0955 37.4967 52.0955 37.9608 52.0955C37.9608 51.4866 37.9608 50.9654 37.9608 50.4441C37.9608 46.8289 37.9871 43.2117 37.9425 39.5965C37.9304 38.6375 38.4411 38.1461 39.2376 38.0008C40.0705 37.8476 40.7312 38.2774 40.9927 39.109C41.1183 39.507 41.1893 39.9348 41.1913 40.3506C41.2055 43.8663 41.1994 47.384 41.1994 50.8997C41.1994 51.2598 41.1994 51.618 41.1994 52.0935C41.6331 52.0935 41.9918 52.0935 42.3505 52.0935C47.4517 52.0935 52.5528 52.1114 57.6539 52.0855C60.1569 52.0736 62.4814 52.6009 64.344 54.31C65.8275 55.6709 66.8854 57.3541 66.9239 59.4154C66.9888 62.8177 66.9421 66.22 66.9421 69.9028C67.3921 69.5785 67.5765 69.479 67.7204 69.3378C70.7584 66.3632 73.8004 63.3927 76.812 60.3923C77.0775 60.1277 77.2619 59.6561 77.264 59.2801C77.2863 47.1393 77.2782 34.9984 77.2944 22.8556C77.2944 22.213 77.1444 21.6658 76.4918 21.5862C76.0824 21.5365 75.519 21.7335 75.213 22.016C73.6666 23.4505 72.1851 24.9527 70.6773 26.427C69.5565 27.5213 68.7905 27.5293 67.7082 26.4668C66.1315 24.9189 64.5527 23.3729 62.978 21.823C60.7851 19.6702 57.7127 19.6503 55.5219 21.817C54.1255 23.1998 52.7656 24.6204 51.4138 26.045C49.9891 27.5472 48.8703 27.6467 47.4861 26.1425C46.1283 24.6682 44.6569 23.2913 43.1835 21.9265C42.9099 21.6718 42.3708 21.5265 41.9938 21.5842C41.4122 21.6698 41.1791 22.1234 41.1852 22.7541C41.2136 26.0371 41.2034 29.322 41.1933 32.6069C41.1913 33.3649 41.0879 34.111 40.3036 34.5249C39.1261 35.1477 37.9608 34.4752 37.9588 33.164C37.9527 29.5488 37.9506 25.9316 37.9588 22.3164C37.9648 19.6702 40.8184 17.6905 43.4166 18.4227C45.0176 18.8743 46.0897 19.899 47.1092 21.0948C47.7557 21.8508 48.5522 22.4836 49.4013 23.2854C50.5565 22.1354 51.7543 20.9376 52.9581 19.7478C54.1437 18.5779 55.4651 17.6129 57.1493 17.2627C59.6218 16.7494 62.0315 16.8966 64.042 18.5341C65.8234 19.9846 67.4427 21.63 69.2444 23.2913C70.5192 22.0299 71.8102 20.7327 73.1215 19.4593C74.4145 18.2058 75.9953 17.9491 77.6267 18.5381C79.2825 19.133 80.4499 20.2532 80.5249 22.1413C80.5999 24.0514 80.7154 25.9614 80.7194 27.8715C80.7397 36.9941 80.7296 46.1166 80.7296 55.2391C80.7296 55.5973 80.7296 55.9554 80.7296 56.6418C82.282 55.0899 83.6216 53.719 85.0038 52.3899C85.5713 51.8448 86.1915 51.3315 86.8562 50.9057C89.0166 49.5268 91.4831 50.1357 93.3577 51.8746C94.8798 53.2873 96.339 54.7636 97.8083 56.23C98.548 56.9681 98.5703 57.945 97.9137 58.5976C97.2571 59.2503 96.2458 59.2423 95.502 58.53C94.1502 57.2308 92.8227 55.9057 91.4851 54.5925C89.9671 53.1042 88.9295 53.0963 87.4034 54.5925C82.7177 59.1866 78.0382 63.7867 73.3566 68.3827C68.4844 73.1678 63.6448 77.9868 58.7159 82.7142C57.3195 84.0552 57.3398 85.8459 58.6835 87.1372C65.0594 93.2613 71.3258 99.4909 77.6349 105.681C78.9319 106.952 80.0283 106.868 81.2241 105.689C90.9805 96.0369 100.792 86.4348 110.584 76.8189C111.683 75.7405 111.689 74.4313 110.597 73.3589C107.182 70.0023 103.761 66.6557 100.358 63.2873C100.042 62.9729 99.7134 62.573 99.6202 62.1611C99.456 61.4428 99.6972 60.7962 100.447 60.4401C101.248 60.06 101.912 60.2471 102.522 60.8499C105.119 63.4126 107.727 65.9653 110.331 68.522C111.239 69.4134 112.098 70.3585 113.063 71.1862C115.132 72.9609 115.017 77.1073 113.073 78.9955C103.134 88.6573 93.2686 98.3906 83.3865 108.11C82.3367 109.143 81.1045 109.863 79.6554 109.972C78.0503 110.094 76.6925 109.308 75.5859 108.227C68.9749 101.771 62.374 95.3047 55.8117 88.8005C54.5835 87.5848 53.9998 86.0409 54.3565 84.2024C54.0627 84.1786 53.7729 84.1547 53.3655 84.1228C53.3655 84.865 53.3655 85.5534 53.3655 86.2418C53.3655 88.6971 53.3635 91.1523 53.3675 93.6055C53.3695 95.5335 52.4211 96.7909 50.6173 97.5092C49.0264 98.1419 47.1842 97.8455 45.9418 96.6477C44.6447 95.3982 43.372 94.1228 41.9655 92.736C40.715 94.0034 39.5132 95.2032 38.3296 96.4209C35.6382 99.1924 31.5139 100.028 27.945 98.0325C27.3167 97.6823 26.7168 97.2426 26.198 96.7492C24.8644 95.4818 23.5816 94.1606 22.1568 92.74C21.0462 93.8502 19.9052 94.8371 18.9486 95.9712C16.6159 98.7408 12.7693 98.3687 11 95.2888C11 82.8157 11 57.8674 11 57.8674ZM51.9448 55.2809C51.3854 55.2809 51.0146 55.2809 50.6437 55.2809C40.6806 55.2809 30.7175 55.2749 20.7523 55.2889C19.8545 55.2909 18.9506 55.3605 18.0629 55.4898C15.9471 55.7982 14.042 57.9948 14.04 60.0978C14.0339 71.1424 14.04 82.1849 14.0319 93.2295C14.0319 93.7846 14.0542 94.2502 14.7007 94.5028C15.3432 94.7535 15.7525 94.5088 16.1741 94.089C17.5502 92.7201 19.0033 91.4209 20.3125 89.9943C21.7657 88.4086 22.8986 88.6413 24.3071 90.1435C25.6285 91.5522 26.956 92.9589 28.3544 94.2899C29.2866 95.1753 30.3547 95.8319 31.7612 95.9095C33.4859 96.005 34.7971 95.2868 35.9341 94.1706C37.3852 92.748 38.7593 91.2498 40.1942 89.8093C41.4426 88.5558 42.3607 88.5637 43.599 89.7794C44.9832 91.1403 46.3654 92.5032 47.7536 93.8602C48.2137 94.3079 48.6028 94.8291 49.4358 94.5108C50.2748 94.1885 50.1167 93.5558 50.1167 92.9509C50.1208 82.6028 50.1269 72.2566 50.1147 61.9084C50.1147 59.5885 50.4714 57.374 51.9448 55.2809ZM53.3655 80.8379C55.0152 81.2239 56.2008 80.8519 57.3033 79.6382C59.0989 77.6605 61.081 75.8459 63.0165 73.9936C63.509 73.522 63.7299 73.0544 63.7238 72.362C63.6873 68.5141 63.6448 64.6661 63.7319 60.8201C63.7745 58.9478 63.1523 57.4655 61.6606 56.3752C59.3421 54.68 56.7541 55.1078 54.7902 57.0616C53.6046 58.2415 53.4222 59.7894 53.3837 61.3195C53.3169 63.9717 53.3655 66.6259 53.3655 69.2801C53.3655 73.1241 53.3655 76.9681 53.3655 80.8379Z" fill="#00BAA4"/>
    <path d="M99.5573 85.1376C96.1789 85.1376 93.7266 83.3012 93.1004 80.649C92.4153 77.7481 93.6597 75.1476 96.3309 73.7747C96.7342 73.5678 97.1476 73.1918 97.332 72.7938C98.621 70.0262 101.931 69.119 103.85 69.501C107.577 70.2431 109.089 73.2554 108.88 75.7982C108.7 78.0107 107.599 79.7198 105.514 80.7683C105.086 80.9832 104.677 81.3891 104.454 81.8089C103.315 83.9498 101.483 84.9585 99.5573 85.1376ZM105.664 75.4261C105.694 74.0035 104.275 72.5451 102.818 72.6108C101.179 72.6864 100.044 73.721 100.017 75.3426C99.991 76.9562 101.077 78.0167 102.735 78.1559C104.239 78.2833 105.631 76.9323 105.664 75.4261ZM100.911 81.0728C98.9655 80.3883 97.7252 79.1149 97.022 77.2964C95.8465 78.5181 95.8769 79.9944 96.9956 81.1026C98.1123 82.2049 99.5898 82.2407 100.911 81.0728Z" fill="#00BAA4"/>
    <path d="M61.4763 85.2351C61.3891 84.103 61.8958 83.2634 62.6051 82.5451C63.9671 81.1643 65.3938 79.8432 66.7456 78.4524C68.1866 76.9681 70.7625 76.7155 72.3331 78.0704C74.1713 79.6542 75.8616 81.4309 77.4464 83.2634C78.5692 84.5606 78.2875 86.606 77.0674 87.8277C75.5069 89.3895 73.9302 90.9355 72.3392 92.4675C70.9064 93.8483 68.6466 93.8424 67.2199 92.4615C65.6796 90.9733 64.1616 89.4631 62.6315 87.9649C61.8411 87.193 61.3405 86.3076 61.4763 85.2351ZM64.8041 85.1396C64.7661 85.4919 65.0493 85.7445 65.2398 85.9355C66.5369 87.2387 67.8583 88.5161 69.1655 89.8093C69.6215 90.261 70.0106 90.2053 70.4504 89.7656C71.7251 88.4882 73.0121 87.2208 74.3152 85.9733C74.8503 85.462 74.8726 85.0282 74.3254 84.5069C73.0911 83.3291 71.8731 82.1373 70.6753 80.9236C70.0673 80.3068 69.5384 80.273 68.9182 80.9017C67.7204 82.1134 66.4882 83.2932 65.2803 84.495C65.104 84.6701 64.8376 84.8284 64.8041 85.1396Z" fill="#00BAA4"/>
    <path d="M89.9143 83.5222C89.961 84.1421 89.4705 84.5867 89.1401 84.913C84.9895 89.0295 80.8288 93.1362 76.6295 97.205C75.4601 98.3371 74.1043 97.9034 73.8185 96.7156C73.6989 96.2162 73.8631 95.4283 74.2158 95.0761C78.4373 90.8441 82.6994 86.6479 87.0202 82.5134C87.3992 82.1493 88.3295 82.0817 88.8909 82.2468C89.3266 82.3762 89.8664 82.8854 89.9143 83.5222Z" fill="#00BAA4"/>
    <path d="M77.2517 99.9327C77.2554 99.3823 77.6915 98.9916 77.9651 98.7171C80.0222 96.6598 82.1056 94.6283 84.1849 92.5929C84.8051 91.9861 86.0758 91.9125 86.6352 92.4397C87.1723 92.9451 87.2006 94.1727 86.5906 94.7855C84.489 96.8926 82.3873 99.0036 80.1944 101.015C79.8013 101.375 78.8974 101.493 78.3644 101.319C77.9063 101.17 77.247 100.627 77.2517 99.9327Z" fill="#00BAA4"/>
    <path d="M57.0642 40.0603C57.6996 40.0426 58.1141 40.6059 58.4586 40.9003C59.1963 41.5291 59.7233 41.549 60.4387 40.8785C61.2554 40.1124 62.2971 40.0488 62.9558 40.7253C63.499 41.2824 63.4138 42.4602 62.7856 43.1467C60.8825 45.2258 57.496 45.204 55.7753 42.7567C55.4997 42.3647 55.447 41.5947 55.6517 41.1689C55.8726 40.7153 56.3634 40.0798 57.0642 40.0603Z" fill="#00BAA4"/>
    <path d="M73.6343 41.3257C73.6039 42.3066 73.9016 43.387 72.635 43.9341C71.5791 44.3898 70.4685 43.8108 70.4056 42.6787C70.357 41.8211 70.3874 40.9576 70.3955 40.0981C70.4056 39.0675 71.0683 38.3671 72.0168 38.3651C72.7991 38.3631 73.5733 39.149 73.6301 40.0344C73.6564 40.4642 73.6343 40.8959 73.6343 41.3257Z" fill="#00BAA4"/>
    <path d="M45.2589 41.2521C45.2589 40.8223 45.2994 40.3885 45.2508 39.9647C45.1373 38.9738 45.798 38.5699 46.5762 38.4386C47.3423 38.3093 48.1672 38.6674 48.2523 39.4474C48.3901 40.7148 48.3577 42.0299 48.155 43.2874C48.1003 43.6336 47.1761 44.0852 46.6715 44.0614C45.9966 44.0295 45.2184 43.7112 45.2548 42.7402C45.2731 42.2428 45.2589 41.7475 45.2589 41.2521Z" fill="#00BAA4"/>
    <path d="M32.049 65.2332C27.8295 65.2332 23.612 65.2272 19.3925 65.2372C18.6 65.2392 17.9556 64.9069 17.7346 64.2125C17.5158 63.5201 17.5948 62.7362 18.3649 62.2985C18.6325 62.1473 18.979 62.0577 19.2891 62.0557C27.8275 62.0438 36.3658 62.0438 44.9042 62.0478C45.802 62.0478 46.4485 62.6467 46.4708 63.4604C46.4992 64.5169 45.9236 65.2014 44.9042 65.2233C43.4531 65.2531 42.002 65.2312 40.5509 65.2312C37.7196 65.2332 34.8843 65.2332 32.049 65.2332Z" fill="#00BAA4"/>
    <path d="M31.974 72.597C27.789 72.597 23.6039 72.599 19.4168 72.595C18.2859 72.595 17.7002 72.0617 17.6901 71.045C17.6799 70.0363 18.2839 69.4175 19.3621 69.4155C27.8335 69.4076 36.3071 69.4076 44.7785 69.4155C45.8891 69.4175 46.489 70.0641 46.4708 71.1565C46.4566 72.0518 45.806 72.595 44.7319 72.595C40.48 72.599 36.228 72.597 31.974 72.597Z" fill="#00BAA4"/>
    <path d="M25.9386 79.9606C23.7782 79.9626 21.6157 79.9626 19.4553 79.9606C18.365 79.9606 17.7164 79.4373 17.6901 78.5439C17.6577 77.4536 18.2049 76.8687 19.3682 76.7811C19.737 76.7533 20.1099 76.7751 20.4828 76.7751C24.4348 76.7751 28.3848 76.7712 32.3368 76.7791C33.6238 76.7811 34.3128 77.386 34.3128 78.4663C34.3148 79.306 33.6927 79.9506 32.8293 79.9546C30.5311 79.9665 28.2348 79.9586 25.9386 79.9606Z" fill="#00BAA4"/>
</svg>

