<svg width="107" height="107" viewBox="0 0 107 107" fill="none" xmlns="http://www.w3.org/2000/svg">
<path opacity="0.14" d="M0.242188 30.4648C0.242188 13.8963 13.6736 0.464844 30.2422 0.464844H76.2422C92.8107 0.464844 106.242 13.8963 106.242 30.4648V76.4648C106.242 93.0334 92.8107 106.465 76.2422 106.465H30.2422C13.6736 106.465 0.242188 93.0334 0.242188 76.4648V30.4648Z" fill="#20F1C0"/>
<path d="M59.5499 46.548C59.5499 45.3588 58.5856 44.3948 57.396 44.3948H40.1653C38.9757 44.3948 38.0114 45.3588 38.0114 46.548C38.0114 47.7372 38.9757 48.7013 40.1653 48.7013H57.396C58.5856 48.7013 59.5499 47.7372 59.5499 46.548Z" fill="#00BAA4"/>
<path d="M56.6781 55.161C56.6781 53.9718 55.7138 53.0078 54.5242 53.0078H40.1653C38.9757 53.0078 38.0114 53.9718 38.0114 55.161C38.0114 56.3502 38.9757 57.3143 40.1653 57.3143H54.5242C55.7138 57.3143 56.6781 56.3502 56.6781 55.161Z" fill="#00BAA4"/>
<path d="M57.396 61.6208C58.5856 61.6208 59.5499 62.5848 59.5499 63.774C59.5499 64.9632 58.5856 65.9273 57.396 65.9273H40.1653C38.9757 65.9273 38.0114 64.9632 38.0114 63.774C38.0114 62.5848 38.9757 61.6208 40.1653 61.6208H57.396Z" fill="#00BAA4"/>
<path fill-rule="evenodd" clip-rule="evenodd" d="M38.0114 81H75.3448C79.7064 81 83.2422 77.4652 83.2422 73.1048V57.3143C83.2422 56.1251 82.2779 55.161 81.0883 55.161H71.755V32.7477C71.755 28.6611 67.1346 26.284 63.8083 28.6593L63.3056 29.0183C61.0642 30.6188 58.0281 30.6135 55.7761 29.0054C52.0317 26.3315 46.9655 26.3315 43.2211 29.0054C40.9691 30.6135 37.933 30.6188 35.6916 29.0183L35.1889 28.6593C31.8626 26.284 27.2422 28.6611 27.2422 32.7477V70.2338C27.2422 76.1798 32.0637 81 38.0114 81ZM45.7249 32.5097C47.9715 30.9054 51.0257 30.9054 53.2723 32.5097C57.0115 35.1798 62.0597 35.2002 65.8094 32.5226L66.3121 32.1636C66.7873 31.8243 67.4473 32.1639 67.4473 32.7477V73.1048C67.4473 74.397 67.7579 75.6168 68.3084 76.6935H38.0114C34.4428 76.6935 31.5499 73.8014 31.5499 70.2338V32.7477C31.5499 32.1639 32.2099 31.8243 32.6851 32.1636L33.1878 32.5226C36.9375 35.2002 41.9857 35.1798 45.7249 32.5097ZM71.755 73.1048V59.4675H78.9345V73.1048C78.9345 75.0868 77.3273 76.6935 75.3448 76.6935C73.3622 76.6935 71.755 75.0868 71.755 73.1048Z" fill="#00BAA4"/>
</svg>
