<svg width="92" height="92" viewBox="0 0 92 92" fill="none" xmlns="http://www.w3.org/2000/svg">
<path d="M92 46C92 20.6278 71.3722 0 46 0C20.6278 0 2.76078e-06 20.6278 2.76078e-06 46C2.76078e-06 71.3722 20.6278 92 46 92C71.3722 92 92 71.3722 92 46Z" fill="white"/>
<path d="M52.601 62.7084C53.8387 61.4708 53.8387 59.8205 52.601 58.5829L42.0809 48.0627C41.0495 46.825 41.0495 45.1748 42.0809 43.9371L52.601 33.417C53.8387 32.1793 53.8387 30.5291 52.601 29.2914C51.3634 28.26 49.7132 28.26 48.4755 29.2914L33.8297 43.9371C32.5921 44.9685 32.5921 46.825 33.8297 48.0627L48.6818 62.7084C49.7132 63.7398 51.5697 63.7398 52.601 62.7084Z" fill="#00BAA4"/>
</svg>
