<svg width="125" height="125" viewBox="0 0 125 125" fill="none" xmlns="http://www.w3.org/2000/svg">
<path d="M0 62.0398C0 27.8205 27.8205 0 62.0398 0C96.2591 0 124.08 27.8205 124.08 62.0398C124.08 96.2591 96.2591 124.08 62.0398 124.08C27.8205 124.08 0 96.2591 0 62.0398Z" fill="white"/>
<path d="M53.1372 84.5744C51.4679 82.9052 51.4679 80.6795 53.1372 79.0103L67.3257 64.8218C68.7167 63.1526 68.7167 60.9269 67.3257 59.2577L53.1372 45.0692C51.4679 43.4 51.4679 41.1744 53.1372 39.5051C54.8064 38.1141 57.0321 38.1141 58.7013 39.5051L78.4539 59.2577C80.1231 60.6487 80.1231 63.1526 78.4539 64.8218L58.4231 84.5744C57.0321 85.9654 54.5282 85.9654 53.1372 84.5744Z" fill="#00BAA4"/>
</svg>
